%TF.GenerationSoftware,KiCad,Pcbnew,10.0.0*%
%TF.CreationDate,2026-05-20T19:40:02-04:00*%
%TF.ProjectId,TCGKit,5443474b-6974-42e6-9b69-6361645f7063,rev?*%
%TF.SameCoordinates,Original*%
%TF.FileFunction,Soldermask,Bot*%
%TF.FilePolarity,Negative*%
%FSLAX46Y46*%
G04 Gerber Fmt 4.6, Leading zero omitted, Abs format (unit mm)*
G04 Created by KiCad (PCBNEW 10.0.0) date 2026-05-20 19:40:02*
%MOMM*%
%LPD*%
G01*
G04 APERTURE LIST*
G04 APERTURE END LIST*
G36*
X134990285Y-116843060D02*
G01*
X135171397Y-116918079D01*
X135334393Y-117026990D01*
X135473010Y-117165607D01*
X135581921Y-117328603D01*
X135656940Y-117509715D01*
X135695185Y-117701983D01*
X135695185Y-117898017D01*
X135656940Y-118090285D01*
X135581921Y-118271397D01*
X135473010Y-118434393D01*
X135334393Y-118573010D01*
X135171397Y-118681921D01*
X134990285Y-118756940D01*
X134798017Y-118795185D01*
X134601983Y-118795185D01*
X134409715Y-118756940D01*
X134228603Y-118681921D01*
X134065607Y-118573010D01*
X133926990Y-118434393D01*
X133818079Y-118271397D01*
X133743060Y-118090285D01*
X133704815Y-117898017D01*
X133704815Y-117701983D01*
X133743060Y-117509715D01*
X133818079Y-117328603D01*
X133926990Y-117165607D01*
X134065607Y-117026990D01*
X134228603Y-116918079D01*
X134409715Y-116843060D01*
X134601983Y-116804815D01*
X134798017Y-116804815D01*
X134990285Y-116843060D01*
G37*
G36*
X141490285Y-116843060D02*
G01*
X141671397Y-116918079D01*
X141834393Y-117026990D01*
X141973010Y-117165607D01*
X142081921Y-117328603D01*
X142156940Y-117509715D01*
X142195185Y-117701983D01*
X142195185Y-117898017D01*
X142156940Y-118090285D01*
X142081921Y-118271397D01*
X141973010Y-118434393D01*
X141834393Y-118573010D01*
X141671397Y-118681921D01*
X141490285Y-118756940D01*
X141298017Y-118795185D01*
X141101983Y-118795185D01*
X140909715Y-118756940D01*
X140728603Y-118681921D01*
X140565607Y-118573010D01*
X140426990Y-118434393D01*
X140318079Y-118271397D01*
X140243060Y-118090285D01*
X140204815Y-117898017D01*
X140204815Y-117701983D01*
X140243060Y-117509715D01*
X140318079Y-117328603D01*
X140426990Y-117165607D01*
X140565607Y-117026990D01*
X140728603Y-116918079D01*
X140909715Y-116843060D01*
X141101983Y-116804815D01*
X141298017Y-116804815D01*
X141490285Y-116843060D01*
G37*
G36*
X123522771Y-117454705D02*
G01*
X123531789Y-117454705D01*
X123557771Y-117461666D01*
X123619569Y-117473959D01*
X123648738Y-117486041D01*
X123670476Y-117491866D01*
X123689965Y-117503118D01*
X123719133Y-117515200D01*
X123771524Y-117550206D01*
X123794819Y-117563656D01*
X123801194Y-117570031D01*
X123808729Y-117575066D01*
X123884933Y-117651270D01*
X123889967Y-117658804D01*
X123896344Y-117665181D01*
X123909795Y-117688479D01*
X123944799Y-117740866D01*
X123956879Y-117770030D01*
X123968134Y-117789524D01*
X123973959Y-117811265D01*
X123986040Y-117840430D01*
X123998331Y-117902223D01*
X124005295Y-117928211D01*
X124005295Y-117937229D01*
X124007063Y-117946118D01*
X124007063Y-118053881D01*
X124005295Y-118062769D01*
X124005295Y-118071789D01*
X123998330Y-118097779D01*
X123986040Y-118159569D01*
X123973960Y-118188731D01*
X123968134Y-118210476D01*
X123956878Y-118229971D01*
X123944799Y-118259133D01*
X123909799Y-118311513D01*
X123896344Y-118334819D01*
X123889965Y-118341197D01*
X123884933Y-118348729D01*
X123808729Y-118424933D01*
X123801197Y-118429965D01*
X123794819Y-118436344D01*
X123771513Y-118449799D01*
X123719133Y-118484799D01*
X123689971Y-118496878D01*
X123670476Y-118508134D01*
X123648731Y-118513960D01*
X123619569Y-118526040D01*
X123557777Y-118538331D01*
X123531789Y-118545295D01*
X123522770Y-118545295D01*
X123513882Y-118547063D01*
X123406118Y-118547063D01*
X123397230Y-118545295D01*
X123388211Y-118545295D01*
X123362223Y-118538331D01*
X123300430Y-118526040D01*
X123271265Y-118513959D01*
X123249524Y-118508134D01*
X123230030Y-118496879D01*
X123200866Y-118484799D01*
X123148479Y-118449795D01*
X123125181Y-118436344D01*
X123118804Y-118429967D01*
X123111270Y-118424933D01*
X123035066Y-118348729D01*
X123030031Y-118341194D01*
X123023656Y-118334819D01*
X123010206Y-118311524D01*
X122975200Y-118259133D01*
X122963118Y-118229965D01*
X122951866Y-118210476D01*
X122946041Y-118188738D01*
X122933959Y-118159569D01*
X122921667Y-118097773D01*
X122914705Y-118071789D01*
X122914705Y-118062769D01*
X122912937Y-118053881D01*
X122912937Y-117946118D01*
X122914705Y-117937229D01*
X122914705Y-117928211D01*
X122921666Y-117902229D01*
X122933959Y-117840430D01*
X122946042Y-117811258D01*
X122951866Y-117789524D01*
X122963116Y-117770037D01*
X122975200Y-117740866D01*
X123010211Y-117688468D01*
X123023656Y-117665181D01*
X123030029Y-117658807D01*
X123035066Y-117651270D01*
X123111270Y-117575066D01*
X123118807Y-117570029D01*
X123125181Y-117563656D01*
X123148468Y-117550211D01*
X123200866Y-117515200D01*
X123230037Y-117503116D01*
X123249524Y-117491866D01*
X123271258Y-117486042D01*
X123300430Y-117473959D01*
X123362229Y-117461666D01*
X123388211Y-117454705D01*
X123397229Y-117454705D01*
X123406118Y-117452937D01*
X123513882Y-117452937D01*
X123522771Y-117454705D01*
G37*
G36*
X126062771Y-117454705D02*
G01*
X126071789Y-117454705D01*
X126097771Y-117461666D01*
X126159569Y-117473959D01*
X126188738Y-117486041D01*
X126210476Y-117491866D01*
X126229965Y-117503118D01*
X126259133Y-117515200D01*
X126311524Y-117550206D01*
X126334819Y-117563656D01*
X126341194Y-117570031D01*
X126348729Y-117575066D01*
X126424933Y-117651270D01*
X126429967Y-117658804D01*
X126436344Y-117665181D01*
X126449795Y-117688479D01*
X126484799Y-117740866D01*
X126496879Y-117770030D01*
X126508134Y-117789524D01*
X126513959Y-117811265D01*
X126526040Y-117840430D01*
X126538331Y-117902223D01*
X126545295Y-117928211D01*
X126545295Y-117937229D01*
X126547063Y-117946118D01*
X126547063Y-118053881D01*
X126545295Y-118062769D01*
X126545295Y-118071789D01*
X126538330Y-118097779D01*
X126526040Y-118159569D01*
X126513960Y-118188731D01*
X126508134Y-118210476D01*
X126496878Y-118229971D01*
X126484799Y-118259133D01*
X126449799Y-118311513D01*
X126436344Y-118334819D01*
X126429965Y-118341197D01*
X126424933Y-118348729D01*
X126348729Y-118424933D01*
X126341197Y-118429965D01*
X126334819Y-118436344D01*
X126311513Y-118449799D01*
X126259133Y-118484799D01*
X126229971Y-118496878D01*
X126210476Y-118508134D01*
X126188731Y-118513960D01*
X126159569Y-118526040D01*
X126097777Y-118538331D01*
X126071789Y-118545295D01*
X126062770Y-118545295D01*
X126053882Y-118547063D01*
X125946118Y-118547063D01*
X125937230Y-118545295D01*
X125928211Y-118545295D01*
X125902223Y-118538331D01*
X125840430Y-118526040D01*
X125811265Y-118513959D01*
X125789524Y-118508134D01*
X125770030Y-118496879D01*
X125740866Y-118484799D01*
X125688479Y-118449795D01*
X125665181Y-118436344D01*
X125658804Y-118429967D01*
X125651270Y-118424933D01*
X125575066Y-118348729D01*
X125570031Y-118341194D01*
X125563656Y-118334819D01*
X125550206Y-118311524D01*
X125515200Y-118259133D01*
X125503118Y-118229965D01*
X125491866Y-118210476D01*
X125486041Y-118188738D01*
X125473959Y-118159569D01*
X125461667Y-118097773D01*
X125454705Y-118071789D01*
X125454705Y-118062769D01*
X125452937Y-118053881D01*
X125452937Y-117946118D01*
X125454705Y-117937229D01*
X125454705Y-117928211D01*
X125461666Y-117902229D01*
X125473959Y-117840430D01*
X125486042Y-117811258D01*
X125491866Y-117789524D01*
X125503116Y-117770037D01*
X125515200Y-117740866D01*
X125550211Y-117688468D01*
X125563656Y-117665181D01*
X125570029Y-117658807D01*
X125575066Y-117651270D01*
X125651270Y-117575066D01*
X125658807Y-117570029D01*
X125665181Y-117563656D01*
X125688468Y-117550211D01*
X125740866Y-117515200D01*
X125770037Y-117503116D01*
X125789524Y-117491866D01*
X125811258Y-117486042D01*
X125840430Y-117473959D01*
X125902229Y-117461666D01*
X125928211Y-117454705D01*
X125937229Y-117454705D01*
X125946118Y-117452937D01*
X126053882Y-117452937D01*
X126062771Y-117454705D01*
G37*
G36*
X124314850Y-114360964D02*
G01*
X124365041Y-114366787D01*
X124382191Y-114374359D01*
X124405671Y-114379030D01*
X124430806Y-114395825D01*
X124450696Y-114404607D01*
X124464280Y-114418191D01*
X124486777Y-114433223D01*
X124501808Y-114455719D01*
X124515392Y-114469303D01*
X124524173Y-114489190D01*
X124540970Y-114514329D01*
X124545640Y-114537809D01*
X124553212Y-114554958D01*
X124559036Y-114605161D01*
X124559999Y-114610000D01*
X124559999Y-114613456D01*
X124560000Y-114613465D01*
X124560000Y-115507328D01*
X124560000Y-116310001D01*
X124559034Y-116314853D01*
X124553212Y-116365041D01*
X124545641Y-116382187D01*
X124540970Y-116405671D01*
X124524171Y-116430811D01*
X124515392Y-116450696D01*
X124501810Y-116464277D01*
X124486777Y-116486777D01*
X124464277Y-116501810D01*
X124450696Y-116515392D01*
X124430811Y-116524171D01*
X124405671Y-116540970D01*
X124382188Y-116545640D01*
X124365041Y-116553212D01*
X124314838Y-116559036D01*
X124310000Y-116559999D01*
X124306543Y-116559999D01*
X124306535Y-116560000D01*
X122613465Y-116560000D01*
X122613464Y-116559999D01*
X122609999Y-116560000D01*
X122605147Y-116559035D01*
X122554958Y-116553212D01*
X122537810Y-116545640D01*
X122514329Y-116540970D01*
X122489190Y-116524173D01*
X122469303Y-116515392D01*
X122455719Y-116501808D01*
X122433223Y-116486777D01*
X122418191Y-116464280D01*
X122404607Y-116450696D01*
X122395825Y-116430806D01*
X122379030Y-116405671D01*
X122374360Y-116382192D01*
X122366787Y-116365041D01*
X122360963Y-116314838D01*
X122360001Y-116310000D01*
X122360000Y-116306542D01*
X122360000Y-116306534D01*
X122360000Y-114613465D01*
X122360000Y-114613464D01*
X122360000Y-114609999D01*
X122360964Y-114605149D01*
X122366787Y-114554958D01*
X122374359Y-114537806D01*
X122379030Y-114514329D01*
X122395823Y-114489194D01*
X122404607Y-114469303D01*
X122418193Y-114455716D01*
X122433223Y-114433223D01*
X122455716Y-114418193D01*
X122469303Y-114404607D01*
X122489194Y-114395823D01*
X122514329Y-114379030D01*
X122537805Y-114374360D01*
X122554958Y-114366787D01*
X122605163Y-114360963D01*
X122610000Y-114360001D01*
X122613456Y-114360000D01*
X122613465Y-114360000D01*
X124306535Y-114360000D01*
X124310001Y-114360000D01*
X124314850Y-114360964D01*
G37*
G36*
X126256790Y-114390393D02*
G01*
X126420952Y-114443733D01*
X126574748Y-114522096D01*
X126714393Y-114623553D01*
X126836447Y-114745607D01*
X126937904Y-114885252D01*
X127016267Y-115039048D01*
X127069607Y-115203210D01*
X127096609Y-115373695D01*
X127096609Y-115546305D01*
X127069607Y-115716790D01*
X127016267Y-115880952D01*
X126937904Y-116034748D01*
X126836447Y-116174393D01*
X126714393Y-116296447D01*
X126574748Y-116397904D01*
X126420952Y-116476267D01*
X126256790Y-116529607D01*
X126086305Y-116556609D01*
X125913695Y-116556609D01*
X125743210Y-116529607D01*
X125579048Y-116476267D01*
X125425252Y-116397904D01*
X125285607Y-116296447D01*
X125163553Y-116174393D01*
X125062096Y-116034748D01*
X124983733Y-115880952D01*
X124930393Y-115716790D01*
X124903391Y-115546305D01*
X124903391Y-115373695D01*
X124930393Y-115203210D01*
X124983733Y-115039048D01*
X125062096Y-114885252D01*
X125163553Y-114745607D01*
X125285607Y-114623553D01*
X125425252Y-114522096D01*
X125579048Y-114443733D01*
X125743210Y-114390393D01*
X125913695Y-114363391D01*
X126086305Y-114363391D01*
X126256790Y-114390393D01*
G37*
G36*
X112232228Y-114234448D02*
G01*
X112377117Y-114294463D01*
X112507515Y-114381592D01*
X112618408Y-114492485D01*
X112705537Y-114622883D01*
X112765552Y-114767772D01*
X112796148Y-114921586D01*
X112796148Y-115078414D01*
X112765552Y-115232228D01*
X112705537Y-115377117D01*
X112618408Y-115507515D01*
X112507515Y-115618408D01*
X112377117Y-115705537D01*
X112232228Y-115765552D01*
X112078414Y-115796148D01*
X111921586Y-115796148D01*
X111767772Y-115765552D01*
X111622883Y-115705537D01*
X111492485Y-115618408D01*
X111381592Y-115507515D01*
X111294463Y-115377117D01*
X111234448Y-115232228D01*
X111203852Y-115078414D01*
X111203852Y-114921586D01*
X111234448Y-114767772D01*
X111294463Y-114622883D01*
X111381592Y-114492485D01*
X111492485Y-114381592D01*
X111622883Y-114294463D01*
X111767772Y-114234448D01*
X111921586Y-114203852D01*
X112078414Y-114203852D01*
X112232228Y-114234448D01*
G37*
G36*
X134990285Y-112343060D02*
G01*
X135171397Y-112418079D01*
X135334393Y-112526990D01*
X135473010Y-112665607D01*
X135581921Y-112828603D01*
X135656940Y-113009715D01*
X135695185Y-113201983D01*
X135695185Y-113398017D01*
X135656940Y-113590285D01*
X135581921Y-113771397D01*
X135473010Y-113934393D01*
X135334393Y-114073010D01*
X135171397Y-114181921D01*
X134990285Y-114256940D01*
X134798017Y-114295185D01*
X134601983Y-114295185D01*
X134409715Y-114256940D01*
X134228603Y-114181921D01*
X134065607Y-114073010D01*
X133926990Y-113934393D01*
X133818079Y-113771397D01*
X133743060Y-113590285D01*
X133704815Y-113398017D01*
X133704815Y-113201983D01*
X133743060Y-113009715D01*
X133818079Y-112828603D01*
X133926990Y-112665607D01*
X134065607Y-112526990D01*
X134228603Y-112418079D01*
X134409715Y-112343060D01*
X134601983Y-112304815D01*
X134798017Y-112304815D01*
X134990285Y-112343060D01*
G37*
G36*
X141490285Y-112343060D02*
G01*
X141671397Y-112418079D01*
X141834393Y-112526990D01*
X141973010Y-112665607D01*
X142081921Y-112828603D01*
X142156940Y-113009715D01*
X142195185Y-113201983D01*
X142195185Y-113398017D01*
X142156940Y-113590285D01*
X142081921Y-113771397D01*
X141973010Y-113934393D01*
X141834393Y-114073010D01*
X141671397Y-114181921D01*
X141490285Y-114256940D01*
X141298017Y-114295185D01*
X141101983Y-114295185D01*
X140909715Y-114256940D01*
X140728603Y-114181921D01*
X140565607Y-114073010D01*
X140426990Y-113934393D01*
X140318079Y-113771397D01*
X140243060Y-113590285D01*
X140204815Y-113398017D01*
X140204815Y-113201983D01*
X140243060Y-113009715D01*
X140318079Y-112828603D01*
X140426990Y-112665607D01*
X140565607Y-112526990D01*
X140728603Y-112418079D01*
X140909715Y-112343060D01*
X141101983Y-112304815D01*
X141298017Y-112304815D01*
X141490285Y-112343060D01*
G37*
G36*
X98109962Y-112400964D02*
G01*
X98160152Y-112406787D01*
X98177301Y-112414359D01*
X98200783Y-112419030D01*
X98225922Y-112435827D01*
X98245808Y-112444608D01*
X98259389Y-112458189D01*
X98281889Y-112473223D01*
X98296922Y-112495722D01*
X98310503Y-112509303D01*
X98319282Y-112529186D01*
X98336082Y-112554329D01*
X98340753Y-112577812D01*
X98348324Y-112594959D01*
X98354145Y-112645139D01*
X98355112Y-112650000D01*
X98355112Y-113750000D01*
X98354144Y-113754863D01*
X98348324Y-113805040D01*
X98340753Y-113822185D01*
X98336082Y-113845671D01*
X98319281Y-113870815D01*
X98310503Y-113890696D01*
X98296924Y-113904274D01*
X98281889Y-113926777D01*
X98259386Y-113941812D01*
X98245808Y-113955391D01*
X98225927Y-113964169D01*
X98200783Y-113980970D01*
X98177297Y-113985641D01*
X98160152Y-113993212D01*
X98109973Y-113999032D01*
X98105112Y-114000000D01*
X97005112Y-114000000D01*
X97000250Y-113999032D01*
X96950071Y-113993212D01*
X96932924Y-113985641D01*
X96909441Y-113980970D01*
X96884298Y-113964170D01*
X96864415Y-113955391D01*
X96850834Y-113941810D01*
X96828335Y-113926777D01*
X96813301Y-113904277D01*
X96799720Y-113890696D01*
X96790939Y-113870810D01*
X96774142Y-113845671D01*
X96769471Y-113822189D01*
X96761899Y-113805040D01*
X96756076Y-113754849D01*
X96755112Y-113750000D01*
X96755112Y-112650000D01*
X96756076Y-112645150D01*
X96761899Y-112594959D01*
X96769471Y-112577808D01*
X96774142Y-112554329D01*
X96790938Y-112529191D01*
X96799720Y-112509303D01*
X96813303Y-112495719D01*
X96828335Y-112473223D01*
X96850831Y-112458191D01*
X96864415Y-112444608D01*
X96884303Y-112435826D01*
X96909441Y-112419030D01*
X96932920Y-112414359D01*
X96950071Y-112406787D01*
X97000263Y-112400964D01*
X97005112Y-112400000D01*
X98105112Y-112400000D01*
X98109962Y-112400964D01*
G37*
G36*
X95787340Y-112434448D02*
G01*
X95932229Y-112494463D01*
X96062627Y-112581592D01*
X96173520Y-112692485D01*
X96260649Y-112822883D01*
X96320664Y-112967772D01*
X96351260Y-113121586D01*
X96351260Y-113278414D01*
X96320664Y-113432228D01*
X96260649Y-113577117D01*
X96173520Y-113707515D01*
X96062627Y-113818408D01*
X95932229Y-113905537D01*
X95787340Y-113965552D01*
X95633526Y-113996148D01*
X95476698Y-113996148D01*
X95322884Y-113965552D01*
X95177995Y-113905537D01*
X95047597Y-113818408D01*
X94936704Y-113707515D01*
X94849575Y-113577117D01*
X94789560Y-113432228D01*
X94758964Y-113278414D01*
X94758964Y-113121586D01*
X94789560Y-112967772D01*
X94849575Y-112822883D01*
X94936704Y-112692485D01*
X95047597Y-112581592D01*
X95177995Y-112494463D01*
X95322884Y-112434448D01*
X95476698Y-112403852D01*
X95633526Y-112403852D01*
X95787340Y-112434448D01*
G37*
G36*
X112554850Y-112200964D02*
G01*
X112605040Y-112206787D01*
X112622189Y-112214359D01*
X112645671Y-112219030D01*
X112670810Y-112235827D01*
X112690696Y-112244608D01*
X112704277Y-112258189D01*
X112726777Y-112273223D01*
X112741810Y-112295722D01*
X112755391Y-112309303D01*
X112764170Y-112329186D01*
X112780970Y-112354329D01*
X112785641Y-112377812D01*
X112793212Y-112394959D01*
X112799033Y-112445139D01*
X112800000Y-112450000D01*
X112800000Y-113550000D01*
X112799032Y-113554863D01*
X112793212Y-113605040D01*
X112785641Y-113622185D01*
X112780970Y-113645671D01*
X112764169Y-113670815D01*
X112755391Y-113690696D01*
X112741812Y-113704274D01*
X112726777Y-113726777D01*
X112704274Y-113741812D01*
X112690696Y-113755391D01*
X112670815Y-113764169D01*
X112645671Y-113780970D01*
X112622185Y-113785641D01*
X112605040Y-113793212D01*
X112554861Y-113799032D01*
X112550000Y-113800000D01*
X111450000Y-113800000D01*
X111445138Y-113799032D01*
X111394959Y-113793212D01*
X111377812Y-113785641D01*
X111354329Y-113780970D01*
X111329186Y-113764170D01*
X111309303Y-113755391D01*
X111295722Y-113741810D01*
X111273223Y-113726777D01*
X111258189Y-113704277D01*
X111244608Y-113690696D01*
X111235827Y-113670810D01*
X111219030Y-113645671D01*
X111214359Y-113622189D01*
X111206787Y-113605040D01*
X111200964Y-113554849D01*
X111200000Y-113550000D01*
X111200000Y-112450000D01*
X111200964Y-112445150D01*
X111206787Y-112394959D01*
X111214359Y-112377808D01*
X111219030Y-112354329D01*
X111235826Y-112329191D01*
X111244608Y-112309303D01*
X111258191Y-112295719D01*
X111273223Y-112273223D01*
X111295719Y-112258191D01*
X111309303Y-112244608D01*
X111329191Y-112235826D01*
X111354329Y-112219030D01*
X111377808Y-112214359D01*
X111394959Y-112206787D01*
X111445151Y-112200964D01*
X111450000Y-112200000D01*
X112550000Y-112200000D01*
X112554850Y-112200964D01*
G37*
G36*
X91832228Y-109714448D02*
G01*
X91977117Y-109774463D01*
X92107515Y-109861592D01*
X92218408Y-109972485D01*
X92305537Y-110102883D01*
X92365552Y-110247772D01*
X92396148Y-110401586D01*
X92396148Y-110558414D01*
X92365552Y-110712228D01*
X92305537Y-110857117D01*
X92218408Y-110987515D01*
X92107515Y-111098408D01*
X91977117Y-111185537D01*
X91832228Y-111245552D01*
X91678414Y-111276148D01*
X91521586Y-111276148D01*
X91367772Y-111245552D01*
X91222883Y-111185537D01*
X91092485Y-111098408D01*
X90981592Y-110987515D01*
X90894463Y-110857117D01*
X90834448Y-110712228D01*
X90803852Y-110558414D01*
X90803852Y-110401586D01*
X90834448Y-110247772D01*
X90894463Y-110102883D01*
X90981592Y-109972485D01*
X91092485Y-109861592D01*
X91222883Y-109774463D01*
X91367772Y-109714448D01*
X91521586Y-109683852D01*
X91678414Y-109683852D01*
X91832228Y-109714448D01*
G37*
G36*
X102152228Y-104834448D02*
G01*
X102297117Y-104894463D01*
X102427515Y-104981592D01*
X102538408Y-105092485D01*
X102625537Y-105222883D01*
X102685552Y-105367772D01*
X102716148Y-105521586D01*
X102716148Y-105678414D01*
X102685552Y-105832228D01*
X102625537Y-105977117D01*
X102538408Y-106107515D01*
X102427515Y-106218408D01*
X102297117Y-106305537D01*
X102152228Y-106365552D01*
X101998414Y-106396148D01*
X101841586Y-106396148D01*
X101687772Y-106365552D01*
X101542883Y-106305537D01*
X101412485Y-106218408D01*
X101301592Y-106107515D01*
X101214463Y-105977117D01*
X101154448Y-105832228D01*
X101123852Y-105678414D01*
X101123852Y-105521586D01*
X101154448Y-105367772D01*
X101214463Y-105222883D01*
X101301592Y-105092485D01*
X101412485Y-104981592D01*
X101542883Y-104894463D01*
X101687772Y-104834448D01*
X101841586Y-104803852D01*
X101998414Y-104803852D01*
X102152228Y-104834448D01*
G37*
G36*
X112312228Y-104834448D02*
G01*
X112457117Y-104894463D01*
X112587515Y-104981592D01*
X112698408Y-105092485D01*
X112785537Y-105222883D01*
X112845552Y-105367772D01*
X112876148Y-105521586D01*
X112876148Y-105678414D01*
X112845552Y-105832228D01*
X112785537Y-105977117D01*
X112698408Y-106107515D01*
X112587515Y-106218408D01*
X112457117Y-106305537D01*
X112312228Y-106365552D01*
X112158414Y-106396148D01*
X112001586Y-106396148D01*
X111847772Y-106365552D01*
X111702883Y-106305537D01*
X111572485Y-106218408D01*
X111461592Y-106107515D01*
X111374463Y-105977117D01*
X111314448Y-105832228D01*
X111283852Y-105678414D01*
X111283852Y-105521586D01*
X111314448Y-105367772D01*
X111374463Y-105222883D01*
X111461592Y-105092485D01*
X111572485Y-104981592D01*
X111702883Y-104894463D01*
X111847772Y-104834448D01*
X112001586Y-104803852D01*
X112158414Y-104803852D01*
X112312228Y-104834448D01*
G37*
G36*
X127342228Y-101364448D02*
G01*
X127487117Y-101424463D01*
X127617515Y-101511592D01*
X127728408Y-101622485D01*
X127815537Y-101752883D01*
X127875552Y-101897772D01*
X127906148Y-102051586D01*
X127906148Y-102208414D01*
X127875552Y-102362228D01*
X127815537Y-102507117D01*
X127728408Y-102637515D01*
X127617515Y-102748408D01*
X127487117Y-102835537D01*
X127342228Y-102895552D01*
X127188414Y-102926148D01*
X127031586Y-102926148D01*
X126877772Y-102895552D01*
X126732883Y-102835537D01*
X126602485Y-102748408D01*
X126491592Y-102637515D01*
X126404463Y-102507117D01*
X126344448Y-102362228D01*
X126313852Y-102208414D01*
X126313852Y-102051586D01*
X126344448Y-101897772D01*
X126404463Y-101752883D01*
X126491592Y-101622485D01*
X126602485Y-101511592D01*
X126732883Y-101424463D01*
X126877772Y-101364448D01*
X127031586Y-101333852D01*
X127188414Y-101333852D01*
X127342228Y-101364448D01*
G37*
G36*
X145122228Y-101364448D02*
G01*
X145267117Y-101424463D01*
X145397515Y-101511592D01*
X145508408Y-101622485D01*
X145595537Y-101752883D01*
X145655552Y-101897772D01*
X145686148Y-102051586D01*
X145686148Y-102208414D01*
X145655552Y-102362228D01*
X145595537Y-102507117D01*
X145508408Y-102637515D01*
X145397515Y-102748408D01*
X145267117Y-102835537D01*
X145122228Y-102895552D01*
X144968414Y-102926148D01*
X144811586Y-102926148D01*
X144657772Y-102895552D01*
X144512883Y-102835537D01*
X144382485Y-102748408D01*
X144271592Y-102637515D01*
X144184463Y-102507117D01*
X144124448Y-102362228D01*
X144093852Y-102208414D01*
X144093852Y-102051586D01*
X144124448Y-101897772D01*
X144184463Y-101752883D01*
X144271592Y-101622485D01*
X144382485Y-101511592D01*
X144512883Y-101424463D01*
X144657772Y-101364448D01*
X144811586Y-101333852D01*
X144968414Y-101333852D01*
X145122228Y-101364448D01*
G37*
G36*
X91832228Y-99554448D02*
G01*
X91977117Y-99614463D01*
X92107515Y-99701592D01*
X92218408Y-99812485D01*
X92305537Y-99942883D01*
X92365552Y-100087772D01*
X92396148Y-100241586D01*
X92396148Y-100398414D01*
X92365552Y-100552228D01*
X92305537Y-100697117D01*
X92218408Y-100827515D01*
X92107515Y-100938408D01*
X91977117Y-101025537D01*
X91832228Y-101085552D01*
X91678414Y-101116148D01*
X91521586Y-101116148D01*
X91367772Y-101085552D01*
X91222883Y-101025537D01*
X91092485Y-100938408D01*
X90981592Y-100827515D01*
X90894463Y-100697117D01*
X90834448Y-100552228D01*
X90803852Y-100398414D01*
X90803852Y-100241586D01*
X90834448Y-100087772D01*
X90894463Y-99942883D01*
X90981592Y-99812485D01*
X91092485Y-99701592D01*
X91222883Y-99614463D01*
X91367772Y-99554448D01*
X91521586Y-99523852D01*
X91678414Y-99523852D01*
X91832228Y-99554448D01*
G37*
G36*
X127342228Y-98824448D02*
G01*
X127487117Y-98884463D01*
X127617515Y-98971592D01*
X127728408Y-99082485D01*
X127815537Y-99212883D01*
X127875552Y-99357772D01*
X127906148Y-99511586D01*
X127906148Y-99668414D01*
X127875552Y-99822228D01*
X127815537Y-99967117D01*
X127728408Y-100097515D01*
X127617515Y-100208408D01*
X127487117Y-100295537D01*
X127342228Y-100355552D01*
X127188414Y-100386148D01*
X127031586Y-100386148D01*
X126877772Y-100355552D01*
X126732883Y-100295537D01*
X126602485Y-100208408D01*
X126491592Y-100097515D01*
X126404463Y-99967117D01*
X126344448Y-99822228D01*
X126313852Y-99668414D01*
X126313852Y-99511586D01*
X126344448Y-99357772D01*
X126404463Y-99212883D01*
X126491592Y-99082485D01*
X126602485Y-98971592D01*
X126732883Y-98884463D01*
X126877772Y-98824448D01*
X127031586Y-98793852D01*
X127188414Y-98793852D01*
X127342228Y-98824448D01*
G37*
G36*
X145122228Y-98824448D02*
G01*
X145267117Y-98884463D01*
X145397515Y-98971592D01*
X145508408Y-99082485D01*
X145595537Y-99212883D01*
X145655552Y-99357772D01*
X145686148Y-99511586D01*
X145686148Y-99668414D01*
X145655552Y-99822228D01*
X145595537Y-99967117D01*
X145508408Y-100097515D01*
X145397515Y-100208408D01*
X145267117Y-100295537D01*
X145122228Y-100355552D01*
X144968414Y-100386148D01*
X144811586Y-100386148D01*
X144657772Y-100355552D01*
X144512883Y-100295537D01*
X144382485Y-100208408D01*
X144271592Y-100097515D01*
X144184463Y-99967117D01*
X144124448Y-99822228D01*
X144093852Y-99668414D01*
X144093852Y-99511586D01*
X144124448Y-99357772D01*
X144184463Y-99212883D01*
X144271592Y-99082485D01*
X144382485Y-98971592D01*
X144512883Y-98884463D01*
X144657772Y-98824448D01*
X144811586Y-98793852D01*
X144968414Y-98793852D01*
X145122228Y-98824448D01*
G37*
G36*
X103552228Y-97434448D02*
G01*
X103697117Y-97494463D01*
X103827515Y-97581592D01*
X103938408Y-97692485D01*
X104025537Y-97822883D01*
X104085552Y-97967772D01*
X104116148Y-98121586D01*
X104116148Y-98278414D01*
X104085552Y-98432228D01*
X104025537Y-98577117D01*
X103938408Y-98707515D01*
X103827515Y-98818408D01*
X103697117Y-98905537D01*
X103552228Y-98965552D01*
X103398414Y-98996148D01*
X103241586Y-98996148D01*
X103087772Y-98965552D01*
X102942883Y-98905537D01*
X102812485Y-98818408D01*
X102701592Y-98707515D01*
X102614463Y-98577117D01*
X102554448Y-98432228D01*
X102523852Y-98278414D01*
X102523852Y-98121586D01*
X102554448Y-97967772D01*
X102614463Y-97822883D01*
X102701592Y-97692485D01*
X102812485Y-97581592D01*
X102942883Y-97494463D01*
X103087772Y-97434448D01*
X103241586Y-97403852D01*
X103398414Y-97403852D01*
X103552228Y-97434448D01*
G37*
G36*
X113712228Y-97434448D02*
G01*
X113857117Y-97494463D01*
X113987515Y-97581592D01*
X114098408Y-97692485D01*
X114185537Y-97822883D01*
X114245552Y-97967772D01*
X114276148Y-98121586D01*
X114276148Y-98278414D01*
X114245552Y-98432228D01*
X114185537Y-98577117D01*
X114098408Y-98707515D01*
X113987515Y-98818408D01*
X113857117Y-98905537D01*
X113712228Y-98965552D01*
X113558414Y-98996148D01*
X113401586Y-98996148D01*
X113247772Y-98965552D01*
X113102883Y-98905537D01*
X112972485Y-98818408D01*
X112861592Y-98707515D01*
X112774463Y-98577117D01*
X112714448Y-98432228D01*
X112683852Y-98278414D01*
X112683852Y-98121586D01*
X112714448Y-97967772D01*
X112774463Y-97822883D01*
X112861592Y-97692485D01*
X112972485Y-97581592D01*
X113102883Y-97494463D01*
X113247772Y-97434448D01*
X113401586Y-97403852D01*
X113558414Y-97403852D01*
X113712228Y-97434448D01*
G37*
G36*
X127713536Y-96246464D02*
G01*
X127715915Y-96248843D01*
X127743108Y-96248843D01*
X127749018Y-96248843D01*
X127750931Y-96249224D01*
X127756385Y-96251483D01*
X127756389Y-96251484D01*
X127817569Y-96276826D01*
X127823027Y-96279087D01*
X127824650Y-96280170D01*
X127879830Y-96335350D01*
X127880913Y-96336973D01*
X127910776Y-96409069D01*
X127911157Y-96410982D01*
X127911157Y-96444085D01*
X127913536Y-96446464D01*
X127915000Y-96450000D01*
X127915000Y-97650000D01*
X127913536Y-97653536D01*
X127911157Y-97655915D01*
X127911157Y-97689018D01*
X127910776Y-97690931D01*
X127880913Y-97763027D01*
X127879830Y-97764650D01*
X127824650Y-97819830D01*
X127823027Y-97820913D01*
X127750931Y-97850776D01*
X127749018Y-97851157D01*
X127715915Y-97851157D01*
X127713536Y-97853536D01*
X127710000Y-97855000D01*
X127698066Y-97855000D01*
X127121935Y-97855000D01*
X127110000Y-97855000D01*
X127106464Y-97853536D01*
X127105475Y-97851148D01*
X127034533Y-97851148D01*
X127031586Y-97851148D01*
X127030611Y-97851052D01*
X126876797Y-97820456D01*
X126875859Y-97820171D01*
X126730970Y-97760156D01*
X126730105Y-97759694D01*
X126635362Y-97696389D01*
X126602159Y-97674204D01*
X126602154Y-97674200D01*
X126599707Y-97672565D01*
X126598949Y-97671944D01*
X126488056Y-97561051D01*
X126487435Y-97560293D01*
X126485800Y-97557846D01*
X126485795Y-97557840D01*
X126401943Y-97432345D01*
X126401942Y-97432344D01*
X126400306Y-97429895D01*
X126399844Y-97429030D01*
X126398720Y-97426317D01*
X126398717Y-97426311D01*
X126340955Y-97286860D01*
X126340954Y-97286857D01*
X126339829Y-97284141D01*
X126339544Y-97283203D01*
X126338970Y-97280318D01*
X126338968Y-97280311D01*
X126309523Y-97132281D01*
X126309522Y-97132278D01*
X126308948Y-97129389D01*
X126308852Y-97128414D01*
X126308852Y-96971586D01*
X126308948Y-96970611D01*
X126309523Y-96967718D01*
X126338968Y-96819688D01*
X126338970Y-96819679D01*
X126339544Y-96816797D01*
X126339829Y-96815859D01*
X126340953Y-96813144D01*
X126340955Y-96813139D01*
X126398717Y-96673688D01*
X126398722Y-96673678D01*
X126399844Y-96670970D01*
X126400306Y-96670105D01*
X126401940Y-96667659D01*
X126401943Y-96667654D01*
X126485795Y-96542159D01*
X126485803Y-96542148D01*
X126487435Y-96539707D01*
X126488056Y-96538949D01*
X126598949Y-96428056D01*
X126599707Y-96427435D01*
X126602148Y-96425803D01*
X126602159Y-96425795D01*
X126727654Y-96341943D01*
X126727659Y-96341940D01*
X126730105Y-96340306D01*
X126730970Y-96339844D01*
X126733678Y-96338722D01*
X126733688Y-96338717D01*
X126873139Y-96280955D01*
X126873144Y-96280953D01*
X126875859Y-96279829D01*
X126876797Y-96279544D01*
X126879679Y-96278970D01*
X126879688Y-96278968D01*
X127027718Y-96249523D01*
X127027722Y-96249522D01*
X127030611Y-96248948D01*
X127031586Y-96248852D01*
X127105475Y-96248852D01*
X127106464Y-96246464D01*
X127110000Y-96245000D01*
X127710000Y-96245000D01*
X127713536Y-96246464D01*
G37*
G36*
X144893536Y-96246464D02*
G01*
X144894525Y-96248852D01*
X144965467Y-96248852D01*
X144968414Y-96248852D01*
X144969389Y-96248948D01*
X144972278Y-96249522D01*
X144972281Y-96249523D01*
X145120311Y-96278968D01*
X145120318Y-96278970D01*
X145123203Y-96279544D01*
X145124141Y-96279829D01*
X145126857Y-96280954D01*
X145126860Y-96280955D01*
X145266311Y-96338717D01*
X145266317Y-96338720D01*
X145269030Y-96339844D01*
X145269895Y-96340306D01*
X145272344Y-96341942D01*
X145272345Y-96341943D01*
X145397840Y-96425795D01*
X145397846Y-96425800D01*
X145400293Y-96427435D01*
X145401051Y-96428056D01*
X145511944Y-96538949D01*
X145512565Y-96539707D01*
X145514200Y-96542154D01*
X145514204Y-96542159D01*
X145571152Y-96627389D01*
X145599694Y-96670105D01*
X145600156Y-96670970D01*
X145660171Y-96815859D01*
X145660456Y-96816797D01*
X145691052Y-96970611D01*
X145691148Y-96971586D01*
X145691148Y-97128414D01*
X145691052Y-97129389D01*
X145660456Y-97283203D01*
X145660171Y-97284141D01*
X145600156Y-97429030D01*
X145599694Y-97429895D01*
X145512565Y-97560293D01*
X145511944Y-97561051D01*
X145401051Y-97671944D01*
X145400293Y-97672565D01*
X145269895Y-97759694D01*
X145269030Y-97760156D01*
X145124141Y-97820171D01*
X145123203Y-97820456D01*
X144969389Y-97851052D01*
X144968414Y-97851148D01*
X144894525Y-97851148D01*
X144893536Y-97853536D01*
X144890000Y-97855000D01*
X144878065Y-97855000D01*
X144301934Y-97855000D01*
X144290000Y-97855000D01*
X144286464Y-97853536D01*
X144284085Y-97851157D01*
X144256892Y-97851157D01*
X144250982Y-97851157D01*
X144249069Y-97850776D01*
X144176973Y-97820913D01*
X144175350Y-97819830D01*
X144120170Y-97764650D01*
X144119087Y-97763027D01*
X144116826Y-97757569D01*
X144091484Y-97696389D01*
X144091483Y-97696385D01*
X144089224Y-97690931D01*
X144088843Y-97689018D01*
X144088843Y-97655915D01*
X144086464Y-97653536D01*
X144085000Y-97650000D01*
X144085000Y-96450000D01*
X144086464Y-96446464D01*
X144088843Y-96444085D01*
X144088843Y-96410982D01*
X144089224Y-96409069D01*
X144091482Y-96403615D01*
X144091484Y-96403610D01*
X144116826Y-96342430D01*
X144116827Y-96342427D01*
X144119087Y-96336973D01*
X144120170Y-96335350D01*
X144175350Y-96280170D01*
X144176973Y-96279087D01*
X144182427Y-96276827D01*
X144182430Y-96276826D01*
X144243610Y-96251484D01*
X144243615Y-96251482D01*
X144249069Y-96249224D01*
X144250982Y-96248843D01*
X144284085Y-96248843D01*
X144286464Y-96246464D01*
X144290000Y-96245000D01*
X144890000Y-96245000D01*
X144893536Y-96246464D01*
G37*
G36*
X101270000Y-95350000D02*
G01*
X99570000Y-95350000D01*
X99570000Y-93650000D01*
X101270000Y-93650000D01*
X101270000Y-95350000D01*
G37*
G36*
X103206742Y-93686601D02*
G01*
X103360687Y-93750367D01*
X103499234Y-93842941D01*
X103617059Y-93960766D01*
X103709633Y-94099313D01*
X103773399Y-94253258D01*
X103805907Y-94416685D01*
X103805907Y-94583315D01*
X103773399Y-94746742D01*
X103709633Y-94900687D01*
X103617059Y-95039234D01*
X103499234Y-95157059D01*
X103360687Y-95249633D01*
X103206742Y-95313399D01*
X103043315Y-95345907D01*
X102876685Y-95345907D01*
X102713258Y-95313399D01*
X102559313Y-95249633D01*
X102420766Y-95157059D01*
X102302941Y-95039234D01*
X102210367Y-94900687D01*
X102146601Y-94746742D01*
X102114093Y-94583315D01*
X102114093Y-94416685D01*
X102146601Y-94253258D01*
X102210367Y-94099313D01*
X102302941Y-93960766D01*
X102420766Y-93842941D01*
X102559313Y-93750367D01*
X102713258Y-93686601D01*
X102876685Y-93654093D01*
X103043315Y-93654093D01*
X103206742Y-93686601D01*
G37*
G36*
X105746742Y-93686601D02*
G01*
X105900687Y-93750367D01*
X106039234Y-93842941D01*
X106157059Y-93960766D01*
X106249633Y-94099313D01*
X106313399Y-94253258D01*
X106345907Y-94416685D01*
X106345907Y-94583315D01*
X106313399Y-94746742D01*
X106249633Y-94900687D01*
X106157059Y-95039234D01*
X106039234Y-95157059D01*
X105900687Y-95249633D01*
X105746742Y-95313399D01*
X105583315Y-95345907D01*
X105416685Y-95345907D01*
X105253258Y-95313399D01*
X105099313Y-95249633D01*
X104960766Y-95157059D01*
X104842941Y-95039234D01*
X104750367Y-94900687D01*
X104686601Y-94746742D01*
X104654093Y-94583315D01*
X104654093Y-94416685D01*
X104686601Y-94253258D01*
X104750367Y-94099313D01*
X104842941Y-93960766D01*
X104960766Y-93842941D01*
X105099313Y-93750367D01*
X105253258Y-93686601D01*
X105416685Y-93654093D01*
X105583315Y-93654093D01*
X105746742Y-93686601D01*
G37*
G36*
X127342228Y-93744448D02*
G01*
X127487117Y-93804463D01*
X127617515Y-93891592D01*
X127728408Y-94002485D01*
X127815537Y-94132883D01*
X127875552Y-94277772D01*
X127906148Y-94431586D01*
X127906148Y-94588414D01*
X127875552Y-94742228D01*
X127815537Y-94887117D01*
X127728408Y-95017515D01*
X127617515Y-95128408D01*
X127487117Y-95215537D01*
X127342228Y-95275552D01*
X127188414Y-95306148D01*
X127031586Y-95306148D01*
X126877772Y-95275552D01*
X126732883Y-95215537D01*
X126602485Y-95128408D01*
X126491592Y-95017515D01*
X126404463Y-94887117D01*
X126344448Y-94742228D01*
X126313852Y-94588414D01*
X126313852Y-94431586D01*
X126344448Y-94277772D01*
X126404463Y-94132883D01*
X126491592Y-94002485D01*
X126602485Y-93891592D01*
X126732883Y-93804463D01*
X126877772Y-93744448D01*
X127031586Y-93713852D01*
X127188414Y-93713852D01*
X127342228Y-93744448D01*
G37*
G36*
X145122228Y-93744448D02*
G01*
X145267117Y-93804463D01*
X145397515Y-93891592D01*
X145508408Y-94002485D01*
X145595537Y-94132883D01*
X145655552Y-94277772D01*
X145686148Y-94431586D01*
X145686148Y-94588414D01*
X145655552Y-94742228D01*
X145595537Y-94887117D01*
X145508408Y-95017515D01*
X145397515Y-95128408D01*
X145267117Y-95215537D01*
X145122228Y-95275552D01*
X144968414Y-95306148D01*
X144811586Y-95306148D01*
X144657772Y-95275552D01*
X144512883Y-95215537D01*
X144382485Y-95128408D01*
X144271592Y-95017515D01*
X144184463Y-94887117D01*
X144124448Y-94742228D01*
X144093852Y-94588414D01*
X144093852Y-94431586D01*
X144124448Y-94277772D01*
X144184463Y-94132883D01*
X144271592Y-94002485D01*
X144382485Y-93891592D01*
X144512883Y-93804463D01*
X144657772Y-93744448D01*
X144811586Y-93713852D01*
X144968414Y-93713852D01*
X145122228Y-93744448D01*
G37*
G36*
X154040285Y-93293060D02*
G01*
X154221397Y-93368079D01*
X154384393Y-93476990D01*
X154523010Y-93615607D01*
X154631921Y-93778603D01*
X154706940Y-93959715D01*
X154745185Y-94151983D01*
X154745185Y-94348017D01*
X154706940Y-94540285D01*
X154631921Y-94721397D01*
X154523010Y-94884393D01*
X154384393Y-95023010D01*
X154221397Y-95131921D01*
X154040285Y-95206940D01*
X153848017Y-95245185D01*
X153651983Y-95245185D01*
X153459715Y-95206940D01*
X153278603Y-95131921D01*
X153115607Y-95023010D01*
X152976990Y-94884393D01*
X152868079Y-94721397D01*
X152793060Y-94540285D01*
X152754815Y-94348017D01*
X152754815Y-94151983D01*
X152793060Y-93959715D01*
X152868079Y-93778603D01*
X152976990Y-93615607D01*
X153115607Y-93476990D01*
X153278603Y-93368079D01*
X153459715Y-93293060D01*
X153651983Y-93254815D01*
X153848017Y-93254815D01*
X154040285Y-93293060D01*
G37*
G36*
X160540285Y-93293060D02*
G01*
X160721397Y-93368079D01*
X160884393Y-93476990D01*
X161023010Y-93615607D01*
X161131921Y-93778603D01*
X161206940Y-93959715D01*
X161245185Y-94151983D01*
X161245185Y-94348017D01*
X161206940Y-94540285D01*
X161131921Y-94721397D01*
X161023010Y-94884393D01*
X160884393Y-95023010D01*
X160721397Y-95131921D01*
X160540285Y-95206940D01*
X160348017Y-95245185D01*
X160151983Y-95245185D01*
X159959715Y-95206940D01*
X159778603Y-95131921D01*
X159615607Y-95023010D01*
X159476990Y-94884393D01*
X159368079Y-94721397D01*
X159293060Y-94540285D01*
X159254815Y-94348017D01*
X159254815Y-94151983D01*
X159293060Y-93959715D01*
X159368079Y-93778603D01*
X159476990Y-93615607D01*
X159615607Y-93476990D01*
X159778603Y-93368079D01*
X159959715Y-93293060D01*
X160151983Y-93254815D01*
X160348017Y-93254815D01*
X160540285Y-93293060D01*
G37*
G36*
X89850000Y-94390000D02*
G01*
X88150000Y-94390000D01*
X88150000Y-92690000D01*
X89850000Y-92690000D01*
X89850000Y-94390000D01*
G37*
G36*
X127342228Y-91204448D02*
G01*
X127487117Y-91264463D01*
X127617515Y-91351592D01*
X127728408Y-91462485D01*
X127815537Y-91592883D01*
X127875552Y-91737772D01*
X127906148Y-91891586D01*
X127906148Y-92048414D01*
X127875552Y-92202228D01*
X127815537Y-92347117D01*
X127728408Y-92477515D01*
X127617515Y-92588408D01*
X127487117Y-92675537D01*
X127342228Y-92735552D01*
X127188414Y-92766148D01*
X127031586Y-92766148D01*
X126877772Y-92735552D01*
X126732883Y-92675537D01*
X126602485Y-92588408D01*
X126491592Y-92477515D01*
X126404463Y-92347117D01*
X126344448Y-92202228D01*
X126313852Y-92048414D01*
X126313852Y-91891586D01*
X126344448Y-91737772D01*
X126404463Y-91592883D01*
X126491592Y-91462485D01*
X126602485Y-91351592D01*
X126732883Y-91264463D01*
X126877772Y-91204448D01*
X127031586Y-91173852D01*
X127188414Y-91173852D01*
X127342228Y-91204448D01*
G37*
G36*
X145122228Y-91204448D02*
G01*
X145267117Y-91264463D01*
X145397515Y-91351592D01*
X145508408Y-91462485D01*
X145595537Y-91592883D01*
X145655552Y-91737772D01*
X145686148Y-91891586D01*
X145686148Y-92048414D01*
X145655552Y-92202228D01*
X145595537Y-92347117D01*
X145508408Y-92477515D01*
X145397515Y-92588408D01*
X145267117Y-92675537D01*
X145122228Y-92735552D01*
X144968414Y-92766148D01*
X144811586Y-92766148D01*
X144657772Y-92735552D01*
X144512883Y-92675537D01*
X144382485Y-92588408D01*
X144271592Y-92477515D01*
X144184463Y-92347117D01*
X144124448Y-92202228D01*
X144093852Y-92048414D01*
X144093852Y-91891586D01*
X144124448Y-91737772D01*
X144184463Y-91592883D01*
X144271592Y-91462485D01*
X144382485Y-91351592D01*
X144512883Y-91264463D01*
X144657772Y-91204448D01*
X144811586Y-91173852D01*
X144968414Y-91173852D01*
X145122228Y-91204448D01*
G37*
G36*
X89246742Y-90186601D02*
G01*
X89400687Y-90250367D01*
X89539234Y-90342941D01*
X89657059Y-90460766D01*
X89749633Y-90599313D01*
X89813399Y-90753258D01*
X89845907Y-90916685D01*
X89845907Y-91083315D01*
X89813399Y-91246742D01*
X89749633Y-91400687D01*
X89657059Y-91539234D01*
X89539234Y-91657059D01*
X89400687Y-91749633D01*
X89246742Y-91813399D01*
X89083315Y-91845907D01*
X88916685Y-91845907D01*
X88753258Y-91813399D01*
X88599313Y-91749633D01*
X88460766Y-91657059D01*
X88342941Y-91539234D01*
X88250367Y-91400687D01*
X88186601Y-91246742D01*
X88154093Y-91083315D01*
X88154093Y-90916685D01*
X88186601Y-90753258D01*
X88250367Y-90599313D01*
X88342941Y-90460766D01*
X88460766Y-90342941D01*
X88599313Y-90250367D01*
X88753258Y-90186601D01*
X88916685Y-90154093D01*
X89083315Y-90154093D01*
X89246742Y-90186601D01*
G37*
G36*
X102650000Y-91190000D02*
G01*
X100950000Y-91190000D01*
X100950000Y-89490000D01*
X102650000Y-89490000D01*
X102650000Y-91190000D01*
G37*
G36*
X110850000Y-91190000D02*
G01*
X109150000Y-91190000D01*
X109150000Y-89490000D01*
X110850000Y-89490000D01*
X110850000Y-91190000D01*
G37*
G36*
X154040285Y-88793060D02*
G01*
X154221397Y-88868079D01*
X154384393Y-88976990D01*
X154523010Y-89115607D01*
X154631921Y-89278603D01*
X154706940Y-89459715D01*
X154745185Y-89651983D01*
X154745185Y-89848017D01*
X154706940Y-90040285D01*
X154631921Y-90221397D01*
X154523010Y-90384393D01*
X154384393Y-90523010D01*
X154221397Y-90631921D01*
X154040285Y-90706940D01*
X153848017Y-90745185D01*
X153651983Y-90745185D01*
X153459715Y-90706940D01*
X153278603Y-90631921D01*
X153115607Y-90523010D01*
X152976990Y-90384393D01*
X152868079Y-90221397D01*
X152793060Y-90040285D01*
X152754815Y-89848017D01*
X152754815Y-89651983D01*
X152793060Y-89459715D01*
X152868079Y-89278603D01*
X152976990Y-89115607D01*
X153115607Y-88976990D01*
X153278603Y-88868079D01*
X153459715Y-88793060D01*
X153651983Y-88754815D01*
X153848017Y-88754815D01*
X154040285Y-88793060D01*
G37*
G36*
X160540285Y-88793060D02*
G01*
X160721397Y-88868079D01*
X160884393Y-88976990D01*
X161023010Y-89115607D01*
X161131921Y-89278603D01*
X161206940Y-89459715D01*
X161245185Y-89651983D01*
X161245185Y-89848017D01*
X161206940Y-90040285D01*
X161131921Y-90221397D01*
X161023010Y-90384393D01*
X160884393Y-90523010D01*
X160721397Y-90631921D01*
X160540285Y-90706940D01*
X160348017Y-90745185D01*
X160151983Y-90745185D01*
X159959715Y-90706940D01*
X159778603Y-90631921D01*
X159615607Y-90523010D01*
X159476990Y-90384393D01*
X159368079Y-90221397D01*
X159293060Y-90040285D01*
X159254815Y-89848017D01*
X159254815Y-89651983D01*
X159293060Y-89459715D01*
X159368079Y-89278603D01*
X159476990Y-89115607D01*
X159615607Y-88976990D01*
X159778603Y-88868079D01*
X159959715Y-88793060D01*
X160151983Y-88754815D01*
X160348017Y-88754815D01*
X160540285Y-88793060D01*
G37*
G36*
X127342228Y-88664448D02*
G01*
X127487117Y-88724463D01*
X127617515Y-88811592D01*
X127728408Y-88922485D01*
X127815537Y-89052883D01*
X127875552Y-89197772D01*
X127906148Y-89351586D01*
X127906148Y-89508414D01*
X127875552Y-89662228D01*
X127815537Y-89807117D01*
X127728408Y-89937515D01*
X127617515Y-90048408D01*
X127487117Y-90135537D01*
X127342228Y-90195552D01*
X127188414Y-90226148D01*
X127031586Y-90226148D01*
X126877772Y-90195552D01*
X126732883Y-90135537D01*
X126602485Y-90048408D01*
X126491592Y-89937515D01*
X126404463Y-89807117D01*
X126344448Y-89662228D01*
X126313852Y-89508414D01*
X126313852Y-89351586D01*
X126344448Y-89197772D01*
X126404463Y-89052883D01*
X126491592Y-88922485D01*
X126602485Y-88811592D01*
X126732883Y-88724463D01*
X126877772Y-88664448D01*
X127031586Y-88633852D01*
X127188414Y-88633852D01*
X127342228Y-88664448D01*
G37*
G36*
X145122228Y-88664448D02*
G01*
X145267117Y-88724463D01*
X145397515Y-88811592D01*
X145508408Y-88922485D01*
X145595537Y-89052883D01*
X145655552Y-89197772D01*
X145686148Y-89351586D01*
X145686148Y-89508414D01*
X145655552Y-89662228D01*
X145595537Y-89807117D01*
X145508408Y-89937515D01*
X145397515Y-90048408D01*
X145267117Y-90135537D01*
X145122228Y-90195552D01*
X144968414Y-90226148D01*
X144811586Y-90226148D01*
X144657772Y-90195552D01*
X144512883Y-90135537D01*
X144382485Y-90048408D01*
X144271592Y-89937515D01*
X144184463Y-89807117D01*
X144124448Y-89662228D01*
X144093852Y-89508414D01*
X144093852Y-89351586D01*
X144124448Y-89197772D01*
X144184463Y-89052883D01*
X144271592Y-88922485D01*
X144382485Y-88811592D01*
X144512883Y-88724463D01*
X144657772Y-88664448D01*
X144811586Y-88633852D01*
X144968414Y-88633852D01*
X145122228Y-88664448D01*
G37*
G36*
X89246742Y-87646601D02*
G01*
X89400687Y-87710367D01*
X89539234Y-87802941D01*
X89657059Y-87920766D01*
X89749633Y-88059313D01*
X89813399Y-88213258D01*
X89845907Y-88376685D01*
X89845907Y-88543315D01*
X89813399Y-88706742D01*
X89749633Y-88860687D01*
X89657059Y-88999234D01*
X89539234Y-89117059D01*
X89400687Y-89209633D01*
X89246742Y-89273399D01*
X89083315Y-89305907D01*
X88916685Y-89305907D01*
X88753258Y-89273399D01*
X88599313Y-89209633D01*
X88460766Y-89117059D01*
X88342941Y-88999234D01*
X88250367Y-88860687D01*
X88186601Y-88706742D01*
X88154093Y-88543315D01*
X88154093Y-88376685D01*
X88186601Y-88213258D01*
X88250367Y-88059313D01*
X88342941Y-87920766D01*
X88460766Y-87802941D01*
X88599313Y-87710367D01*
X88753258Y-87646601D01*
X88916685Y-87614093D01*
X89083315Y-87614093D01*
X89246742Y-87646601D01*
G37*
G36*
X102046742Y-86986601D02*
G01*
X102200687Y-87050367D01*
X102339234Y-87142941D01*
X102457059Y-87260766D01*
X102549633Y-87399313D01*
X102613399Y-87553258D01*
X102645907Y-87716685D01*
X102645907Y-87883315D01*
X102613399Y-88046742D01*
X102549633Y-88200687D01*
X102457059Y-88339234D01*
X102339234Y-88457059D01*
X102200687Y-88549633D01*
X102046742Y-88613399D01*
X101883315Y-88645907D01*
X101716685Y-88645907D01*
X101553258Y-88613399D01*
X101399313Y-88549633D01*
X101260766Y-88457059D01*
X101142941Y-88339234D01*
X101050367Y-88200687D01*
X100986601Y-88046742D01*
X100954093Y-87883315D01*
X100954093Y-87716685D01*
X100986601Y-87553258D01*
X101050367Y-87399313D01*
X101142941Y-87260766D01*
X101260766Y-87142941D01*
X101399313Y-87050367D01*
X101553258Y-86986601D01*
X101716685Y-86954093D01*
X101883315Y-86954093D01*
X102046742Y-86986601D01*
G37*
G36*
X110246742Y-86986601D02*
G01*
X110400687Y-87050367D01*
X110539234Y-87142941D01*
X110657059Y-87260766D01*
X110749633Y-87399313D01*
X110813399Y-87553258D01*
X110845907Y-87716685D01*
X110845907Y-87883315D01*
X110813399Y-88046742D01*
X110749633Y-88200687D01*
X110657059Y-88339234D01*
X110539234Y-88457059D01*
X110400687Y-88549633D01*
X110246742Y-88613399D01*
X110083315Y-88645907D01*
X109916685Y-88645907D01*
X109753258Y-88613399D01*
X109599313Y-88549633D01*
X109460766Y-88457059D01*
X109342941Y-88339234D01*
X109250367Y-88200687D01*
X109186601Y-88046742D01*
X109154093Y-87883315D01*
X109154093Y-87716685D01*
X109186601Y-87553258D01*
X109250367Y-87399313D01*
X109342941Y-87260766D01*
X109460766Y-87142941D01*
X109599313Y-87050367D01*
X109753258Y-86986601D01*
X109916685Y-86954093D01*
X110083315Y-86954093D01*
X110246742Y-86986601D01*
G37*
G36*
X127342228Y-86124448D02*
G01*
X127487117Y-86184463D01*
X127617515Y-86271592D01*
X127728408Y-86382485D01*
X127815537Y-86512883D01*
X127875552Y-86657772D01*
X127906148Y-86811586D01*
X127906148Y-86968414D01*
X127875552Y-87122228D01*
X127815537Y-87267117D01*
X127728408Y-87397515D01*
X127617515Y-87508408D01*
X127487117Y-87595537D01*
X127342228Y-87655552D01*
X127188414Y-87686148D01*
X127031586Y-87686148D01*
X126877772Y-87655552D01*
X126732883Y-87595537D01*
X126602485Y-87508408D01*
X126491592Y-87397515D01*
X126404463Y-87267117D01*
X126344448Y-87122228D01*
X126313852Y-86968414D01*
X126313852Y-86811586D01*
X126344448Y-86657772D01*
X126404463Y-86512883D01*
X126491592Y-86382485D01*
X126602485Y-86271592D01*
X126732883Y-86184463D01*
X126877772Y-86124448D01*
X127031586Y-86093852D01*
X127188414Y-86093852D01*
X127342228Y-86124448D01*
G37*
G36*
X145122228Y-86124448D02*
G01*
X145267117Y-86184463D01*
X145397515Y-86271592D01*
X145508408Y-86382485D01*
X145595537Y-86512883D01*
X145655552Y-86657772D01*
X145686148Y-86811586D01*
X145686148Y-86968414D01*
X145655552Y-87122228D01*
X145595537Y-87267117D01*
X145508408Y-87397515D01*
X145397515Y-87508408D01*
X145267117Y-87595537D01*
X145122228Y-87655552D01*
X144968414Y-87686148D01*
X144811586Y-87686148D01*
X144657772Y-87655552D01*
X144512883Y-87595537D01*
X144382485Y-87508408D01*
X144271592Y-87397515D01*
X144184463Y-87267117D01*
X144124448Y-87122228D01*
X144093852Y-86968414D01*
X144093852Y-86811586D01*
X144124448Y-86657772D01*
X144184463Y-86512883D01*
X144271592Y-86382485D01*
X144382485Y-86271592D01*
X144512883Y-86184463D01*
X144657772Y-86124448D01*
X144811586Y-86093852D01*
X144968414Y-86093852D01*
X145122228Y-86124448D01*
G37*
G36*
X102046742Y-84446601D02*
G01*
X102200687Y-84510367D01*
X102339234Y-84602941D01*
X102457059Y-84720766D01*
X102549633Y-84859313D01*
X102613399Y-85013258D01*
X102645907Y-85176685D01*
X102645907Y-85343315D01*
X102613399Y-85506742D01*
X102549633Y-85660687D01*
X102457059Y-85799234D01*
X102339234Y-85917059D01*
X102200687Y-86009633D01*
X102046742Y-86073399D01*
X101883315Y-86105907D01*
X101716685Y-86105907D01*
X101553258Y-86073399D01*
X101399313Y-86009633D01*
X101260766Y-85917059D01*
X101142941Y-85799234D01*
X101050367Y-85660687D01*
X100986601Y-85506742D01*
X100954093Y-85343315D01*
X100954093Y-85176685D01*
X100986601Y-85013258D01*
X101050367Y-84859313D01*
X101142941Y-84720766D01*
X101260766Y-84602941D01*
X101399313Y-84510367D01*
X101553258Y-84446601D01*
X101716685Y-84414093D01*
X101883315Y-84414093D01*
X102046742Y-84446601D01*
G37*
G36*
X110246742Y-84446601D02*
G01*
X110400687Y-84510367D01*
X110539234Y-84602941D01*
X110657059Y-84720766D01*
X110749633Y-84859313D01*
X110813399Y-85013258D01*
X110845907Y-85176685D01*
X110845907Y-85343315D01*
X110813399Y-85506742D01*
X110749633Y-85660687D01*
X110657059Y-85799234D01*
X110539234Y-85917059D01*
X110400687Y-86009633D01*
X110246742Y-86073399D01*
X110083315Y-86105907D01*
X109916685Y-86105907D01*
X109753258Y-86073399D01*
X109599313Y-86009633D01*
X109460766Y-85917059D01*
X109342941Y-85799234D01*
X109250367Y-85660687D01*
X109186601Y-85506742D01*
X109154093Y-85343315D01*
X109154093Y-85176685D01*
X109186601Y-85013258D01*
X109250367Y-84859313D01*
X109342941Y-84720766D01*
X109460766Y-84602941D01*
X109599313Y-84510367D01*
X109753258Y-84446601D01*
X109916685Y-84414093D01*
X110083315Y-84414093D01*
X110246742Y-84446601D01*
G37*
G36*
X127713536Y-83546464D02*
G01*
X127715915Y-83548843D01*
X127743108Y-83548843D01*
X127749018Y-83548843D01*
X127750931Y-83549224D01*
X127756385Y-83551483D01*
X127756389Y-83551484D01*
X127817569Y-83576826D01*
X127823027Y-83579087D01*
X127824650Y-83580170D01*
X127879830Y-83635350D01*
X127880913Y-83636973D01*
X127910776Y-83709069D01*
X127911157Y-83710982D01*
X127911157Y-83744085D01*
X127913536Y-83746464D01*
X127915000Y-83750000D01*
X127915000Y-84950000D01*
X127913536Y-84953536D01*
X127911157Y-84955915D01*
X127911157Y-84989018D01*
X127910776Y-84990931D01*
X127880913Y-85063027D01*
X127879830Y-85064650D01*
X127824650Y-85119830D01*
X127823027Y-85120913D01*
X127750931Y-85150776D01*
X127749018Y-85151157D01*
X127715915Y-85151157D01*
X127713536Y-85153536D01*
X127710000Y-85155000D01*
X127698066Y-85155000D01*
X127121935Y-85155000D01*
X127110000Y-85155000D01*
X127106464Y-85153536D01*
X127105475Y-85151148D01*
X127034533Y-85151148D01*
X127031586Y-85151148D01*
X127030611Y-85151052D01*
X126876797Y-85120456D01*
X126875859Y-85120171D01*
X126730970Y-85060156D01*
X126730105Y-85059694D01*
X126635362Y-84996389D01*
X126602159Y-84974204D01*
X126602154Y-84974200D01*
X126599707Y-84972565D01*
X126598949Y-84971944D01*
X126488056Y-84861051D01*
X126487435Y-84860293D01*
X126485800Y-84857846D01*
X126485795Y-84857840D01*
X126401943Y-84732345D01*
X126401942Y-84732344D01*
X126400306Y-84729895D01*
X126399844Y-84729030D01*
X126398720Y-84726317D01*
X126398717Y-84726311D01*
X126340955Y-84586860D01*
X126340954Y-84586857D01*
X126339829Y-84584141D01*
X126339544Y-84583203D01*
X126338970Y-84580318D01*
X126338968Y-84580311D01*
X126309523Y-84432281D01*
X126309522Y-84432278D01*
X126308948Y-84429389D01*
X126308852Y-84428414D01*
X126308852Y-84271586D01*
X126308948Y-84270611D01*
X126309523Y-84267718D01*
X126338968Y-84119688D01*
X126338970Y-84119679D01*
X126339544Y-84116797D01*
X126339829Y-84115859D01*
X126340953Y-84113144D01*
X126340955Y-84113139D01*
X126398717Y-83973688D01*
X126398722Y-83973678D01*
X126399844Y-83970970D01*
X126400306Y-83970105D01*
X126401940Y-83967659D01*
X126401943Y-83967654D01*
X126485795Y-83842159D01*
X126485803Y-83842148D01*
X126487435Y-83839707D01*
X126488056Y-83838949D01*
X126598949Y-83728056D01*
X126599707Y-83727435D01*
X126602148Y-83725803D01*
X126602159Y-83725795D01*
X126727654Y-83641943D01*
X126727659Y-83641940D01*
X126730105Y-83640306D01*
X126730970Y-83639844D01*
X126733678Y-83638722D01*
X126733688Y-83638717D01*
X126873139Y-83580955D01*
X126873144Y-83580953D01*
X126875859Y-83579829D01*
X126876797Y-83579544D01*
X126879679Y-83578970D01*
X126879688Y-83578968D01*
X127027718Y-83549523D01*
X127027722Y-83549522D01*
X127030611Y-83548948D01*
X127031586Y-83548852D01*
X127105475Y-83548852D01*
X127106464Y-83546464D01*
X127110000Y-83545000D01*
X127710000Y-83545000D01*
X127713536Y-83546464D01*
G37*
G36*
X144893536Y-83546464D02*
G01*
X144894525Y-83548852D01*
X144965467Y-83548852D01*
X144968414Y-83548852D01*
X144969389Y-83548948D01*
X144972278Y-83549522D01*
X144972281Y-83549523D01*
X145120311Y-83578968D01*
X145120318Y-83578970D01*
X145123203Y-83579544D01*
X145124141Y-83579829D01*
X145126857Y-83580954D01*
X145126860Y-83580955D01*
X145266311Y-83638717D01*
X145266317Y-83638720D01*
X145269030Y-83639844D01*
X145269895Y-83640306D01*
X145272344Y-83641942D01*
X145272345Y-83641943D01*
X145397840Y-83725795D01*
X145397846Y-83725800D01*
X145400293Y-83727435D01*
X145401051Y-83728056D01*
X145511944Y-83838949D01*
X145512565Y-83839707D01*
X145514200Y-83842154D01*
X145514204Y-83842159D01*
X145571152Y-83927389D01*
X145599694Y-83970105D01*
X145600156Y-83970970D01*
X145660171Y-84115859D01*
X145660456Y-84116797D01*
X145691052Y-84270611D01*
X145691148Y-84271586D01*
X145691148Y-84428414D01*
X145691052Y-84429389D01*
X145660456Y-84583203D01*
X145660171Y-84584141D01*
X145600156Y-84729030D01*
X145599694Y-84729895D01*
X145512565Y-84860293D01*
X145511944Y-84861051D01*
X145401051Y-84971944D01*
X145400293Y-84972565D01*
X145269895Y-85059694D01*
X145269030Y-85060156D01*
X145124141Y-85120171D01*
X145123203Y-85120456D01*
X144969389Y-85151052D01*
X144968414Y-85151148D01*
X144894525Y-85151148D01*
X144893536Y-85153536D01*
X144890000Y-85155000D01*
X144878065Y-85155000D01*
X144301934Y-85155000D01*
X144290000Y-85155000D01*
X144286464Y-85153536D01*
X144284085Y-85151157D01*
X144256892Y-85151157D01*
X144250982Y-85151157D01*
X144249069Y-85150776D01*
X144176973Y-85120913D01*
X144175350Y-85119830D01*
X144120170Y-85064650D01*
X144119087Y-85063027D01*
X144116826Y-85057569D01*
X144091484Y-84996389D01*
X144091483Y-84996385D01*
X144089224Y-84990931D01*
X144088843Y-84989018D01*
X144088843Y-84955915D01*
X144086464Y-84953536D01*
X144085000Y-84950000D01*
X144085000Y-83750000D01*
X144086464Y-83746464D01*
X144088843Y-83744085D01*
X144088843Y-83710982D01*
X144089224Y-83709069D01*
X144091482Y-83703615D01*
X144091484Y-83703610D01*
X144116826Y-83642430D01*
X144116827Y-83642427D01*
X144119087Y-83636973D01*
X144120170Y-83635350D01*
X144175350Y-83580170D01*
X144176973Y-83579087D01*
X144182427Y-83576827D01*
X144182430Y-83576826D01*
X144243610Y-83551484D01*
X144243615Y-83551482D01*
X144249069Y-83549224D01*
X144250982Y-83548843D01*
X144284085Y-83548843D01*
X144286464Y-83546464D01*
X144290000Y-83545000D01*
X144890000Y-83545000D01*
X144893536Y-83546464D01*
G37*
G36*
X89850000Y-82850000D02*
G01*
X88150000Y-82850000D01*
X88150000Y-81150000D01*
X89850000Y-81150000D01*
X89850000Y-82850000D01*
G37*
G36*
X127342228Y-81044448D02*
G01*
X127487117Y-81104463D01*
X127617515Y-81191592D01*
X127728408Y-81302485D01*
X127815537Y-81432883D01*
X127875552Y-81577772D01*
X127906148Y-81731586D01*
X127906148Y-81888414D01*
X127875552Y-82042228D01*
X127815537Y-82187117D01*
X127728408Y-82317515D01*
X127617515Y-82428408D01*
X127487117Y-82515537D01*
X127342228Y-82575552D01*
X127188414Y-82606148D01*
X127031586Y-82606148D01*
X126877772Y-82575552D01*
X126732883Y-82515537D01*
X126602485Y-82428408D01*
X126491592Y-82317515D01*
X126404463Y-82187117D01*
X126344448Y-82042228D01*
X126313852Y-81888414D01*
X126313852Y-81731586D01*
X126344448Y-81577772D01*
X126404463Y-81432883D01*
X126491592Y-81302485D01*
X126602485Y-81191592D01*
X126732883Y-81104463D01*
X126877772Y-81044448D01*
X127031586Y-81013852D01*
X127188414Y-81013852D01*
X127342228Y-81044448D01*
G37*
G36*
X145122228Y-81044448D02*
G01*
X145267117Y-81104463D01*
X145397515Y-81191592D01*
X145508408Y-81302485D01*
X145595537Y-81432883D01*
X145655552Y-81577772D01*
X145686148Y-81731586D01*
X145686148Y-81888414D01*
X145655552Y-82042228D01*
X145595537Y-82187117D01*
X145508408Y-82317515D01*
X145397515Y-82428408D01*
X145267117Y-82515537D01*
X145122228Y-82575552D01*
X144968414Y-82606148D01*
X144811586Y-82606148D01*
X144657772Y-82575552D01*
X144512883Y-82515537D01*
X144382485Y-82428408D01*
X144271592Y-82317515D01*
X144184463Y-82187117D01*
X144124448Y-82042228D01*
X144093852Y-81888414D01*
X144093852Y-81731586D01*
X144124448Y-81577772D01*
X144184463Y-81432883D01*
X144271592Y-81302485D01*
X144382485Y-81191592D01*
X144512883Y-81104463D01*
X144657772Y-81044448D01*
X144811586Y-81013852D01*
X144968414Y-81013852D01*
X145122228Y-81044448D01*
G37*
G36*
X89246742Y-78646601D02*
G01*
X89400687Y-78710367D01*
X89539234Y-78802941D01*
X89657059Y-78920766D01*
X89749633Y-79059313D01*
X89813399Y-79213258D01*
X89845907Y-79376685D01*
X89845907Y-79543315D01*
X89813399Y-79706742D01*
X89749633Y-79860687D01*
X89657059Y-79999234D01*
X89539234Y-80117059D01*
X89400687Y-80209633D01*
X89246742Y-80273399D01*
X89083315Y-80305907D01*
X88916685Y-80305907D01*
X88753258Y-80273399D01*
X88599313Y-80209633D01*
X88460766Y-80117059D01*
X88342941Y-79999234D01*
X88250367Y-79860687D01*
X88186601Y-79706742D01*
X88154093Y-79543315D01*
X88154093Y-79376685D01*
X88186601Y-79213258D01*
X88250367Y-79059313D01*
X88342941Y-78920766D01*
X88460766Y-78802941D01*
X88599313Y-78710367D01*
X88753258Y-78646601D01*
X88916685Y-78614093D01*
X89083315Y-78614093D01*
X89246742Y-78646601D01*
G37*
G36*
X127342228Y-78504448D02*
G01*
X127487117Y-78564463D01*
X127617515Y-78651592D01*
X127728408Y-78762485D01*
X127815537Y-78892883D01*
X127875552Y-79037772D01*
X127906148Y-79191586D01*
X127906148Y-79348414D01*
X127875552Y-79502228D01*
X127815537Y-79647117D01*
X127728408Y-79777515D01*
X127617515Y-79888408D01*
X127487117Y-79975537D01*
X127342228Y-80035552D01*
X127188414Y-80066148D01*
X127031586Y-80066148D01*
X126877772Y-80035552D01*
X126732883Y-79975537D01*
X126602485Y-79888408D01*
X126491592Y-79777515D01*
X126404463Y-79647117D01*
X126344448Y-79502228D01*
X126313852Y-79348414D01*
X126313852Y-79191586D01*
X126344448Y-79037772D01*
X126404463Y-78892883D01*
X126491592Y-78762485D01*
X126602485Y-78651592D01*
X126732883Y-78564463D01*
X126877772Y-78504448D01*
X127031586Y-78473852D01*
X127188414Y-78473852D01*
X127342228Y-78504448D01*
G37*
G36*
X145122228Y-78504448D02*
G01*
X145267117Y-78564463D01*
X145397515Y-78651592D01*
X145508408Y-78762485D01*
X145595537Y-78892883D01*
X145655552Y-79037772D01*
X145686148Y-79191586D01*
X145686148Y-79348414D01*
X145655552Y-79502228D01*
X145595537Y-79647117D01*
X145508408Y-79777515D01*
X145397515Y-79888408D01*
X145267117Y-79975537D01*
X145122228Y-80035552D01*
X144968414Y-80066148D01*
X144811586Y-80066148D01*
X144657772Y-80035552D01*
X144512883Y-79975537D01*
X144382485Y-79888408D01*
X144271592Y-79777515D01*
X144184463Y-79647117D01*
X144124448Y-79502228D01*
X144093852Y-79348414D01*
X144093852Y-79191586D01*
X144124448Y-79037772D01*
X144184463Y-78892883D01*
X144271592Y-78762485D01*
X144382485Y-78651592D01*
X144512883Y-78564463D01*
X144657772Y-78504448D01*
X144811586Y-78473852D01*
X144968414Y-78473852D01*
X145122228Y-78504448D01*
G37*
G36*
X110432228Y-78034448D02*
G01*
X110577117Y-78094463D01*
X110707515Y-78181592D01*
X110818408Y-78292485D01*
X110905537Y-78422883D01*
X110965552Y-78567772D01*
X110996148Y-78721586D01*
X110996148Y-78878414D01*
X110965552Y-79032228D01*
X110905537Y-79177117D01*
X110818408Y-79307515D01*
X110707515Y-79418408D01*
X110577117Y-79505537D01*
X110432228Y-79565552D01*
X110278414Y-79596148D01*
X110121586Y-79596148D01*
X109967772Y-79565552D01*
X109822883Y-79505537D01*
X109692485Y-79418408D01*
X109581592Y-79307515D01*
X109494463Y-79177117D01*
X109434448Y-79032228D01*
X109403852Y-78878414D01*
X109403852Y-78721586D01*
X109434448Y-78567772D01*
X109494463Y-78422883D01*
X109581592Y-78292485D01*
X109692485Y-78181592D01*
X109822883Y-78094463D01*
X109967772Y-78034448D01*
X110121586Y-78003852D01*
X110278414Y-78003852D01*
X110432228Y-78034448D01*
G37*
G36*
X120592228Y-78034448D02*
G01*
X120737117Y-78094463D01*
X120867515Y-78181592D01*
X120978408Y-78292485D01*
X121065537Y-78422883D01*
X121125552Y-78567772D01*
X121156148Y-78721586D01*
X121156148Y-78878414D01*
X121125552Y-79032228D01*
X121065537Y-79177117D01*
X120978408Y-79307515D01*
X120867515Y-79418408D01*
X120737117Y-79505537D01*
X120592228Y-79565552D01*
X120438414Y-79596148D01*
X120281586Y-79596148D01*
X120127772Y-79565552D01*
X119982883Y-79505537D01*
X119852485Y-79418408D01*
X119741592Y-79307515D01*
X119654463Y-79177117D01*
X119594448Y-79032228D01*
X119563852Y-78878414D01*
X119563852Y-78721586D01*
X119594448Y-78567772D01*
X119654463Y-78422883D01*
X119741592Y-78292485D01*
X119852485Y-78181592D01*
X119982883Y-78094463D01*
X120127772Y-78034448D01*
X120281586Y-78003852D01*
X120438414Y-78003852D01*
X120592228Y-78034448D01*
G37*
G36*
X89246742Y-76106601D02*
G01*
X89400687Y-76170367D01*
X89539234Y-76262941D01*
X89657059Y-76380766D01*
X89749633Y-76519313D01*
X89813399Y-76673258D01*
X89845907Y-76836685D01*
X89845907Y-77003315D01*
X89813399Y-77166742D01*
X89749633Y-77320687D01*
X89657059Y-77459234D01*
X89539234Y-77577059D01*
X89400687Y-77669633D01*
X89246742Y-77733399D01*
X89083315Y-77765907D01*
X88916685Y-77765907D01*
X88753258Y-77733399D01*
X88599313Y-77669633D01*
X88460766Y-77577059D01*
X88342941Y-77459234D01*
X88250367Y-77320687D01*
X88186601Y-77166742D01*
X88154093Y-77003315D01*
X88154093Y-76836685D01*
X88186601Y-76673258D01*
X88250367Y-76519313D01*
X88342941Y-76380766D01*
X88460766Y-76262941D01*
X88599313Y-76170367D01*
X88753258Y-76106601D01*
X88916685Y-76074093D01*
X89083315Y-76074093D01*
X89246742Y-76106601D01*
G37*
G36*
X127342228Y-75964448D02*
G01*
X127487117Y-76024463D01*
X127617515Y-76111592D01*
X127728408Y-76222485D01*
X127815537Y-76352883D01*
X127875552Y-76497772D01*
X127906148Y-76651586D01*
X127906148Y-76808414D01*
X127875552Y-76962228D01*
X127815537Y-77107117D01*
X127728408Y-77237515D01*
X127617515Y-77348408D01*
X127487117Y-77435537D01*
X127342228Y-77495552D01*
X127188414Y-77526148D01*
X127031586Y-77526148D01*
X126877772Y-77495552D01*
X126732883Y-77435537D01*
X126602485Y-77348408D01*
X126491592Y-77237515D01*
X126404463Y-77107117D01*
X126344448Y-76962228D01*
X126313852Y-76808414D01*
X126313852Y-76651586D01*
X126344448Y-76497772D01*
X126404463Y-76352883D01*
X126491592Y-76222485D01*
X126602485Y-76111592D01*
X126732883Y-76024463D01*
X126877772Y-75964448D01*
X127031586Y-75933852D01*
X127188414Y-75933852D01*
X127342228Y-75964448D01*
G37*
G36*
X145122228Y-75964448D02*
G01*
X145267117Y-76024463D01*
X145397515Y-76111592D01*
X145508408Y-76222485D01*
X145595537Y-76352883D01*
X145655552Y-76497772D01*
X145686148Y-76651586D01*
X145686148Y-76808414D01*
X145655552Y-76962228D01*
X145595537Y-77107117D01*
X145508408Y-77237515D01*
X145397515Y-77348408D01*
X145267117Y-77435537D01*
X145122228Y-77495552D01*
X144968414Y-77526148D01*
X144811586Y-77526148D01*
X144657772Y-77495552D01*
X144512883Y-77435537D01*
X144382485Y-77348408D01*
X144271592Y-77237515D01*
X144184463Y-77107117D01*
X144124448Y-76962228D01*
X144093852Y-76808414D01*
X144093852Y-76651586D01*
X144124448Y-76497772D01*
X144184463Y-76352883D01*
X144271592Y-76222485D01*
X144382485Y-76111592D01*
X144512883Y-76024463D01*
X144657772Y-75964448D01*
X144811586Y-75933852D01*
X144968414Y-75933852D01*
X145122228Y-75964448D01*
G37*
G36*
X154040285Y-75293060D02*
G01*
X154221397Y-75368079D01*
X154384393Y-75476990D01*
X154523010Y-75615607D01*
X154631921Y-75778603D01*
X154706940Y-75959715D01*
X154745185Y-76151983D01*
X154745185Y-76348017D01*
X154706940Y-76540285D01*
X154631921Y-76721397D01*
X154523010Y-76884393D01*
X154384393Y-77023010D01*
X154221397Y-77131921D01*
X154040285Y-77206940D01*
X153848017Y-77245185D01*
X153651983Y-77245185D01*
X153459715Y-77206940D01*
X153278603Y-77131921D01*
X153115607Y-77023010D01*
X152976990Y-76884393D01*
X152868079Y-76721397D01*
X152793060Y-76540285D01*
X152754815Y-76348017D01*
X152754815Y-76151983D01*
X152793060Y-75959715D01*
X152868079Y-75778603D01*
X152976990Y-75615607D01*
X153115607Y-75476990D01*
X153278603Y-75368079D01*
X153459715Y-75293060D01*
X153651983Y-75254815D01*
X153848017Y-75254815D01*
X154040285Y-75293060D01*
G37*
G36*
X160540285Y-75293060D02*
G01*
X160721397Y-75368079D01*
X160884393Y-75476990D01*
X161023010Y-75615607D01*
X161131921Y-75778603D01*
X161206940Y-75959715D01*
X161245185Y-76151983D01*
X161245185Y-76348017D01*
X161206940Y-76540285D01*
X161131921Y-76721397D01*
X161023010Y-76884393D01*
X160884393Y-77023010D01*
X160721397Y-77131921D01*
X160540285Y-77206940D01*
X160348017Y-77245185D01*
X160151983Y-77245185D01*
X159959715Y-77206940D01*
X159778603Y-77131921D01*
X159615607Y-77023010D01*
X159476990Y-76884393D01*
X159368079Y-76721397D01*
X159293060Y-76540285D01*
X159254815Y-76348017D01*
X159254815Y-76151983D01*
X159293060Y-75959715D01*
X159368079Y-75778603D01*
X159476990Y-75615607D01*
X159615607Y-75476990D01*
X159778603Y-75368079D01*
X159959715Y-75293060D01*
X160151983Y-75254815D01*
X160348017Y-75254815D01*
X160540285Y-75293060D01*
G37*
G36*
X106232228Y-74514448D02*
G01*
X106377117Y-74574463D01*
X106507515Y-74661592D01*
X106618408Y-74772485D01*
X106705537Y-74902883D01*
X106765552Y-75047772D01*
X106796148Y-75201586D01*
X106796148Y-75358414D01*
X106765552Y-75512228D01*
X106705537Y-75657117D01*
X106618408Y-75787515D01*
X106507515Y-75898408D01*
X106377117Y-75985537D01*
X106232228Y-76045552D01*
X106078414Y-76076148D01*
X105921586Y-76076148D01*
X105767772Y-76045552D01*
X105622883Y-75985537D01*
X105492485Y-75898408D01*
X105381592Y-75787515D01*
X105294463Y-75657117D01*
X105234448Y-75512228D01*
X105203852Y-75358414D01*
X105203852Y-75201586D01*
X105234448Y-75047772D01*
X105294463Y-74902883D01*
X105381592Y-74772485D01*
X105492485Y-74661592D01*
X105622883Y-74574463D01*
X105767772Y-74514448D01*
X105921586Y-74483852D01*
X106078414Y-74483852D01*
X106232228Y-74514448D01*
G37*
G36*
X127342228Y-73424448D02*
G01*
X127487117Y-73484463D01*
X127617515Y-73571592D01*
X127728408Y-73682485D01*
X127815537Y-73812883D01*
X127875552Y-73957772D01*
X127906148Y-74111586D01*
X127906148Y-74268414D01*
X127875552Y-74422228D01*
X127815537Y-74567117D01*
X127728408Y-74697515D01*
X127617515Y-74808408D01*
X127487117Y-74895537D01*
X127342228Y-74955552D01*
X127188414Y-74986148D01*
X127031586Y-74986148D01*
X126877772Y-74955552D01*
X126732883Y-74895537D01*
X126602485Y-74808408D01*
X126491592Y-74697515D01*
X126404463Y-74567117D01*
X126344448Y-74422228D01*
X126313852Y-74268414D01*
X126313852Y-74111586D01*
X126344448Y-73957772D01*
X126404463Y-73812883D01*
X126491592Y-73682485D01*
X126602485Y-73571592D01*
X126732883Y-73484463D01*
X126877772Y-73424448D01*
X127031586Y-73393852D01*
X127188414Y-73393852D01*
X127342228Y-73424448D01*
G37*
G36*
X145122228Y-73424448D02*
G01*
X145267117Y-73484463D01*
X145397515Y-73571592D01*
X145508408Y-73682485D01*
X145595537Y-73812883D01*
X145655552Y-73957772D01*
X145686148Y-74111586D01*
X145686148Y-74268414D01*
X145655552Y-74422228D01*
X145595537Y-74567117D01*
X145508408Y-74697515D01*
X145397515Y-74808408D01*
X145267117Y-74895537D01*
X145122228Y-74955552D01*
X144968414Y-74986148D01*
X144811586Y-74986148D01*
X144657772Y-74955552D01*
X144512883Y-74895537D01*
X144382485Y-74808408D01*
X144271592Y-74697515D01*
X144184463Y-74567117D01*
X144124448Y-74422228D01*
X144093852Y-74268414D01*
X144093852Y-74111586D01*
X144124448Y-73957772D01*
X144184463Y-73812883D01*
X144271592Y-73682485D01*
X144382485Y-73571592D01*
X144512883Y-73484463D01*
X144657772Y-73424448D01*
X144811586Y-73393852D01*
X144968414Y-73393852D01*
X145122228Y-73424448D01*
G37*
G36*
X154040285Y-70793060D02*
G01*
X154221397Y-70868079D01*
X154384393Y-70976990D01*
X154523010Y-71115607D01*
X154631921Y-71278603D01*
X154706940Y-71459715D01*
X154745185Y-71651983D01*
X154745185Y-71848017D01*
X154706940Y-72040285D01*
X154631921Y-72221397D01*
X154523010Y-72384393D01*
X154384393Y-72523010D01*
X154221397Y-72631921D01*
X154040285Y-72706940D01*
X153848017Y-72745185D01*
X153651983Y-72745185D01*
X153459715Y-72706940D01*
X153278603Y-72631921D01*
X153115607Y-72523010D01*
X152976990Y-72384393D01*
X152868079Y-72221397D01*
X152793060Y-72040285D01*
X152754815Y-71848017D01*
X152754815Y-71651983D01*
X152793060Y-71459715D01*
X152868079Y-71278603D01*
X152976990Y-71115607D01*
X153115607Y-70976990D01*
X153278603Y-70868079D01*
X153459715Y-70793060D01*
X153651983Y-70754815D01*
X153848017Y-70754815D01*
X154040285Y-70793060D01*
G37*
G36*
X160540285Y-70793060D02*
G01*
X160721397Y-70868079D01*
X160884393Y-70976990D01*
X161023010Y-71115607D01*
X161131921Y-71278603D01*
X161206940Y-71459715D01*
X161245185Y-71651983D01*
X161245185Y-71848017D01*
X161206940Y-72040285D01*
X161131921Y-72221397D01*
X161023010Y-72384393D01*
X160884393Y-72523010D01*
X160721397Y-72631921D01*
X160540285Y-72706940D01*
X160348017Y-72745185D01*
X160151983Y-72745185D01*
X159959715Y-72706940D01*
X159778603Y-72631921D01*
X159615607Y-72523010D01*
X159476990Y-72384393D01*
X159368079Y-72221397D01*
X159293060Y-72040285D01*
X159254815Y-71848017D01*
X159254815Y-71651983D01*
X159293060Y-71459715D01*
X159368079Y-71278603D01*
X159476990Y-71115607D01*
X159615607Y-70976990D01*
X159778603Y-70868079D01*
X159959715Y-70793060D01*
X160151983Y-70754815D01*
X160348017Y-70754815D01*
X160540285Y-70793060D01*
G37*
G36*
X127713536Y-70846464D02*
G01*
X127715915Y-70848843D01*
X127743108Y-70848843D01*
X127749018Y-70848843D01*
X127750931Y-70849224D01*
X127756385Y-70851483D01*
X127756389Y-70851484D01*
X127817569Y-70876826D01*
X127823027Y-70879087D01*
X127824650Y-70880170D01*
X127879830Y-70935350D01*
X127880913Y-70936973D01*
X127910776Y-71009069D01*
X127911157Y-71010982D01*
X127911157Y-71044085D01*
X127913536Y-71046464D01*
X127915000Y-71050000D01*
X127915000Y-72250000D01*
X127913536Y-72253536D01*
X127911157Y-72255915D01*
X127911157Y-72289018D01*
X127910776Y-72290931D01*
X127880913Y-72363027D01*
X127879830Y-72364650D01*
X127824650Y-72419830D01*
X127823027Y-72420913D01*
X127750931Y-72450776D01*
X127749018Y-72451157D01*
X127715915Y-72451157D01*
X127713536Y-72453536D01*
X127710000Y-72455000D01*
X127698066Y-72455000D01*
X127121935Y-72455000D01*
X127110000Y-72455000D01*
X127106464Y-72453536D01*
X127105475Y-72451148D01*
X127034533Y-72451148D01*
X127031586Y-72451148D01*
X127030611Y-72451052D01*
X126876797Y-72420456D01*
X126875859Y-72420171D01*
X126730970Y-72360156D01*
X126730105Y-72359694D01*
X126635362Y-72296389D01*
X126602159Y-72274204D01*
X126602154Y-72274200D01*
X126599707Y-72272565D01*
X126598949Y-72271944D01*
X126488056Y-72161051D01*
X126487435Y-72160293D01*
X126485800Y-72157846D01*
X126485795Y-72157840D01*
X126401943Y-72032345D01*
X126401942Y-72032344D01*
X126400306Y-72029895D01*
X126399844Y-72029030D01*
X126398720Y-72026317D01*
X126398717Y-72026311D01*
X126340955Y-71886860D01*
X126340954Y-71886857D01*
X126339829Y-71884141D01*
X126339544Y-71883203D01*
X126338970Y-71880318D01*
X126338968Y-71880311D01*
X126309523Y-71732281D01*
X126309522Y-71732278D01*
X126308948Y-71729389D01*
X126308852Y-71728414D01*
X126308852Y-71571586D01*
X126308948Y-71570611D01*
X126309523Y-71567718D01*
X126338968Y-71419688D01*
X126338970Y-71419679D01*
X126339544Y-71416797D01*
X126339829Y-71415859D01*
X126340953Y-71413144D01*
X126340955Y-71413139D01*
X126398717Y-71273688D01*
X126398722Y-71273678D01*
X126399844Y-71270970D01*
X126400306Y-71270105D01*
X126401940Y-71267659D01*
X126401943Y-71267654D01*
X126485795Y-71142159D01*
X126485803Y-71142148D01*
X126487435Y-71139707D01*
X126488056Y-71138949D01*
X126598949Y-71028056D01*
X126599707Y-71027435D01*
X126602148Y-71025803D01*
X126602159Y-71025795D01*
X126727654Y-70941943D01*
X126727659Y-70941940D01*
X126730105Y-70940306D01*
X126730970Y-70939844D01*
X126733678Y-70938722D01*
X126733688Y-70938717D01*
X126873139Y-70880955D01*
X126873144Y-70880953D01*
X126875859Y-70879829D01*
X126876797Y-70879544D01*
X126879679Y-70878970D01*
X126879688Y-70878968D01*
X127027718Y-70849523D01*
X127027722Y-70849522D01*
X127030611Y-70848948D01*
X127031586Y-70848852D01*
X127105475Y-70848852D01*
X127106464Y-70846464D01*
X127110000Y-70845000D01*
X127710000Y-70845000D01*
X127713536Y-70846464D01*
G37*
G36*
X144893536Y-70846464D02*
G01*
X144894525Y-70848852D01*
X144965467Y-70848852D01*
X144968414Y-70848852D01*
X144969389Y-70848948D01*
X144972278Y-70849522D01*
X144972281Y-70849523D01*
X145120311Y-70878968D01*
X145120318Y-70878970D01*
X145123203Y-70879544D01*
X145124141Y-70879829D01*
X145126857Y-70880954D01*
X145126860Y-70880955D01*
X145266311Y-70938717D01*
X145266317Y-70938720D01*
X145269030Y-70939844D01*
X145269895Y-70940306D01*
X145272344Y-70941942D01*
X145272345Y-70941943D01*
X145397840Y-71025795D01*
X145397846Y-71025800D01*
X145400293Y-71027435D01*
X145401051Y-71028056D01*
X145511944Y-71138949D01*
X145512565Y-71139707D01*
X145514200Y-71142154D01*
X145514204Y-71142159D01*
X145571152Y-71227389D01*
X145599694Y-71270105D01*
X145600156Y-71270970D01*
X145660171Y-71415859D01*
X145660456Y-71416797D01*
X145691052Y-71570611D01*
X145691148Y-71571586D01*
X145691148Y-71728414D01*
X145691052Y-71729389D01*
X145660456Y-71883203D01*
X145660171Y-71884141D01*
X145600156Y-72029030D01*
X145599694Y-72029895D01*
X145512565Y-72160293D01*
X145511944Y-72161051D01*
X145401051Y-72271944D01*
X145400293Y-72272565D01*
X145269895Y-72359694D01*
X145269030Y-72360156D01*
X145124141Y-72420171D01*
X145123203Y-72420456D01*
X144969389Y-72451052D01*
X144968414Y-72451148D01*
X144894525Y-72451148D01*
X144893536Y-72453536D01*
X144890000Y-72455000D01*
X144878065Y-72455000D01*
X144301934Y-72455000D01*
X144290000Y-72455000D01*
X144286464Y-72453536D01*
X144284085Y-72451157D01*
X144256892Y-72451157D01*
X144250982Y-72451157D01*
X144249069Y-72450776D01*
X144176973Y-72420913D01*
X144175350Y-72419830D01*
X144120170Y-72364650D01*
X144119087Y-72363027D01*
X144116826Y-72357569D01*
X144091484Y-72296389D01*
X144091483Y-72296385D01*
X144089224Y-72290931D01*
X144088843Y-72289018D01*
X144088843Y-72255915D01*
X144086464Y-72253536D01*
X144085000Y-72250000D01*
X144085000Y-71050000D01*
X144086464Y-71046464D01*
X144088843Y-71044085D01*
X144088843Y-71010982D01*
X144089224Y-71009069D01*
X144091482Y-71003615D01*
X144091484Y-71003610D01*
X144116826Y-70942430D01*
X144116827Y-70942427D01*
X144119087Y-70936973D01*
X144120170Y-70935350D01*
X144175350Y-70880170D01*
X144176973Y-70879087D01*
X144182427Y-70876827D01*
X144182430Y-70876826D01*
X144243610Y-70851484D01*
X144243615Y-70851482D01*
X144249069Y-70849224D01*
X144250982Y-70848843D01*
X144284085Y-70848843D01*
X144286464Y-70846464D01*
X144290000Y-70845000D01*
X144890000Y-70845000D01*
X144893536Y-70846464D01*
G37*
G36*
X127342228Y-68344448D02*
G01*
X127487117Y-68404463D01*
X127617515Y-68491592D01*
X127728408Y-68602485D01*
X127815537Y-68732883D01*
X127875552Y-68877772D01*
X127906148Y-69031586D01*
X127906148Y-69188414D01*
X127875552Y-69342228D01*
X127815537Y-69487117D01*
X127728408Y-69617515D01*
X127617515Y-69728408D01*
X127487117Y-69815537D01*
X127342228Y-69875552D01*
X127188414Y-69906148D01*
X127031586Y-69906148D01*
X126877772Y-69875552D01*
X126732883Y-69815537D01*
X126602485Y-69728408D01*
X126491592Y-69617515D01*
X126404463Y-69487117D01*
X126344448Y-69342228D01*
X126313852Y-69188414D01*
X126313852Y-69031586D01*
X126344448Y-68877772D01*
X126404463Y-68732883D01*
X126491592Y-68602485D01*
X126602485Y-68491592D01*
X126732883Y-68404463D01*
X126877772Y-68344448D01*
X127031586Y-68313852D01*
X127188414Y-68313852D01*
X127342228Y-68344448D01*
G37*
G36*
X145122228Y-68344448D02*
G01*
X145267117Y-68404463D01*
X145397515Y-68491592D01*
X145508408Y-68602485D01*
X145595537Y-68732883D01*
X145655552Y-68877772D01*
X145686148Y-69031586D01*
X145686148Y-69188414D01*
X145655552Y-69342228D01*
X145595537Y-69487117D01*
X145508408Y-69617515D01*
X145397515Y-69728408D01*
X145267117Y-69815537D01*
X145122228Y-69875552D01*
X144968414Y-69906148D01*
X144811586Y-69906148D01*
X144657772Y-69875552D01*
X144512883Y-69815537D01*
X144382485Y-69728408D01*
X144271592Y-69617515D01*
X144184463Y-69487117D01*
X144124448Y-69342228D01*
X144093852Y-69188414D01*
X144093852Y-69031586D01*
X144124448Y-68877772D01*
X144184463Y-68732883D01*
X144271592Y-68602485D01*
X144382485Y-68491592D01*
X144512883Y-68404463D01*
X144657772Y-68344448D01*
X144811586Y-68313852D01*
X144968414Y-68313852D01*
X145122228Y-68344448D01*
G37*
G36*
X89246742Y-68076601D02*
G01*
X89400687Y-68140367D01*
X89539234Y-68232941D01*
X89657059Y-68350766D01*
X89749633Y-68489313D01*
X89813399Y-68643258D01*
X89845907Y-68806685D01*
X89845907Y-68973315D01*
X89813399Y-69136742D01*
X89749633Y-69290687D01*
X89657059Y-69429234D01*
X89539234Y-69547059D01*
X89400687Y-69639633D01*
X89246742Y-69703399D01*
X89083315Y-69735907D01*
X88916685Y-69735907D01*
X88753258Y-69703399D01*
X88599313Y-69639633D01*
X88460766Y-69547059D01*
X88342941Y-69429234D01*
X88250367Y-69290687D01*
X88186601Y-69136742D01*
X88154093Y-68973315D01*
X88154093Y-68806685D01*
X88186601Y-68643258D01*
X88250367Y-68489313D01*
X88342941Y-68350766D01*
X88460766Y-68232941D01*
X88599313Y-68140367D01*
X88753258Y-68076601D01*
X88916685Y-68044093D01*
X89083315Y-68044093D01*
X89246742Y-68076601D01*
G37*
G36*
X127342228Y-65804448D02*
G01*
X127487117Y-65864463D01*
X127617515Y-65951592D01*
X127728408Y-66062485D01*
X127815537Y-66192883D01*
X127875552Y-66337772D01*
X127906148Y-66491586D01*
X127906148Y-66648414D01*
X127875552Y-66802228D01*
X127815537Y-66947117D01*
X127728408Y-67077515D01*
X127617515Y-67188408D01*
X127487117Y-67275537D01*
X127342228Y-67335552D01*
X127188414Y-67366148D01*
X127031586Y-67366148D01*
X126877772Y-67335552D01*
X126732883Y-67275537D01*
X126602485Y-67188408D01*
X126491592Y-67077515D01*
X126404463Y-66947117D01*
X126344448Y-66802228D01*
X126313852Y-66648414D01*
X126313852Y-66491586D01*
X126344448Y-66337772D01*
X126404463Y-66192883D01*
X126491592Y-66062485D01*
X126602485Y-65951592D01*
X126732883Y-65864463D01*
X126877772Y-65804448D01*
X127031586Y-65773852D01*
X127188414Y-65773852D01*
X127342228Y-65804448D01*
G37*
G36*
X145122228Y-65804448D02*
G01*
X145267117Y-65864463D01*
X145397515Y-65951592D01*
X145508408Y-66062485D01*
X145595537Y-66192883D01*
X145655552Y-66337772D01*
X145686148Y-66491586D01*
X145686148Y-66648414D01*
X145655552Y-66802228D01*
X145595537Y-66947117D01*
X145508408Y-67077515D01*
X145397515Y-67188408D01*
X145267117Y-67275537D01*
X145122228Y-67335552D01*
X144968414Y-67366148D01*
X144811586Y-67366148D01*
X144657772Y-67335552D01*
X144512883Y-67275537D01*
X144382485Y-67188408D01*
X144271592Y-67077515D01*
X144184463Y-66947117D01*
X144124448Y-66802228D01*
X144093852Y-66648414D01*
X144093852Y-66491586D01*
X144124448Y-66337772D01*
X144184463Y-66192883D01*
X144271592Y-66062485D01*
X144382485Y-65951592D01*
X144512883Y-65864463D01*
X144657772Y-65804448D01*
X144811586Y-65773852D01*
X144968414Y-65773852D01*
X145122228Y-65804448D01*
G37*
G36*
X89246742Y-65536601D02*
G01*
X89400687Y-65600367D01*
X89539234Y-65692941D01*
X89657059Y-65810766D01*
X89749633Y-65949313D01*
X89813399Y-66103258D01*
X89845907Y-66266685D01*
X89845907Y-66433315D01*
X89813399Y-66596742D01*
X89749633Y-66750687D01*
X89657059Y-66889234D01*
X89539234Y-67007059D01*
X89400687Y-67099633D01*
X89246742Y-67163399D01*
X89083315Y-67195907D01*
X88916685Y-67195907D01*
X88753258Y-67163399D01*
X88599313Y-67099633D01*
X88460766Y-67007059D01*
X88342941Y-66889234D01*
X88250367Y-66750687D01*
X88186601Y-66596742D01*
X88154093Y-66433315D01*
X88154093Y-66266685D01*
X88186601Y-66103258D01*
X88250367Y-65949313D01*
X88342941Y-65810766D01*
X88460766Y-65692941D01*
X88599313Y-65600367D01*
X88753258Y-65536601D01*
X88916685Y-65504093D01*
X89083315Y-65504093D01*
X89246742Y-65536601D01*
G37*
G36*
X106232228Y-64354448D02*
G01*
X106377117Y-64414463D01*
X106507515Y-64501592D01*
X106618408Y-64612485D01*
X106705537Y-64742883D01*
X106765552Y-64887772D01*
X106796148Y-65041586D01*
X106796148Y-65198414D01*
X106765552Y-65352228D01*
X106705537Y-65497117D01*
X106618408Y-65627515D01*
X106507515Y-65738408D01*
X106377117Y-65825537D01*
X106232228Y-65885552D01*
X106078414Y-65916148D01*
X105921586Y-65916148D01*
X105767772Y-65885552D01*
X105622883Y-65825537D01*
X105492485Y-65738408D01*
X105381592Y-65627515D01*
X105294463Y-65497117D01*
X105234448Y-65352228D01*
X105203852Y-65198414D01*
X105203852Y-65041586D01*
X105234448Y-64887772D01*
X105294463Y-64742883D01*
X105381592Y-64612485D01*
X105492485Y-64501592D01*
X105622883Y-64414463D01*
X105767772Y-64354448D01*
X105921586Y-64323852D01*
X106078414Y-64323852D01*
X106232228Y-64354448D01*
G37*
G36*
X127342228Y-63264448D02*
G01*
X127487117Y-63324463D01*
X127617515Y-63411592D01*
X127728408Y-63522485D01*
X127815537Y-63652883D01*
X127875552Y-63797772D01*
X127906148Y-63951586D01*
X127906148Y-64108414D01*
X127875552Y-64262228D01*
X127815537Y-64407117D01*
X127728408Y-64537515D01*
X127617515Y-64648408D01*
X127487117Y-64735537D01*
X127342228Y-64795552D01*
X127188414Y-64826148D01*
X127031586Y-64826148D01*
X126877772Y-64795552D01*
X126732883Y-64735537D01*
X126602485Y-64648408D01*
X126491592Y-64537515D01*
X126404463Y-64407117D01*
X126344448Y-64262228D01*
X126313852Y-64108414D01*
X126313852Y-63951586D01*
X126344448Y-63797772D01*
X126404463Y-63652883D01*
X126491592Y-63522485D01*
X126602485Y-63411592D01*
X126732883Y-63324463D01*
X126877772Y-63264448D01*
X127031586Y-63233852D01*
X127188414Y-63233852D01*
X127342228Y-63264448D01*
G37*
G36*
X145122228Y-63264448D02*
G01*
X145267117Y-63324463D01*
X145397515Y-63411592D01*
X145508408Y-63522485D01*
X145595537Y-63652883D01*
X145655552Y-63797772D01*
X145686148Y-63951586D01*
X145686148Y-64108414D01*
X145655552Y-64262228D01*
X145595537Y-64407117D01*
X145508408Y-64537515D01*
X145397515Y-64648408D01*
X145267117Y-64735537D01*
X145122228Y-64795552D01*
X144968414Y-64826148D01*
X144811586Y-64826148D01*
X144657772Y-64795552D01*
X144512883Y-64735537D01*
X144382485Y-64648408D01*
X144271592Y-64537515D01*
X144184463Y-64407117D01*
X144124448Y-64262228D01*
X144093852Y-64108414D01*
X144093852Y-63951586D01*
X144124448Y-63797772D01*
X144184463Y-63652883D01*
X144271592Y-63522485D01*
X144382485Y-63411592D01*
X144512883Y-63324463D01*
X144657772Y-63264448D01*
X144811586Y-63233852D01*
X144968414Y-63233852D01*
X145122228Y-63264448D01*
G37*
G36*
X89246742Y-62996601D02*
G01*
X89400687Y-63060367D01*
X89539234Y-63152941D01*
X89657059Y-63270766D01*
X89749633Y-63409313D01*
X89813399Y-63563258D01*
X89845907Y-63726685D01*
X89845907Y-63893315D01*
X89813399Y-64056742D01*
X89749633Y-64210687D01*
X89657059Y-64349234D01*
X89539234Y-64467059D01*
X89400687Y-64559633D01*
X89246742Y-64623399D01*
X89083315Y-64655907D01*
X88916685Y-64655907D01*
X88753258Y-64623399D01*
X88599313Y-64559633D01*
X88460766Y-64467059D01*
X88342941Y-64349234D01*
X88250367Y-64210687D01*
X88186601Y-64056742D01*
X88154093Y-63893315D01*
X88154093Y-63726685D01*
X88186601Y-63563258D01*
X88250367Y-63409313D01*
X88342941Y-63270766D01*
X88460766Y-63152941D01*
X88599313Y-63060367D01*
X88753258Y-62996601D01*
X88916685Y-62964093D01*
X89083315Y-62964093D01*
X89246742Y-62996601D01*
G37*
G36*
X158832228Y-61114448D02*
G01*
X158977117Y-61174463D01*
X159107515Y-61261592D01*
X159218408Y-61372485D01*
X159305537Y-61502883D01*
X159365552Y-61647772D01*
X159396148Y-61801586D01*
X159396148Y-61958414D01*
X159365552Y-62112228D01*
X159305537Y-62257117D01*
X159218408Y-62387515D01*
X159107515Y-62498408D01*
X158977117Y-62585537D01*
X158832228Y-62645552D01*
X158678414Y-62676148D01*
X158521586Y-62676148D01*
X158367772Y-62645552D01*
X158222883Y-62585537D01*
X158092485Y-62498408D01*
X157981592Y-62387515D01*
X157894463Y-62257117D01*
X157834448Y-62112228D01*
X157803852Y-61958414D01*
X157803852Y-61801586D01*
X157834448Y-61647772D01*
X157894463Y-61502883D01*
X157981592Y-61372485D01*
X158092485Y-61261592D01*
X158222883Y-61174463D01*
X158367772Y-61114448D01*
X158521586Y-61083852D01*
X158678414Y-61083852D01*
X158832228Y-61114448D01*
G37*
G36*
X127342228Y-60724448D02*
G01*
X127487117Y-60784463D01*
X127617515Y-60871592D01*
X127728408Y-60982485D01*
X127815537Y-61112883D01*
X127875552Y-61257772D01*
X127906148Y-61411586D01*
X127906148Y-61568414D01*
X127875552Y-61722228D01*
X127815537Y-61867117D01*
X127728408Y-61997515D01*
X127617515Y-62108408D01*
X127487117Y-62195537D01*
X127342228Y-62255552D01*
X127188414Y-62286148D01*
X127031586Y-62286148D01*
X126877772Y-62255552D01*
X126732883Y-62195537D01*
X126602485Y-62108408D01*
X126491592Y-61997515D01*
X126404463Y-61867117D01*
X126344448Y-61722228D01*
X126313852Y-61568414D01*
X126313852Y-61411586D01*
X126344448Y-61257772D01*
X126404463Y-61112883D01*
X126491592Y-60982485D01*
X126602485Y-60871592D01*
X126732883Y-60784463D01*
X126877772Y-60724448D01*
X127031586Y-60693852D01*
X127188414Y-60693852D01*
X127342228Y-60724448D01*
G37*
G36*
X145122228Y-60724448D02*
G01*
X145267117Y-60784463D01*
X145397515Y-60871592D01*
X145508408Y-60982485D01*
X145595537Y-61112883D01*
X145655552Y-61257772D01*
X145686148Y-61411586D01*
X145686148Y-61568414D01*
X145655552Y-61722228D01*
X145595537Y-61867117D01*
X145508408Y-61997515D01*
X145397515Y-62108408D01*
X145267117Y-62195537D01*
X145122228Y-62255552D01*
X144968414Y-62286148D01*
X144811586Y-62286148D01*
X144657772Y-62255552D01*
X144512883Y-62195537D01*
X144382485Y-62108408D01*
X144271592Y-61997515D01*
X144184463Y-61867117D01*
X144124448Y-61722228D01*
X144093852Y-61568414D01*
X144093852Y-61411586D01*
X144124448Y-61257772D01*
X144184463Y-61112883D01*
X144271592Y-60982485D01*
X144382485Y-60871592D01*
X144512883Y-60784463D01*
X144657772Y-60724448D01*
X144811586Y-60693852D01*
X144968414Y-60693852D01*
X145122228Y-60724448D01*
G37*
G36*
X89246742Y-60456601D02*
G01*
X89400687Y-60520367D01*
X89539234Y-60612941D01*
X89657059Y-60730766D01*
X89749633Y-60869313D01*
X89813399Y-61023258D01*
X89845907Y-61186685D01*
X89845907Y-61353315D01*
X89813399Y-61516742D01*
X89749633Y-61670687D01*
X89657059Y-61809234D01*
X89539234Y-61927059D01*
X89400687Y-62019633D01*
X89246742Y-62083399D01*
X89083315Y-62115907D01*
X88916685Y-62115907D01*
X88753258Y-62083399D01*
X88599313Y-62019633D01*
X88460766Y-61927059D01*
X88342941Y-61809234D01*
X88250367Y-61670687D01*
X88186601Y-61516742D01*
X88154093Y-61353315D01*
X88154093Y-61186685D01*
X88186601Y-61023258D01*
X88250367Y-60869313D01*
X88342941Y-60730766D01*
X88460766Y-60612941D01*
X88599313Y-60520367D01*
X88753258Y-60456601D01*
X88916685Y-60424093D01*
X89083315Y-60424093D01*
X89246742Y-60456601D01*
G37*
G36*
X127713536Y-58146464D02*
G01*
X127715915Y-58148843D01*
X127743108Y-58148843D01*
X127749018Y-58148843D01*
X127750931Y-58149224D01*
X127756385Y-58151483D01*
X127756389Y-58151484D01*
X127817569Y-58176826D01*
X127823027Y-58179087D01*
X127824650Y-58180170D01*
X127879830Y-58235350D01*
X127880913Y-58236973D01*
X127910776Y-58309069D01*
X127911157Y-58310982D01*
X127911157Y-58344085D01*
X127913536Y-58346464D01*
X127915000Y-58350000D01*
X127915000Y-59550000D01*
X127913536Y-59553536D01*
X127911157Y-59555915D01*
X127911157Y-59589018D01*
X127910776Y-59590931D01*
X127880913Y-59663027D01*
X127879830Y-59664650D01*
X127824650Y-59719830D01*
X127823027Y-59720913D01*
X127750931Y-59750776D01*
X127749018Y-59751157D01*
X127715915Y-59751157D01*
X127713536Y-59753536D01*
X127710000Y-59755000D01*
X127698066Y-59755000D01*
X127121935Y-59755000D01*
X127110000Y-59755000D01*
X127106464Y-59753536D01*
X127105475Y-59751148D01*
X127034533Y-59751148D01*
X127031586Y-59751148D01*
X127030611Y-59751052D01*
X126876797Y-59720456D01*
X126875859Y-59720171D01*
X126730970Y-59660156D01*
X126730105Y-59659694D01*
X126635362Y-59596389D01*
X126602159Y-59574204D01*
X126602154Y-59574200D01*
X126599707Y-59572565D01*
X126598949Y-59571944D01*
X126488056Y-59461051D01*
X126487435Y-59460293D01*
X126485800Y-59457846D01*
X126485795Y-59457840D01*
X126401943Y-59332345D01*
X126401942Y-59332344D01*
X126400306Y-59329895D01*
X126399844Y-59329030D01*
X126398720Y-59326317D01*
X126398717Y-59326311D01*
X126340955Y-59186860D01*
X126340954Y-59186857D01*
X126339829Y-59184141D01*
X126339544Y-59183203D01*
X126338970Y-59180318D01*
X126338968Y-59180311D01*
X126309523Y-59032281D01*
X126309522Y-59032278D01*
X126308948Y-59029389D01*
X126308852Y-59028414D01*
X126308852Y-58871586D01*
X126308948Y-58870611D01*
X126309523Y-58867718D01*
X126338968Y-58719688D01*
X126338970Y-58719679D01*
X126339544Y-58716797D01*
X126339829Y-58715859D01*
X126340953Y-58713144D01*
X126340955Y-58713139D01*
X126398717Y-58573688D01*
X126398722Y-58573678D01*
X126399844Y-58570970D01*
X126400306Y-58570105D01*
X126401940Y-58567659D01*
X126401943Y-58567654D01*
X126485795Y-58442159D01*
X126485803Y-58442148D01*
X126487435Y-58439707D01*
X126488056Y-58438949D01*
X126598949Y-58328056D01*
X126599707Y-58327435D01*
X126602148Y-58325803D01*
X126602159Y-58325795D01*
X126727654Y-58241943D01*
X126727659Y-58241940D01*
X126730105Y-58240306D01*
X126730970Y-58239844D01*
X126733678Y-58238722D01*
X126733688Y-58238717D01*
X126873139Y-58180955D01*
X126873144Y-58180953D01*
X126875859Y-58179829D01*
X126876797Y-58179544D01*
X126879679Y-58178970D01*
X126879688Y-58178968D01*
X127027718Y-58149523D01*
X127027722Y-58149522D01*
X127030611Y-58148948D01*
X127031586Y-58148852D01*
X127105475Y-58148852D01*
X127106464Y-58146464D01*
X127110000Y-58145000D01*
X127710000Y-58145000D01*
X127713536Y-58146464D01*
G37*
G36*
X144893536Y-58146464D02*
G01*
X144894525Y-58148852D01*
X144965467Y-58148852D01*
X144968414Y-58148852D01*
X144969389Y-58148948D01*
X144972278Y-58149522D01*
X144972281Y-58149523D01*
X145120311Y-58178968D01*
X145120318Y-58178970D01*
X145123203Y-58179544D01*
X145124141Y-58179829D01*
X145126857Y-58180954D01*
X145126860Y-58180955D01*
X145266311Y-58238717D01*
X145266317Y-58238720D01*
X145269030Y-58239844D01*
X145269895Y-58240306D01*
X145272344Y-58241942D01*
X145272345Y-58241943D01*
X145397840Y-58325795D01*
X145397846Y-58325800D01*
X145400293Y-58327435D01*
X145401051Y-58328056D01*
X145511944Y-58438949D01*
X145512565Y-58439707D01*
X145514200Y-58442154D01*
X145514204Y-58442159D01*
X145571152Y-58527389D01*
X145599694Y-58570105D01*
X145600156Y-58570970D01*
X145660171Y-58715859D01*
X145660456Y-58716797D01*
X145691052Y-58870611D01*
X145691148Y-58871586D01*
X145691148Y-59028414D01*
X145691052Y-59029389D01*
X145660456Y-59183203D01*
X145660171Y-59184141D01*
X145600156Y-59329030D01*
X145599694Y-59329895D01*
X145512565Y-59460293D01*
X145511944Y-59461051D01*
X145401051Y-59571944D01*
X145400293Y-59572565D01*
X145269895Y-59659694D01*
X145269030Y-59660156D01*
X145124141Y-59720171D01*
X145123203Y-59720456D01*
X144969389Y-59751052D01*
X144968414Y-59751148D01*
X144894525Y-59751148D01*
X144893536Y-59753536D01*
X144890000Y-59755000D01*
X144878065Y-59755000D01*
X144301934Y-59755000D01*
X144290000Y-59755000D01*
X144286464Y-59753536D01*
X144284085Y-59751157D01*
X144256892Y-59751157D01*
X144250982Y-59751157D01*
X144249069Y-59750776D01*
X144176973Y-59720913D01*
X144175350Y-59719830D01*
X144120170Y-59664650D01*
X144119087Y-59663027D01*
X144116826Y-59657569D01*
X144091484Y-59596389D01*
X144091483Y-59596385D01*
X144089224Y-59590931D01*
X144088843Y-59589018D01*
X144088843Y-59555915D01*
X144086464Y-59553536D01*
X144085000Y-59550000D01*
X144085000Y-58350000D01*
X144086464Y-58346464D01*
X144088843Y-58344085D01*
X144088843Y-58310982D01*
X144089224Y-58309069D01*
X144091482Y-58303615D01*
X144091484Y-58303610D01*
X144116826Y-58242430D01*
X144116827Y-58242427D01*
X144119087Y-58236973D01*
X144120170Y-58235350D01*
X144175350Y-58180170D01*
X144176973Y-58179087D01*
X144182427Y-58176827D01*
X144182430Y-58176826D01*
X144243610Y-58151484D01*
X144243615Y-58151482D01*
X144249069Y-58149224D01*
X144250982Y-58148843D01*
X144284085Y-58148843D01*
X144286464Y-58146464D01*
X144290000Y-58145000D01*
X144890000Y-58145000D01*
X144893536Y-58146464D01*
G37*
G36*
X89246742Y-57916601D02*
G01*
X89400687Y-57980367D01*
X89539234Y-58072941D01*
X89657059Y-58190766D01*
X89749633Y-58329313D01*
X89813399Y-58483258D01*
X89845907Y-58646685D01*
X89845907Y-58813315D01*
X89813399Y-58976742D01*
X89749633Y-59130687D01*
X89657059Y-59269234D01*
X89539234Y-59387059D01*
X89400687Y-59479633D01*
X89246742Y-59543399D01*
X89083315Y-59575907D01*
X88916685Y-59575907D01*
X88753258Y-59543399D01*
X88599313Y-59479633D01*
X88460766Y-59387059D01*
X88342941Y-59269234D01*
X88250367Y-59130687D01*
X88186601Y-58976742D01*
X88154093Y-58813315D01*
X88154093Y-58646685D01*
X88186601Y-58483258D01*
X88250367Y-58329313D01*
X88342941Y-58190766D01*
X88460766Y-58072941D01*
X88599313Y-57980367D01*
X88753258Y-57916601D01*
X88916685Y-57884093D01*
X89083315Y-57884093D01*
X89246742Y-57916601D01*
G37*
G36*
X133843513Y-56144830D02*
G01*
X134011042Y-56214223D01*
X134161814Y-56314965D01*
X134290035Y-56443186D01*
X134390777Y-56593958D01*
X134460170Y-56761487D01*
X134495546Y-56939334D01*
X134495546Y-57120666D01*
X134460170Y-57298513D01*
X134390777Y-57466042D01*
X134290035Y-57616814D01*
X134161814Y-57745035D01*
X134011042Y-57845777D01*
X133843513Y-57915170D01*
X133665666Y-57950546D01*
X133484334Y-57950546D01*
X133306487Y-57915170D01*
X133138958Y-57845777D01*
X132988186Y-57745035D01*
X132859965Y-57616814D01*
X132759223Y-57466042D01*
X132689830Y-57298513D01*
X132654454Y-57120666D01*
X132654454Y-56939334D01*
X132689830Y-56761487D01*
X132759223Y-56593958D01*
X132859965Y-56443186D01*
X132988186Y-56314965D01*
X133138958Y-56214223D01*
X133306487Y-56144830D01*
X133484334Y-56109454D01*
X133665666Y-56109454D01*
X133843513Y-56144830D01*
G37*
G36*
X138693513Y-56144830D02*
G01*
X138861042Y-56214223D01*
X139011814Y-56314965D01*
X139140035Y-56443186D01*
X139240777Y-56593958D01*
X139310170Y-56761487D01*
X139345546Y-56939334D01*
X139345546Y-57120666D01*
X139310170Y-57298513D01*
X139240777Y-57466042D01*
X139140035Y-57616814D01*
X139011814Y-57745035D01*
X138861042Y-57845777D01*
X138693513Y-57915170D01*
X138515666Y-57950546D01*
X138334334Y-57950546D01*
X138156487Y-57915170D01*
X137988958Y-57845777D01*
X137838186Y-57745035D01*
X137709965Y-57616814D01*
X137609223Y-57466042D01*
X137539830Y-57298513D01*
X137504454Y-57120666D01*
X137504454Y-56939334D01*
X137539830Y-56761487D01*
X137609223Y-56593958D01*
X137709965Y-56443186D01*
X137838186Y-56314965D01*
X137988958Y-56214223D01*
X138156487Y-56144830D01*
X138334334Y-56109454D01*
X138515666Y-56109454D01*
X138693513Y-56144830D01*
G37*
G36*
X127342228Y-55644448D02*
G01*
X127487117Y-55704463D01*
X127617515Y-55791592D01*
X127728408Y-55902485D01*
X127815537Y-56032883D01*
X127875552Y-56177772D01*
X127906148Y-56331586D01*
X127906148Y-56488414D01*
X127875552Y-56642228D01*
X127815537Y-56787117D01*
X127728408Y-56917515D01*
X127617515Y-57028408D01*
X127487117Y-57115537D01*
X127342228Y-57175552D01*
X127188414Y-57206148D01*
X127031586Y-57206148D01*
X126877772Y-57175552D01*
X126732883Y-57115537D01*
X126602485Y-57028408D01*
X126491592Y-56917515D01*
X126404463Y-56787117D01*
X126344448Y-56642228D01*
X126313852Y-56488414D01*
X126313852Y-56331586D01*
X126344448Y-56177772D01*
X126404463Y-56032883D01*
X126491592Y-55902485D01*
X126602485Y-55791592D01*
X126732883Y-55704463D01*
X126877772Y-55644448D01*
X127031586Y-55613852D01*
X127188414Y-55613852D01*
X127342228Y-55644448D01*
G37*
G36*
X145122228Y-55644448D02*
G01*
X145267117Y-55704463D01*
X145397515Y-55791592D01*
X145508408Y-55902485D01*
X145595537Y-56032883D01*
X145655552Y-56177772D01*
X145686148Y-56331586D01*
X145686148Y-56488414D01*
X145655552Y-56642228D01*
X145595537Y-56787117D01*
X145508408Y-56917515D01*
X145397515Y-57028408D01*
X145267117Y-57115537D01*
X145122228Y-57175552D01*
X144968414Y-57206148D01*
X144811586Y-57206148D01*
X144657772Y-57175552D01*
X144512883Y-57115537D01*
X144382485Y-57028408D01*
X144271592Y-56917515D01*
X144184463Y-56787117D01*
X144124448Y-56642228D01*
X144093852Y-56488414D01*
X144093852Y-56331586D01*
X144124448Y-56177772D01*
X144184463Y-56032883D01*
X144271592Y-55902485D01*
X144382485Y-55791592D01*
X144512883Y-55704463D01*
X144657772Y-55644448D01*
X144811586Y-55613852D01*
X144968414Y-55613852D01*
X145122228Y-55644448D01*
G37*
G36*
X89246742Y-55376601D02*
G01*
X89400687Y-55440367D01*
X89539234Y-55532941D01*
X89657059Y-55650766D01*
X89749633Y-55789313D01*
X89813399Y-55943258D01*
X89845907Y-56106685D01*
X89845907Y-56273315D01*
X89813399Y-56436742D01*
X89749633Y-56590687D01*
X89657059Y-56729234D01*
X89539234Y-56847059D01*
X89400687Y-56939633D01*
X89246742Y-57003399D01*
X89083315Y-57035907D01*
X88916685Y-57035907D01*
X88753258Y-57003399D01*
X88599313Y-56939633D01*
X88460766Y-56847059D01*
X88342941Y-56729234D01*
X88250367Y-56590687D01*
X88186601Y-56436742D01*
X88154093Y-56273315D01*
X88154093Y-56106685D01*
X88186601Y-55943258D01*
X88250367Y-55789313D01*
X88342941Y-55650766D01*
X88460766Y-55532941D01*
X88599313Y-55440367D01*
X88753258Y-55376601D01*
X88916685Y-55344093D01*
X89083315Y-55344093D01*
X89246742Y-55376601D01*
G37*
G36*
X133531790Y-52930393D02*
G01*
X133695952Y-52983733D01*
X133849748Y-53062096D01*
X133989393Y-53163553D01*
X134111447Y-53285607D01*
X134212904Y-53425252D01*
X134291267Y-53579048D01*
X134344607Y-53743210D01*
X134371609Y-53913695D01*
X134371609Y-54086305D01*
X134344607Y-54256790D01*
X134291267Y-54420952D01*
X134212904Y-54574748D01*
X134111447Y-54714393D01*
X133989393Y-54836447D01*
X133849748Y-54937904D01*
X133695952Y-55016267D01*
X133531790Y-55069607D01*
X133361305Y-55096609D01*
X133188695Y-55096609D01*
X133018210Y-55069607D01*
X132854048Y-55016267D01*
X132700252Y-54937904D01*
X132560607Y-54836447D01*
X132438553Y-54714393D01*
X132337096Y-54574748D01*
X132258733Y-54420952D01*
X132205393Y-54256790D01*
X132178391Y-54086305D01*
X132178391Y-53913695D01*
X132205393Y-53743210D01*
X132258733Y-53579048D01*
X132337096Y-53425252D01*
X132438553Y-53285607D01*
X132560607Y-53163553D01*
X132700252Y-53062096D01*
X132854048Y-52983733D01*
X133018210Y-52930393D01*
X133188695Y-52903391D01*
X133361305Y-52903391D01*
X133531790Y-52930393D01*
G37*
G36*
X138981790Y-52930393D02*
G01*
X139145952Y-52983733D01*
X139299748Y-53062096D01*
X139439393Y-53163553D01*
X139561447Y-53285607D01*
X139662904Y-53425252D01*
X139741267Y-53579048D01*
X139794607Y-53743210D01*
X139821609Y-53913695D01*
X139821609Y-54086305D01*
X139794607Y-54256790D01*
X139741267Y-54420952D01*
X139662904Y-54574748D01*
X139561447Y-54714393D01*
X139439393Y-54836447D01*
X139299748Y-54937904D01*
X139145952Y-55016267D01*
X138981790Y-55069607D01*
X138811305Y-55096609D01*
X138638695Y-55096609D01*
X138468210Y-55069607D01*
X138304048Y-55016267D01*
X138150252Y-54937904D01*
X138010607Y-54836447D01*
X137888553Y-54714393D01*
X137787096Y-54574748D01*
X137708733Y-54420952D01*
X137655393Y-54256790D01*
X137628391Y-54086305D01*
X137628391Y-53913695D01*
X137655393Y-53743210D01*
X137708733Y-53579048D01*
X137787096Y-53425252D01*
X137888553Y-53285607D01*
X138010607Y-53163553D01*
X138150252Y-53062096D01*
X138304048Y-52983733D01*
X138468210Y-52930393D01*
X138638695Y-52903391D01*
X138811305Y-52903391D01*
X138981790Y-52930393D01*
G37*
G36*
X127786537Y-53085224D02*
G01*
X127851421Y-53128579D01*
X127894776Y-53193463D01*
X127910000Y-53270000D01*
X127910000Y-54470000D01*
X127894776Y-54546537D01*
X127851421Y-54611421D01*
X127786537Y-54654776D01*
X127710000Y-54670000D01*
X126510000Y-54670000D01*
X126433463Y-54654776D01*
X126368579Y-54611421D01*
X126325224Y-54546537D01*
X126310000Y-54470000D01*
X126310000Y-53270000D01*
X126325224Y-53193463D01*
X126368579Y-53128579D01*
X126433463Y-53085224D01*
X126510000Y-53070000D01*
X127710000Y-53070000D01*
X127786537Y-53085224D01*
G37*
G36*
X145122228Y-53104448D02*
G01*
X145267117Y-53164463D01*
X145397515Y-53251592D01*
X145508408Y-53362485D01*
X145595537Y-53492883D01*
X145655552Y-53637772D01*
X145686148Y-53791586D01*
X145686148Y-53948414D01*
X145655552Y-54102228D01*
X145595537Y-54247117D01*
X145508408Y-54377515D01*
X145397515Y-54488408D01*
X145267117Y-54575537D01*
X145122228Y-54635552D01*
X144968414Y-54666148D01*
X144811586Y-54666148D01*
X144657772Y-54635552D01*
X144512883Y-54575537D01*
X144382485Y-54488408D01*
X144271592Y-54377515D01*
X144184463Y-54247117D01*
X144124448Y-54102228D01*
X144093852Y-53948414D01*
X144093852Y-53791586D01*
X144124448Y-53637772D01*
X144184463Y-53492883D01*
X144271592Y-53362485D01*
X144382485Y-53251592D01*
X144512883Y-53164463D01*
X144657772Y-53104448D01*
X144811586Y-53073852D01*
X144968414Y-53073852D01*
X145122228Y-53104448D01*
G37*
G36*
X89246742Y-52836601D02*
G01*
X89400687Y-52900367D01*
X89539234Y-52992941D01*
X89657059Y-53110766D01*
X89749633Y-53249313D01*
X89813399Y-53403258D01*
X89845907Y-53566685D01*
X89845907Y-53733315D01*
X89813399Y-53896742D01*
X89749633Y-54050687D01*
X89657059Y-54189234D01*
X89539234Y-54307059D01*
X89400687Y-54399633D01*
X89246742Y-54463399D01*
X89083315Y-54495907D01*
X88916685Y-54495907D01*
X88753258Y-54463399D01*
X88599313Y-54399633D01*
X88460766Y-54307059D01*
X88342941Y-54189234D01*
X88250367Y-54050687D01*
X88186601Y-53896742D01*
X88154093Y-53733315D01*
X88154093Y-53566685D01*
X88186601Y-53403258D01*
X88250367Y-53249313D01*
X88342941Y-53110766D01*
X88460766Y-52992941D01*
X88599313Y-52900367D01*
X88753258Y-52836601D01*
X88916685Y-52804093D01*
X89083315Y-52804093D01*
X89246742Y-52836601D01*
G37*
G36*
X158832228Y-50954448D02*
G01*
X158977117Y-51014463D01*
X159107515Y-51101592D01*
X159218408Y-51212485D01*
X159305537Y-51342883D01*
X159365552Y-51487772D01*
X159396148Y-51641586D01*
X159396148Y-51798414D01*
X159365552Y-51952228D01*
X159305537Y-52097117D01*
X159218408Y-52227515D01*
X159107515Y-52338408D01*
X158977117Y-52425537D01*
X158832228Y-52485552D01*
X158678414Y-52516148D01*
X158521586Y-52516148D01*
X158367772Y-52485552D01*
X158222883Y-52425537D01*
X158092485Y-52338408D01*
X157981592Y-52227515D01*
X157894463Y-52097117D01*
X157834448Y-51952228D01*
X157803852Y-51798414D01*
X157803852Y-51641586D01*
X157834448Y-51487772D01*
X157894463Y-51342883D01*
X157981592Y-51212485D01*
X158092485Y-51101592D01*
X158222883Y-51014463D01*
X158367772Y-50954448D01*
X158521586Y-50923852D01*
X158678414Y-50923852D01*
X158832228Y-50954448D01*
G37*
G36*
X89850000Y-51960000D02*
G01*
X88150000Y-51960000D01*
X88150000Y-50260000D01*
X89850000Y-50260000D01*
X89850000Y-51960000D01*
G37*
G36*
X154310000Y-47235000D02*
G01*
X152610000Y-47235000D01*
X152610000Y-45535000D01*
X154310000Y-45535000D01*
X154310000Y-47235000D01*
G37*
G36*
X156246742Y-45571601D02*
G01*
X156400687Y-45635367D01*
X156539234Y-45727941D01*
X156657059Y-45845766D01*
X156749633Y-45984313D01*
X156813399Y-46138258D01*
X156845907Y-46301685D01*
X156845907Y-46468315D01*
X156813399Y-46631742D01*
X156749633Y-46785687D01*
X156657059Y-46924234D01*
X156539234Y-47042059D01*
X156400687Y-47134633D01*
X156246742Y-47198399D01*
X156083315Y-47230907D01*
X155916685Y-47230907D01*
X155753258Y-47198399D01*
X155599313Y-47134633D01*
X155460766Y-47042059D01*
X155342941Y-46924234D01*
X155250367Y-46785687D01*
X155186601Y-46631742D01*
X155154093Y-46468315D01*
X155154093Y-46301685D01*
X155186601Y-46138258D01*
X155250367Y-45984313D01*
X155342941Y-45845766D01*
X155460766Y-45727941D01*
X155599313Y-45635367D01*
X155753258Y-45571601D01*
X155916685Y-45539093D01*
X156083315Y-45539093D01*
X156246742Y-45571601D01*
G37*
G36*
X158786742Y-45571601D02*
G01*
X158940687Y-45635367D01*
X159079234Y-45727941D01*
X159197059Y-45845766D01*
X159289633Y-45984313D01*
X159353399Y-46138258D01*
X159385907Y-46301685D01*
X159385907Y-46468315D01*
X159353399Y-46631742D01*
X159289633Y-46785687D01*
X159197059Y-46924234D01*
X159079234Y-47042059D01*
X158940687Y-47134633D01*
X158786742Y-47198399D01*
X158623315Y-47230907D01*
X158456685Y-47230907D01*
X158293258Y-47198399D01*
X158139313Y-47134633D01*
X158000766Y-47042059D01*
X157882941Y-46924234D01*
X157790367Y-46785687D01*
X157726601Y-46631742D01*
X157694093Y-46468315D01*
X157694093Y-46301685D01*
X157726601Y-46138258D01*
X157790367Y-45984313D01*
X157882941Y-45845766D01*
X158000766Y-45727941D01*
X158139313Y-45635367D01*
X158293258Y-45571601D01*
X158456685Y-45539093D01*
X158623315Y-45539093D01*
X158786742Y-45571601D01*
G37*
M02*
