M48
; DRILL file KiCad 10.0.0 date 2026-05-20T19:40:09
; FORMAT={-:-/ absolute / metric / decimal}
; #@! TF.CreationDate,2026-05-20T19:40:09-04:00
; #@! TF.GenerationSoftware,Kicad,Pcbnew,10.0.0
; #@! TF.FileFunction,Plated,1,4,PTH
FMAT,2
METRIC
; #@! TA.AperFunction,Plated,PTH,ViaDrill
T1C0.300
; #@! TA.AperFunction,Plated,PTH,ComponentDrill
T2C0.800
; #@! TA.AperFunction,Plated,PTH,ComponentDrill
T3C1.000
; #@! TA.AperFunction,Plated,PTH,ComponentDrill
T4C1.100
%
G90
G05
T1
X96.8Y-74.2
X97.0Y-68.0
X97.8Y-99.6
X98.8Y-73.0
X99.2Y-74.2
X100.0Y-98.2
X100.2Y-109.4
X100.6Y-115.2
X102.4Y-118.4
X102.6Y-111.8
X104.6Y-83.0
X108.0Y-114.0
X109.0Y-117.0
X113.6Y-69.6
X113.6Y-71.8
X114.2Y-85.6
X117.0Y-94.6
X118.0Y-99.0
X119.0Y-92.6
X124.0Y-46.4
X145.0Y-109.6
X149.0Y-63.0
T2
X91.6Y-100.32
X91.6Y-110.48
X95.555Y-113.2
X97.555Y-113.2
X101.92Y-105.6
X103.32Y-98.2
X106.0Y-65.12
X106.0Y-75.28
X110.2Y-78.8
X112.0Y-113.0
X112.0Y-115.0
X112.08Y-105.6
X113.48Y-98.2
X120.36Y-78.8
X158.6Y-51.72
X158.6Y-61.88
T3
X89.0Y-51.11
X89.0Y-53.65
X89.0Y-56.19
X89.0Y-58.73
X89.0Y-61.27
X89.0Y-63.81
X89.0Y-66.35
X89.0Y-68.89
X89.0Y-76.92
X89.0Y-79.46
X89.0Y-82.0
X89.0Y-88.46
X89.0Y-91.0
X89.0Y-93.54
X100.42Y-94.5
X101.8Y-85.26
X101.8Y-87.8
X101.8Y-90.34
X102.96Y-94.5
X105.5Y-94.5
X110.0Y-85.26
X110.0Y-87.8
X110.0Y-90.34
X127.11Y-53.87
X127.11Y-56.41
X127.11Y-58.95
X127.11Y-61.49
X127.11Y-64.03
X127.11Y-66.57
X127.11Y-69.11
X127.11Y-71.65
X127.11Y-74.19
X127.11Y-76.73
X127.11Y-79.27
X127.11Y-81.81
X127.11Y-84.35
X127.11Y-86.89
X127.11Y-89.43
X127.11Y-91.97
X127.11Y-94.51
X127.11Y-97.05
X127.11Y-99.59
X127.11Y-102.13
X144.89Y-53.87
X144.89Y-56.41
X144.89Y-58.95
X144.89Y-61.49
X144.89Y-64.03
X144.89Y-66.57
X144.89Y-69.11
X144.89Y-71.65
X144.89Y-74.19
X144.89Y-76.73
X144.89Y-79.27
X144.89Y-81.81
X144.89Y-84.35
X144.89Y-86.89
X144.89Y-89.43
X144.89Y-91.97
X144.89Y-94.51
X144.89Y-97.05
X144.89Y-99.59
X144.89Y-102.13
X153.46Y-46.385
X156.0Y-46.385
X158.54Y-46.385
T4
X123.46Y-115.46
X126.0Y-115.46
X134.7Y-113.3
X134.7Y-117.8
X141.2Y-113.3
X141.2Y-117.8
X153.75Y-71.75
X153.75Y-76.25
X153.75Y-89.75
X153.75Y-94.25
X160.25Y-71.75
X160.25Y-76.25
X160.25Y-89.75
X160.25Y-94.25
M30
