ISO-10303-21;
HEADER;
/* Generated by software containing ST-Developer
 * from STEP Tools, Inc. (www.steptools.com) 
 */
/* OPTION: using custom renumber hook */

FILE_DESCRIPTION(
/* description */ ('STEP AP242 Edition 2',
'CAx-IF Rec.Pracs.---Representation and Presentation of Product Manufa
cturing Information (PMI)---4.0---2014-10-13',
'CAx-IF Rec.Pracs.---3D Tessellated Geometry---0.4---2014-09-14','2;1',
'CAx-IF Rec.Pracs.---User Defined Attributes---1.5---2016-08-15'),
/* implementation_level */ '2;1');

FILE_NAME(
/* name */ 'Part Studio 1 - TMat2O',
/* time_stamp */ '2026-05-20T23:41:51Z',
/* author */ (''),
/* organization */ (''),
/* preprocessor_version */ 'ST-DEVELOPER v20',
/* originating_system */ 'ONSHAPE BY PTC INC, 1.215',
/* authorisation */ '  ');

FILE_SCHEMA (('AP242_MANAGED_MODEL_BASED_3D_ENGINEERING_MIM_LF { 1 0 10303 442 3 1 4 }'));
ENDSEC;

DATA;
#10=SHAPE_REPRESENTATION_RELATIONSHIP('','',#514,#11);
#11=ADVANCED_BREP_SHAPE_REPRESENTATION('',(#512),#820);
#12=PLANE('',#519);
#13=PLANE('',#520);
#14=PLANE('',#521);
#15=PLANE('',#522);
#16=PLANE('',#523);
#17=PLANE('',#524);
#18=PLANE('',#525);
#19=PLANE('',#526);
#20=PLANE('',#527);
#21=PLANE('',#528);
#22=PLANE('',#529);
#23=PLANE('',#530);
#24=PLANE('',#534);
#25=PLANE('',#535);
#26=PLANE('',#536);
#27=PLANE('',#537);
#28=PLANE('',#541);
#29=PLANE('',#542);
#30=PLANE('',#543);
#31=PLANE('',#544);
#32=PLANE('',#545);
#33=PLANE('',#546);
#34=PLANE('',#547);
#35=PLANE('',#548);
#36=CIRCLE('',#517,0.002);
#37=CIRCLE('',#518,0.002);
#38=CIRCLE('',#532,0.00515);
#39=CIRCLE('',#533,0.00515);
#40=CIRCLE('',#539,0.00515);
#41=CIRCLE('',#540,0.00515);
#42=ORIENTED_EDGE('',*,*,#176,.F.);
#43=ORIENTED_EDGE('',*,*,#177,.F.);
#44=ORIENTED_EDGE('',*,*,#178,.F.);
#45=ORIENTED_EDGE('',*,*,#179,.F.);
#46=ORIENTED_EDGE('',*,*,#180,.F.);
#47=ORIENTED_EDGE('',*,*,#181,.F.);
#48=ORIENTED_EDGE('',*,*,#182,.F.);
#49=ORIENTED_EDGE('',*,*,#183,.F.);
#50=ORIENTED_EDGE('',*,*,#184,.T.);
#51=ORIENTED_EDGE('',*,*,#185,.T.);
#52=ORIENTED_EDGE('',*,*,#186,.T.);
#53=ORIENTED_EDGE('',*,*,#187,.T.);
#54=ORIENTED_EDGE('',*,*,#188,.F.);
#55=ORIENTED_EDGE('',*,*,#189,.F.);
#56=ORIENTED_EDGE('',*,*,#190,.T.);
#57=ORIENTED_EDGE('',*,*,#191,.T.);
#58=ORIENTED_EDGE('',*,*,#192,.T.);
#59=ORIENTED_EDGE('',*,*,#176,.T.);
#60=ORIENTED_EDGE('',*,*,#193,.F.);
#61=ORIENTED_EDGE('',*,*,#194,.F.);
#62=ORIENTED_EDGE('',*,*,#195,.F.);
#63=ORIENTED_EDGE('',*,*,#196,.T.);
#64=ORIENTED_EDGE('',*,*,#185,.F.);
#65=ORIENTED_EDGE('',*,*,#197,.T.);
#66=ORIENTED_EDGE('',*,*,#188,.T.);
#67=ORIENTED_EDGE('',*,*,#198,.T.);
#68=ORIENTED_EDGE('',*,*,#199,.T.);
#69=ORIENTED_EDGE('',*,*,#200,.F.);
#70=ORIENTED_EDGE('',*,*,#201,.F.);
#71=ORIENTED_EDGE('',*,*,#202,.T.);
#72=ORIENTED_EDGE('',*,*,#203,.T.);
#73=ORIENTED_EDGE('',*,*,#204,.F.);
#74=ORIENTED_EDGE('',*,*,#205,.F.);
#75=ORIENTED_EDGE('',*,*,#206,.T.);
#76=ORIENTED_EDGE('',*,*,#207,.T.);
#77=ORIENTED_EDGE('',*,*,#186,.F.);
#78=ORIENTED_EDGE('',*,*,#208,.F.);
#79=ORIENTED_EDGE('',*,*,#209,.F.);
#80=ORIENTED_EDGE('',*,*,#210,.F.);
#81=ORIENTED_EDGE('',*,*,#211,.T.);
#82=ORIENTED_EDGE('',*,*,#212,.F.);
#83=ORIENTED_EDGE('',*,*,#181,.T.);
#84=ORIENTED_EDGE('',*,*,#213,.T.);
#85=ORIENTED_EDGE('',*,*,#214,.F.);
#86=ORIENTED_EDGE('',*,*,#184,.F.);
#87=ORIENTED_EDGE('',*,*,#215,.T.);
#88=ORIENTED_EDGE('',*,*,#216,.T.);
#89=ORIENTED_EDGE('',*,*,#210,.T.);
#90=ORIENTED_EDGE('',*,*,#217,.F.);
#91=ORIENTED_EDGE('',*,*,#218,.T.);
#92=ORIENTED_EDGE('',*,*,#189,.T.);
#93=ORIENTED_EDGE('',*,*,#197,.F.);
#94=ORIENTED_EDGE('',*,*,#219,.F.);
#95=ORIENTED_EDGE('',*,*,#220,.T.);
#96=ORIENTED_EDGE('',*,*,#221,.T.);
#97=ORIENTED_EDGE('',*,*,#222,.F.);
#98=ORIENTED_EDGE('',*,*,#193,.T.);
#99=ORIENTED_EDGE('',*,*,#179,.T.);
#100=ORIENTED_EDGE('',*,*,#223,.F.);
#101=ORIENTED_EDGE('',*,*,#220,.F.);
#102=ORIENTED_EDGE('',*,*,#224,.T.);
#103=ORIENTED_EDGE('',*,*,#202,.F.);
#104=ORIENTED_EDGE('',*,*,#225,.T.);
#105=ORIENTED_EDGE('',*,*,#223,.T.);
#106=ORIENTED_EDGE('',*,*,#178,.T.);
#107=ORIENTED_EDGE('',*,*,#226,.F.);
#108=ORIENTED_EDGE('',*,*,#221,.F.);
#109=ORIENTED_EDGE('',*,*,#226,.T.);
#110=ORIENTED_EDGE('',*,*,#177,.T.);
#111=ORIENTED_EDGE('',*,*,#192,.F.);
#112=ORIENTED_EDGE('',*,*,#227,.F.);
#113=ORIENTED_EDGE('',*,*,#204,.T.);
#114=ORIENTED_EDGE('',*,*,#228,.F.);
#115=ORIENTED_EDGE('',*,*,#222,.T.);
#116=ORIENTED_EDGE('',*,*,#203,.F.);
#117=ORIENTED_EDGE('',*,*,#224,.F.);
#118=ORIENTED_EDGE('',*,*,#219,.T.);
#119=ORIENTED_EDGE('',*,*,#228,.T.);
#120=ORIENTED_EDGE('',*,*,#212,.T.);
#121=ORIENTED_EDGE('',*,*,#229,.F.);
#122=ORIENTED_EDGE('',*,*,#230,.F.);
#123=ORIENTED_EDGE('',*,*,#182,.T.);
#124=ORIENTED_EDGE('',*,*,#211,.F.);
#125=ORIENTED_EDGE('',*,*,#216,.F.);
#126=ORIENTED_EDGE('',*,*,#231,.T.);
#127=ORIENTED_EDGE('',*,*,#229,.T.);
#128=ORIENTED_EDGE('',*,*,#232,.T.);
#129=ORIENTED_EDGE('',*,*,#233,.T.);
#130=ORIENTED_EDGE('',*,*,#232,.F.);
#131=ORIENTED_EDGE('',*,*,#183,.T.);
#132=ORIENTED_EDGE('',*,*,#230,.T.);
#133=ORIENTED_EDGE('',*,*,#231,.F.);
#134=ORIENTED_EDGE('',*,*,#215,.F.);
#135=ORIENTED_EDGE('',*,*,#233,.F.);
#136=ORIENTED_EDGE('',*,*,#209,.T.);
#137=ORIENTED_EDGE('',*,*,#234,.F.);
#138=ORIENTED_EDGE('',*,*,#235,.F.);
#139=ORIENTED_EDGE('',*,*,#217,.T.);
#140=ORIENTED_EDGE('',*,*,#208,.T.);
#141=ORIENTED_EDGE('',*,*,#191,.F.);
#142=ORIENTED_EDGE('',*,*,#236,.F.);
#143=ORIENTED_EDGE('',*,*,#234,.T.);
#144=ORIENTED_EDGE('',*,*,#237,.T.);
#145=ORIENTED_EDGE('',*,*,#238,.T.);
#146=ORIENTED_EDGE('',*,*,#218,.F.);
#147=ORIENTED_EDGE('',*,*,#235,.T.);
#148=ORIENTED_EDGE('',*,*,#236,.T.);
#149=ORIENTED_EDGE('',*,*,#190,.F.);
#150=ORIENTED_EDGE('',*,*,#237,.F.);
#151=ORIENTED_EDGE('',*,*,#238,.F.);
#152=ORIENTED_EDGE('',*,*,#205,.T.);
#153=ORIENTED_EDGE('',*,*,#227,.T.);
#154=ORIENTED_EDGE('',*,*,#200,.T.);
#155=ORIENTED_EDGE('',*,*,#239,.F.);
#156=ORIENTED_EDGE('',*,*,#240,.T.);
#157=ORIENTED_EDGE('',*,*,#198,.F.);
#158=ORIENTED_EDGE('',*,*,#187,.F.);
#159=ORIENTED_EDGE('',*,*,#207,.F.);
#160=ORIENTED_EDGE('',*,*,#239,.T.);
#161=ORIENTED_EDGE('',*,*,#199,.F.);
#162=ORIENTED_EDGE('',*,*,#240,.F.);
#163=ORIENTED_EDGE('',*,*,#206,.F.);
#164=ORIENTED_EDGE('',*,*,#201,.T.);
#165=ORIENTED_EDGE('',*,*,#241,.T.);
#166=ORIENTED_EDGE('',*,*,#194,.T.);
#167=ORIENTED_EDGE('',*,*,#225,.F.);
#168=ORIENTED_EDGE('',*,*,#214,.T.);
#169=ORIENTED_EDGE('',*,*,#242,.T.);
#170=ORIENTED_EDGE('',*,*,#195,.T.);
#171=ORIENTED_EDGE('',*,*,#241,.F.);
#172=ORIENTED_EDGE('',*,*,#180,.T.);
#173=ORIENTED_EDGE('',*,*,#196,.F.);
#174=ORIENTED_EDGE('',*,*,#242,.F.);
#175=ORIENTED_EDGE('',*,*,#213,.F.);
#176=EDGE_CURVE('',#243,#244,#289,.T.);
#177=EDGE_CURVE('',#245,#243,#36,.T.);
#178=EDGE_CURVE('',#246,#245,#290,.F.);
#179=EDGE_CURVE('',#244,#246,#37,.F.);
#180=EDGE_CURVE('',#247,#248,#291,.T.);
#181=EDGE_CURVE('',#249,#247,#292,.T.);
#182=EDGE_CURVE('',#250,#249,#293,.T.);
#183=EDGE_CURVE('',#251,#250,#294,.T.);
#184=EDGE_CURVE('',#251,#252,#295,.T.);
#185=EDGE_CURVE('',#252,#248,#296,.T.);
#186=EDGE_CURVE('',#253,#254,#297,.T.);
#187=EDGE_CURVE('',#254,#255,#298,.T.);
#188=EDGE_CURVE('',#256,#255,#299,.T.);
#189=EDGE_CURVE('',#257,#256,#300,.T.);
#190=EDGE_CURVE('',#257,#258,#301,.T.);
#191=EDGE_CURVE('',#258,#253,#302,.T.);
#192=EDGE_CURVE('',#259,#243,#303,.T.);
#193=EDGE_CURVE('',#260,#244,#304,.T.);
#194=EDGE_CURVE('',#261,#260,#305,.T.);
#195=EDGE_CURVE('',#262,#261,#306,.T.);
#196=EDGE_CURVE('',#262,#248,#307,.T.);
#197=EDGE_CURVE('',#252,#256,#308,.T.);
#198=EDGE_CURVE('',#255,#263,#309,.T.);
#199=EDGE_CURVE('',#263,#264,#310,.T.);
#200=EDGE_CURVE('',#259,#264,#311,.T.);
#201=EDGE_CURVE('',#265,#266,#312,.T.);
#202=EDGE_CURVE('',#265,#267,#313,.T.);
#203=EDGE_CURVE('',#267,#268,#314,.T.);
#204=EDGE_CURVE('',#269,#268,#315,.T.);
#205=EDGE_CURVE('',#270,#269,#316,.T.);
#206=EDGE_CURVE('',#270,#271,#317,.T.);
#207=EDGE_CURVE('',#271,#254,#318,.T.);
#208=EDGE_CURVE('',#272,#253,#319,.T.);
#209=EDGE_CURVE('',#273,#272,#320,.T.);
#210=EDGE_CURVE('',#274,#273,#321,.T.);
#211=EDGE_CURVE('',#274,#275,#322,.T.);
#212=EDGE_CURVE('',#249,#275,#323,.T.);
#213=EDGE_CURVE('',#247,#276,#324,.T.);
#214=EDGE_CURVE('',#266,#276,#325,.T.);
#215=EDGE_CURVE('',#251,#277,#326,.T.);
#216=EDGE_CURVE('',#277,#274,#327,.T.);
#217=EDGE_CURVE('',#278,#273,#328,.T.);
#218=EDGE_CURVE('',#278,#257,#329,.T.);
#219=EDGE_CURVE('',#279,#280,#330,.T.);
#220=EDGE_CURVE('',#279,#281,#331,.T.);
#221=EDGE_CURVE('',#281,#282,#332,.T.);
#222=EDGE_CURVE('',#280,#282,#333,.T.);
#223=EDGE_CURVE('',#281,#246,#334,.T.);
#224=EDGE_CURVE('',#279,#267,#335,.T.);
#225=EDGE_CURVE('',#265,#260,#336,.T.);
#226=EDGE_CURVE('',#282,#245,#337,.T.);
#227=EDGE_CURVE('',#269,#259,#338,.T.);
#228=EDGE_CURVE('',#280,#268,#339,.T.);
#229=EDGE_CURVE('',#283,#275,#340,.T.);
#230=EDGE_CURVE('',#250,#283,#341,.T.);
#231=EDGE_CURVE('',#277,#283,#342,.T.);
#232=EDGE_CURVE('',#284,#284,#38,.T.);
#233=EDGE_CURVE('',#285,#285,#39,.F.);
#234=EDGE_CURVE('',#286,#272,#343,.T.);
#235=EDGE_CURVE('',#278,#286,#344,.T.);
#236=EDGE_CURVE('',#286,#258,#345,.T.);
#237=EDGE_CURVE('',#287,#287,#40,.T.);
#238=EDGE_CURVE('',#288,#288,#41,.F.);
#239=EDGE_CURVE('',#270,#264,#346,.T.);
#240=EDGE_CURVE('',#271,#263,#347,.T.);
#241=EDGE_CURVE('',#266,#261,#348,.T.);
#242=EDGE_CURVE('',#276,#262,#349,.T.);
#243=VERTEX_POINT('',#681);
#244=VERTEX_POINT('',#682);
#245=VERTEX_POINT('',#684);
#246=VERTEX_POINT('',#686);
#247=VERTEX_POINT('',#690);
#248=VERTEX_POINT('',#691);
#249=VERTEX_POINT('',#693);
#250=VERTEX_POINT('',#695);
#251=VERTEX_POINT('',#697);
#252=VERTEX_POINT('',#699);
#253=VERTEX_POINT('',#703);
#254=VERTEX_POINT('',#704);
#255=VERTEX_POINT('',#706);
#256=VERTEX_POINT('',#708);
#257=VERTEX_POINT('',#710);
#258=VERTEX_POINT('',#712);
#259=VERTEX_POINT('',#716);
#260=VERTEX_POINT('',#718);
#261=VERTEX_POINT('',#720);
#262=VERTEX_POINT('',#722);
#263=VERTEX_POINT('',#726);
#264=VERTEX_POINT('',#728);
#265=VERTEX_POINT('',#732);
#266=VERTEX_POINT('',#733);
#267=VERTEX_POINT('',#735);
#268=VERTEX_POINT('',#737);
#269=VERTEX_POINT('',#739);
#270=VERTEX_POINT('',#741);
#271=VERTEX_POINT('',#743);
#272=VERTEX_POINT('',#746);
#273=VERTEX_POINT('',#748);
#274=VERTEX_POINT('',#750);
#275=VERTEX_POINT('',#752);
#276=VERTEX_POINT('',#755);
#277=VERTEX_POINT('',#759);
#278=VERTEX_POINT('',#762);
#279=VERTEX_POINT('',#766);
#280=VERTEX_POINT('',#767);
#281=VERTEX_POINT('',#769);
#282=VERTEX_POINT('',#771);
#283=VERTEX_POINT('',#785);
#284=VERTEX_POINT('',#791);
#285=VERTEX_POINT('',#793);
#286=VERTEX_POINT('',#798);
#287=VERTEX_POINT('',#804);
#288=VERTEX_POINT('',#806);
#289=LINE('',#680,#350);
#290=LINE('',#685,#351);
#291=LINE('',#689,#352);
#292=LINE('',#692,#353);
#293=LINE('',#694,#354);
#294=LINE('',#696,#355);
#295=LINE('',#698,#356);
#296=LINE('',#700,#357);
#297=LINE('',#702,#358);
#298=LINE('',#705,#359);
#299=LINE('',#707,#360);
#300=LINE('',#709,#361);
#301=LINE('',#711,#362);
#302=LINE('',#713,#363);
#303=LINE('',#715,#364);
#304=LINE('',#717,#365);
#305=LINE('',#719,#366);
#306=LINE('',#721,#367);
#307=LINE('',#723,#368);
#308=LINE('',#724,#369);
#309=LINE('',#725,#370);
#310=LINE('',#727,#371);
#311=LINE('',#729,#372);
#312=LINE('',#731,#373);
#313=LINE('',#734,#374);
#314=LINE('',#736,#375);
#315=LINE('',#738,#376);
#316=LINE('',#740,#377);
#317=LINE('',#742,#378);
#318=LINE('',#744,#379);
#319=LINE('',#745,#380);
#320=LINE('',#747,#381);
#321=LINE('',#749,#382);
#322=LINE('',#751,#383);
#323=LINE('',#753,#384);
#324=LINE('',#754,#385);
#325=LINE('',#756,#386);
#326=LINE('',#758,#387);
#327=LINE('',#760,#388);
#328=LINE('',#761,#389);
#329=LINE('',#763,#390);
#330=LINE('',#765,#391);
#331=LINE('',#768,#392);
#332=LINE('',#770,#393);
#333=LINE('',#772,#394);
#334=LINE('',#774,#395);
#335=LINE('',#775,#396);
#336=LINE('',#776,#397);
#337=LINE('',#778,#398);
#338=LINE('',#780,#399);
#339=LINE('',#781,#400);
#340=LINE('',#784,#401);
#341=LINE('',#786,#402);
#342=LINE('',#788,#403);
#343=LINE('',#797,#404);
#344=LINE('',#799,#405);
#345=LINE('',#801,#406);
#346=LINE('',#810,#407);
#347=LINE('',#812,#408);
#348=LINE('',#815,#409);
#349=LINE('',#817,#410);
#350=VECTOR('',#553,1.);
#351=VECTOR('',#556,1.);
#352=VECTOR('',#561,1.);
#353=VECTOR('',#562,1.);
#354=VECTOR('',#563,1.);
#355=VECTOR('',#564,1.);
#356=VECTOR('',#565,1.);
#357=VECTOR('',#566,1.);
#358=VECTOR('',#569,1.);
#359=VECTOR('',#570,1.);
#360=VECTOR('',#571,1.);
#361=VECTOR('',#572,1.);
#362=VECTOR('',#573,1.);
#363=VECTOR('',#574,1.);
#364=VECTOR('',#577,1.);
#365=VECTOR('',#578,1.);
#366=VECTOR('',#579,1.);
#367=VECTOR('',#580,1.);
#368=VECTOR('',#581,1.);
#369=VECTOR('',#582,1.);
#370=VECTOR('',#583,1.);
#371=VECTOR('',#584,1.);
#372=VECTOR('',#585,1.);
#373=VECTOR('',#588,1.);
#374=VECTOR('',#589,1.);
#375=VECTOR('',#590,1.);
#376=VECTOR('',#591,1.);
#377=VECTOR('',#592,1.);
#378=VECTOR('',#593,1.);
#379=VECTOR('',#594,1.);
#380=VECTOR('',#595,1.);
#381=VECTOR('',#596,1.);
#382=VECTOR('',#597,1.);
#383=VECTOR('',#598,1.);
#384=VECTOR('',#599,1.);
#385=VECTOR('',#600,1.);
#386=VECTOR('',#601,1.);
#387=VECTOR('',#604,1.);
#388=VECTOR('',#605,1.);
#389=VECTOR('',#606,1.);
#390=VECTOR('',#607,1.);
#391=VECTOR('',#610,1.);
#392=VECTOR('',#611,1.);
#393=VECTOR('',#612,1.);
#394=VECTOR('',#613,1.);
#395=VECTOR('',#616,1.);
#396=VECTOR('',#617,1.);
#397=VECTOR('',#618,1.);
#398=VECTOR('',#621,1.);
#399=VECTOR('',#624,1.);
#400=VECTOR('',#625,1.);
#401=VECTOR('',#630,1.);
#402=VECTOR('',#631,1.);
#403=VECTOR('',#634,1.);
#404=VECTOR('',#647,1.);
#405=VECTOR('',#648,1.);
#406=VECTOR('',#651,1.);
#407=VECTOR('',#664,1.);
#408=VECTOR('',#667,1.);
#409=VECTOR('',#672,1.);
#410=VECTOR('',#675,1.);
#411=EDGE_LOOP('',(#42,#43,#44,#45));
#412=EDGE_LOOP('',(#46,#47,#48,#49,#50,#51));
#413=EDGE_LOOP('',(#52,#53,#54,#55,#56,#57));
#414=EDGE_LOOP('',(#58,#59,#60,#61,#62,#63,#64,#65,#66,#67,#68,#69));
#415=EDGE_LOOP('',(#70,#71,#72,#73,#74,#75,#76,#77,#78,#79,#80,#81,#82,
#83,#84,#85));
#416=EDGE_LOOP('',(#86,#87,#88,#89,#90,#91,#92,#93));
#417=EDGE_LOOP('',(#94,#95,#96,#97));
#418=EDGE_LOOP('',(#98,#99,#100,#101,#102,#103,#104));
#419=EDGE_LOOP('',(#105,#106,#107,#108));
#420=EDGE_LOOP('',(#109,#110,#111,#112,#113,#114,#115));
#421=EDGE_LOOP('',(#116,#117,#118,#119));
#422=EDGE_LOOP('',(#120,#121,#122,#123));
#423=EDGE_LOOP('',(#124,#125,#126,#127));
#424=EDGE_LOOP('',(#128));
#425=EDGE_LOOP('',(#129));
#426=EDGE_LOOP('',(#130));
#427=EDGE_LOOP('',(#131,#132,#133,#134));
#428=EDGE_LOOP('',(#135));
#429=EDGE_LOOP('',(#136,#137,#138,#139));
#430=EDGE_LOOP('',(#140,#141,#142,#143));
#431=EDGE_LOOP('',(#144));
#432=EDGE_LOOP('',(#145));
#433=EDGE_LOOP('',(#146,#147,#148,#149));
#434=EDGE_LOOP('',(#150));
#435=EDGE_LOOP('',(#151));
#436=EDGE_LOOP('',(#152,#153,#154,#155));
#437=EDGE_LOOP('',(#156,#157,#158,#159));
#438=EDGE_LOOP('',(#160,#161,#162,#163));
#439=EDGE_LOOP('',(#164,#165,#166,#167));
#440=EDGE_LOOP('',(#168,#169,#170,#171));
#441=EDGE_LOOP('',(#172,#173,#174,#175));
#442=FACE_BOUND('',#411,.T.);
#443=FACE_BOUND('',#412,.T.);
#444=FACE_BOUND('',#413,.T.);
#445=FACE_BOUND('',#414,.T.);
#446=FACE_BOUND('',#415,.T.);
#447=FACE_BOUND('',#416,.T.);
#448=FACE_BOUND('',#417,.T.);
#449=FACE_BOUND('',#418,.T.);
#450=FACE_BOUND('',#419,.T.);
#451=FACE_BOUND('',#420,.T.);
#452=FACE_BOUND('',#421,.T.);
#453=FACE_BOUND('',#422,.T.);
#454=FACE_BOUND('',#423,.T.);
#455=FACE_BOUND('',#424,.T.);
#456=FACE_BOUND('',#425,.T.);
#457=FACE_BOUND('',#426,.T.);
#458=FACE_BOUND('',#427,.T.);
#459=FACE_BOUND('',#428,.T.);
#460=FACE_BOUND('',#429,.T.);
#461=FACE_BOUND('',#430,.T.);
#462=FACE_BOUND('',#431,.T.);
#463=FACE_BOUND('',#432,.T.);
#464=FACE_BOUND('',#433,.T.);
#465=FACE_BOUND('',#434,.T.);
#466=FACE_BOUND('',#435,.T.);
#467=FACE_BOUND('',#436,.T.);
#468=FACE_BOUND('',#437,.T.);
#469=FACE_BOUND('',#438,.T.);
#470=FACE_BOUND('',#439,.T.);
#471=FACE_BOUND('',#440,.T.);
#472=FACE_BOUND('',#441,.T.);
#473=CYLINDRICAL_SURFACE('',#516,0.002);
#474=CYLINDRICAL_SURFACE('',#531,0.00515);
#475=CYLINDRICAL_SURFACE('',#538,0.00515);
#476=ADVANCED_FACE('',(#442),#473,.T.);
#477=ADVANCED_FACE('',(#443),#12,.F.);
#478=ADVANCED_FACE('',(#444),#13,.T.);
#479=ADVANCED_FACE('',(#445),#14,.F.);
#480=ADVANCED_FACE('',(#446),#15,.T.);
#481=ADVANCED_FACE('',(#447),#16,.T.);
#482=ADVANCED_FACE('',(#448),#17,.T.);
#483=ADVANCED_FACE('',(#449),#18,.F.);
#484=ADVANCED_FACE('',(#450),#19,.F.);
#485=ADVANCED_FACE('',(#451),#20,.T.);
#486=ADVANCED_FACE('',(#452),#21,.T.);
#487=ADVANCED_FACE('',(#453),#22,.F.);
#488=ADVANCED_FACE('',(#454),#23,.T.);
#489=ADVANCED_FACE('',(#455,#456),#474,.F.);
#490=ADVANCED_FACE('',(#457,#458),#24,.T.);
#491=ADVANCED_FACE('',(#459),#25,.T.);
#492=ADVANCED_FACE('',(#460),#26,.F.);
#493=ADVANCED_FACE('',(#461),#27,.F.);
#494=ADVANCED_FACE('',(#462,#463),#475,.F.);
#495=ADVANCED_FACE('',(#464,#465),#28,.T.);
#496=ADVANCED_FACE('',(#466),#29,.T.);
#497=ADVANCED_FACE('',(#467),#30,.F.);
#498=ADVANCED_FACE('',(#468),#31,.T.);
#499=ADVANCED_FACE('',(#469),#32,.T.);
#500=ADVANCED_FACE('',(#470),#33,.F.);
#501=ADVANCED_FACE('',(#471),#34,.F.);
#502=ADVANCED_FACE('',(#472),#35,.T.);
#503=CLOSED_SHELL('',(#476,#477,#478,#479,#480,#481,#482,#483,#484,#485,
#486,#487,#488,#489,#490,#491,#492,#493,#494,#495,#496,#497,#498,#499,#500,
#501,#502));
#504=STYLED_ITEM('',(#505),#512);
#505=PRESENTATION_STYLE_ASSIGNMENT((#506));
#506=SURFACE_STYLE_USAGE(.BOTH.,#507);
#507=SURFACE_SIDE_STYLE('',(#508));
#508=SURFACE_STYLE_FILL_AREA(#509);
#509=FILL_AREA_STYLE('',(#510));
#510=FILL_AREA_STYLE_COLOUR('',#511);
#511=COLOUR_RGB('',0.768627450980392,0.886274509803922,0.952941176470588);
#512=MANIFOLD_SOLID_BREP('TMat2O',#503);
#513=SHAPE_DEFINITION_REPRESENTATION(#825,#514);
#514=SHAPE_REPRESENTATION('TMat2O',(#515),#820);
#515=AXIS2_PLACEMENT_3D('',#678,#549,#550);
#516=AXIS2_PLACEMENT_3D('',#679,#551,#552);
#517=AXIS2_PLACEMENT_3D('',#683,#554,#555);
#518=AXIS2_PLACEMENT_3D('',#687,#557,#558);
#519=AXIS2_PLACEMENT_3D('',#688,#559,#560);
#520=AXIS2_PLACEMENT_3D('',#701,#567,#568);
#521=AXIS2_PLACEMENT_3D('',#714,#575,#576);
#522=AXIS2_PLACEMENT_3D('',#730,#586,#587);
#523=AXIS2_PLACEMENT_3D('',#757,#602,#603);
#524=AXIS2_PLACEMENT_3D('',#764,#608,#609);
#525=AXIS2_PLACEMENT_3D('',#773,#614,#615);
#526=AXIS2_PLACEMENT_3D('',#777,#619,#620);
#527=AXIS2_PLACEMENT_3D('',#779,#622,#623);
#528=AXIS2_PLACEMENT_3D('',#782,#626,#627);
#529=AXIS2_PLACEMENT_3D('',#783,#628,#629);
#530=AXIS2_PLACEMENT_3D('',#787,#632,#633);
#531=AXIS2_PLACEMENT_3D('',#789,#635,#636);
#532=AXIS2_PLACEMENT_3D('',#790,#637,#638);
#533=AXIS2_PLACEMENT_3D('',#792,#639,#640);
#534=AXIS2_PLACEMENT_3D('',#794,#641,#642);
#535=AXIS2_PLACEMENT_3D('',#795,#643,#644);
#536=AXIS2_PLACEMENT_3D('',#796,#645,#646);
#537=AXIS2_PLACEMENT_3D('',#800,#649,#650);
#538=AXIS2_PLACEMENT_3D('',#802,#652,#653);
#539=AXIS2_PLACEMENT_3D('',#803,#654,#655);
#540=AXIS2_PLACEMENT_3D('',#805,#656,#657);
#541=AXIS2_PLACEMENT_3D('',#807,#658,#659);
#542=AXIS2_PLACEMENT_3D('',#808,#660,#661);
#543=AXIS2_PLACEMENT_3D('',#809,#662,#663);
#544=AXIS2_PLACEMENT_3D('',#811,#665,#666);
#545=AXIS2_PLACEMENT_3D('',#813,#668,#669);
#546=AXIS2_PLACEMENT_3D('',#814,#670,#671);
#547=AXIS2_PLACEMENT_3D('',#816,#673,#674);
#548=AXIS2_PLACEMENT_3D('',#818,#676,#677);
#549=DIRECTION('',(0.,0.,1.));
#550=DIRECTION('',(1.,0.,0.));
#551=DIRECTION('',(-1.,0.,0.));
#552=DIRECTION('',(0.,0.,1.));
#553=DIRECTION('',(-1.,0.,0.));
#554=DIRECTION('',(1.,0.,0.));
#555=DIRECTION('',(0.,0.,-1.));
#556=DIRECTION('',(-1.,0.,0.));
#557=DIRECTION('',(1.,0.,0.));
#558=DIRECTION('',(0.,0.,-1.));
#559=DIRECTION('',(1.,0.,0.));
#560=DIRECTION('',(0.,0.,-1.));
#561=DIRECTION('',(0.,0.,-1.));
#562=DIRECTION('',(0.,-1.,0.));
#563=DIRECTION('',(0.,0.,-1.));
#564=DIRECTION('',(0.,-1.,0.));
#565=DIRECTION('',(0.,0.,-1.));
#566=DIRECTION('',(0.,-1.,0.));
#567=DIRECTION('',(1.,0.,0.));
#568=DIRECTION('',(0.,0.,-1.));
#569=DIRECTION('',(0.,-1.,0.));
#570=DIRECTION('',(0.,0.,-1.));
#571=DIRECTION('',(0.,-1.,0.));
#572=DIRECTION('',(0.,0.,-1.));
#573=DIRECTION('',(4.44089209850064E-15,-1.,0.));
#574=DIRECTION('',(0.,0.,-1.));
#575=DIRECTION('',(0.,0.,1.));
#576=DIRECTION('',(1.,0.,0.));
#577=DIRECTION('',(0.,-1.,0.));
#578=DIRECTION('',(0.,-1.,0.));
#579=DIRECTION('',(-1.,-3.46944695195362E-16,0.));
#580=DIRECTION('',(0.,-1.,0.));
#581=DIRECTION('',(-1.,-3.46944695195362E-16,0.));
#582=DIRECTION('',(1.,0.,0.));
#583=DIRECTION('',(-1.,-3.46944695195362E-16,0.));
#584=DIRECTION('',(0.,-1.,0.));
#585=DIRECTION('',(-1.,-3.46944695195362E-16,0.));
#586=DIRECTION('',(0.,0.,1.));
#587=DIRECTION('',(1.,0.,0.));
#588=DIRECTION('',(1.,3.46944695195362E-16,0.));
#589=DIRECTION('',(0.,-1.,0.));
#590=DIRECTION('',(1.,0.,0.));
#591=DIRECTION('',(0.,-1.,0.));
#592=DIRECTION('',(1.,3.46944695195362E-16,0.));
#593=DIRECTION('',(0.,1.,0.));
#594=DIRECTION('',(1.,3.46944695195362E-16,0.));
#595=DIRECTION('',(1.,0.,0.));
#596=DIRECTION('',(0.,-1.,0.));
#597=DIRECTION('',(1.,0.,0.));
#598=DIRECTION('',(0.,-1.,0.));
#599=DIRECTION('',(1.,0.,0.));
#600=DIRECTION('',(1.,3.46944695195362E-16,0.));
#601=DIRECTION('',(0.,1.,0.));
#602=DIRECTION('',(0.,1.,0.));
#603=DIRECTION('',(0.,0.,1.));
#604=DIRECTION('',(1.,0.,0.));
#605=DIRECTION('',(0.,0.,-1.));
#606=DIRECTION('',(0.,0.,-1.));
#607=DIRECTION('',(1.,2.22044604925031E-15,0.));
#608=DIRECTION('',(0.,0.,1.));
#609=DIRECTION('',(1.,0.,0.));
#610=DIRECTION('',(1.,0.,0.));
#611=DIRECTION('',(0.,-1.,0.));
#612=DIRECTION('',(1.,0.,0.));
#613=DIRECTION('',(0.,-1.,0.));
#614=DIRECTION('',(1.,0.,0.));
#615=DIRECTION('',(0.,0.,-1.));
#616=DIRECTION('',(0.,0.,-1.));
#617=DIRECTION('',(0.,0.,-1.));
#618=DIRECTION('',(0.,0.,-1.));
#619=DIRECTION('',(0.,1.,0.));
#620=DIRECTION('',(0.,0.,1.));
#621=DIRECTION('',(0.,0.,-1.));
#622=DIRECTION('',(1.,0.,0.));
#623=DIRECTION('',(0.,0.,-1.));
#624=DIRECTION('',(0.,0.,-1.));
#625=DIRECTION('',(0.,0.,-1.));
#626=DIRECTION('',(0.,1.,0.));
#627=DIRECTION('',(0.,0.,1.));
#628=DIRECTION('',(0.,1.,0.));
#629=DIRECTION('',(0.,0.,1.));
#630=DIRECTION('',(0.,0.,-1.));
#631=DIRECTION('',(1.,0.,0.));
#632=DIRECTION('',(1.,0.,0.));
#633=DIRECTION('',(0.,0.,-1.));
#634=DIRECTION('',(0.,-1.,0.));
#635=DIRECTION('',(0.,0.,-1.));
#636=DIRECTION('',(-1.,0.,0.));
#637=DIRECTION('',(0.,0.,1.));
#638=DIRECTION('',(1.,0.,0.));
#639=DIRECTION('',(0.,0.,1.));
#640=DIRECTION('',(1.,0.,0.));
#641=DIRECTION('',(0.,0.,1.));
#642=DIRECTION('',(1.,0.,0.));
#643=DIRECTION('',(0.,0.,1.));
#644=DIRECTION('',(1.,0.,0.));
#645=DIRECTION('',(1.,0.,0.));
#646=DIRECTION('',(0.,0.,-1.));
#647=DIRECTION('',(0.,0.,-1.));
#648=DIRECTION('',(0.,-1.,0.));
#649=DIRECTION('',(0.,1.,0.));
#650=DIRECTION('',(0.,0.,1.));
#651=DIRECTION('',(1.,0.,0.));
#652=DIRECTION('',(0.,0.,-1.));
#653=DIRECTION('',(-1.,0.,0.));
#654=DIRECTION('',(0.,0.,1.));
#655=DIRECTION('',(1.,0.,0.));
#656=DIRECTION('',(0.,0.,1.));
#657=DIRECTION('',(1.,0.,0.));
#658=DIRECTION('',(0.,0.,1.));
#659=DIRECTION('',(1.,0.,0.));
#660=DIRECTION('',(0.,0.,1.));
#661=DIRECTION('',(1.,0.,0.));
#662=DIRECTION('',(3.46944695195362E-16,-1.,0.));
#663=DIRECTION('',(1.,3.46944695195362E-16,0.));
#664=DIRECTION('',(0.,0.,-1.));
#665=DIRECTION('',(3.46944695195362E-16,-1.,0.));
#666=DIRECTION('',(1.,3.46944695195362E-16,0.));
#667=DIRECTION('',(0.,0.,-1.));
#668=DIRECTION('',(1.,0.,0.));
#669=DIRECTION('',(0.,0.,-1.));
#670=DIRECTION('',(3.46944695195362E-16,-1.,0.));
#671=DIRECTION('',(1.,3.46944695195362E-16,0.));
#672=DIRECTION('',(0.,0.,-1.));
#673=DIRECTION('',(1.,0.,0.));
#674=DIRECTION('',(0.,0.,-1.));
#675=DIRECTION('',(0.,0.,-1.));
#676=DIRECTION('',(3.46944695195362E-16,-1.,0.));
#677=DIRECTION('',(1.,3.46944695195362E-16,0.));
#678=CARTESIAN_POINT('',(0.,0.,0.));
#679=CARTESIAN_POINT('',(-0.646396789386985,0.246124473775879,0.002));
#680=CARTESIAN_POINT('',(-0.646396789386985,0.246124473775879,0.));
#681=CARTESIAN_POINT('',(-0.506396789386985,0.246124473775879,0.));
#682=CARTESIAN_POINT('',(-0.746396789386985,0.246124473775879,0.));
#683=CARTESIAN_POINT('',(-0.506396789386985,0.246124473775879,0.002));
#684=CARTESIAN_POINT('',(-0.506396789386985,0.244124473775879,0.002));
#685=CARTESIAN_POINT('',(-0.626396789386985,0.244124473775879,0.002));
#686=CARTESIAN_POINT('',(-0.746396789386985,0.244124473775879,0.002));
#687=CARTESIAN_POINT('',(-0.746396789386985,0.246124473775879,0.002));
#688=CARTESIAN_POINT('',(-0.746396789386985,0.294124473775878,0.008));
#689=CARTESIAN_POINT('',(-0.746396789386985,0.257124473775878,0.008));
#690=CARTESIAN_POINT('',(-0.746396789386985,0.257124473775878,0.002));
#691=CARTESIAN_POINT('',(-0.746396789386985,0.257124473775878,0.));
#692=CARTESIAN_POINT('',(-0.746396789386985,0.294124473775878,0.002));
#693=CARTESIAN_POINT('',(-0.746396789386985,0.319124473775879,0.002));
#694=CARTESIAN_POINT('',(-0.746396789386985,0.319124473775879,0.017));
#695=CARTESIAN_POINT('',(-0.746396789386985,0.319124473775879,0.017));
#696=CARTESIAN_POINT('',(-0.746396789386985,0.331624473775879,0.017));
#697=CARTESIAN_POINT('',(-0.746396789386985,0.344124473775879,0.017));
#698=CARTESIAN_POINT('',(-0.746396789386985,0.344124473775879,0.008));
#699=CARTESIAN_POINT('',(-0.746396789386985,0.344124473775879,0.));
#700=CARTESIAN_POINT('',(-0.746396789386985,0.294124473775878,0.));
#701=CARTESIAN_POINT('',(-0.506396789386985,0.294124473775878,0.008));
#702=CARTESIAN_POINT('',(-0.506396789386985,0.294124473775878,0.002));
#703=CARTESIAN_POINT('',(-0.506396789386985,0.319124473775879,0.002));
#704=CARTESIAN_POINT('',(-0.506396789386985,0.257124473775878,0.002));
#705=CARTESIAN_POINT('',(-0.506396789386985,0.257124473775878,0.008));
#706=CARTESIAN_POINT('',(-0.506396789386985,0.257124473775878,0.));
#707=CARTESIAN_POINT('',(-0.506396789386985,0.294124473775878,0.));
#708=CARTESIAN_POINT('',(-0.506396789386985,0.344124473775878,0.));
#709=CARTESIAN_POINT('',(-0.506396789386985,0.344124473775878,0.008));
#710=CARTESIAN_POINT('',(-0.506396789386985,0.344124473775879,0.017));
#711=CARTESIAN_POINT('',(-0.506396789386985,0.331624473775879,0.017));
#712=CARTESIAN_POINT('',(-0.506396789386984,0.319124473775879,0.017));
#713=CARTESIAN_POINT('',(-0.506396789386984,0.319124473775879,0.017));
#714=CARTESIAN_POINT('',(-0.646396789386985,0.419124473775878,0.));
#715=CARTESIAN_POINT('',(-0.506396789386985,0.294124473775878,0.));
#716=CARTESIAN_POINT('',(-0.506396789386985,0.252124473775878,0.));
#717=CARTESIAN_POINT('',(-0.746396789386985,0.294124473775878,0.));
#718=CARTESIAN_POINT('',(-0.746396789386985,0.252124473775878,0.));
#719=CARTESIAN_POINT('',(-0.746396789386985,0.252124473775878,0.));
#720=CARTESIAN_POINT('',(-0.666396789386985,0.252124473775878,0.));
#721=CARTESIAN_POINT('',(-0.666396789386985,0.254624473775878,0.));
#722=CARTESIAN_POINT('',(-0.666396789386985,0.257124473775878,0.));
#723=CARTESIAN_POINT('',(-0.746396789386985,0.257124473775878,0.));
#724=CARTESIAN_POINT('',(-0.626396789386985,0.344124473775879,0.));
#725=CARTESIAN_POINT('',(-0.506396789386985,0.257124473775878,0.));
#726=CARTESIAN_POINT('',(-0.586396789386985,0.257124473775878,0.));
#727=CARTESIAN_POINT('',(-0.586396789386985,0.254624473775878,0.));
#728=CARTESIAN_POINT('',(-0.586396789386985,0.252124473775878,0.));
#729=CARTESIAN_POINT('',(-0.506396789386985,0.252124473775878,0.));
#730=CARTESIAN_POINT('',(-0.646396789386985,0.419124473775878,0.002));
#731=CARTESIAN_POINT('',(-0.646396789386984,0.252124473775878,0.002));
#732=CARTESIAN_POINT('',(-0.746396789386985,0.252124473775878,0.002));
#733=CARTESIAN_POINT('',(-0.666396789386985,0.252124473775878,0.002));
#734=CARTESIAN_POINT('',(-0.746396789386985,0.294124473775878,0.002));
#735=CARTESIAN_POINT('',(-0.746396789386985,0.246124473775879,0.002));
#736=CARTESIAN_POINT('',(-0.626396789386985,0.246124473775879,0.002));
#737=CARTESIAN_POINT('',(-0.506396789386985,0.246124473775879,0.002));
#738=CARTESIAN_POINT('',(-0.506396789386985,0.294124473775878,0.002));
#739=CARTESIAN_POINT('',(-0.506396789386985,0.252124473775878,0.002));
#740=CARTESIAN_POINT('',(-0.646396789386984,0.252124473775878,0.002));
#741=CARTESIAN_POINT('',(-0.586396789386985,0.252124473775878,0.002));
#742=CARTESIAN_POINT('',(-0.586396789386985,0.419124473775878,0.002));
#743=CARTESIAN_POINT('',(-0.586396789386985,0.257124473775878,0.002));
#744=CARTESIAN_POINT('',(-0.646396789386984,0.257124473775878,0.002));
#745=CARTESIAN_POINT('',(-0.518896789386985,0.319124473775879,0.002));
#746=CARTESIAN_POINT('',(-0.531396789386985,0.319124473775879,0.002));
#747=CARTESIAN_POINT('',(-0.531396789386985,0.331624473775879,0.002));
#748=CARTESIAN_POINT('',(-0.531396789386985,0.344124473775879,0.002));
#749=CARTESIAN_POINT('',(-0.626396789386985,0.344124473775879,0.002));
#750=CARTESIAN_POINT('',(-0.721396789386985,0.344124473775879,0.002));
#751=CARTESIAN_POINT('',(-0.721396789386985,0.331624473775879,0.002));
#752=CARTESIAN_POINT('',(-0.721396789386985,0.319124473775879,0.002));
#753=CARTESIAN_POINT('',(-0.733896789386985,0.319124473775879,0.002));
#754=CARTESIAN_POINT('',(-0.646396789386984,0.257124473775878,0.002));
#755=CARTESIAN_POINT('',(-0.666396789386985,0.257124473775878,0.002));
#756=CARTESIAN_POINT('',(-0.666396789386985,0.419124473775878,0.002));
#757=CARTESIAN_POINT('',(-0.626396789386985,0.344124473775879,0.008));
#758=CARTESIAN_POINT('',(-0.733896789386985,0.344124473775879,0.017));
#759=CARTESIAN_POINT('',(-0.721396789386985,0.344124473775879,0.017));
#760=CARTESIAN_POINT('',(-0.721396789386985,0.344124473775879,0.017));
#761=CARTESIAN_POINT('',(-0.531396789386985,0.344124473775878,0.017));
#762=CARTESIAN_POINT('',(-0.531396789386985,0.344124473775878,0.017));
#763=CARTESIAN_POINT('',(-0.518896789386985,0.344124473775879,0.017));
#764=CARTESIAN_POINT('',(-0.646396789386985,0.419124473775878,0.008));
#765=CARTESIAN_POINT('',(-0.626396789386985,0.246124473775879,0.008));
#766=CARTESIAN_POINT('',(-0.746396789386985,0.246124473775879,0.008));
#767=CARTESIAN_POINT('',(-0.506396789386985,0.246124473775879,0.008));
#768=CARTESIAN_POINT('',(-0.746396789386985,0.294124473775878,0.008));
#769=CARTESIAN_POINT('',(-0.746396789386985,0.244124473775879,0.008));
#770=CARTESIAN_POINT('',(-0.626396789386985,0.244124473775879,0.008));
#771=CARTESIAN_POINT('',(-0.506396789386985,0.244124473775879,0.008));
#772=CARTESIAN_POINT('',(-0.506396789386985,0.294124473775878,0.008));
#773=CARTESIAN_POINT('',(-0.746396789386985,0.294124473775878,0.008));
#774=CARTESIAN_POINT('',(-0.746396789386985,0.244124473775879,0.008));
#775=CARTESIAN_POINT('',(-0.746396789386985,0.246124473775879,0.008));
#776=CARTESIAN_POINT('',(-0.746396789386985,0.252124473775878,0.008));
#777=CARTESIAN_POINT('',(-0.626396789386985,0.244124473775879,0.008));
#778=CARTESIAN_POINT('',(-0.506396789386985,0.244124473775879,0.008));
#779=CARTESIAN_POINT('',(-0.506396789386985,0.294124473775878,0.008));
#780=CARTESIAN_POINT('',(-0.506396789386985,0.252124473775878,0.008));
#781=CARTESIAN_POINT('',(-0.506396789386985,0.246124473775879,0.008));
#782=CARTESIAN_POINT('',(-0.626396789386985,0.246124473775879,0.008));
#783=CARTESIAN_POINT('',(-0.733896789386985,0.319124473775879,0.017));
#784=CARTESIAN_POINT('',(-0.721396789386985,0.319124473775879,0.017));
#785=CARTESIAN_POINT('',(-0.721396789386985,0.319124473775879,0.017));
#786=CARTESIAN_POINT('',(-0.733896789386985,0.319124473775879,0.017));
#787=CARTESIAN_POINT('',(-0.721396789386985,0.331624473775879,0.017));
#788=CARTESIAN_POINT('',(-0.721396789386985,0.331624473775879,0.017));
#789=CARTESIAN_POINT('',(-0.736396789386985,0.334124473775879,0.017));
#790=CARTESIAN_POINT('',(-0.736396789386985,0.334124473775879,0.017));
#791=CARTESIAN_POINT('',(-0.731246789386985,0.334124473775879,0.017));
#792=CARTESIAN_POINT('',(-0.736396789386985,0.334124473775879,0.002));
#793=CARTESIAN_POINT('',(-0.731246789386985,0.334124473775879,0.002));
#794=CARTESIAN_POINT('',(-0.668896789386985,0.455624473775879,0.017));
#795=CARTESIAN_POINT('',(-0.646396789386985,0.419124473775878,0.002));
#796=CARTESIAN_POINT('',(-0.531396789386985,0.331624473775879,0.017));
#797=CARTESIAN_POINT('',(-0.531396789386985,0.319124473775879,0.017));
#798=CARTESIAN_POINT('',(-0.531396789386985,0.319124473775879,0.017));
#799=CARTESIAN_POINT('',(-0.531396789386985,0.331624473775879,0.017));
#800=CARTESIAN_POINT('',(-0.518896789386985,0.319124473775879,0.017));
#801=CARTESIAN_POINT('',(-0.518896789386985,0.319124473775879,0.017));
#802=CARTESIAN_POINT('',(-0.516396789386985,0.334124473775878,0.017));
#803=CARTESIAN_POINT('',(-0.516396789386985,0.334124473775878,0.017));
#804=CARTESIAN_POINT('',(-0.511246789386985,0.334124473775878,0.017));
#805=CARTESIAN_POINT('',(-0.516396789386985,0.334124473775878,0.002));
#806=CARTESIAN_POINT('',(-0.511246789386985,0.334124473775878,0.002));
#807=CARTESIAN_POINT('',(-0.668896789386985,0.455624473775879,0.017));
#808=CARTESIAN_POINT('',(-0.646396789386985,0.419124473775878,0.002));
#809=CARTESIAN_POINT('',(-0.506396789386985,0.252124473775878,0.025));
#810=CARTESIAN_POINT('',(-0.586396789386985,0.252124473775878,0.025));
#811=CARTESIAN_POINT('',(-0.506396789386985,0.257124473775878,0.025));
#812=CARTESIAN_POINT('',(-0.586396789386985,0.257124473775878,0.025));
#813=CARTESIAN_POINT('',(-0.586396789386985,0.254624473775878,0.025));
#814=CARTESIAN_POINT('',(-0.746396789386985,0.252124473775878,0.025));
#815=CARTESIAN_POINT('',(-0.666396789386985,0.252124473775878,0.025));
#816=CARTESIAN_POINT('',(-0.666396789386985,0.254624473775878,0.025));
#817=CARTESIAN_POINT('',(-0.666396789386985,0.257124473775878,0.025));
#818=CARTESIAN_POINT('',(-0.746396789386985,0.257124473775878,0.025));
#819=MECHANICAL_DESIGN_GEOMETRIC_PRESENTATION_REPRESENTATION('',(#504),
#820);
#820=(
GEOMETRIC_REPRESENTATION_CONTEXT(3)
GLOBAL_UNCERTAINTY_ASSIGNED_CONTEXT((#821))
GLOBAL_UNIT_ASSIGNED_CONTEXT((#824,#823,#822))
REPRESENTATION_CONTEXT('TMat2O','TOP_LEVEL_ASSEMBLY_PART')
);
#821=UNCERTAINTY_MEASURE_WITH_UNIT(LENGTH_MEASURE(1.E-8),#824,
'DISTANCE_ACCURACY_VALUE','Maximum Tolerance applied to model');
#822=(
NAMED_UNIT(*)
SI_UNIT($,.STERADIAN.)
SOLID_ANGLE_UNIT()
);
#823=(
NAMED_UNIT(*)
PLANE_ANGLE_UNIT()
SI_UNIT($,.RADIAN.)
);
#824=(
LENGTH_UNIT()
NAMED_UNIT(*)
SI_UNIT($,.METRE.)
);
#825=PRODUCT_DEFINITION_SHAPE('','',#826);
#826=PRODUCT_DEFINITION('','',#828,#827);
#827=PRODUCT_DEFINITION_CONTEXT('',#834,'design');
#828=PRODUCT_DEFINITION_FORMATION_WITH_SPECIFIED_SOURCE('','',#830,
 .NOT_KNOWN.);
#829=PRODUCT_RELATED_PRODUCT_CATEGORY('','',(#830));
#830=PRODUCT('TMat2O','TMat2O','TMat2O',(#832));
#831=PRODUCT_CATEGORY('','');
#832=PRODUCT_CONTEXT('',#834,'mechanical');
#833=APPLICATION_PROTOCOL_DEFINITION('international standard',
'ap242_managed_model_based_3d_engineering',2020,#834);
#834=APPLICATION_CONTEXT('managed model based 3d engineering');
ENDSEC;
END-ISO-10303-21;
