ISO-10303-21;
HEADER;
/* Generated by software containing ST-Developer
 * from STEP Tools, Inc. (www.steptools.com) 
 */
/* OPTION: using custom renumber hook */

FILE_DESCRIPTION(
/* description */ ('STEP AP242 Edition 2',
'CAx-IF Rec.Pracs.---Representation and Presentation of Product Manufa
cturing Information (PMI)---4.0---2014-10-13',
'CAx-IF Rec.Pracs.---3D Tessellated Geometry---0.4---2014-09-14','2;1',
'CAx-IF Rec.Pracs.---User Defined Attributes---1.5---2016-08-15'),
/* implementation_level */ '2;1');

FILE_NAME(
/* name */ 'Part Studio 1 - Config Button',
/* time_stamp */ '2026-05-20T23:41:51Z',
/* author */ (''),
/* organization */ (''),
/* preprocessor_version */ 'ST-DEVELOPER v20',
/* originating_system */ 'ONSHAPE BY PTC INC, 1.215',
/* authorisation */ '  ');

FILE_SCHEMA (('AP242_MANAGED_MODEL_BASED_3D_ENGINEERING_MIM_LF { 1 0 10303 442 3 1 4 }'));
ENDSEC;

DATA;
#10=SHAPE_REPRESENTATION_RELATIONSHIP('','',#345,#11);
#11=ADVANCED_BREP_SHAPE_REPRESENTATION('',(#343),#551);
#12=CYLINDRICAL_SURFACE('',#359,0.0025);
#13=CYLINDRICAL_SURFACE('',#364,0.0025);
#14=CIRCLE('',#348,0.0025);
#15=CIRCLE('',#349,0.0025);
#16=CIRCLE('',#360,0.0025);
#17=CIRCLE('',#365,0.0025);
#18=ORIENTED_EDGE('',*,*,#106,.T.);
#19=ORIENTED_EDGE('',*,*,#107,.T.);
#20=ORIENTED_EDGE('',*,*,#108,.T.);
#21=ORIENTED_EDGE('',*,*,#109,.T.);
#22=ORIENTED_EDGE('',*,*,#110,.T.);
#23=ORIENTED_EDGE('',*,*,#111,.T.);
#24=ORIENTED_EDGE('',*,*,#112,.T.);
#25=ORIENTED_EDGE('',*,*,#113,.T.);
#26=ORIENTED_EDGE('',*,*,#114,.T.);
#27=ORIENTED_EDGE('',*,*,#115,.T.);
#28=ORIENTED_EDGE('',*,*,#116,.T.);
#29=ORIENTED_EDGE('',*,*,#117,.T.);
#30=ORIENTED_EDGE('',*,*,#118,.T.);
#31=ORIENTED_EDGE('',*,*,#119,.T.);
#32=ORIENTED_EDGE('',*,*,#120,.F.);
#33=ORIENTED_EDGE('',*,*,#121,.T.);
#34=ORIENTED_EDGE('',*,*,#120,.T.);
#35=ORIENTED_EDGE('',*,*,#122,.T.);
#36=ORIENTED_EDGE('',*,*,#123,.F.);
#37=ORIENTED_EDGE('',*,*,#124,.F.);
#38=ORIENTED_EDGE('',*,*,#123,.T.);
#39=ORIENTED_EDGE('',*,*,#125,.T.);
#40=ORIENTED_EDGE('',*,*,#126,.F.);
#41=ORIENTED_EDGE('',*,*,#127,.F.);
#42=ORIENTED_EDGE('',*,*,#126,.T.);
#43=ORIENTED_EDGE('',*,*,#128,.T.);
#44=ORIENTED_EDGE('',*,*,#118,.F.);
#45=ORIENTED_EDGE('',*,*,#129,.T.);
#46=ORIENTED_EDGE('',*,*,#121,.F.);
#47=ORIENTED_EDGE('',*,*,#124,.T.);
#48=ORIENTED_EDGE('',*,*,#127,.T.);
#49=ORIENTED_EDGE('',*,*,#129,.F.);
#50=ORIENTED_EDGE('',*,*,#130,.F.);
#51=ORIENTED_EDGE('',*,*,#122,.F.);
#52=ORIENTED_EDGE('',*,*,#131,.F.);
#53=ORIENTED_EDGE('',*,*,#109,.F.);
#54=ORIENTED_EDGE('',*,*,#131,.T.);
#55=ORIENTED_EDGE('',*,*,#119,.F.);
#56=ORIENTED_EDGE('',*,*,#132,.F.);
#57=ORIENTED_EDGE('',*,*,#106,.F.);
#58=ORIENTED_EDGE('',*,*,#130,.T.);
#59=ORIENTED_EDGE('',*,*,#108,.F.);
#60=ORIENTED_EDGE('',*,*,#133,.F.);
#61=ORIENTED_EDGE('',*,*,#125,.F.);
#62=ORIENTED_EDGE('',*,*,#132,.T.);
#63=ORIENTED_EDGE('',*,*,#128,.F.);
#64=ORIENTED_EDGE('',*,*,#133,.T.);
#65=ORIENTED_EDGE('',*,*,#107,.F.);
#66=ORIENTED_EDGE('',*,*,#110,.F.);
#67=ORIENTED_EDGE('',*,*,#134,.F.);
#68=ORIENTED_EDGE('',*,*,#135,.T.);
#69=ORIENTED_EDGE('',*,*,#136,.T.);
#70=ORIENTED_EDGE('',*,*,#111,.F.);
#71=ORIENTED_EDGE('',*,*,#136,.F.);
#72=ORIENTED_EDGE('',*,*,#137,.T.);
#73=ORIENTED_EDGE('',*,*,#138,.T.);
#74=ORIENTED_EDGE('',*,*,#112,.F.);
#75=ORIENTED_EDGE('',*,*,#138,.F.);
#76=ORIENTED_EDGE('',*,*,#139,.T.);
#77=ORIENTED_EDGE('',*,*,#140,.T.);
#78=ORIENTED_EDGE('',*,*,#113,.F.);
#79=ORIENTED_EDGE('',*,*,#140,.F.);
#80=ORIENTED_EDGE('',*,*,#141,.T.);
#81=ORIENTED_EDGE('',*,*,#142,.T.);
#82=ORIENTED_EDGE('',*,*,#114,.F.);
#83=ORIENTED_EDGE('',*,*,#142,.F.);
#84=ORIENTED_EDGE('',*,*,#143,.T.);
#85=ORIENTED_EDGE('',*,*,#144,.T.);
#86=ORIENTED_EDGE('',*,*,#115,.F.);
#87=ORIENTED_EDGE('',*,*,#144,.F.);
#88=ORIENTED_EDGE('',*,*,#145,.T.);
#89=ORIENTED_EDGE('',*,*,#146,.T.);
#90=ORIENTED_EDGE('',*,*,#116,.F.);
#91=ORIENTED_EDGE('',*,*,#146,.F.);
#92=ORIENTED_EDGE('',*,*,#147,.T.);
#93=ORIENTED_EDGE('',*,*,#148,.T.);
#94=ORIENTED_EDGE('',*,*,#117,.F.);
#95=ORIENTED_EDGE('',*,*,#148,.F.);
#96=ORIENTED_EDGE('',*,*,#149,.T.);
#97=ORIENTED_EDGE('',*,*,#134,.T.);
#98=ORIENTED_EDGE('',*,*,#135,.F.);
#99=ORIENTED_EDGE('',*,*,#149,.F.);
#100=ORIENTED_EDGE('',*,*,#147,.F.);
#101=ORIENTED_EDGE('',*,*,#145,.F.);
#102=ORIENTED_EDGE('',*,*,#143,.F.);
#103=ORIENTED_EDGE('',*,*,#141,.F.);
#104=ORIENTED_EDGE('',*,*,#139,.F.);
#105=ORIENTED_EDGE('',*,*,#137,.F.);
#106=EDGE_CURVE('',#150,#151,#178,.T.);
#107=EDGE_CURVE('',#151,#152,#179,.T.);
#108=EDGE_CURVE('',#152,#153,#180,.T.);
#109=EDGE_CURVE('',#153,#150,#181,.T.);
#110=EDGE_CURVE('',#154,#155,#14,.T.);
#111=EDGE_CURVE('',#155,#156,#182,.T.);
#112=EDGE_CURVE('',#156,#157,#183,.T.);
#113=EDGE_CURVE('',#157,#158,#184,.T.);
#114=EDGE_CURVE('',#158,#159,#15,.T.);
#115=EDGE_CURVE('',#159,#160,#185,.T.);
#116=EDGE_CURVE('',#160,#161,#186,.T.);
#117=EDGE_CURVE('',#161,#154,#187,.T.);
#118=EDGE_CURVE('',#162,#163,#188,.T.);
#119=EDGE_CURVE('',#163,#164,#189,.T.);
#120=EDGE_CURVE('',#165,#164,#190,.T.);
#121=EDGE_CURVE('',#165,#162,#191,.T.);
#122=EDGE_CURVE('',#164,#166,#192,.T.);
#123=EDGE_CURVE('',#167,#166,#193,.T.);
#124=EDGE_CURVE('',#165,#167,#194,.T.);
#125=EDGE_CURVE('',#166,#168,#195,.T.);
#126=EDGE_CURVE('',#169,#168,#196,.T.);
#127=EDGE_CURVE('',#167,#169,#197,.T.);
#128=EDGE_CURVE('',#168,#163,#198,.T.);
#129=EDGE_CURVE('',#162,#169,#199,.T.);
#130=EDGE_CURVE('',#166,#153,#200,.T.);
#131=EDGE_CURVE('',#150,#164,#201,.T.);
#132=EDGE_CURVE('',#151,#163,#202,.F.);
#133=EDGE_CURVE('',#168,#152,#203,.T.);
#134=EDGE_CURVE('',#170,#154,#204,.T.);
#135=EDGE_CURVE('',#170,#171,#16,.T.);
#136=EDGE_CURVE('',#171,#155,#205,.T.);
#137=EDGE_CURVE('',#171,#172,#206,.T.);
#138=EDGE_CURVE('',#172,#156,#207,.T.);
#139=EDGE_CURVE('',#172,#173,#208,.T.);
#140=EDGE_CURVE('',#173,#157,#209,.T.);
#141=EDGE_CURVE('',#173,#174,#210,.T.);
#142=EDGE_CURVE('',#174,#158,#211,.T.);
#143=EDGE_CURVE('',#174,#175,#17,.T.);
#144=EDGE_CURVE('',#175,#159,#212,.T.);
#145=EDGE_CURVE('',#175,#176,#213,.T.);
#146=EDGE_CURVE('',#176,#160,#214,.T.);
#147=EDGE_CURVE('',#176,#177,#215,.T.);
#148=EDGE_CURVE('',#177,#161,#216,.T.);
#149=EDGE_CURVE('',#177,#170,#217,.T.);
#150=VERTEX_POINT('',#461);
#151=VERTEX_POINT('',#462);
#152=VERTEX_POINT('',#464);
#153=VERTEX_POINT('',#466);
#154=VERTEX_POINT('',#469);
#155=VERTEX_POINT('',#470);
#156=VERTEX_POINT('',#472);
#157=VERTEX_POINT('',#474);
#158=VERTEX_POINT('',#476);
#159=VERTEX_POINT('',#478);
#160=VERTEX_POINT('',#480);
#161=VERTEX_POINT('',#482);
#162=VERTEX_POINT('',#486);
#163=VERTEX_POINT('',#487);
#164=VERTEX_POINT('',#489);
#165=VERTEX_POINT('',#491);
#166=VERTEX_POINT('',#495);
#167=VERTEX_POINT('',#497);
#168=VERTEX_POINT('',#501);
#169=VERTEX_POINT('',#503);
#170=VERTEX_POINT('',#519);
#171=VERTEX_POINT('',#521);
#172=VERTEX_POINT('',#525);
#173=VERTEX_POINT('',#529);
#174=VERTEX_POINT('',#533);
#175=VERTEX_POINT('',#537);
#176=VERTEX_POINT('',#541);
#177=VERTEX_POINT('',#545);
#178=LINE('',#460,#218);
#179=LINE('',#463,#219);
#180=LINE('',#465,#220);
#181=LINE('',#467,#221);
#182=LINE('',#471,#222);
#183=LINE('',#473,#223);
#184=LINE('',#475,#224);
#185=LINE('',#479,#225);
#186=LINE('',#481,#226);
#187=LINE('',#483,#227);
#188=LINE('',#485,#228);
#189=LINE('',#488,#229);
#190=LINE('',#490,#230);
#191=LINE('',#492,#231);
#192=LINE('',#494,#232);
#193=LINE('',#496,#233);
#194=LINE('',#498,#234);
#195=LINE('',#500,#235);
#196=LINE('',#502,#236);
#197=LINE('',#504,#237);
#198=LINE('',#506,#238);
#199=LINE('',#507,#239);
#200=LINE('',#510,#240);
#201=LINE('',#511,#241);
#202=LINE('',#513,#242);
#203=LINE('',#515,#243);
#204=LINE('',#518,#244);
#205=LINE('',#522,#245);
#206=LINE('',#524,#246);
#207=LINE('',#526,#247);
#208=LINE('',#528,#248);
#209=LINE('',#530,#249);
#210=LINE('',#532,#250);
#211=LINE('',#534,#251);
#212=LINE('',#538,#252);
#213=LINE('',#540,#253);
#214=LINE('',#542,#254);
#215=LINE('',#544,#255);
#216=LINE('',#546,#256);
#217=LINE('',#548,#257);
#218=VECTOR('',#374,1.);
#219=VECTOR('',#375,1.);
#220=VECTOR('',#376,1.);
#221=VECTOR('',#377,1.);
#222=VECTOR('',#380,1.);
#223=VECTOR('',#381,1.);
#224=VECTOR('',#382,1.);
#225=VECTOR('',#385,1.);
#226=VECTOR('',#386,1.);
#227=VECTOR('',#387,1.);
#228=VECTOR('',#390,1.);
#229=VECTOR('',#391,1.);
#230=VECTOR('',#392,1.);
#231=VECTOR('',#393,1.);
#232=VECTOR('',#396,1.);
#233=VECTOR('',#397,1.);
#234=VECTOR('',#398,1.);
#235=VECTOR('',#401,1.);
#236=VECTOR('',#402,1.);
#237=VECTOR('',#403,1.);
#238=VECTOR('',#406,1.);
#239=VECTOR('',#407,1.);
#240=VECTOR('',#412,1.);
#241=VECTOR('',#413,1.);
#242=VECTOR('',#416,1.);
#243=VECTOR('',#419,1.);
#244=VECTOR('',#424,1.);
#245=VECTOR('',#427,1.);
#246=VECTOR('',#430,1.);
#247=VECTOR('',#431,1.);
#248=VECTOR('',#434,1.);
#249=VECTOR('',#435,1.);
#250=VECTOR('',#438,1.);
#251=VECTOR('',#439,1.);
#252=VECTOR('',#444,1.);
#253=VECTOR('',#447,1.);
#254=VECTOR('',#448,1.);
#255=VECTOR('',#451,1.);
#256=VECTOR('',#452,1.);
#257=VECTOR('',#455,1.);
#258=EDGE_LOOP('',(#18,#19,#20,#21));
#259=EDGE_LOOP('',(#22,#23,#24,#25,#26,#27,#28,#29));
#260=EDGE_LOOP('',(#30,#31,#32,#33));
#261=EDGE_LOOP('',(#34,#35,#36,#37));
#262=EDGE_LOOP('',(#38,#39,#40,#41));
#263=EDGE_LOOP('',(#42,#43,#44,#45));
#264=EDGE_LOOP('',(#46,#47,#48,#49));
#265=EDGE_LOOP('',(#50,#51,#52,#53));
#266=EDGE_LOOP('',(#54,#55,#56,#57));
#267=EDGE_LOOP('',(#58,#59,#60,#61));
#268=EDGE_LOOP('',(#62,#63,#64,#65));
#269=EDGE_LOOP('',(#66,#67,#68,#69));
#270=EDGE_LOOP('',(#70,#71,#72,#73));
#271=EDGE_LOOP('',(#74,#75,#76,#77));
#272=EDGE_LOOP('',(#78,#79,#80,#81));
#273=EDGE_LOOP('',(#82,#83,#84,#85));
#274=EDGE_LOOP('',(#86,#87,#88,#89));
#275=EDGE_LOOP('',(#90,#91,#92,#93));
#276=EDGE_LOOP('',(#94,#95,#96,#97));
#277=EDGE_LOOP('',(#98,#99,#100,#101,#102,#103,#104,#105));
#278=FACE_BOUND('',#258,.T.);
#279=FACE_BOUND('',#259,.T.);
#280=FACE_BOUND('',#260,.T.);
#281=FACE_BOUND('',#261,.T.);
#282=FACE_BOUND('',#262,.T.);
#283=FACE_BOUND('',#263,.T.);
#284=FACE_BOUND('',#264,.T.);
#285=FACE_BOUND('',#265,.T.);
#286=FACE_BOUND('',#266,.T.);
#287=FACE_BOUND('',#267,.T.);
#288=FACE_BOUND('',#268,.T.);
#289=FACE_BOUND('',#269,.T.);
#290=FACE_BOUND('',#270,.T.);
#291=FACE_BOUND('',#271,.T.);
#292=FACE_BOUND('',#272,.T.);
#293=FACE_BOUND('',#273,.T.);
#294=FACE_BOUND('',#274,.T.);
#295=FACE_BOUND('',#275,.T.);
#296=FACE_BOUND('',#276,.T.);
#297=FACE_BOUND('',#277,.T.);
#298=PLANE('',#347);
#299=PLANE('',#350);
#300=PLANE('',#351);
#301=PLANE('',#352);
#302=PLANE('',#353);
#303=PLANE('',#354);
#304=PLANE('',#355);
#305=PLANE('',#356);
#306=PLANE('',#357);
#307=PLANE('',#358);
#308=PLANE('',#361);
#309=PLANE('',#362);
#310=PLANE('',#363);
#311=PLANE('',#366);
#312=PLANE('',#367);
#313=PLANE('',#368);
#314=PLANE('',#369);
#315=ADVANCED_FACE('',(#278,#279),#298,.F.);
#316=ADVANCED_FACE('',(#280),#299,.T.);
#317=ADVANCED_FACE('',(#281),#300,.F.);
#318=ADVANCED_FACE('',(#282),#301,.F.);
#319=ADVANCED_FACE('',(#283),#302,.T.);
#320=ADVANCED_FACE('',(#284),#303,.T.);
#321=ADVANCED_FACE('',(#285),#304,.F.);
#322=ADVANCED_FACE('',(#286),#305,.T.);
#323=ADVANCED_FACE('',(#287),#306,.F.);
#324=ADVANCED_FACE('',(#288),#307,.T.);
#325=ADVANCED_FACE('',(#289),#12,.F.);
#326=ADVANCED_FACE('',(#290),#308,.T.);
#327=ADVANCED_FACE('',(#291),#309,.T.);
#328=ADVANCED_FACE('',(#292),#310,.T.);
#329=ADVANCED_FACE('',(#293),#13,.F.);
#330=ADVANCED_FACE('',(#294),#311,.T.);
#331=ADVANCED_FACE('',(#295),#312,.T.);
#332=ADVANCED_FACE('',(#296),#313,.T.);
#333=ADVANCED_FACE('',(#297),#314,.F.);
#334=CLOSED_SHELL('',(#315,#316,#317,#318,#319,#320,#321,#322,#323,#324,
#325,#326,#327,#328,#329,#330,#331,#332,#333));
#335=STYLED_ITEM('',(#336),#343);
#336=PRESENTATION_STYLE_ASSIGNMENT((#337));
#337=SURFACE_STYLE_USAGE(.BOTH.,#338);
#338=SURFACE_SIDE_STYLE('',(#339));
#339=SURFACE_STYLE_FILL_AREA(#340);
#340=FILL_AREA_STYLE('',(#341));
#341=FILL_AREA_STYLE_COLOUR('',#342);
#342=COLOUR_RGB('',0.972549019607843,0.529411764705882,0.00392156862745098);
#343=MANIFOLD_SOLID_BREP('Config Button',#334);
#344=SHAPE_DEFINITION_REPRESENTATION(#556,#345);
#345=SHAPE_REPRESENTATION('Config Button',(#346),#551);
#346=AXIS2_PLACEMENT_3D('',#458,#370,#371);
#347=AXIS2_PLACEMENT_3D('',#459,#372,#373);
#348=AXIS2_PLACEMENT_3D('',#468,#378,#379);
#349=AXIS2_PLACEMENT_3D('',#477,#383,#384);
#350=AXIS2_PLACEMENT_3D('',#484,#388,#389);
#351=AXIS2_PLACEMENT_3D('',#493,#394,#395);
#352=AXIS2_PLACEMENT_3D('',#499,#399,#400);
#353=AXIS2_PLACEMENT_3D('',#505,#404,#405);
#354=AXIS2_PLACEMENT_3D('',#508,#408,#409);
#355=AXIS2_PLACEMENT_3D('',#509,#410,#411);
#356=AXIS2_PLACEMENT_3D('',#512,#414,#415);
#357=AXIS2_PLACEMENT_3D('',#514,#417,#418);
#358=AXIS2_PLACEMENT_3D('',#516,#420,#421);
#359=AXIS2_PLACEMENT_3D('',#517,#422,#423);
#360=AXIS2_PLACEMENT_3D('',#520,#425,#426);
#361=AXIS2_PLACEMENT_3D('',#523,#428,#429);
#362=AXIS2_PLACEMENT_3D('',#527,#432,#433);
#363=AXIS2_PLACEMENT_3D('',#531,#436,#437);
#364=AXIS2_PLACEMENT_3D('',#535,#440,#441);
#365=AXIS2_PLACEMENT_3D('',#536,#442,#443);
#366=AXIS2_PLACEMENT_3D('',#539,#445,#446);
#367=AXIS2_PLACEMENT_3D('',#543,#449,#450);
#368=AXIS2_PLACEMENT_3D('',#547,#453,#454);
#369=AXIS2_PLACEMENT_3D('',#549,#456,#457);
#370=DIRECTION('',(0.,0.,1.));
#371=DIRECTION('',(1.,0.,0.));
#372=DIRECTION('',(0.,0.,1.));
#373=DIRECTION('',(1.,0.,0.));
#374=DIRECTION('',(1.,0.,0.));
#375=DIRECTION('',(0.,-1.,0.));
#376=DIRECTION('',(-1.,0.,0.));
#377=DIRECTION('',(0.,1.,0.));
#378=DIRECTION('',(0.,0.,1.));
#379=DIRECTION('',(1.,0.,0.));
#380=DIRECTION('',(0.670883039807882,-0.741563177954607,0.));
#381=DIRECTION('',(0.741563177954584,0.670883039807908,0.));
#382=DIRECTION('',(-0.670883039807915,0.741563177954577,0.));
#383=DIRECTION('',(0.,0.,1.));
#384=DIRECTION('',(1.,0.,0.));
#385=DIRECTION('',(-0.670883039807932,0.741563177954562,0.));
#386=DIRECTION('',(-0.741563177954594,-0.670883039807896,0.));
#387=DIRECTION('',(0.670883039807901,-0.74156317795459,0.));
#388=DIRECTION('',(0.,1.,0.));
#389=DIRECTION('',(0.,0.,1.));
#390=DIRECTION('',(0.,0.,-1.));
#391=DIRECTION('',(-1.,0.,0.));
#392=DIRECTION('',(0.,0.,-1.));
#393=DIRECTION('',(1.,0.,0.));
#394=DIRECTION('',(1.,0.,0.));
#395=DIRECTION('',(0.,0.,-1.));
#396=DIRECTION('',(0.,-1.,0.));
#397=DIRECTION('',(0.,0.,-1.));
#398=DIRECTION('',(0.,-1.,0.));
#399=DIRECTION('',(0.,1.,0.));
#400=DIRECTION('',(0.,0.,1.));
#401=DIRECTION('',(1.,0.,0.));
#402=DIRECTION('',(0.,0.,-1.));
#403=DIRECTION('',(1.,0.,0.));
#404=DIRECTION('',(1.,0.,0.));
#405=DIRECTION('',(0.,0.,-1.));
#406=DIRECTION('',(0.,1.,0.));
#407=DIRECTION('',(0.,-1.,0.));
#408=DIRECTION('',(0.,0.,1.));
#409=DIRECTION('',(1.,0.,0.));
#410=DIRECTION('',(0.894427190999916,0.,0.447213595499959));
#411=DIRECTION('',(0.,-1.,0.));
#412=DIRECTION('',(0.408248290463864,0.408248290463864,-0.816496580927726));
#413=DIRECTION('',(-0.408248290463864,0.408248290463864,0.816496580927726));
#414=DIRECTION('',(0.,0.894427190999916,-0.447213595499959));
#415=DIRECTION('',(-1.,0.,0.));
#416=DIRECTION('',(-0.408248290463864,-0.408248290463864,-0.816496580927726));
#417=DIRECTION('',(0.,0.894427190999916,0.447213595499959));
#418=DIRECTION('',(1.,0.,0.));
#419=DIRECTION('',(-0.408248290463864,0.408248290463864,-0.816496580927726));
#420=DIRECTION('',(0.894427190999916,0.,-0.447213595499959));
#421=DIRECTION('',(0.,1.,0.));
#422=DIRECTION('',(0.,0.,-1.));
#423=DIRECTION('',(-1.,0.,0.));
#424=DIRECTION('',(0.,0.,-1.));
#425=DIRECTION('',(0.,0.,1.));
#426=DIRECTION('',(1.,0.,0.));
#427=DIRECTION('',(0.,0.,-1.));
#428=DIRECTION('',(0.741563177954607,0.670883039807882,0.));
#429=DIRECTION('',(-0.670883039807882,0.741563177954607,0.));
#430=DIRECTION('',(0.670883039807882,-0.741563177954607,0.));
#431=DIRECTION('',(0.,0.,-1.));
#432=DIRECTION('',(-0.670883039807908,0.741563177954584,0.));
#433=DIRECTION('',(-0.741563177954584,-0.670883039807908,0.));
#434=DIRECTION('',(0.741563177954584,0.670883039807908,0.));
#435=DIRECTION('',(0.,0.,-1.));
#436=DIRECTION('',(-0.741563177954577,-0.670883039807915,0.));
#437=DIRECTION('',(0.670883039807915,-0.741563177954577,0.));
#438=DIRECTION('',(-0.670883039807915,0.741563177954577,0.));
#439=DIRECTION('',(0.,0.,-1.));
#440=DIRECTION('',(0.,0.,-1.));
#441=DIRECTION('',(-1.,0.,0.));
#442=DIRECTION('',(0.,0.,1.));
#443=DIRECTION('',(1.,0.,0.));
#444=DIRECTION('',(0.,0.,-1.));
#445=DIRECTION('',(-0.741563177954562,-0.670883039807932,0.));
#446=DIRECTION('',(0.670883039807932,-0.741563177954562,0.));
#447=DIRECTION('',(-0.670883039807932,0.741563177954562,0.));
#448=DIRECTION('',(0.,0.,-1.));
#449=DIRECTION('',(0.670883039807896,-0.741563177954594,0.));
#450=DIRECTION('',(0.741563177954594,0.670883039807896,0.));
#451=DIRECTION('',(-0.741563177954594,-0.670883039807896,0.));
#452=DIRECTION('',(0.,0.,-1.));
#453=DIRECTION('',(0.74156317795459,0.670883039807901,0.));
#454=DIRECTION('',(-0.670883039807901,0.74156317795459,0.));
#455=DIRECTION('',(0.670883039807901,-0.74156317795459,0.));
#456=DIRECTION('',(0.,0.,1.));
#457=DIRECTION('',(1.,0.,0.));
#458=CARTESIAN_POINT('',(0.,0.,0.));
#459=CARTESIAN_POINT('',(-0.0616736940725536,-0.0688652148425581,0.));
#460=CARTESIAN_POINT('',(-0.667624605478413,-0.35095121634943,0.));
#461=CARTESIAN_POINT('',(-0.675424605478413,-0.35095121634943,0.));
#462=CARTESIAN_POINT('',(-0.668624605478413,-0.35095121634943,0.));
#463=CARTESIAN_POINT('',(-0.668624605478413,-0.35875121634943,0.));
#464=CARTESIAN_POINT('',(-0.668624605478413,-0.35775121634943,0.));
#465=CARTESIAN_POINT('',(-0.0616736940725536,-0.35775121634943,0.));
#466=CARTESIAN_POINT('',(-0.675424605478413,-0.35775121634943,0.));
#467=CARTESIAN_POINT('',(-0.675424605478413,-0.0688652148425581,0.));
#468=CARTESIAN_POINT('',(-0.672062836304389,-0.354361189072933,0.));
#469=CARTESIAN_POINT('',(-0.674339416817801,-0.353328144463075,0.));
#470=CARTESIAN_POINT('',(-0.671262227800854,-0.356729527313992,0.));
#471=CARTESIAN_POINT('',(-0.670845115704994,-0.357190583791821,0.));
#472=CARTESIAN_POINT('',(-0.670428003609135,-0.35765164026965,0.));
#473=CARTESIAN_POINT('',(-0.669659289839863,-0.356956194425516,0.));
#474=CARTESIAN_POINT('',(-0.668890576070591,-0.356260748581382,0.));
#475=CARTESIAN_POINT('',(-0.66932035767436,-0.355785687813698,0.));
#476=CARTESIAN_POINT('',(-0.669750139278129,-0.355310627046014,0.));
#477=CARTESIAN_POINT('',(-0.672062836304389,-0.354361189072933,0.));
#478=CARTESIAN_POINT('',(-0.672776650263438,-0.351965261354518,0.));
#479=CARTESIAN_POINT('',(-0.673100373539888,-0.351607432571529,0.));
#480=CARTESIAN_POINT('',(-0.673424096816338,-0.35124960378854,0.));
#481=CARTESIAN_POINT('',(-0.67419281058561,-0.351945049632674,0.));
#482=CARTESIAN_POINT('',(-0.674961524354882,-0.352640495476808,0.));
#483=CARTESIAN_POINT('',(-0.674650470586341,-0.352984319969941,0.));
#484=CARTESIAN_POINT('',(-0.672024605478413,-0.34995121634943,0.01));
#485=CARTESIAN_POINT('',(-0.667624605478413,-0.34995121634943,0.01));
#486=CARTESIAN_POINT('',(-0.667624605478413,-0.34995121634943,0.01));
#487=CARTESIAN_POINT('',(-0.667624605478413,-0.34995121634943,0.002));
#488=CARTESIAN_POINT('',(-0.676424605478413,-0.34995121634943,0.002));
#489=CARTESIAN_POINT('',(-0.676424605478413,-0.34995121634943,0.002));
#490=CARTESIAN_POINT('',(-0.676424605478413,-0.34995121634943,0.01));
#491=CARTESIAN_POINT('',(-0.676424605478413,-0.34995121634943,0.01));
#492=CARTESIAN_POINT('',(-0.672024605478413,-0.34995121634943,0.01));
#493=CARTESIAN_POINT('',(-0.676424605478413,-0.354351216349431,0.01));
#494=CARTESIAN_POINT('',(-0.676424605478413,-0.354351216349431,0.002));
#495=CARTESIAN_POINT('',(-0.676424605478413,-0.35875121634943,0.002));
#496=CARTESIAN_POINT('',(-0.676424605478413,-0.35875121634943,0.01));
#497=CARTESIAN_POINT('',(-0.676424605478413,-0.35875121634943,0.01));
#498=CARTESIAN_POINT('',(-0.676424605478413,-0.354351216349431,0.01));
#499=CARTESIAN_POINT('',(-0.672024605478413,-0.35875121634943,0.01));
#500=CARTESIAN_POINT('',(-0.672024605478413,-0.35875121634943,0.002));
#501=CARTESIAN_POINT('',(-0.667624605478413,-0.35875121634943,0.002));
#502=CARTESIAN_POINT('',(-0.667624605478413,-0.35875121634943,0.01));
#503=CARTESIAN_POINT('',(-0.667624605478413,-0.35875121634943,0.01));
#504=CARTESIAN_POINT('',(-0.672024605478413,-0.35875121634943,0.01));
#505=CARTESIAN_POINT('',(-0.667624605478413,-0.354351216349431,0.01));
#506=CARTESIAN_POINT('',(-0.667624605478413,-0.34995121634943,0.002));
#507=CARTESIAN_POINT('',(-0.667624605478413,-0.354351216349431,0.01));
#508=CARTESIAN_POINT('',(-0.0616736940725536,-0.0688652148425581,0.01));
#509=CARTESIAN_POINT('',(-0.676424605478413,-0.354351216349431,0.002));
#510=CARTESIAN_POINT('',(-0.67569127214508,-0.358017883016097,0.000533333333333346));
#511=CARTESIAN_POINT('',(-0.67569127214508,-0.350684549682764,0.000533333333333346));
#512=CARTESIAN_POINT('',(-0.0616736940725536,-0.35095121634943,0.));
#513=CARTESIAN_POINT('',(-0.567466120244103,-0.24979273111512,0.20231697046862));
#514=CARTESIAN_POINT('',(-0.672024605478413,-0.35875121634943,0.002));
#515=CARTESIAN_POINT('',(-0.668357938811746,-0.358017883016097,0.00053333333333331));
#516=CARTESIAN_POINT('',(-0.668624605478413,-0.0688652148425581,0.));
#517=CARTESIAN_POINT('',(-0.672062836304389,-0.354361189072933,0.001));
#518=CARTESIAN_POINT('',(-0.674339416817801,-0.353328144463075,0.001));
#519=CARTESIAN_POINT('',(-0.674339416817801,-0.353328144463075,0.001));
#520=CARTESIAN_POINT('',(-0.672062836304389,-0.354361189072933,0.001));
#521=CARTESIAN_POINT('',(-0.671262227800854,-0.356729527313992,0.001));
#522=CARTESIAN_POINT('',(-0.671262227800854,-0.356729527313992,0.001));
#523=CARTESIAN_POINT('',(-0.670845115704994,-0.357190583791821,0.001));
#524=CARTESIAN_POINT('',(-0.670845115704994,-0.357190583791821,0.001));
#525=CARTESIAN_POINT('',(-0.670428003609135,-0.35765164026965,0.001));
#526=CARTESIAN_POINT('',(-0.670428003609135,-0.35765164026965,0.001));
#527=CARTESIAN_POINT('',(-0.669659289839863,-0.356956194425516,0.001));
#528=CARTESIAN_POINT('',(-0.669659289839863,-0.356956194425516,0.001));
#529=CARTESIAN_POINT('',(-0.668890576070591,-0.356260748581382,0.001));
#530=CARTESIAN_POINT('',(-0.668890576070591,-0.356260748581382,0.001));
#531=CARTESIAN_POINT('',(-0.66932035767436,-0.355785687813698,0.001));
#532=CARTESIAN_POINT('',(-0.66932035767436,-0.355785687813698,0.001));
#533=CARTESIAN_POINT('',(-0.669750139278129,-0.355310627046014,0.001));
#534=CARTESIAN_POINT('',(-0.669750139278129,-0.355310627046014,0.001));
#535=CARTESIAN_POINT('',(-0.672062836304389,-0.354361189072933,0.001));
#536=CARTESIAN_POINT('',(-0.672062836304389,-0.354361189072933,0.001));
#537=CARTESIAN_POINT('',(-0.672776650263438,-0.351965261354518,0.001));
#538=CARTESIAN_POINT('',(-0.672776650263438,-0.351965261354518,0.001));
#539=CARTESIAN_POINT('',(-0.673100373539888,-0.351607432571529,0.001));
#540=CARTESIAN_POINT('',(-0.673100373539888,-0.351607432571529,0.001));
#541=CARTESIAN_POINT('',(-0.673424096816338,-0.35124960378854,0.001));
#542=CARTESIAN_POINT('',(-0.673424096816338,-0.35124960378854,0.001));
#543=CARTESIAN_POINT('',(-0.67419281058561,-0.351945049632674,0.001));
#544=CARTESIAN_POINT('',(-0.67419281058561,-0.351945049632674,0.001));
#545=CARTESIAN_POINT('',(-0.674961524354882,-0.352640495476808,0.001));
#546=CARTESIAN_POINT('',(-0.674961524354882,-0.352640495476808,0.001));
#547=CARTESIAN_POINT('',(-0.674650470586341,-0.352984319969941,0.001));
#548=CARTESIAN_POINT('',(-0.674650470586341,-0.352984319969941,0.001));
#549=CARTESIAN_POINT('',(-0.0616736940725536,-0.0688652148425581,0.001));
#550=MECHANICAL_DESIGN_GEOMETRIC_PRESENTATION_REPRESENTATION('',(#335),
#551);
#551=(
GEOMETRIC_REPRESENTATION_CONTEXT(3)
GLOBAL_UNCERTAINTY_ASSIGNED_CONTEXT((#552))
GLOBAL_UNIT_ASSIGNED_CONTEXT((#555,#554,#553))
REPRESENTATION_CONTEXT('Config Button','TOP_LEVEL_ASSEMBLY_PART')
);
#552=UNCERTAINTY_MEASURE_WITH_UNIT(LENGTH_MEASURE(1.E-8),#555,
'DISTANCE_ACCURACY_VALUE','Maximum Tolerance applied to model');
#553=(
NAMED_UNIT(*)
SI_UNIT($,.STERADIAN.)
SOLID_ANGLE_UNIT()
);
#554=(
NAMED_UNIT(*)
PLANE_ANGLE_UNIT()
SI_UNIT($,.RADIAN.)
);
#555=(
LENGTH_UNIT()
NAMED_UNIT(*)
SI_UNIT($,.METRE.)
);
#556=PRODUCT_DEFINITION_SHAPE('','',#557);
#557=PRODUCT_DEFINITION('','',#559,#558);
#558=PRODUCT_DEFINITION_CONTEXT('',#565,'design');
#559=PRODUCT_DEFINITION_FORMATION_WITH_SPECIFIED_SOURCE('','',#561,
 .NOT_KNOWN.);
#560=PRODUCT_RELATED_PRODUCT_CATEGORY('','',(#561));
#561=PRODUCT('Config Button','Config Button','Config Button',(#563));
#562=PRODUCT_CATEGORY('','');
#563=PRODUCT_CONTEXT('',#565,'mechanical');
#564=APPLICATION_PROTOCOL_DEFINITION('international standard',
'ap242_managed_model_based_3d_engineering',2020,#565);
#565=APPLICATION_CONTEXT('managed model based 3d engineering');
ENDSEC;
END-ISO-10303-21;
