ISO-10303-21;
HEADER;
/* Generated by software containing ST-Developer
 * from STEP Tools, Inc. (www.steptools.com) 
 */
/* OPTION: using custom renumber hook */

FILE_DESCRIPTION(
/* description */ ('STEP AP242 Edition 2',
'CAx-IF Rec.Pracs.---Representation and Presentation of Product Manufa
cturing Information (PMI)---4.0---2014-10-13',
'CAx-IF Rec.Pracs.---3D Tessellated Geometry---0.4---2014-09-14','2;1',
'CAx-IF Rec.Pracs.---User Defined Attributes---1.5---2016-08-15'),
/* implementation_level */ '2;1');

FILE_NAME(
/* name */ 'Part Studio 1 - BMat3O',
/* time_stamp */ '2026-05-20T23:41:51Z',
/* author */ (''),
/* organization */ (''),
/* preprocessor_version */ 'ST-DEVELOPER v20',
/* originating_system */ 'ONSHAPE BY PTC INC, 1.215',
/* authorisation */ '  ');

FILE_SCHEMA (('AP242_MANAGED_MODEL_BASED_3D_ENGINEERING_MIM_LF { 1 0 10303 442 3 1 4 }'));
ENDSEC;

DATA;
#10=SHAPE_REPRESENTATION_RELATIONSHIP('','',#464,#11);
#11=ADVANCED_BREP_SHAPE_REPRESENTATION('',(#462),#732);
#12=CYLINDRICAL_SURFACE('',#480,0.005);
#13=CIRCLE('',#476,0.005);
#14=CIRCLE('',#481,0.005);
#15=ORIENTED_EDGE('',*,*,#133,.F.);
#16=ORIENTED_EDGE('',*,*,#134,.T.);
#17=ORIENTED_EDGE('',*,*,#135,.T.);
#18=ORIENTED_EDGE('',*,*,#136,.F.);
#19=ORIENTED_EDGE('',*,*,#137,.F.);
#20=ORIENTED_EDGE('',*,*,#138,.F.);
#21=ORIENTED_EDGE('',*,*,#139,.T.);
#22=ORIENTED_EDGE('',*,*,#140,.T.);
#23=ORIENTED_EDGE('',*,*,#141,.F.);
#24=ORIENTED_EDGE('',*,*,#135,.F.);
#25=ORIENTED_EDGE('',*,*,#142,.T.);
#26=ORIENTED_EDGE('',*,*,#143,.F.);
#27=ORIENTED_EDGE('',*,*,#144,.T.);
#28=ORIENTED_EDGE('',*,*,#145,.T.);
#29=ORIENTED_EDGE('',*,*,#146,.T.);
#30=ORIENTED_EDGE('',*,*,#147,.F.);
#31=ORIENTED_EDGE('',*,*,#133,.T.);
#32=ORIENTED_EDGE('',*,*,#148,.T.);
#33=ORIENTED_EDGE('',*,*,#149,.F.);
#34=ORIENTED_EDGE('',*,*,#150,.F.);
#35=ORIENTED_EDGE('',*,*,#151,.T.);
#36=ORIENTED_EDGE('',*,*,#152,.T.);
#37=ORIENTED_EDGE('',*,*,#153,.T.);
#38=ORIENTED_EDGE('',*,*,#154,.F.);
#39=ORIENTED_EDGE('',*,*,#155,.F.);
#40=ORIENTED_EDGE('',*,*,#156,.T.);
#41=ORIENTED_EDGE('',*,*,#153,.F.);
#42=ORIENTED_EDGE('',*,*,#157,.T.);
#43=ORIENTED_EDGE('',*,*,#148,.F.);
#44=ORIENTED_EDGE('',*,*,#136,.T.);
#45=ORIENTED_EDGE('',*,*,#141,.T.);
#46=ORIENTED_EDGE('',*,*,#158,.F.);
#47=ORIENTED_EDGE('',*,*,#159,.T.);
#48=ORIENTED_EDGE('',*,*,#139,.F.);
#49=ORIENTED_EDGE('',*,*,#160,.F.);
#50=ORIENTED_EDGE('',*,*,#155,.T.);
#51=ORIENTED_EDGE('',*,*,#161,.F.);
#52=ORIENTED_EDGE('',*,*,#144,.F.);
#53=ORIENTED_EDGE('',*,*,#162,.F.);
#54=ORIENTED_EDGE('',*,*,#156,.F.);
#55=ORIENTED_EDGE('',*,*,#160,.T.);
#56=ORIENTED_EDGE('',*,*,#138,.T.);
#57=ORIENTED_EDGE('',*,*,#158,.T.);
#58=ORIENTED_EDGE('',*,*,#140,.F.);
#59=ORIENTED_EDGE('',*,*,#159,.F.);
#60=ORIENTED_EDGE('',*,*,#154,.T.);
#61=ORIENTED_EDGE('',*,*,#163,.F.);
#62=ORIENTED_EDGE('',*,*,#151,.F.);
#63=ORIENTED_EDGE('',*,*,#162,.T.);
#64=ORIENTED_EDGE('',*,*,#150,.T.);
#65=ORIENTED_EDGE('',*,*,#164,.T.);
#66=ORIENTED_EDGE('',*,*,#165,.T.);
#67=ORIENTED_EDGE('',*,*,#166,.F.);
#68=ORIENTED_EDGE('',*,*,#167,.F.);
#69=ORIENTED_EDGE('',*,*,#168,.T.);
#70=ORIENTED_EDGE('',*,*,#169,.T.);
#71=ORIENTED_EDGE('',*,*,#170,.F.);
#72=ORIENTED_EDGE('',*,*,#171,.F.);
#73=ORIENTED_EDGE('',*,*,#172,.F.);
#74=ORIENTED_EDGE('',*,*,#149,.T.);
#75=ORIENTED_EDGE('',*,*,#157,.F.);
#76=ORIENTED_EDGE('',*,*,#152,.F.);
#77=ORIENTED_EDGE('',*,*,#163,.T.);
#78=ORIENTED_EDGE('',*,*,#161,.T.);
#79=ORIENTED_EDGE('',*,*,#137,.T.);
#80=ORIENTED_EDGE('',*,*,#173,.F.);
#81=ORIENTED_EDGE('',*,*,#145,.F.);
#82=ORIENTED_EDGE('',*,*,#173,.T.);
#83=ORIENTED_EDGE('',*,*,#143,.T.);
#84=ORIENTED_EDGE('',*,*,#174,.F.);
#85=ORIENTED_EDGE('',*,*,#146,.F.);
#86=ORIENTED_EDGE('',*,*,#147,.T.);
#87=ORIENTED_EDGE('',*,*,#174,.T.);
#88=ORIENTED_EDGE('',*,*,#142,.F.);
#89=ORIENTED_EDGE('',*,*,#134,.F.);
#90=ORIENTED_EDGE('',*,*,#175,.F.);
#91=ORIENTED_EDGE('',*,*,#172,.T.);
#92=ORIENTED_EDGE('',*,*,#175,.T.);
#93=ORIENTED_EDGE('',*,*,#168,.F.);
#94=ORIENTED_EDGE('',*,*,#176,.F.);
#95=ORIENTED_EDGE('',*,*,#177,.T.);
#96=ORIENTED_EDGE('',*,*,#178,.T.);
#97=ORIENTED_EDGE('',*,*,#171,.T.);
#98=ORIENTED_EDGE('',*,*,#179,.F.);
#99=ORIENTED_EDGE('',*,*,#180,.F.);
#100=ORIENTED_EDGE('',*,*,#176,.T.);
#101=ORIENTED_EDGE('',*,*,#170,.T.);
#102=ORIENTED_EDGE('',*,*,#181,.F.);
#103=ORIENTED_EDGE('',*,*,#182,.F.);
#104=ORIENTED_EDGE('',*,*,#179,.T.);
#105=ORIENTED_EDGE('',*,*,#169,.F.);
#106=ORIENTED_EDGE('',*,*,#178,.F.);
#107=ORIENTED_EDGE('',*,*,#183,.T.);
#108=ORIENTED_EDGE('',*,*,#181,.T.);
#109=ORIENTED_EDGE('',*,*,#177,.F.);
#110=ORIENTED_EDGE('',*,*,#180,.T.);
#111=ORIENTED_EDGE('',*,*,#182,.T.);
#112=ORIENTED_EDGE('',*,*,#183,.F.);
#113=ORIENTED_EDGE('',*,*,#164,.F.);
#114=ORIENTED_EDGE('',*,*,#184,.F.);
#115=ORIENTED_EDGE('',*,*,#185,.T.);
#116=ORIENTED_EDGE('',*,*,#186,.T.);
#117=ORIENTED_EDGE('',*,*,#167,.T.);
#118=ORIENTED_EDGE('',*,*,#187,.F.);
#119=ORIENTED_EDGE('',*,*,#188,.F.);
#120=ORIENTED_EDGE('',*,*,#184,.T.);
#121=ORIENTED_EDGE('',*,*,#166,.T.);
#122=ORIENTED_EDGE('',*,*,#189,.F.);
#123=ORIENTED_EDGE('',*,*,#190,.F.);
#124=ORIENTED_EDGE('',*,*,#187,.T.);
#125=ORIENTED_EDGE('',*,*,#165,.F.);
#126=ORIENTED_EDGE('',*,*,#186,.F.);
#127=ORIENTED_EDGE('',*,*,#191,.T.);
#128=ORIENTED_EDGE('',*,*,#189,.T.);
#129=ORIENTED_EDGE('',*,*,#185,.F.);
#130=ORIENTED_EDGE('',*,*,#188,.T.);
#131=ORIENTED_EDGE('',*,*,#190,.T.);
#132=ORIENTED_EDGE('',*,*,#191,.F.);
#133=EDGE_CURVE('',#192,#193,#232,.T.);
#134=EDGE_CURVE('',#192,#194,#233,.T.);
#135=EDGE_CURVE('',#194,#195,#234,.T.);
#136=EDGE_CURVE('',#193,#195,#235,.T.);
#137=EDGE_CURVE('',#196,#197,#236,.T.);
#138=EDGE_CURVE('',#198,#196,#237,.T.);
#139=EDGE_CURVE('',#198,#199,#238,.T.);
#140=EDGE_CURVE('',#199,#200,#239,.T.);
#141=EDGE_CURVE('',#195,#200,#240,.T.);
#142=EDGE_CURVE('',#194,#201,#241,.T.);
#143=EDGE_CURVE('',#197,#201,#242,.T.);
#144=EDGE_CURVE('',#202,#203,#243,.T.);
#145=EDGE_CURVE('',#203,#204,#244,.T.);
#146=EDGE_CURVE('',#204,#205,#245,.T.);
#147=EDGE_CURVE('',#192,#205,#246,.T.);
#148=EDGE_CURVE('',#193,#206,#247,.T.);
#149=EDGE_CURVE('',#207,#206,#248,.T.);
#150=EDGE_CURVE('',#202,#207,#249,.T.);
#151=EDGE_CURVE('',#208,#209,#250,.T.);
#152=EDGE_CURVE('',#209,#210,#251,.T.);
#153=EDGE_CURVE('',#210,#211,#252,.T.);
#154=EDGE_CURVE('',#212,#211,#253,.T.);
#155=EDGE_CURVE('',#213,#212,#254,.T.);
#156=EDGE_CURVE('',#213,#208,#255,.T.);
#157=EDGE_CURVE('',#210,#206,#256,.T.);
#158=EDGE_CURVE('',#211,#200,#257,.T.);
#159=EDGE_CURVE('',#212,#199,#258,.T.);
#160=EDGE_CURVE('',#213,#198,#259,.T.);
#161=EDGE_CURVE('',#203,#196,#260,.T.);
#162=EDGE_CURVE('',#208,#202,#261,.T.);
#163=EDGE_CURVE('',#209,#207,#262,.T.);
#164=EDGE_CURVE('',#214,#215,#263,.T.);
#165=EDGE_CURVE('',#215,#216,#264,.T.);
#166=EDGE_CURVE('',#217,#216,#265,.T.);
#167=EDGE_CURVE('',#214,#217,#266,.T.);
#168=EDGE_CURVE('',#218,#219,#267,.T.);
#169=EDGE_CURVE('',#219,#220,#268,.T.);
#170=EDGE_CURVE('',#221,#220,#269,.T.);
#171=EDGE_CURVE('',#218,#221,#270,.T.);
#172=EDGE_CURVE('',#222,#222,#13,.T.);
#173=EDGE_CURVE('',#204,#197,#271,.T.);
#174=EDGE_CURVE('',#205,#201,#272,.T.);
#175=EDGE_CURVE('',#223,#223,#14,.T.);
#176=EDGE_CURVE('',#224,#218,#273,.T.);
#177=EDGE_CURVE('',#224,#225,#274,.T.);
#178=EDGE_CURVE('',#225,#219,#275,.T.);
#179=EDGE_CURVE('',#226,#221,#276,.T.);
#180=EDGE_CURVE('',#224,#226,#277,.T.);
#181=EDGE_CURVE('',#227,#220,#278,.T.);
#182=EDGE_CURVE('',#226,#227,#279,.T.);
#183=EDGE_CURVE('',#225,#227,#280,.T.);
#184=EDGE_CURVE('',#228,#214,#281,.T.);
#185=EDGE_CURVE('',#228,#229,#282,.T.);
#186=EDGE_CURVE('',#229,#215,#283,.T.);
#187=EDGE_CURVE('',#230,#217,#284,.T.);
#188=EDGE_CURVE('',#228,#230,#285,.T.);
#189=EDGE_CURVE('',#231,#216,#286,.T.);
#190=EDGE_CURVE('',#230,#231,#287,.T.);
#191=EDGE_CURVE('',#229,#231,#288,.T.);
#192=VERTEX_POINT('',#609);
#193=VERTEX_POINT('',#610);
#194=VERTEX_POINT('',#612);
#195=VERTEX_POINT('',#614);
#196=VERTEX_POINT('',#618);
#197=VERTEX_POINT('',#619);
#198=VERTEX_POINT('',#621);
#199=VERTEX_POINT('',#623);
#200=VERTEX_POINT('',#625);
#201=VERTEX_POINT('',#628);
#202=VERTEX_POINT('',#632);
#203=VERTEX_POINT('',#633);
#204=VERTEX_POINT('',#635);
#205=VERTEX_POINT('',#637);
#206=VERTEX_POINT('',#640);
#207=VERTEX_POINT('',#642);
#208=VERTEX_POINT('',#646);
#209=VERTEX_POINT('',#647);
#210=VERTEX_POINT('',#649);
#211=VERTEX_POINT('',#651);
#212=VERTEX_POINT('',#653);
#213=VERTEX_POINT('',#655);
#214=VERTEX_POINT('',#671);
#215=VERTEX_POINT('',#672);
#216=VERTEX_POINT('',#674);
#217=VERTEX_POINT('',#676);
#218=VERTEX_POINT('',#679);
#219=VERTEX_POINT('',#680);
#220=VERTEX_POINT('',#682);
#221=VERTEX_POINT('',#684);
#222=VERTEX_POINT('',#687);
#223=VERTEX_POINT('',#695);
#224=VERTEX_POINT('',#699);
#225=VERTEX_POINT('',#701);
#226=VERTEX_POINT('',#705);
#227=VERTEX_POINT('',#709);
#228=VERTEX_POINT('',#716);
#229=VERTEX_POINT('',#718);
#230=VERTEX_POINT('',#722);
#231=VERTEX_POINT('',#726);
#232=LINE('',#608,#289);
#233=LINE('',#611,#290);
#234=LINE('',#613,#291);
#235=LINE('',#615,#292);
#236=LINE('',#617,#293);
#237=LINE('',#620,#294);
#238=LINE('',#622,#295);
#239=LINE('',#624,#296);
#240=LINE('',#626,#297);
#241=LINE('',#627,#298);
#242=LINE('',#629,#299);
#243=LINE('',#631,#300);
#244=LINE('',#634,#301);
#245=LINE('',#636,#302);
#246=LINE('',#638,#303);
#247=LINE('',#639,#304);
#248=LINE('',#641,#305);
#249=LINE('',#643,#306);
#250=LINE('',#645,#307);
#251=LINE('',#648,#308);
#252=LINE('',#650,#309);
#253=LINE('',#652,#310);
#254=LINE('',#654,#311);
#255=LINE('',#656,#312);
#256=LINE('',#658,#313);
#257=LINE('',#659,#314);
#258=LINE('',#661,#315);
#259=LINE('',#662,#316);
#260=LINE('',#664,#317);
#261=LINE('',#665,#318);
#262=LINE('',#668,#319);
#263=LINE('',#670,#320);
#264=LINE('',#673,#321);
#265=LINE('',#675,#322);
#266=LINE('',#677,#323);
#267=LINE('',#678,#324);
#268=LINE('',#681,#325);
#269=LINE('',#683,#326);
#270=LINE('',#685,#327);
#271=LINE('',#689,#328);
#272=LINE('',#691,#329);
#273=LINE('',#698,#330);
#274=LINE('',#700,#331);
#275=LINE('',#702,#332);
#276=LINE('',#704,#333);
#277=LINE('',#706,#334);
#278=LINE('',#708,#335);
#279=LINE('',#710,#336);
#280=LINE('',#712,#337);
#281=LINE('',#715,#338);
#282=LINE('',#717,#339);
#283=LINE('',#719,#340);
#284=LINE('',#721,#341);
#285=LINE('',#723,#342);
#286=LINE('',#725,#343);
#287=LINE('',#727,#344);
#288=LINE('',#729,#345);
#289=VECTOR('',#497,1.);
#290=VECTOR('',#498,1.);
#291=VECTOR('',#499,1.);
#292=VECTOR('',#500,1.);
#293=VECTOR('',#503,1.);
#294=VECTOR('',#504,1.);
#295=VECTOR('',#505,1.);
#296=VECTOR('',#506,1.);
#297=VECTOR('',#507,1.);
#298=VECTOR('',#508,1.);
#299=VECTOR('',#509,1.);
#300=VECTOR('',#512,1.);
#301=VECTOR('',#513,1.);
#302=VECTOR('',#514,1.);
#303=VECTOR('',#515,1.);
#304=VECTOR('',#516,1.);
#305=VECTOR('',#517,1.);
#306=VECTOR('',#518,1.);
#307=VECTOR('',#521,1.);
#308=VECTOR('',#522,1.);
#309=VECTOR('',#523,1.);
#310=VECTOR('',#524,1.);
#311=VECTOR('',#525,1.);
#312=VECTOR('',#526,1.);
#313=VECTOR('',#529,1.);
#314=VECTOR('',#530,1.);
#315=VECTOR('',#533,1.);
#316=VECTOR('',#534,1.);
#317=VECTOR('',#537,1.);
#318=VECTOR('',#538,1.);
#319=VECTOR('',#543,1.);
#320=VECTOR('',#546,1.);
#321=VECTOR('',#547,1.);
#322=VECTOR('',#548,1.);
#323=VECTOR('',#549,1.);
#324=VECTOR('',#550,1.);
#325=VECTOR('',#551,1.);
#326=VECTOR('',#552,1.);
#327=VECTOR('',#553,1.);
#328=VECTOR('',#558,1.);
#329=VECTOR('',#561,1.);
#330=VECTOR('',#572,1.);
#331=VECTOR('',#573,1.);
#332=VECTOR('',#574,1.);
#333=VECTOR('',#577,1.);
#334=VECTOR('',#578,1.);
#335=VECTOR('',#581,1.);
#336=VECTOR('',#582,1.);
#337=VECTOR('',#585,1.);
#338=VECTOR('',#590,1.);
#339=VECTOR('',#591,1.);
#340=VECTOR('',#592,1.);
#341=VECTOR('',#595,1.);
#342=VECTOR('',#596,1.);
#343=VECTOR('',#599,1.);
#344=VECTOR('',#600,1.);
#345=VECTOR('',#603,1.);
#346=EDGE_LOOP('',(#15,#16,#17,#18));
#347=EDGE_LOOP('',(#19,#20,#21,#22,#23,#24,#25,#26));
#348=EDGE_LOOP('',(#27,#28,#29,#30,#31,#32,#33,#34));
#349=EDGE_LOOP('',(#35,#36,#37,#38,#39,#40));
#350=EDGE_LOOP('',(#41,#42,#43,#44,#45,#46));
#351=EDGE_LOOP('',(#47,#48,#49,#50));
#352=EDGE_LOOP('',(#51,#52,#53,#54,#55,#56));
#353=EDGE_LOOP('',(#57,#58,#59,#60));
#354=EDGE_LOOP('',(#61,#62,#63,#64));
#355=EDGE_LOOP('',(#65,#66,#67,#68));
#356=EDGE_LOOP('',(#69,#70,#71,#72));
#357=EDGE_LOOP('',(#73));
#358=EDGE_LOOP('',(#74,#75,#76,#77));
#359=EDGE_LOOP('',(#78,#79,#80,#81));
#360=EDGE_LOOP('',(#82,#83,#84,#85));
#361=EDGE_LOOP('',(#86,#87,#88,#89));
#362=EDGE_LOOP('',(#90));
#363=EDGE_LOOP('',(#91));
#364=EDGE_LOOP('',(#92));
#365=EDGE_LOOP('',(#93,#94,#95,#96));
#366=EDGE_LOOP('',(#97,#98,#99,#100));
#367=EDGE_LOOP('',(#101,#102,#103,#104));
#368=EDGE_LOOP('',(#105,#106,#107,#108));
#369=EDGE_LOOP('',(#109,#110,#111,#112));
#370=EDGE_LOOP('',(#113,#114,#115,#116));
#371=EDGE_LOOP('',(#117,#118,#119,#120));
#372=EDGE_LOOP('',(#121,#122,#123,#124));
#373=EDGE_LOOP('',(#125,#126,#127,#128));
#374=EDGE_LOOP('',(#129,#130,#131,#132));
#375=FACE_BOUND('',#346,.T.);
#376=FACE_BOUND('',#347,.T.);
#377=FACE_BOUND('',#348,.T.);
#378=FACE_BOUND('',#349,.T.);
#379=FACE_BOUND('',#350,.T.);
#380=FACE_BOUND('',#351,.T.);
#381=FACE_BOUND('',#352,.T.);
#382=FACE_BOUND('',#353,.T.);
#383=FACE_BOUND('',#354,.T.);
#384=FACE_BOUND('',#355,.T.);
#385=FACE_BOUND('',#356,.T.);
#386=FACE_BOUND('',#357,.T.);
#387=FACE_BOUND('',#358,.T.);
#388=FACE_BOUND('',#359,.T.);
#389=FACE_BOUND('',#360,.T.);
#390=FACE_BOUND('',#361,.T.);
#391=FACE_BOUND('',#362,.T.);
#392=FACE_BOUND('',#363,.T.);
#393=FACE_BOUND('',#364,.T.);
#394=FACE_BOUND('',#365,.T.);
#395=FACE_BOUND('',#366,.T.);
#396=FACE_BOUND('',#367,.T.);
#397=FACE_BOUND('',#368,.T.);
#398=FACE_BOUND('',#369,.T.);
#399=FACE_BOUND('',#370,.T.);
#400=FACE_BOUND('',#371,.T.);
#401=FACE_BOUND('',#372,.T.);
#402=FACE_BOUND('',#373,.T.);
#403=FACE_BOUND('',#374,.T.);
#404=PLANE('',#466);
#405=PLANE('',#467);
#406=PLANE('',#468);
#407=PLANE('',#469);
#408=PLANE('',#470);
#409=PLANE('',#471);
#410=PLANE('',#472);
#411=PLANE('',#473);
#412=PLANE('',#474);
#413=PLANE('',#475);
#414=PLANE('',#477);
#415=PLANE('',#478);
#416=PLANE('',#479);
#417=PLANE('',#482);
#418=PLANE('',#483);
#419=PLANE('',#484);
#420=PLANE('',#485);
#421=PLANE('',#486);
#422=PLANE('',#487);
#423=PLANE('',#488);
#424=PLANE('',#489);
#425=PLANE('',#490);
#426=PLANE('',#491);
#427=PLANE('',#492);
#428=ADVANCED_FACE('',(#375),#404,.T.);
#429=ADVANCED_FACE('',(#376),#405,.F.);
#430=ADVANCED_FACE('',(#377),#406,.T.);
#431=ADVANCED_FACE('',(#378),#407,.T.);
#432=ADVANCED_FACE('',(#379),#408,.T.);
#433=ADVANCED_FACE('',(#380),#409,.F.);
#434=ADVANCED_FACE('',(#381),#410,.T.);
#435=ADVANCED_FACE('',(#382),#411,.F.);
#436=ADVANCED_FACE('',(#383),#412,.T.);
#437=ADVANCED_FACE('',(#384,#385,#386,#387),#413,.T.);
#438=ADVANCED_FACE('',(#388),#414,.F.);
#439=ADVANCED_FACE('',(#389),#415,.F.);
#440=ADVANCED_FACE('',(#390),#416,.T.);
#441=ADVANCED_FACE('',(#391,#392),#12,.T.);
#442=ADVANCED_FACE('',(#393),#417,.T.);
#443=ADVANCED_FACE('',(#394),#418,.T.);
#444=ADVANCED_FACE('',(#395),#419,.F.);
#445=ADVANCED_FACE('',(#396),#420,.F.);
#446=ADVANCED_FACE('',(#397),#421,.T.);
#447=ADVANCED_FACE('',(#398),#422,.T.);
#448=ADVANCED_FACE('',(#399),#423,.T.);
#449=ADVANCED_FACE('',(#400),#424,.F.);
#450=ADVANCED_FACE('',(#401),#425,.F.);
#451=ADVANCED_FACE('',(#402),#426,.T.);
#452=ADVANCED_FACE('',(#403),#427,.T.);
#453=CLOSED_SHELL('',(#428,#429,#430,#431,#432,#433,#434,#435,#436,#437,
#438,#439,#440,#441,#442,#443,#444,#445,#446,#447,#448,#449,#450,#451,#452));
#454=STYLED_ITEM('',(#455),#462);
#455=PRESENTATION_STYLE_ASSIGNMENT((#456));
#456=SURFACE_STYLE_USAGE(.BOTH.,#457);
#457=SURFACE_SIDE_STYLE('',(#458));
#458=SURFACE_STYLE_FILL_AREA(#459);
#459=FILL_AREA_STYLE('',(#460));
#460=FILL_AREA_STYLE_COLOUR('',#461);
#461=COLOUR_RGB('',0.917647058823529,0.917647058823529,0.917647058823529);
#462=MANIFOLD_SOLID_BREP('BMat3O',#453);
#463=SHAPE_DEFINITION_REPRESENTATION(#737,#464);
#464=SHAPE_REPRESENTATION('BMat3O',(#465),#732);
#465=AXIS2_PLACEMENT_3D('',#606,#493,#494);
#466=AXIS2_PLACEMENT_3D('',#607,#495,#496);
#467=AXIS2_PLACEMENT_3D('',#616,#501,#502);
#468=AXIS2_PLACEMENT_3D('',#630,#510,#511);
#469=AXIS2_PLACEMENT_3D('',#644,#519,#520);
#470=AXIS2_PLACEMENT_3D('',#657,#527,#528);
#471=AXIS2_PLACEMENT_3D('',#660,#531,#532);
#472=AXIS2_PLACEMENT_3D('',#663,#535,#536);
#473=AXIS2_PLACEMENT_3D('',#666,#539,#540);
#474=AXIS2_PLACEMENT_3D('',#667,#541,#542);
#475=AXIS2_PLACEMENT_3D('',#669,#544,#545);
#476=AXIS2_PLACEMENT_3D('',#686,#554,#555);
#477=AXIS2_PLACEMENT_3D('',#688,#556,#557);
#478=AXIS2_PLACEMENT_3D('',#690,#559,#560);
#479=AXIS2_PLACEMENT_3D('',#692,#562,#563);
#480=AXIS2_PLACEMENT_3D('',#693,#564,#565);
#481=AXIS2_PLACEMENT_3D('',#694,#566,#567);
#482=AXIS2_PLACEMENT_3D('',#696,#568,#569);
#483=AXIS2_PLACEMENT_3D('',#697,#570,#571);
#484=AXIS2_PLACEMENT_3D('',#703,#575,#576);
#485=AXIS2_PLACEMENT_3D('',#707,#579,#580);
#486=AXIS2_PLACEMENT_3D('',#711,#583,#584);
#487=AXIS2_PLACEMENT_3D('',#713,#586,#587);
#488=AXIS2_PLACEMENT_3D('',#714,#588,#589);
#489=AXIS2_PLACEMENT_3D('',#720,#593,#594);
#490=AXIS2_PLACEMENT_3D('',#724,#597,#598);
#491=AXIS2_PLACEMENT_3D('',#728,#601,#602);
#492=AXIS2_PLACEMENT_3D('',#730,#604,#605);
#493=DIRECTION('',(0.,0.,1.));
#494=DIRECTION('',(1.,0.,0.));
#495=DIRECTION('',(0.,0.,1.));
#496=DIRECTION('',(1.,0.,0.));
#497=DIRECTION('',(1.,0.,0.));
#498=DIRECTION('',(0.,-1.,0.));
#499=DIRECTION('',(1.,0.,0.));
#500=DIRECTION('',(0.,-1.,0.));
#501=DIRECTION('',(0.,1.,0.));
#502=DIRECTION('',(0.,0.,1.));
#503=DIRECTION('',(0.,0.,-1.));
#504=DIRECTION('',(1.,0.,0.));
#505=DIRECTION('',(0.,0.,-1.));
#506=DIRECTION('',(1.,0.,0.));
#507=DIRECTION('',(0.,0.,-1.));
#508=DIRECTION('',(0.,0.,-1.));
#509=DIRECTION('',(1.,0.,0.));
#510=DIRECTION('',(0.,1.,0.));
#511=DIRECTION('',(0.,0.,1.));
#512=DIRECTION('',(1.,0.,0.));
#513=DIRECTION('',(0.,0.,-1.));
#514=DIRECTION('',(1.,0.,0.));
#515=DIRECTION('',(0.,0.,-1.));
#516=DIRECTION('',(0.,0.,-1.));
#517=DIRECTION('',(1.,0.,0.));
#518=DIRECTION('',(0.,0.,-1.));
#519=DIRECTION('',(0.,1.,0.));
#520=DIRECTION('',(0.,0.,1.));
#521=DIRECTION('',(0.,0.,-1.));
#522=DIRECTION('',(1.,0.,0.));
#523=DIRECTION('',(0.,0.,-1.));
#524=DIRECTION('',(1.,0.,0.));
#525=DIRECTION('',(0.,0.,-1.));
#526=DIRECTION('',(1.,0.,0.));
#527=DIRECTION('',(1.,0.,0.));
#528=DIRECTION('',(0.,0.,-1.));
#529=DIRECTION('',(0.,-1.,0.));
#530=DIRECTION('',(0.,-1.,0.));
#531=DIRECTION('',(1.,0.,0.));
#532=DIRECTION('',(0.,0.,-1.));
#533=DIRECTION('',(0.,-1.,0.));
#534=DIRECTION('',(0.,-1.,0.));
#535=DIRECTION('',(0.,0.,1.));
#536=DIRECTION('',(1.,0.,0.));
#537=DIRECTION('',(0.,-1.,0.));
#538=DIRECTION('',(0.,-1.,0.));
#539=DIRECTION('',(0.,0.,1.));
#540=DIRECTION('',(1.,0.,0.));
#541=DIRECTION('',(1.,0.,0.));
#542=DIRECTION('',(0.,0.,-1.));
#543=DIRECTION('',(0.,-1.,0.));
#544=DIRECTION('',(0.,0.,1.));
#545=DIRECTION('',(1.,0.,0.));
#546=DIRECTION('',(1.,0.,0.));
#547=DIRECTION('',(0.,-1.,0.));
#548=DIRECTION('',(1.,0.,0.));
#549=DIRECTION('',(0.,-1.,0.));
#550=DIRECTION('',(0.,1.,0.));
#551=DIRECTION('',(1.,0.,0.));
#552=DIRECTION('',(0.,1.,0.));
#553=DIRECTION('',(1.,0.,0.));
#554=DIRECTION('',(0.,0.,1.));
#555=DIRECTION('',(1.,0.,0.));
#556=DIRECTION('',(-1.,0.,0.));
#557=DIRECTION('',(0.,0.,1.));
#558=DIRECTION('',(0.,-1.,0.));
#559=DIRECTION('',(0.,0.,-1.));
#560=DIRECTION('',(-1.,0.,0.));
#561=DIRECTION('',(0.,-1.,0.));
#562=DIRECTION('',(-1.,0.,0.));
#563=DIRECTION('',(0.,0.,1.));
#564=DIRECTION('',(0.,0.,-1.));
#565=DIRECTION('',(-1.,0.,0.));
#566=DIRECTION('',(0.,0.,1.));
#567=DIRECTION('',(1.,0.,0.));
#568=DIRECTION('',(0.,0.,1.));
#569=DIRECTION('',(1.,0.,0.));
#570=DIRECTION('',(-1.,0.,0.));
#571=DIRECTION('',(0.,0.,1.));
#572=DIRECTION('',(0.,0.,-1.));
#573=DIRECTION('',(0.,1.,0.));
#574=DIRECTION('',(0.,0.,-1.));
#575=DIRECTION('',(0.,1.,0.));
#576=DIRECTION('',(0.,0.,1.));
#577=DIRECTION('',(0.,0.,-1.));
#578=DIRECTION('',(1.,0.,0.));
#579=DIRECTION('',(-1.,0.,0.));
#580=DIRECTION('',(0.,0.,1.));
#581=DIRECTION('',(0.,0.,-1.));
#582=DIRECTION('',(0.,1.,0.));
#583=DIRECTION('',(0.,1.,0.));
#584=DIRECTION('',(0.,0.,1.));
#585=DIRECTION('',(1.,0.,0.));
#586=DIRECTION('',(0.,0.,1.));
#587=DIRECTION('',(1.,0.,0.));
#588=DIRECTION('',(0.,1.,0.));
#589=DIRECTION('',(0.,0.,1.));
#590=DIRECTION('',(0.,0.,-1.));
#591=DIRECTION('',(1.,0.,0.));
#592=DIRECTION('',(0.,0.,-1.));
#593=DIRECTION('',(1.,0.,0.));
#594=DIRECTION('',(0.,0.,-1.));
#595=DIRECTION('',(0.,0.,-1.));
#596=DIRECTION('',(0.,-1.,0.));
#597=DIRECTION('',(0.,1.,0.));
#598=DIRECTION('',(0.,0.,1.));
#599=DIRECTION('',(0.,0.,-1.));
#600=DIRECTION('',(1.,0.,0.));
#601=DIRECTION('',(1.,0.,0.));
#602=DIRECTION('',(0.,0.,-1.));
#603=DIRECTION('',(0.,-1.,0.));
#604=DIRECTION('',(0.,0.,1.));
#605=DIRECTION('',(1.,0.,0.));
#606=CARTESIAN_POINT('',(0.,0.,0.));
#607=CARTESIAN_POINT('',(-0.0616736940725536,-0.0688652148425581,0.02));
#608=CARTESIAN_POINT('',(-0.00953253105407695,-0.469327494193817,0.02));
#609=CARTESIAN_POINT('',(-0.055532531054077,-0.469327494193817,0.02));
#610=CARTESIAN_POINT('',(0.0904674689459231,-0.469327494193817,0.02));
#611=CARTESIAN_POINT('',(-0.055532531054077,-0.371825494193817,0.02));
#612=CARTESIAN_POINT('',(-0.055532531054077,-0.471827494193817,0.02));
#613=CARTESIAN_POINT('',(-0.00953253105407695,-0.471827494193817,0.02));
#614=CARTESIAN_POINT('',(0.0904674689459231,-0.471827494193817,0.02));
#615=CARTESIAN_POINT('',(0.0904674689459231,-0.421827494193817,0.02));
#616=CARTESIAN_POINT('',(-0.00953253105407695,-0.471827494193817,0.02));
#617=CARTESIAN_POINT('',(-0.085532531054077,-0.471827494193817,0.018));
#618=CARTESIAN_POINT('',(-0.085532531054077,-0.471827494193817,0.02));
#619=CARTESIAN_POINT('',(-0.085532531054077,-0.471827494193817,0.016));
#620=CARTESIAN_POINT('',(-0.00953253105407695,-0.471827494193817,0.02));
#621=CARTESIAN_POINT('',(-0.109532531054077,-0.471827494193817,0.02));
#622=CARTESIAN_POINT('',(-0.109532531054077,-0.471827494193817,0.02));
#623=CARTESIAN_POINT('',(-0.109532531054077,-0.471827494193817,0.));
#624=CARTESIAN_POINT('',(-0.00953253105407695,-0.471827494193817,0.));
#625=CARTESIAN_POINT('',(0.0904674689459231,-0.471827494193817,0.));
#626=CARTESIAN_POINT('',(0.0904674689459231,-0.471827494193817,0.02));
#627=CARTESIAN_POINT('',(-0.055532531054077,-0.471827494193817,0.018));
#628=CARTESIAN_POINT('',(-0.055532531054077,-0.471827494193817,0.016));
#629=CARTESIAN_POINT('',(-0.070532531054077,-0.471827494193817,0.016));
#630=CARTESIAN_POINT('',(-0.00953253105407695,-0.469327494193817,0.02));
#631=CARTESIAN_POINT('',(-0.00953253105407695,-0.469327494193817,0.02));
#632=CARTESIAN_POINT('',(-0.107032531054077,-0.469327494193817,0.02));
#633=CARTESIAN_POINT('',(-0.085532531054077,-0.469327494193817,0.02));
#634=CARTESIAN_POINT('',(-0.085532531054077,-0.469327494193817,0.018));
#635=CARTESIAN_POINT('',(-0.085532531054077,-0.469327494193817,0.016));
#636=CARTESIAN_POINT('',(-0.070532531054077,-0.469327494193817,0.016));
#637=CARTESIAN_POINT('',(-0.055532531054077,-0.469327494193817,0.016));
#638=CARTESIAN_POINT('',(-0.055532531054077,-0.469327494193817,0.018));
#639=CARTESIAN_POINT('',(0.0904674689459231,-0.469327494193817,0.02));
#640=CARTESIAN_POINT('',(0.0904674689459231,-0.469327494193817,0.0025));
#641=CARTESIAN_POINT('',(-0.00953253105407695,-0.469327494193817,0.0025));
#642=CARTESIAN_POINT('',(-0.107032531054077,-0.469327494193817,0.0025));
#643=CARTESIAN_POINT('',(-0.107032531054077,-0.469327494193817,0.02));
#644=CARTESIAN_POINT('',(-0.00953253105407693,-0.371827494193817,0.02));
#645=CARTESIAN_POINT('',(-0.107032531054077,-0.371827494193817,0.02));
#646=CARTESIAN_POINT('',(-0.107032531054077,-0.371827494193817,0.02));
#647=CARTESIAN_POINT('',(-0.107032531054077,-0.371827494193817,0.0025));
#648=CARTESIAN_POINT('',(-0.00953253105407693,-0.371827494193817,0.0025));
#649=CARTESIAN_POINT('',(0.0904674689459231,-0.371827494193817,0.0025));
#650=CARTESIAN_POINT('',(0.0904674689459231,-0.371827494193817,0.02));
#651=CARTESIAN_POINT('',(0.0904674689459231,-0.371827494193817,0.));
#652=CARTESIAN_POINT('',(-0.00953253105407693,-0.371827494193817,0.));
#653=CARTESIAN_POINT('',(-0.109532531054077,-0.371827494193817,0.));
#654=CARTESIAN_POINT('',(-0.109532531054077,-0.371827494193817,0.02));
#655=CARTESIAN_POINT('',(-0.109532531054077,-0.371827494193817,0.02));
#656=CARTESIAN_POINT('',(-0.00953253105407693,-0.371827494193817,0.02));
#657=CARTESIAN_POINT('',(0.0904674689459231,-0.421827494193817,0.02));
#658=CARTESIAN_POINT('',(0.0904674689459231,-0.421827494193817,0.0025));
#659=CARTESIAN_POINT('',(0.0904674689459231,-0.421827494193817,0.));
#660=CARTESIAN_POINT('',(-0.109532531054077,-0.421827494193817,0.02));
#661=CARTESIAN_POINT('',(-0.109532531054077,-0.421827494193817,0.));
#662=CARTESIAN_POINT('',(-0.109532531054077,-0.421827494193817,0.02));
#663=CARTESIAN_POINT('',(-0.0616736940725536,-0.0688652148425581,0.02));
#664=CARTESIAN_POINT('',(-0.085532531054077,-0.371825494193817,0.02));
#665=CARTESIAN_POINT('',(-0.107032531054077,-0.421827494193817,0.02));
#666=CARTESIAN_POINT('',(-0.0616736940725536,-0.0688652148425581,0.));
#667=CARTESIAN_POINT('',(-0.107032531054077,-0.421827494193817,0.02));
#668=CARTESIAN_POINT('',(-0.107032531054077,-0.421827494193817,0.0025));
#669=CARTESIAN_POINT('',(-0.0616736940725536,-0.0688652148425581,0.0025));
#670=CARTESIAN_POINT('',(-0.0990325310540769,-0.386327494193817,0.0025));
#671=CARTESIAN_POINT('',(-0.104032531054077,-0.386327494193817,0.0025));
#672=CARTESIAN_POINT('',(-0.0940325310540769,-0.386327494193817,0.0025));
#673=CARTESIAN_POINT('',(-0.0940325310540769,-0.426327494193817,0.0025));
#674=CARTESIAN_POINT('',(-0.0940325310540769,-0.466327494193817,0.0025));
#675=CARTESIAN_POINT('',(-0.0990325310540769,-0.466327494193817,0.0025));
#676=CARTESIAN_POINT('',(-0.104032531054077,-0.466327494193817,0.0025));
#677=CARTESIAN_POINT('',(-0.104032531054077,-0.426327494193817,0.0025));
#678=CARTESIAN_POINT('',(-0.0477044924151795,-0.461327494193817,0.0025));
#679=CARTESIAN_POINT('',(-0.0477044924151795,-0.466327494193817,0.0025));
#680=CARTESIAN_POINT('',(-0.0477044924151795,-0.456327494193817,0.0025));
#681=CARTESIAN_POINT('',(0.016987138631931,-0.456327494193817,0.0025));
#682=CARTESIAN_POINT('',(0.0816787696790416,-0.456327494193817,0.0025));
#683=CARTESIAN_POINT('',(0.0816787696790416,-0.461327494193817,0.0025));
#684=CARTESIAN_POINT('',(0.0816787696790416,-0.466327494193817,0.0025));
#685=CARTESIAN_POINT('',(0.016987138631931,-0.466327494193817,0.0025));
#686=CARTESIAN_POINT('',(0.0804674689459231,-0.381827494193817,0.0025));
#687=CARTESIAN_POINT('',(0.0854674689459231,-0.381827494193817,0.0025));
#688=CARTESIAN_POINT('',(-0.085532531054077,-0.371825494193817,0.018));
#689=CARTESIAN_POINT('',(-0.085532531054077,-0.371825494193817,0.016));
#690=CARTESIAN_POINT('',(-0.070532531054077,-0.371825494193817,0.016));
#691=CARTESIAN_POINT('',(-0.055532531054077,-0.371825494193817,0.016));
#692=CARTESIAN_POINT('',(-0.055532531054077,-0.371825494193817,0.018));
#693=CARTESIAN_POINT('',(0.0804674689459231,-0.381827494193817,0.0175));
#694=CARTESIAN_POINT('',(0.0804674689459231,-0.381827494193817,0.0175));
#695=CARTESIAN_POINT('',(0.0854674689459231,-0.381827494193817,0.0175));
#696=CARTESIAN_POINT('',(0.228276906226783,-0.295327494193817,0.0175));
#697=CARTESIAN_POINT('',(-0.0477044924151795,-0.461327494193817,0.0225));
#698=CARTESIAN_POINT('',(-0.0477044924151795,-0.466327494193817,0.0225));
#699=CARTESIAN_POINT('',(-0.0477044924151795,-0.466327494193817,0.0225));
#700=CARTESIAN_POINT('',(-0.0477044924151795,-0.461327494193817,0.0225));
#701=CARTESIAN_POINT('',(-0.0477044924151795,-0.456327494193817,0.0225));
#702=CARTESIAN_POINT('',(-0.0477044924151795,-0.456327494193817,0.0225));
#703=CARTESIAN_POINT('',(0.016987138631931,-0.466327494193817,0.0225));
#704=CARTESIAN_POINT('',(0.0816787696790416,-0.466327494193817,0.0225));
#705=CARTESIAN_POINT('',(0.0816787696790416,-0.466327494193817,0.0225));
#706=CARTESIAN_POINT('',(0.016987138631931,-0.466327494193817,0.0225));
#707=CARTESIAN_POINT('',(0.0816787696790416,-0.461327494193817,0.0225));
#708=CARTESIAN_POINT('',(0.0816787696790416,-0.456327494193817,0.0225));
#709=CARTESIAN_POINT('',(0.0816787696790416,-0.456327494193817,0.0225));
#710=CARTESIAN_POINT('',(0.0816787696790416,-0.461327494193817,0.0225));
#711=CARTESIAN_POINT('',(0.016987138631931,-0.456327494193817,0.0225));
#712=CARTESIAN_POINT('',(0.016987138631931,-0.456327494193817,0.0225));
#713=CARTESIAN_POINT('',(0.228276906226783,-0.295327494193817,0.0225));
#714=CARTESIAN_POINT('',(-0.0990325310540769,-0.386327494193817,0.0225));
#715=CARTESIAN_POINT('',(-0.104032531054077,-0.386327494193817,0.0225));
#716=CARTESIAN_POINT('',(-0.104032531054077,-0.386327494193817,0.0225));
#717=CARTESIAN_POINT('',(-0.0990325310540769,-0.386327494193817,0.0225));
#718=CARTESIAN_POINT('',(-0.0940325310540769,-0.386327494193817,0.0225));
#719=CARTESIAN_POINT('',(-0.0940325310540769,-0.386327494193817,0.0225));
#720=CARTESIAN_POINT('',(-0.104032531054077,-0.426327494193817,0.0225));
#721=CARTESIAN_POINT('',(-0.104032531054077,-0.466327494193817,0.0225));
#722=CARTESIAN_POINT('',(-0.104032531054077,-0.466327494193817,0.0225));
#723=CARTESIAN_POINT('',(-0.104032531054077,-0.426327494193817,0.0225));
#724=CARTESIAN_POINT('',(-0.0990325310540769,-0.466327494193817,0.0225));
#725=CARTESIAN_POINT('',(-0.0940325310540769,-0.466327494193817,0.0225));
#726=CARTESIAN_POINT('',(-0.0940325310540769,-0.466327494193817,0.0225));
#727=CARTESIAN_POINT('',(-0.0990325310540769,-0.466327494193817,0.0225));
#728=CARTESIAN_POINT('',(-0.0940325310540769,-0.426327494193817,0.0225));
#729=CARTESIAN_POINT('',(-0.0940325310540769,-0.426327494193817,0.0225));
#730=CARTESIAN_POINT('',(0.228276906226783,-0.295327494193817,0.0225));
#731=MECHANICAL_DESIGN_GEOMETRIC_PRESENTATION_REPRESENTATION('',(#454),
#732);
#732=(
GEOMETRIC_REPRESENTATION_CONTEXT(3)
GLOBAL_UNCERTAINTY_ASSIGNED_CONTEXT((#733))
GLOBAL_UNIT_ASSIGNED_CONTEXT((#736,#735,#734))
REPRESENTATION_CONTEXT('BMat3O','TOP_LEVEL_ASSEMBLY_PART')
);
#733=UNCERTAINTY_MEASURE_WITH_UNIT(LENGTH_MEASURE(1.E-8),#736,
'DISTANCE_ACCURACY_VALUE','Maximum Tolerance applied to model');
#734=(
NAMED_UNIT(*)
SI_UNIT($,.STERADIAN.)
SOLID_ANGLE_UNIT()
);
#735=(
NAMED_UNIT(*)
PLANE_ANGLE_UNIT()
SI_UNIT($,.RADIAN.)
);
#736=(
LENGTH_UNIT()
NAMED_UNIT(*)
SI_UNIT($,.METRE.)
);
#737=PRODUCT_DEFINITION_SHAPE('','',#738);
#738=PRODUCT_DEFINITION('','',#740,#739);
#739=PRODUCT_DEFINITION_CONTEXT('',#746,'design');
#740=PRODUCT_DEFINITION_FORMATION_WITH_SPECIFIED_SOURCE('','',#742,
 .NOT_KNOWN.);
#741=PRODUCT_RELATED_PRODUCT_CATEGORY('','',(#742));
#742=PRODUCT('BMat3O','BMat3O','BMat3O',(#744));
#743=PRODUCT_CATEGORY('','');
#744=PRODUCT_CONTEXT('',#746,'mechanical');
#745=APPLICATION_PROTOCOL_DEFINITION('international standard',
'ap242_managed_model_based_3d_engineering',2020,#746);
#746=APPLICATION_CONTEXT('managed model based 3d engineering');
ENDSEC;
END-ISO-10303-21;
