ISO-10303-21;
HEADER;
/* Generated by software containing ST-Developer
 * from STEP Tools, Inc. (www.steptools.com) 
 */
/* OPTION: using custom renumber hook */

FILE_DESCRIPTION(
/* description */ ('STEP AP242 Edition 2',
'CAx-IF Rec.Pracs.---Representation and Presentation of Product Manufa
cturing Information (PMI)---4.0---2014-10-13',
'CAx-IF Rec.Pracs.---3D Tessellated Geometry---0.4---2014-09-14','2;1',
'CAx-IF Rec.Pracs.---User Defined Attributes---1.5---2016-08-15'),
/* implementation_level */ '2;1');

FILE_NAME(
/* name */ 'Part Studio 1 - BMat5O',
/* time_stamp */ '2026-05-20T23:41:51Z',
/* author */ (''),
/* organization */ (''),
/* preprocessor_version */ 'ST-DEVELOPER v20',
/* originating_system */ 'ONSHAPE BY PTC INC, 1.215',
/* authorisation */ '  ');

FILE_SCHEMA (('AP242_MANAGED_MODEL_BASED_3D_ENGINEERING_MIM_LF { 1 0 10303 442 3 1 4 }'));
ENDSEC;

DATA;
#10=SHAPE_REPRESENTATION_RELATIONSHIP('','',#291,#11);
#11=ADVANCED_BREP_SHAPE_REPRESENTATION('',(#289),#465);
#12=CYLINDRICAL_SURFACE('',#303,0.005);
#13=CYLINDRICAL_SURFACE('',#306,0.005);
#14=CIRCLE('',#301,0.005);
#15=CIRCLE('',#302,0.005);
#16=CIRCLE('',#304,0.005);
#17=CIRCLE('',#307,0.005);
#18=ORIENTED_EDGE('',*,*,#86,.F.);
#19=ORIENTED_EDGE('',*,*,#87,.T.);
#20=ORIENTED_EDGE('',*,*,#88,.T.);
#21=ORIENTED_EDGE('',*,*,#89,.F.);
#22=ORIENTED_EDGE('',*,*,#90,.F.);
#23=ORIENTED_EDGE('',*,*,#86,.T.);
#24=ORIENTED_EDGE('',*,*,#91,.T.);
#25=ORIENTED_EDGE('',*,*,#92,.F.);
#26=ORIENTED_EDGE('',*,*,#93,.F.);
#27=ORIENTED_EDGE('',*,*,#94,.T.);
#28=ORIENTED_EDGE('',*,*,#95,.F.);
#29=ORIENTED_EDGE('',*,*,#96,.F.);
#30=ORIENTED_EDGE('',*,*,#93,.T.);
#31=ORIENTED_EDGE('',*,*,#97,.T.);
#32=ORIENTED_EDGE('',*,*,#98,.T.);
#33=ORIENTED_EDGE('',*,*,#99,.F.);
#34=ORIENTED_EDGE('',*,*,#97,.F.);
#35=ORIENTED_EDGE('',*,*,#92,.T.);
#36=ORIENTED_EDGE('',*,*,#100,.F.);
#37=ORIENTED_EDGE('',*,*,#95,.T.);
#38=ORIENTED_EDGE('',*,*,#99,.T.);
#39=ORIENTED_EDGE('',*,*,#101,.F.);
#40=ORIENTED_EDGE('',*,*,#88,.F.);
#41=ORIENTED_EDGE('',*,*,#102,.T.);
#42=ORIENTED_EDGE('',*,*,#89,.T.);
#43=ORIENTED_EDGE('',*,*,#101,.T.);
#44=ORIENTED_EDGE('',*,*,#98,.F.);
#45=ORIENTED_EDGE('',*,*,#91,.F.);
#46=ORIENTED_EDGE('',*,*,#103,.F.);
#47=ORIENTED_EDGE('',*,*,#94,.F.);
#48=ORIENTED_EDGE('',*,*,#96,.T.);
#49=ORIENTED_EDGE('',*,*,#100,.T.);
#50=ORIENTED_EDGE('',*,*,#104,.T.);
#51=ORIENTED_EDGE('',*,*,#105,.T.);
#52=ORIENTED_EDGE('',*,*,#106,.F.);
#53=ORIENTED_EDGE('',*,*,#107,.F.);
#54=ORIENTED_EDGE('',*,*,#108,.F.);
#55=ORIENTED_EDGE('',*,*,#109,.F.);
#56=ORIENTED_EDGE('',*,*,#103,.T.);
#57=ORIENTED_EDGE('',*,*,#102,.F.);
#58=ORIENTED_EDGE('',*,*,#87,.F.);
#59=ORIENTED_EDGE('',*,*,#90,.T.);
#60=ORIENTED_EDGE('',*,*,#110,.F.);
#61=ORIENTED_EDGE('',*,*,#109,.T.);
#62=ORIENTED_EDGE('',*,*,#110,.T.);
#63=ORIENTED_EDGE('',*,*,#111,.F.);
#64=ORIENTED_EDGE('',*,*,#108,.T.);
#65=ORIENTED_EDGE('',*,*,#111,.T.);
#66=ORIENTED_EDGE('',*,*,#104,.F.);
#67=ORIENTED_EDGE('',*,*,#112,.F.);
#68=ORIENTED_EDGE('',*,*,#113,.T.);
#69=ORIENTED_EDGE('',*,*,#114,.T.);
#70=ORIENTED_EDGE('',*,*,#107,.T.);
#71=ORIENTED_EDGE('',*,*,#115,.F.);
#72=ORIENTED_EDGE('',*,*,#116,.F.);
#73=ORIENTED_EDGE('',*,*,#112,.T.);
#74=ORIENTED_EDGE('',*,*,#106,.T.);
#75=ORIENTED_EDGE('',*,*,#117,.F.);
#76=ORIENTED_EDGE('',*,*,#118,.F.);
#77=ORIENTED_EDGE('',*,*,#115,.T.);
#78=ORIENTED_EDGE('',*,*,#105,.F.);
#79=ORIENTED_EDGE('',*,*,#114,.F.);
#80=ORIENTED_EDGE('',*,*,#119,.T.);
#81=ORIENTED_EDGE('',*,*,#117,.T.);
#82=ORIENTED_EDGE('',*,*,#113,.F.);
#83=ORIENTED_EDGE('',*,*,#116,.T.);
#84=ORIENTED_EDGE('',*,*,#118,.T.);
#85=ORIENTED_EDGE('',*,*,#119,.F.);
#86=EDGE_CURVE('',#120,#121,#144,.T.);
#87=EDGE_CURVE('',#120,#122,#145,.T.);
#88=EDGE_CURVE('',#122,#123,#146,.T.);
#89=EDGE_CURVE('',#121,#123,#147,.T.);
#90=EDGE_CURVE('',#120,#124,#148,.T.);
#91=EDGE_CURVE('',#121,#125,#149,.T.);
#92=EDGE_CURVE('',#126,#125,#150,.T.);
#93=EDGE_CURVE('',#127,#126,#151,.T.);
#94=EDGE_CURVE('',#127,#124,#152,.T.);
#95=EDGE_CURVE('',#128,#129,#153,.T.);
#96=EDGE_CURVE('',#127,#128,#154,.T.);
#97=EDGE_CURVE('',#126,#129,#155,.T.);
#98=EDGE_CURVE('',#125,#130,#156,.T.);
#99=EDGE_CURVE('',#129,#130,#157,.T.);
#100=EDGE_CURVE('',#128,#131,#158,.T.);
#101=EDGE_CURVE('',#123,#130,#159,.T.);
#102=EDGE_CURVE('',#122,#131,#160,.T.);
#103=EDGE_CURVE('',#124,#131,#161,.T.);
#104=EDGE_CURVE('',#132,#133,#162,.T.);
#105=EDGE_CURVE('',#133,#134,#163,.T.);
#106=EDGE_CURVE('',#135,#134,#164,.T.);
#107=EDGE_CURVE('',#132,#135,#165,.T.);
#108=EDGE_CURVE('',#136,#136,#14,.T.);
#109=EDGE_CURVE('',#137,#137,#15,.T.);
#110=EDGE_CURVE('',#138,#138,#16,.T.);
#111=EDGE_CURVE('',#139,#139,#17,.T.);
#112=EDGE_CURVE('',#140,#132,#166,.T.);
#113=EDGE_CURVE('',#140,#141,#167,.T.);
#114=EDGE_CURVE('',#141,#133,#168,.T.);
#115=EDGE_CURVE('',#142,#135,#169,.T.);
#116=EDGE_CURVE('',#140,#142,#170,.T.);
#117=EDGE_CURVE('',#143,#134,#171,.T.);
#118=EDGE_CURVE('',#142,#143,#172,.T.);
#119=EDGE_CURVE('',#141,#143,#173,.T.);
#120=VERTEX_POINT('',#391);
#121=VERTEX_POINT('',#392);
#122=VERTEX_POINT('',#394);
#123=VERTEX_POINT('',#396);
#124=VERTEX_POINT('',#400);
#125=VERTEX_POINT('',#402);
#126=VERTEX_POINT('',#404);
#127=VERTEX_POINT('',#406);
#128=VERTEX_POINT('',#410);
#129=VERTEX_POINT('',#411);
#130=VERTEX_POINT('',#416);
#131=VERTEX_POINT('',#420);
#132=VERTEX_POINT('',#428);
#133=VERTEX_POINT('',#429);
#134=VERTEX_POINT('',#431);
#135=VERTEX_POINT('',#433);
#136=VERTEX_POINT('',#436);
#137=VERTEX_POINT('',#438);
#138=VERTEX_POINT('',#441);
#139=VERTEX_POINT('',#445);
#140=VERTEX_POINT('',#449);
#141=VERTEX_POINT('',#451);
#142=VERTEX_POINT('',#455);
#143=VERTEX_POINT('',#459);
#144=LINE('',#390,#174);
#145=LINE('',#393,#175);
#146=LINE('',#395,#176);
#147=LINE('',#397,#177);
#148=LINE('',#399,#178);
#149=LINE('',#401,#179);
#150=LINE('',#403,#180);
#151=LINE('',#405,#181);
#152=LINE('',#407,#182);
#153=LINE('',#409,#183);
#154=LINE('',#412,#184);
#155=LINE('',#413,#185);
#156=LINE('',#415,#186);
#157=LINE('',#417,#187);
#158=LINE('',#419,#188);
#159=LINE('',#421,#189);
#160=LINE('',#422,#190);
#161=LINE('',#425,#191);
#162=LINE('',#427,#192);
#163=LINE('',#430,#193);
#164=LINE('',#432,#194);
#165=LINE('',#434,#195);
#166=LINE('',#448,#196);
#167=LINE('',#450,#197);
#168=LINE('',#452,#198);
#169=LINE('',#454,#199);
#170=LINE('',#456,#200);
#171=LINE('',#458,#201);
#172=LINE('',#460,#202);
#173=LINE('',#462,#203);
#174=VECTOR('',#318,1.);
#175=VECTOR('',#319,1.);
#176=VECTOR('',#320,1.);
#177=VECTOR('',#321,1.);
#178=VECTOR('',#324,1.);
#179=VECTOR('',#325,1.);
#180=VECTOR('',#326,1.);
#181=VECTOR('',#327,1.);
#182=VECTOR('',#328,1.);
#183=VECTOR('',#331,1.);
#184=VECTOR('',#332,1.);
#185=VECTOR('',#333,1.);
#186=VECTOR('',#336,1.);
#187=VECTOR('',#337,1.);
#188=VECTOR('',#340,1.);
#189=VECTOR('',#341,1.);
#190=VECTOR('',#342,1.);
#191=VECTOR('',#347,1.);
#192=VECTOR('',#350,1.);
#193=VECTOR('',#351,1.);
#194=VECTOR('',#352,1.);
#195=VECTOR('',#353,1.);
#196=VECTOR('',#372,1.);
#197=VECTOR('',#373,1.);
#198=VECTOR('',#374,1.);
#199=VECTOR('',#377,1.);
#200=VECTOR('',#378,1.);
#201=VECTOR('',#381,1.);
#202=VECTOR('',#382,1.);
#203=VECTOR('',#385,1.);
#204=EDGE_LOOP('',(#18,#19,#20,#21));
#205=EDGE_LOOP('',(#22,#23,#24,#25,#26,#27));
#206=EDGE_LOOP('',(#28,#29,#30,#31));
#207=EDGE_LOOP('',(#32,#33,#34,#35));
#208=EDGE_LOOP('',(#36,#37,#38,#39,#40,#41));
#209=EDGE_LOOP('',(#42,#43,#44,#45));
#210=EDGE_LOOP('',(#46,#47,#48,#49));
#211=EDGE_LOOP('',(#50,#51,#52,#53));
#212=EDGE_LOOP('',(#54));
#213=EDGE_LOOP('',(#55));
#214=EDGE_LOOP('',(#56,#57,#58,#59));
#215=EDGE_LOOP('',(#60));
#216=EDGE_LOOP('',(#61));
#217=EDGE_LOOP('',(#62));
#218=EDGE_LOOP('',(#63));
#219=EDGE_LOOP('',(#64));
#220=EDGE_LOOP('',(#65));
#221=EDGE_LOOP('',(#66,#67,#68,#69));
#222=EDGE_LOOP('',(#70,#71,#72,#73));
#223=EDGE_LOOP('',(#74,#75,#76,#77));
#224=EDGE_LOOP('',(#78,#79,#80,#81));
#225=EDGE_LOOP('',(#82,#83,#84,#85));
#226=FACE_BOUND('',#204,.T.);
#227=FACE_BOUND('',#205,.T.);
#228=FACE_BOUND('',#206,.T.);
#229=FACE_BOUND('',#207,.T.);
#230=FACE_BOUND('',#208,.T.);
#231=FACE_BOUND('',#209,.T.);
#232=FACE_BOUND('',#210,.T.);
#233=FACE_BOUND('',#211,.T.);
#234=FACE_BOUND('',#212,.T.);
#235=FACE_BOUND('',#213,.T.);
#236=FACE_BOUND('',#214,.T.);
#237=FACE_BOUND('',#215,.T.);
#238=FACE_BOUND('',#216,.T.);
#239=FACE_BOUND('',#217,.T.);
#240=FACE_BOUND('',#218,.T.);
#241=FACE_BOUND('',#219,.T.);
#242=FACE_BOUND('',#220,.T.);
#243=FACE_BOUND('',#221,.T.);
#244=FACE_BOUND('',#222,.T.);
#245=FACE_BOUND('',#223,.T.);
#246=FACE_BOUND('',#224,.T.);
#247=FACE_BOUND('',#225,.T.);
#248=PLANE('',#293);
#249=PLANE('',#294);
#250=PLANE('',#295);
#251=PLANE('',#296);
#252=PLANE('',#297);
#253=PLANE('',#298);
#254=PLANE('',#299);
#255=PLANE('',#300);
#256=PLANE('',#305);
#257=PLANE('',#308);
#258=PLANE('',#309);
#259=PLANE('',#310);
#260=PLANE('',#311);
#261=PLANE('',#312);
#262=PLANE('',#313);
#263=ADVANCED_FACE('',(#226),#248,.T.);
#264=ADVANCED_FACE('',(#227),#249,.F.);
#265=ADVANCED_FACE('',(#228),#250,.T.);
#266=ADVANCED_FACE('',(#229),#251,.F.);
#267=ADVANCED_FACE('',(#230),#252,.T.);
#268=ADVANCED_FACE('',(#231),#253,.F.);
#269=ADVANCED_FACE('',(#232),#254,.T.);
#270=ADVANCED_FACE('',(#233,#234,#235,#236),#255,.T.);
#271=ADVANCED_FACE('',(#237,#238),#12,.T.);
#272=ADVANCED_FACE('',(#239),#256,.T.);
#273=ADVANCED_FACE('',(#240,#241),#13,.T.);
#274=ADVANCED_FACE('',(#242),#257,.T.);
#275=ADVANCED_FACE('',(#243),#258,.T.);
#276=ADVANCED_FACE('',(#244),#259,.F.);
#277=ADVANCED_FACE('',(#245),#260,.F.);
#278=ADVANCED_FACE('',(#246),#261,.T.);
#279=ADVANCED_FACE('',(#247),#262,.T.);
#280=CLOSED_SHELL('',(#263,#264,#265,#266,#267,#268,#269,#270,#271,#272,
#273,#274,#275,#276,#277,#278,#279));
#281=STYLED_ITEM('',(#282),#289);
#282=PRESENTATION_STYLE_ASSIGNMENT((#283));
#283=SURFACE_STYLE_USAGE(.BOTH.,#284);
#284=SURFACE_SIDE_STYLE('',(#285));
#285=SURFACE_STYLE_FILL_AREA(#286);
#286=FILL_AREA_STYLE('',(#287));
#287=FILL_AREA_STYLE_COLOUR('',#288);
#288=COLOUR_RGB('',0.972549019607843,0.529411764705882,0.00392156862745098);
#289=MANIFOLD_SOLID_BREP('BMat5O',#280);
#290=SHAPE_DEFINITION_REPRESENTATION(#470,#291);
#291=SHAPE_REPRESENTATION('BMat5O',(#292),#465);
#292=AXIS2_PLACEMENT_3D('',#388,#314,#315);
#293=AXIS2_PLACEMENT_3D('',#389,#316,#317);
#294=AXIS2_PLACEMENT_3D('',#398,#322,#323);
#295=AXIS2_PLACEMENT_3D('',#408,#329,#330);
#296=AXIS2_PLACEMENT_3D('',#414,#334,#335);
#297=AXIS2_PLACEMENT_3D('',#418,#338,#339);
#298=AXIS2_PLACEMENT_3D('',#423,#343,#344);
#299=AXIS2_PLACEMENT_3D('',#424,#345,#346);
#300=AXIS2_PLACEMENT_3D('',#426,#348,#349);
#301=AXIS2_PLACEMENT_3D('',#435,#354,#355);
#302=AXIS2_PLACEMENT_3D('',#437,#356,#357);
#303=AXIS2_PLACEMENT_3D('',#439,#358,#359);
#304=AXIS2_PLACEMENT_3D('',#440,#360,#361);
#305=AXIS2_PLACEMENT_3D('',#442,#362,#363);
#306=AXIS2_PLACEMENT_3D('',#443,#364,#365);
#307=AXIS2_PLACEMENT_3D('',#444,#366,#367);
#308=AXIS2_PLACEMENT_3D('',#446,#368,#369);
#309=AXIS2_PLACEMENT_3D('',#447,#370,#371);
#310=AXIS2_PLACEMENT_3D('',#453,#375,#376);
#311=AXIS2_PLACEMENT_3D('',#457,#379,#380);
#312=AXIS2_PLACEMENT_3D('',#461,#383,#384);
#313=AXIS2_PLACEMENT_3D('',#463,#386,#387);
#314=DIRECTION('',(0.,0.,1.));
#315=DIRECTION('',(1.,0.,0.));
#316=DIRECTION('',(0.,1.,0.));
#317=DIRECTION('',(0.,0.,1.));
#318=DIRECTION('',(0.,0.,-1.));
#319=DIRECTION('',(1.,0.,0.));
#320=DIRECTION('',(0.,0.,-1.));
#321=DIRECTION('',(1.,0.,0.));
#322=DIRECTION('',(1.,0.,0.));
#323=DIRECTION('',(0.,0.,-1.));
#324=DIRECTION('',(0.,-1.,0.));
#325=DIRECTION('',(0.,-1.,0.));
#326=DIRECTION('',(0.,0.,-1.));
#327=DIRECTION('',(0.,-1.,0.));
#328=DIRECTION('',(0.,0.,-1.));
#329=DIRECTION('',(0.,0.,1.));
#330=DIRECTION('',(1.,0.,0.));
#331=DIRECTION('',(0.,-1.,0.));
#332=DIRECTION('',(1.,0.,0.));
#333=DIRECTION('',(1.,0.,0.));
#334=DIRECTION('',(0.,1.,0.));
#335=DIRECTION('',(0.,0.,1.));
#336=DIRECTION('',(1.,0.,0.));
#337=DIRECTION('',(0.,0.,-1.));
#338=DIRECTION('',(1.,0.,0.));
#339=DIRECTION('',(0.,0.,-1.));
#340=DIRECTION('',(0.,0.,-1.));
#341=DIRECTION('',(0.,-1.,0.));
#342=DIRECTION('',(0.,-1.,0.));
#343=DIRECTION('',(0.,0.,1.));
#344=DIRECTION('',(1.,0.,0.));
#345=DIRECTION('',(0.,1.,0.));
#346=DIRECTION('',(0.,0.,1.));
#347=DIRECTION('',(1.,0.,0.));
#348=DIRECTION('',(0.,0.,1.));
#349=DIRECTION('',(1.,0.,0.));
#350=DIRECTION('',(1.,0.,0.));
#351=DIRECTION('',(0.,-1.,0.));
#352=DIRECTION('',(1.,0.,0.));
#353=DIRECTION('',(0.,-1.,0.));
#354=DIRECTION('',(0.,0.,1.));
#355=DIRECTION('',(1.,0.,0.));
#356=DIRECTION('',(0.,0.,1.));
#357=DIRECTION('',(1.,0.,0.));
#358=DIRECTION('',(0.,0.,-1.));
#359=DIRECTION('',(-1.,0.,0.));
#360=DIRECTION('',(0.,0.,1.));
#361=DIRECTION('',(1.,0.,0.));
#362=DIRECTION('',(0.,0.,1.));
#363=DIRECTION('',(1.,0.,0.));
#364=DIRECTION('',(0.,0.,-1.));
#365=DIRECTION('',(-1.,0.,0.));
#366=DIRECTION('',(0.,0.,1.));
#367=DIRECTION('',(1.,0.,0.));
#368=DIRECTION('',(0.,0.,1.));
#369=DIRECTION('',(1.,0.,0.));
#370=DIRECTION('',(0.,1.,0.));
#371=DIRECTION('',(0.,0.,1.));
#372=DIRECTION('',(0.,0.,-1.));
#373=DIRECTION('',(1.,0.,0.));
#374=DIRECTION('',(0.,0.,-1.));
#375=DIRECTION('',(1.,0.,0.));
#376=DIRECTION('',(0.,0.,-1.));
#377=DIRECTION('',(0.,0.,-1.));
#378=DIRECTION('',(0.,-1.,0.));
#379=DIRECTION('',(0.,1.,0.));
#380=DIRECTION('',(0.,0.,1.));
#381=DIRECTION('',(0.,0.,-1.));
#382=DIRECTION('',(1.,0.,0.));
#383=DIRECTION('',(1.,0.,0.));
#384=DIRECTION('',(0.,0.,-1.));
#385=DIRECTION('',(0.,-1.,0.));
#386=DIRECTION('',(0.,0.,1.));
#387=DIRECTION('',(1.,0.,0.));
#388=CARTESIAN_POINT('',(0.,0.,0.));
#389=CARTESIAN_POINT('',(0.210467468945923,-0.371827494193817,0.02));
#390=CARTESIAN_POINT('',(0.0904674689459231,-0.371827494193817,0.02));
#391=CARTESIAN_POINT('',(0.0904674689459231,-0.371827494193817,0.0025));
#392=CARTESIAN_POINT('',(0.0904674689459231,-0.371827494193817,0.));
#393=CARTESIAN_POINT('',(0.210467468945923,-0.371827494193817,0.0025));
#394=CARTESIAN_POINT('',(0.330467468945923,-0.371827494193817,0.0025));
#395=CARTESIAN_POINT('',(0.330467468945923,-0.371827494193817,0.02));
#396=CARTESIAN_POINT('',(0.330467468945923,-0.371827494193817,0.));
#397=CARTESIAN_POINT('',(0.210467468945923,-0.371827494193817,0.));
#398=CARTESIAN_POINT('',(0.0904674689459231,-0.421827494193817,0.02));
#399=CARTESIAN_POINT('',(0.0904674689459231,-0.421827494193817,0.0025));
#400=CARTESIAN_POINT('',(0.0904674689459231,-0.469327494193817,0.0025));
#401=CARTESIAN_POINT('',(0.0904674689459231,-0.421827494193817,0.));
#402=CARTESIAN_POINT('',(0.0904674689459231,-0.471827494193817,0.));
#403=CARTESIAN_POINT('',(0.0904674689459231,-0.471827494193817,0.02));
#404=CARTESIAN_POINT('',(0.0904674689459231,-0.471827494193817,0.02));
#405=CARTESIAN_POINT('',(0.0904674689459231,-0.421827494193817,0.02));
#406=CARTESIAN_POINT('',(0.0904674689459231,-0.469327494193817,0.02));
#407=CARTESIAN_POINT('',(0.0904674689459231,-0.469327494193817,0.02));
#408=CARTESIAN_POINT('',(-0.0616736940725536,-0.0688652148425581,0.02));
#409=CARTESIAN_POINT('',(0.330467468945923,-0.421827494193817,0.02));
#410=CARTESIAN_POINT('',(0.330467468945923,-0.469327494193817,0.02));
#411=CARTESIAN_POINT('',(0.330467468945923,-0.471827494193817,0.02));
#412=CARTESIAN_POINT('',(0.210467468945923,-0.469327494193817,0.02));
#413=CARTESIAN_POINT('',(0.210467468945923,-0.471827494193817,0.02));
#414=CARTESIAN_POINT('',(0.210467468945923,-0.471827494193817,0.02));
#415=CARTESIAN_POINT('',(0.210467468945923,-0.471827494193817,0.));
#416=CARTESIAN_POINT('',(0.330467468945923,-0.471827494193817,0.));
#417=CARTESIAN_POINT('',(0.330467468945923,-0.471827494193817,0.02));
#418=CARTESIAN_POINT('',(0.330467468945923,-0.421827494193817,0.02));
#419=CARTESIAN_POINT('',(0.330467468945923,-0.469327494193817,0.02));
#420=CARTESIAN_POINT('',(0.330467468945923,-0.469327494193817,0.0025));
#421=CARTESIAN_POINT('',(0.330467468945923,-0.421827494193817,0.));
#422=CARTESIAN_POINT('',(0.330467468945923,-0.421827494193817,0.0025));
#423=CARTESIAN_POINT('',(-0.0616736940725536,-0.0688652148425581,0.));
#424=CARTESIAN_POINT('',(0.210467468945923,-0.469327494193817,0.02));
#425=CARTESIAN_POINT('',(0.210467468945923,-0.469327494193817,0.0025));
#426=CARTESIAN_POINT('',(-0.0616736940725536,-0.0688652148425581,0.0025));
#427=CARTESIAN_POINT('',(0.208073441227209,-0.456327494193817,0.0025));
#428=CARTESIAN_POINT('',(0.101730675629068,-0.456327494193817,0.0025));
#429=CARTESIAN_POINT('',(0.31441620682535,-0.456327494193817,0.0025));
#430=CARTESIAN_POINT('',(0.31441620682535,-0.461327494193817,0.0025));
#431=CARTESIAN_POINT('',(0.31441620682535,-0.466327494193817,0.0025));
#432=CARTESIAN_POINT('',(0.208073441227209,-0.466327494193817,0.0025));
#433=CARTESIAN_POINT('',(0.101730675629068,-0.466327494193817,0.0025));
#434=CARTESIAN_POINT('',(0.101730675629068,-0.461327494193817,0.0025));
#435=CARTESIAN_POINT('',(0.100467468945923,-0.381827494193817,0.0025));
#436=CARTESIAN_POINT('',(0.105467468945923,-0.381827494193817,0.0025));
#437=CARTESIAN_POINT('',(0.320467468945923,-0.381827494193817,0.0025));
#438=CARTESIAN_POINT('',(0.325467468945923,-0.381827494193817,0.0025));
#439=CARTESIAN_POINT('',(0.320467468945923,-0.381827494193817,0.0175));
#440=CARTESIAN_POINT('',(0.320467468945923,-0.381827494193817,0.0175));
#441=CARTESIAN_POINT('',(0.325467468945923,-0.381827494193817,0.0175));
#442=CARTESIAN_POINT('',(0.228276906226783,-0.295327494193817,0.0175));
#443=CARTESIAN_POINT('',(0.100467468945923,-0.381827494193817,0.0175));
#444=CARTESIAN_POINT('',(0.100467468945923,-0.381827494193817,0.0175));
#445=CARTESIAN_POINT('',(0.105467468945923,-0.381827494193817,0.0175));
#446=CARTESIAN_POINT('',(0.228276906226783,-0.295327494193817,0.0175));
#447=CARTESIAN_POINT('',(0.208073441227209,-0.456327494193817,0.0225));
#448=CARTESIAN_POINT('',(0.101730675629068,-0.456327494193817,0.0225));
#449=CARTESIAN_POINT('',(0.101730675629068,-0.456327494193817,0.0225));
#450=CARTESIAN_POINT('',(0.208073441227209,-0.456327494193817,0.0225));
#451=CARTESIAN_POINT('',(0.31441620682535,-0.456327494193817,0.0225));
#452=CARTESIAN_POINT('',(0.31441620682535,-0.456327494193817,0.0225));
#453=CARTESIAN_POINT('',(0.101730675629068,-0.461327494193817,0.0225));
#454=CARTESIAN_POINT('',(0.101730675629068,-0.466327494193817,0.0225));
#455=CARTESIAN_POINT('',(0.101730675629068,-0.466327494193817,0.0225));
#456=CARTESIAN_POINT('',(0.101730675629068,-0.461327494193817,0.0225));
#457=CARTESIAN_POINT('',(0.208073441227209,-0.466327494193817,0.0225));
#458=CARTESIAN_POINT('',(0.31441620682535,-0.466327494193817,0.0225));
#459=CARTESIAN_POINT('',(0.31441620682535,-0.466327494193817,0.0225));
#460=CARTESIAN_POINT('',(0.208073441227209,-0.466327494193817,0.0225));
#461=CARTESIAN_POINT('',(0.31441620682535,-0.461327494193817,0.0225));
#462=CARTESIAN_POINT('',(0.31441620682535,-0.461327494193817,0.0225));
#463=CARTESIAN_POINT('',(0.228276906226783,-0.295327494193817,0.0225));
#464=MECHANICAL_DESIGN_GEOMETRIC_PRESENTATION_REPRESENTATION('',(#281),
#465);
#465=(
GEOMETRIC_REPRESENTATION_CONTEXT(3)
GLOBAL_UNCERTAINTY_ASSIGNED_CONTEXT((#466))
GLOBAL_UNIT_ASSIGNED_CONTEXT((#469,#468,#467))
REPRESENTATION_CONTEXT('BMat5O','TOP_LEVEL_ASSEMBLY_PART')
);
#466=UNCERTAINTY_MEASURE_WITH_UNIT(LENGTH_MEASURE(1.E-8),#469,
'DISTANCE_ACCURACY_VALUE','Maximum Tolerance applied to model');
#467=(
NAMED_UNIT(*)
SI_UNIT($,.STERADIAN.)
SOLID_ANGLE_UNIT()
);
#468=(
NAMED_UNIT(*)
PLANE_ANGLE_UNIT()
SI_UNIT($,.RADIAN.)
);
#469=(
LENGTH_UNIT()
NAMED_UNIT(*)
SI_UNIT($,.METRE.)
);
#470=PRODUCT_DEFINITION_SHAPE('','',#471);
#471=PRODUCT_DEFINITION('','',#473,#472);
#472=PRODUCT_DEFINITION_CONTEXT('',#479,'design');
#473=PRODUCT_DEFINITION_FORMATION_WITH_SPECIFIED_SOURCE('','',#475,
 .NOT_KNOWN.);
#474=PRODUCT_RELATED_PRODUCT_CATEGORY('','',(#475));
#475=PRODUCT('BMat5O','BMat5O','BMat5O',(#477));
#476=PRODUCT_CATEGORY('','');
#477=PRODUCT_CONTEXT('',#479,'mechanical');
#478=APPLICATION_PROTOCOL_DEFINITION('international standard',
'ap242_managed_model_based_3d_engineering',2020,#479);
#479=APPLICATION_CONTEXT('managed model based 3d engineering');
ENDSEC;
END-ISO-10303-21;
