ISO-10303-21;
HEADER;
/* Generated by software containing ST-Developer
 * from STEP Tools, Inc. (www.steptools.com) 
 */
/* OPTION: using custom renumber hook */

FILE_DESCRIPTION(
/* description */ ('STEP AP242 Edition 2',
'CAx-IF Rec.Pracs.---Representation and Presentation of Product Manufa
cturing Information (PMI)---4.0---2014-10-13',
'CAx-IF Rec.Pracs.---3D Tessellated Geometry---0.4---2014-09-14','2;1',
'CAx-IF Rec.Pracs.---User Defined Attributes---1.5---2016-08-15'),
/* implementation_level */ '2;1');

FILE_NAME(
/* name */ 'Part Studio 1 - TMat4',
/* time_stamp */ '2026-05-20T23:41:51Z',
/* author */ (''),
/* organization */ (''),
/* preprocessor_version */ 'ST-DEVELOPER v20',
/* originating_system */ 'ONSHAPE BY PTC INC, 1.215',
/* authorisation */ '  ');

FILE_SCHEMA (('AP242_MANAGED_MODEL_BASED_3D_ENGINEERING_MIM_LF { 1 0 10303 442 3 1 4 }'));
ENDSEC;

DATA;
#10=SHAPE_REPRESENTATION_RELATIONSHIP('','',#858,#11);
#11=ADVANCED_BREP_SHAPE_REPRESENTATION('',(#856),#1356);
#12=PLANE('',#863);
#13=PLANE('',#864);
#14=PLANE('',#865);
#15=PLANE('',#866);
#16=PLANE('',#867);
#17=PLANE('',#868);
#18=PLANE('',#869);
#19=PLANE('',#870);
#20=PLANE('',#871);
#21=PLANE('',#872);
#22=PLANE('',#873);
#23=PLANE('',#874);
#24=PLANE('',#878);
#25=PLANE('',#879);
#26=PLANE('',#880);
#27=PLANE('',#884);
#28=PLANE('',#885);
#29=PLANE('',#886);
#30=PLANE('',#887);
#31=PLANE('',#888);
#32=PLANE('',#889);
#33=PLANE('',#890);
#34=PLANE('',#891);
#35=PLANE('',#892);
#36=PLANE('',#893);
#37=PLANE('',#894);
#38=PLANE('',#895);
#39=PLANE('',#896);
#40=PLANE('',#897);
#41=PLANE('',#898);
#42=PLANE('',#899);
#43=PLANE('',#900);
#44=PLANE('',#901);
#45=PLANE('',#902);
#46=PLANE('',#903);
#47=PLANE('',#904);
#48=PLANE('',#905);
#49=PLANE('',#906);
#50=PLANE('',#907);
#51=PLANE('',#908);
#52=CIRCLE('',#861,0.002);
#53=CIRCLE('',#862,0.002);
#54=CIRCLE('',#876,0.00515);
#55=CIRCLE('',#877,0.00515);
#56=CIRCLE('',#882,0.00515);
#57=CIRCLE('',#883,0.00515);
#58=ORIENTED_EDGE('',*,*,#288,.F.);
#59=ORIENTED_EDGE('',*,*,#289,.F.);
#60=ORIENTED_EDGE('',*,*,#290,.F.);
#61=ORIENTED_EDGE('',*,*,#291,.F.);
#62=ORIENTED_EDGE('',*,*,#292,.F.);
#63=ORIENTED_EDGE('',*,*,#293,.T.);
#64=ORIENTED_EDGE('',*,*,#294,.F.);
#65=ORIENTED_EDGE('',*,*,#295,.F.);
#66=ORIENTED_EDGE('',*,*,#296,.T.);
#67=ORIENTED_EDGE('',*,*,#297,.F.);
#68=ORIENTED_EDGE('',*,*,#298,.F.);
#69=ORIENTED_EDGE('',*,*,#299,.T.);
#70=ORIENTED_EDGE('',*,*,#300,.T.);
#71=ORIENTED_EDGE('',*,*,#301,.F.);
#72=ORIENTED_EDGE('',*,*,#302,.T.);
#73=ORIENTED_EDGE('',*,*,#303,.T.);
#74=ORIENTED_EDGE('',*,*,#304,.F.);
#75=ORIENTED_EDGE('',*,*,#305,.F.);
#76=ORIENTED_EDGE('',*,*,#306,.T.);
#77=ORIENTED_EDGE('',*,*,#307,.T.);
#78=ORIENTED_EDGE('',*,*,#308,.T.);
#79=ORIENTED_EDGE('',*,*,#309,.F.);
#80=ORIENTED_EDGE('',*,*,#310,.T.);
#81=ORIENTED_EDGE('',*,*,#311,.T.);
#82=ORIENTED_EDGE('',*,*,#312,.T.);
#83=ORIENTED_EDGE('',*,*,#313,.F.);
#84=ORIENTED_EDGE('',*,*,#314,.F.);
#85=ORIENTED_EDGE('',*,*,#315,.T.);
#86=ORIENTED_EDGE('',*,*,#316,.T.);
#87=ORIENTED_EDGE('',*,*,#317,.F.);
#88=ORIENTED_EDGE('',*,*,#318,.F.);
#89=ORIENTED_EDGE('',*,*,#319,.F.);
#90=ORIENTED_EDGE('',*,*,#320,.F.);
#91=ORIENTED_EDGE('',*,*,#288,.T.);
#92=ORIENTED_EDGE('',*,*,#321,.T.);
#93=ORIENTED_EDGE('',*,*,#322,.F.);
#94=ORIENTED_EDGE('',*,*,#323,.T.);
#95=ORIENTED_EDGE('',*,*,#324,.T.);
#96=ORIENTED_EDGE('',*,*,#298,.T.);
#97=ORIENTED_EDGE('',*,*,#325,.F.);
#98=ORIENTED_EDGE('',*,*,#293,.F.);
#99=ORIENTED_EDGE('',*,*,#326,.T.);
#100=ORIENTED_EDGE('',*,*,#327,.F.);
#101=ORIENTED_EDGE('',*,*,#328,.F.);
#102=ORIENTED_EDGE('',*,*,#329,.F.);
#103=ORIENTED_EDGE('',*,*,#330,.F.);
#104=ORIENTED_EDGE('',*,*,#331,.T.);
#105=ORIENTED_EDGE('',*,*,#297,.T.);
#106=ORIENTED_EDGE('',*,*,#332,.T.);
#107=ORIENTED_EDGE('',*,*,#333,.T.);
#108=ORIENTED_EDGE('',*,*,#334,.T.);
#109=ORIENTED_EDGE('',*,*,#335,.F.);
#110=ORIENTED_EDGE('',*,*,#336,.T.);
#111=ORIENTED_EDGE('',*,*,#300,.F.);
#112=ORIENTED_EDGE('',*,*,#337,.T.);
#113=ORIENTED_EDGE('',*,*,#338,.T.);
#114=ORIENTED_EDGE('',*,*,#339,.F.);
#115=ORIENTED_EDGE('',*,*,#340,.F.);
#116=ORIENTED_EDGE('',*,*,#341,.F.);
#117=ORIENTED_EDGE('',*,*,#342,.T.);
#118=ORIENTED_EDGE('',*,*,#343,.F.);
#119=ORIENTED_EDGE('',*,*,#344,.T.);
#120=ORIENTED_EDGE('',*,*,#345,.F.);
#121=ORIENTED_EDGE('',*,*,#346,.F.);
#122=ORIENTED_EDGE('',*,*,#347,.F.);
#123=ORIENTED_EDGE('',*,*,#348,.T.);
#124=ORIENTED_EDGE('',*,*,#349,.T.);
#125=ORIENTED_EDGE('',*,*,#350,.F.);
#126=ORIENTED_EDGE('',*,*,#351,.F.);
#127=ORIENTED_EDGE('',*,*,#352,.F.);
#128=ORIENTED_EDGE('',*,*,#353,.T.);
#129=ORIENTED_EDGE('',*,*,#354,.T.);
#130=ORIENTED_EDGE('',*,*,#355,.F.);
#131=ORIENTED_EDGE('',*,*,#356,.T.);
#132=ORIENTED_EDGE('',*,*,#357,.T.);
#133=ORIENTED_EDGE('',*,*,#358,.T.);
#134=ORIENTED_EDGE('',*,*,#359,.T.);
#135=ORIENTED_EDGE('',*,*,#360,.T.);
#136=ORIENTED_EDGE('',*,*,#361,.F.);
#137=ORIENTED_EDGE('',*,*,#362,.F.);
#138=ORIENTED_EDGE('',*,*,#363,.T.);
#139=ORIENTED_EDGE('',*,*,#289,.T.);
#140=ORIENTED_EDGE('',*,*,#320,.T.);
#141=ORIENTED_EDGE('',*,*,#364,.T.);
#142=ORIENTED_EDGE('',*,*,#342,.F.);
#143=ORIENTED_EDGE('',*,*,#365,.F.);
#144=ORIENTED_EDGE('',*,*,#359,.F.);
#145=ORIENTED_EDGE('',*,*,#334,.F.);
#146=ORIENTED_EDGE('',*,*,#366,.F.);
#147=ORIENTED_EDGE('',*,*,#367,.F.);
#148=ORIENTED_EDGE('',*,*,#294,.T.);
#149=ORIENTED_EDGE('',*,*,#325,.T.);
#150=ORIENTED_EDGE('',*,*,#303,.F.);
#151=ORIENTED_EDGE('',*,*,#368,.F.);
#152=ORIENTED_EDGE('',*,*,#369,.T.);
#153=ORIENTED_EDGE('',*,*,#321,.F.);
#154=ORIENTED_EDGE('',*,*,#291,.T.);
#155=ORIENTED_EDGE('',*,*,#370,.F.);
#156=ORIENTED_EDGE('',*,*,#361,.T.);
#157=ORIENTED_EDGE('',*,*,#371,.T.);
#158=ORIENTED_EDGE('',*,*,#340,.T.);
#159=ORIENTED_EDGE('',*,*,#372,.F.);
#160=ORIENTED_EDGE('',*,*,#370,.T.);
#161=ORIENTED_EDGE('',*,*,#290,.T.);
#162=ORIENTED_EDGE('',*,*,#363,.F.);
#163=ORIENTED_EDGE('',*,*,#362,.T.);
#164=ORIENTED_EDGE('',*,*,#341,.T.);
#165=ORIENTED_EDGE('',*,*,#371,.F.);
#166=ORIENTED_EDGE('',*,*,#360,.F.);
#167=ORIENTED_EDGE('',*,*,#365,.T.);
#168=ORIENTED_EDGE('',*,*,#332,.F.);
#169=ORIENTED_EDGE('',*,*,#296,.F.);
#170=ORIENTED_EDGE('',*,*,#373,.T.);
#171=ORIENTED_EDGE('',*,*,#374,.T.);
#172=ORIENTED_EDGE('',*,*,#333,.F.);
#173=ORIENTED_EDGE('',*,*,#374,.F.);
#174=ORIENTED_EDGE('',*,*,#375,.T.);
#175=ORIENTED_EDGE('',*,*,#366,.T.);
#176=ORIENTED_EDGE('',*,*,#376,.T.);
#177=ORIENTED_EDGE('',*,*,#377,.T.);
#178=ORIENTED_EDGE('',*,*,#373,.F.);
#179=ORIENTED_EDGE('',*,*,#295,.T.);
#180=ORIENTED_EDGE('',*,*,#367,.T.);
#181=ORIENTED_EDGE('',*,*,#375,.F.);
#182=ORIENTED_EDGE('',*,*,#376,.F.);
#183=ORIENTED_EDGE('',*,*,#377,.F.);
#184=ORIENTED_EDGE('',*,*,#335,.T.);
#185=ORIENTED_EDGE('',*,*,#369,.F.);
#186=ORIENTED_EDGE('',*,*,#378,.F.);
#187=ORIENTED_EDGE('',*,*,#379,.T.);
#188=ORIENTED_EDGE('',*,*,#380,.T.);
#189=ORIENTED_EDGE('',*,*,#381,.T.);
#190=ORIENTED_EDGE('',*,*,#336,.F.);
#191=ORIENTED_EDGE('',*,*,#379,.F.);
#192=ORIENTED_EDGE('',*,*,#382,.T.);
#193=ORIENTED_EDGE('',*,*,#301,.T.);
#194=ORIENTED_EDGE('',*,*,#380,.F.);
#195=ORIENTED_EDGE('',*,*,#378,.T.);
#196=ORIENTED_EDGE('',*,*,#368,.T.);
#197=ORIENTED_EDGE('',*,*,#302,.F.);
#198=ORIENTED_EDGE('',*,*,#382,.F.);
#199=ORIENTED_EDGE('',*,*,#381,.F.);
#200=ORIENTED_EDGE('',*,*,#339,.T.);
#201=ORIENTED_EDGE('',*,*,#383,.T.);
#202=ORIENTED_EDGE('',*,*,#322,.T.);
#203=ORIENTED_EDGE('',*,*,#372,.T.);
#204=ORIENTED_EDGE('',*,*,#384,.T.);
#205=ORIENTED_EDGE('',*,*,#323,.F.);
#206=ORIENTED_EDGE('',*,*,#383,.F.);
#207=ORIENTED_EDGE('',*,*,#338,.F.);
#208=ORIENTED_EDGE('',*,*,#299,.F.);
#209=ORIENTED_EDGE('',*,*,#324,.F.);
#210=ORIENTED_EDGE('',*,*,#384,.F.);
#211=ORIENTED_EDGE('',*,*,#337,.F.);
#212=ORIENTED_EDGE('',*,*,#351,.T.);
#213=ORIENTED_EDGE('',*,*,#385,.T.);
#214=ORIENTED_EDGE('',*,*,#305,.T.);
#215=ORIENTED_EDGE('',*,*,#386,.F.);
#216=ORIENTED_EDGE('',*,*,#387,.T.);
#217=ORIENTED_EDGE('',*,*,#306,.F.);
#218=ORIENTED_EDGE('',*,*,#385,.F.);
#219=ORIENTED_EDGE('',*,*,#358,.F.);
#220=ORIENTED_EDGE('',*,*,#388,.T.);
#221=ORIENTED_EDGE('',*,*,#307,.F.);
#222=ORIENTED_EDGE('',*,*,#387,.F.);
#223=ORIENTED_EDGE('',*,*,#357,.F.);
#224=ORIENTED_EDGE('',*,*,#389,.T.);
#225=ORIENTED_EDGE('',*,*,#308,.F.);
#226=ORIENTED_EDGE('',*,*,#388,.F.);
#227=ORIENTED_EDGE('',*,*,#356,.F.);
#228=ORIENTED_EDGE('',*,*,#355,.T.);
#229=ORIENTED_EDGE('',*,*,#390,.T.);
#230=ORIENTED_EDGE('',*,*,#309,.T.);
#231=ORIENTED_EDGE('',*,*,#389,.F.);
#232=ORIENTED_EDGE('',*,*,#391,.T.);
#233=ORIENTED_EDGE('',*,*,#310,.F.);
#234=ORIENTED_EDGE('',*,*,#390,.F.);
#235=ORIENTED_EDGE('',*,*,#354,.F.);
#236=ORIENTED_EDGE('',*,*,#392,.T.);
#237=ORIENTED_EDGE('',*,*,#311,.F.);
#238=ORIENTED_EDGE('',*,*,#391,.F.);
#239=ORIENTED_EDGE('',*,*,#353,.F.);
#240=ORIENTED_EDGE('',*,*,#352,.T.);
#241=ORIENTED_EDGE('',*,*,#386,.T.);
#242=ORIENTED_EDGE('',*,*,#304,.T.);
#243=ORIENTED_EDGE('',*,*,#392,.F.);
#244=ORIENTED_EDGE('',*,*,#343,.T.);
#245=ORIENTED_EDGE('',*,*,#393,.T.);
#246=ORIENTED_EDGE('',*,*,#313,.T.);
#247=ORIENTED_EDGE('',*,*,#394,.F.);
#248=ORIENTED_EDGE('',*,*,#350,.T.);
#249=ORIENTED_EDGE('',*,*,#395,.T.);
#250=ORIENTED_EDGE('',*,*,#314,.T.);
#251=ORIENTED_EDGE('',*,*,#393,.F.);
#252=ORIENTED_EDGE('',*,*,#396,.T.);
#253=ORIENTED_EDGE('',*,*,#315,.F.);
#254=ORIENTED_EDGE('',*,*,#395,.F.);
#255=ORIENTED_EDGE('',*,*,#349,.F.);
#256=ORIENTED_EDGE('',*,*,#397,.T.);
#257=ORIENTED_EDGE('',*,*,#316,.F.);
#258=ORIENTED_EDGE('',*,*,#396,.F.);
#259=ORIENTED_EDGE('',*,*,#348,.F.);
#260=ORIENTED_EDGE('',*,*,#347,.T.);
#261=ORIENTED_EDGE('',*,*,#398,.T.);
#262=ORIENTED_EDGE('',*,*,#317,.T.);
#263=ORIENTED_EDGE('',*,*,#397,.F.);
#264=ORIENTED_EDGE('',*,*,#346,.T.);
#265=ORIENTED_EDGE('',*,*,#399,.T.);
#266=ORIENTED_EDGE('',*,*,#318,.T.);
#267=ORIENTED_EDGE('',*,*,#398,.F.);
#268=ORIENTED_EDGE('',*,*,#345,.T.);
#269=ORIENTED_EDGE('',*,*,#400,.T.);
#270=ORIENTED_EDGE('',*,*,#319,.T.);
#271=ORIENTED_EDGE('',*,*,#399,.F.);
#272=ORIENTED_EDGE('',*,*,#394,.T.);
#273=ORIENTED_EDGE('',*,*,#312,.F.);
#274=ORIENTED_EDGE('',*,*,#400,.F.);
#275=ORIENTED_EDGE('',*,*,#344,.F.);
#276=ORIENTED_EDGE('',*,*,#329,.T.);
#277=ORIENTED_EDGE('',*,*,#364,.F.);
#278=ORIENTED_EDGE('',*,*,#328,.T.);
#279=ORIENTED_EDGE('',*,*,#401,.F.);
#280=ORIENTED_EDGE('',*,*,#402,.T.);
#281=ORIENTED_EDGE('',*,*,#326,.F.);
#282=ORIENTED_EDGE('',*,*,#292,.T.);
#283=ORIENTED_EDGE('',*,*,#331,.F.);
#284=ORIENTED_EDGE('',*,*,#330,.T.);
#285=ORIENTED_EDGE('',*,*,#401,.T.);
#286=ORIENTED_EDGE('',*,*,#327,.T.);
#287=ORIENTED_EDGE('',*,*,#402,.F.);
#288=EDGE_CURVE('',#403,#404,#481,.T.);
#289=EDGE_CURVE('',#405,#403,#52,.F.);
#290=EDGE_CURVE('',#406,#405,#482,.F.);
#291=EDGE_CURVE('',#404,#406,#53,.T.);
#292=EDGE_CURVE('',#407,#408,#483,.T.);
#293=EDGE_CURVE('',#407,#409,#484,.T.);
#294=EDGE_CURVE('',#410,#409,#485,.T.);
#295=EDGE_CURVE('',#411,#410,#486,.T.);
#296=EDGE_CURVE('',#411,#412,#487,.T.);
#297=EDGE_CURVE('',#408,#412,#488,.T.);
#298=EDGE_CURVE('',#413,#414,#489,.T.);
#299=EDGE_CURVE('',#413,#415,#490,.T.);
#300=EDGE_CURVE('',#415,#416,#491,.T.);
#301=EDGE_CURVE('',#417,#416,#492,.T.);
#302=EDGE_CURVE('',#417,#418,#493,.T.);
#303=EDGE_CURVE('',#418,#414,#494,.T.);
#304=EDGE_CURVE('',#419,#420,#495,.T.);
#305=EDGE_CURVE('',#421,#419,#496,.T.);
#306=EDGE_CURVE('',#421,#422,#497,.T.);
#307=EDGE_CURVE('',#422,#423,#498,.T.);
#308=EDGE_CURVE('',#423,#424,#499,.T.);
#309=EDGE_CURVE('',#425,#424,#500,.T.);
#310=EDGE_CURVE('',#425,#426,#501,.T.);
#311=EDGE_CURVE('',#426,#420,#502,.T.);
#312=EDGE_CURVE('',#427,#428,#503,.T.);
#313=EDGE_CURVE('',#429,#428,#504,.T.);
#314=EDGE_CURVE('',#430,#429,#505,.T.);
#315=EDGE_CURVE('',#430,#431,#506,.T.);
#316=EDGE_CURVE('',#431,#432,#507,.T.);
#317=EDGE_CURVE('',#433,#432,#508,.T.);
#318=EDGE_CURVE('',#434,#433,#509,.T.);
#319=EDGE_CURVE('',#427,#434,#510,.T.);
#320=EDGE_CURVE('',#403,#435,#511,.T.);
#321=EDGE_CURVE('',#404,#436,#512,.T.);
#322=EDGE_CURVE('',#437,#436,#513,.T.);
#323=EDGE_CURVE('',#437,#438,#514,.T.);
#324=EDGE_CURVE('',#438,#413,#515,.T.);
#325=EDGE_CURVE('',#409,#414,#516,.T.);
#326=EDGE_CURVE('',#407,#439,#517,.T.);
#327=EDGE_CURVE('',#440,#439,#518,.T.);
#328=EDGE_CURVE('',#435,#440,#519,.T.);
#329=EDGE_CURVE('',#441,#442,#520,.T.);
#330=EDGE_CURVE('',#443,#441,#521,.T.);
#331=EDGE_CURVE('',#443,#408,#522,.T.);
#332=EDGE_CURVE('',#412,#444,#523,.T.);
#333=EDGE_CURVE('',#444,#445,#524,.T.);
#334=EDGE_CURVE('',#445,#446,#525,.T.);
#335=EDGE_CURVE('',#447,#446,#526,.T.);
#336=EDGE_CURVE('',#447,#416,#527,.T.);
#337=EDGE_CURVE('',#415,#448,#528,.T.);
#338=EDGE_CURVE('',#448,#449,#529,.T.);
#339=EDGE_CURVE('',#450,#449,#530,.T.);
#340=EDGE_CURVE('',#451,#450,#531,.T.);
#341=EDGE_CURVE('',#452,#451,#532,.T.);
#342=EDGE_CURVE('',#452,#442,#533,.T.);
#343=EDGE_CURVE('',#453,#454,#534,.T.);
#344=EDGE_CURVE('',#453,#455,#535,.T.);
#345=EDGE_CURVE('',#456,#455,#536,.T.);
#346=EDGE_CURVE('',#457,#456,#537,.T.);
#347=EDGE_CURVE('',#458,#457,#538,.T.);
#348=EDGE_CURVE('',#458,#459,#539,.T.);
#349=EDGE_CURVE('',#459,#460,#540,.T.);
#350=EDGE_CURVE('',#454,#460,#541,.T.);
#351=EDGE_CURVE('',#461,#462,#542,.T.);
#352=EDGE_CURVE('',#463,#461,#543,.T.);
#353=EDGE_CURVE('',#463,#464,#544,.T.);
#354=EDGE_CURVE('',#464,#465,#545,.T.);
#355=EDGE_CURVE('',#466,#465,#546,.T.);
#356=EDGE_CURVE('',#466,#467,#547,.T.);
#357=EDGE_CURVE('',#467,#468,#548,.T.);
#358=EDGE_CURVE('',#468,#462,#549,.T.);
#359=EDGE_CURVE('',#469,#470,#550,.T.);
#360=EDGE_CURVE('',#470,#471,#551,.T.);
#361=EDGE_CURVE('',#472,#471,#552,.T.);
#362=EDGE_CURVE('',#469,#472,#553,.T.);
#363=EDGE_CURVE('',#469,#405,#554,.T.);
#364=EDGE_CURVE('',#435,#442,#555,.T.);
#365=EDGE_CURVE('',#470,#452,#556,.T.);
#366=EDGE_CURVE('',#473,#445,#557,.T.);
#367=EDGE_CURVE('',#410,#473,#558,.T.);
#368=EDGE_CURVE('',#474,#418,#559,.T.);
#369=EDGE_CURVE('',#474,#446,#560,.T.);
#370=EDGE_CURVE('',#472,#406,#561,.T.);
#371=EDGE_CURVE('',#471,#451,#562,.T.);
#372=EDGE_CURVE('',#436,#450,#563,.T.);
#373=EDGE_CURVE('',#411,#475,#564,.T.);
#374=EDGE_CURVE('',#475,#444,#565,.T.);
#375=EDGE_CURVE('',#475,#473,#566,.T.);
#376=EDGE_CURVE('',#476,#476,#54,.T.);
#377=EDGE_CURVE('',#477,#477,#55,.F.);
#378=EDGE_CURVE('',#478,#474,#567,.T.);
#379=EDGE_CURVE('',#478,#447,#568,.T.);
#380=EDGE_CURVE('',#479,#479,#56,.T.);
#381=EDGE_CURVE('',#480,#480,#57,.F.);
#382=EDGE_CURVE('',#478,#417,#569,.T.);
#383=EDGE_CURVE('',#449,#437,#570,.T.);
#384=EDGE_CURVE('',#448,#438,#571,.T.);
#385=EDGE_CURVE('',#462,#421,#572,.T.);
#386=EDGE_CURVE('',#461,#419,#573,.T.);
#387=EDGE_CURVE('',#468,#422,#574,.T.);
#388=EDGE_CURVE('',#467,#423,#575,.T.);
#389=EDGE_CURVE('',#466,#424,#576,.T.);
#390=EDGE_CURVE('',#465,#425,#577,.T.);
#391=EDGE_CURVE('',#464,#426,#578,.T.);
#392=EDGE_CURVE('',#463,#420,#579,.T.);
#393=EDGE_CURVE('',#454,#429,#580,.T.);
#394=EDGE_CURVE('',#453,#428,#581,.T.);
#395=EDGE_CURVE('',#460,#430,#582,.T.);
#396=EDGE_CURVE('',#459,#431,#583,.T.);
#397=EDGE_CURVE('',#458,#432,#584,.T.);
#398=EDGE_CURVE('',#457,#433,#585,.T.);
#399=EDGE_CURVE('',#456,#434,#586,.T.);
#400=EDGE_CURVE('',#455,#427,#587,.T.);
#401=EDGE_CURVE('',#441,#440,#588,.T.);
#402=EDGE_CURVE('',#443,#439,#589,.T.);
#403=VERTEX_POINT('',#1121);
#404=VERTEX_POINT('',#1122);
#405=VERTEX_POINT('',#1124);
#406=VERTEX_POINT('',#1126);
#407=VERTEX_POINT('',#1130);
#408=VERTEX_POINT('',#1131);
#409=VERTEX_POINT('',#1133);
#410=VERTEX_POINT('',#1135);
#411=VERTEX_POINT('',#1137);
#412=VERTEX_POINT('',#1139);
#413=VERTEX_POINT('',#1143);
#414=VERTEX_POINT('',#1144);
#415=VERTEX_POINT('',#1146);
#416=VERTEX_POINT('',#1148);
#417=VERTEX_POINT('',#1150);
#418=VERTEX_POINT('',#1152);
#419=VERTEX_POINT('',#1156);
#420=VERTEX_POINT('',#1157);
#421=VERTEX_POINT('',#1159);
#422=VERTEX_POINT('',#1161);
#423=VERTEX_POINT('',#1163);
#424=VERTEX_POINT('',#1165);
#425=VERTEX_POINT('',#1167);
#426=VERTEX_POINT('',#1169);
#427=VERTEX_POINT('',#1172);
#428=VERTEX_POINT('',#1173);
#429=VERTEX_POINT('',#1175);
#430=VERTEX_POINT('',#1177);
#431=VERTEX_POINT('',#1179);
#432=VERTEX_POINT('',#1181);
#433=VERTEX_POINT('',#1183);
#434=VERTEX_POINT('',#1185);
#435=VERTEX_POINT('',#1188);
#436=VERTEX_POINT('',#1190);
#437=VERTEX_POINT('',#1192);
#438=VERTEX_POINT('',#1194);
#439=VERTEX_POINT('',#1198);
#440=VERTEX_POINT('',#1200);
#441=VERTEX_POINT('',#1204);
#442=VERTEX_POINT('',#1205);
#443=VERTEX_POINT('',#1207);
#444=VERTEX_POINT('',#1210);
#445=VERTEX_POINT('',#1212);
#446=VERTEX_POINT('',#1214);
#447=VERTEX_POINT('',#1216);
#448=VERTEX_POINT('',#1219);
#449=VERTEX_POINT('',#1221);
#450=VERTEX_POINT('',#1223);
#451=VERTEX_POINT('',#1225);
#452=VERTEX_POINT('',#1227);
#453=VERTEX_POINT('',#1230);
#454=VERTEX_POINT('',#1231);
#455=VERTEX_POINT('',#1233);
#456=VERTEX_POINT('',#1235);
#457=VERTEX_POINT('',#1237);
#458=VERTEX_POINT('',#1239);
#459=VERTEX_POINT('',#1241);
#460=VERTEX_POINT('',#1243);
#461=VERTEX_POINT('',#1246);
#462=VERTEX_POINT('',#1247);
#463=VERTEX_POINT('',#1249);
#464=VERTEX_POINT('',#1251);
#465=VERTEX_POINT('',#1253);
#466=VERTEX_POINT('',#1255);
#467=VERTEX_POINT('',#1257);
#468=VERTEX_POINT('',#1259);
#469=VERTEX_POINT('',#1263);
#470=VERTEX_POINT('',#1264);
#471=VERTEX_POINT('',#1266);
#472=VERTEX_POINT('',#1268);
#473=VERTEX_POINT('',#1276);
#474=VERTEX_POINT('',#1279);
#475=VERTEX_POINT('',#1289);
#476=VERTEX_POINT('',#1295);
#477=VERTEX_POINT('',#1297);
#478=VERTEX_POINT('',#1302);
#479=VERTEX_POINT('',#1306);
#480=VERTEX_POINT('',#1308);
#481=LINE('',#1120,#590);
#482=LINE('',#1125,#591);
#483=LINE('',#1129,#592);
#484=LINE('',#1132,#593);
#485=LINE('',#1134,#594);
#486=LINE('',#1136,#595);
#487=LINE('',#1138,#596);
#488=LINE('',#1140,#597);
#489=LINE('',#1142,#598);
#490=LINE('',#1145,#599);
#491=LINE('',#1147,#600);
#492=LINE('',#1149,#601);
#493=LINE('',#1151,#602);
#494=LINE('',#1153,#603);
#495=LINE('',#1155,#604);
#496=LINE('',#1158,#605);
#497=LINE('',#1160,#606);
#498=LINE('',#1162,#607);
#499=LINE('',#1164,#608);
#500=LINE('',#1166,#609);
#501=LINE('',#1168,#610);
#502=LINE('',#1170,#611);
#503=LINE('',#1171,#612);
#504=LINE('',#1174,#613);
#505=LINE('',#1176,#614);
#506=LINE('',#1178,#615);
#507=LINE('',#1180,#616);
#508=LINE('',#1182,#617);
#509=LINE('',#1184,#618);
#510=LINE('',#1186,#619);
#511=LINE('',#1187,#620);
#512=LINE('',#1189,#621);
#513=LINE('',#1191,#622);
#514=LINE('',#1193,#623);
#515=LINE('',#1195,#624);
#516=LINE('',#1196,#625);
#517=LINE('',#1197,#626);
#518=LINE('',#1199,#627);
#519=LINE('',#1201,#628);
#520=LINE('',#1203,#629);
#521=LINE('',#1206,#630);
#522=LINE('',#1208,#631);
#523=LINE('',#1209,#632);
#524=LINE('',#1211,#633);
#525=LINE('',#1213,#634);
#526=LINE('',#1215,#635);
#527=LINE('',#1217,#636);
#528=LINE('',#1218,#637);
#529=LINE('',#1220,#638);
#530=LINE('',#1222,#639);
#531=LINE('',#1224,#640);
#532=LINE('',#1226,#641);
#533=LINE('',#1228,#642);
#534=LINE('',#1229,#643);
#535=LINE('',#1232,#644);
#536=LINE('',#1234,#645);
#537=LINE('',#1236,#646);
#538=LINE('',#1238,#647);
#539=LINE('',#1240,#648);
#540=LINE('',#1242,#649);
#541=LINE('',#1244,#650);
#542=LINE('',#1245,#651);
#543=LINE('',#1248,#652);
#544=LINE('',#1250,#653);
#545=LINE('',#1252,#654);
#546=LINE('',#1254,#655);
#547=LINE('',#1256,#656);
#548=LINE('',#1258,#657);
#549=LINE('',#1260,#658);
#550=LINE('',#1262,#659);
#551=LINE('',#1265,#660);
#552=LINE('',#1267,#661);
#553=LINE('',#1269,#662);
#554=LINE('',#1271,#663);
#555=LINE('',#1272,#664);
#556=LINE('',#1273,#665);
#557=LINE('',#1275,#666);
#558=LINE('',#1277,#667);
#559=LINE('',#1278,#668);
#560=LINE('',#1280,#669);
#561=LINE('',#1282,#670);
#562=LINE('',#1283,#671);
#563=LINE('',#1284,#672);
#564=LINE('',#1288,#673);
#565=LINE('',#1290,#674);
#566=LINE('',#1292,#675);
#567=LINE('',#1301,#676);
#568=LINE('',#1303,#677);
#569=LINE('',#1310,#678);
#570=LINE('',#1314,#679);
#571=LINE('',#1316,#680);
#572=LINE('',#1319,#681);
#573=LINE('',#1320,#682);
#574=LINE('',#1322,#683);
#575=LINE('',#1324,#684);
#576=LINE('',#1326,#685);
#577=LINE('',#1328,#686);
#578=LINE('',#1330,#687);
#579=LINE('',#1332,#688);
#580=LINE('',#1335,#689);
#581=LINE('',#1336,#690);
#582=LINE('',#1338,#691);
#583=LINE('',#1340,#692);
#584=LINE('',#1342,#693);
#585=LINE('',#1344,#694);
#586=LINE('',#1346,#695);
#587=LINE('',#1348,#696);
#588=LINE('',#1351,#697);
#589=LINE('',#1353,#698);
#590=VECTOR('',#913,1.);
#591=VECTOR('',#916,1.);
#592=VECTOR('',#921,1.);
#593=VECTOR('',#922,1.);
#594=VECTOR('',#923,1.);
#595=VECTOR('',#924,1.);
#596=VECTOR('',#925,1.);
#597=VECTOR('',#926,1.);
#598=VECTOR('',#929,1.);
#599=VECTOR('',#930,1.);
#600=VECTOR('',#931,1.);
#601=VECTOR('',#932,1.);
#602=VECTOR('',#933,1.);
#603=VECTOR('',#934,1.);
#604=VECTOR('',#937,1.);
#605=VECTOR('',#938,1.);
#606=VECTOR('',#939,1.);
#607=VECTOR('',#940,1.);
#608=VECTOR('',#941,1.);
#609=VECTOR('',#942,1.);
#610=VECTOR('',#943,1.);
#611=VECTOR('',#944,1.);
#612=VECTOR('',#945,1.);
#613=VECTOR('',#946,1.);
#614=VECTOR('',#947,1.);
#615=VECTOR('',#948,1.);
#616=VECTOR('',#949,1.);
#617=VECTOR('',#950,1.);
#618=VECTOR('',#951,1.);
#619=VECTOR('',#952,1.);
#620=VECTOR('',#953,1.);
#621=VECTOR('',#954,1.);
#622=VECTOR('',#955,1.);
#623=VECTOR('',#956,1.);
#624=VECTOR('',#957,1.);
#625=VECTOR('',#958,1.);
#626=VECTOR('',#959,1.);
#627=VECTOR('',#960,1.);
#628=VECTOR('',#961,1.);
#629=VECTOR('',#964,1.);
#630=VECTOR('',#965,1.);
#631=VECTOR('',#966,1.);
#632=VECTOR('',#967,1.);
#633=VECTOR('',#968,1.);
#634=VECTOR('',#969,1.);
#635=VECTOR('',#970,1.);
#636=VECTOR('',#971,1.);
#637=VECTOR('',#972,1.);
#638=VECTOR('',#973,1.);
#639=VECTOR('',#974,1.);
#640=VECTOR('',#975,1.);
#641=VECTOR('',#976,1.);
#642=VECTOR('',#977,1.);
#643=VECTOR('',#978,1.);
#644=VECTOR('',#979,1.);
#645=VECTOR('',#980,1.);
#646=VECTOR('',#981,1.);
#647=VECTOR('',#982,1.);
#648=VECTOR('',#983,1.);
#649=VECTOR('',#984,1.);
#650=VECTOR('',#985,1.);
#651=VECTOR('',#986,1.);
#652=VECTOR('',#987,1.);
#653=VECTOR('',#988,1.);
#654=VECTOR('',#989,1.);
#655=VECTOR('',#990,1.);
#656=VECTOR('',#991,1.);
#657=VECTOR('',#992,1.);
#658=VECTOR('',#993,1.);
#659=VECTOR('',#996,1.);
#660=VECTOR('',#997,1.);
#661=VECTOR('',#998,1.);
#662=VECTOR('',#999,1.);
#663=VECTOR('',#1002,1.);
#664=VECTOR('',#1003,1.);
#665=VECTOR('',#1004,1.);
#666=VECTOR('',#1007,1.);
#667=VECTOR('',#1008,1.);
#668=VECTOR('',#1009,1.);
#669=VECTOR('',#1010,1.);
#670=VECTOR('',#1013,1.);
#671=VECTOR('',#1014,1.);
#672=VECTOR('',#1015,1.);
#673=VECTOR('',#1022,1.);
#674=VECTOR('',#1023,1.);
#675=VECTOR('',#1026,1.);
#676=VECTOR('',#1039,1.);
#677=VECTOR('',#1040,1.);
#678=VECTOR('',#1049,1.);
#679=VECTOR('',#1056,1.);
#680=VECTOR('',#1059,1.);
#681=VECTOR('',#1064,1.);
#682=VECTOR('',#1065,1.);
#683=VECTOR('',#1068,1.);
#684=VECTOR('',#1071,1.);
#685=VECTOR('',#1074,1.);
#686=VECTOR('',#1077,1.);
#687=VECTOR('',#1080,1.);
#688=VECTOR('',#1083,1.);
#689=VECTOR('',#1088,1.);
#690=VECTOR('',#1089,1.);
#691=VECTOR('',#1092,1.);
#692=VECTOR('',#1095,1.);
#693=VECTOR('',#1098,1.);
#694=VECTOR('',#1101,1.);
#695=VECTOR('',#1104,1.);
#696=VECTOR('',#1107,1.);
#697=VECTOR('',#1112,1.);
#698=VECTOR('',#1115,1.);
#699=EDGE_LOOP('',(#58,#59,#60,#61));
#700=EDGE_LOOP('',(#62,#63,#64,#65,#66,#67));
#701=EDGE_LOOP('',(#68,#69,#70,#71,#72,#73));
#702=EDGE_LOOP('',(#74,#75,#76,#77,#78,#79,#80,#81));
#703=EDGE_LOOP('',(#82,#83,#84,#85,#86,#87,#88,#89));
#704=EDGE_LOOP('',(#90,#91,#92,#93,#94,#95,#96,#97,#98,#99,#100,#101));
#705=EDGE_LOOP('',(#102,#103,#104,#105,#106,#107,#108,#109,#110,#111,#112,
#113,#114,#115,#116,#117));
#706=EDGE_LOOP('',(#118,#119,#120,#121,#122,#123,#124,#125));
#707=EDGE_LOOP('',(#126,#127,#128,#129,#130,#131,#132,#133));
#708=EDGE_LOOP('',(#134,#135,#136,#137));
#709=EDGE_LOOP('',(#138,#139,#140,#141,#142,#143,#144));
#710=EDGE_LOOP('',(#145,#146,#147,#148,#149,#150,#151,#152));
#711=EDGE_LOOP('',(#153,#154,#155,#156,#157,#158,#159));
#712=EDGE_LOOP('',(#160,#161,#162,#163));
#713=EDGE_LOOP('',(#164,#165,#166,#167));
#714=EDGE_LOOP('',(#168,#169,#170,#171));
#715=EDGE_LOOP('',(#172,#173,#174,#175));
#716=EDGE_LOOP('',(#176));
#717=EDGE_LOOP('',(#177));
#718=EDGE_LOOP('',(#178,#179,#180,#181));
#719=EDGE_LOOP('',(#182));
#720=EDGE_LOOP('',(#183));
#721=EDGE_LOOP('',(#184,#185,#186,#187));
#722=EDGE_LOOP('',(#188));
#723=EDGE_LOOP('',(#189));
#724=EDGE_LOOP('',(#190,#191,#192,#193));
#725=EDGE_LOOP('',(#194));
#726=EDGE_LOOP('',(#195,#196,#197,#198));
#727=EDGE_LOOP('',(#199));
#728=EDGE_LOOP('',(#200,#201,#202,#203));
#729=EDGE_LOOP('',(#204,#205,#206,#207));
#730=EDGE_LOOP('',(#208,#209,#210,#211));
#731=EDGE_LOOP('',(#212,#213,#214,#215));
#732=EDGE_LOOP('',(#216,#217,#218,#219));
#733=EDGE_LOOP('',(#220,#221,#222,#223));
#734=EDGE_LOOP('',(#224,#225,#226,#227));
#735=EDGE_LOOP('',(#228,#229,#230,#231));
#736=EDGE_LOOP('',(#232,#233,#234,#235));
#737=EDGE_LOOP('',(#236,#237,#238,#239));
#738=EDGE_LOOP('',(#240,#241,#242,#243));
#739=EDGE_LOOP('',(#244,#245,#246,#247));
#740=EDGE_LOOP('',(#248,#249,#250,#251));
#741=EDGE_LOOP('',(#252,#253,#254,#255));
#742=EDGE_LOOP('',(#256,#257,#258,#259));
#743=EDGE_LOOP('',(#260,#261,#262,#263));
#744=EDGE_LOOP('',(#264,#265,#266,#267));
#745=EDGE_LOOP('',(#268,#269,#270,#271));
#746=EDGE_LOOP('',(#272,#273,#274,#275));
#747=EDGE_LOOP('',(#276,#277,#278,#279));
#748=EDGE_LOOP('',(#280,#281,#282,#283));
#749=EDGE_LOOP('',(#284,#285,#286,#287));
#750=FACE_BOUND('',#699,.T.);
#751=FACE_BOUND('',#700,.T.);
#752=FACE_BOUND('',#701,.T.);
#753=FACE_BOUND('',#702,.T.);
#754=FACE_BOUND('',#703,.T.);
#755=FACE_BOUND('',#704,.T.);
#756=FACE_BOUND('',#705,.T.);
#757=FACE_BOUND('',#706,.T.);
#758=FACE_BOUND('',#707,.T.);
#759=FACE_BOUND('',#708,.T.);
#760=FACE_BOUND('',#709,.T.);
#761=FACE_BOUND('',#710,.T.);
#762=FACE_BOUND('',#711,.T.);
#763=FACE_BOUND('',#712,.T.);
#764=FACE_BOUND('',#713,.T.);
#765=FACE_BOUND('',#714,.T.);
#766=FACE_BOUND('',#715,.T.);
#767=FACE_BOUND('',#716,.T.);
#768=FACE_BOUND('',#717,.T.);
#769=FACE_BOUND('',#718,.T.);
#770=FACE_BOUND('',#719,.T.);
#771=FACE_BOUND('',#720,.T.);
#772=FACE_BOUND('',#721,.T.);
#773=FACE_BOUND('',#722,.T.);
#774=FACE_BOUND('',#723,.T.);
#775=FACE_BOUND('',#724,.T.);
#776=FACE_BOUND('',#725,.T.);
#777=FACE_BOUND('',#726,.T.);
#778=FACE_BOUND('',#727,.T.);
#779=FACE_BOUND('',#728,.T.);
#780=FACE_BOUND('',#729,.T.);
#781=FACE_BOUND('',#730,.T.);
#782=FACE_BOUND('',#731,.T.);
#783=FACE_BOUND('',#732,.T.);
#784=FACE_BOUND('',#733,.T.);
#785=FACE_BOUND('',#734,.T.);
#786=FACE_BOUND('',#735,.T.);
#787=FACE_BOUND('',#736,.T.);
#788=FACE_BOUND('',#737,.T.);
#789=FACE_BOUND('',#738,.T.);
#790=FACE_BOUND('',#739,.T.);
#791=FACE_BOUND('',#740,.T.);
#792=FACE_BOUND('',#741,.T.);
#793=FACE_BOUND('',#742,.T.);
#794=FACE_BOUND('',#743,.T.);
#795=FACE_BOUND('',#744,.T.);
#796=FACE_BOUND('',#745,.T.);
#797=FACE_BOUND('',#746,.T.);
#798=FACE_BOUND('',#747,.T.);
#799=FACE_BOUND('',#748,.T.);
#800=FACE_BOUND('',#749,.T.);
#801=CYLINDRICAL_SURFACE('',#860,0.002);
#802=CYLINDRICAL_SURFACE('',#875,0.00515);
#803=CYLINDRICAL_SURFACE('',#881,0.00515);
#804=ADVANCED_FACE('',(#750),#801,.T.);
#805=ADVANCED_FACE('',(#751),#12,.F.);
#806=ADVANCED_FACE('',(#752),#13,.T.);
#807=ADVANCED_FACE('',(#753,#754,#755),#14,.F.);
#808=ADVANCED_FACE('',(#756,#757,#758),#15,.T.);
#809=ADVANCED_FACE('',(#759),#16,.T.);
#810=ADVANCED_FACE('',(#760),#17,.F.);
#811=ADVANCED_FACE('',(#761),#18,.F.);
#812=ADVANCED_FACE('',(#762),#19,.T.);
#813=ADVANCED_FACE('',(#763),#20,.T.);
#814=ADVANCED_FACE('',(#764),#21,.F.);
#815=ADVANCED_FACE('',(#765),#22,.T.);
#816=ADVANCED_FACE('',(#766),#23,.T.);
#817=ADVANCED_FACE('',(#767,#768),#802,.F.);
#818=ADVANCED_FACE('',(#769,#770),#24,.T.);
#819=ADVANCED_FACE('',(#771),#25,.T.);
#820=ADVANCED_FACE('',(#772),#26,.F.);
#821=ADVANCED_FACE('',(#773,#774),#803,.F.);
#822=ADVANCED_FACE('',(#775),#27,.T.);
#823=ADVANCED_FACE('',(#776,#777),#28,.T.);
#824=ADVANCED_FACE('',(#778),#29,.T.);
#825=ADVANCED_FACE('',(#779),#30,.F.);
#826=ADVANCED_FACE('',(#780),#31,.T.);
#827=ADVANCED_FACE('',(#781),#32,.T.);
#828=ADVANCED_FACE('',(#782),#33,.F.);
#829=ADVANCED_FACE('',(#783),#34,.T.);
#830=ADVANCED_FACE('',(#784),#35,.T.);
#831=ADVANCED_FACE('',(#785),#36,.T.);
#832=ADVANCED_FACE('',(#786),#37,.F.);
#833=ADVANCED_FACE('',(#787),#38,.T.);
#834=ADVANCED_FACE('',(#788),#39,.T.);
#835=ADVANCED_FACE('',(#789),#40,.F.);
#836=ADVANCED_FACE('',(#790),#41,.F.);
#837=ADVANCED_FACE('',(#791),#42,.F.);
#838=ADVANCED_FACE('',(#792),#43,.T.);
#839=ADVANCED_FACE('',(#793),#44,.T.);
#840=ADVANCED_FACE('',(#794),#45,.F.);
#841=ADVANCED_FACE('',(#795),#46,.F.);
#842=ADVANCED_FACE('',(#796),#47,.F.);
#843=ADVANCED_FACE('',(#797),#48,.T.);
#844=ADVANCED_FACE('',(#798),#49,.F.);
#845=ADVANCED_FACE('',(#799),#50,.T.);
#846=ADVANCED_FACE('',(#800),#51,.F.);
#847=CLOSED_SHELL('',(#804,#805,#806,#807,#808,#809,#810,#811,#812,#813,
#814,#815,#816,#817,#818,#819,#820,#821,#822,#823,#824,#825,#826,#827,#828,
#829,#830,#831,#832,#833,#834,#835,#836,#837,#838,#839,#840,#841,#842,#843,
#844,#845,#846));
#848=STYLED_ITEM('',(#849),#856);
#849=PRESENTATION_STYLE_ASSIGNMENT((#850));
#850=SURFACE_STYLE_USAGE(.BOTH.,#851);
#851=SURFACE_SIDE_STYLE('',(#852));
#852=SURFACE_STYLE_FILL_AREA(#853);
#853=FILL_AREA_STYLE('',(#854));
#854=FILL_AREA_STYLE_COLOUR('',#855);
#855=COLOUR_RGB('',0.980392156862745,0.713725490196078,0.00392156862745098);
#856=MANIFOLD_SOLID_BREP('TMat4',#847);
#857=SHAPE_DEFINITION_REPRESENTATION(#1361,#858);
#858=SHAPE_REPRESENTATION('TMat4',(#859),#1356);
#859=AXIS2_PLACEMENT_3D('',#1118,#909,#910);
#860=AXIS2_PLACEMENT_3D('',#1119,#911,#912);
#861=AXIS2_PLACEMENT_3D('',#1123,#914,#915);
#862=AXIS2_PLACEMENT_3D('',#1127,#917,#918);
#863=AXIS2_PLACEMENT_3D('',#1128,#919,#920);
#864=AXIS2_PLACEMENT_3D('',#1141,#927,#928);
#865=AXIS2_PLACEMENT_3D('',#1154,#935,#936);
#866=AXIS2_PLACEMENT_3D('',#1202,#962,#963);
#867=AXIS2_PLACEMENT_3D('',#1261,#994,#995);
#868=AXIS2_PLACEMENT_3D('',#1270,#1000,#1001);
#869=AXIS2_PLACEMENT_3D('',#1274,#1005,#1006);
#870=AXIS2_PLACEMENT_3D('',#1281,#1011,#1012);
#871=AXIS2_PLACEMENT_3D('',#1285,#1016,#1017);
#872=AXIS2_PLACEMENT_3D('',#1286,#1018,#1019);
#873=AXIS2_PLACEMENT_3D('',#1287,#1020,#1021);
#874=AXIS2_PLACEMENT_3D('',#1291,#1024,#1025);
#875=AXIS2_PLACEMENT_3D('',#1293,#1027,#1028);
#876=AXIS2_PLACEMENT_3D('',#1294,#1029,#1030);
#877=AXIS2_PLACEMENT_3D('',#1296,#1031,#1032);
#878=AXIS2_PLACEMENT_3D('',#1298,#1033,#1034);
#879=AXIS2_PLACEMENT_3D('',#1299,#1035,#1036);
#880=AXIS2_PLACEMENT_3D('',#1300,#1037,#1038);
#881=AXIS2_PLACEMENT_3D('',#1304,#1041,#1042);
#882=AXIS2_PLACEMENT_3D('',#1305,#1043,#1044);
#883=AXIS2_PLACEMENT_3D('',#1307,#1045,#1046);
#884=AXIS2_PLACEMENT_3D('',#1309,#1047,#1048);
#885=AXIS2_PLACEMENT_3D('',#1311,#1050,#1051);
#886=AXIS2_PLACEMENT_3D('',#1312,#1052,#1053);
#887=AXIS2_PLACEMENT_3D('',#1313,#1054,#1055);
#888=AXIS2_PLACEMENT_3D('',#1315,#1057,#1058);
#889=AXIS2_PLACEMENT_3D('',#1317,#1060,#1061);
#890=AXIS2_PLACEMENT_3D('',#1318,#1062,#1063);
#891=AXIS2_PLACEMENT_3D('',#1321,#1066,#1067);
#892=AXIS2_PLACEMENT_3D('',#1323,#1069,#1070);
#893=AXIS2_PLACEMENT_3D('',#1325,#1072,#1073);
#894=AXIS2_PLACEMENT_3D('',#1327,#1075,#1076);
#895=AXIS2_PLACEMENT_3D('',#1329,#1078,#1079);
#896=AXIS2_PLACEMENT_3D('',#1331,#1081,#1082);
#897=AXIS2_PLACEMENT_3D('',#1333,#1084,#1085);
#898=AXIS2_PLACEMENT_3D('',#1334,#1086,#1087);
#899=AXIS2_PLACEMENT_3D('',#1337,#1090,#1091);
#900=AXIS2_PLACEMENT_3D('',#1339,#1093,#1094);
#901=AXIS2_PLACEMENT_3D('',#1341,#1096,#1097);
#902=AXIS2_PLACEMENT_3D('',#1343,#1099,#1100);
#903=AXIS2_PLACEMENT_3D('',#1345,#1102,#1103);
#904=AXIS2_PLACEMENT_3D('',#1347,#1105,#1106);
#905=AXIS2_PLACEMENT_3D('',#1349,#1108,#1109);
#906=AXIS2_PLACEMENT_3D('',#1350,#1110,#1111);
#907=AXIS2_PLACEMENT_3D('',#1352,#1113,#1114);
#908=AXIS2_PLACEMENT_3D('',#1354,#1116,#1117);
#909=DIRECTION('',(0.,0.,1.));
#910=DIRECTION('',(1.,0.,0.));
#911=DIRECTION('',(-1.,0.,0.));
#912=DIRECTION('',(0.,0.,1.));
#913=DIRECTION('',(1.,0.,0.));
#914=DIRECTION('',(1.,0.,0.));
#915=DIRECTION('',(0.,0.,-1.));
#916=DIRECTION('',(1.,0.,0.));
#917=DIRECTION('',(1.,0.,0.));
#918=DIRECTION('',(0.,0.,-1.));
#919=DIRECTION('',(1.,0.,0.));
#920=DIRECTION('',(0.,0.,-1.));
#921=DIRECTION('',(0.,0.,1.));
#922=DIRECTION('',(0.,-1.,0.));
#923=DIRECTION('',(0.,0.,-1.));
#924=DIRECTION('',(0.,-1.,0.));
#925=DIRECTION('',(0.,0.,-1.));
#926=DIRECTION('',(0.,-1.,0.));
#927=DIRECTION('',(1.,0.,0.));
#928=DIRECTION('',(0.,0.,-1.));
#929=DIRECTION('',(0.,-1.,0.));
#930=DIRECTION('',(0.,0.,1.));
#931=DIRECTION('',(0.,-1.,0.));
#932=DIRECTION('',(0.,0.,-1.));
#933=DIRECTION('',(4.44089209850063E-15,-1.,0.));
#934=DIRECTION('',(0.,0.,-1.));
#935=DIRECTION('',(0.,0.,1.));
#936=DIRECTION('',(1.,0.,0.));
#937=DIRECTION('',(-1.,0.,0.));
#938=DIRECTION('',(0.,-1.,0.));
#939=DIRECTION('',(-1.,0.,0.));
#940=DIRECTION('',(0.,-1.,0.));
#941=DIRECTION('',(-1.,0.,0.));
#942=DIRECTION('',(0.,-1.,0.));
#943=DIRECTION('',(-1.,0.,0.));
#944=DIRECTION('',(0.,-1.,0.));
#945=DIRECTION('',(0.,-1.,0.));
#946=DIRECTION('',(-1.,0.,0.));
#947=DIRECTION('',(0.,-1.,0.));
#948=DIRECTION('',(-1.,0.,0.));
#949=DIRECTION('',(0.,-1.,0.));
#950=DIRECTION('',(-1.,0.,0.));
#951=DIRECTION('',(0.,-1.,0.));
#952=DIRECTION('',(-1.,0.,0.));
#953=DIRECTION('',(0.,-1.,0.));
#954=DIRECTION('',(0.,-1.,0.));
#955=DIRECTION('',(1.,0.,0.));
#956=DIRECTION('',(0.,-1.,0.));
#957=DIRECTION('',(1.,0.,0.));
#958=DIRECTION('',(1.,0.,0.));
#959=DIRECTION('',(1.,0.,0.));
#960=DIRECTION('',(0.,-1.,0.));
#961=DIRECTION('',(1.,0.,0.));
#962=DIRECTION('',(0.,0.,1.));
#963=DIRECTION('',(1.,0.,0.));
#964=DIRECTION('',(-1.,0.,0.));
#965=DIRECTION('',(0.,1.,0.));
#966=DIRECTION('',(-1.,0.,0.));
#967=DIRECTION('',(1.,0.,0.));
#968=DIRECTION('',(0.,-1.,0.));
#969=DIRECTION('',(1.,0.,0.));
#970=DIRECTION('',(0.,-1.,0.));
#971=DIRECTION('',(1.,0.,0.));
#972=DIRECTION('',(-1.,0.,0.));
#973=DIRECTION('',(0.,1.,0.));
#974=DIRECTION('',(-1.,0.,0.));
#975=DIRECTION('',(0.,-1.,0.));
#976=DIRECTION('',(1.,0.,0.));
#977=DIRECTION('',(0.,-1.,0.));
#978=DIRECTION('',(1.,0.,0.));
#979=DIRECTION('',(0.,1.,0.));
#980=DIRECTION('',(1.,0.,0.));
#981=DIRECTION('',(0.,1.,0.));
#982=DIRECTION('',(1.,0.,0.));
#983=DIRECTION('',(0.,1.,0.));
#984=DIRECTION('',(1.,0.,0.));
#985=DIRECTION('',(0.,1.,0.));
#986=DIRECTION('',(0.,1.,0.));
#987=DIRECTION('',(1.,0.,0.));
#988=DIRECTION('',(0.,1.,0.));
#989=DIRECTION('',(1.,0.,0.));
#990=DIRECTION('',(0.,1.,0.));
#991=DIRECTION('',(1.,0.,0.));
#992=DIRECTION('',(0.,1.,0.));
#993=DIRECTION('',(1.,0.,0.));
#994=DIRECTION('',(0.,0.,1.));
#995=DIRECTION('',(1.,0.,0.));
#996=DIRECTION('',(0.,-1.,0.));
#997=DIRECTION('',(1.,0.,0.));
#998=DIRECTION('',(0.,-1.,0.));
#999=DIRECTION('',(1.,0.,0.));
#1000=DIRECTION('',(1.,0.,0.));
#1001=DIRECTION('',(0.,0.,-1.));
#1002=DIRECTION('',(0.,0.,-1.));
#1003=DIRECTION('',(0.,0.,1.));
#1004=DIRECTION('',(0.,0.,-1.));
#1005=DIRECTION('',(0.,1.,0.));
#1006=DIRECTION('',(0.,0.,1.));
#1007=DIRECTION('',(0.,0.,-1.));
#1008=DIRECTION('',(1.,0.,0.));
#1009=DIRECTION('',(1.,2.22044604925031E-15,0.));
#1010=DIRECTION('',(0.,0.,-1.));
#1011=DIRECTION('',(1.,0.,0.));
#1012=DIRECTION('',(0.,0.,-1.));
#1013=DIRECTION('',(0.,0.,-1.));
#1014=DIRECTION('',(0.,0.,-1.));
#1015=DIRECTION('',(0.,0.,1.));
#1016=DIRECTION('',(0.,1.,0.));
#1017=DIRECTION('',(0.,0.,1.));
#1018=DIRECTION('',(0.,1.,0.));
#1019=DIRECTION('',(0.,0.,1.));
#1020=DIRECTION('',(0.,1.,0.));
#1021=DIRECTION('',(0.,0.,1.));
#1022=DIRECTION('',(1.,0.,0.));
#1023=DIRECTION('',(0.,0.,-1.));
#1024=DIRECTION('',(1.,0.,0.));
#1025=DIRECTION('',(0.,0.,-1.));
#1026=DIRECTION('',(0.,-1.,0.));
#1027=DIRECTION('',(0.,0.,-1.));
#1028=DIRECTION('',(-1.,0.,0.));
#1029=DIRECTION('',(0.,0.,1.));
#1030=DIRECTION('',(1.,0.,0.));
#1031=DIRECTION('',(0.,0.,1.));
#1032=DIRECTION('',(1.,0.,0.));
#1033=DIRECTION('',(0.,0.,1.));
#1034=DIRECTION('',(1.,0.,0.));
#1035=DIRECTION('',(0.,0.,1.));
#1036=DIRECTION('',(1.,0.,0.));
#1037=DIRECTION('',(1.,0.,0.));
#1038=DIRECTION('',(0.,0.,-1.));
#1039=DIRECTION('',(0.,-1.,0.));
#1040=DIRECTION('',(0.,0.,-1.));
#1041=DIRECTION('',(0.,0.,-1.));
#1042=DIRECTION('',(-1.,0.,0.));
#1043=DIRECTION('',(0.,0.,1.));
#1044=DIRECTION('',(1.,0.,0.));
#1045=DIRECTION('',(0.,0.,1.));
#1046=DIRECTION('',(1.,0.,0.));
#1047=DIRECTION('',(0.,1.,0.));
#1048=DIRECTION('',(0.,0.,1.));
#1049=DIRECTION('',(1.,0.,0.));
#1050=DIRECTION('',(0.,0.,1.));
#1051=DIRECTION('',(1.,0.,0.));
#1052=DIRECTION('',(0.,0.,1.));
#1053=DIRECTION('',(1.,0.,0.));
#1054=DIRECTION('',(0.,1.,0.));
#1055=DIRECTION('',(0.,0.,1.));
#1056=DIRECTION('',(0.,0.,-1.));
#1057=DIRECTION('',(1.,0.,0.));
#1058=DIRECTION('',(0.,0.,-1.));
#1059=DIRECTION('',(0.,0.,-1.));
#1060=DIRECTION('',(0.,1.,0.));
#1061=DIRECTION('',(0.,0.,1.));
#1062=DIRECTION('',(1.,0.,0.));
#1063=DIRECTION('',(0.,0.,-1.));
#1064=DIRECTION('',(0.,0.,-1.));
#1065=DIRECTION('',(0.,0.,-1.));
#1066=DIRECTION('',(0.,-1.,0.));
#1067=DIRECTION('',(0.,0.,-1.));
#1068=DIRECTION('',(0.,0.,-1.));
#1069=DIRECTION('',(1.,0.,0.));
#1070=DIRECTION('',(0.,0.,-1.));
#1071=DIRECTION('',(0.,0.,-1.));
#1072=DIRECTION('',(0.,-1.,0.));
#1073=DIRECTION('',(0.,0.,-1.));
#1074=DIRECTION('',(0.,0.,-1.));
#1075=DIRECTION('',(1.,0.,0.));
#1076=DIRECTION('',(0.,0.,-1.));
#1077=DIRECTION('',(0.,0.,-1.));
#1078=DIRECTION('',(0.,-1.,0.));
#1079=DIRECTION('',(0.,0.,-1.));
#1080=DIRECTION('',(0.,0.,-1.));
#1081=DIRECTION('',(1.,0.,0.));
#1082=DIRECTION('',(0.,0.,-1.));
#1083=DIRECTION('',(0.,0.,-1.));
#1084=DIRECTION('',(0.,-1.,0.));
#1085=DIRECTION('',(0.,0.,-1.));
#1086=DIRECTION('',(0.,-1.,0.));
#1087=DIRECTION('',(0.,0.,-1.));
#1088=DIRECTION('',(0.,0.,-1.));
#1089=DIRECTION('',(0.,0.,-1.));
#1090=DIRECTION('',(1.,0.,0.));
#1091=DIRECTION('',(0.,0.,-1.));
#1092=DIRECTION('',(0.,0.,-1.));
#1093=DIRECTION('',(0.,-1.,0.));
#1094=DIRECTION('',(0.,0.,-1.));
#1095=DIRECTION('',(0.,0.,-1.));
#1096=DIRECTION('',(1.,0.,0.));
#1097=DIRECTION('',(0.,0.,-1.));
#1098=DIRECTION('',(0.,0.,-1.));
#1099=DIRECTION('',(0.,-1.,0.));
#1100=DIRECTION('',(0.,0.,-1.));
#1101=DIRECTION('',(0.,0.,-1.));
#1102=DIRECTION('',(1.,0.,0.));
#1103=DIRECTION('',(0.,0.,-1.));
#1104=DIRECTION('',(0.,0.,-1.));
#1105=DIRECTION('',(0.,-1.,0.));
#1106=DIRECTION('',(0.,0.,-1.));
#1107=DIRECTION('',(0.,0.,-1.));
#1108=DIRECTION('',(1.,0.,0.));
#1109=DIRECTION('',(0.,0.,-1.));
#1110=DIRECTION('',(0.,1.,0.));
#1111=DIRECTION('',(0.,0.,1.));
#1112=DIRECTION('',(0.,0.,-1.));
#1113=DIRECTION('',(0.,1.,0.));
#1114=DIRECTION('',(0.,0.,1.));
#1115=DIRECTION('',(0.,0.,-1.));
#1116=DIRECTION('',(1.,0.,0.));
#1117=DIRECTION('',(0.,0.,-1.));
#1118=CARTESIAN_POINT('',(0.,0.,0.));
#1119=CARTESIAN_POINT('',(-0.646396789386985,0.592124473775878,0.002));
#1120=CARTESIAN_POINT('',(-0.646396789386985,0.592124473775878,0.));
#1121=CARTESIAN_POINT('',(-0.746396789386985,0.592124473775878,0.));
#1122=CARTESIAN_POINT('',(-0.506396789386985,0.592124473775878,0.));
#1123=CARTESIAN_POINT('',(-0.746396789386985,0.592124473775878,0.002));
#1124=CARTESIAN_POINT('',(-0.746396789386985,0.594124473775878,0.002));
#1125=CARTESIAN_POINT('',(-0.646396789386985,0.594124473775878,0.002));
#1126=CARTESIAN_POINT('',(-0.506396789386985,0.594124473775878,0.002));
#1127=CARTESIAN_POINT('',(-0.506396789386985,0.592124473775878,0.002));
#1128=CARTESIAN_POINT('',(-0.746396789386985,0.469124473775879,0.008));
#1129=CARTESIAN_POINT('',(-0.746396789386985,0.581124473775878,0.008));
#1130=CARTESIAN_POINT('',(-0.746396789386985,0.581124473775878,0.));
#1131=CARTESIAN_POINT('',(-0.746396789386985,0.581124473775878,0.002));
#1132=CARTESIAN_POINT('',(-0.746396789386985,0.469124473775879,0.));
#1133=CARTESIAN_POINT('',(-0.746396789386985,0.344124473775879,0.));
#1134=CARTESIAN_POINT('',(-0.746396789386985,0.344124473775879,0.008));
#1135=CARTESIAN_POINT('',(-0.746396789386985,0.344124473775879,0.017));
#1136=CARTESIAN_POINT('',(-0.746396789386985,0.469124473775879,0.017));
#1137=CARTESIAN_POINT('',(-0.746396789386985,0.369124473775879,0.017));
#1138=CARTESIAN_POINT('',(-0.746396789386985,0.369124473775879,0.017));
#1139=CARTESIAN_POINT('',(-0.746396789386985,0.369124473775879,0.002));
#1140=CARTESIAN_POINT('',(-0.746396789386985,0.469124473775879,0.002));
#1141=CARTESIAN_POINT('',(-0.506396789386985,0.469124473775879,0.008));
#1142=CARTESIAN_POINT('',(-0.506396789386985,0.469124473775879,0.));
#1143=CARTESIAN_POINT('',(-0.506396789386985,0.581124473775878,0.));
#1144=CARTESIAN_POINT('',(-0.506396789386985,0.344124473775878,0.));
#1145=CARTESIAN_POINT('',(-0.506396789386985,0.581124473775878,0.008));
#1146=CARTESIAN_POINT('',(-0.506396789386985,0.581124473775878,0.002));
#1147=CARTESIAN_POINT('',(-0.506396789386985,0.469124473775879,0.002));
#1148=CARTESIAN_POINT('',(-0.506396789386985,0.369124473775879,0.002));
#1149=CARTESIAN_POINT('',(-0.506396789386985,0.369124473775879,0.017));
#1150=CARTESIAN_POINT('',(-0.506396789386985,0.369124473775879,0.017));
#1151=CARTESIAN_POINT('',(-0.506396789386985,0.356624473775879,0.017));
#1152=CARTESIAN_POINT('',(-0.506396789386985,0.344124473775879,0.017));
#1153=CARTESIAN_POINT('',(-0.506396789386985,0.344124473775878,0.008));
#1154=CARTESIAN_POINT('',(-0.646396789386985,0.419124473775878,0.));
#1155=CARTESIAN_POINT('',(-0.627396789386985,0.360124473775879,0.));
#1156=CARTESIAN_POINT('',(-0.590396789386985,0.360124473775879,0.));
#1157=CARTESIAN_POINT('',(-0.664396789386984,0.360124473775879,0.));
#1158=CARTESIAN_POINT('',(-0.590396789386985,0.382624473775878,0.));
#1159=CARTESIAN_POINT('',(-0.590396789386985,0.405124473775879,0.));
#1160=CARTESIAN_POINT('',(-0.592896789386985,0.405124473775879,0.));
#1161=CARTESIAN_POINT('',(-0.595396789386985,0.405124473775879,0.));
#1162=CARTESIAN_POINT('',(-0.595396789386985,0.385124473775879,0.));
#1163=CARTESIAN_POINT('',(-0.595396789386985,0.365124473775879,0.));
#1164=CARTESIAN_POINT('',(-0.627396789386985,0.365124473775879,0.));
#1165=CARTESIAN_POINT('',(-0.659396789386984,0.365124473775879,0.));
#1166=CARTESIAN_POINT('',(-0.659396789386984,0.385124473775879,0.));
#1167=CARTESIAN_POINT('',(-0.659396789386984,0.405124473775879,0.));
#1168=CARTESIAN_POINT('',(-0.661896789386985,0.405124473775879,0.));
#1169=CARTESIAN_POINT('',(-0.664396789386984,0.405124473775879,0.));
#1170=CARTESIAN_POINT('',(-0.664396789386984,0.382624473775878,0.));
#1171=CARTESIAN_POINT('',(-0.595396789386985,0.435124473775878,0.));
#1172=CARTESIAN_POINT('',(-0.595396789386985,0.455124473775879,0.));
#1173=CARTESIAN_POINT('',(-0.595396789386985,0.415124473775879,0.));
#1174=CARTESIAN_POINT('',(-0.592896789386985,0.415124473775879,0.));
#1175=CARTESIAN_POINT('',(-0.590396789386985,0.415124473775879,0.));
#1176=CARTESIAN_POINT('',(-0.590396789386985,0.437624473775879,0.));
#1177=CARTESIAN_POINT('',(-0.590396789386985,0.460124473775879,0.));
#1178=CARTESIAN_POINT('',(-0.627396789386985,0.460124473775879,0.));
#1179=CARTESIAN_POINT('',(-0.664396789386984,0.460124473775879,0.));
#1180=CARTESIAN_POINT('',(-0.664396789386984,0.437624473775879,0.));
#1181=CARTESIAN_POINT('',(-0.664396789386984,0.415124473775879,0.));
#1182=CARTESIAN_POINT('',(-0.661896789386985,0.415124473775879,0.));
#1183=CARTESIAN_POINT('',(-0.659396789386984,0.415124473775879,0.));
#1184=CARTESIAN_POINT('',(-0.659396789386984,0.435124473775878,0.));
#1185=CARTESIAN_POINT('',(-0.659396789386984,0.455124473775879,0.));
#1186=CARTESIAN_POINT('',(-0.627396789386985,0.455124473775879,0.));
#1187=CARTESIAN_POINT('',(-0.746396789386985,0.469124473775879,0.));
#1188=CARTESIAN_POINT('',(-0.746396789386985,0.586124473775878,0.));
#1189=CARTESIAN_POINT('',(-0.506396789386985,0.469124473775879,0.));
#1190=CARTESIAN_POINT('',(-0.506396789386985,0.586124473775878,0.));
#1191=CARTESIAN_POINT('',(-0.495896789386984,0.586124473775878,0.));
#1192=CARTESIAN_POINT('',(-0.586396789386985,0.586124473775878,0.));
#1193=CARTESIAN_POINT('',(-0.586396789386985,0.583624473775878,0.));
#1194=CARTESIAN_POINT('',(-0.586396789386985,0.581124473775878,0.));
#1195=CARTESIAN_POINT('',(-0.495896789386984,0.581124473775878,0.));
#1196=CARTESIAN_POINT('',(-0.626396789386985,0.344124473775879,0.));
#1197=CARTESIAN_POINT('',(-0.746396789386985,0.581124473775878,0.));
#1198=CARTESIAN_POINT('',(-0.666396789386985,0.581124473775878,0.));
#1199=CARTESIAN_POINT('',(-0.666396789386985,0.583624473775878,0.));
#1200=CARTESIAN_POINT('',(-0.666396789386985,0.586124473775878,0.));
#1201=CARTESIAN_POINT('',(-0.746396789386985,0.586124473775878,0.));
#1202=CARTESIAN_POINT('',(-0.646396789386985,0.419124473775878,0.002));
#1203=CARTESIAN_POINT('',(-0.646396789386985,0.586124473775878,0.002));
#1204=CARTESIAN_POINT('',(-0.666396789386985,0.586124473775878,0.002));
#1205=CARTESIAN_POINT('',(-0.746396789386985,0.586124473775878,0.002));
#1206=CARTESIAN_POINT('',(-0.666396789386985,0.419124473775878,0.002));
#1207=CARTESIAN_POINT('',(-0.666396789386985,0.581124473775878,0.002));
#1208=CARTESIAN_POINT('',(-0.646396789386985,0.581124473775878,0.002));
#1209=CARTESIAN_POINT('',(-0.733896789386985,0.369124473775879,0.002));
#1210=CARTESIAN_POINT('',(-0.721396789386985,0.369124473775879,0.002));
#1211=CARTESIAN_POINT('',(-0.721396789386985,0.356624473775879,0.002));
#1212=CARTESIAN_POINT('',(-0.721396789386985,0.344124473775879,0.002));
#1213=CARTESIAN_POINT('',(-0.626396789386985,0.344124473775879,0.002));
#1214=CARTESIAN_POINT('',(-0.531396789386985,0.344124473775878,0.002));
#1215=CARTESIAN_POINT('',(-0.531396789386985,0.356624473775878,0.002));
#1216=CARTESIAN_POINT('',(-0.531396789386985,0.369124473775879,0.002));
#1217=CARTESIAN_POINT('',(-0.518896789386985,0.369124473775879,0.002));
#1218=CARTESIAN_POINT('',(-0.646396789386985,0.581124473775878,0.002));
#1219=CARTESIAN_POINT('',(-0.586396789386985,0.581124473775878,0.002));
#1220=CARTESIAN_POINT('',(-0.586396789386985,0.419124473775878,0.002));
#1221=CARTESIAN_POINT('',(-0.586396789386985,0.586124473775878,0.002));
#1222=CARTESIAN_POINT('',(-0.646396789386985,0.586124473775878,0.002));
#1223=CARTESIAN_POINT('',(-0.506396789386985,0.586124473775878,0.002));
#1224=CARTESIAN_POINT('',(-0.506396789386985,0.469124473775879,0.002));
#1225=CARTESIAN_POINT('',(-0.506396789386985,0.592124473775878,0.002));
#1226=CARTESIAN_POINT('',(-0.626396789386985,0.592124473775878,0.002));
#1227=CARTESIAN_POINT('',(-0.746396789386985,0.592124473775878,0.002));
#1228=CARTESIAN_POINT('',(-0.746396789386985,0.469124473775879,0.002));
#1229=CARTESIAN_POINT('',(-0.646396789386985,0.415124473775879,0.002));
#1230=CARTESIAN_POINT('',(-0.595396789386985,0.415124473775879,0.002));
#1231=CARTESIAN_POINT('',(-0.590396789386985,0.415124473775879,0.002));
#1232=CARTESIAN_POINT('',(-0.595396789386985,0.419124473775878,0.002));
#1233=CARTESIAN_POINT('',(-0.595396789386985,0.455124473775879,0.002));
#1234=CARTESIAN_POINT('',(-0.646396789386985,0.455124473775879,0.002));
#1235=CARTESIAN_POINT('',(-0.659396789386984,0.455124473775879,0.002));
#1236=CARTESIAN_POINT('',(-0.659396789386984,0.419124473775878,0.002));
#1237=CARTESIAN_POINT('',(-0.659396789386984,0.415124473775879,0.002));
#1238=CARTESIAN_POINT('',(-0.646396789386985,0.415124473775879,0.002));
#1239=CARTESIAN_POINT('',(-0.664396789386984,0.415124473775879,0.002));
#1240=CARTESIAN_POINT('',(-0.664396789386984,0.419124473775878,0.002));
#1241=CARTESIAN_POINT('',(-0.664396789386984,0.460124473775879,0.002));
#1242=CARTESIAN_POINT('',(-0.646396789386985,0.460124473775879,0.002));
#1243=CARTESIAN_POINT('',(-0.590396789386985,0.460124473775879,0.002));
#1244=CARTESIAN_POINT('',(-0.590396789386985,0.419124473775878,0.002));
#1245=CARTESIAN_POINT('',(-0.590396789386985,0.419124473775878,0.002));
#1246=CARTESIAN_POINT('',(-0.590396789386985,0.360124473775879,0.002));
#1247=CARTESIAN_POINT('',(-0.590396789386985,0.405124473775879,0.002));
#1248=CARTESIAN_POINT('',(-0.646396789386985,0.360124473775879,0.002));
#1249=CARTESIAN_POINT('',(-0.664396789386984,0.360124473775879,0.002));
#1250=CARTESIAN_POINT('',(-0.664396789386984,0.419124473775878,0.002));
#1251=CARTESIAN_POINT('',(-0.664396789386984,0.405124473775879,0.002));
#1252=CARTESIAN_POINT('',(-0.646396789386985,0.405124473775879,0.002));
#1253=CARTESIAN_POINT('',(-0.659396789386984,0.405124473775879,0.002));
#1254=CARTESIAN_POINT('',(-0.659396789386984,0.419124473775878,0.002));
#1255=CARTESIAN_POINT('',(-0.659396789386984,0.365124473775879,0.002));
#1256=CARTESIAN_POINT('',(-0.646396789386985,0.365124473775879,0.002));
#1257=CARTESIAN_POINT('',(-0.595396789386985,0.365124473775879,0.002));
#1258=CARTESIAN_POINT('',(-0.595396789386985,0.419124473775878,0.002));
#1259=CARTESIAN_POINT('',(-0.595396789386985,0.405124473775879,0.002));
#1260=CARTESIAN_POINT('',(-0.646396789386985,0.405124473775879,0.002));
#1261=CARTESIAN_POINT('',(-0.646396789386985,0.419124473775878,0.008));
#1262=CARTESIAN_POINT('',(-0.746396789386985,0.469124473775879,0.008));
#1263=CARTESIAN_POINT('',(-0.746396789386985,0.594124473775878,0.008));
#1264=CARTESIAN_POINT('',(-0.746396789386985,0.592124473775878,0.008));
#1265=CARTESIAN_POINT('',(-0.626396789386985,0.592124473775878,0.008));
#1266=CARTESIAN_POINT('',(-0.506396789386985,0.592124473775878,0.008));
#1267=CARTESIAN_POINT('',(-0.506396789386985,0.469124473775879,0.008));
#1268=CARTESIAN_POINT('',(-0.506396789386985,0.594124473775878,0.008));
#1269=CARTESIAN_POINT('',(-0.626396789386985,0.594124473775878,0.008));
#1270=CARTESIAN_POINT('',(-0.746396789386985,0.469124473775879,0.008));
#1271=CARTESIAN_POINT('',(-0.746396789386985,0.594124473775878,0.008));
#1272=CARTESIAN_POINT('',(-0.746396789386985,0.586124473775878,0.008));
#1273=CARTESIAN_POINT('',(-0.746396789386985,0.592124473775878,0.008));
#1274=CARTESIAN_POINT('',(-0.626396789386985,0.344124473775879,0.008));
#1275=CARTESIAN_POINT('',(-0.721396789386985,0.344124473775879,0.017));
#1276=CARTESIAN_POINT('',(-0.721396789386985,0.344124473775879,0.017));
#1277=CARTESIAN_POINT('',(-0.733896789386985,0.344124473775879,0.017));
#1278=CARTESIAN_POINT('',(-0.518896789386985,0.344124473775879,0.017));
#1279=CARTESIAN_POINT('',(-0.531396789386985,0.344124473775878,0.017));
#1280=CARTESIAN_POINT('',(-0.531396789386985,0.344124473775878,0.017));
#1281=CARTESIAN_POINT('',(-0.506396789386985,0.469124473775879,0.008));
#1282=CARTESIAN_POINT('',(-0.506396789386985,0.594124473775878,0.008));
#1283=CARTESIAN_POINT('',(-0.506396789386985,0.592124473775878,0.008));
#1284=CARTESIAN_POINT('',(-0.506396789386985,0.586124473775878,0.008));
#1285=CARTESIAN_POINT('',(-0.626396789386985,0.594124473775878,0.008));
#1286=CARTESIAN_POINT('',(-0.626396789386985,0.592124473775878,0.008));
#1287=CARTESIAN_POINT('',(-0.733896789386985,0.369124473775879,0.017));
#1288=CARTESIAN_POINT('',(-0.733896789386985,0.369124473775879,0.017));
#1289=CARTESIAN_POINT('',(-0.721396789386985,0.369124473775879,0.017));
#1290=CARTESIAN_POINT('',(-0.721396789386985,0.369124473775879,0.017));
#1291=CARTESIAN_POINT('',(-0.721396789386985,0.356624473775879,0.017));
#1292=CARTESIAN_POINT('',(-0.721396789386985,0.356624473775879,0.017));
#1293=CARTESIAN_POINT('',(-0.736396789386985,0.354124473775879,0.017));
#1294=CARTESIAN_POINT('',(-0.736396789386985,0.354124473775879,0.017));
#1295=CARTESIAN_POINT('',(-0.731246789386985,0.354124473775879,0.017));
#1296=CARTESIAN_POINT('',(-0.736396789386985,0.354124473775879,0.002));
#1297=CARTESIAN_POINT('',(-0.731246789386985,0.354124473775879,0.002));
#1298=CARTESIAN_POINT('',(-0.668896789386985,0.455624473775879,0.017));
#1299=CARTESIAN_POINT('',(-0.646396789386985,0.419124473775878,0.002));
#1300=CARTESIAN_POINT('',(-0.531396789386985,0.356624473775878,0.017));
#1301=CARTESIAN_POINT('',(-0.531396789386985,0.356624473775878,0.017));
#1302=CARTESIAN_POINT('',(-0.531396789386985,0.369124473775879,0.017));
#1303=CARTESIAN_POINT('',(-0.531396789386985,0.369124473775879,0.017));
#1304=CARTESIAN_POINT('',(-0.516396789386985,0.354124473775878,0.017));
#1305=CARTESIAN_POINT('',(-0.516396789386985,0.354124473775878,0.017));
#1306=CARTESIAN_POINT('',(-0.511246789386985,0.354124473775878,0.017));
#1307=CARTESIAN_POINT('',(-0.516396789386985,0.354124473775878,0.002));
#1308=CARTESIAN_POINT('',(-0.511246789386985,0.354124473775878,0.002));
#1309=CARTESIAN_POINT('',(-0.518896789386985,0.369124473775879,0.017));
#1310=CARTESIAN_POINT('',(-0.518896789386985,0.369124473775879,0.017));
#1311=CARTESIAN_POINT('',(-0.668896789386985,0.455624473775879,0.017));
#1312=CARTESIAN_POINT('',(-0.646396789386985,0.419124473775878,0.002));
#1313=CARTESIAN_POINT('',(-0.495896789386984,0.586124473775878,0.025));
#1314=CARTESIAN_POINT('',(-0.586396789386985,0.586124473775878,0.025));
#1315=CARTESIAN_POINT('',(-0.586396789386985,0.583624473775878,0.025));
#1316=CARTESIAN_POINT('',(-0.586396789386985,0.581124473775878,0.025));
#1317=CARTESIAN_POINT('',(-0.495896789386984,0.581124473775878,0.025));
#1318=CARTESIAN_POINT('',(-0.590396789386985,0.382624473775878,0.025));
#1319=CARTESIAN_POINT('',(-0.590396789386985,0.405124473775879,0.025));
#1320=CARTESIAN_POINT('',(-0.590396789386985,0.360124473775879,0.025));
#1321=CARTESIAN_POINT('',(-0.592896789386985,0.405124473775879,0.025));
#1322=CARTESIAN_POINT('',(-0.595396789386985,0.405124473775879,0.025));
#1323=CARTESIAN_POINT('',(-0.595396789386985,0.385124473775879,0.025));
#1324=CARTESIAN_POINT('',(-0.595396789386985,0.365124473775879,0.025));
#1325=CARTESIAN_POINT('',(-0.627396789386985,0.365124473775879,0.025));
#1326=CARTESIAN_POINT('',(-0.659396789386984,0.365124473775879,0.025));
#1327=CARTESIAN_POINT('',(-0.659396789386984,0.385124473775879,0.025));
#1328=CARTESIAN_POINT('',(-0.659396789386984,0.405124473775879,0.025));
#1329=CARTESIAN_POINT('',(-0.661896789386985,0.405124473775879,0.025));
#1330=CARTESIAN_POINT('',(-0.664396789386984,0.405124473775879,0.025));
#1331=CARTESIAN_POINT('',(-0.664396789386984,0.382624473775878,0.025));
#1332=CARTESIAN_POINT('',(-0.664396789386984,0.360124473775879,0.025));
#1333=CARTESIAN_POINT('',(-0.627396789386985,0.360124473775879,0.025));
#1334=CARTESIAN_POINT('',(-0.592896789386985,0.415124473775879,0.025));
#1335=CARTESIAN_POINT('',(-0.590396789386985,0.415124473775879,0.025));
#1336=CARTESIAN_POINT('',(-0.595396789386985,0.415124473775879,0.025));
#1337=CARTESIAN_POINT('',(-0.590396789386985,0.437624473775879,0.025));
#1338=CARTESIAN_POINT('',(-0.590396789386985,0.460124473775879,0.025));
#1339=CARTESIAN_POINT('',(-0.627396789386985,0.460124473775879,0.025));
#1340=CARTESIAN_POINT('',(-0.664396789386984,0.460124473775879,0.025));
#1341=CARTESIAN_POINT('',(-0.664396789386984,0.437624473775879,0.025));
#1342=CARTESIAN_POINT('',(-0.664396789386984,0.415124473775879,0.025));
#1343=CARTESIAN_POINT('',(-0.661896789386985,0.415124473775879,0.025));
#1344=CARTESIAN_POINT('',(-0.659396789386984,0.415124473775879,0.025));
#1345=CARTESIAN_POINT('',(-0.659396789386984,0.435124473775878,0.025));
#1346=CARTESIAN_POINT('',(-0.659396789386984,0.455124473775879,0.025));
#1347=CARTESIAN_POINT('',(-0.627396789386985,0.455124473775879,0.025));
#1348=CARTESIAN_POINT('',(-0.595396789386985,0.455124473775879,0.025));
#1349=CARTESIAN_POINT('',(-0.595396789386985,0.435124473775878,0.025));
#1350=CARTESIAN_POINT('',(-0.746396789386985,0.586124473775878,0.025));
#1351=CARTESIAN_POINT('',(-0.666396789386985,0.586124473775878,0.025));
#1352=CARTESIAN_POINT('',(-0.746396789386985,0.581124473775878,0.025));
#1353=CARTESIAN_POINT('',(-0.666396789386985,0.581124473775878,0.025));
#1354=CARTESIAN_POINT('',(-0.666396789386985,0.583624473775878,0.025));
#1355=MECHANICAL_DESIGN_GEOMETRIC_PRESENTATION_REPRESENTATION('',(#848),
#1356);
#1356=(
GEOMETRIC_REPRESENTATION_CONTEXT(3)
GLOBAL_UNCERTAINTY_ASSIGNED_CONTEXT((#1357))
GLOBAL_UNIT_ASSIGNED_CONTEXT((#1360,#1359,#1358))
REPRESENTATION_CONTEXT('TMat4','TOP_LEVEL_ASSEMBLY_PART')
);
#1357=UNCERTAINTY_MEASURE_WITH_UNIT(LENGTH_MEASURE(1.E-8),#1360,
'DISTANCE_ACCURACY_VALUE','Maximum Tolerance applied to model');
#1358=(
NAMED_UNIT(*)
SI_UNIT($,.STERADIAN.)
SOLID_ANGLE_UNIT()
);
#1359=(
NAMED_UNIT(*)
PLANE_ANGLE_UNIT()
SI_UNIT($,.RADIAN.)
);
#1360=(
LENGTH_UNIT()
NAMED_UNIT(*)
SI_UNIT($,.METRE.)
);
#1361=PRODUCT_DEFINITION_SHAPE('','',#1362);
#1362=PRODUCT_DEFINITION('','',#1364,#1363);
#1363=PRODUCT_DEFINITION_CONTEXT('',#1370,'design');
#1364=PRODUCT_DEFINITION_FORMATION_WITH_SPECIFIED_SOURCE('','',#1366,
 .NOT_KNOWN.);
#1365=PRODUCT_RELATED_PRODUCT_CATEGORY('','',(#1366));
#1366=PRODUCT('TMat4','TMat4','TMat4',(#1368));
#1367=PRODUCT_CATEGORY('','');
#1368=PRODUCT_CONTEXT('',#1370,'mechanical');
#1369=APPLICATION_PROTOCOL_DEFINITION('international standard',
'ap242_managed_model_based_3d_engineering',2020,#1370);
#1370=APPLICATION_CONTEXT('managed model based 3d engineering');
ENDSEC;
END-ISO-10303-21;
