ISO-10303-21;
HEADER;
/* Generated by software containing ST-Developer
 * from STEP Tools, Inc. (www.steptools.com) 
 */
/* OPTION: using custom renumber hook */

FILE_DESCRIPTION(
/* description */ ('STEP AP242 Edition 2',
'CAx-IF Rec.Pracs.---Representation and Presentation of Product Manufa
cturing Information (PMI)---4.0---2014-10-13',
'CAx-IF Rec.Pracs.---3D Tessellated Geometry---0.4---2014-09-14','2;1',
'CAx-IF Rec.Pracs.---User Defined Attributes---1.5---2016-08-15'),
/* implementation_level */ '2;1');

FILE_NAME(
/* name */ 'Part Studio 1 - BMat6',
/* time_stamp */ '2026-05-20T23:41:51Z',
/* author */ (''),
/* organization */ (''),
/* preprocessor_version */ 'ST-DEVELOPER v20',
/* originating_system */ 'ONSHAPE BY PTC INC, 1.215',
/* authorisation */ '  ');

FILE_SCHEMA (('AP242_MANAGED_MODEL_BASED_3D_ENGINEERING_MIM_LF { 1 0 10303 442 3 1 4 }'));
ENDSEC;

DATA;
#10=SHAPE_REPRESENTATION_RELATIONSHIP('','',#1382,#11);
#11=ADVANCED_BREP_SHAPE_REPRESENTATION('',(#1380),#2179);
#12=CYLINDRICAL_SURFACE('',#1451,0.005);
#13=CIRCLE('',#1435,0.005);
#14=CIRCLE('',#1452,0.005);
#15=ORIENTED_EDGE('',*,*,#383,.T.);
#16=ORIENTED_EDGE('',*,*,#384,.T.);
#17=ORIENTED_EDGE('',*,*,#385,.F.);
#18=ORIENTED_EDGE('',*,*,#386,.F.);
#19=ORIENTED_EDGE('',*,*,#387,.T.);
#20=ORIENTED_EDGE('',*,*,#388,.T.);
#21=ORIENTED_EDGE('',*,*,#389,.F.);
#22=ORIENTED_EDGE('',*,*,#390,.F.);
#23=ORIENTED_EDGE('',*,*,#391,.F.);
#24=ORIENTED_EDGE('',*,*,#392,.F.);
#25=ORIENTED_EDGE('',*,*,#393,.F.);
#26=ORIENTED_EDGE('',*,*,#394,.F.);
#27=ORIENTED_EDGE('',*,*,#395,.F.);
#28=ORIENTED_EDGE('',*,*,#396,.T.);
#29=ORIENTED_EDGE('',*,*,#397,.F.);
#30=ORIENTED_EDGE('',*,*,#398,.T.);
#31=ORIENTED_EDGE('',*,*,#399,.T.);
#32=ORIENTED_EDGE('',*,*,#400,.F.);
#33=ORIENTED_EDGE('',*,*,#401,.F.);
#34=ORIENTED_EDGE('',*,*,#402,.T.);
#35=ORIENTED_EDGE('',*,*,#403,.F.);
#36=ORIENTED_EDGE('',*,*,#404,.T.);
#37=ORIENTED_EDGE('',*,*,#405,.F.);
#38=ORIENTED_EDGE('',*,*,#406,.T.);
#39=ORIENTED_EDGE('',*,*,#407,.F.);
#40=ORIENTED_EDGE('',*,*,#408,.T.);
#41=ORIENTED_EDGE('',*,*,#409,.T.);
#42=ORIENTED_EDGE('',*,*,#410,.F.);
#43=ORIENTED_EDGE('',*,*,#411,.F.);
#44=ORIENTED_EDGE('',*,*,#412,.T.);
#45=ORIENTED_EDGE('',*,*,#413,.F.);
#46=ORIENTED_EDGE('',*,*,#414,.T.);
#47=ORIENTED_EDGE('',*,*,#415,.F.);
#48=ORIENTED_EDGE('',*,*,#416,.T.);
#49=ORIENTED_EDGE('',*,*,#417,.T.);
#50=ORIENTED_EDGE('',*,*,#418,.F.);
#51=ORIENTED_EDGE('',*,*,#419,.F.);
#52=ORIENTED_EDGE('',*,*,#420,.T.);
#53=ORIENTED_EDGE('',*,*,#421,.T.);
#54=ORIENTED_EDGE('',*,*,#422,.F.);
#55=ORIENTED_EDGE('',*,*,#387,.F.);
#56=ORIENTED_EDGE('',*,*,#423,.F.);
#57=ORIENTED_EDGE('',*,*,#397,.T.);
#58=ORIENTED_EDGE('',*,*,#424,.T.);
#59=ORIENTED_EDGE('',*,*,#390,.T.);
#60=ORIENTED_EDGE('',*,*,#425,.F.);
#61=ORIENTED_EDGE('',*,*,#398,.F.);
#62=ORIENTED_EDGE('',*,*,#423,.T.);
#63=ORIENTED_EDGE('',*,*,#389,.T.);
#64=ORIENTED_EDGE('',*,*,#426,.F.);
#65=ORIENTED_EDGE('',*,*,#399,.F.);
#66=ORIENTED_EDGE('',*,*,#425,.T.);
#67=ORIENTED_EDGE('',*,*,#388,.F.);
#68=ORIENTED_EDGE('',*,*,#424,.F.);
#69=ORIENTED_EDGE('',*,*,#400,.T.);
#70=ORIENTED_EDGE('',*,*,#426,.T.);
#71=ORIENTED_EDGE('',*,*,#391,.T.);
#72=ORIENTED_EDGE('',*,*,#427,.F.);
#73=ORIENTED_EDGE('',*,*,#428,.F.);
#74=ORIENTED_EDGE('',*,*,#429,.T.);
#75=ORIENTED_EDGE('',*,*,#396,.F.);
#76=ORIENTED_EDGE('',*,*,#430,.F.);
#77=ORIENTED_EDGE('',*,*,#431,.T.);
#78=ORIENTED_EDGE('',*,*,#427,.T.);
#79=ORIENTED_EDGE('',*,*,#395,.T.);
#80=ORIENTED_EDGE('',*,*,#432,.F.);
#81=ORIENTED_EDGE('',*,*,#433,.F.);
#82=ORIENTED_EDGE('',*,*,#430,.T.);
#83=ORIENTED_EDGE('',*,*,#394,.T.);
#84=ORIENTED_EDGE('',*,*,#434,.F.);
#85=ORIENTED_EDGE('',*,*,#435,.F.);
#86=ORIENTED_EDGE('',*,*,#432,.T.);
#87=ORIENTED_EDGE('',*,*,#393,.T.);
#88=ORIENTED_EDGE('',*,*,#436,.F.);
#89=ORIENTED_EDGE('',*,*,#437,.F.);
#90=ORIENTED_EDGE('',*,*,#434,.T.);
#91=ORIENTED_EDGE('',*,*,#392,.T.);
#92=ORIENTED_EDGE('',*,*,#429,.F.);
#93=ORIENTED_EDGE('',*,*,#438,.F.);
#94=ORIENTED_EDGE('',*,*,#436,.T.);
#95=ORIENTED_EDGE('',*,*,#428,.T.);
#96=ORIENTED_EDGE('',*,*,#431,.F.);
#97=ORIENTED_EDGE('',*,*,#433,.T.);
#98=ORIENTED_EDGE('',*,*,#435,.T.);
#99=ORIENTED_EDGE('',*,*,#437,.T.);
#100=ORIENTED_EDGE('',*,*,#438,.T.);
#101=ORIENTED_EDGE('',*,*,#402,.F.);
#102=ORIENTED_EDGE('',*,*,#439,.F.);
#103=ORIENTED_EDGE('',*,*,#440,.T.);
#104=ORIENTED_EDGE('',*,*,#441,.T.);
#105=ORIENTED_EDGE('',*,*,#401,.T.);
#106=ORIENTED_EDGE('',*,*,#442,.F.);
#107=ORIENTED_EDGE('',*,*,#443,.F.);
#108=ORIENTED_EDGE('',*,*,#439,.T.);
#109=ORIENTED_EDGE('',*,*,#406,.F.);
#110=ORIENTED_EDGE('',*,*,#444,.F.);
#111=ORIENTED_EDGE('',*,*,#445,.T.);
#112=ORIENTED_EDGE('',*,*,#442,.T.);
#113=ORIENTED_EDGE('',*,*,#405,.T.);
#114=ORIENTED_EDGE('',*,*,#446,.F.);
#115=ORIENTED_EDGE('',*,*,#447,.F.);
#116=ORIENTED_EDGE('',*,*,#444,.T.);
#117=ORIENTED_EDGE('',*,*,#404,.F.);
#118=ORIENTED_EDGE('',*,*,#448,.F.);
#119=ORIENTED_EDGE('',*,*,#449,.T.);
#120=ORIENTED_EDGE('',*,*,#446,.T.);
#121=ORIENTED_EDGE('',*,*,#403,.T.);
#122=ORIENTED_EDGE('',*,*,#441,.F.);
#123=ORIENTED_EDGE('',*,*,#450,.F.);
#124=ORIENTED_EDGE('',*,*,#448,.T.);
#125=ORIENTED_EDGE('',*,*,#440,.F.);
#126=ORIENTED_EDGE('',*,*,#443,.T.);
#127=ORIENTED_EDGE('',*,*,#445,.F.);
#128=ORIENTED_EDGE('',*,*,#447,.T.);
#129=ORIENTED_EDGE('',*,*,#449,.F.);
#130=ORIENTED_EDGE('',*,*,#450,.T.);
#131=ORIENTED_EDGE('',*,*,#408,.F.);
#132=ORIENTED_EDGE('',*,*,#451,.F.);
#133=ORIENTED_EDGE('',*,*,#452,.T.);
#134=ORIENTED_EDGE('',*,*,#453,.T.);
#135=ORIENTED_EDGE('',*,*,#407,.T.);
#136=ORIENTED_EDGE('',*,*,#454,.F.);
#137=ORIENTED_EDGE('',*,*,#455,.F.);
#138=ORIENTED_EDGE('',*,*,#451,.T.);
#139=ORIENTED_EDGE('',*,*,#412,.F.);
#140=ORIENTED_EDGE('',*,*,#456,.F.);
#141=ORIENTED_EDGE('',*,*,#457,.T.);
#142=ORIENTED_EDGE('',*,*,#454,.T.);
#143=ORIENTED_EDGE('',*,*,#411,.T.);
#144=ORIENTED_EDGE('',*,*,#458,.F.);
#145=ORIENTED_EDGE('',*,*,#459,.F.);
#146=ORIENTED_EDGE('',*,*,#456,.T.);
#147=ORIENTED_EDGE('',*,*,#410,.T.);
#148=ORIENTED_EDGE('',*,*,#460,.F.);
#149=ORIENTED_EDGE('',*,*,#461,.F.);
#150=ORIENTED_EDGE('',*,*,#458,.T.);
#151=ORIENTED_EDGE('',*,*,#409,.F.);
#152=ORIENTED_EDGE('',*,*,#453,.F.);
#153=ORIENTED_EDGE('',*,*,#462,.T.);
#154=ORIENTED_EDGE('',*,*,#460,.T.);
#155=ORIENTED_EDGE('',*,*,#452,.F.);
#156=ORIENTED_EDGE('',*,*,#455,.T.);
#157=ORIENTED_EDGE('',*,*,#457,.F.);
#158=ORIENTED_EDGE('',*,*,#459,.T.);
#159=ORIENTED_EDGE('',*,*,#461,.T.);
#160=ORIENTED_EDGE('',*,*,#462,.F.);
#161=ORIENTED_EDGE('',*,*,#414,.F.);
#162=ORIENTED_EDGE('',*,*,#463,.F.);
#163=ORIENTED_EDGE('',*,*,#464,.T.);
#164=ORIENTED_EDGE('',*,*,#465,.T.);
#165=ORIENTED_EDGE('',*,*,#413,.T.);
#166=ORIENTED_EDGE('',*,*,#466,.F.);
#167=ORIENTED_EDGE('',*,*,#467,.F.);
#168=ORIENTED_EDGE('',*,*,#463,.T.);
#169=ORIENTED_EDGE('',*,*,#418,.T.);
#170=ORIENTED_EDGE('',*,*,#468,.F.);
#171=ORIENTED_EDGE('',*,*,#469,.F.);
#172=ORIENTED_EDGE('',*,*,#466,.T.);
#173=ORIENTED_EDGE('',*,*,#417,.F.);
#174=ORIENTED_EDGE('',*,*,#470,.F.);
#175=ORIENTED_EDGE('',*,*,#471,.T.);
#176=ORIENTED_EDGE('',*,*,#468,.T.);
#177=ORIENTED_EDGE('',*,*,#416,.F.);
#178=ORIENTED_EDGE('',*,*,#472,.F.);
#179=ORIENTED_EDGE('',*,*,#473,.T.);
#180=ORIENTED_EDGE('',*,*,#470,.T.);
#181=ORIENTED_EDGE('',*,*,#415,.T.);
#182=ORIENTED_EDGE('',*,*,#465,.F.);
#183=ORIENTED_EDGE('',*,*,#474,.F.);
#184=ORIENTED_EDGE('',*,*,#472,.T.);
#185=ORIENTED_EDGE('',*,*,#464,.F.);
#186=ORIENTED_EDGE('',*,*,#467,.T.);
#187=ORIENTED_EDGE('',*,*,#469,.T.);
#188=ORIENTED_EDGE('',*,*,#471,.F.);
#189=ORIENTED_EDGE('',*,*,#473,.F.);
#190=ORIENTED_EDGE('',*,*,#474,.T.);
#191=ORIENTED_EDGE('',*,*,#420,.F.);
#192=ORIENTED_EDGE('',*,*,#475,.F.);
#193=ORIENTED_EDGE('',*,*,#476,.T.);
#194=ORIENTED_EDGE('',*,*,#477,.T.);
#195=ORIENTED_EDGE('',*,*,#419,.T.);
#196=ORIENTED_EDGE('',*,*,#478,.F.);
#197=ORIENTED_EDGE('',*,*,#479,.F.);
#198=ORIENTED_EDGE('',*,*,#475,.T.);
#199=ORIENTED_EDGE('',*,*,#422,.T.);
#200=ORIENTED_EDGE('',*,*,#480,.F.);
#201=ORIENTED_EDGE('',*,*,#481,.F.);
#202=ORIENTED_EDGE('',*,*,#478,.T.);
#203=ORIENTED_EDGE('',*,*,#421,.F.);
#204=ORIENTED_EDGE('',*,*,#477,.F.);
#205=ORIENTED_EDGE('',*,*,#482,.T.);
#206=ORIENTED_EDGE('',*,*,#480,.T.);
#207=ORIENTED_EDGE('',*,*,#476,.F.);
#208=ORIENTED_EDGE('',*,*,#479,.T.);
#209=ORIENTED_EDGE('',*,*,#481,.T.);
#210=ORIENTED_EDGE('',*,*,#482,.F.);
#211=ORIENTED_EDGE('',*,*,#383,.F.);
#212=ORIENTED_EDGE('',*,*,#483,.F.);
#213=ORIENTED_EDGE('',*,*,#484,.T.);
#214=ORIENTED_EDGE('',*,*,#485,.T.);
#215=ORIENTED_EDGE('',*,*,#386,.T.);
#216=ORIENTED_EDGE('',*,*,#486,.F.);
#217=ORIENTED_EDGE('',*,*,#487,.F.);
#218=ORIENTED_EDGE('',*,*,#483,.T.);
#219=ORIENTED_EDGE('',*,*,#385,.T.);
#220=ORIENTED_EDGE('',*,*,#488,.F.);
#221=ORIENTED_EDGE('',*,*,#489,.F.);
#222=ORIENTED_EDGE('',*,*,#486,.T.);
#223=ORIENTED_EDGE('',*,*,#490,.F.);
#224=ORIENTED_EDGE('',*,*,#491,.F.);
#225=ORIENTED_EDGE('',*,*,#492,.T.);
#226=ORIENTED_EDGE('',*,*,#493,.T.);
#227=ORIENTED_EDGE('',*,*,#494,.T.);
#228=ORIENTED_EDGE('',*,*,#495,.F.);
#229=ORIENTED_EDGE('',*,*,#496,.F.);
#230=ORIENTED_EDGE('',*,*,#491,.T.);
#231=ORIENTED_EDGE('',*,*,#497,.T.);
#232=ORIENTED_EDGE('',*,*,#498,.F.);
#233=ORIENTED_EDGE('',*,*,#499,.F.);
#234=ORIENTED_EDGE('',*,*,#495,.T.);
#235=ORIENTED_EDGE('',*,*,#500,.F.);
#236=ORIENTED_EDGE('',*,*,#493,.F.);
#237=ORIENTED_EDGE('',*,*,#501,.T.);
#238=ORIENTED_EDGE('',*,*,#498,.T.);
#239=ORIENTED_EDGE('',*,*,#384,.F.);
#240=ORIENTED_EDGE('',*,*,#485,.F.);
#241=ORIENTED_EDGE('',*,*,#502,.T.);
#242=ORIENTED_EDGE('',*,*,#488,.T.);
#243=ORIENTED_EDGE('',*,*,#492,.F.);
#244=ORIENTED_EDGE('',*,*,#496,.T.);
#245=ORIENTED_EDGE('',*,*,#499,.T.);
#246=ORIENTED_EDGE('',*,*,#501,.F.);
#247=ORIENTED_EDGE('',*,*,#484,.F.);
#248=ORIENTED_EDGE('',*,*,#487,.T.);
#249=ORIENTED_EDGE('',*,*,#489,.T.);
#250=ORIENTED_EDGE('',*,*,#502,.F.);
#251=ORIENTED_EDGE('',*,*,#503,.T.);
#252=ORIENTED_EDGE('',*,*,#504,.F.);
#253=ORIENTED_EDGE('',*,*,#505,.F.);
#254=ORIENTED_EDGE('',*,*,#506,.T.);
#255=ORIENTED_EDGE('',*,*,#507,.F.);
#256=ORIENTED_EDGE('',*,*,#508,.T.);
#257=ORIENTED_EDGE('',*,*,#509,.F.);
#258=ORIENTED_EDGE('',*,*,#510,.F.);
#259=ORIENTED_EDGE('',*,*,#511,.T.);
#260=ORIENTED_EDGE('',*,*,#512,.T.);
#261=ORIENTED_EDGE('',*,*,#513,.T.);
#262=ORIENTED_EDGE('',*,*,#514,.F.);
#263=ORIENTED_EDGE('',*,*,#515,.F.);
#264=ORIENTED_EDGE('',*,*,#516,.T.);
#265=ORIENTED_EDGE('',*,*,#517,.T.);
#266=ORIENTED_EDGE('',*,*,#518,.T.);
#267=ORIENTED_EDGE('',*,*,#506,.F.);
#268=ORIENTED_EDGE('',*,*,#519,.F.);
#269=ORIENTED_EDGE('',*,*,#520,.T.);
#270=ORIENTED_EDGE('',*,*,#521,.T.);
#271=ORIENTED_EDGE('',*,*,#522,.T.);
#272=ORIENTED_EDGE('',*,*,#503,.F.);
#273=ORIENTED_EDGE('',*,*,#518,.F.);
#274=ORIENTED_EDGE('',*,*,#522,.F.);
#275=ORIENTED_EDGE('',*,*,#523,.F.);
#276=ORIENTED_EDGE('',*,*,#524,.T.);
#277=ORIENTED_EDGE('',*,*,#504,.T.);
#278=ORIENTED_EDGE('',*,*,#525,.F.);
#279=ORIENTED_EDGE('',*,*,#526,.T.);
#280=ORIENTED_EDGE('',*,*,#514,.T.);
#281=ORIENTED_EDGE('',*,*,#527,.F.);
#282=ORIENTED_EDGE('',*,*,#526,.F.);
#283=ORIENTED_EDGE('',*,*,#528,.F.);
#284=ORIENTED_EDGE('',*,*,#529,.T.);
#285=ORIENTED_EDGE('',*,*,#515,.T.);
#286=ORIENTED_EDGE('',*,*,#530,.F.);
#287=ORIENTED_EDGE('',*,*,#531,.T.);
#288=ORIENTED_EDGE('',*,*,#519,.T.);
#289=ORIENTED_EDGE('',*,*,#505,.T.);
#290=ORIENTED_EDGE('',*,*,#524,.F.);
#291=ORIENTED_EDGE('',*,*,#532,.T.);
#292=ORIENTED_EDGE('',*,*,#533,.T.);
#293=ORIENTED_EDGE('',*,*,#534,.F.);
#294=ORIENTED_EDGE('',*,*,#535,.T.);
#295=ORIENTED_EDGE('',*,*,#536,.F.);
#296=ORIENTED_EDGE('',*,*,#537,.F.);
#297=ORIENTED_EDGE('',*,*,#530,.T.);
#298=ORIENTED_EDGE('',*,*,#538,.T.);
#299=ORIENTED_EDGE('',*,*,#539,.T.);
#300=ORIENTED_EDGE('',*,*,#516,.F.);
#301=ORIENTED_EDGE('',*,*,#529,.F.);
#302=ORIENTED_EDGE('',*,*,#540,.T.);
#303=ORIENTED_EDGE('',*,*,#536,.T.);
#304=ORIENTED_EDGE('',*,*,#541,.T.);
#305=ORIENTED_EDGE('',*,*,#542,.T.);
#306=ORIENTED_EDGE('',*,*,#543,.F.);
#307=ORIENTED_EDGE('',*,*,#508,.F.);
#308=ORIENTED_EDGE('',*,*,#544,.T.);
#309=ORIENTED_EDGE('',*,*,#545,.F.);
#310=ORIENTED_EDGE('',*,*,#546,.F.);
#311=ORIENTED_EDGE('',*,*,#509,.T.);
#312=ORIENTED_EDGE('',*,*,#543,.T.);
#313=ORIENTED_EDGE('',*,*,#547,.F.);
#314=ORIENTED_EDGE('',*,*,#548,.F.);
#315=ORIENTED_EDGE('',*,*,#510,.T.);
#316=ORIENTED_EDGE('',*,*,#546,.T.);
#317=ORIENTED_EDGE('',*,*,#549,.T.);
#318=ORIENTED_EDGE('',*,*,#550,.F.);
#319=ORIENTED_EDGE('',*,*,#511,.F.);
#320=ORIENTED_EDGE('',*,*,#548,.T.);
#321=ORIENTED_EDGE('',*,*,#551,.T.);
#322=ORIENTED_EDGE('',*,*,#552,.F.);
#323=ORIENTED_EDGE('',*,*,#512,.F.);
#324=ORIENTED_EDGE('',*,*,#550,.T.);
#325=ORIENTED_EDGE('',*,*,#553,.F.);
#326=ORIENTED_EDGE('',*,*,#544,.F.);
#327=ORIENTED_EDGE('',*,*,#507,.T.);
#328=ORIENTED_EDGE('',*,*,#552,.T.);
#329=ORIENTED_EDGE('',*,*,#513,.F.);
#330=ORIENTED_EDGE('',*,*,#554,.T.);
#331=ORIENTED_EDGE('',*,*,#555,.T.);
#332=ORIENTED_EDGE('',*,*,#556,.T.);
#333=ORIENTED_EDGE('',*,*,#538,.F.);
#334=ORIENTED_EDGE('',*,*,#557,.T.);
#335=ORIENTED_EDGE('',*,*,#556,.F.);
#336=ORIENTED_EDGE('',*,*,#558,.F.);
#337=ORIENTED_EDGE('',*,*,#559,.T.);
#338=ORIENTED_EDGE('',*,*,#527,.T.);
#339=ORIENTED_EDGE('',*,*,#517,.F.);
#340=ORIENTED_EDGE('',*,*,#539,.F.);
#341=ORIENTED_EDGE('',*,*,#537,.T.);
#342=ORIENTED_EDGE('',*,*,#540,.F.);
#343=ORIENTED_EDGE('',*,*,#528,.T.);
#344=ORIENTED_EDGE('',*,*,#525,.T.);
#345=ORIENTED_EDGE('',*,*,#559,.F.);
#346=ORIENTED_EDGE('',*,*,#560,.F.);
#347=ORIENTED_EDGE('',*,*,#561,.F.);
#348=ORIENTED_EDGE('',*,*,#532,.F.);
#349=ORIENTED_EDGE('',*,*,#523,.T.);
#350=ORIENTED_EDGE('',*,*,#521,.F.);
#351=ORIENTED_EDGE('',*,*,#520,.F.);
#352=ORIENTED_EDGE('',*,*,#531,.F.);
#353=ORIENTED_EDGE('',*,*,#562,.T.);
#354=ORIENTED_EDGE('',*,*,#563,.F.);
#355=ORIENTED_EDGE('',*,*,#533,.F.);
#356=ORIENTED_EDGE('',*,*,#561,.T.);
#357=ORIENTED_EDGE('',*,*,#564,.F.);
#358=ORIENTED_EDGE('',*,*,#565,.F.);
#359=ORIENTED_EDGE('',*,*,#535,.F.);
#360=ORIENTED_EDGE('',*,*,#534,.T.);
#361=ORIENTED_EDGE('',*,*,#563,.T.);
#362=ORIENTED_EDGE('',*,*,#541,.F.);
#363=ORIENTED_EDGE('',*,*,#565,.T.);
#364=ORIENTED_EDGE('',*,*,#566,.T.);
#365=ORIENTED_EDGE('',*,*,#557,.F.);
#366=ORIENTED_EDGE('',*,*,#490,.T.);
#367=ORIENTED_EDGE('',*,*,#500,.T.);
#368=ORIENTED_EDGE('',*,*,#497,.F.);
#369=ORIENTED_EDGE('',*,*,#494,.F.);
#370=ORIENTED_EDGE('',*,*,#566,.F.);
#371=ORIENTED_EDGE('',*,*,#564,.T.);
#372=ORIENTED_EDGE('',*,*,#562,.F.);
#373=ORIENTED_EDGE('',*,*,#560,.T.);
#374=ORIENTED_EDGE('',*,*,#558,.T.);
#375=ORIENTED_EDGE('',*,*,#555,.F.);
#376=ORIENTED_EDGE('',*,*,#554,.F.);
#377=ORIENTED_EDGE('',*,*,#553,.T.);
#378=ORIENTED_EDGE('',*,*,#551,.F.);
#379=ORIENTED_EDGE('',*,*,#549,.F.);
#380=ORIENTED_EDGE('',*,*,#547,.T.);
#381=ORIENTED_EDGE('',*,*,#545,.T.);
#382=ORIENTED_EDGE('',*,*,#542,.F.);
#383=EDGE_CURVE('',#567,#568,#690,.T.);
#384=EDGE_CURVE('',#568,#569,#691,.T.);
#385=EDGE_CURVE('',#570,#569,#692,.T.);
#386=EDGE_CURVE('',#567,#570,#693,.T.);
#387=EDGE_CURVE('',#571,#572,#694,.T.);
#388=EDGE_CURVE('',#572,#573,#695,.T.);
#389=EDGE_CURVE('',#574,#573,#696,.T.);
#390=EDGE_CURVE('',#571,#574,#697,.T.);
#391=EDGE_CURVE('',#575,#576,#698,.T.);
#392=EDGE_CURVE('',#577,#575,#699,.T.);
#393=EDGE_CURVE('',#578,#577,#700,.T.);
#394=EDGE_CURVE('',#579,#578,#701,.T.);
#395=EDGE_CURVE('',#580,#579,#702,.T.);
#396=EDGE_CURVE('',#580,#576,#703,.T.);
#397=EDGE_CURVE('',#581,#582,#704,.T.);
#398=EDGE_CURVE('',#581,#583,#705,.T.);
#399=EDGE_CURVE('',#583,#584,#706,.T.);
#400=EDGE_CURVE('',#582,#584,#707,.T.);
#401=EDGE_CURVE('',#585,#586,#708,.T.);
#402=EDGE_CURVE('',#585,#587,#709,.T.);
#403=EDGE_CURVE('',#588,#587,#710,.T.);
#404=EDGE_CURVE('',#588,#589,#711,.T.);
#405=EDGE_CURVE('',#590,#589,#712,.T.);
#406=EDGE_CURVE('',#590,#586,#713,.T.);
#407=EDGE_CURVE('',#591,#592,#714,.T.);
#408=EDGE_CURVE('',#591,#593,#715,.T.);
#409=EDGE_CURVE('',#593,#594,#716,.T.);
#410=EDGE_CURVE('',#595,#594,#717,.T.);
#411=EDGE_CURVE('',#596,#595,#718,.T.);
#412=EDGE_CURVE('',#596,#592,#719,.T.);
#413=EDGE_CURVE('',#597,#598,#720,.T.);
#414=EDGE_CURVE('',#597,#599,#721,.T.);
#415=EDGE_CURVE('',#600,#599,#722,.T.);
#416=EDGE_CURVE('',#600,#601,#723,.T.);
#417=EDGE_CURVE('',#601,#602,#724,.T.);
#418=EDGE_CURVE('',#598,#602,#725,.T.);
#419=EDGE_CURVE('',#603,#604,#726,.T.);
#420=EDGE_CURVE('',#603,#605,#727,.T.);
#421=EDGE_CURVE('',#605,#606,#728,.T.);
#422=EDGE_CURVE('',#604,#606,#729,.T.);
#423=EDGE_CURVE('',#581,#571,#730,.T.);
#424=EDGE_CURVE('',#582,#572,#731,.T.);
#425=EDGE_CURVE('',#583,#574,#732,.T.);
#426=EDGE_CURVE('',#584,#573,#733,.T.);
#427=EDGE_CURVE('',#607,#576,#734,.T.);
#428=EDGE_CURVE('',#608,#607,#735,.T.);
#429=EDGE_CURVE('',#608,#575,#736,.T.);
#430=EDGE_CURVE('',#609,#580,#737,.T.);
#431=EDGE_CURVE('',#609,#607,#738,.T.);
#432=EDGE_CURVE('',#610,#579,#739,.T.);
#433=EDGE_CURVE('',#609,#610,#740,.T.);
#434=EDGE_CURVE('',#611,#578,#741,.T.);
#435=EDGE_CURVE('',#610,#611,#742,.T.);
#436=EDGE_CURVE('',#612,#577,#743,.T.);
#437=EDGE_CURVE('',#611,#612,#744,.T.);
#438=EDGE_CURVE('',#612,#608,#745,.T.);
#439=EDGE_CURVE('',#613,#585,#746,.T.);
#440=EDGE_CURVE('',#613,#614,#747,.T.);
#441=EDGE_CURVE('',#614,#587,#748,.T.);
#442=EDGE_CURVE('',#615,#586,#749,.T.);
#443=EDGE_CURVE('',#613,#615,#750,.T.);
#444=EDGE_CURVE('',#616,#590,#751,.T.);
#445=EDGE_CURVE('',#616,#615,#752,.T.);
#446=EDGE_CURVE('',#617,#589,#753,.T.);
#447=EDGE_CURVE('',#616,#617,#754,.T.);
#448=EDGE_CURVE('',#618,#588,#755,.T.);
#449=EDGE_CURVE('',#618,#617,#756,.T.);
#450=EDGE_CURVE('',#618,#614,#757,.T.);
#451=EDGE_CURVE('',#619,#591,#758,.T.);
#452=EDGE_CURVE('',#619,#620,#759,.T.);
#453=EDGE_CURVE('',#620,#593,#760,.T.);
#454=EDGE_CURVE('',#621,#592,#761,.T.);
#455=EDGE_CURVE('',#619,#621,#762,.T.);
#456=EDGE_CURVE('',#622,#596,#763,.T.);
#457=EDGE_CURVE('',#622,#621,#764,.T.);
#458=EDGE_CURVE('',#623,#595,#765,.T.);
#459=EDGE_CURVE('',#622,#623,#766,.T.);
#460=EDGE_CURVE('',#624,#594,#767,.T.);
#461=EDGE_CURVE('',#623,#624,#768,.T.);
#462=EDGE_CURVE('',#620,#624,#769,.T.);
#463=EDGE_CURVE('',#625,#597,#770,.T.);
#464=EDGE_CURVE('',#625,#626,#771,.T.);
#465=EDGE_CURVE('',#626,#599,#772,.T.);
#466=EDGE_CURVE('',#627,#598,#773,.T.);
#467=EDGE_CURVE('',#625,#627,#774,.T.);
#468=EDGE_CURVE('',#628,#602,#775,.T.);
#469=EDGE_CURVE('',#627,#628,#776,.T.);
#470=EDGE_CURVE('',#629,#601,#777,.T.);
#471=EDGE_CURVE('',#629,#628,#778,.T.);
#472=EDGE_CURVE('',#630,#600,#779,.T.);
#473=EDGE_CURVE('',#630,#629,#780,.T.);
#474=EDGE_CURVE('',#630,#626,#781,.T.);
#475=EDGE_CURVE('',#631,#603,#782,.T.);
#476=EDGE_CURVE('',#631,#632,#783,.T.);
#477=EDGE_CURVE('',#632,#605,#784,.T.);
#478=EDGE_CURVE('',#633,#604,#785,.T.);
#479=EDGE_CURVE('',#631,#633,#786,.T.);
#480=EDGE_CURVE('',#634,#606,#787,.T.);
#481=EDGE_CURVE('',#633,#634,#788,.T.);
#482=EDGE_CURVE('',#632,#634,#789,.T.);
#483=EDGE_CURVE('',#635,#567,#790,.T.);
#484=EDGE_CURVE('',#635,#636,#791,.T.);
#485=EDGE_CURVE('',#636,#568,#792,.T.);
#486=EDGE_CURVE('',#637,#570,#793,.T.);
#487=EDGE_CURVE('',#635,#637,#794,.T.);
#488=EDGE_CURVE('',#638,#569,#795,.T.);
#489=EDGE_CURVE('',#637,#638,#796,.T.);
#490=EDGE_CURVE('',#639,#640,#797,.T.);
#491=EDGE_CURVE('',#641,#639,#798,.T.);
#492=EDGE_CURVE('',#641,#642,#799,.T.);
#493=EDGE_CURVE('',#642,#640,#800,.T.);
#494=EDGE_CURVE('',#639,#643,#801,.T.);
#495=EDGE_CURVE('',#644,#643,#802,.T.);
#496=EDGE_CURVE('',#641,#644,#803,.T.);
#497=EDGE_CURVE('',#643,#645,#804,.T.);
#498=EDGE_CURVE('',#646,#645,#805,.T.);
#499=EDGE_CURVE('',#644,#646,#806,.T.);
#500=EDGE_CURVE('',#640,#645,#807,.T.);
#501=EDGE_CURVE('',#642,#646,#808,.T.);
#502=EDGE_CURVE('',#636,#638,#809,.T.);
#503=EDGE_CURVE('',#647,#648,#810,.T.);
#504=EDGE_CURVE('',#649,#648,#811,.T.);
#505=EDGE_CURVE('',#650,#649,#812,.T.);
#506=EDGE_CURVE('',#650,#647,#813,.T.);
#507=EDGE_CURVE('',#651,#652,#814,.T.);
#508=EDGE_CURVE('',#651,#653,#815,.T.);
#509=EDGE_CURVE('',#654,#653,#816,.T.);
#510=EDGE_CURVE('',#655,#654,#817,.T.);
#511=EDGE_CURVE('',#655,#656,#818,.T.);
#512=EDGE_CURVE('',#656,#652,#819,.T.);
#513=EDGE_CURVE('',#657,#657,#13,.T.);
#514=EDGE_CURVE('',#658,#659,#820,.T.);
#515=EDGE_CURVE('',#660,#658,#821,.T.);
#516=EDGE_CURVE('',#660,#661,#822,.T.);
#517=EDGE_CURVE('',#661,#659,#823,.T.);
#518=EDGE_CURVE('',#662,#647,#824,.T.);
#519=EDGE_CURVE('',#663,#650,#825,.T.);
#520=EDGE_CURVE('',#663,#662,#826,.T.);
#521=EDGE_CURVE('',#662,#664,#827,.T.);
#522=EDGE_CURVE('',#664,#648,#828,.T.);
#523=EDGE_CURVE('',#665,#664,#829,.T.);
#524=EDGE_CURVE('',#665,#649,#830,.T.);
#525=EDGE_CURVE('',#666,#667,#831,.T.);
#526=EDGE_CURVE('',#666,#658,#832,.T.);
#527=EDGE_CURVE('',#667,#659,#833,.T.);
#528=EDGE_CURVE('',#668,#666,#834,.T.);
#529=EDGE_CURVE('',#668,#660,#835,.T.);
#530=EDGE_CURVE('',#669,#670,#836,.T.);
#531=EDGE_CURVE('',#669,#663,#837,.T.);
#532=EDGE_CURVE('',#665,#671,#838,.T.);
#533=EDGE_CURVE('',#671,#672,#839,.T.);
#534=EDGE_CURVE('',#670,#672,#840,.T.);
#535=EDGE_CURVE('',#670,#673,#841,.T.);
#536=EDGE_CURVE('',#674,#673,#842,.T.);
#537=EDGE_CURVE('',#669,#674,#843,.T.);
#538=EDGE_CURVE('',#675,#676,#844,.T.);
#539=EDGE_CURVE('',#676,#661,#845,.T.);
#540=EDGE_CURVE('',#668,#674,#846,.T.);
#541=EDGE_CURVE('',#673,#675,#847,.T.);
#542=EDGE_CURVE('',#677,#678,#848,.T.);
#543=EDGE_CURVE('',#653,#678,#849,.T.);
#544=EDGE_CURVE('',#651,#677,#850,.T.);
#545=EDGE_CURVE('',#679,#678,#851,.T.);
#546=EDGE_CURVE('',#654,#679,#852,.T.);
#547=EDGE_CURVE('',#680,#679,#853,.T.);
#548=EDGE_CURVE('',#655,#680,#854,.T.);
#549=EDGE_CURVE('',#680,#681,#855,.T.);
#550=EDGE_CURVE('',#656,#681,#856,.T.);
#551=EDGE_CURVE('',#681,#682,#857,.T.);
#552=EDGE_CURVE('',#652,#682,#858,.T.);
#553=EDGE_CURVE('',#677,#682,#859,.T.);
#554=EDGE_CURVE('',#683,#683,#14,.T.);
#555=EDGE_CURVE('',#684,#685,#860,.T.);
#556=EDGE_CURVE('',#685,#676,#861,.T.);
#557=EDGE_CURVE('',#675,#684,#862,.T.);
#558=EDGE_CURVE('',#686,#685,#863,.T.);
#559=EDGE_CURVE('',#686,#667,#864,.T.);
#560=EDGE_CURVE('',#687,#686,#865,.T.);
#561=EDGE_CURVE('',#671,#687,#866,.T.);
#562=EDGE_CURVE('',#687,#688,#867,.T.);
#563=EDGE_CURVE('',#672,#688,#868,.T.);
#564=EDGE_CURVE('',#689,#688,#869,.T.);
#565=EDGE_CURVE('',#673,#689,#870,.T.);
#566=EDGE_CURVE('',#689,#684,#871,.T.);
#567=VERTEX_POINT('',#1799);
#568=VERTEX_POINT('',#1800);
#569=VERTEX_POINT('',#1802);
#570=VERTEX_POINT('',#1804);
#571=VERTEX_POINT('',#1807);
#572=VERTEX_POINT('',#1808);
#573=VERTEX_POINT('',#1810);
#574=VERTEX_POINT('',#1812);
#575=VERTEX_POINT('',#1816);
#576=VERTEX_POINT('',#1817);
#577=VERTEX_POINT('',#1819);
#578=VERTEX_POINT('',#1821);
#579=VERTEX_POINT('',#1823);
#580=VERTEX_POINT('',#1825);
#581=VERTEX_POINT('',#1828);
#582=VERTEX_POINT('',#1829);
#583=VERTEX_POINT('',#1831);
#584=VERTEX_POINT('',#1833);
#585=VERTEX_POINT('',#1836);
#586=VERTEX_POINT('',#1837);
#587=VERTEX_POINT('',#1839);
#588=VERTEX_POINT('',#1841);
#589=VERTEX_POINT('',#1843);
#590=VERTEX_POINT('',#1845);
#591=VERTEX_POINT('',#1848);
#592=VERTEX_POINT('',#1849);
#593=VERTEX_POINT('',#1851);
#594=VERTEX_POINT('',#1853);
#595=VERTEX_POINT('',#1855);
#596=VERTEX_POINT('',#1857);
#597=VERTEX_POINT('',#1860);
#598=VERTEX_POINT('',#1861);
#599=VERTEX_POINT('',#1863);
#600=VERTEX_POINT('',#1865);
#601=VERTEX_POINT('',#1867);
#602=VERTEX_POINT('',#1869);
#603=VERTEX_POINT('',#1872);
#604=VERTEX_POINT('',#1873);
#605=VERTEX_POINT('',#1875);
#606=VERTEX_POINT('',#1877);
#607=VERTEX_POINT('',#1889);
#608=VERTEX_POINT('',#1891);
#609=VERTEX_POINT('',#1895);
#610=VERTEX_POINT('',#1899);
#611=VERTEX_POINT('',#1903);
#612=VERTEX_POINT('',#1907);
#613=VERTEX_POINT('',#1914);
#614=VERTEX_POINT('',#1916);
#615=VERTEX_POINT('',#1920);
#616=VERTEX_POINT('',#1924);
#617=VERTEX_POINT('',#1928);
#618=VERTEX_POINT('',#1932);
#619=VERTEX_POINT('',#1939);
#620=VERTEX_POINT('',#1941);
#621=VERTEX_POINT('',#1945);
#622=VERTEX_POINT('',#1949);
#623=VERTEX_POINT('',#1953);
#624=VERTEX_POINT('',#1957);
#625=VERTEX_POINT('',#1964);
#626=VERTEX_POINT('',#1966);
#627=VERTEX_POINT('',#1970);
#628=VERTEX_POINT('',#1974);
#629=VERTEX_POINT('',#1978);
#630=VERTEX_POINT('',#1982);
#631=VERTEX_POINT('',#1989);
#632=VERTEX_POINT('',#1991);
#633=VERTEX_POINT('',#1995);
#634=VERTEX_POINT('',#1999);
#635=VERTEX_POINT('',#2006);
#636=VERTEX_POINT('',#2008);
#637=VERTEX_POINT('',#2012);
#638=VERTEX_POINT('',#2016);
#639=VERTEX_POINT('',#2020);
#640=VERTEX_POINT('',#2021);
#641=VERTEX_POINT('',#2023);
#642=VERTEX_POINT('',#2025);
#643=VERTEX_POINT('',#2029);
#644=VERTEX_POINT('',#2031);
#645=VERTEX_POINT('',#2035);
#646=VERTEX_POINT('',#2037);
#647=VERTEX_POINT('',#2047);
#648=VERTEX_POINT('',#2048);
#649=VERTEX_POINT('',#2050);
#650=VERTEX_POINT('',#2052);
#651=VERTEX_POINT('',#2056);
#652=VERTEX_POINT('',#2057);
#653=VERTEX_POINT('',#2059);
#654=VERTEX_POINT('',#2061);
#655=VERTEX_POINT('',#2063);
#656=VERTEX_POINT('',#2065);
#657=VERTEX_POINT('',#2069);
#658=VERTEX_POINT('',#2072);
#659=VERTEX_POINT('',#2073);
#660=VERTEX_POINT('',#2075);
#661=VERTEX_POINT('',#2077);
#662=VERTEX_POINT('',#2081);
#663=VERTEX_POINT('',#2083);
#664=VERTEX_POINT('',#2087);
#665=VERTEX_POINT('',#2091);
#666=VERTEX_POINT('',#2095);
#667=VERTEX_POINT('',#2096);
#668=VERTEX_POINT('',#2101);
#669=VERTEX_POINT('',#2105);
#670=VERTEX_POINT('',#2106);
#671=VERTEX_POINT('',#2109);
#672=VERTEX_POINT('',#2111);
#673=VERTEX_POINT('',#2115);
#674=VERTEX_POINT('',#2117);
#675=VERTEX_POINT('',#2121);
#676=VERTEX_POINT('',#2122);
#677=VERTEX_POINT('',#2128);
#678=VERTEX_POINT('',#2129);
#679=VERTEX_POINT('',#2134);
#680=VERTEX_POINT('',#2138);
#681=VERTEX_POINT('',#2142);
#682=VERTEX_POINT('',#2146);
#683=VERTEX_POINT('',#2152);
#684=VERTEX_POINT('',#2155);
#685=VERTEX_POINT('',#2156);
#686=VERTEX_POINT('',#2161);
#687=VERTEX_POINT('',#2165);
#688=VERTEX_POINT('',#2169);
#689=VERTEX_POINT('',#2173);
#690=LINE('',#1798,#872);
#691=LINE('',#1801,#873);
#692=LINE('',#1803,#874);
#693=LINE('',#1805,#875);
#694=LINE('',#1806,#876);
#695=LINE('',#1809,#877);
#696=LINE('',#1811,#878);
#697=LINE('',#1813,#879);
#698=LINE('',#1815,#880);
#699=LINE('',#1818,#881);
#700=LINE('',#1820,#882);
#701=LINE('',#1822,#883);
#702=LINE('',#1824,#884);
#703=LINE('',#1826,#885);
#704=LINE('',#1827,#886);
#705=LINE('',#1830,#887);
#706=LINE('',#1832,#888);
#707=LINE('',#1834,#889);
#708=LINE('',#1835,#890);
#709=LINE('',#1838,#891);
#710=LINE('',#1840,#892);
#711=LINE('',#1842,#893);
#712=LINE('',#1844,#894);
#713=LINE('',#1846,#895);
#714=LINE('',#1847,#896);
#715=LINE('',#1850,#897);
#716=LINE('',#1852,#898);
#717=LINE('',#1854,#899);
#718=LINE('',#1856,#900);
#719=LINE('',#1858,#901);
#720=LINE('',#1859,#902);
#721=LINE('',#1862,#903);
#722=LINE('',#1864,#904);
#723=LINE('',#1866,#905);
#724=LINE('',#1868,#906);
#725=LINE('',#1870,#907);
#726=LINE('',#1871,#908);
#727=LINE('',#1874,#909);
#728=LINE('',#1876,#910);
#729=LINE('',#1878,#911);
#730=LINE('',#1880,#912);
#731=LINE('',#1881,#913);
#732=LINE('',#1883,#914);
#733=LINE('',#1885,#915);
#734=LINE('',#1888,#916);
#735=LINE('',#1890,#917);
#736=LINE('',#1892,#918);
#737=LINE('',#1894,#919);
#738=LINE('',#1896,#920);
#739=LINE('',#1898,#921);
#740=LINE('',#1900,#922);
#741=LINE('',#1902,#923);
#742=LINE('',#1904,#924);
#743=LINE('',#1906,#925);
#744=LINE('',#1908,#926);
#745=LINE('',#1910,#927);
#746=LINE('',#1913,#928);
#747=LINE('',#1915,#929);
#748=LINE('',#1917,#930);
#749=LINE('',#1919,#931);
#750=LINE('',#1921,#932);
#751=LINE('',#1923,#933);
#752=LINE('',#1925,#934);
#753=LINE('',#1927,#935);
#754=LINE('',#1929,#936);
#755=LINE('',#1931,#937);
#756=LINE('',#1933,#938);
#757=LINE('',#1935,#939);
#758=LINE('',#1938,#940);
#759=LINE('',#1940,#941);
#760=LINE('',#1942,#942);
#761=LINE('',#1944,#943);
#762=LINE('',#1946,#944);
#763=LINE('',#1948,#945);
#764=LINE('',#1950,#946);
#765=LINE('',#1952,#947);
#766=LINE('',#1954,#948);
#767=LINE('',#1956,#949);
#768=LINE('',#1958,#950);
#769=LINE('',#1960,#951);
#770=LINE('',#1963,#952);
#771=LINE('',#1965,#953);
#772=LINE('',#1967,#954);
#773=LINE('',#1969,#955);
#774=LINE('',#1971,#956);
#775=LINE('',#1973,#957);
#776=LINE('',#1975,#958);
#777=LINE('',#1977,#959);
#778=LINE('',#1979,#960);
#779=LINE('',#1981,#961);
#780=LINE('',#1983,#962);
#781=LINE('',#1985,#963);
#782=LINE('',#1988,#964);
#783=LINE('',#1990,#965);
#784=LINE('',#1992,#966);
#785=LINE('',#1994,#967);
#786=LINE('',#1996,#968);
#787=LINE('',#1998,#969);
#788=LINE('',#2000,#970);
#789=LINE('',#2002,#971);
#790=LINE('',#2005,#972);
#791=LINE('',#2007,#973);
#792=LINE('',#2009,#974);
#793=LINE('',#2011,#975);
#794=LINE('',#2013,#976);
#795=LINE('',#2015,#977);
#796=LINE('',#2017,#978);
#797=LINE('',#2019,#979);
#798=LINE('',#2022,#980);
#799=LINE('',#2024,#981);
#800=LINE('',#2026,#982);
#801=LINE('',#2028,#983);
#802=LINE('',#2030,#984);
#803=LINE('',#2032,#985);
#804=LINE('',#2034,#986);
#805=LINE('',#2036,#987);
#806=LINE('',#2038,#988);
#807=LINE('',#2040,#989);
#808=LINE('',#2041,#990);
#809=LINE('',#2043,#991);
#810=LINE('',#2046,#992);
#811=LINE('',#2049,#993);
#812=LINE('',#2051,#994);
#813=LINE('',#2053,#995);
#814=LINE('',#2055,#996);
#815=LINE('',#2058,#997);
#816=LINE('',#2060,#998);
#817=LINE('',#2062,#999);
#818=LINE('',#2064,#1000);
#819=LINE('',#2066,#1001);
#820=LINE('',#2071,#1002);
#821=LINE('',#2074,#1003);
#822=LINE('',#2076,#1004);
#823=LINE('',#2078,#1005);
#824=LINE('',#2080,#1006);
#825=LINE('',#2082,#1007);
#826=LINE('',#2084,#1008);
#827=LINE('',#2086,#1009);
#828=LINE('',#2088,#1010);
#829=LINE('',#2090,#1011);
#830=LINE('',#2092,#1012);
#831=LINE('',#2094,#1013);
#832=LINE('',#2097,#1014);
#833=LINE('',#2098,#1015);
#834=LINE('',#2100,#1016);
#835=LINE('',#2102,#1017);
#836=LINE('',#2104,#1018);
#837=LINE('',#2107,#1019);
#838=LINE('',#2108,#1020);
#839=LINE('',#2110,#1021);
#840=LINE('',#2112,#1022);
#841=LINE('',#2114,#1023);
#842=LINE('',#2116,#1024);
#843=LINE('',#2118,#1025);
#844=LINE('',#2120,#1026);
#845=LINE('',#2123,#1027);
#846=LINE('',#2124,#1028);
#847=LINE('',#2125,#1029);
#848=LINE('',#2127,#1030);
#849=LINE('',#2130,#1031);
#850=LINE('',#2131,#1032);
#851=LINE('',#2133,#1033);
#852=LINE('',#2135,#1034);
#853=LINE('',#2137,#1035);
#854=LINE('',#2139,#1036);
#855=LINE('',#2141,#1037);
#856=LINE('',#2143,#1038);
#857=LINE('',#2145,#1039);
#858=LINE('',#2147,#1040);
#859=LINE('',#2149,#1041);
#860=LINE('',#2154,#1042);
#861=LINE('',#2157,#1043);
#862=LINE('',#2158,#1044);
#863=LINE('',#2160,#1045);
#864=LINE('',#2162,#1046);
#865=LINE('',#2164,#1047);
#866=LINE('',#2166,#1048);
#867=LINE('',#2168,#1049);
#868=LINE('',#2170,#1050);
#869=LINE('',#2172,#1051);
#870=LINE('',#2174,#1052);
#871=LINE('',#2176,#1053);
#872=VECTOR('',#1464,1.);
#873=VECTOR('',#1465,1.);
#874=VECTOR('',#1466,1.);
#875=VECTOR('',#1467,1.);
#876=VECTOR('',#1468,1.);
#877=VECTOR('',#1469,1.);
#878=VECTOR('',#1470,1.);
#879=VECTOR('',#1471,1.);
#880=VECTOR('',#1474,1.);
#881=VECTOR('',#1475,1.);
#882=VECTOR('',#1476,1.);
#883=VECTOR('',#1477,1.);
#884=VECTOR('',#1478,1.);
#885=VECTOR('',#1479,1.);
#886=VECTOR('',#1480,1.);
#887=VECTOR('',#1481,1.);
#888=VECTOR('',#1482,1.);
#889=VECTOR('',#1483,1.);
#890=VECTOR('',#1484,1.);
#891=VECTOR('',#1485,1.);
#892=VECTOR('',#1486,1.);
#893=VECTOR('',#1487,1.);
#894=VECTOR('',#1488,1.);
#895=VECTOR('',#1489,1.);
#896=VECTOR('',#1490,1.);
#897=VECTOR('',#1491,1.);
#898=VECTOR('',#1492,1.);
#899=VECTOR('',#1493,1.);
#900=VECTOR('',#1494,1.);
#901=VECTOR('',#1495,1.);
#902=VECTOR('',#1496,1.);
#903=VECTOR('',#1497,1.);
#904=VECTOR('',#1498,1.);
#905=VECTOR('',#1499,1.);
#906=VECTOR('',#1500,1.);
#907=VECTOR('',#1501,1.);
#908=VECTOR('',#1502,1.);
#909=VECTOR('',#1503,1.);
#910=VECTOR('',#1504,1.);
#911=VECTOR('',#1505,1.);
#912=VECTOR('',#1508,1.);
#913=VECTOR('',#1509,1.);
#914=VECTOR('',#1512,1.);
#915=VECTOR('',#1515,1.);
#916=VECTOR('',#1520,1.);
#917=VECTOR('',#1521,1.);
#918=VECTOR('',#1522,1.);
#919=VECTOR('',#1525,1.);
#920=VECTOR('',#1526,1.);
#921=VECTOR('',#1529,1.);
#922=VECTOR('',#1530,1.);
#923=VECTOR('',#1533,1.);
#924=VECTOR('',#1534,1.);
#925=VECTOR('',#1537,1.);
#926=VECTOR('',#1538,1.);
#927=VECTOR('',#1541,1.);
#928=VECTOR('',#1546,1.);
#929=VECTOR('',#1547,1.);
#930=VECTOR('',#1548,1.);
#931=VECTOR('',#1551,1.);
#932=VECTOR('',#1552,1.);
#933=VECTOR('',#1555,1.);
#934=VECTOR('',#1556,1.);
#935=VECTOR('',#1559,1.);
#936=VECTOR('',#1560,1.);
#937=VECTOR('',#1563,1.);
#938=VECTOR('',#1564,1.);
#939=VECTOR('',#1567,1.);
#940=VECTOR('',#1572,1.);
#941=VECTOR('',#1573,1.);
#942=VECTOR('',#1574,1.);
#943=VECTOR('',#1577,1.);
#944=VECTOR('',#1578,1.);
#945=VECTOR('',#1581,1.);
#946=VECTOR('',#1582,1.);
#947=VECTOR('',#1585,1.);
#948=VECTOR('',#1586,1.);
#949=VECTOR('',#1589,1.);
#950=VECTOR('',#1590,1.);
#951=VECTOR('',#1593,1.);
#952=VECTOR('',#1598,1.);
#953=VECTOR('',#1599,1.);
#954=VECTOR('',#1600,1.);
#955=VECTOR('',#1603,1.);
#956=VECTOR('',#1604,1.);
#957=VECTOR('',#1607,1.);
#958=VECTOR('',#1608,1.);
#959=VECTOR('',#1611,1.);
#960=VECTOR('',#1612,1.);
#961=VECTOR('',#1615,1.);
#962=VECTOR('',#1616,1.);
#963=VECTOR('',#1619,1.);
#964=VECTOR('',#1624,1.);
#965=VECTOR('',#1625,1.);
#966=VECTOR('',#1626,1.);
#967=VECTOR('',#1629,1.);
#968=VECTOR('',#1630,1.);
#969=VECTOR('',#1633,1.);
#970=VECTOR('',#1634,1.);
#971=VECTOR('',#1637,1.);
#972=VECTOR('',#1642,1.);
#973=VECTOR('',#1643,1.);
#974=VECTOR('',#1644,1.);
#975=VECTOR('',#1647,1.);
#976=VECTOR('',#1648,1.);
#977=VECTOR('',#1651,1.);
#978=VECTOR('',#1652,1.);
#979=VECTOR('',#1655,1.);
#980=VECTOR('',#1656,1.);
#981=VECTOR('',#1657,1.);
#982=VECTOR('',#1658,1.);
#983=VECTOR('',#1661,1.);
#984=VECTOR('',#1662,1.);
#985=VECTOR('',#1663,1.);
#986=VECTOR('',#1666,1.);
#987=VECTOR('',#1667,1.);
#988=VECTOR('',#1668,1.);
#989=VECTOR('',#1671,1.);
#990=VECTOR('',#1672,1.);
#991=VECTOR('',#1675,1.);
#992=VECTOR('',#1680,1.);
#993=VECTOR('',#1681,1.);
#994=VECTOR('',#1682,1.);
#995=VECTOR('',#1683,1.);
#996=VECTOR('',#1686,1.);
#997=VECTOR('',#1687,1.);
#998=VECTOR('',#1688,1.);
#999=VECTOR('',#1689,1.);
#1000=VECTOR('',#1690,1.);
#1001=VECTOR('',#1691,1.);
#1002=VECTOR('',#1698,1.);
#1003=VECTOR('',#1699,1.);
#1004=VECTOR('',#1700,1.);
#1005=VECTOR('',#1701,1.);
#1006=VECTOR('',#1704,1.);
#1007=VECTOR('',#1705,1.);
#1008=VECTOR('',#1706,1.);
#1009=VECTOR('',#1709,1.);
#1010=VECTOR('',#1710,1.);
#1011=VECTOR('',#1713,1.);
#1012=VECTOR('',#1714,1.);
#1013=VECTOR('',#1717,1.);
#1014=VECTOR('',#1718,1.);
#1015=VECTOR('',#1719,1.);
#1016=VECTOR('',#1722,1.);
#1017=VECTOR('',#1723,1.);
#1018=VECTOR('',#1726,1.);
#1019=VECTOR('',#1727,1.);
#1020=VECTOR('',#1728,1.);
#1021=VECTOR('',#1729,1.);
#1022=VECTOR('',#1730,1.);
#1023=VECTOR('',#1733,1.);
#1024=VECTOR('',#1734,1.);
#1025=VECTOR('',#1735,1.);
#1026=VECTOR('',#1738,1.);
#1027=VECTOR('',#1739,1.);
#1028=VECTOR('',#1740,1.);
#1029=VECTOR('',#1741,1.);
#1030=VECTOR('',#1744,1.);
#1031=VECTOR('',#1745,1.);
#1032=VECTOR('',#1746,1.);
#1033=VECTOR('',#1749,1.);
#1034=VECTOR('',#1750,1.);
#1035=VECTOR('',#1753,1.);
#1036=VECTOR('',#1754,1.);
#1037=VECTOR('',#1757,1.);
#1038=VECTOR('',#1758,1.);
#1039=VECTOR('',#1761,1.);
#1040=VECTOR('',#1762,1.);
#1041=VECTOR('',#1765,1.);
#1042=VECTOR('',#1772,1.);
#1043=VECTOR('',#1773,1.);
#1044=VECTOR('',#1774,1.);
#1045=VECTOR('',#1777,1.);
#1046=VECTOR('',#1778,1.);
#1047=VECTOR('',#1781,1.);
#1048=VECTOR('',#1782,1.);
#1049=VECTOR('',#1785,1.);
#1050=VECTOR('',#1786,1.);
#1051=VECTOR('',#1789,1.);
#1052=VECTOR('',#1790,1.);
#1053=VECTOR('',#1793,1.);
#1054=EDGE_LOOP('',(#15,#16,#17,#18));
#1055=EDGE_LOOP('',(#19,#20,#21,#22));
#1056=EDGE_LOOP('',(#23,#24,#25,#26,#27,#28));
#1057=EDGE_LOOP('',(#29,#30,#31,#32));
#1058=EDGE_LOOP('',(#33,#34,#35,#36,#37,#38));
#1059=EDGE_LOOP('',(#39,#40,#41,#42,#43,#44));
#1060=EDGE_LOOP('',(#45,#46,#47,#48,#49,#50));
#1061=EDGE_LOOP('',(#51,#52,#53,#54));
#1062=EDGE_LOOP('',(#55,#56,#57,#58));
#1063=EDGE_LOOP('',(#59,#60,#61,#62));
#1064=EDGE_LOOP('',(#63,#64,#65,#66));
#1065=EDGE_LOOP('',(#67,#68,#69,#70));
#1066=EDGE_LOOP('',(#71,#72,#73,#74));
#1067=EDGE_LOOP('',(#75,#76,#77,#78));
#1068=EDGE_LOOP('',(#79,#80,#81,#82));
#1069=EDGE_LOOP('',(#83,#84,#85,#86));
#1070=EDGE_LOOP('',(#87,#88,#89,#90));
#1071=EDGE_LOOP('',(#91,#92,#93,#94));
#1072=EDGE_LOOP('',(#95,#96,#97,#98,#99,#100));
#1073=EDGE_LOOP('',(#101,#102,#103,#104));
#1074=EDGE_LOOP('',(#105,#106,#107,#108));
#1075=EDGE_LOOP('',(#109,#110,#111,#112));
#1076=EDGE_LOOP('',(#113,#114,#115,#116));
#1077=EDGE_LOOP('',(#117,#118,#119,#120));
#1078=EDGE_LOOP('',(#121,#122,#123,#124));
#1079=EDGE_LOOP('',(#125,#126,#127,#128,#129,#130));
#1080=EDGE_LOOP('',(#131,#132,#133,#134));
#1081=EDGE_LOOP('',(#135,#136,#137,#138));
#1082=EDGE_LOOP('',(#139,#140,#141,#142));
#1083=EDGE_LOOP('',(#143,#144,#145,#146));
#1084=EDGE_LOOP('',(#147,#148,#149,#150));
#1085=EDGE_LOOP('',(#151,#152,#153,#154));
#1086=EDGE_LOOP('',(#155,#156,#157,#158,#159,#160));
#1087=EDGE_LOOP('',(#161,#162,#163,#164));
#1088=EDGE_LOOP('',(#165,#166,#167,#168));
#1089=EDGE_LOOP('',(#169,#170,#171,#172));
#1090=EDGE_LOOP('',(#173,#174,#175,#176));
#1091=EDGE_LOOP('',(#177,#178,#179,#180));
#1092=EDGE_LOOP('',(#181,#182,#183,#184));
#1093=EDGE_LOOP('',(#185,#186,#187,#188,#189,#190));
#1094=EDGE_LOOP('',(#191,#192,#193,#194));
#1095=EDGE_LOOP('',(#195,#196,#197,#198));
#1096=EDGE_LOOP('',(#199,#200,#201,#202));
#1097=EDGE_LOOP('',(#203,#204,#205,#206));
#1098=EDGE_LOOP('',(#207,#208,#209,#210));
#1099=EDGE_LOOP('',(#211,#212,#213,#214));
#1100=EDGE_LOOP('',(#215,#216,#217,#218));
#1101=EDGE_LOOP('',(#219,#220,#221,#222));
#1102=EDGE_LOOP('',(#223,#224,#225,#226));
#1103=EDGE_LOOP('',(#227,#228,#229,#230));
#1104=EDGE_LOOP('',(#231,#232,#233,#234));
#1105=EDGE_LOOP('',(#235,#236,#237,#238));
#1106=EDGE_LOOP('',(#239,#240,#241,#242));
#1107=EDGE_LOOP('',(#243,#244,#245,#246));
#1108=EDGE_LOOP('',(#247,#248,#249,#250));
#1109=EDGE_LOOP('',(#251,#252,#253,#254));
#1110=EDGE_LOOP('',(#255,#256,#257,#258,#259,#260));
#1111=EDGE_LOOP('',(#261));
#1112=EDGE_LOOP('',(#262,#263,#264,#265));
#1113=EDGE_LOOP('',(#266,#267,#268,#269));
#1114=EDGE_LOOP('',(#270,#271,#272,#273));
#1115=EDGE_LOOP('',(#274,#275,#276,#277));
#1116=EDGE_LOOP('',(#278,#279,#280,#281));
#1117=EDGE_LOOP('',(#282,#283,#284,#285));
#1118=EDGE_LOOP('',(#286,#287,#288,#289,#290,#291,#292,#293));
#1119=EDGE_LOOP('',(#294,#295,#296,#297));
#1120=EDGE_LOOP('',(#298,#299,#300,#301,#302,#303,#304));
#1121=EDGE_LOOP('',(#305,#306,#307,#308));
#1122=EDGE_LOOP('',(#309,#310,#311,#312));
#1123=EDGE_LOOP('',(#313,#314,#315,#316));
#1124=EDGE_LOOP('',(#317,#318,#319,#320));
#1125=EDGE_LOOP('',(#321,#322,#323,#324));
#1126=EDGE_LOOP('',(#325,#326,#327,#328));
#1127=EDGE_LOOP('',(#329));
#1128=EDGE_LOOP('',(#330));
#1129=EDGE_LOOP('',(#331,#332,#333,#334));
#1130=EDGE_LOOP('',(#335,#336,#337,#338,#339,#340));
#1131=EDGE_LOOP('',(#341,#342,#343,#344,#345,#346,#347,#348,#349,#350,#351,
#352));
#1132=EDGE_LOOP('',(#353,#354,#355,#356));
#1133=EDGE_LOOP('',(#357,#358,#359,#360,#361));
#1134=EDGE_LOOP('',(#362,#363,#364,#365));
#1135=EDGE_LOOP('',(#366,#367,#368,#369));
#1136=EDGE_LOOP('',(#370,#371,#372,#373,#374,#375));
#1137=EDGE_LOOP('',(#376));
#1138=EDGE_LOOP('',(#377,#378,#379,#380,#381,#382));
#1139=FACE_BOUND('',#1054,.T.);
#1140=FACE_BOUND('',#1055,.T.);
#1141=FACE_BOUND('',#1056,.T.);
#1142=FACE_BOUND('',#1057,.T.);
#1143=FACE_BOUND('',#1058,.T.);
#1144=FACE_BOUND('',#1059,.T.);
#1145=FACE_BOUND('',#1060,.T.);
#1146=FACE_BOUND('',#1061,.T.);
#1147=FACE_BOUND('',#1062,.T.);
#1148=FACE_BOUND('',#1063,.T.);
#1149=FACE_BOUND('',#1064,.T.);
#1150=FACE_BOUND('',#1065,.T.);
#1151=FACE_BOUND('',#1066,.T.);
#1152=FACE_BOUND('',#1067,.T.);
#1153=FACE_BOUND('',#1068,.T.);
#1154=FACE_BOUND('',#1069,.T.);
#1155=FACE_BOUND('',#1070,.T.);
#1156=FACE_BOUND('',#1071,.T.);
#1157=FACE_BOUND('',#1072,.T.);
#1158=FACE_BOUND('',#1073,.T.);
#1159=FACE_BOUND('',#1074,.T.);
#1160=FACE_BOUND('',#1075,.T.);
#1161=FACE_BOUND('',#1076,.T.);
#1162=FACE_BOUND('',#1077,.T.);
#1163=FACE_BOUND('',#1078,.T.);
#1164=FACE_BOUND('',#1079,.T.);
#1165=FACE_BOUND('',#1080,.T.);
#1166=FACE_BOUND('',#1081,.T.);
#1167=FACE_BOUND('',#1082,.T.);
#1168=FACE_BOUND('',#1083,.T.);
#1169=FACE_BOUND('',#1084,.T.);
#1170=FACE_BOUND('',#1085,.T.);
#1171=FACE_BOUND('',#1086,.T.);
#1172=FACE_BOUND('',#1087,.T.);
#1173=FACE_BOUND('',#1088,.T.);
#1174=FACE_BOUND('',#1089,.T.);
#1175=FACE_BOUND('',#1090,.T.);
#1176=FACE_BOUND('',#1091,.T.);
#1177=FACE_BOUND('',#1092,.T.);
#1178=FACE_BOUND('',#1093,.T.);
#1179=FACE_BOUND('',#1094,.T.);
#1180=FACE_BOUND('',#1095,.T.);
#1181=FACE_BOUND('',#1096,.T.);
#1182=FACE_BOUND('',#1097,.T.);
#1183=FACE_BOUND('',#1098,.T.);
#1184=FACE_BOUND('',#1099,.T.);
#1185=FACE_BOUND('',#1100,.T.);
#1186=FACE_BOUND('',#1101,.T.);
#1187=FACE_BOUND('',#1102,.T.);
#1188=FACE_BOUND('',#1103,.T.);
#1189=FACE_BOUND('',#1104,.T.);
#1190=FACE_BOUND('',#1105,.T.);
#1191=FACE_BOUND('',#1106,.T.);
#1192=FACE_BOUND('',#1107,.T.);
#1193=FACE_BOUND('',#1108,.T.);
#1194=FACE_BOUND('',#1109,.T.);
#1195=FACE_BOUND('',#1110,.T.);
#1196=FACE_BOUND('',#1111,.T.);
#1197=FACE_BOUND('',#1112,.T.);
#1198=FACE_BOUND('',#1113,.T.);
#1199=FACE_BOUND('',#1114,.T.);
#1200=FACE_BOUND('',#1115,.T.);
#1201=FACE_BOUND('',#1116,.T.);
#1202=FACE_BOUND('',#1117,.T.);
#1203=FACE_BOUND('',#1118,.T.);
#1204=FACE_BOUND('',#1119,.T.);
#1205=FACE_BOUND('',#1120,.T.);
#1206=FACE_BOUND('',#1121,.T.);
#1207=FACE_BOUND('',#1122,.T.);
#1208=FACE_BOUND('',#1123,.T.);
#1209=FACE_BOUND('',#1124,.T.);
#1210=FACE_BOUND('',#1125,.T.);
#1211=FACE_BOUND('',#1126,.T.);
#1212=FACE_BOUND('',#1127,.T.);
#1213=FACE_BOUND('',#1128,.T.);
#1214=FACE_BOUND('',#1129,.T.);
#1215=FACE_BOUND('',#1130,.T.);
#1216=FACE_BOUND('',#1131,.T.);
#1217=FACE_BOUND('',#1132,.T.);
#1218=FACE_BOUND('',#1133,.T.);
#1219=FACE_BOUND('',#1134,.T.);
#1220=FACE_BOUND('',#1135,.T.);
#1221=FACE_BOUND('',#1136,.T.);
#1222=FACE_BOUND('',#1137,.T.);
#1223=FACE_BOUND('',#1138,.T.);
#1224=PLANE('',#1384);
#1225=PLANE('',#1385);
#1226=PLANE('',#1386);
#1227=PLANE('',#1387);
#1228=PLANE('',#1388);
#1229=PLANE('',#1389);
#1230=PLANE('',#1390);
#1231=PLANE('',#1391);
#1232=PLANE('',#1392);
#1233=PLANE('',#1393);
#1234=PLANE('',#1394);
#1235=PLANE('',#1395);
#1236=PLANE('',#1396);
#1237=PLANE('',#1397);
#1238=PLANE('',#1398);
#1239=PLANE('',#1399);
#1240=PLANE('',#1400);
#1241=PLANE('',#1401);
#1242=PLANE('',#1402);
#1243=PLANE('',#1403);
#1244=PLANE('',#1404);
#1245=PLANE('',#1405);
#1246=PLANE('',#1406);
#1247=PLANE('',#1407);
#1248=PLANE('',#1408);
#1249=PLANE('',#1409);
#1250=PLANE('',#1410);
#1251=PLANE('',#1411);
#1252=PLANE('',#1412);
#1253=PLANE('',#1413);
#1254=PLANE('',#1414);
#1255=PLANE('',#1415);
#1256=PLANE('',#1416);
#1257=PLANE('',#1417);
#1258=PLANE('',#1418);
#1259=PLANE('',#1419);
#1260=PLANE('',#1420);
#1261=PLANE('',#1421);
#1262=PLANE('',#1422);
#1263=PLANE('',#1423);
#1264=PLANE('',#1424);
#1265=PLANE('',#1425);
#1266=PLANE('',#1426);
#1267=PLANE('',#1427);
#1268=PLANE('',#1428);
#1269=PLANE('',#1429);
#1270=PLANE('',#1430);
#1271=PLANE('',#1431);
#1272=PLANE('',#1432);
#1273=PLANE('',#1433);
#1274=PLANE('',#1434);
#1275=PLANE('',#1436);
#1276=PLANE('',#1437);
#1277=PLANE('',#1438);
#1278=PLANE('',#1439);
#1279=PLANE('',#1440);
#1280=PLANE('',#1441);
#1281=PLANE('',#1442);
#1282=PLANE('',#1443);
#1283=PLANE('',#1444);
#1284=PLANE('',#1445);
#1285=PLANE('',#1446);
#1286=PLANE('',#1447);
#1287=PLANE('',#1448);
#1288=PLANE('',#1449);
#1289=PLANE('',#1450);
#1290=PLANE('',#1453);
#1291=PLANE('',#1454);
#1292=PLANE('',#1455);
#1293=PLANE('',#1456);
#1294=PLANE('',#1457);
#1295=PLANE('',#1458);
#1296=PLANE('',#1459);
#1297=ADVANCED_FACE('',(#1139,#1140),#1224,.T.);
#1298=ADVANCED_FACE('',(#1141,#1142,#1143,#1144,#1145,#1146),#1225,.T.);
#1299=ADVANCED_FACE('',(#1147),#1226,.T.);
#1300=ADVANCED_FACE('',(#1148),#1227,.F.);
#1301=ADVANCED_FACE('',(#1149),#1228,.F.);
#1302=ADVANCED_FACE('',(#1150),#1229,.T.);
#1303=ADVANCED_FACE('',(#1151),#1230,.F.);
#1304=ADVANCED_FACE('',(#1152),#1231,.T.);
#1305=ADVANCED_FACE('',(#1153),#1232,.F.);
#1306=ADVANCED_FACE('',(#1154),#1233,.F.);
#1307=ADVANCED_FACE('',(#1155),#1234,.F.);
#1308=ADVANCED_FACE('',(#1156),#1235,.F.);
#1309=ADVANCED_FACE('',(#1157),#1236,.T.);
#1310=ADVANCED_FACE('',(#1158),#1237,.T.);
#1311=ADVANCED_FACE('',(#1159),#1238,.F.);
#1312=ADVANCED_FACE('',(#1160),#1239,.T.);
#1313=ADVANCED_FACE('',(#1161),#1240,.F.);
#1314=ADVANCED_FACE('',(#1162),#1241,.T.);
#1315=ADVANCED_FACE('',(#1163),#1242,.F.);
#1316=ADVANCED_FACE('',(#1164),#1243,.T.);
#1317=ADVANCED_FACE('',(#1165),#1244,.T.);
#1318=ADVANCED_FACE('',(#1166),#1245,.F.);
#1319=ADVANCED_FACE('',(#1167),#1246,.T.);
#1320=ADVANCED_FACE('',(#1168),#1247,.F.);
#1321=ADVANCED_FACE('',(#1169),#1248,.F.);
#1322=ADVANCED_FACE('',(#1170),#1249,.T.);
#1323=ADVANCED_FACE('',(#1171),#1250,.T.);
#1324=ADVANCED_FACE('',(#1172),#1251,.T.);
#1325=ADVANCED_FACE('',(#1173),#1252,.F.);
#1326=ADVANCED_FACE('',(#1174),#1253,.F.);
#1327=ADVANCED_FACE('',(#1175),#1254,.T.);
#1328=ADVANCED_FACE('',(#1176),#1255,.T.);
#1329=ADVANCED_FACE('',(#1177),#1256,.F.);
#1330=ADVANCED_FACE('',(#1178),#1257,.T.);
#1331=ADVANCED_FACE('',(#1179),#1258,.T.);
#1332=ADVANCED_FACE('',(#1180),#1259,.F.);
#1333=ADVANCED_FACE('',(#1181),#1260,.F.);
#1334=ADVANCED_FACE('',(#1182),#1261,.T.);
#1335=ADVANCED_FACE('',(#1183),#1262,.T.);
#1336=ADVANCED_FACE('',(#1184),#1263,.T.);
#1337=ADVANCED_FACE('',(#1185),#1264,.F.);
#1338=ADVANCED_FACE('',(#1186),#1265,.F.);
#1339=ADVANCED_FACE('',(#1187),#1266,.T.);
#1340=ADVANCED_FACE('',(#1188),#1267,.F.);
#1341=ADVANCED_FACE('',(#1189),#1268,.F.);
#1342=ADVANCED_FACE('',(#1190),#1269,.T.);
#1343=ADVANCED_FACE('',(#1191),#1270,.T.);
#1344=ADVANCED_FACE('',(#1192,#1193),#1271,.T.);
#1345=ADVANCED_FACE('',(#1194),#1272,.F.);
#1346=ADVANCED_FACE('',(#1195),#1273,.T.);
#1347=ADVANCED_FACE('',(#1196),#1274,.T.);
#1348=ADVANCED_FACE('',(#1197),#1275,.T.);
#1349=ADVANCED_FACE('',(#1198),#1276,.F.);
#1350=ADVANCED_FACE('',(#1199),#1277,.T.);
#1351=ADVANCED_FACE('',(#1200),#1278,.T.);
#1352=ADVANCED_FACE('',(#1201),#1279,.F.);
#1353=ADVANCED_FACE('',(#1202),#1280,.T.);
#1354=ADVANCED_FACE('',(#1203),#1281,.T.);
#1355=ADVANCED_FACE('',(#1204),#1282,.T.);
#1356=ADVANCED_FACE('',(#1205),#1283,.T.);
#1357=ADVANCED_FACE('',(#1206),#1284,.F.);
#1358=ADVANCED_FACE('',(#1207),#1285,.T.);
#1359=ADVANCED_FACE('',(#1208),#1286,.T.);
#1360=ADVANCED_FACE('',(#1209),#1287,.F.);
#1361=ADVANCED_FACE('',(#1210),#1288,.F.);
#1362=ADVANCED_FACE('',(#1211),#1289,.T.);
#1363=ADVANCED_FACE('',(#1212,#1213),#12,.T.);
#1364=ADVANCED_FACE('',(#1214),#1290,.F.);
#1365=ADVANCED_FACE('',(#1215),#1291,.F.);
#1366=ADVANCED_FACE('',(#1216),#1292,.F.);
#1367=ADVANCED_FACE('',(#1217),#1293,.F.);
#1368=ADVANCED_FACE('',(#1218),#1294,.T.);
#1369=ADVANCED_FACE('',(#1219),#1295,.F.);
#1370=ADVANCED_FACE('',(#1220,#1221,#1222,#1223),#1296,.T.);
#1371=CLOSED_SHELL('',(#1297,#1298,#1299,#1300,#1301,#1302,#1303,#1304,
#1305,#1306,#1307,#1308,#1309,#1310,#1311,#1312,#1313,#1314,#1315,#1316,
#1317,#1318,#1319,#1320,#1321,#1322,#1323,#1324,#1325,#1326,#1327,#1328,
#1329,#1330,#1331,#1332,#1333,#1334,#1335,#1336,#1337,#1338,#1339,#1340,
#1341,#1342,#1343,#1344,#1345,#1346,#1347,#1348,#1349,#1350,#1351,#1352,
#1353,#1354,#1355,#1356,#1357,#1358,#1359,#1360,#1361,#1362,#1363,#1364,
#1365,#1366,#1367,#1368,#1369,#1370));
#1372=STYLED_ITEM('',(#1373),#1380);
#1373=PRESENTATION_STYLE_ASSIGNMENT((#1374));
#1374=SURFACE_STYLE_USAGE(.BOTH.,#1375);
#1375=SURFACE_SIDE_STYLE('',(#1376));
#1376=SURFACE_STYLE_FILL_AREA(#1377);
#1377=FILL_AREA_STYLE('',(#1378));
#1378=FILL_AREA_STYLE_COLOUR('',#1379);
#1379=COLOUR_RGB('',0.498039215686275,0.498039215686275,0.498039215686275);
#1380=MANIFOLD_SOLID_BREP('BMat6',#1371);
#1381=SHAPE_DEFINITION_REPRESENTATION(#2184,#1382);
#1382=SHAPE_REPRESENTATION('BMat6',(#1383),#2179);
#1383=AXIS2_PLACEMENT_3D('',#1796,#1460,#1461);
#1384=AXIS2_PLACEMENT_3D('',#1797,#1462,#1463);
#1385=AXIS2_PLACEMENT_3D('',#1814,#1472,#1473);
#1386=AXIS2_PLACEMENT_3D('',#1879,#1506,#1507);
#1387=AXIS2_PLACEMENT_3D('',#1882,#1510,#1511);
#1388=AXIS2_PLACEMENT_3D('',#1884,#1513,#1514);
#1389=AXIS2_PLACEMENT_3D('',#1886,#1516,#1517);
#1390=AXIS2_PLACEMENT_3D('',#1887,#1518,#1519);
#1391=AXIS2_PLACEMENT_3D('',#1893,#1523,#1524);
#1392=AXIS2_PLACEMENT_3D('',#1897,#1527,#1528);
#1393=AXIS2_PLACEMENT_3D('',#1901,#1531,#1532);
#1394=AXIS2_PLACEMENT_3D('',#1905,#1535,#1536);
#1395=AXIS2_PLACEMENT_3D('',#1909,#1539,#1540);
#1396=AXIS2_PLACEMENT_3D('',#1911,#1542,#1543);
#1397=AXIS2_PLACEMENT_3D('',#1912,#1544,#1545);
#1398=AXIS2_PLACEMENT_3D('',#1918,#1549,#1550);
#1399=AXIS2_PLACEMENT_3D('',#1922,#1553,#1554);
#1400=AXIS2_PLACEMENT_3D('',#1926,#1557,#1558);
#1401=AXIS2_PLACEMENT_3D('',#1930,#1561,#1562);
#1402=AXIS2_PLACEMENT_3D('',#1934,#1565,#1566);
#1403=AXIS2_PLACEMENT_3D('',#1936,#1568,#1569);
#1404=AXIS2_PLACEMENT_3D('',#1937,#1570,#1571);
#1405=AXIS2_PLACEMENT_3D('',#1943,#1575,#1576);
#1406=AXIS2_PLACEMENT_3D('',#1947,#1579,#1580);
#1407=AXIS2_PLACEMENT_3D('',#1951,#1583,#1584);
#1408=AXIS2_PLACEMENT_3D('',#1955,#1587,#1588);
#1409=AXIS2_PLACEMENT_3D('',#1959,#1591,#1592);
#1410=AXIS2_PLACEMENT_3D('',#1961,#1594,#1595);
#1411=AXIS2_PLACEMENT_3D('',#1962,#1596,#1597);
#1412=AXIS2_PLACEMENT_3D('',#1968,#1601,#1602);
#1413=AXIS2_PLACEMENT_3D('',#1972,#1605,#1606);
#1414=AXIS2_PLACEMENT_3D('',#1976,#1609,#1610);
#1415=AXIS2_PLACEMENT_3D('',#1980,#1613,#1614);
#1416=AXIS2_PLACEMENT_3D('',#1984,#1617,#1618);
#1417=AXIS2_PLACEMENT_3D('',#1986,#1620,#1621);
#1418=AXIS2_PLACEMENT_3D('',#1987,#1622,#1623);
#1419=AXIS2_PLACEMENT_3D('',#1993,#1627,#1628);
#1420=AXIS2_PLACEMENT_3D('',#1997,#1631,#1632);
#1421=AXIS2_PLACEMENT_3D('',#2001,#1635,#1636);
#1422=AXIS2_PLACEMENT_3D('',#2003,#1638,#1639);
#1423=AXIS2_PLACEMENT_3D('',#2004,#1640,#1641);
#1424=AXIS2_PLACEMENT_3D('',#2010,#1645,#1646);
#1425=AXIS2_PLACEMENT_3D('',#2014,#1649,#1650);
#1426=AXIS2_PLACEMENT_3D('',#2018,#1653,#1654);
#1427=AXIS2_PLACEMENT_3D('',#2027,#1659,#1660);
#1428=AXIS2_PLACEMENT_3D('',#2033,#1664,#1665);
#1429=AXIS2_PLACEMENT_3D('',#2039,#1669,#1670);
#1430=AXIS2_PLACEMENT_3D('',#2042,#1673,#1674);
#1431=AXIS2_PLACEMENT_3D('',#2044,#1676,#1677);
#1432=AXIS2_PLACEMENT_3D('',#2045,#1678,#1679);
#1433=AXIS2_PLACEMENT_3D('',#2054,#1684,#1685);
#1434=AXIS2_PLACEMENT_3D('',#2067,#1692,#1693);
#1435=AXIS2_PLACEMENT_3D('',#2068,#1694,#1695);
#1436=AXIS2_PLACEMENT_3D('',#2070,#1696,#1697);
#1437=AXIS2_PLACEMENT_3D('',#2079,#1702,#1703);
#1438=AXIS2_PLACEMENT_3D('',#2085,#1707,#1708);
#1439=AXIS2_PLACEMENT_3D('',#2089,#1711,#1712);
#1440=AXIS2_PLACEMENT_3D('',#2093,#1715,#1716);
#1441=AXIS2_PLACEMENT_3D('',#2099,#1720,#1721);
#1442=AXIS2_PLACEMENT_3D('',#2103,#1724,#1725);
#1443=AXIS2_PLACEMENT_3D('',#2113,#1731,#1732);
#1444=AXIS2_PLACEMENT_3D('',#2119,#1736,#1737);
#1445=AXIS2_PLACEMENT_3D('',#2126,#1742,#1743);
#1446=AXIS2_PLACEMENT_3D('',#2132,#1747,#1748);
#1447=AXIS2_PLACEMENT_3D('',#2136,#1751,#1752);
#1448=AXIS2_PLACEMENT_3D('',#2140,#1755,#1756);
#1449=AXIS2_PLACEMENT_3D('',#2144,#1759,#1760);
#1450=AXIS2_PLACEMENT_3D('',#2148,#1763,#1764);
#1451=AXIS2_PLACEMENT_3D('',#2150,#1766,#1767);
#1452=AXIS2_PLACEMENT_3D('',#2151,#1768,#1769);
#1453=AXIS2_PLACEMENT_3D('',#2153,#1770,#1771);
#1454=AXIS2_PLACEMENT_3D('',#2159,#1775,#1776);
#1455=AXIS2_PLACEMENT_3D('',#2163,#1779,#1780);
#1456=AXIS2_PLACEMENT_3D('',#2167,#1783,#1784);
#1457=AXIS2_PLACEMENT_3D('',#2171,#1787,#1788);
#1458=AXIS2_PLACEMENT_3D('',#2175,#1791,#1792);
#1459=AXIS2_PLACEMENT_3D('',#2177,#1794,#1795);
#1460=DIRECTION('',(0.,0.,1.));
#1461=DIRECTION('',(1.,0.,0.));
#1462=DIRECTION('',(0.,0.,1.));
#1463=DIRECTION('',(1.,0.,0.));
#1464=DIRECTION('',(-1.,0.,0.));
#1465=DIRECTION('',(0.,-1.,0.));
#1466=DIRECTION('',(-1.,0.,0.));
#1467=DIRECTION('',(0.,-1.,0.));
#1468=DIRECTION('',(1.,0.,0.));
#1469=DIRECTION('',(0.,-1.,0.));
#1470=DIRECTION('',(1.,0.,0.));
#1471=DIRECTION('',(0.,-1.,0.));
#1472=DIRECTION('',(0.,0.,1.));
#1473=DIRECTION('',(1.,0.,0.));
#1474=DIRECTION('',(0.,1.,0.));
#1475=DIRECTION('',(1.,0.,0.));
#1476=DIRECTION('',(0.,1.,0.));
#1477=DIRECTION('',(1.,0.,0.));
#1478=DIRECTION('',(0.,-1.,0.));
#1479=DIRECTION('',(1.,0.,0.));
#1480=DIRECTION('',(1.,0.,0.));
#1481=DIRECTION('',(0.,-1.,0.));
#1482=DIRECTION('',(1.,0.,0.));
#1483=DIRECTION('',(0.,-1.,0.));
#1484=DIRECTION('',(-1.,0.,0.));
#1485=DIRECTION('',(0.,-1.,0.));
#1486=DIRECTION('',(1.,0.,0.));
#1487=DIRECTION('',(0.,1.,0.));
#1488=DIRECTION('',(-1.,0.,0.));
#1489=DIRECTION('',(0.,1.,0.));
#1490=DIRECTION('',(0.,1.,0.));
#1491=DIRECTION('',(1.,0.,0.));
#1492=DIRECTION('',(0.,-1.,0.));
#1493=DIRECTION('',(1.,0.,0.));
#1494=DIRECTION('',(0.,-1.,0.));
#1495=DIRECTION('',(1.,0.,0.));
#1496=DIRECTION('',(0.,-1.,0.));
#1497=DIRECTION('',(-1.,0.,0.));
#1498=DIRECTION('',(0.,-1.,0.));
#1499=DIRECTION('',(1.,0.,0.));
#1500=DIRECTION('',(0.,-1.,0.));
#1501=DIRECTION('',(1.,0.,0.));
#1502=DIRECTION('',(0.,-1.,0.));
#1503=DIRECTION('',(1.,0.,0.));
#1504=DIRECTION('',(0.,-1.,0.));
#1505=DIRECTION('',(1.,0.,0.));
#1506=DIRECTION('',(0.,1.,0.));
#1507=DIRECTION('',(0.,0.,1.));
#1508=DIRECTION('',(0.,0.,-1.));
#1509=DIRECTION('',(0.,0.,-1.));
#1510=DIRECTION('',(1.,0.,0.));
#1511=DIRECTION('',(0.,0.,-1.));
#1512=DIRECTION('',(0.,0.,-1.));
#1513=DIRECTION('',(0.,1.,0.));
#1514=DIRECTION('',(0.,0.,1.));
#1515=DIRECTION('',(0.,0.,-1.));
#1516=DIRECTION('',(1.,0.,0.));
#1517=DIRECTION('',(0.,0.,-1.));
#1518=DIRECTION('',(-1.,0.,0.));
#1519=DIRECTION('',(0.,0.,1.));
#1520=DIRECTION('',(0.,0.,-1.));
#1521=DIRECTION('',(0.,1.,0.));
#1522=DIRECTION('',(0.,0.,-1.));
#1523=DIRECTION('',(0.,1.,0.));
#1524=DIRECTION('',(0.,0.,1.));
#1525=DIRECTION('',(0.,0.,-1.));
#1526=DIRECTION('',(1.,0.,0.));
#1527=DIRECTION('',(1.,0.,0.));
#1528=DIRECTION('',(0.,0.,-1.));
#1529=DIRECTION('',(0.,0.,-1.));
#1530=DIRECTION('',(0.,-1.,0.));
#1531=DIRECTION('',(0.,1.,0.));
#1532=DIRECTION('',(0.,0.,1.));
#1533=DIRECTION('',(0.,0.,-1.));
#1534=DIRECTION('',(1.,0.,0.));
#1535=DIRECTION('',(-1.,0.,0.));
#1536=DIRECTION('',(0.,0.,1.));
#1537=DIRECTION('',(0.,0.,-1.));
#1538=DIRECTION('',(0.,1.,0.));
#1539=DIRECTION('',(0.,1.,0.));
#1540=DIRECTION('',(0.,0.,1.));
#1541=DIRECTION('',(1.,0.,0.));
#1542=DIRECTION('',(0.,0.,1.));
#1543=DIRECTION('',(1.,0.,0.));
#1544=DIRECTION('',(1.,0.,0.));
#1545=DIRECTION('',(0.,0.,-1.));
#1546=DIRECTION('',(0.,0.,-1.));
#1547=DIRECTION('',(0.,-1.,0.));
#1548=DIRECTION('',(0.,0.,-1.));
#1549=DIRECTION('',(0.,-1.,0.));
#1550=DIRECTION('',(0.,0.,-1.));
#1551=DIRECTION('',(0.,0.,-1.));
#1552=DIRECTION('',(-1.,0.,0.));
#1553=DIRECTION('',(-1.,0.,0.));
#1554=DIRECTION('',(0.,0.,1.));
#1555=DIRECTION('',(0.,0.,-1.));
#1556=DIRECTION('',(0.,1.,0.));
#1557=DIRECTION('',(0.,-1.,0.));
#1558=DIRECTION('',(0.,0.,-1.));
#1559=DIRECTION('',(0.,0.,-1.));
#1560=DIRECTION('',(-1.,0.,0.));
#1561=DIRECTION('',(-1.,0.,0.));
#1562=DIRECTION('',(0.,0.,1.));
#1563=DIRECTION('',(0.,0.,-1.));
#1564=DIRECTION('',(0.,1.,0.));
#1565=DIRECTION('',(0.,1.,0.));
#1566=DIRECTION('',(0.,0.,1.));
#1567=DIRECTION('',(1.,0.,0.));
#1568=DIRECTION('',(0.,0.,1.));
#1569=DIRECTION('',(1.,0.,0.));
#1570=DIRECTION('',(0.,1.,0.));
#1571=DIRECTION('',(0.,0.,1.));
#1572=DIRECTION('',(0.,0.,-1.));
#1573=DIRECTION('',(1.,0.,0.));
#1574=DIRECTION('',(0.,0.,-1.));
#1575=DIRECTION('',(-1.,0.,0.));
#1576=DIRECTION('',(0.,0.,1.));
#1577=DIRECTION('',(0.,0.,-1.));
#1578=DIRECTION('',(0.,1.,0.));
#1579=DIRECTION('',(0.,1.,0.));
#1580=DIRECTION('',(0.,0.,1.));
#1581=DIRECTION('',(0.,0.,-1.));
#1582=DIRECTION('',(1.,0.,0.));
#1583=DIRECTION('',(1.,0.,0.));
#1584=DIRECTION('',(0.,0.,-1.));
#1585=DIRECTION('',(0.,0.,-1.));
#1586=DIRECTION('',(0.,-1.,0.));
#1587=DIRECTION('',(0.,1.,0.));
#1588=DIRECTION('',(0.,0.,1.));
#1589=DIRECTION('',(0.,0.,-1.));
#1590=DIRECTION('',(1.,0.,0.));
#1591=DIRECTION('',(1.,0.,0.));
#1592=DIRECTION('',(0.,0.,-1.));
#1593=DIRECTION('',(0.,-1.,0.));
#1594=DIRECTION('',(0.,0.,1.));
#1595=DIRECTION('',(1.,0.,0.));
#1596=DIRECTION('',(0.,-1.,0.));
#1597=DIRECTION('',(0.,0.,-1.));
#1598=DIRECTION('',(0.,0.,-1.));
#1599=DIRECTION('',(-1.,0.,0.));
#1600=DIRECTION('',(0.,0.,-1.));
#1601=DIRECTION('',(1.,0.,0.));
#1602=DIRECTION('',(0.,0.,-1.));
#1603=DIRECTION('',(0.,0.,-1.));
#1604=DIRECTION('',(0.,-1.,0.));
#1605=DIRECTION('',(0.,1.,0.));
#1606=DIRECTION('',(0.,0.,1.));
#1607=DIRECTION('',(0.,0.,-1.));
#1608=DIRECTION('',(1.,0.,0.));
#1609=DIRECTION('',(1.,0.,0.));
#1610=DIRECTION('',(0.,0.,-1.));
#1611=DIRECTION('',(0.,0.,-1.));
#1612=DIRECTION('',(0.,-1.,0.));
#1613=DIRECTION('',(0.,1.,0.));
#1614=DIRECTION('',(0.,0.,1.));
#1615=DIRECTION('',(0.,0.,-1.));
#1616=DIRECTION('',(1.,0.,0.));
#1617=DIRECTION('',(1.,0.,0.));
#1618=DIRECTION('',(0.,0.,-1.));
#1619=DIRECTION('',(0.,-1.,0.));
#1620=DIRECTION('',(0.,0.,1.));
#1621=DIRECTION('',(1.,0.,0.));
#1622=DIRECTION('',(0.,-1.,0.));
#1623=DIRECTION('',(0.,0.,-1.));
#1624=DIRECTION('',(0.,0.,1.));
#1625=DIRECTION('',(1.,0.,0.));
#1626=DIRECTION('',(0.,0.,1.));
#1627=DIRECTION('',(-1.,0.,0.));
#1628=DIRECTION('',(0.,0.,1.));
#1629=DIRECTION('',(0.,0.,1.));
#1630=DIRECTION('',(0.,-1.,0.));
#1631=DIRECTION('',(0.,-1.,0.));
#1632=DIRECTION('',(0.,0.,-1.));
#1633=DIRECTION('',(0.,0.,1.));
#1634=DIRECTION('',(1.,0.,0.));
#1635=DIRECTION('',(-1.,0.,0.));
#1636=DIRECTION('',(0.,0.,1.));
#1637=DIRECTION('',(0.,-1.,0.));
#1638=DIRECTION('',(0.,0.,1.));
#1639=DIRECTION('',(1.,0.,0.));
#1640=DIRECTION('',(0.,-1.,0.));
#1641=DIRECTION('',(0.,0.,-1.));
#1642=DIRECTION('',(0.,0.,-1.));
#1643=DIRECTION('',(-1.,0.,0.));
#1644=DIRECTION('',(0.,0.,-1.));
#1645=DIRECTION('',(1.,0.,0.));
#1646=DIRECTION('',(0.,0.,-1.));
#1647=DIRECTION('',(0.,0.,-1.));
#1648=DIRECTION('',(0.,-1.,0.));
#1649=DIRECTION('',(0.,-1.,0.));
#1650=DIRECTION('',(0.,0.,-1.));
#1651=DIRECTION('',(0.,0.,-1.));
#1652=DIRECTION('',(-1.,0.,0.));
#1653=DIRECTION('',(1.,0.,0.));
#1654=DIRECTION('',(0.,0.,-1.));
#1655=DIRECTION('',(0.,-1.,0.));
#1656=DIRECTION('',(0.,0.,-1.));
#1657=DIRECTION('',(0.,-1.,0.));
#1658=DIRECTION('',(0.,0.,-1.));
#1659=DIRECTION('',(0.,-1.,0.));
#1660=DIRECTION('',(0.,0.,-1.));
#1661=DIRECTION('',(-1.,0.,0.));
#1662=DIRECTION('',(0.,0.,-1.));
#1663=DIRECTION('',(-1.,0.,0.));
#1664=DIRECTION('',(1.,0.,0.));
#1665=DIRECTION('',(0.,0.,-1.));
#1666=DIRECTION('',(0.,-1.,0.));
#1667=DIRECTION('',(0.,0.,-1.));
#1668=DIRECTION('',(0.,-1.,0.));
#1669=DIRECTION('',(0.,-1.,0.));
#1670=DIRECTION('',(0.,0.,-1.));
#1671=DIRECTION('',(-1.,0.,0.));
#1672=DIRECTION('',(-1.,0.,0.));
#1673=DIRECTION('',(1.,0.,0.));
#1674=DIRECTION('',(0.,0.,-1.));
#1675=DIRECTION('',(0.,-1.,0.));
#1676=DIRECTION('',(0.,0.,1.));
#1677=DIRECTION('',(1.,0.,0.));
#1678=DIRECTION('',(1.,0.,0.));
#1679=DIRECTION('',(0.,0.,-1.));
#1680=DIRECTION('',(0.,-1.,0.));
#1681=DIRECTION('',(0.,0.,-1.));
#1682=DIRECTION('',(0.,-1.,0.));
#1683=DIRECTION('',(0.,0.,-1.));
#1684=DIRECTION('',(0.,0.,1.));
#1685=DIRECTION('',(1.,0.,0.));
#1686=DIRECTION('',(1.,0.,0.));
#1687=DIRECTION('',(0.,-1.,0.));
#1688=DIRECTION('',(-1.,0.,0.));
#1689=DIRECTION('',(0.,1.,0.));
#1690=DIRECTION('',(1.,0.,0.));
#1691=DIRECTION('',(0.,1.,0.));
#1692=DIRECTION('',(0.,0.,1.));
#1693=DIRECTION('',(1.,0.,0.));
#1694=DIRECTION('',(0.,0.,1.));
#1695=DIRECTION('',(1.,0.,0.));
#1696=DIRECTION('',(1.,0.,0.));
#1697=DIRECTION('',(0.,0.,-1.));
#1698=DIRECTION('',(0.,-1.,0.));
#1699=DIRECTION('',(0.,0.,-1.));
#1700=DIRECTION('',(0.,-1.,0.));
#1701=DIRECTION('',(0.,0.,-1.));
#1702=DIRECTION('',(0.,1.,0.));
#1703=DIRECTION('',(0.,0.,1.));
#1704=DIRECTION('',(1.,0.,0.));
#1705=DIRECTION('',(1.,0.,0.));
#1706=DIRECTION('',(0.,0.,-1.));
#1707=DIRECTION('',(0.,0.,1.));
#1708=DIRECTION('',(1.,0.,0.));
#1709=DIRECTION('',(0.,-1.,0.));
#1710=DIRECTION('',(1.,0.,0.));
#1711=DIRECTION('',(0.,1.,0.));
#1712=DIRECTION('',(0.,0.,1.));
#1713=DIRECTION('',(0.,0.,-1.));
#1714=DIRECTION('',(1.,0.,0.));
#1715=DIRECTION('',(0.,0.,1.));
#1716=DIRECTION('',(1.,0.,0.));
#1717=DIRECTION('',(0.,-1.,0.));
#1718=DIRECTION('',(1.,0.,0.));
#1719=DIRECTION('',(1.,0.,0.));
#1720=DIRECTION('',(0.,1.,0.));
#1721=DIRECTION('',(0.,0.,1.));
#1722=DIRECTION('',(0.,0.,-1.));
#1723=DIRECTION('',(1.,0.,0.));
#1724=DIRECTION('',(0.,0.,1.));
#1725=DIRECTION('',(1.,0.,0.));
#1726=DIRECTION('',(1.,0.,0.));
#1727=DIRECTION('',(0.,-1.,0.));
#1728=DIRECTION('',(0.,-1.,0.));
#1729=DIRECTION('',(1.,0.,0.));
#1730=DIRECTION('',(0.,-1.,0.));
#1731=DIRECTION('',(0.,1.,0.));
#1732=DIRECTION('',(0.,0.,1.));
#1733=DIRECTION('',(0.,0.,-1.));
#1734=DIRECTION('',(1.,0.,0.));
#1735=DIRECTION('',(0.,0.,-1.));
#1736=DIRECTION('',(0.,0.,1.));
#1737=DIRECTION('',(1.,0.,0.));
#1738=DIRECTION('',(0.,-1.,0.));
#1739=DIRECTION('',(1.,0.,0.));
#1740=DIRECTION('',(0.,-1.,0.));
#1741=DIRECTION('',(1.,0.,0.));
#1742=DIRECTION('',(1.,0.,0.));
#1743=DIRECTION('',(0.,0.,-1.));
#1744=DIRECTION('',(0.,-1.,0.));
#1745=DIRECTION('',(0.,0.,-1.));
#1746=DIRECTION('',(0.,0.,-1.));
#1747=DIRECTION('',(0.,-1.,0.));
#1748=DIRECTION('',(0.,0.,-1.));
#1749=DIRECTION('',(-1.,0.,0.));
#1750=DIRECTION('',(0.,0.,-1.));
#1751=DIRECTION('',(-1.,0.,0.));
#1752=DIRECTION('',(0.,0.,1.));
#1753=DIRECTION('',(0.,1.,0.));
#1754=DIRECTION('',(0.,0.,-1.));
#1755=DIRECTION('',(0.,1.,0.));
#1756=DIRECTION('',(0.,0.,1.));
#1757=DIRECTION('',(1.,0.,0.));
#1758=DIRECTION('',(0.,0.,-1.));
#1759=DIRECTION('',(-1.,0.,0.));
#1760=DIRECTION('',(0.,0.,1.));
#1761=DIRECTION('',(0.,1.,0.));
#1762=DIRECTION('',(0.,0.,-1.));
#1763=DIRECTION('',(0.,1.,0.));
#1764=DIRECTION('',(0.,0.,1.));
#1765=DIRECTION('',(1.,0.,0.));
#1766=DIRECTION('',(0.,0.,-1.));
#1767=DIRECTION('',(-1.,0.,0.));
#1768=DIRECTION('',(0.,0.,1.));
#1769=DIRECTION('',(1.,0.,0.));
#1770=DIRECTION('',(1.,0.,0.));
#1771=DIRECTION('',(0.,0.,-1.));
#1772=DIRECTION('',(0.,-1.,0.));
#1773=DIRECTION('',(0.,0.,1.));
#1774=DIRECTION('',(0.,0.,-1.));
#1775=DIRECTION('',(0.,1.,0.));
#1776=DIRECTION('',(0.,0.,1.));
#1777=DIRECTION('',(1.,0.,0.));
#1778=DIRECTION('',(0.,0.,-1.));
#1779=DIRECTION('',(1.,0.,0.));
#1780=DIRECTION('',(0.,0.,-1.));
#1781=DIRECTION('',(0.,-1.,0.));
#1782=DIRECTION('',(0.,0.,-1.));
#1783=DIRECTION('',(0.,1.,0.));
#1784=DIRECTION('',(0.,0.,1.));
#1785=DIRECTION('',(1.,0.,0.));
#1786=DIRECTION('',(0.,0.,-1.));
#1787=DIRECTION('',(1.,0.,0.));
#1788=DIRECTION('',(0.,0.,-1.));
#1789=DIRECTION('',(0.,-1.,0.));
#1790=DIRECTION('',(0.,0.,-1.));
#1791=DIRECTION('',(0.,1.,0.));
#1792=DIRECTION('',(0.,0.,1.));
#1793=DIRECTION('',(1.,0.,0.));
#1794=DIRECTION('',(0.,0.,1.));
#1795=DIRECTION('',(1.,0.,0.));
#1796=CARTESIAN_POINT('',(0.,0.,0.));
#1797=CARTESIAN_POINT('',(-0.0616736940725536,-0.0688652148425581,0.0025));
#1798=CARTESIAN_POINT('',(0.407467468945923,-0.152327494193817,0.0025));
#1799=CARTESIAN_POINT('',(0.436467468945923,-0.152327494193817,0.0025));
#1800=CARTESIAN_POINT('',(0.378467468945923,-0.152327494193817,0.0025));
#1801=CARTESIAN_POINT('',(0.378467468945923,-0.194827494193817,0.0025));
#1802=CARTESIAN_POINT('',(0.378467468945923,-0.237327494193817,0.0025));
#1803=CARTESIAN_POINT('',(0.407467468945923,-0.237327494193817,0.0025));
#1804=CARTESIAN_POINT('',(0.436467468945923,-0.237327494193817,0.0025));
#1805=CARTESIAN_POINT('',(0.436467468945923,-0.194827494193817,0.0025));
#1806=CARTESIAN_POINT('',(0.415467468945923,-0.169327494193817,0.0025));
#1807=CARTESIAN_POINT('',(0.400467468945923,-0.169327494193817,0.0025));
#1808=CARTESIAN_POINT('',(0.430467468945923,-0.169327494193817,0.0025));
#1809=CARTESIAN_POINT('',(0.430467468945923,-0.184327494193817,0.0025));
#1810=CARTESIAN_POINT('',(0.430467468945923,-0.199327494193817,0.0025));
#1811=CARTESIAN_POINT('',(0.415467468945923,-0.199327494193817,0.0025));
#1812=CARTESIAN_POINT('',(0.400467468945923,-0.199327494193817,0.0025));
#1813=CARTESIAN_POINT('',(0.400467468945923,-0.184327494193817,0.0025));
#1814=CARTESIAN_POINT('',(0.449217468945923,-0.248077494193817,0.0225));
#1815=CARTESIAN_POINT('',(0.411467468945923,-0.177327494193817,0.0225));
#1816=CARTESIAN_POINT('',(0.411467468945923,-0.178327494193817,0.0225));
#1817=CARTESIAN_POINT('',(0.411467468945923,-0.176327494193817,0.0225));
#1818=CARTESIAN_POINT('',(0.410467468945923,-0.178327494193817,0.0225));
#1819=CARTESIAN_POINT('',(0.409467468945923,-0.178327494193817,0.0225));
#1820=CARTESIAN_POINT('',(0.409467468945923,-0.179327494193817,0.0225));
#1821=CARTESIAN_POINT('',(0.409467468945923,-0.180327494193817,0.0225));
#1822=CARTESIAN_POINT('',(0.408467468945923,-0.180327494193817,0.0225));
#1823=CARTESIAN_POINT('',(0.407467468945923,-0.180327494193817,0.0225));
#1824=CARTESIAN_POINT('',(0.407467468945923,-0.178327494193817,0.0225));
#1825=CARTESIAN_POINT('',(0.407467468945923,-0.176327494193817,0.0225));
#1826=CARTESIAN_POINT('',(0.408467468945923,-0.176327494193817,0.0225));
#1827=CARTESIAN_POINT('',(0.415467468945923,-0.169327494193817,0.0225));
#1828=CARTESIAN_POINT('',(0.400467468945923,-0.169327494193817,0.0225));
#1829=CARTESIAN_POINT('',(0.430467468945923,-0.169327494193817,0.0225));
#1830=CARTESIAN_POINT('',(0.400467468945923,-0.184327494193817,0.0225));
#1831=CARTESIAN_POINT('',(0.400467468945923,-0.199327494193817,0.0225));
#1832=CARTESIAN_POINT('',(0.415467468945923,-0.199327494193817,0.0225));
#1833=CARTESIAN_POINT('',(0.430467468945923,-0.199327494193817,0.0225));
#1834=CARTESIAN_POINT('',(0.430467468945923,-0.184327494193817,0.0225));
#1835=CARTESIAN_POINT('',(0.421567468945923,-0.190427494193817,0.0225));
#1836=CARTESIAN_POINT('',(0.422567468945923,-0.190427494193817,0.0225));
#1837=CARTESIAN_POINT('',(0.420567468945923,-0.190427494193817,0.0225));
#1838=CARTESIAN_POINT('',(0.422567468945923,-0.191427494193817,0.0225));
#1839=CARTESIAN_POINT('',(0.422567468945923,-0.194427494193817,0.0225));
#1840=CARTESIAN_POINT('',(0.420567468945923,-0.194427494193817,0.0225));
#1841=CARTESIAN_POINT('',(0.418567468945923,-0.194427494193817,0.0225));
#1842=CARTESIAN_POINT('',(0.418567468945923,-0.193427494193817,0.0225));
#1843=CARTESIAN_POINT('',(0.418567468945923,-0.192427494193817,0.0225));
#1844=CARTESIAN_POINT('',(0.419567468945923,-0.192427494193817,0.0225));
#1845=CARTESIAN_POINT('',(0.420567468945923,-0.192427494193817,0.0225));
#1846=CARTESIAN_POINT('',(0.420567468945923,-0.191427494193817,0.0225));
#1847=CARTESIAN_POINT('',(0.409467468945923,-0.191427494193817,0.0225));
#1848=CARTESIAN_POINT('',(0.409467468945923,-0.192427494193817,0.0225));
#1849=CARTESIAN_POINT('',(0.409467468945923,-0.190427494193817,0.0225));
#1850=CARTESIAN_POINT('',(0.410467468945923,-0.192427494193817,0.0225));
#1851=CARTESIAN_POINT('',(0.411467468945923,-0.192427494193817,0.0225));
#1852=CARTESIAN_POINT('',(0.411467468945923,-0.193427494193817,0.0225));
#1853=CARTESIAN_POINT('',(0.411467468945923,-0.194427494193817,0.0225));
#1854=CARTESIAN_POINT('',(0.410467468945923,-0.194427494193817,0.0225));
#1855=CARTESIAN_POINT('',(0.407467468945923,-0.194427494193817,0.0225));
#1856=CARTESIAN_POINT('',(0.407467468945923,-0.192427494193817,0.0225));
#1857=CARTESIAN_POINT('',(0.407467468945923,-0.190427494193817,0.0225));
#1858=CARTESIAN_POINT('',(0.408467468945923,-0.190427494193817,0.0225));
#1859=CARTESIAN_POINT('',(0.420567468945923,-0.179327494193817,0.0225));
#1860=CARTESIAN_POINT('',(0.420567468945923,-0.178327494193817,0.0225));
#1861=CARTESIAN_POINT('',(0.420567468945923,-0.180327494193817,0.0225));
#1862=CARTESIAN_POINT('',(0.419567468945923,-0.178327494193817,0.0225));
#1863=CARTESIAN_POINT('',(0.418567468945923,-0.178327494193817,0.0225));
#1864=CARTESIAN_POINT('',(0.418567468945923,-0.177327494193817,0.0225));
#1865=CARTESIAN_POINT('',(0.418567468945923,-0.176327494193817,0.0225));
#1866=CARTESIAN_POINT('',(0.420567468945923,-0.176327494193817,0.0225));
#1867=CARTESIAN_POINT('',(0.422567468945923,-0.176327494193817,0.0225));
#1868=CARTESIAN_POINT('',(0.422567468945923,-0.177327494193817,0.0225));
#1869=CARTESIAN_POINT('',(0.422567468945923,-0.180327494193817,0.0225));
#1870=CARTESIAN_POINT('',(0.421567468945923,-0.180327494193817,0.0225));
#1871=CARTESIAN_POINT('',(0.411017468945923,-0.185377494193817,0.0225));
#1872=CARTESIAN_POINT('',(0.411017468945923,-0.179877494193817,0.0225));
#1873=CARTESIAN_POINT('',(0.411017468945923,-0.190877494193817,0.0225));
#1874=CARTESIAN_POINT('',(0.415017468945923,-0.179877494193817,0.0225));
#1875=CARTESIAN_POINT('',(0.419017468945923,-0.179877494193817,0.0225));
#1876=CARTESIAN_POINT('',(0.419017468945923,-0.185377494193817,0.0225));
#1877=CARTESIAN_POINT('',(0.419017468945923,-0.190877494193817,0.0225));
#1878=CARTESIAN_POINT('',(0.415017468945923,-0.190877494193817,0.0225));
#1879=CARTESIAN_POINT('',(0.415467468945923,-0.169327494193817,0.0225));
#1880=CARTESIAN_POINT('',(0.400467468945923,-0.169327494193817,0.0225));
#1881=CARTESIAN_POINT('',(0.430467468945923,-0.169327494193817,0.0225));
#1882=CARTESIAN_POINT('',(0.400467468945923,-0.184327494193817,0.0225));
#1883=CARTESIAN_POINT('',(0.400467468945923,-0.199327494193817,0.0225));
#1884=CARTESIAN_POINT('',(0.415467468945923,-0.199327494193817,0.0225));
#1885=CARTESIAN_POINT('',(0.430467468945923,-0.199327494193817,0.0225));
#1886=CARTESIAN_POINT('',(0.430467468945923,-0.184327494193817,0.0225));
#1887=CARTESIAN_POINT('',(0.411467468945923,-0.177327494193817,0.0235));
#1888=CARTESIAN_POINT('',(0.411467468945923,-0.176327494193817,0.0235));
#1889=CARTESIAN_POINT('',(0.411467468945923,-0.176327494193817,0.0235));
#1890=CARTESIAN_POINT('',(0.411467468945923,-0.177327494193817,0.0235));
#1891=CARTESIAN_POINT('',(0.411467468945923,-0.178327494193817,0.0235));
#1892=CARTESIAN_POINT('',(0.411467468945923,-0.178327494193817,0.0235));
#1893=CARTESIAN_POINT('',(0.408467468945923,-0.176327494193817,0.0235));
#1894=CARTESIAN_POINT('',(0.407467468945923,-0.176327494193817,0.0235));
#1895=CARTESIAN_POINT('',(0.407467468945923,-0.176327494193817,0.0235));
#1896=CARTESIAN_POINT('',(0.408467468945923,-0.176327494193817,0.0235));
#1897=CARTESIAN_POINT('',(0.407467468945923,-0.178327494193817,0.0235));
#1898=CARTESIAN_POINT('',(0.407467468945923,-0.180327494193817,0.0235));
#1899=CARTESIAN_POINT('',(0.407467468945923,-0.180327494193817,0.0235));
#1900=CARTESIAN_POINT('',(0.407467468945923,-0.178327494193817,0.0235));
#1901=CARTESIAN_POINT('',(0.408467468945923,-0.180327494193817,0.0235));
#1902=CARTESIAN_POINT('',(0.409467468945923,-0.180327494193817,0.0235));
#1903=CARTESIAN_POINT('',(0.409467468945923,-0.180327494193817,0.0235));
#1904=CARTESIAN_POINT('',(0.408467468945923,-0.180327494193817,0.0235));
#1905=CARTESIAN_POINT('',(0.409467468945923,-0.179327494193817,0.0235));
#1906=CARTESIAN_POINT('',(0.409467468945923,-0.178327494193817,0.0235));
#1907=CARTESIAN_POINT('',(0.409467468945923,-0.178327494193817,0.0235));
#1908=CARTESIAN_POINT('',(0.409467468945923,-0.179327494193817,0.0235));
#1909=CARTESIAN_POINT('',(0.410467468945923,-0.178327494193817,0.0235));
#1910=CARTESIAN_POINT('',(0.410467468945923,-0.178327494193817,0.0235));
#1911=CARTESIAN_POINT('',(0.415467468945923,-0.184327494193817,0.0235));
#1912=CARTESIAN_POINT('',(0.422567468945923,-0.191427494193817,0.0235));
#1913=CARTESIAN_POINT('',(0.422567468945923,-0.190427494193817,0.0235));
#1914=CARTESIAN_POINT('',(0.422567468945923,-0.190427494193817,0.0235));
#1915=CARTESIAN_POINT('',(0.422567468945923,-0.191427494193817,0.0235));
#1916=CARTESIAN_POINT('',(0.422567468945923,-0.194427494193817,0.0235));
#1917=CARTESIAN_POINT('',(0.422567468945923,-0.194427494193817,0.0235));
#1918=CARTESIAN_POINT('',(0.421567468945923,-0.190427494193817,0.0235));
#1919=CARTESIAN_POINT('',(0.420567468945923,-0.190427494193817,0.0235));
#1920=CARTESIAN_POINT('',(0.420567468945923,-0.190427494193817,0.0235));
#1921=CARTESIAN_POINT('',(0.421567468945923,-0.190427494193817,0.0235));
#1922=CARTESIAN_POINT('',(0.420567468945923,-0.191427494193817,0.0235));
#1923=CARTESIAN_POINT('',(0.420567468945923,-0.192427494193817,0.0235));
#1924=CARTESIAN_POINT('',(0.420567468945923,-0.192427494193817,0.0235));
#1925=CARTESIAN_POINT('',(0.420567468945923,-0.191427494193817,0.0235));
#1926=CARTESIAN_POINT('',(0.419567468945923,-0.192427494193817,0.0235));
#1927=CARTESIAN_POINT('',(0.418567468945923,-0.192427494193817,0.0235));
#1928=CARTESIAN_POINT('',(0.418567468945923,-0.192427494193817,0.0235));
#1929=CARTESIAN_POINT('',(0.419567468945923,-0.192427494193817,0.0235));
#1930=CARTESIAN_POINT('',(0.418567468945923,-0.193427494193817,0.0235));
#1931=CARTESIAN_POINT('',(0.418567468945923,-0.194427494193817,0.0235));
#1932=CARTESIAN_POINT('',(0.418567468945923,-0.194427494193817,0.0235));
#1933=CARTESIAN_POINT('',(0.418567468945923,-0.193427494193817,0.0235));
#1934=CARTESIAN_POINT('',(0.420567468945923,-0.194427494193817,0.0235));
#1935=CARTESIAN_POINT('',(0.420567468945923,-0.194427494193817,0.0235));
#1936=CARTESIAN_POINT('',(0.415467468945923,-0.184327494193817,0.0235));
#1937=CARTESIAN_POINT('',(0.410467468945923,-0.192427494193817,0.0235));
#1938=CARTESIAN_POINT('',(0.409467468945923,-0.192427494193817,0.0235));
#1939=CARTESIAN_POINT('',(0.409467468945923,-0.192427494193817,0.0235));
#1940=CARTESIAN_POINT('',(0.410467468945923,-0.192427494193817,0.0235));
#1941=CARTESIAN_POINT('',(0.411467468945923,-0.192427494193817,0.0235));
#1942=CARTESIAN_POINT('',(0.411467468945923,-0.192427494193817,0.0235));
#1943=CARTESIAN_POINT('',(0.409467468945923,-0.191427494193817,0.0235));
#1944=CARTESIAN_POINT('',(0.409467468945923,-0.190427494193817,0.0235));
#1945=CARTESIAN_POINT('',(0.409467468945923,-0.190427494193817,0.0235));
#1946=CARTESIAN_POINT('',(0.409467468945923,-0.191427494193817,0.0235));
#1947=CARTESIAN_POINT('',(0.408467468945923,-0.190427494193817,0.0235));
#1948=CARTESIAN_POINT('',(0.407467468945923,-0.190427494193817,0.0235));
#1949=CARTESIAN_POINT('',(0.407467468945923,-0.190427494193817,0.0235));
#1950=CARTESIAN_POINT('',(0.408467468945923,-0.190427494193817,0.0235));
#1951=CARTESIAN_POINT('',(0.407467468945923,-0.192427494193817,0.0235));
#1952=CARTESIAN_POINT('',(0.407467468945923,-0.194427494193817,0.0235));
#1953=CARTESIAN_POINT('',(0.407467468945923,-0.194427494193817,0.0235));
#1954=CARTESIAN_POINT('',(0.407467468945923,-0.192427494193817,0.0235));
#1955=CARTESIAN_POINT('',(0.410467468945923,-0.194427494193817,0.0235));
#1956=CARTESIAN_POINT('',(0.411467468945923,-0.194427494193817,0.0235));
#1957=CARTESIAN_POINT('',(0.411467468945923,-0.194427494193817,0.0235));
#1958=CARTESIAN_POINT('',(0.410467468945923,-0.194427494193817,0.0235));
#1959=CARTESIAN_POINT('',(0.411467468945923,-0.193427494193817,0.0235));
#1960=CARTESIAN_POINT('',(0.411467468945923,-0.193427494193817,0.0235));
#1961=CARTESIAN_POINT('',(0.415467468945923,-0.184327494193817,0.0235));
#1962=CARTESIAN_POINT('',(0.419567468945923,-0.178327494193817,0.0235));
#1963=CARTESIAN_POINT('',(0.420567468945923,-0.178327494193817,0.0235));
#1964=CARTESIAN_POINT('',(0.420567468945923,-0.178327494193817,0.0235));
#1965=CARTESIAN_POINT('',(0.419567468945923,-0.178327494193817,0.0235));
#1966=CARTESIAN_POINT('',(0.418567468945923,-0.178327494193817,0.0235));
#1967=CARTESIAN_POINT('',(0.418567468945923,-0.178327494193817,0.0235));
#1968=CARTESIAN_POINT('',(0.420567468945923,-0.179327494193817,0.0235));
#1969=CARTESIAN_POINT('',(0.420567468945923,-0.180327494193817,0.0235));
#1970=CARTESIAN_POINT('',(0.420567468945923,-0.180327494193817,0.0235));
#1971=CARTESIAN_POINT('',(0.420567468945923,-0.179327494193817,0.0235));
#1972=CARTESIAN_POINT('',(0.421567468945923,-0.180327494193817,0.0235));
#1973=CARTESIAN_POINT('',(0.422567468945923,-0.180327494193817,0.0235));
#1974=CARTESIAN_POINT('',(0.422567468945923,-0.180327494193817,0.0235));
#1975=CARTESIAN_POINT('',(0.421567468945923,-0.180327494193817,0.0235));
#1976=CARTESIAN_POINT('',(0.422567468945923,-0.177327494193817,0.0235));
#1977=CARTESIAN_POINT('',(0.422567468945923,-0.176327494193817,0.0235));
#1978=CARTESIAN_POINT('',(0.422567468945923,-0.176327494193817,0.0235));
#1979=CARTESIAN_POINT('',(0.422567468945923,-0.177327494193817,0.0235));
#1980=CARTESIAN_POINT('',(0.420567468945923,-0.176327494193817,0.0235));
#1981=CARTESIAN_POINT('',(0.418567468945923,-0.176327494193817,0.0235));
#1982=CARTESIAN_POINT('',(0.418567468945923,-0.176327494193817,0.0235));
#1983=CARTESIAN_POINT('',(0.420567468945923,-0.176327494193817,0.0235));
#1984=CARTESIAN_POINT('',(0.418567468945923,-0.177327494193817,0.0235));
#1985=CARTESIAN_POINT('',(0.418567468945923,-0.177327494193817,0.0235));
#1986=CARTESIAN_POINT('',(0.415467468945923,-0.184327494193817,0.0235));
#1987=CARTESIAN_POINT('',(0.415017468945923,-0.179877494193817,0.0205));
#1988=CARTESIAN_POINT('',(0.411017468945923,-0.179877494193817,0.0205));
#1989=CARTESIAN_POINT('',(0.411017468945923,-0.179877494193817,0.0205));
#1990=CARTESIAN_POINT('',(0.415017468945923,-0.179877494193817,0.0205));
#1991=CARTESIAN_POINT('',(0.419017468945923,-0.179877494193817,0.0205));
#1992=CARTESIAN_POINT('',(0.419017468945923,-0.179877494193817,0.0205));
#1993=CARTESIAN_POINT('',(0.411017468945923,-0.185377494193817,0.0205));
#1994=CARTESIAN_POINT('',(0.411017468945923,-0.190877494193817,0.0205));
#1995=CARTESIAN_POINT('',(0.411017468945923,-0.190877494193817,0.0205));
#1996=CARTESIAN_POINT('',(0.411017468945923,-0.185377494193817,0.0205));
#1997=CARTESIAN_POINT('',(0.415017468945923,-0.190877494193817,0.0205));
#1998=CARTESIAN_POINT('',(0.419017468945923,-0.190877494193817,0.0205));
#1999=CARTESIAN_POINT('',(0.419017468945923,-0.190877494193817,0.0205));
#2000=CARTESIAN_POINT('',(0.415017468945923,-0.190877494193817,0.0205));
#2001=CARTESIAN_POINT('',(0.419017468945923,-0.185377494193817,0.0205));
#2002=CARTESIAN_POINT('',(0.419017468945923,-0.185377494193817,0.0205));
#2003=CARTESIAN_POINT('',(0.415467468945923,-0.184327494193817,0.0205));
#2004=CARTESIAN_POINT('',(0.407467468945923,-0.152327494193817,0.0225));
#2005=CARTESIAN_POINT('',(0.436467468945923,-0.152327494193817,0.0225));
#2006=CARTESIAN_POINT('',(0.436467468945923,-0.152327494193817,0.0225));
#2007=CARTESIAN_POINT('',(0.407467468945923,-0.152327494193817,0.0225));
#2008=CARTESIAN_POINT('',(0.378467468945923,-0.152327494193817,0.0225));
#2009=CARTESIAN_POINT('',(0.378467468945923,-0.152327494193817,0.0225));
#2010=CARTESIAN_POINT('',(0.436467468945923,-0.194827494193817,0.0225));
#2011=CARTESIAN_POINT('',(0.436467468945923,-0.237327494193817,0.0225));
#2012=CARTESIAN_POINT('',(0.436467468945923,-0.237327494193817,0.0225));
#2013=CARTESIAN_POINT('',(0.436467468945923,-0.194827494193817,0.0225));
#2014=CARTESIAN_POINT('',(0.407467468945923,-0.237327494193817,0.0225));
#2015=CARTESIAN_POINT('',(0.378467468945923,-0.237327494193817,0.0225));
#2016=CARTESIAN_POINT('',(0.378467468945923,-0.237327494193817,0.0225));
#2017=CARTESIAN_POINT('',(0.407467468945923,-0.237327494193817,0.0225));
#2018=CARTESIAN_POINT('',(0.446467468945923,-0.224548813365499,0.0225));
#2019=CARTESIAN_POINT('',(0.446467468945923,-0.224548813365499,0.0025));
#2020=CARTESIAN_POINT('',(0.446467468945923,-0.142327494193817,0.0025));
#2021=CARTESIAN_POINT('',(0.446467468945923,-0.247327494193817,0.0025));
#2022=CARTESIAN_POINT('',(0.446467468945923,-0.142327494193817,0.0225));
#2023=CARTESIAN_POINT('',(0.446467468945923,-0.142327494193817,0.0225));
#2024=CARTESIAN_POINT('',(0.446467468945923,-0.224548813365499,0.0225));
#2025=CARTESIAN_POINT('',(0.446467468945923,-0.247327494193817,0.0225));
#2026=CARTESIAN_POINT('',(0.446467468945923,-0.247327494193817,0.0225));
#2027=CARTESIAN_POINT('',(0.407467468945923,-0.142327494193817,0.0225));
#2028=CARTESIAN_POINT('',(0.407467468945923,-0.142327494193817,0.0025));
#2029=CARTESIAN_POINT('',(0.368467468945923,-0.142327494193817,0.0025));
#2030=CARTESIAN_POINT('',(0.368467468945923,-0.142327494193817,0.0225));
#2031=CARTESIAN_POINT('',(0.368467468945923,-0.142327494193817,0.0225));
#2032=CARTESIAN_POINT('',(0.407467468945923,-0.142327494193817,0.0225));
#2033=CARTESIAN_POINT('',(0.368467468945923,-0.167048813365498,0.0225));
#2034=CARTESIAN_POINT('',(0.368467468945923,-0.167048813365498,0.0025));
#2035=CARTESIAN_POINT('',(0.368467468945923,-0.247327494193817,0.0025));
#2036=CARTESIAN_POINT('',(0.368467468945923,-0.247327494193817,0.0225));
#2037=CARTESIAN_POINT('',(0.368467468945923,-0.247327494193817,0.0225));
#2038=CARTESIAN_POINT('',(0.368467468945923,-0.167048813365498,0.0225));
#2039=CARTESIAN_POINT('',(0.407467468945923,-0.247327494193817,0.0225));
#2040=CARTESIAN_POINT('',(0.407467468945923,-0.247327494193817,0.0025));
#2041=CARTESIAN_POINT('',(0.407467468945923,-0.247327494193817,0.0225));
#2042=CARTESIAN_POINT('',(0.378467468945923,-0.194827494193817,0.0225));
#2043=CARTESIAN_POINT('',(0.378467468945923,-0.194827494193817,0.0225));
#2044=CARTESIAN_POINT('',(0.228276906226783,-0.295327494193817,0.0225));
#2045=CARTESIAN_POINT('',(0.334467468945923,-0.152327494193817,0.0225));
#2046=CARTESIAN_POINT('',(0.334467468945923,-0.152327494193817,0.0025));
#2047=CARTESIAN_POINT('',(0.334467468945923,-0.134827494193817,0.0025));
#2048=CARTESIAN_POINT('',(0.334467468945923,-0.169827494193817,0.0025));
#2049=CARTESIAN_POINT('',(0.334467468945923,-0.169827494193817,0.0225));
#2050=CARTESIAN_POINT('',(0.334467468945923,-0.169827494193817,0.0225));
#2051=CARTESIAN_POINT('',(0.334467468945923,-0.152327494193817,0.0225));
#2052=CARTESIAN_POINT('',(0.334467468945923,-0.134827494193817,0.0225));
#2053=CARTESIAN_POINT('',(0.334467468945923,-0.134827494193817,0.0225));
#2054=CARTESIAN_POINT('',(0.228276906226783,-0.295327494193817,0.0225));
#2055=CARTESIAN_POINT('',(0.558586343507642,-0.127327494193817,0.0225));
#2056=CARTESIAN_POINT('',(0.353586343507642,-0.127327494193817,0.0225));
#2057=CARTESIAN_POINT('',(0.563586343507642,-0.127327494193817,0.0225));
#2058=CARTESIAN_POINT('',(0.353586343507642,-0.132327494193817,0.0225));
#2059=CARTESIAN_POINT('',(0.353586343507642,-0.137327494193817,0.0225));
#2060=CARTESIAN_POINT('',(0.453586343507642,-0.137327494193817,0.0225));
#2061=CARTESIAN_POINT('',(0.553586343507642,-0.137327494193817,0.0225));
#2062=CARTESIAN_POINT('',(0.553586343507642,-0.242327494193817,0.0225));
#2063=CARTESIAN_POINT('',(0.553586343507642,-0.347327494193818,0.0225));
#2064=CARTESIAN_POINT('',(0.558586343507642,-0.347327494193818,0.0225));
#2065=CARTESIAN_POINT('',(0.563586343507642,-0.347327494193818,0.0225));
#2066=CARTESIAN_POINT('',(0.563586343507642,-0.237327494193817,0.0225));
#2067=CARTESIAN_POINT('',(0.228276906226783,-0.295327494193817,0.0175));
#2068=CARTESIAN_POINT('',(0.340467468945923,-0.361827494193817,0.0175));
#2069=CARTESIAN_POINT('',(0.345467468945923,-0.361827494193817,0.0175));
#2070=CARTESIAN_POINT('',(0.570467468945923,-0.246827494193817,0.02));
#2071=CARTESIAN_POINT('',(0.570467468945923,-0.246827494193817,0.));
#2072=CARTESIAN_POINT('',(0.570467468945923,-0.121827494193817,0.));
#2073=CARTESIAN_POINT('',(0.570467468945923,-0.371827494193817,0.));
#2074=CARTESIAN_POINT('',(0.570467468945923,-0.121827494193817,0.02));
#2075=CARTESIAN_POINT('',(0.570467468945923,-0.121827494193817,0.02));
#2076=CARTESIAN_POINT('',(0.570467468945923,-0.246827494193817,0.02));
#2077=CARTESIAN_POINT('',(0.570467468945923,-0.371827494193817,0.02));
#2078=CARTESIAN_POINT('',(0.570467468945923,-0.371827494193817,0.02));
#2079=CARTESIAN_POINT('',(0.332467468945923,-0.134827494193817,0.0225));
#2080=CARTESIAN_POINT('',(0.332467468945923,-0.134827494193817,0.0025));
#2081=CARTESIAN_POINT('',(0.330467468945923,-0.134827494193817,0.0025));
#2082=CARTESIAN_POINT('',(0.332467468945923,-0.134827494193817,0.0225));
#2083=CARTESIAN_POINT('',(0.330467468945923,-0.134827494193817,0.0225));
#2084=CARTESIAN_POINT('',(0.330467468945923,-0.134827494193817,0.0225));
#2085=CARTESIAN_POINT('',(-0.0616736940725536,-0.0688652148425581,0.0025));
#2086=CARTESIAN_POINT('',(0.330467468945923,-0.246827494193817,0.0025));
#2087=CARTESIAN_POINT('',(0.330467468945923,-0.169827494193817,0.0025));
#2088=CARTESIAN_POINT('',(0.332467468945923,-0.169827494193817,0.0025));
#2089=CARTESIAN_POINT('',(0.332467468945923,-0.169827494193817,0.0225));
#2090=CARTESIAN_POINT('',(0.330467468945923,-0.169827494193817,0.0225));
#2091=CARTESIAN_POINT('',(0.330467468945923,-0.169827494193817,0.0225));
#2092=CARTESIAN_POINT('',(0.332467468945923,-0.169827494193817,0.0225));
#2093=CARTESIAN_POINT('',(-0.0616736940725536,-0.0688652148425581,0.));
#2094=CARTESIAN_POINT('',(0.330467468945923,-0.246827494193817,0.));
#2095=CARTESIAN_POINT('',(0.330467468945923,-0.121827494193817,0.));
#2096=CARTESIAN_POINT('',(0.330467468945923,-0.371827494193817,0.));
#2097=CARTESIAN_POINT('',(0.450467468945923,-0.121827494193817,0.));
#2098=CARTESIAN_POINT('',(0.450467468945923,-0.371827494193817,0.));
#2099=CARTESIAN_POINT('',(0.450467468945923,-0.121827494193817,0.02));
#2100=CARTESIAN_POINT('',(0.330467468945923,-0.121827494193817,0.02));
#2101=CARTESIAN_POINT('',(0.330467468945923,-0.121827494193817,0.02));
#2102=CARTESIAN_POINT('',(0.450467468945923,-0.121827494193817,0.02));
#2103=CARTESIAN_POINT('',(0.228276906226783,-0.295327494193817,0.0225));
#2104=CARTESIAN_POINT('',(0.335217468945923,-0.124327494193817,0.0225));
#2105=CARTESIAN_POINT('',(0.330467468945923,-0.124327494193817,0.0225));
#2106=CARTESIAN_POINT('',(0.339967468945923,-0.124327494193817,0.0225));
#2107=CARTESIAN_POINT('',(0.330467468945923,-0.129577494193817,0.0225));
#2108=CARTESIAN_POINT('',(0.330467468945923,-0.175077494193817,0.0225));
#2109=CARTESIAN_POINT('',(0.330467468945923,-0.180327494193817,0.0225));
#2110=CARTESIAN_POINT('',(0.335217468945923,-0.180327494193817,0.0225));
#2111=CARTESIAN_POINT('',(0.339967468945923,-0.180327494193817,0.0225));
#2112=CARTESIAN_POINT('',(0.339967468945923,-0.152327494193817,0.0225));
#2113=CARTESIAN_POINT('',(0.335217468945923,-0.124327494193817,0.0225));
#2114=CARTESIAN_POINT('',(0.339967468945923,-0.124327494193817,0.0225));
#2115=CARTESIAN_POINT('',(0.339967468945923,-0.124327494193817,0.02));
#2116=CARTESIAN_POINT('',(0.450467468945923,-0.124327494193817,0.02));
#2117=CARTESIAN_POINT('',(0.330467468945923,-0.124327494193817,0.02));
#2118=CARTESIAN_POINT('',(0.330467468945923,-0.124327494193817,0.0225));
#2119=CARTESIAN_POINT('',(-0.0616736940725536,-0.0688652148425581,0.02));
#2120=CARTESIAN_POINT('',(0.567967468945923,-0.246827494193817,0.02));
#2121=CARTESIAN_POINT('',(0.567967468945923,-0.124327494193817,0.02));
#2122=CARTESIAN_POINT('',(0.567967468945923,-0.371827494193817,0.02));
#2123=CARTESIAN_POINT('',(0.450467468945923,-0.371827494193817,0.02));
#2124=CARTESIAN_POINT('',(0.330467468945923,-0.246827494193817,0.02));
#2125=CARTESIAN_POINT('',(0.450467468945923,-0.124327494193817,0.02));
#2126=CARTESIAN_POINT('',(0.353586343507642,-0.132327494193817,0.0225));
#2127=CARTESIAN_POINT('',(0.353586343507642,-0.132327494193817,0.0025));
#2128=CARTESIAN_POINT('',(0.353586343507642,-0.127327494193817,0.0025));
#2129=CARTESIAN_POINT('',(0.353586343507642,-0.137327494193817,0.0025));
#2130=CARTESIAN_POINT('',(0.353586343507642,-0.137327494193817,0.0225));
#2131=CARTESIAN_POINT('',(0.353586343507642,-0.127327494193817,0.0225));
#2132=CARTESIAN_POINT('',(0.453586343507642,-0.137327494193817,0.0225));
#2133=CARTESIAN_POINT('',(0.453586343507642,-0.137327494193817,0.0025));
#2134=CARTESIAN_POINT('',(0.553586343507642,-0.137327494193817,0.0025));
#2135=CARTESIAN_POINT('',(0.553586343507642,-0.137327494193817,0.0225));
#2136=CARTESIAN_POINT('',(0.553586343507642,-0.242327494193817,0.0225));
#2137=CARTESIAN_POINT('',(0.553586343507642,-0.242327494193817,0.0025));
#2138=CARTESIAN_POINT('',(0.553586343507642,-0.347327494193818,0.0025));
#2139=CARTESIAN_POINT('',(0.553586343507642,-0.347327494193818,0.0225));
#2140=CARTESIAN_POINT('',(0.558586343507642,-0.347327494193818,0.0225));
#2141=CARTESIAN_POINT('',(0.558586343507642,-0.347327494193818,0.0025));
#2142=CARTESIAN_POINT('',(0.563586343507642,-0.347327494193818,0.0025));
#2143=CARTESIAN_POINT('',(0.563586343507642,-0.347327494193818,0.0225));
#2144=CARTESIAN_POINT('',(0.563586343507642,-0.237327494193817,0.0225));
#2145=CARTESIAN_POINT('',(0.563586343507642,-0.237327494193817,0.0025));
#2146=CARTESIAN_POINT('',(0.563586343507642,-0.127327494193817,0.0025));
#2147=CARTESIAN_POINT('',(0.563586343507642,-0.127327494193817,0.0225));
#2148=CARTESIAN_POINT('',(0.558586343507642,-0.127327494193817,0.0225));
#2149=CARTESIAN_POINT('',(0.558586343507642,-0.127327494193817,0.0025));
#2150=CARTESIAN_POINT('',(0.340467468945923,-0.361827494193817,0.0175));
#2151=CARTESIAN_POINT('',(0.340467468945923,-0.361827494193817,0.0025));
#2152=CARTESIAN_POINT('',(0.345467468945923,-0.361827494193817,0.0025));
#2153=CARTESIAN_POINT('',(0.567967468945923,-0.246827494193817,0.02));
#2154=CARTESIAN_POINT('',(0.567967468945923,-0.246827494193817,0.0025));
#2155=CARTESIAN_POINT('',(0.567967468945923,-0.124327494193817,0.0025));
#2156=CARTESIAN_POINT('',(0.567967468945923,-0.371827494193817,0.0025));
#2157=CARTESIAN_POINT('',(0.567967468945923,-0.371827494193817,0.02));
#2158=CARTESIAN_POINT('',(0.567967468945923,-0.124327494193817,0.02));
#2159=CARTESIAN_POINT('',(0.450467468945923,-0.371827494193817,0.02));
#2160=CARTESIAN_POINT('',(0.450467468945923,-0.371827494193817,0.0025));
#2161=CARTESIAN_POINT('',(0.330467468945923,-0.371827494193817,0.0025));
#2162=CARTESIAN_POINT('',(0.330467468945923,-0.371827494193817,0.02));
#2163=CARTESIAN_POINT('',(0.330467468945923,-0.246827494193817,0.02));
#2164=CARTESIAN_POINT('',(0.330467468945923,-0.246827494193817,0.0025));
#2165=CARTESIAN_POINT('',(0.330467468945923,-0.180327494193817,0.0025));
#2166=CARTESIAN_POINT('',(0.330467468945923,-0.180327494193817,0.0225));
#2167=CARTESIAN_POINT('',(0.335217468945923,-0.180327494193817,0.0225));
#2168=CARTESIAN_POINT('',(0.335217468945923,-0.180327494193817,0.0025));
#2169=CARTESIAN_POINT('',(0.339967468945923,-0.180327494193817,0.0025));
#2170=CARTESIAN_POINT('',(0.339967468945923,-0.180327494193817,0.0225));
#2171=CARTESIAN_POINT('',(0.339967468945923,-0.152327494193817,0.0225));
#2172=CARTESIAN_POINT('',(0.339967468945923,-0.152327494193817,0.0025));
#2173=CARTESIAN_POINT('',(0.339967468945923,-0.124327494193817,0.0025));
#2174=CARTESIAN_POINT('',(0.339967468945923,-0.124327494193817,0.0225));
#2175=CARTESIAN_POINT('',(0.450467468945923,-0.124327494193817,0.02));
#2176=CARTESIAN_POINT('',(0.450467468945923,-0.124327494193817,0.0025));
#2177=CARTESIAN_POINT('',(-0.0616736940725536,-0.0688652148425581,0.0025));
#2178=MECHANICAL_DESIGN_GEOMETRIC_PRESENTATION_REPRESENTATION('',(#1372),
#2179);
#2179=(
GEOMETRIC_REPRESENTATION_CONTEXT(3)
GLOBAL_UNCERTAINTY_ASSIGNED_CONTEXT((#2180))
GLOBAL_UNIT_ASSIGNED_CONTEXT((#2183,#2182,#2181))
REPRESENTATION_CONTEXT('BMat6','TOP_LEVEL_ASSEMBLY_PART')
);
#2180=UNCERTAINTY_MEASURE_WITH_UNIT(LENGTH_MEASURE(1.E-8),#2183,
'DISTANCE_ACCURACY_VALUE','Maximum Tolerance applied to model');
#2181=(
NAMED_UNIT(*)
SI_UNIT($,.STERADIAN.)
SOLID_ANGLE_UNIT()
);
#2182=(
NAMED_UNIT(*)
PLANE_ANGLE_UNIT()
SI_UNIT($,.RADIAN.)
);
#2183=(
LENGTH_UNIT()
NAMED_UNIT(*)
SI_UNIT($,.METRE.)
);
#2184=PRODUCT_DEFINITION_SHAPE('','',#2185);
#2185=PRODUCT_DEFINITION('','',#2187,#2186);
#2186=PRODUCT_DEFINITION_CONTEXT('',#2193,'design');
#2187=PRODUCT_DEFINITION_FORMATION_WITH_SPECIFIED_SOURCE('','',#2189,
 .NOT_KNOWN.);
#2188=PRODUCT_RELATED_PRODUCT_CATEGORY('','',(#2189));
#2189=PRODUCT('BMat6','BMat6','BMat6',(#2191));
#2190=PRODUCT_CATEGORY('','');
#2191=PRODUCT_CONTEXT('',#2193,'mechanical');
#2192=APPLICATION_PROTOCOL_DEFINITION('international standard',
'ap242_managed_model_based_3d_engineering',2020,#2193);
#2193=APPLICATION_CONTEXT('managed model based 3d engineering');
ENDSEC;
END-ISO-10303-21;
