ISO-10303-21;
HEADER;
/* Generated by software containing ST-Developer
 * from STEP Tools, Inc. (www.steptools.com) 
 */
/* OPTION: using custom renumber hook */

FILE_DESCRIPTION(
/* description */ ('STEP AP242 Edition 2',
'CAx-IF Rec.Pracs.---Representation and Presentation of Product Manufa
cturing Information (PMI)---4.0---2014-10-13',
'CAx-IF Rec.Pracs.---3D Tessellated Geometry---0.4---2014-09-14','2;1',
'CAx-IF Rec.Pracs.---User Defined Attributes---1.5---2016-08-15'),
/* implementation_level */ '2;1');

FILE_NAME(
/* name */ 'Part Studio 1 - TMat3O',
/* time_stamp */ '2026-05-20T23:41:51Z',
/* author */ (''),
/* organization */ (''),
/* preprocessor_version */ 'ST-DEVELOPER v20',
/* originating_system */ 'ONSHAPE BY PTC INC, 1.215',
/* authorisation */ '  ');

FILE_SCHEMA (('AP242_MANAGED_MODEL_BASED_3D_ENGINEERING_MIM_LF { 1 0 10303 442 3 1 4 }'));
ENDSEC;

DATA;
#10=SHAPE_REPRESENTATION_RELATIONSHIP('','',#594,#11);
#11=ADVANCED_BREP_SHAPE_REPRESENTATION('',(#592),#941);
#12=PLANE('',#601);
#13=PLANE('',#602);
#14=PLANE('',#603);
#15=PLANE('',#604);
#16=PLANE('',#605);
#17=PLANE('',#606);
#18=PLANE('',#607);
#19=PLANE('',#608);
#20=PLANE('',#609);
#21=PLANE('',#610);
#22=PLANE('',#611);
#23=PLANE('',#612);
#24=PLANE('',#613);
#25=PLANE('',#617);
#26=PLANE('',#618);
#27=PLANE('',#619);
#28=PLANE('',#620);
#29=PLANE('',#621);
#30=PLANE('',#622);
#31=PLANE('',#623);
#32=PLANE('',#624);
#33=PLANE('',#625);
#34=PLANE('',#626);
#35=PLANE('',#627);
#36=PLANE('',#628);
#37=PLANE('',#629);
#38=PLANE('',#630);
#39=CIRCLE('',#598,0.002);
#40=CIRCLE('',#600,0.002);
#41=CIRCLE('',#615,0.00515);
#42=CIRCLE('',#616,0.00515);
#43=LINE('',#782,#117);
#44=LINE('',#786,#118);
#45=LINE('',#788,#119);
#46=LINE('',#790,#120);
#47=LINE('',#794,#121);
#48=LINE('',#797,#122);
#49=LINE('',#799,#123);
#50=LINE('',#801,#124);
#51=LINE('',#803,#125);
#52=LINE('',#805,#126);
#53=LINE('',#807,#127);
#54=LINE('',#809,#128);
#55=LINE('',#811,#129);
#56=LINE('',#813,#130);
#57=LINE('',#815,#131);
#58=LINE('',#817,#132);
#59=LINE('',#819,#133);
#60=LINE('',#821,#134);
#61=LINE('',#822,#135);
#62=LINE('',#825,#136);
#63=LINE('',#827,#137);
#64=LINE('',#829,#138);
#65=LINE('',#831,#139);
#66=LINE('',#833,#140);
#67=LINE('',#835,#141);
#68=LINE('',#837,#142);
#69=LINE('',#839,#143);
#70=LINE('',#841,#144);
#71=LINE('',#843,#145);
#72=LINE('',#845,#146);
#73=LINE('',#847,#147);
#74=LINE('',#848,#148);
#75=LINE('',#850,#149);
#76=LINE('',#852,#150);
#77=LINE('',#855,#151);
#78=LINE('',#857,#152);
#79=LINE('',#859,#153);
#80=LINE('',#861,#154);
#81=LINE('',#863,#155);
#82=LINE('',#864,#156);
#83=LINE('',#866,#157);
#84=LINE('',#868,#158);
#85=LINE('',#870,#159);
#86=LINE('',#872,#160);
#87=LINE('',#873,#161);
#88=LINE('',#875,#162);
#89=LINE('',#877,#163);
#90=LINE('',#879,#164);
#91=LINE('',#882,#165);
#92=LINE('',#884,#166);
#93=LINE('',#886,#167);
#94=LINE('',#888,#168);
#95=LINE('',#890,#169);
#96=LINE('',#892,#170);
#97=LINE('',#893,#171);
#98=LINE('',#894,#172);
#99=LINE('',#896,#173);
#100=LINE('',#897,#174);
#101=LINE('',#898,#175);
#102=LINE('',#900,#176);
#103=LINE('',#903,#177);
#104=LINE('',#906,#178);
#105=LINE('',#908,#179);
#106=LINE('',#910,#180);
#107=LINE('',#919,#181);
#108=LINE('',#921,#182);
#109=LINE('',#924,#183);
#110=LINE('',#925,#184);
#111=LINE('',#927,#185);
#112=LINE('',#929,#186);
#113=LINE('',#931,#187);
#114=LINE('',#933,#188);
#115=LINE('',#936,#189);
#116=LINE('',#938,#190);
#117=VECTOR('',#637,1.);
#118=VECTOR('',#640,1.);
#119=VECTOR('',#643,1.);
#120=VECTOR('',#644,1.);
#121=VECTOR('',#649,1.);
#122=VECTOR('',#650,1.);
#123=VECTOR('',#651,1.);
#124=VECTOR('',#652,1.);
#125=VECTOR('',#653,1.);
#126=VECTOR('',#654,1.);
#127=VECTOR('',#655,1.);
#128=VECTOR('',#656,1.);
#129=VECTOR('',#657,1.);
#130=VECTOR('',#658,1.);
#131=VECTOR('',#659,1.);
#132=VECTOR('',#660,1.);
#133=VECTOR('',#661,1.);
#134=VECTOR('',#662,1.);
#135=VECTOR('',#663,1.);
#136=VECTOR('',#664,1.);
#137=VECTOR('',#665,1.);
#138=VECTOR('',#666,1.);
#139=VECTOR('',#667,1.);
#140=VECTOR('',#668,1.);
#141=VECTOR('',#671,1.);
#142=VECTOR('',#672,1.);
#143=VECTOR('',#673,1.);
#144=VECTOR('',#674,1.);
#145=VECTOR('',#675,1.);
#146=VECTOR('',#678,1.);
#147=VECTOR('',#679,1.);
#148=VECTOR('',#680,1.);
#149=VECTOR('',#681,1.);
#150=VECTOR('',#684,1.);
#151=VECTOR('',#685,1.);
#152=VECTOR('',#686,1.);
#153=VECTOR('',#687,1.);
#154=VECTOR('',#688,1.);
#155=VECTOR('',#689,1.);
#156=VECTOR('',#690,1.);
#157=VECTOR('',#691,1.);
#158=VECTOR('',#692,1.);
#159=VECTOR('',#693,1.);
#160=VECTOR('',#694,1.);
#161=VECTOR('',#695,1.);
#162=VECTOR('',#696,1.);
#163=VECTOR('',#697,1.);
#164=VECTOR('',#700,1.);
#165=VECTOR('',#701,1.);
#166=VECTOR('',#702,1.);
#167=VECTOR('',#703,1.);
#168=VECTOR('',#704,1.);
#169=VECTOR('',#705,1.);
#170=VECTOR('',#708,1.);
#171=VECTOR('',#709,1.);
#172=VECTOR('',#710,1.);
#173=VECTOR('',#713,1.);
#174=VECTOR('',#714,1.);
#175=VECTOR('',#715,1.);
#176=VECTOR('',#718,1.);
#177=VECTOR('',#723,1.);
#178=VECTOR('',#728,1.);
#179=VECTOR('',#729,1.);
#180=VECTOR('',#732,1.);
#181=VECTOR('',#745,1.);
#182=VECTOR('',#748,1.);
#183=VECTOR('',#753,1.);
#184=VECTOR('',#754,1.);
#185=VECTOR('',#757,1.);
#186=VECTOR('',#760,1.);
#187=VECTOR('',#763,1.);
#188=VECTOR('',#766,1.);
#189=VECTOR('',#771,1.);
#190=VECTOR('',#774,1.);
#191=ORIENTED_EDGE('',*,*,#349,.F.);
#192=ORIENTED_EDGE('',*,*,#350,.F.);
#193=ORIENTED_EDGE('',*,*,#351,.F.);
#194=ORIENTED_EDGE('',*,*,#352,.F.);
#195=ORIENTED_EDGE('',*,*,#353,.F.);
#196=ORIENTED_EDGE('',*,*,#349,.T.);
#197=ORIENTED_EDGE('',*,*,#354,.F.);
#198=ORIENTED_EDGE('',*,*,#355,.F.);
#199=ORIENTED_EDGE('',*,*,#356,.F.);
#200=ORIENTED_EDGE('',*,*,#357,.F.);
#201=ORIENTED_EDGE('',*,*,#358,.T.);
#202=ORIENTED_EDGE('',*,*,#359,.T.);
#203=ORIENTED_EDGE('',*,*,#360,.F.);
#204=ORIENTED_EDGE('',*,*,#361,.F.);
#205=ORIENTED_EDGE('',*,*,#362,.T.);
#206=ORIENTED_EDGE('',*,*,#363,.T.);
#207=ORIENTED_EDGE('',*,*,#364,.F.);
#208=ORIENTED_EDGE('',*,*,#365,.F.);
#209=ORIENTED_EDGE('',*,*,#366,.F.);
#210=ORIENTED_EDGE('',*,*,#367,.F.);
#211=ORIENTED_EDGE('',*,*,#368,.T.);
#212=ORIENTED_EDGE('',*,*,#369,.T.);
#213=ORIENTED_EDGE('',*,*,#370,.T.);
#214=ORIENTED_EDGE('',*,*,#371,.T.);
#215=ORIENTED_EDGE('',*,*,#372,.F.);
#216=ORIENTED_EDGE('',*,*,#373,.F.);
#217=ORIENTED_EDGE('',*,*,#374,.F.);
#218=ORIENTED_EDGE('',*,*,#375,.F.);
#219=ORIENTED_EDGE('',*,*,#364,.T.);
#220=ORIENTED_EDGE('',*,*,#376,.T.);
#221=ORIENTED_EDGE('',*,*,#377,.F.);
#222=ORIENTED_EDGE('',*,*,#378,.F.);
#223=ORIENTED_EDGE('',*,*,#379,.T.);
#224=ORIENTED_EDGE('',*,*,#380,.T.);
#225=ORIENTED_EDGE('',*,*,#381,.F.);
#226=ORIENTED_EDGE('',*,*,#382,.T.);
#227=ORIENTED_EDGE('',*,*,#367,.T.);
#228=ORIENTED_EDGE('',*,*,#383,.F.);
#229=ORIENTED_EDGE('',*,*,#384,.T.);
#230=ORIENTED_EDGE('',*,*,#378,.T.);
#231=ORIENTED_EDGE('',*,*,#385,.T.);
#232=ORIENTED_EDGE('',*,*,#386,.T.);
#233=ORIENTED_EDGE('',*,*,#387,.F.);
#234=ORIENTED_EDGE('',*,*,#388,.F.);
#235=ORIENTED_EDGE('',*,*,#389,.F.);
#236=ORIENTED_EDGE('',*,*,#390,.F.);
#237=ORIENTED_EDGE('',*,*,#391,.T.);
#238=ORIENTED_EDGE('',*,*,#350,.T.);
#239=ORIENTED_EDGE('',*,*,#353,.T.);
#240=ORIENTED_EDGE('',*,*,#392,.T.);
#241=ORIENTED_EDGE('',*,*,#393,.F.);
#242=ORIENTED_EDGE('',*,*,#394,.T.);
#243=ORIENTED_EDGE('',*,*,#395,.T.);
#244=ORIENTED_EDGE('',*,*,#381,.T.);
#245=ORIENTED_EDGE('',*,*,#377,.T.);
#246=ORIENTED_EDGE('',*,*,#396,.T.);
#247=ORIENTED_EDGE('',*,*,#397,.T.);
#248=ORIENTED_EDGE('',*,*,#398,.F.);
#249=ORIENTED_EDGE('',*,*,#399,.F.);
#250=ORIENTED_EDGE('',*,*,#400,.F.);
#251=ORIENTED_EDGE('',*,*,#401,.T.);
#252=ORIENTED_EDGE('',*,*,#402,.T.);
#253=ORIENTED_EDGE('',*,*,#403,.F.);
#254=ORIENTED_EDGE('',*,*,#404,.F.);
#255=ORIENTED_EDGE('',*,*,#405,.T.);
#256=ORIENTED_EDGE('',*,*,#351,.T.);
#257=ORIENTED_EDGE('',*,*,#391,.F.);
#258=ORIENTED_EDGE('',*,*,#406,.F.);
#259=ORIENTED_EDGE('',*,*,#360,.T.);
#260=ORIENTED_EDGE('',*,*,#407,.F.);
#261=ORIENTED_EDGE('',*,*,#403,.T.);
#262=ORIENTED_EDGE('',*,*,#392,.F.);
#263=ORIENTED_EDGE('',*,*,#355,.T.);
#264=ORIENTED_EDGE('',*,*,#408,.F.);
#265=ORIENTED_EDGE('',*,*,#400,.T.);
#266=ORIENTED_EDGE('',*,*,#409,.F.);
#267=ORIENTED_EDGE('',*,*,#357,.T.);
#268=ORIENTED_EDGE('',*,*,#410,.F.);
#269=ORIENTED_EDGE('',*,*,#408,.T.);
#270=ORIENTED_EDGE('',*,*,#354,.T.);
#271=ORIENTED_EDGE('',*,*,#411,.F.);
#272=ORIENTED_EDGE('',*,*,#401,.F.);
#273=ORIENTED_EDGE('',*,*,#411,.T.);
#274=ORIENTED_EDGE('',*,*,#352,.T.);
#275=ORIENTED_EDGE('',*,*,#405,.F.);
#276=ORIENTED_EDGE('',*,*,#402,.F.);
#277=ORIENTED_EDGE('',*,*,#358,.F.);
#278=ORIENTED_EDGE('',*,*,#409,.T.);
#279=ORIENTED_EDGE('',*,*,#399,.T.);
#280=ORIENTED_EDGE('',*,*,#412,.T.);
#281=ORIENTED_EDGE('',*,*,#359,.F.);
#282=ORIENTED_EDGE('',*,*,#412,.F.);
#283=ORIENTED_EDGE('',*,*,#404,.T.);
#284=ORIENTED_EDGE('',*,*,#407,.T.);
#285=ORIENTED_EDGE('',*,*,#366,.T.);
#286=ORIENTED_EDGE('',*,*,#413,.F.);
#287=ORIENTED_EDGE('',*,*,#414,.F.);
#288=ORIENTED_EDGE('',*,*,#383,.T.);
#289=ORIENTED_EDGE('',*,*,#365,.T.);
#290=ORIENTED_EDGE('',*,*,#380,.F.);
#291=ORIENTED_EDGE('',*,*,#415,.F.);
#292=ORIENTED_EDGE('',*,*,#413,.T.);
#293=ORIENTED_EDGE('',*,*,#416,.T.);
#294=ORIENTED_EDGE('',*,*,#417,.T.);
#295=ORIENTED_EDGE('',*,*,#416,.F.);
#296=ORIENTED_EDGE('',*,*,#384,.F.);
#297=ORIENTED_EDGE('',*,*,#414,.T.);
#298=ORIENTED_EDGE('',*,*,#415,.T.);
#299=ORIENTED_EDGE('',*,*,#379,.F.);
#300=ORIENTED_EDGE('',*,*,#417,.F.);
#301=ORIENTED_EDGE('',*,*,#361,.T.);
#302=ORIENTED_EDGE('',*,*,#406,.T.);
#303=ORIENTED_EDGE('',*,*,#398,.T.);
#304=ORIENTED_EDGE('',*,*,#418,.F.);
#305=ORIENTED_EDGE('',*,*,#419,.T.);
#306=ORIENTED_EDGE('',*,*,#396,.F.);
#307=ORIENTED_EDGE('',*,*,#376,.F.);
#308=ORIENTED_EDGE('',*,*,#363,.F.);
#309=ORIENTED_EDGE('',*,*,#418,.T.);
#310=ORIENTED_EDGE('',*,*,#397,.F.);
#311=ORIENTED_EDGE('',*,*,#419,.F.);
#312=ORIENTED_EDGE('',*,*,#362,.F.);
#313=ORIENTED_EDGE('',*,*,#420,.T.);
#314=ORIENTED_EDGE('',*,*,#385,.F.);
#315=ORIENTED_EDGE('',*,*,#421,.F.);
#316=ORIENTED_EDGE('',*,*,#371,.F.);
#317=ORIENTED_EDGE('',*,*,#422,.T.);
#318=ORIENTED_EDGE('',*,*,#386,.F.);
#319=ORIENTED_EDGE('',*,*,#420,.F.);
#320=ORIENTED_EDGE('',*,*,#370,.F.);
#321=ORIENTED_EDGE('',*,*,#375,.T.);
#322=ORIENTED_EDGE('',*,*,#423,.T.);
#323=ORIENTED_EDGE('',*,*,#387,.T.);
#324=ORIENTED_EDGE('',*,*,#422,.F.);
#325=ORIENTED_EDGE('',*,*,#374,.T.);
#326=ORIENTED_EDGE('',*,*,#424,.T.);
#327=ORIENTED_EDGE('',*,*,#388,.T.);
#328=ORIENTED_EDGE('',*,*,#423,.F.);
#329=ORIENTED_EDGE('',*,*,#373,.T.);
#330=ORIENTED_EDGE('',*,*,#425,.T.);
#331=ORIENTED_EDGE('',*,*,#389,.T.);
#332=ORIENTED_EDGE('',*,*,#424,.F.);
#333=ORIENTED_EDGE('',*,*,#372,.T.);
#334=ORIENTED_EDGE('',*,*,#421,.T.);
#335=ORIENTED_EDGE('',*,*,#390,.T.);
#336=ORIENTED_EDGE('',*,*,#425,.F.);
#337=ORIENTED_EDGE('',*,*,#356,.T.);
#338=ORIENTED_EDGE('',*,*,#426,.T.);
#339=ORIENTED_EDGE('',*,*,#393,.T.);
#340=ORIENTED_EDGE('',*,*,#410,.T.);
#341=ORIENTED_EDGE('',*,*,#427,.T.);
#342=ORIENTED_EDGE('',*,*,#394,.F.);
#343=ORIENTED_EDGE('',*,*,#426,.F.);
#344=ORIENTED_EDGE('',*,*,#369,.F.);
#345=ORIENTED_EDGE('',*,*,#382,.F.);
#346=ORIENTED_EDGE('',*,*,#395,.F.);
#347=ORIENTED_EDGE('',*,*,#427,.F.);
#348=ORIENTED_EDGE('',*,*,#368,.F.);
#349=EDGE_CURVE('',#428,#429,#481,.T.);
#350=EDGE_CURVE('',#430,#428,#43,.T.);
#351=EDGE_CURVE('',#431,#430,#39,.T.);
#352=EDGE_CURVE('',#429,#431,#44,.F.);
#353=EDGE_CURVE('',#428,#432,#45,.T.);
#354=EDGE_CURVE('',#433,#429,#46,.F.);
#355=EDGE_CURVE('',#432,#433,#40,.T.);
#356=EDGE_CURVE('',#434,#435,#47,.T.);
#357=EDGE_CURVE('',#436,#434,#48,.T.);
#358=EDGE_CURVE('',#436,#437,#49,.T.);
#359=EDGE_CURVE('',#437,#438,#50,.T.);
#360=EDGE_CURVE('',#439,#438,#51,.T.);
#361=EDGE_CURVE('',#440,#439,#52,.T.);
#362=EDGE_CURVE('',#440,#441,#53,.T.);
#363=EDGE_CURVE('',#441,#442,#54,.T.);
#364=EDGE_CURVE('',#443,#442,#55,.T.);
#365=EDGE_CURVE('',#444,#443,#56,.T.);
#366=EDGE_CURVE('',#445,#444,#57,.T.);
#367=EDGE_CURVE('',#446,#445,#58,.T.);
#368=EDGE_CURVE('',#446,#447,#59,.T.);
#369=EDGE_CURVE('',#447,#435,#60,.T.);
#370=EDGE_CURVE('',#448,#449,#61,.T.);
#371=EDGE_CURVE('',#449,#450,#62,.T.);
#372=EDGE_CURVE('',#451,#450,#63,.T.);
#373=EDGE_CURVE('',#452,#451,#64,.T.);
#374=EDGE_CURVE('',#453,#452,#65,.T.);
#375=EDGE_CURVE('',#448,#453,#66,.T.);
#376=EDGE_CURVE('',#442,#454,#67,.T.);
#377=EDGE_CURVE('',#455,#454,#68,.T.);
#378=EDGE_CURVE('',#456,#455,#69,.T.);
#379=EDGE_CURVE('',#456,#457,#70,.T.);
#380=EDGE_CURVE('',#457,#443,#71,.T.);
#381=EDGE_CURVE('',#458,#455,#72,.T.);
#382=EDGE_CURVE('',#458,#446,#73,.T.);
#383=EDGE_CURVE('',#459,#445,#74,.T.);
#384=EDGE_CURVE('',#459,#456,#75,.T.);
#385=EDGE_CURVE('',#460,#461,#76,.T.);
#386=EDGE_CURVE('',#461,#462,#77,.T.);
#387=EDGE_CURVE('',#463,#462,#78,.T.);
#388=EDGE_CURVE('',#464,#463,#79,.T.);
#389=EDGE_CURVE('',#465,#464,#80,.T.);
#390=EDGE_CURVE('',#460,#465,#81,.T.);
#391=EDGE_CURVE('',#466,#430,#82,.T.);
#392=EDGE_CURVE('',#432,#467,#83,.T.);
#393=EDGE_CURVE('',#468,#467,#84,.T.);
#394=EDGE_CURVE('',#468,#469,#85,.T.);
#395=EDGE_CURVE('',#469,#458,#86,.T.);
#396=EDGE_CURVE('',#454,#470,#87,.T.);
#397=EDGE_CURVE('',#470,#471,#88,.T.);
#398=EDGE_CURVE('',#466,#471,#89,.T.);
#399=EDGE_CURVE('',#472,#473,#90,.T.);
#400=EDGE_CURVE('',#474,#472,#91,.T.);
#401=EDGE_CURVE('',#474,#475,#92,.T.);
#402=EDGE_CURVE('',#475,#476,#93,.T.);
#403=EDGE_CURVE('',#477,#476,#94,.T.);
#404=EDGE_CURVE('',#473,#477,#95,.T.);
#405=EDGE_CURVE('',#476,#431,#96,.T.);
#406=EDGE_CURVE('',#439,#466,#97,.T.);
#407=EDGE_CURVE('',#477,#438,#98,.T.);
#408=EDGE_CURVE('',#474,#433,#99,.T.);
#409=EDGE_CURVE('',#436,#472,#100,.T.);
#410=EDGE_CURVE('',#467,#434,#101,.T.);
#411=EDGE_CURVE('',#475,#429,#102,.T.);
#412=EDGE_CURVE('',#473,#437,#103,.T.);
#413=EDGE_CURVE('',#478,#444,#104,.T.);
#414=EDGE_CURVE('',#459,#478,#105,.T.);
#415=EDGE_CURVE('',#478,#457,#106,.T.);
#416=EDGE_CURVE('',#479,#479,#41,.T.);
#417=EDGE_CURVE('',#480,#480,#42,.F.);
#418=EDGE_CURVE('',#440,#471,#107,.T.);
#419=EDGE_CURVE('',#441,#470,#108,.T.);
#420=EDGE_CURVE('',#449,#461,#109,.T.);
#421=EDGE_CURVE('',#450,#460,#110,.T.);
#422=EDGE_CURVE('',#448,#462,#111,.T.);
#423=EDGE_CURVE('',#453,#463,#112,.T.);
#424=EDGE_CURVE('',#452,#464,#113,.T.);
#425=EDGE_CURVE('',#451,#465,#114,.T.);
#426=EDGE_CURVE('',#435,#468,#115,.T.);
#427=EDGE_CURVE('',#447,#469,#116,.T.);
#428=VERTEX_POINT('',#780);
#429=VERTEX_POINT('',#781);
#430=VERTEX_POINT('',#783);
#431=VERTEX_POINT('',#785);
#432=VERTEX_POINT('',#789);
#433=VERTEX_POINT('',#791);
#434=VERTEX_POINT('',#795);
#435=VERTEX_POINT('',#796);
#436=VERTEX_POINT('',#798);
#437=VERTEX_POINT('',#800);
#438=VERTEX_POINT('',#802);
#439=VERTEX_POINT('',#804);
#440=VERTEX_POINT('',#806);
#441=VERTEX_POINT('',#808);
#442=VERTEX_POINT('',#810);
#443=VERTEX_POINT('',#812);
#444=VERTEX_POINT('',#814);
#445=VERTEX_POINT('',#816);
#446=VERTEX_POINT('',#818);
#447=VERTEX_POINT('',#820);
#448=VERTEX_POINT('',#823);
#449=VERTEX_POINT('',#824);
#450=VERTEX_POINT('',#826);
#451=VERTEX_POINT('',#828);
#452=VERTEX_POINT('',#830);
#453=VERTEX_POINT('',#832);
#454=VERTEX_POINT('',#836);
#455=VERTEX_POINT('',#838);
#456=VERTEX_POINT('',#840);
#457=VERTEX_POINT('',#842);
#458=VERTEX_POINT('',#846);
#459=VERTEX_POINT('',#849);
#460=VERTEX_POINT('',#853);
#461=VERTEX_POINT('',#854);
#462=VERTEX_POINT('',#856);
#463=VERTEX_POINT('',#858);
#464=VERTEX_POINT('',#860);
#465=VERTEX_POINT('',#862);
#466=VERTEX_POINT('',#865);
#467=VERTEX_POINT('',#867);
#468=VERTEX_POINT('',#869);
#469=VERTEX_POINT('',#871);
#470=VERTEX_POINT('',#874);
#471=VERTEX_POINT('',#876);
#472=VERTEX_POINT('',#880);
#473=VERTEX_POINT('',#881);
#474=VERTEX_POINT('',#883);
#475=VERTEX_POINT('',#885);
#476=VERTEX_POINT('',#887);
#477=VERTEX_POINT('',#889);
#478=VERTEX_POINT('',#907);
#479=VERTEX_POINT('',#913);
#480=VERTEX_POINT('',#915);
#481=ELLIPSE('',#597,0.00282842712474619,0.002);
#482=EDGE_LOOP('',(#191,#192,#193,#194));
#483=EDGE_LOOP('',(#195,#196,#197,#198));
#484=EDGE_LOOP('',(#199,#200,#201,#202,#203,#204,#205,#206,#207,#208,#209,
#210,#211,#212));
#485=EDGE_LOOP('',(#213,#214,#215,#216,#217,#218));
#486=EDGE_LOOP('',(#219,#220,#221,#222,#223,#224));
#487=EDGE_LOOP('',(#225,#226,#227,#228,#229,#230));
#488=EDGE_LOOP('',(#231,#232,#233,#234,#235,#236));
#489=EDGE_LOOP('',(#237,#238,#239,#240,#241,#242,#243,#244,#245,#246,#247,
#248));
#490=EDGE_LOOP('',(#249,#250,#251,#252,#253,#254));
#491=EDGE_LOOP('',(#255,#256,#257,#258,#259,#260,#261));
#492=EDGE_LOOP('',(#262,#263,#264,#265,#266,#267,#268));
#493=EDGE_LOOP('',(#269,#270,#271,#272));
#494=EDGE_LOOP('',(#273,#274,#275,#276));
#495=EDGE_LOOP('',(#277,#278,#279,#280));
#496=EDGE_LOOP('',(#281,#282,#283,#284));
#497=EDGE_LOOP('',(#285,#286,#287,#288));
#498=EDGE_LOOP('',(#289,#290,#291,#292));
#499=EDGE_LOOP('',(#293));
#500=EDGE_LOOP('',(#294));
#501=EDGE_LOOP('',(#295));
#502=EDGE_LOOP('',(#296,#297,#298,#299));
#503=EDGE_LOOP('',(#300));
#504=EDGE_LOOP('',(#301,#302,#303,#304));
#505=EDGE_LOOP('',(#305,#306,#307,#308));
#506=EDGE_LOOP('',(#309,#310,#311,#312));
#507=EDGE_LOOP('',(#313,#314,#315,#316));
#508=EDGE_LOOP('',(#317,#318,#319,#320));
#509=EDGE_LOOP('',(#321,#322,#323,#324));
#510=EDGE_LOOP('',(#325,#326,#327,#328));
#511=EDGE_LOOP('',(#329,#330,#331,#332));
#512=EDGE_LOOP('',(#333,#334,#335,#336));
#513=EDGE_LOOP('',(#337,#338,#339,#340));
#514=EDGE_LOOP('',(#341,#342,#343,#344));
#515=EDGE_LOOP('',(#345,#346,#347,#348));
#516=FACE_BOUND('',#482,.T.);
#517=FACE_BOUND('',#483,.T.);
#518=FACE_BOUND('',#484,.T.);
#519=FACE_BOUND('',#485,.T.);
#520=FACE_BOUND('',#486,.T.);
#521=FACE_BOUND('',#487,.T.);
#522=FACE_BOUND('',#488,.T.);
#523=FACE_BOUND('',#489,.T.);
#524=FACE_BOUND('',#490,.T.);
#525=FACE_BOUND('',#491,.T.);
#526=FACE_BOUND('',#492,.T.);
#527=FACE_BOUND('',#493,.T.);
#528=FACE_BOUND('',#494,.T.);
#529=FACE_BOUND('',#495,.T.);
#530=FACE_BOUND('',#496,.T.);
#531=FACE_BOUND('',#497,.T.);
#532=FACE_BOUND('',#498,.T.);
#533=FACE_BOUND('',#499,.T.);
#534=FACE_BOUND('',#500,.T.);
#535=FACE_BOUND('',#501,.T.);
#536=FACE_BOUND('',#502,.T.);
#537=FACE_BOUND('',#503,.T.);
#538=FACE_BOUND('',#504,.T.);
#539=FACE_BOUND('',#505,.T.);
#540=FACE_BOUND('',#506,.T.);
#541=FACE_BOUND('',#507,.T.);
#542=FACE_BOUND('',#508,.T.);
#543=FACE_BOUND('',#509,.T.);
#544=FACE_BOUND('',#510,.T.);
#545=FACE_BOUND('',#511,.T.);
#546=FACE_BOUND('',#512,.T.);
#547=FACE_BOUND('',#513,.T.);
#548=FACE_BOUND('',#514,.T.);
#549=FACE_BOUND('',#515,.T.);
#550=CYLINDRICAL_SURFACE('',#596,0.002);
#551=CYLINDRICAL_SURFACE('',#599,0.002);
#552=CYLINDRICAL_SURFACE('',#614,0.00515);
#553=ADVANCED_FACE('',(#516),#550,.T.);
#554=ADVANCED_FACE('',(#517),#551,.T.);
#555=ADVANCED_FACE('',(#518,#519),#12,.T.);
#556=ADVANCED_FACE('',(#520),#13,.T.);
#557=ADVANCED_FACE('',(#521),#14,.T.);
#558=ADVANCED_FACE('',(#522,#523),#15,.F.);
#559=ADVANCED_FACE('',(#524),#16,.T.);
#560=ADVANCED_FACE('',(#525),#17,.T.);
#561=ADVANCED_FACE('',(#526),#18,.T.);
#562=ADVANCED_FACE('',(#527),#19,.F.);
#563=ADVANCED_FACE('',(#528),#20,.F.);
#564=ADVANCED_FACE('',(#529),#21,.T.);
#565=ADVANCED_FACE('',(#530),#22,.T.);
#566=ADVANCED_FACE('',(#531),#23,.F.);
#567=ADVANCED_FACE('',(#532),#24,.F.);
#568=ADVANCED_FACE('',(#533,#534),#552,.F.);
#569=ADVANCED_FACE('',(#535,#536),#25,.T.);
#570=ADVANCED_FACE('',(#537),#26,.T.);
#571=ADVANCED_FACE('',(#538),#27,.F.);
#572=ADVANCED_FACE('',(#539),#28,.T.);
#573=ADVANCED_FACE('',(#540),#29,.T.);
#574=ADVANCED_FACE('',(#541),#30,.T.);
#575=ADVANCED_FACE('',(#542),#31,.T.);
#576=ADVANCED_FACE('',(#543),#32,.F.);
#577=ADVANCED_FACE('',(#544),#33,.F.);
#578=ADVANCED_FACE('',(#545),#34,.F.);
#579=ADVANCED_FACE('',(#546),#35,.F.);
#580=ADVANCED_FACE('',(#547),#36,.F.);
#581=ADVANCED_FACE('',(#548),#37,.T.);
#582=ADVANCED_FACE('',(#549),#38,.T.);
#583=CLOSED_SHELL('',(#553,#554,#555,#556,#557,#558,#559,#560,#561,#562,
#563,#564,#565,#566,#567,#568,#569,#570,#571,#572,#573,#574,#575,#576,#577,
#578,#579,#580,#581,#582));
#584=STYLED_ITEM('',(#585),#592);
#585=PRESENTATION_STYLE_ASSIGNMENT((#586));
#586=SURFACE_STYLE_USAGE(.BOTH.,#587);
#587=SURFACE_SIDE_STYLE('',(#588));
#588=SURFACE_STYLE_FILL_AREA(#589);
#589=FILL_AREA_STYLE('',(#590));
#590=FILL_AREA_STYLE_COLOUR('',#591);
#591=COLOUR_RGB('',0.498039215686275,0.498039215686275,0.498039215686275);
#592=MANIFOLD_SOLID_BREP('TMat3O',#583);
#593=SHAPE_DEFINITION_REPRESENTATION(#946,#594);
#594=SHAPE_REPRESENTATION('TMat3O',(#595),#941);
#595=AXIS2_PLACEMENT_3D('',#777,#631,#632);
#596=AXIS2_PLACEMENT_3D('',#778,#633,#634);
#597=AXIS2_PLACEMENT_3D('',#779,#635,#636);
#598=AXIS2_PLACEMENT_3D('',#784,#638,#639);
#599=AXIS2_PLACEMENT_3D('',#787,#641,#642);
#600=AXIS2_PLACEMENT_3D('',#792,#645,#646);
#601=AXIS2_PLACEMENT_3D('',#793,#647,#648);
#602=AXIS2_PLACEMENT_3D('',#834,#669,#670);
#603=AXIS2_PLACEMENT_3D('',#844,#676,#677);
#604=AXIS2_PLACEMENT_3D('',#851,#682,#683);
#605=AXIS2_PLACEMENT_3D('',#878,#698,#699);
#606=AXIS2_PLACEMENT_3D('',#891,#706,#707);
#607=AXIS2_PLACEMENT_3D('',#895,#711,#712);
#608=AXIS2_PLACEMENT_3D('',#899,#716,#717);
#609=AXIS2_PLACEMENT_3D('',#901,#719,#720);
#610=AXIS2_PLACEMENT_3D('',#902,#721,#722);
#611=AXIS2_PLACEMENT_3D('',#904,#724,#725);
#612=AXIS2_PLACEMENT_3D('',#905,#726,#727);
#613=AXIS2_PLACEMENT_3D('',#909,#730,#731);
#614=AXIS2_PLACEMENT_3D('',#911,#733,#734);
#615=AXIS2_PLACEMENT_3D('',#912,#735,#736);
#616=AXIS2_PLACEMENT_3D('',#914,#737,#738);
#617=AXIS2_PLACEMENT_3D('',#916,#739,#740);
#618=AXIS2_PLACEMENT_3D('',#917,#741,#742);
#619=AXIS2_PLACEMENT_3D('',#918,#743,#744);
#620=AXIS2_PLACEMENT_3D('',#920,#746,#747);
#621=AXIS2_PLACEMENT_3D('',#922,#749,#750);
#622=AXIS2_PLACEMENT_3D('',#923,#751,#752);
#623=AXIS2_PLACEMENT_3D('',#926,#755,#756);
#624=AXIS2_PLACEMENT_3D('',#928,#758,#759);
#625=AXIS2_PLACEMENT_3D('',#930,#761,#762);
#626=AXIS2_PLACEMENT_3D('',#932,#764,#765);
#627=AXIS2_PLACEMENT_3D('',#934,#767,#768);
#628=AXIS2_PLACEMENT_3D('',#935,#769,#770);
#629=AXIS2_PLACEMENT_3D('',#937,#772,#773);
#630=AXIS2_PLACEMENT_3D('',#939,#775,#776);
#631=DIRECTION('',(0.,0.,1.));
#632=DIRECTION('',(1.,0.,0.));
#633=DIRECTION('',(-1.,0.,0.));
#634=DIRECTION('',(0.,0.,1.));
#635=DIRECTION('',(-0.707106781186548,0.707106781186548,0.));
#636=DIRECTION('',(0.707106781186548,0.707106781186548,0.));
#637=DIRECTION('',(-1.,0.,0.));
#638=DIRECTION('',(1.,0.,0.));
#639=DIRECTION('',(0.,0.,-1.));
#640=DIRECTION('',(-1.,0.,0.));
#641=DIRECTION('',(0.,1.,0.));
#642=DIRECTION('',(0.,0.,1.));
#643=DIRECTION('',(0.,1.,0.));
#644=DIRECTION('',(0.,1.,0.));
#645=DIRECTION('',(0.,1.,0.));
#646=DIRECTION('',(0.,0.,1.));
#647=DIRECTION('',(0.,0.,1.));
#648=DIRECTION('',(1.,0.,0.));
#649=DIRECTION('',(0.,-1.,0.));
#650=DIRECTION('',(1.,0.,0.));
#651=DIRECTION('',(0.,-1.,0.));
#652=DIRECTION('',(1.,0.,0.));
#653=DIRECTION('',(0.,-1.,0.));
#654=DIRECTION('',(1.,3.46944695195362E-16,0.));
#655=DIRECTION('',(0.,1.,0.));
#656=DIRECTION('',(1.,3.46944695195362E-16,0.));
#657=DIRECTION('',(0.,-1.,0.));
#658=DIRECTION('',(1.,0.,0.));
#659=DIRECTION('',(0.,-1.,0.));
#660=DIRECTION('',(1.,0.,0.));
#661=DIRECTION('',(0.,-1.,0.));
#662=DIRECTION('',(-1.,0.,0.));
#663=DIRECTION('',(0.,-1.,0.));
#664=DIRECTION('',(1.,0.,0.));
#665=DIRECTION('',(0.,1.,0.));
#666=DIRECTION('',(1.,0.,0.));
#667=DIRECTION('',(0.,-1.,0.));
#668=DIRECTION('',(-1.,0.,0.));
#669=DIRECTION('',(1.,0.,0.));
#670=DIRECTION('',(0.,0.,-1.));
#671=DIRECTION('',(0.,0.,-1.));
#672=DIRECTION('',(0.,-1.,0.));
#673=DIRECTION('',(0.,0.,-1.));
#674=DIRECTION('',(0.,-1.,0.));
#675=DIRECTION('',(0.,0.,-1.));
#676=DIRECTION('',(0.,1.,0.));
#677=DIRECTION('',(0.,0.,1.));
#678=DIRECTION('',(1.,0.,0.));
#679=DIRECTION('',(0.,0.,1.));
#680=DIRECTION('',(0.,0.,-1.));
#681=DIRECTION('',(1.,0.,0.));
#682=DIRECTION('',(0.,0.,1.));
#683=DIRECTION('',(1.,0.,0.));
#684=DIRECTION('',(-1.,0.,0.));
#685=DIRECTION('',(0.,1.,0.));
#686=DIRECTION('',(1.,0.,0.));
#687=DIRECTION('',(0.,1.,0.));
#688=DIRECTION('',(-1.,0.,0.));
#689=DIRECTION('',(0.,-1.,0.));
#690=DIRECTION('',(0.,-1.,0.));
#691=DIRECTION('',(1.,0.,0.));
#692=DIRECTION('',(0.,1.,0.));
#693=DIRECTION('',(1.,0.,0.));
#694=DIRECTION('',(0.,1.,0.));
#695=DIRECTION('',(-1.,-3.46944695195362E-16,0.));
#696=DIRECTION('',(0.,-1.,0.));
#697=DIRECTION('',(-1.,-3.46944695195362E-16,0.));
#698=DIRECTION('',(0.,0.,1.));
#699=DIRECTION('',(1.,0.,0.));
#700=DIRECTION('',(0.,-1.,0.));
#701=DIRECTION('',(1.,0.,0.));
#702=DIRECTION('',(0.,-1.,0.));
#703=DIRECTION('',(1.,0.,0.));
#704=DIRECTION('',(0.,-1.,0.));
#705=DIRECTION('',(1.,0.,0.));
#706=DIRECTION('',(1.,0.,0.));
#707=DIRECTION('',(0.,0.,-1.));
#708=DIRECTION('',(0.,0.,-1.));
#709=DIRECTION('',(0.,0.,-1.));
#710=DIRECTION('',(0.,0.,-1.));
#711=DIRECTION('',(0.,1.,0.));
#712=DIRECTION('',(0.,0.,1.));
#713=DIRECTION('',(0.,0.,-1.));
#714=DIRECTION('',(0.,0.,1.));
#715=DIRECTION('',(0.,0.,1.));
#716=DIRECTION('',(1.,0.,0.));
#717=DIRECTION('',(0.,0.,-1.));
#718=DIRECTION('',(0.,0.,-1.));
#719=DIRECTION('',(0.,1.,0.));
#720=DIRECTION('',(0.,0.,1.));
#721=DIRECTION('',(1.,0.,0.));
#722=DIRECTION('',(0.,0.,-1.));
#723=DIRECTION('',(0.,0.,-1.));
#724=DIRECTION('',(0.,1.,0.));
#725=DIRECTION('',(0.,0.,1.));
#726=DIRECTION('',(1.,0.,0.));
#727=DIRECTION('',(0.,0.,-1.));
#728=DIRECTION('',(0.,0.,-1.));
#729=DIRECTION('',(0.,-1.,0.));
#730=DIRECTION('',(0.,1.,0.));
#731=DIRECTION('',(0.,0.,1.));
#732=DIRECTION('',(1.,0.,0.));
#733=DIRECTION('',(0.,0.,-1.));
#734=DIRECTION('',(-1.,0.,0.));
#735=DIRECTION('',(0.,0.,1.));
#736=DIRECTION('',(1.,0.,0.));
#737=DIRECTION('',(0.,0.,1.));
#738=DIRECTION('',(1.,0.,0.));
#739=DIRECTION('',(0.,0.,1.));
#740=DIRECTION('',(1.,0.,0.));
#741=DIRECTION('',(0.,0.,1.));
#742=DIRECTION('',(1.,0.,0.));
#743=DIRECTION('',(3.46944695195362E-16,-1.,0.));
#744=DIRECTION('',(1.,3.46944695195362E-16,0.));
#745=DIRECTION('',(0.,0.,-1.));
#746=DIRECTION('',(3.46944695195362E-16,-1.,0.));
#747=DIRECTION('',(1.,3.46944695195362E-16,0.));
#748=DIRECTION('',(0.,0.,-1.));
#749=DIRECTION('',(1.,0.,0.));
#750=DIRECTION('',(0.,0.,-1.));
#751=DIRECTION('',(0.,-1.,0.));
#752=DIRECTION('',(0.,0.,-1.));
#753=DIRECTION('',(0.,0.,-1.));
#754=DIRECTION('',(0.,0.,-1.));
#755=DIRECTION('',(-1.,0.,0.));
#756=DIRECTION('',(0.,0.,1.));
#757=DIRECTION('',(0.,0.,-1.));
#758=DIRECTION('',(0.,1.,0.));
#759=DIRECTION('',(0.,0.,1.));
#760=DIRECTION('',(0.,0.,-1.));
#761=DIRECTION('',(-1.,0.,0.));
#762=DIRECTION('',(0.,0.,1.));
#763=DIRECTION('',(0.,0.,-1.));
#764=DIRECTION('',(0.,-1.,0.));
#765=DIRECTION('',(0.,0.,-1.));
#766=DIRECTION('',(0.,0.,-1.));
#767=DIRECTION('',(1.,0.,0.));
#768=DIRECTION('',(0.,0.,-1.));
#769=DIRECTION('',(-1.,0.,0.));
#770=DIRECTION('',(0.,0.,1.));
#771=DIRECTION('',(0.,0.,-1.));
#772=DIRECTION('',(0.,1.,0.));
#773=DIRECTION('',(0.,0.,1.));
#774=DIRECTION('',(0.,0.,-1.));
#775=DIRECTION('',(-1.,0.,0.));
#776=DIRECTION('',(0.,0.,1.));
#777=CARTESIAN_POINT('',(0.,0.,0.));
#778=CARTESIAN_POINT('',(-0.646396789386985,0.246124473775879,0.002));
#779=CARTESIAN_POINT('',(-0.984396789386984,0.246124473775879,0.002));
#780=CARTESIAN_POINT('',(-0.984396789386984,0.246124473775879,0.));
#781=CARTESIAN_POINT('',(-0.986396789386984,0.244124473775879,0.002));
#782=CARTESIAN_POINT('',(-0.646396789386985,0.246124473775879,0.));
#783=CARTESIAN_POINT('',(-0.746396789386985,0.246124473775879,0.));
#784=CARTESIAN_POINT('',(-0.746396789386985,0.246124473775879,0.002));
#785=CARTESIAN_POINT('',(-0.746396789386985,0.244124473775879,0.002));
#786=CARTESIAN_POINT('',(-0.866396789386984,0.244124473775879,0.002));
#787=CARTESIAN_POINT('',(-0.984396789386984,0.419124473775878,0.002));
#788=CARTESIAN_POINT('',(-0.984396789386984,0.419124473775878,0.));
#789=CARTESIAN_POINT('',(-0.984396789386984,0.344124473775878,0.));
#790=CARTESIAN_POINT('',(-0.986396789386984,0.294124473775878,0.002));
#791=CARTESIAN_POINT('',(-0.986396789386984,0.344124473775878,0.002));
#792=CARTESIAN_POINT('',(-0.984396789386984,0.344124473775878,0.002));
#793=CARTESIAN_POINT('',(-0.646396789386985,0.419124473775878,0.002));
#794=CARTESIAN_POINT('',(-0.978396789386984,0.419124473775878,0.002));
#795=CARTESIAN_POINT('',(-0.978396789386984,0.344124473775878,0.002));
#796=CARTESIAN_POINT('',(-0.978396789386984,0.314124473775878,0.002));
#797=CARTESIAN_POINT('',(-0.866396789386984,0.344124473775878,0.002));
#798=CARTESIAN_POINT('',(-0.984396789386984,0.344124473775878,0.002));
#799=CARTESIAN_POINT('',(-0.984396789386984,0.294124473775878,0.002));
#800=CARTESIAN_POINT('',(-0.984396789386984,0.246124473775879,0.002));
#801=CARTESIAN_POINT('',(-0.866396789386984,0.246124473775879,0.002));
#802=CARTESIAN_POINT('',(-0.746396789386985,0.246124473775879,0.002));
#803=CARTESIAN_POINT('',(-0.746396789386985,0.294124473775878,0.002));
#804=CARTESIAN_POINT('',(-0.746396789386985,0.252124473775878,0.002));
#805=CARTESIAN_POINT('',(-0.646396789386984,0.252124473775878,0.002));
#806=CARTESIAN_POINT('',(-0.826396789386985,0.252124473775878,0.002));
#807=CARTESIAN_POINT('',(-0.826396789386985,0.419124473775878,0.002));
#808=CARTESIAN_POINT('',(-0.826396789386985,0.257124473775878,0.002));
#809=CARTESIAN_POINT('',(-0.646396789386984,0.257124473775878,0.002));
#810=CARTESIAN_POINT('',(-0.746396789386985,0.257124473775878,0.002));
#811=CARTESIAN_POINT('',(-0.746396789386985,0.294124473775878,0.002));
#812=CARTESIAN_POINT('',(-0.746396789386985,0.319124473775879,0.002));
#813=CARTESIAN_POINT('',(-0.758896789386985,0.319124473775879,0.002));
#814=CARTESIAN_POINT('',(-0.771396789386985,0.319124473775879,0.002));
#815=CARTESIAN_POINT('',(-0.771396789386985,0.331624473775879,0.002));
#816=CARTESIAN_POINT('',(-0.771396789386985,0.344124473775878,0.002));
#817=CARTESIAN_POINT('',(-0.866396789386984,0.344124473775878,0.002));
#818=CARTESIAN_POINT('',(-0.973396789386984,0.344124473775878,0.002));
#819=CARTESIAN_POINT('',(-0.973396789386984,0.419124473775878,0.002));
#820=CARTESIAN_POINT('',(-0.973396789386984,0.314124473775878,0.002));
#821=CARTESIAN_POINT('',(-0.646396789386985,0.314124473775878,0.002));
#822=CARTESIAN_POINT('',(-0.973396789386984,0.419124473775878,0.002));
#823=CARTESIAN_POINT('',(-0.973396789386984,0.276124473775878,0.002));
#824=CARTESIAN_POINT('',(-0.973396789386984,0.257124473775878,0.002));
#825=CARTESIAN_POINT('',(-0.646396789386985,0.257124473775878,0.002));
#826=CARTESIAN_POINT('',(-0.904396789386985,0.257124473775878,0.002));
#827=CARTESIAN_POINT('',(-0.904396789386985,0.419124473775878,0.002));
#828=CARTESIAN_POINT('',(-0.904396789386985,0.252124473775878,0.002));
#829=CARTESIAN_POINT('',(-0.646396789386985,0.252124473775878,0.002));
#830=CARTESIAN_POINT('',(-0.978396789386984,0.252124473775878,0.002));
#831=CARTESIAN_POINT('',(-0.978396789386984,0.419124473775878,0.002));
#832=CARTESIAN_POINT('',(-0.978396789386984,0.276124473775878,0.002));
#833=CARTESIAN_POINT('',(-0.646396789386985,0.276124473775878,0.002));
#834=CARTESIAN_POINT('',(-0.746396789386985,0.294124473775878,0.008));
#835=CARTESIAN_POINT('',(-0.746396789386985,0.257124473775878,0.008));
#836=CARTESIAN_POINT('',(-0.746396789386985,0.257124473775878,0.));
#837=CARTESIAN_POINT('',(-0.746396789386985,0.294124473775878,0.));
#838=CARTESIAN_POINT('',(-0.746396789386985,0.344124473775879,0.));
#839=CARTESIAN_POINT('',(-0.746396789386985,0.344124473775879,0.008));
#840=CARTESIAN_POINT('',(-0.746396789386985,0.344124473775879,0.017));
#841=CARTESIAN_POINT('',(-0.746396789386985,0.331624473775879,0.017));
#842=CARTESIAN_POINT('',(-0.746396789386985,0.319124473775879,0.017));
#843=CARTESIAN_POINT('',(-0.746396789386985,0.319124473775879,0.017));
#844=CARTESIAN_POINT('',(-0.866396789386984,0.344124473775878,0.008));
#845=CARTESIAN_POINT('',(-0.866396789386984,0.344124473775878,0.));
#846=CARTESIAN_POINT('',(-0.973396789386984,0.344124473775878,0.));
#847=CARTESIAN_POINT('',(-0.973396789386984,0.344124473775878,0.008));
#848=CARTESIAN_POINT('',(-0.771396789386985,0.344124473775878,0.017));
#849=CARTESIAN_POINT('',(-0.771396789386985,0.344124473775878,0.017));
#850=CARTESIAN_POINT('',(-0.866396789386984,0.344124473775878,0.017));
#851=CARTESIAN_POINT('',(-0.646396789386985,0.419124473775878,0.));
#852=CARTESIAN_POINT('',(-0.938896789386985,0.257124473775878,0.));
#853=CARTESIAN_POINT('',(-0.904396789386985,0.257124473775878,0.));
#854=CARTESIAN_POINT('',(-0.973396789386984,0.257124473775878,0.));
#855=CARTESIAN_POINT('',(-0.973396789386984,0.266624473775878,0.));
#856=CARTESIAN_POINT('',(-0.973396789386984,0.276124473775878,0.));
#857=CARTESIAN_POINT('',(-0.975896789386984,0.276124473775878,0.));
#858=CARTESIAN_POINT('',(-0.978396789386984,0.276124473775878,0.));
#859=CARTESIAN_POINT('',(-0.978396789386984,0.254624473775878,0.));
#860=CARTESIAN_POINT('',(-0.978396789386984,0.252124473775878,0.));
#861=CARTESIAN_POINT('',(-0.941396789386985,0.252124473775878,0.));
#862=CARTESIAN_POINT('',(-0.904396789386985,0.252124473775878,0.));
#863=CARTESIAN_POINT('',(-0.904396789386985,0.254624473775878,0.));
#864=CARTESIAN_POINT('',(-0.746396789386985,0.294124473775878,0.));
#865=CARTESIAN_POINT('',(-0.746396789386985,0.252124473775878,0.));
#866=CARTESIAN_POINT('',(-0.866396789386984,0.344124473775878,0.));
#867=CARTESIAN_POINT('',(-0.978396789386984,0.344124473775878,0.));
#868=CARTESIAN_POINT('',(-0.978396789386984,0.369124473775878,0.));
#869=CARTESIAN_POINT('',(-0.978396789386984,0.314124473775878,0.));
#870=CARTESIAN_POINT('',(-0.975896789386984,0.314124473775878,0.));
#871=CARTESIAN_POINT('',(-0.973396789386984,0.314124473775878,0.));
#872=CARTESIAN_POINT('',(-0.973396789386984,0.369124473775878,0.));
#873=CARTESIAN_POINT('',(-0.746396789386985,0.257124473775878,0.));
#874=CARTESIAN_POINT('',(-0.826396789386985,0.257124473775878,0.));
#875=CARTESIAN_POINT('',(-0.826396789386985,0.254624473775878,0.));
#876=CARTESIAN_POINT('',(-0.826396789386985,0.252124473775878,0.));
#877=CARTESIAN_POINT('',(-0.746396789386985,0.252124473775878,0.));
#878=CARTESIAN_POINT('',(-0.646396789386985,0.419124473775878,0.008));
#879=CARTESIAN_POINT('',(-0.984396789386984,0.294124473775878,0.008));
#880=CARTESIAN_POINT('',(-0.984396789386984,0.344124473775878,0.008));
#881=CARTESIAN_POINT('',(-0.984396789386984,0.246124473775879,0.008));
#882=CARTESIAN_POINT('',(-0.866396789386984,0.344124473775878,0.008));
#883=CARTESIAN_POINT('',(-0.986396789386984,0.344124473775878,0.008));
#884=CARTESIAN_POINT('',(-0.986396789386984,0.294124473775878,0.008));
#885=CARTESIAN_POINT('',(-0.986396789386984,0.244124473775879,0.008));
#886=CARTESIAN_POINT('',(-0.866396789386984,0.244124473775879,0.008));
#887=CARTESIAN_POINT('',(-0.746396789386985,0.244124473775879,0.008));
#888=CARTESIAN_POINT('',(-0.746396789386985,0.294124473775878,0.008));
#889=CARTESIAN_POINT('',(-0.746396789386985,0.246124473775879,0.008));
#890=CARTESIAN_POINT('',(-0.866396789386984,0.246124473775879,0.008));
#891=CARTESIAN_POINT('',(-0.746396789386985,0.294124473775878,0.008));
#892=CARTESIAN_POINT('',(-0.746396789386985,0.244124473775879,0.008));
#893=CARTESIAN_POINT('',(-0.746396789386985,0.252124473775878,0.008));
#894=CARTESIAN_POINT('',(-0.746396789386985,0.246124473775879,0.008));
#895=CARTESIAN_POINT('',(-0.866396789386984,0.344124473775878,0.008));
#896=CARTESIAN_POINT('',(-0.986396789386984,0.344124473775878,0.008));
#897=CARTESIAN_POINT('',(-0.984396789386984,0.344124473775878,0.008));
#898=CARTESIAN_POINT('',(-0.978396789386984,0.344124473775878,0.008));
#899=CARTESIAN_POINT('',(-0.986396789386984,0.294124473775878,0.008));
#900=CARTESIAN_POINT('',(-0.986396789386984,0.244124473775879,0.008));
#901=CARTESIAN_POINT('',(-0.866396789386984,0.244124473775879,0.008));
#902=CARTESIAN_POINT('',(-0.984396789386984,0.294124473775878,0.008));
#903=CARTESIAN_POINT('',(-0.984396789386984,0.246124473775879,0.008));
#904=CARTESIAN_POINT('',(-0.866396789386984,0.246124473775879,0.008));
#905=CARTESIAN_POINT('',(-0.771396789386985,0.331624473775879,0.017));
#906=CARTESIAN_POINT('',(-0.771396789386985,0.319124473775879,0.017));
#907=CARTESIAN_POINT('',(-0.771396789386985,0.319124473775879,0.017));
#908=CARTESIAN_POINT('',(-0.771396789386985,0.331624473775879,0.017));
#909=CARTESIAN_POINT('',(-0.758896789386985,0.319124473775879,0.017));
#910=CARTESIAN_POINT('',(-0.758896789386985,0.319124473775879,0.017));
#911=CARTESIAN_POINT('',(-0.756396789386985,0.334124473775878,0.017));
#912=CARTESIAN_POINT('',(-0.756396789386985,0.334124473775878,0.017));
#913=CARTESIAN_POINT('',(-0.751246789386985,0.334124473775878,0.017));
#914=CARTESIAN_POINT('',(-0.756396789386985,0.334124473775878,0.002));
#915=CARTESIAN_POINT('',(-0.751246789386985,0.334124473775878,0.002));
#916=CARTESIAN_POINT('',(-0.668896789386985,0.455624473775879,0.017));
#917=CARTESIAN_POINT('',(-0.646396789386985,0.419124473775878,0.002));
#918=CARTESIAN_POINT('',(-0.746396789386985,0.252124473775878,0.025));
#919=CARTESIAN_POINT('',(-0.826396789386985,0.252124473775878,0.025));
#920=CARTESIAN_POINT('',(-0.746396789386985,0.257124473775878,0.025));
#921=CARTESIAN_POINT('',(-0.826396789386985,0.257124473775878,0.025));
#922=CARTESIAN_POINT('',(-0.826396789386985,0.254624473775878,0.025));
#923=CARTESIAN_POINT('',(-0.938896789386985,0.257124473775878,0.025));
#924=CARTESIAN_POINT('',(-0.973396789386984,0.257124473775878,0.025));
#925=CARTESIAN_POINT('',(-0.904396789386985,0.257124473775878,0.025));
#926=CARTESIAN_POINT('',(-0.973396789386984,0.266624473775878,0.025));
#927=CARTESIAN_POINT('',(-0.973396789386984,0.276124473775878,0.025));
#928=CARTESIAN_POINT('',(-0.975896789386984,0.276124473775878,0.025));
#929=CARTESIAN_POINT('',(-0.978396789386984,0.276124473775878,0.025));
#930=CARTESIAN_POINT('',(-0.978396789386984,0.254624473775878,0.025));
#931=CARTESIAN_POINT('',(-0.978396789386984,0.252124473775878,0.025));
#932=CARTESIAN_POINT('',(-0.941396789386985,0.252124473775878,0.025));
#933=CARTESIAN_POINT('',(-0.904396789386985,0.252124473775878,0.025));
#934=CARTESIAN_POINT('',(-0.904396789386985,0.254624473775878,0.025));
#935=CARTESIAN_POINT('',(-0.978396789386984,0.369124473775878,0.025));
#936=CARTESIAN_POINT('',(-0.978396789386984,0.314124473775878,0.025));
#937=CARTESIAN_POINT('',(-0.975896789386984,0.314124473775878,0.025));
#938=CARTESIAN_POINT('',(-0.973396789386984,0.314124473775878,0.025));
#939=CARTESIAN_POINT('',(-0.973396789386984,0.369124473775878,0.025));
#940=MECHANICAL_DESIGN_GEOMETRIC_PRESENTATION_REPRESENTATION('',(#584),
#941);
#941=(
GEOMETRIC_REPRESENTATION_CONTEXT(3)
GLOBAL_UNCERTAINTY_ASSIGNED_CONTEXT((#942))
GLOBAL_UNIT_ASSIGNED_CONTEXT((#945,#944,#943))
REPRESENTATION_CONTEXT('TMat3O','TOP_LEVEL_ASSEMBLY_PART')
);
#942=UNCERTAINTY_MEASURE_WITH_UNIT(LENGTH_MEASURE(1.E-8),#945,
'DISTANCE_ACCURACY_VALUE','Maximum Tolerance applied to model');
#943=(
NAMED_UNIT(*)
SI_UNIT($,.STERADIAN.)
SOLID_ANGLE_UNIT()
);
#944=(
NAMED_UNIT(*)
PLANE_ANGLE_UNIT()
SI_UNIT($,.RADIAN.)
);
#945=(
LENGTH_UNIT()
NAMED_UNIT(*)
SI_UNIT($,.METRE.)
);
#946=PRODUCT_DEFINITION_SHAPE('','',#947);
#947=PRODUCT_DEFINITION('','',#949,#948);
#948=PRODUCT_DEFINITION_CONTEXT('',#955,'design');
#949=PRODUCT_DEFINITION_FORMATION_WITH_SPECIFIED_SOURCE('','',#951,
 .NOT_KNOWN.);
#950=PRODUCT_RELATED_PRODUCT_CATEGORY('','',(#951));
#951=PRODUCT('TMat3O','TMat3O','TMat3O',(#953));
#952=PRODUCT_CATEGORY('','');
#953=PRODUCT_CONTEXT('',#955,'mechanical');
#954=APPLICATION_PROTOCOL_DEFINITION('international standard',
'ap242_managed_model_based_3d_engineering',2020,#955);
#955=APPLICATION_CONTEXT('managed model based 3d engineering');
ENDSEC;
END-ISO-10303-21;
