ISO-10303-21;
HEADER;
/* Generated by software containing ST-Developer
 * from STEP Tools, Inc. (www.steptools.com) 
 */
/* OPTION: using custom renumber hook */

FILE_DESCRIPTION(
/* description */ ('STEP AP242 Edition 2',
'CAx-IF Rec.Pracs.---Representation and Presentation of Product Manufa
cturing Information (PMI)---4.0---2014-10-13',
'CAx-IF Rec.Pracs.---3D Tessellated Geometry---0.4---2014-09-14','2;1',
'CAx-IF Rec.Pracs.---User Defined Attributes---1.5---2016-08-15'),
/* implementation_level */ '2;1');

FILE_NAME(
/* name */ 'Part Studio 1 - Action Button',
/* time_stamp */ '2026-05-20T23:41:51Z',
/* author */ (''),
/* organization */ (''),
/* preprocessor_version */ 'ST-DEVELOPER v20',
/* originating_system */ 'ONSHAPE BY PTC INC, 1.215',
/* authorisation */ '  ');

FILE_SCHEMA (('AP242_MANAGED_MODEL_BASED_3D_ENGINEERING_MIM_LF { 1 0 10303 442 3 1 4 }'));
ENDSEC;

DATA;
#10=SHAPE_REPRESENTATION_RELATIONSHIP('','',#370,#11);
#11=ADVANCED_BREP_SHAPE_REPRESENTATION('',(#368),#580);
#12=ORIENTED_EDGE('',*,*,#106,.F.);
#13=ORIENTED_EDGE('',*,*,#107,.F.);
#14=ORIENTED_EDGE('',*,*,#108,.T.);
#15=ORIENTED_EDGE('',*,*,#109,.T.);
#16=ORIENTED_EDGE('',*,*,#110,.F.);
#17=ORIENTED_EDGE('',*,*,#111,.T.);
#18=ORIENTED_EDGE('',*,*,#112,.T.);
#19=ORIENTED_EDGE('',*,*,#113,.T.);
#20=ORIENTED_EDGE('',*,*,#114,.T.);
#21=ORIENTED_EDGE('',*,*,#115,.T.);
#22=ORIENTED_EDGE('',*,*,#116,.T.);
#23=ORIENTED_EDGE('',*,*,#117,.F.);
#24=ORIENTED_EDGE('',*,*,#118,.T.);
#25=ORIENTED_EDGE('',*,*,#119,.T.);
#26=ORIENTED_EDGE('',*,*,#120,.F.);
#27=ORIENTED_EDGE('',*,*,#121,.T.);
#28=ORIENTED_EDGE('',*,*,#120,.T.);
#29=ORIENTED_EDGE('',*,*,#122,.T.);
#30=ORIENTED_EDGE('',*,*,#123,.F.);
#31=ORIENTED_EDGE('',*,*,#124,.F.);
#32=ORIENTED_EDGE('',*,*,#123,.T.);
#33=ORIENTED_EDGE('',*,*,#125,.T.);
#34=ORIENTED_EDGE('',*,*,#126,.F.);
#35=ORIENTED_EDGE('',*,*,#127,.F.);
#36=ORIENTED_EDGE('',*,*,#126,.T.);
#37=ORIENTED_EDGE('',*,*,#128,.T.);
#38=ORIENTED_EDGE('',*,*,#118,.F.);
#39=ORIENTED_EDGE('',*,*,#129,.T.);
#40=ORIENTED_EDGE('',*,*,#121,.F.);
#41=ORIENTED_EDGE('',*,*,#124,.T.);
#42=ORIENTED_EDGE('',*,*,#127,.T.);
#43=ORIENTED_EDGE('',*,*,#129,.F.);
#44=ORIENTED_EDGE('',*,*,#130,.F.);
#45=ORIENTED_EDGE('',*,*,#122,.F.);
#46=ORIENTED_EDGE('',*,*,#131,.F.);
#47=ORIENTED_EDGE('',*,*,#114,.F.);
#48=ORIENTED_EDGE('',*,*,#132,.F.);
#49=ORIENTED_EDGE('',*,*,#133,.T.);
#50=ORIENTED_EDGE('',*,*,#134,.T.);
#51=ORIENTED_EDGE('',*,*,#115,.F.);
#52=ORIENTED_EDGE('',*,*,#131,.T.);
#53=ORIENTED_EDGE('',*,*,#119,.F.);
#54=ORIENTED_EDGE('',*,*,#135,.F.);
#55=ORIENTED_EDGE('',*,*,#111,.F.);
#56=ORIENTED_EDGE('',*,*,#130,.T.);
#57=ORIENTED_EDGE('',*,*,#113,.F.);
#58=ORIENTED_EDGE('',*,*,#136,.F.);
#59=ORIENTED_EDGE('',*,*,#125,.F.);
#60=ORIENTED_EDGE('',*,*,#135,.T.);
#61=ORIENTED_EDGE('',*,*,#128,.F.);
#62=ORIENTED_EDGE('',*,*,#136,.T.);
#63=ORIENTED_EDGE('',*,*,#112,.F.);
#64=ORIENTED_EDGE('',*,*,#132,.T.);
#65=ORIENTED_EDGE('',*,*,#110,.T.);
#66=ORIENTED_EDGE('',*,*,#137,.F.);
#67=ORIENTED_EDGE('',*,*,#138,.F.);
#68=ORIENTED_EDGE('',*,*,#139,.T.);
#69=ORIENTED_EDGE('',*,*,#139,.F.);
#70=ORIENTED_EDGE('',*,*,#140,.T.);
#71=ORIENTED_EDGE('',*,*,#141,.T.);
#72=ORIENTED_EDGE('',*,*,#133,.F.);
#73=ORIENTED_EDGE('',*,*,#141,.F.);
#74=ORIENTED_EDGE('',*,*,#142,.T.);
#75=ORIENTED_EDGE('',*,*,#143,.T.);
#76=ORIENTED_EDGE('',*,*,#116,.F.);
#77=ORIENTED_EDGE('',*,*,#134,.F.);
#78=ORIENTED_EDGE('',*,*,#117,.T.);
#79=ORIENTED_EDGE('',*,*,#143,.F.);
#80=ORIENTED_EDGE('',*,*,#144,.F.);
#81=ORIENTED_EDGE('',*,*,#137,.T.);
#82=ORIENTED_EDGE('',*,*,#138,.T.);
#83=ORIENTED_EDGE('',*,*,#144,.T.);
#84=ORIENTED_EDGE('',*,*,#142,.F.);
#85=ORIENTED_EDGE('',*,*,#140,.F.);
#86=ORIENTED_EDGE('',*,*,#107,.T.);
#87=ORIENTED_EDGE('',*,*,#145,.F.);
#88=ORIENTED_EDGE('',*,*,#146,.F.);
#89=ORIENTED_EDGE('',*,*,#147,.T.);
#90=ORIENTED_EDGE('',*,*,#108,.F.);
#91=ORIENTED_EDGE('',*,*,#147,.F.);
#92=ORIENTED_EDGE('',*,*,#148,.T.);
#93=ORIENTED_EDGE('',*,*,#149,.T.);
#94=ORIENTED_EDGE('',*,*,#109,.F.);
#95=ORIENTED_EDGE('',*,*,#149,.F.);
#96=ORIENTED_EDGE('',*,*,#150,.T.);
#97=ORIENTED_EDGE('',*,*,#151,.T.);
#98=ORIENTED_EDGE('',*,*,#106,.T.);
#99=ORIENTED_EDGE('',*,*,#151,.F.);
#100=ORIENTED_EDGE('',*,*,#152,.F.);
#101=ORIENTED_EDGE('',*,*,#145,.T.);
#102=ORIENTED_EDGE('',*,*,#146,.T.);
#103=ORIENTED_EDGE('',*,*,#152,.T.);
#104=ORIENTED_EDGE('',*,*,#150,.F.);
#105=ORIENTED_EDGE('',*,*,#148,.F.);
#106=EDGE_CURVE('',#153,#154,#183,.T.);
#107=EDGE_CURVE('',#155,#153,#184,.T.);
#108=EDGE_CURVE('',#155,#156,#185,.T.);
#109=EDGE_CURVE('',#156,#154,#186,.T.);
#110=EDGE_CURVE('',#157,#158,#187,.T.);
#111=EDGE_CURVE('',#157,#159,#188,.T.);
#112=EDGE_CURVE('',#159,#160,#189,.T.);
#113=EDGE_CURVE('',#160,#161,#190,.T.);
#114=EDGE_CURVE('',#161,#162,#191,.T.);
#115=EDGE_CURVE('',#162,#163,#192,.T.);
#116=EDGE_CURVE('',#163,#164,#193,.T.);
#117=EDGE_CURVE('',#158,#164,#194,.T.);
#118=EDGE_CURVE('',#165,#166,#195,.T.);
#119=EDGE_CURVE('',#166,#167,#196,.T.);
#120=EDGE_CURVE('',#168,#167,#197,.T.);
#121=EDGE_CURVE('',#168,#165,#198,.T.);
#122=EDGE_CURVE('',#167,#169,#199,.T.);
#123=EDGE_CURVE('',#170,#169,#200,.T.);
#124=EDGE_CURVE('',#168,#170,#201,.T.);
#125=EDGE_CURVE('',#169,#171,#202,.T.);
#126=EDGE_CURVE('',#172,#171,#203,.T.);
#127=EDGE_CURVE('',#170,#172,#204,.T.);
#128=EDGE_CURVE('',#171,#166,#205,.T.);
#129=EDGE_CURVE('',#165,#172,#206,.T.);
#130=EDGE_CURVE('',#169,#161,#207,.T.);
#131=EDGE_CURVE('',#162,#167,#208,.T.);
#132=EDGE_CURVE('',#173,#157,#209,.T.);
#133=EDGE_CURVE('',#173,#174,#210,.T.);
#134=EDGE_CURVE('',#174,#163,#211,.T.);
#135=EDGE_CURVE('',#159,#166,#212,.F.);
#136=EDGE_CURVE('',#171,#160,#213,.T.);
#137=EDGE_CURVE('',#175,#158,#214,.T.);
#138=EDGE_CURVE('',#176,#175,#215,.T.);
#139=EDGE_CURVE('',#176,#173,#216,.T.);
#140=EDGE_CURVE('',#176,#177,#217,.T.);
#141=EDGE_CURVE('',#177,#174,#218,.T.);
#142=EDGE_CURVE('',#177,#178,#219,.T.);
#143=EDGE_CURVE('',#178,#164,#220,.T.);
#144=EDGE_CURVE('',#175,#178,#221,.T.);
#145=EDGE_CURVE('',#179,#153,#222,.T.);
#146=EDGE_CURVE('',#180,#179,#223,.T.);
#147=EDGE_CURVE('',#180,#155,#224,.T.);
#148=EDGE_CURVE('',#180,#181,#225,.T.);
#149=EDGE_CURVE('',#181,#156,#226,.T.);
#150=EDGE_CURVE('',#181,#182,#227,.T.);
#151=EDGE_CURVE('',#182,#154,#228,.T.);
#152=EDGE_CURVE('',#179,#182,#229,.T.);
#153=VERTEX_POINT('',#484);
#154=VERTEX_POINT('',#485);
#155=VERTEX_POINT('',#487);
#156=VERTEX_POINT('',#489);
#157=VERTEX_POINT('',#492);
#158=VERTEX_POINT('',#493);
#159=VERTEX_POINT('',#495);
#160=VERTEX_POINT('',#497);
#161=VERTEX_POINT('',#499);
#162=VERTEX_POINT('',#501);
#163=VERTEX_POINT('',#503);
#164=VERTEX_POINT('',#505);
#165=VERTEX_POINT('',#509);
#166=VERTEX_POINT('',#510);
#167=VERTEX_POINT('',#512);
#168=VERTEX_POINT('',#514);
#169=VERTEX_POINT('',#518);
#170=VERTEX_POINT('',#520);
#171=VERTEX_POINT('',#524);
#172=VERTEX_POINT('',#526);
#173=VERTEX_POINT('',#537);
#174=VERTEX_POINT('',#539);
#175=VERTEX_POINT('',#547);
#176=VERTEX_POINT('',#549);
#177=VERTEX_POINT('',#553);
#178=VERTEX_POINT('',#557);
#179=VERTEX_POINT('',#564);
#180=VERTEX_POINT('',#566);
#181=VERTEX_POINT('',#570);
#182=VERTEX_POINT('',#574);
#183=LINE('',#483,#230);
#184=LINE('',#486,#231);
#185=LINE('',#488,#232);
#186=LINE('',#490,#233);
#187=LINE('',#491,#234);
#188=LINE('',#494,#235);
#189=LINE('',#496,#236);
#190=LINE('',#498,#237);
#191=LINE('',#500,#238);
#192=LINE('',#502,#239);
#193=LINE('',#504,#240);
#194=LINE('',#506,#241);
#195=LINE('',#508,#242);
#196=LINE('',#511,#243);
#197=LINE('',#513,#244);
#198=LINE('',#515,#245);
#199=LINE('',#517,#246);
#200=LINE('',#519,#247);
#201=LINE('',#521,#248);
#202=LINE('',#523,#249);
#203=LINE('',#525,#250);
#204=LINE('',#527,#251);
#205=LINE('',#529,#252);
#206=LINE('',#530,#253);
#207=LINE('',#533,#254);
#208=LINE('',#534,#255);
#209=LINE('',#536,#256);
#210=LINE('',#538,#257);
#211=LINE('',#540,#258);
#212=LINE('',#541,#259);
#213=LINE('',#543,#260);
#214=LINE('',#546,#261);
#215=LINE('',#548,#262);
#216=LINE('',#550,#263);
#217=LINE('',#552,#264);
#218=LINE('',#554,#265);
#219=LINE('',#556,#266);
#220=LINE('',#558,#267);
#221=LINE('',#560,#268);
#222=LINE('',#563,#269);
#223=LINE('',#565,#270);
#224=LINE('',#567,#271);
#225=LINE('',#569,#272);
#226=LINE('',#571,#273);
#227=LINE('',#573,#274);
#228=LINE('',#575,#275);
#229=LINE('',#577,#276);
#230=VECTOR('',#396,1.);
#231=VECTOR('',#397,1.);
#232=VECTOR('',#398,1.);
#233=VECTOR('',#399,1.);
#234=VECTOR('',#400,1.);
#235=VECTOR('',#401,1.);
#236=VECTOR('',#402,1.);
#237=VECTOR('',#403,1.);
#238=VECTOR('',#404,1.);
#239=VECTOR('',#405,1.);
#240=VECTOR('',#406,1.);
#241=VECTOR('',#407,1.);
#242=VECTOR('',#410,1.);
#243=VECTOR('',#411,1.);
#244=VECTOR('',#412,1.);
#245=VECTOR('',#413,1.);
#246=VECTOR('',#416,1.);
#247=VECTOR('',#417,1.);
#248=VECTOR('',#418,1.);
#249=VECTOR('',#421,1.);
#250=VECTOR('',#422,1.);
#251=VECTOR('',#423,1.);
#252=VECTOR('',#426,1.);
#253=VECTOR('',#427,1.);
#254=VECTOR('',#432,1.);
#255=VECTOR('',#433,1.);
#256=VECTOR('',#436,1.);
#257=VECTOR('',#437,1.);
#258=VECTOR('',#438,1.);
#259=VECTOR('',#439,1.);
#260=VECTOR('',#442,1.);
#261=VECTOR('',#447,1.);
#262=VECTOR('',#448,1.);
#263=VECTOR('',#449,1.);
#264=VECTOR('',#452,1.);
#265=VECTOR('',#453,1.);
#266=VECTOR('',#456,1.);
#267=VECTOR('',#457,1.);
#268=VECTOR('',#460,1.);
#269=VECTOR('',#465,1.);
#270=VECTOR('',#466,1.);
#271=VECTOR('',#467,1.);
#272=VECTOR('',#470,1.);
#273=VECTOR('',#471,1.);
#274=VECTOR('',#474,1.);
#275=VECTOR('',#475,1.);
#276=VECTOR('',#478,1.);
#277=EDGE_LOOP('',(#12,#13,#14,#15));
#278=EDGE_LOOP('',(#16,#17,#18,#19,#20,#21,#22,#23));
#279=EDGE_LOOP('',(#24,#25,#26,#27));
#280=EDGE_LOOP('',(#28,#29,#30,#31));
#281=EDGE_LOOP('',(#32,#33,#34,#35));
#282=EDGE_LOOP('',(#36,#37,#38,#39));
#283=EDGE_LOOP('',(#40,#41,#42,#43));
#284=EDGE_LOOP('',(#44,#45,#46,#47));
#285=EDGE_LOOP('',(#48,#49,#50,#51,#52,#53,#54,#55));
#286=EDGE_LOOP('',(#56,#57,#58,#59));
#287=EDGE_LOOP('',(#60,#61,#62,#63));
#288=EDGE_LOOP('',(#64,#65,#66,#67,#68));
#289=EDGE_LOOP('',(#69,#70,#71,#72));
#290=EDGE_LOOP('',(#73,#74,#75,#76,#77));
#291=EDGE_LOOP('',(#78,#79,#80,#81));
#292=EDGE_LOOP('',(#82,#83,#84,#85));
#293=EDGE_LOOP('',(#86,#87,#88,#89));
#294=EDGE_LOOP('',(#90,#91,#92,#93));
#295=EDGE_LOOP('',(#94,#95,#96,#97));
#296=EDGE_LOOP('',(#98,#99,#100,#101));
#297=EDGE_LOOP('',(#102,#103,#104,#105));
#298=FACE_BOUND('',#277,.T.);
#299=FACE_BOUND('',#278,.T.);
#300=FACE_BOUND('',#279,.T.);
#301=FACE_BOUND('',#280,.T.);
#302=FACE_BOUND('',#281,.T.);
#303=FACE_BOUND('',#282,.T.);
#304=FACE_BOUND('',#283,.T.);
#305=FACE_BOUND('',#284,.T.);
#306=FACE_BOUND('',#285,.T.);
#307=FACE_BOUND('',#286,.T.);
#308=FACE_BOUND('',#287,.T.);
#309=FACE_BOUND('',#288,.T.);
#310=FACE_BOUND('',#289,.T.);
#311=FACE_BOUND('',#290,.T.);
#312=FACE_BOUND('',#291,.T.);
#313=FACE_BOUND('',#292,.T.);
#314=FACE_BOUND('',#293,.T.);
#315=FACE_BOUND('',#294,.T.);
#316=FACE_BOUND('',#295,.T.);
#317=FACE_BOUND('',#296,.T.);
#318=FACE_BOUND('',#297,.T.);
#319=PLANE('',#372);
#320=PLANE('',#373);
#321=PLANE('',#374);
#322=PLANE('',#375);
#323=PLANE('',#376);
#324=PLANE('',#377);
#325=PLANE('',#378);
#326=PLANE('',#379);
#327=PLANE('',#380);
#328=PLANE('',#381);
#329=PLANE('',#382);
#330=PLANE('',#383);
#331=PLANE('',#384);
#332=PLANE('',#385);
#333=PLANE('',#386);
#334=PLANE('',#387);
#335=PLANE('',#388);
#336=PLANE('',#389);
#337=PLANE('',#390);
#338=PLANE('',#391);
#339=ADVANCED_FACE('',(#298,#299),#319,.F.);
#340=ADVANCED_FACE('',(#300),#320,.T.);
#341=ADVANCED_FACE('',(#301),#321,.F.);
#342=ADVANCED_FACE('',(#302),#322,.F.);
#343=ADVANCED_FACE('',(#303),#323,.T.);
#344=ADVANCED_FACE('',(#304),#324,.T.);
#345=ADVANCED_FACE('',(#305),#325,.F.);
#346=ADVANCED_FACE('',(#306),#326,.T.);
#347=ADVANCED_FACE('',(#307),#327,.F.);
#348=ADVANCED_FACE('',(#308),#328,.T.);
#349=ADVANCED_FACE('',(#309),#329,.F.);
#350=ADVANCED_FACE('',(#310),#330,.T.);
#351=ADVANCED_FACE('',(#311),#331,.T.);
#352=ADVANCED_FACE('',(#312),#332,.F.);
#353=ADVANCED_FACE('',(#313),#333,.F.);
#354=ADVANCED_FACE('',(#314),#334,.F.);
#355=ADVANCED_FACE('',(#315),#335,.T.);
#356=ADVANCED_FACE('',(#316),#336,.T.);
#357=ADVANCED_FACE('',(#317),#337,.F.);
#358=ADVANCED_FACE('',(#318),#338,.F.);
#359=CLOSED_SHELL('',(#339,#340,#341,#342,#343,#344,#345,#346,#347,#348,
#349,#350,#351,#352,#353,#354,#355,#356,#357,#358));
#360=STYLED_ITEM('',(#361),#368);
#361=PRESENTATION_STYLE_ASSIGNMENT((#362));
#362=SURFACE_STYLE_USAGE(.BOTH.,#363);
#363=SURFACE_SIDE_STYLE('',(#364));
#364=SURFACE_STYLE_FILL_AREA(#365);
#365=FILL_AREA_STYLE('',(#366));
#366=FILL_AREA_STYLE_COLOUR('',#367);
#367=COLOUR_RGB('',0.768627450980392,0.886274509803922,0.952941176470588);
#368=MANIFOLD_SOLID_BREP('Action Button',#359);
#369=SHAPE_DEFINITION_REPRESENTATION(#585,#370);
#370=SHAPE_REPRESENTATION('Action Button',(#371),#580);
#371=AXIS2_PLACEMENT_3D('',#481,#392,#393);
#372=AXIS2_PLACEMENT_3D('',#482,#394,#395);
#373=AXIS2_PLACEMENT_3D('',#507,#408,#409);
#374=AXIS2_PLACEMENT_3D('',#516,#414,#415);
#375=AXIS2_PLACEMENT_3D('',#522,#419,#420);
#376=AXIS2_PLACEMENT_3D('',#528,#424,#425);
#377=AXIS2_PLACEMENT_3D('',#531,#428,#429);
#378=AXIS2_PLACEMENT_3D('',#532,#430,#431);
#379=AXIS2_PLACEMENT_3D('',#535,#434,#435);
#380=AXIS2_PLACEMENT_3D('',#542,#440,#441);
#381=AXIS2_PLACEMENT_3D('',#544,#443,#444);
#382=AXIS2_PLACEMENT_3D('',#545,#445,#446);
#383=AXIS2_PLACEMENT_3D('',#551,#450,#451);
#384=AXIS2_PLACEMENT_3D('',#555,#454,#455);
#385=AXIS2_PLACEMENT_3D('',#559,#458,#459);
#386=AXIS2_PLACEMENT_3D('',#561,#461,#462);
#387=AXIS2_PLACEMENT_3D('',#562,#463,#464);
#388=AXIS2_PLACEMENT_3D('',#568,#468,#469);
#389=AXIS2_PLACEMENT_3D('',#572,#472,#473);
#390=AXIS2_PLACEMENT_3D('',#576,#476,#477);
#391=AXIS2_PLACEMENT_3D('',#578,#479,#480);
#392=DIRECTION('',(0.,0.,1.));
#393=DIRECTION('',(1.,0.,0.));
#394=DIRECTION('',(0.,0.,1.));
#395=DIRECTION('',(1.,0.,0.));
#396=DIRECTION('',(-1.,0.,0.));
#397=DIRECTION('',(0.,-1.,0.));
#398=DIRECTION('',(-1.,0.,0.));
#399=DIRECTION('',(0.,-1.,0.));
#400=DIRECTION('',(0.,-1.,0.));
#401=DIRECTION('',(1.,0.,0.));
#402=DIRECTION('',(0.,-1.,0.));
#403=DIRECTION('',(-1.,0.,0.));
#404=DIRECTION('',(0.,1.,0.));
#405=DIRECTION('',(1.,0.,0.));
#406=DIRECTION('',(0.,-1.,0.));
#407=DIRECTION('',(-1.,0.,0.));
#408=DIRECTION('',(0.,1.,0.));
#409=DIRECTION('',(0.,0.,1.));
#410=DIRECTION('',(0.,0.,-1.));
#411=DIRECTION('',(-1.,0.,0.));
#412=DIRECTION('',(0.,0.,-1.));
#413=DIRECTION('',(1.,0.,0.));
#414=DIRECTION('',(1.,0.,0.));
#415=DIRECTION('',(0.,0.,-1.));
#416=DIRECTION('',(0.,-1.,0.));
#417=DIRECTION('',(0.,0.,-1.));
#418=DIRECTION('',(0.,-1.,0.));
#419=DIRECTION('',(0.,1.,0.));
#420=DIRECTION('',(0.,0.,1.));
#421=DIRECTION('',(1.,0.,0.));
#422=DIRECTION('',(0.,0.,-1.));
#423=DIRECTION('',(1.,0.,0.));
#424=DIRECTION('',(1.,0.,0.));
#425=DIRECTION('',(0.,0.,-1.));
#426=DIRECTION('',(0.,1.,0.));
#427=DIRECTION('',(0.,-1.,0.));
#428=DIRECTION('',(0.,0.,1.));
#429=DIRECTION('',(1.,0.,0.));
#430=DIRECTION('',(0.894427190999916,0.,0.447213595499959));
#431=DIRECTION('',(0.,-1.,0.));
#432=DIRECTION('',(0.408248290463864,0.408248290463864,-0.816496580927726));
#433=DIRECTION('',(-0.408248290463864,0.408248290463864,0.816496580927726));
#434=DIRECTION('',(0.,0.894427190999916,-0.447213595499959));
#435=DIRECTION('',(-1.,0.,0.));
#436=DIRECTION('',(0.,-0.447213595499959,-0.894427190999916));
#437=DIRECTION('',(-1.,0.,0.));
#438=DIRECTION('',(0.,-0.447213595499959,-0.894427190999916));
#439=DIRECTION('',(-0.408248290463864,-0.408248290463864,-0.816496580927726));
#440=DIRECTION('',(0.,0.894427190999916,0.447213595499959));
#441=DIRECTION('',(1.,0.,0.));
#442=DIRECTION('',(-0.408248290463864,0.408248290463864,-0.816496580927726));
#443=DIRECTION('',(0.894427190999916,0.,-0.447213595499959));
#444=DIRECTION('',(0.,1.,0.));
#445=DIRECTION('',(1.,0.,0.));
#446=DIRECTION('',(0.,0.,-1.));
#447=DIRECTION('',(0.,0.,-1.));
#448=DIRECTION('',(0.,-1.,0.));
#449=DIRECTION('',(0.,0.,-1.));
#450=DIRECTION('',(0.,-1.,0.));
#451=DIRECTION('',(0.,0.,-1.));
#452=DIRECTION('',(-1.,0.,0.));
#453=DIRECTION('',(0.,0.,-1.));
#454=DIRECTION('',(1.,0.,0.));
#455=DIRECTION('',(0.,0.,-1.));
#456=DIRECTION('',(0.,-1.,0.));
#457=DIRECTION('',(0.,0.,-1.));
#458=DIRECTION('',(0.,-1.,0.));
#459=DIRECTION('',(0.,0.,-1.));
#460=DIRECTION('',(-1.,0.,0.));
#461=DIRECTION('',(0.,0.,1.));
#462=DIRECTION('',(1.,0.,0.));
#463=DIRECTION('',(1.,0.,0.));
#464=DIRECTION('',(0.,0.,-1.));
#465=DIRECTION('',(0.,0.,-1.));
#466=DIRECTION('',(0.,-1.,0.));
#467=DIRECTION('',(0.,0.,-1.));
#468=DIRECTION('',(0.,-1.,0.));
#469=DIRECTION('',(0.,0.,-1.));
#470=DIRECTION('',(-1.,0.,0.));
#471=DIRECTION('',(0.,0.,-1.));
#472=DIRECTION('',(1.,0.,0.));
#473=DIRECTION('',(0.,0.,-1.));
#474=DIRECTION('',(0.,-1.,0.));
#475=DIRECTION('',(0.,0.,-1.));
#476=DIRECTION('',(0.,-1.,0.));
#477=DIRECTION('',(0.,0.,-1.));
#478=DIRECTION('',(-1.,0.,0.));
#479=DIRECTION('',(0.,0.,1.));
#480=DIRECTION('',(1.,0.,0.));
#481=CARTESIAN_POINT('',(0.,0.,0.));
#482=CARTESIAN_POINT('',(-0.0616736940725536,-0.0688652148425581,0.));
#483=CARTESIAN_POINT('',(-0.68926485709103,-0.357742573993422,0.));
#484=CARTESIAN_POINT('',(-0.68826485709103,-0.357742573993422,0.));
#485=CARTESIAN_POINT('',(-0.69026485709103,-0.357742573993422,0.));
#486=CARTESIAN_POINT('',(-0.68826485709103,-0.357242573993422,0.));
#487=CARTESIAN_POINT('',(-0.68826485709103,-0.356742573993422,0.));
#488=CARTESIAN_POINT('',(-0.68926485709103,-0.356742573993422,0.));
#489=CARTESIAN_POINT('',(-0.69026485709103,-0.356742573993422,0.));
#490=CARTESIAN_POINT('',(-0.69026485709103,-0.357242573993422,0.));
#491=CARTESIAN_POINT('',(-0.68826485709103,-0.353388910586037,0.));
#492=CARTESIAN_POINT('',(-0.68826485709103,-0.351440946762904,0.));
#493=CARTESIAN_POINT('',(-0.68826485709103,-0.355412627033758,0.));
#494=CARTESIAN_POINT('',(-0.68501485709103,-0.351440946762904,0.));
#495=CARTESIAN_POINT('',(-0.68601485709103,-0.351440946762904,0.));
#496=CARTESIAN_POINT('',(-0.68601485709103,-0.359240946762904,0.));
#497=CARTESIAN_POINT('',(-0.68601485709103,-0.358240946762904,0.));
#498=CARTESIAN_POINT('',(-0.0616736940725536,-0.358240946762904,0.));
#499=CARTESIAN_POINT('',(-0.69281485709103,-0.358240946762904,0.));
#500=CARTESIAN_POINT('',(-0.69281485709103,-0.0688652148425581,0.));
#501=CARTESIAN_POINT('',(-0.69281485709103,-0.351440946762904,0.));
#502=CARTESIAN_POINT('',(-0.68501485709103,-0.351440946762904,0.));
#503=CARTESIAN_POINT('',(-0.69026485709103,-0.351440946762904,0.));
#504=CARTESIAN_POINT('',(-0.69026485709103,-0.353388910586037,0.));
#505=CARTESIAN_POINT('',(-0.69026485709103,-0.355412627033758,0.));
#506=CARTESIAN_POINT('',(-0.68926485709103,-0.355412627033758,0.));
#507=CARTESIAN_POINT('',(-0.68941485709103,-0.350440946762904,0.01));
#508=CARTESIAN_POINT('',(-0.68501485709103,-0.350440946762904,0.01));
#509=CARTESIAN_POINT('',(-0.68501485709103,-0.350440946762904,0.01));
#510=CARTESIAN_POINT('',(-0.68501485709103,-0.350440946762904,0.002));
#511=CARTESIAN_POINT('',(-0.69381485709103,-0.350440946762904,0.002));
#512=CARTESIAN_POINT('',(-0.69381485709103,-0.350440946762904,0.002));
#513=CARTESIAN_POINT('',(-0.69381485709103,-0.350440946762904,0.01));
#514=CARTESIAN_POINT('',(-0.69381485709103,-0.350440946762904,0.01));
#515=CARTESIAN_POINT('',(-0.68941485709103,-0.350440946762904,0.01));
#516=CARTESIAN_POINT('',(-0.69381485709103,-0.354840946762904,0.01));
#517=CARTESIAN_POINT('',(-0.69381485709103,-0.354840946762904,0.002));
#518=CARTESIAN_POINT('',(-0.69381485709103,-0.359240946762904,0.002));
#519=CARTESIAN_POINT('',(-0.69381485709103,-0.359240946762904,0.01));
#520=CARTESIAN_POINT('',(-0.69381485709103,-0.359240946762904,0.01));
#521=CARTESIAN_POINT('',(-0.69381485709103,-0.354840946762904,0.01));
#522=CARTESIAN_POINT('',(-0.68941485709103,-0.359240946762904,0.01));
#523=CARTESIAN_POINT('',(-0.68941485709103,-0.359240946762904,0.002));
#524=CARTESIAN_POINT('',(-0.68501485709103,-0.359240946762904,0.002));
#525=CARTESIAN_POINT('',(-0.68501485709103,-0.359240946762904,0.01));
#526=CARTESIAN_POINT('',(-0.68501485709103,-0.359240946762904,0.01));
#527=CARTESIAN_POINT('',(-0.68941485709103,-0.359240946762904,0.01));
#528=CARTESIAN_POINT('',(-0.68501485709103,-0.354840946762904,0.01));
#529=CARTESIAN_POINT('',(-0.68501485709103,-0.350440946762904,0.002));
#530=CARTESIAN_POINT('',(-0.68501485709103,-0.354840946762904,0.01));
#531=CARTESIAN_POINT('',(-0.0616736940725536,-0.0688652148425581,0.01));
#532=CARTESIAN_POINT('',(-0.69381485709103,-0.354840946762904,0.002));
#533=CARTESIAN_POINT('',(-0.693081523757697,-0.35850761342957,0.000533333333333346));
#534=CARTESIAN_POINT('',(-0.693081523757697,-0.351174280096238,0.000533333333333328));
#535=CARTESIAN_POINT('',(-0.0616736940725536,-0.351440946762904,0.));
#536=CARTESIAN_POINT('',(-0.68826485709103,-0.351440946762904,0.));
#537=CARTESIAN_POINT('',(-0.68826485709103,-0.351365194138316,0.000151505249177397));
#538=CARTESIAN_POINT('',(-0.0616736940725536,-0.351365194138316,0.000151505249177397));
#539=CARTESIAN_POINT('',(-0.69026485709103,-0.351365194138316,0.000151505249177398));
#540=CARTESIAN_POINT('',(-0.69026485709103,-0.351440946762904,0.));
#541=CARTESIAN_POINT('',(-0.581957996587951,-0.247384086259824,0.208113721006159));
#542=CARTESIAN_POINT('',(-0.68941485709103,-0.359240946762904,0.002));
#543=CARTESIAN_POINT('',(-0.685748190424364,-0.35850761342957,0.00053333333333331));
#544=CARTESIAN_POINT('',(-0.68601485709103,-0.0688652148425581,0.));
#545=CARTESIAN_POINT('',(-0.68826485709103,-0.353388910586037,0.001));
#546=CARTESIAN_POINT('',(-0.68826485709103,-0.355412627033758,0.001));
#547=CARTESIAN_POINT('',(-0.68826485709103,-0.355412627033758,0.001));
#548=CARTESIAN_POINT('',(-0.68826485709103,-0.353388910586037,0.001));
#549=CARTESIAN_POINT('',(-0.68826485709103,-0.351365194138316,0.001));
#550=CARTESIAN_POINT('',(-0.68826485709103,-0.351365194138316,0.001));
#551=CARTESIAN_POINT('',(-0.68926485709103,-0.351365194138316,0.001));
#552=CARTESIAN_POINT('',(-0.68926485709103,-0.351365194138316,0.001));
#553=CARTESIAN_POINT('',(-0.69026485709103,-0.351365194138316,0.001));
#554=CARTESIAN_POINT('',(-0.69026485709103,-0.351365194138316,0.001));
#555=CARTESIAN_POINT('',(-0.69026485709103,-0.353388910586037,0.001));
#556=CARTESIAN_POINT('',(-0.69026485709103,-0.353388910586037,0.001));
#557=CARTESIAN_POINT('',(-0.69026485709103,-0.355412627033758,0.001));
#558=CARTESIAN_POINT('',(-0.69026485709103,-0.355412627033758,0.001));
#559=CARTESIAN_POINT('',(-0.68926485709103,-0.355412627033758,0.001));
#560=CARTESIAN_POINT('',(-0.68926485709103,-0.355412627033758,0.001));
#561=CARTESIAN_POINT('',(-0.0616736940725536,-0.0688652148425581,0.001));
#562=CARTESIAN_POINT('',(-0.68826485709103,-0.357242573993422,0.001));
#563=CARTESIAN_POINT('',(-0.68826485709103,-0.357742573993422,0.001));
#564=CARTESIAN_POINT('',(-0.68826485709103,-0.357742573993422,0.001));
#565=CARTESIAN_POINT('',(-0.68826485709103,-0.357242573993422,0.001));
#566=CARTESIAN_POINT('',(-0.68826485709103,-0.356742573993422,0.001));
#567=CARTESIAN_POINT('',(-0.68826485709103,-0.356742573993422,0.001));
#568=CARTESIAN_POINT('',(-0.68926485709103,-0.356742573993422,0.001));
#569=CARTESIAN_POINT('',(-0.68926485709103,-0.356742573993422,0.001));
#570=CARTESIAN_POINT('',(-0.69026485709103,-0.356742573993422,0.001));
#571=CARTESIAN_POINT('',(-0.69026485709103,-0.356742573993422,0.001));
#572=CARTESIAN_POINT('',(-0.69026485709103,-0.357242573993422,0.001));
#573=CARTESIAN_POINT('',(-0.69026485709103,-0.357242573993422,0.001));
#574=CARTESIAN_POINT('',(-0.69026485709103,-0.357742573993422,0.001));
#575=CARTESIAN_POINT('',(-0.69026485709103,-0.357742573993422,0.001));
#576=CARTESIAN_POINT('',(-0.68926485709103,-0.357742573993422,0.001));
#577=CARTESIAN_POINT('',(-0.68926485709103,-0.357742573993422,0.001));
#578=CARTESIAN_POINT('',(-0.0616736940725536,-0.0688652148425581,0.001));
#579=MECHANICAL_DESIGN_GEOMETRIC_PRESENTATION_REPRESENTATION('',(#360),
#580);
#580=(
GEOMETRIC_REPRESENTATION_CONTEXT(3)
GLOBAL_UNCERTAINTY_ASSIGNED_CONTEXT((#581))
GLOBAL_UNIT_ASSIGNED_CONTEXT((#584,#583,#582))
REPRESENTATION_CONTEXT('Action Button','TOP_LEVEL_ASSEMBLY_PART')
);
#581=UNCERTAINTY_MEASURE_WITH_UNIT(LENGTH_MEASURE(1.E-8),#584,
'DISTANCE_ACCURACY_VALUE','Maximum Tolerance applied to model');
#582=(
NAMED_UNIT(*)
SI_UNIT($,.STERADIAN.)
SOLID_ANGLE_UNIT()
);
#583=(
NAMED_UNIT(*)
PLANE_ANGLE_UNIT()
SI_UNIT($,.RADIAN.)
);
#584=(
LENGTH_UNIT()
NAMED_UNIT(*)
SI_UNIT($,.METRE.)
);
#585=PRODUCT_DEFINITION_SHAPE('','',#586);
#586=PRODUCT_DEFINITION('','',#588,#587);
#587=PRODUCT_DEFINITION_CONTEXT('',#594,'design');
#588=PRODUCT_DEFINITION_FORMATION_WITH_SPECIFIED_SOURCE('','',#590,
 .NOT_KNOWN.);
#589=PRODUCT_RELATED_PRODUCT_CATEGORY('','',(#590));
#590=PRODUCT('Action Button','Action Button','Action Button',(#592));
#591=PRODUCT_CATEGORY('','');
#592=PRODUCT_CONTEXT('',#594,'mechanical');
#593=APPLICATION_PROTOCOL_DEFINITION('international standard',
'ap242_managed_model_based_3d_engineering',2020,#594);
#594=APPLICATION_CONTEXT('managed model based 3d engineering');
ENDSEC;
END-ISO-10303-21;
