ISO-10303-21;
HEADER;
/* Generated by software containing ST-Developer
 * from STEP Tools, Inc. (www.steptools.com) 
 */
/* OPTION: using custom renumber hook */

FILE_DESCRIPTION(
/* description */ ('STEP AP242 Edition 2',
'CAx-IF Rec.Pracs.---Representation and Presentation of Product Manufa
cturing Information (PMI)---4.0---2014-10-13',
'CAx-IF Rec.Pracs.---3D Tessellated Geometry---0.4---2014-09-14','2;1',
'CAx-IF Rec.Pracs.---User Defined Attributes---1.5---2016-08-15'),
/* implementation_level */ '2;1');

FILE_NAME(
/* name */ 'Part Studio 1 - BMat4',
/* time_stamp */ '2026-05-20T23:41:51Z',
/* author */ (''),
/* organization */ (''),
/* preprocessor_version */ 'ST-DEVELOPER v20',
/* originating_system */ 'ONSHAPE BY PTC INC, 1.215',
/* authorisation */ '  ');

FILE_SCHEMA (('AP242_MANAGED_MODEL_BASED_3D_ENGINEERING_MIM_LF { 1 0 10303 442 3 1 4 }'));
ENDSEC;

DATA;
#10=SHAPE_REPRESENTATION_RELATIONSHIP('','',#1488,#11);
#11=ADVANCED_BREP_SHAPE_REPRESENTATION('',(#1486),#2351);
#12=CYLINDRICAL_SURFACE('',#1556,0.005);
#13=CYLINDRICAL_SURFACE('',#1558,0.005);
#14=CIRCLE('',#1541,0.005);
#15=CIRCLE('',#1543,0.005);
#16=CIRCLE('',#1557,0.005);
#17=CIRCLE('',#1559,0.005);
#18=ORIENTED_EDGE('',*,*,#414,.T.);
#19=ORIENTED_EDGE('',*,*,#415,.T.);
#20=ORIENTED_EDGE('',*,*,#416,.F.);
#21=ORIENTED_EDGE('',*,*,#417,.F.);
#22=ORIENTED_EDGE('',*,*,#418,.T.);
#23=ORIENTED_EDGE('',*,*,#419,.T.);
#24=ORIENTED_EDGE('',*,*,#420,.F.);
#25=ORIENTED_EDGE('',*,*,#421,.F.);
#26=ORIENTED_EDGE('',*,*,#422,.F.);
#27=ORIENTED_EDGE('',*,*,#423,.F.);
#28=ORIENTED_EDGE('',*,*,#424,.F.);
#29=ORIENTED_EDGE('',*,*,#425,.F.);
#30=ORIENTED_EDGE('',*,*,#426,.F.);
#31=ORIENTED_EDGE('',*,*,#427,.T.);
#32=ORIENTED_EDGE('',*,*,#428,.F.);
#33=ORIENTED_EDGE('',*,*,#429,.T.);
#34=ORIENTED_EDGE('',*,*,#430,.T.);
#35=ORIENTED_EDGE('',*,*,#431,.F.);
#36=ORIENTED_EDGE('',*,*,#432,.F.);
#37=ORIENTED_EDGE('',*,*,#433,.T.);
#38=ORIENTED_EDGE('',*,*,#434,.F.);
#39=ORIENTED_EDGE('',*,*,#435,.T.);
#40=ORIENTED_EDGE('',*,*,#436,.F.);
#41=ORIENTED_EDGE('',*,*,#437,.T.);
#42=ORIENTED_EDGE('',*,*,#438,.F.);
#43=ORIENTED_EDGE('',*,*,#439,.T.);
#44=ORIENTED_EDGE('',*,*,#440,.T.);
#45=ORIENTED_EDGE('',*,*,#441,.F.);
#46=ORIENTED_EDGE('',*,*,#442,.F.);
#47=ORIENTED_EDGE('',*,*,#443,.T.);
#48=ORIENTED_EDGE('',*,*,#444,.F.);
#49=ORIENTED_EDGE('',*,*,#445,.T.);
#50=ORIENTED_EDGE('',*,*,#446,.F.);
#51=ORIENTED_EDGE('',*,*,#447,.T.);
#52=ORIENTED_EDGE('',*,*,#448,.T.);
#53=ORIENTED_EDGE('',*,*,#449,.F.);
#54=ORIENTED_EDGE('',*,*,#450,.F.);
#55=ORIENTED_EDGE('',*,*,#451,.T.);
#56=ORIENTED_EDGE('',*,*,#452,.T.);
#57=ORIENTED_EDGE('',*,*,#453,.F.);
#58=ORIENTED_EDGE('',*,*,#418,.F.);
#59=ORIENTED_EDGE('',*,*,#454,.F.);
#60=ORIENTED_EDGE('',*,*,#428,.T.);
#61=ORIENTED_EDGE('',*,*,#455,.T.);
#62=ORIENTED_EDGE('',*,*,#421,.T.);
#63=ORIENTED_EDGE('',*,*,#456,.F.);
#64=ORIENTED_EDGE('',*,*,#429,.F.);
#65=ORIENTED_EDGE('',*,*,#454,.T.);
#66=ORIENTED_EDGE('',*,*,#420,.T.);
#67=ORIENTED_EDGE('',*,*,#457,.F.);
#68=ORIENTED_EDGE('',*,*,#430,.F.);
#69=ORIENTED_EDGE('',*,*,#456,.T.);
#70=ORIENTED_EDGE('',*,*,#419,.F.);
#71=ORIENTED_EDGE('',*,*,#455,.F.);
#72=ORIENTED_EDGE('',*,*,#431,.T.);
#73=ORIENTED_EDGE('',*,*,#457,.T.);
#74=ORIENTED_EDGE('',*,*,#422,.T.);
#75=ORIENTED_EDGE('',*,*,#458,.F.);
#76=ORIENTED_EDGE('',*,*,#459,.F.);
#77=ORIENTED_EDGE('',*,*,#460,.T.);
#78=ORIENTED_EDGE('',*,*,#427,.F.);
#79=ORIENTED_EDGE('',*,*,#461,.F.);
#80=ORIENTED_EDGE('',*,*,#462,.T.);
#81=ORIENTED_EDGE('',*,*,#458,.T.);
#82=ORIENTED_EDGE('',*,*,#426,.T.);
#83=ORIENTED_EDGE('',*,*,#463,.F.);
#84=ORIENTED_EDGE('',*,*,#464,.F.);
#85=ORIENTED_EDGE('',*,*,#461,.T.);
#86=ORIENTED_EDGE('',*,*,#425,.T.);
#87=ORIENTED_EDGE('',*,*,#465,.F.);
#88=ORIENTED_EDGE('',*,*,#466,.F.);
#89=ORIENTED_EDGE('',*,*,#463,.T.);
#90=ORIENTED_EDGE('',*,*,#424,.T.);
#91=ORIENTED_EDGE('',*,*,#467,.F.);
#92=ORIENTED_EDGE('',*,*,#468,.F.);
#93=ORIENTED_EDGE('',*,*,#465,.T.);
#94=ORIENTED_EDGE('',*,*,#423,.T.);
#95=ORIENTED_EDGE('',*,*,#460,.F.);
#96=ORIENTED_EDGE('',*,*,#469,.F.);
#97=ORIENTED_EDGE('',*,*,#467,.T.);
#98=ORIENTED_EDGE('',*,*,#459,.T.);
#99=ORIENTED_EDGE('',*,*,#462,.F.);
#100=ORIENTED_EDGE('',*,*,#464,.T.);
#101=ORIENTED_EDGE('',*,*,#466,.T.);
#102=ORIENTED_EDGE('',*,*,#468,.T.);
#103=ORIENTED_EDGE('',*,*,#469,.T.);
#104=ORIENTED_EDGE('',*,*,#433,.F.);
#105=ORIENTED_EDGE('',*,*,#470,.F.);
#106=ORIENTED_EDGE('',*,*,#471,.T.);
#107=ORIENTED_EDGE('',*,*,#472,.T.);
#108=ORIENTED_EDGE('',*,*,#432,.T.);
#109=ORIENTED_EDGE('',*,*,#473,.F.);
#110=ORIENTED_EDGE('',*,*,#474,.F.);
#111=ORIENTED_EDGE('',*,*,#470,.T.);
#112=ORIENTED_EDGE('',*,*,#437,.F.);
#113=ORIENTED_EDGE('',*,*,#475,.F.);
#114=ORIENTED_EDGE('',*,*,#476,.T.);
#115=ORIENTED_EDGE('',*,*,#473,.T.);
#116=ORIENTED_EDGE('',*,*,#436,.T.);
#117=ORIENTED_EDGE('',*,*,#477,.F.);
#118=ORIENTED_EDGE('',*,*,#478,.F.);
#119=ORIENTED_EDGE('',*,*,#475,.T.);
#120=ORIENTED_EDGE('',*,*,#435,.F.);
#121=ORIENTED_EDGE('',*,*,#479,.F.);
#122=ORIENTED_EDGE('',*,*,#480,.T.);
#123=ORIENTED_EDGE('',*,*,#477,.T.);
#124=ORIENTED_EDGE('',*,*,#434,.T.);
#125=ORIENTED_EDGE('',*,*,#472,.F.);
#126=ORIENTED_EDGE('',*,*,#481,.F.);
#127=ORIENTED_EDGE('',*,*,#479,.T.);
#128=ORIENTED_EDGE('',*,*,#471,.F.);
#129=ORIENTED_EDGE('',*,*,#474,.T.);
#130=ORIENTED_EDGE('',*,*,#476,.F.);
#131=ORIENTED_EDGE('',*,*,#478,.T.);
#132=ORIENTED_EDGE('',*,*,#480,.F.);
#133=ORIENTED_EDGE('',*,*,#481,.T.);
#134=ORIENTED_EDGE('',*,*,#439,.F.);
#135=ORIENTED_EDGE('',*,*,#482,.F.);
#136=ORIENTED_EDGE('',*,*,#483,.T.);
#137=ORIENTED_EDGE('',*,*,#484,.T.);
#138=ORIENTED_EDGE('',*,*,#438,.T.);
#139=ORIENTED_EDGE('',*,*,#485,.F.);
#140=ORIENTED_EDGE('',*,*,#486,.F.);
#141=ORIENTED_EDGE('',*,*,#482,.T.);
#142=ORIENTED_EDGE('',*,*,#443,.F.);
#143=ORIENTED_EDGE('',*,*,#487,.F.);
#144=ORIENTED_EDGE('',*,*,#488,.T.);
#145=ORIENTED_EDGE('',*,*,#485,.T.);
#146=ORIENTED_EDGE('',*,*,#442,.T.);
#147=ORIENTED_EDGE('',*,*,#489,.F.);
#148=ORIENTED_EDGE('',*,*,#490,.F.);
#149=ORIENTED_EDGE('',*,*,#487,.T.);
#150=ORIENTED_EDGE('',*,*,#441,.T.);
#151=ORIENTED_EDGE('',*,*,#491,.F.);
#152=ORIENTED_EDGE('',*,*,#492,.F.);
#153=ORIENTED_EDGE('',*,*,#489,.T.);
#154=ORIENTED_EDGE('',*,*,#440,.F.);
#155=ORIENTED_EDGE('',*,*,#484,.F.);
#156=ORIENTED_EDGE('',*,*,#493,.T.);
#157=ORIENTED_EDGE('',*,*,#491,.T.);
#158=ORIENTED_EDGE('',*,*,#483,.F.);
#159=ORIENTED_EDGE('',*,*,#486,.T.);
#160=ORIENTED_EDGE('',*,*,#488,.F.);
#161=ORIENTED_EDGE('',*,*,#490,.T.);
#162=ORIENTED_EDGE('',*,*,#492,.T.);
#163=ORIENTED_EDGE('',*,*,#493,.F.);
#164=ORIENTED_EDGE('',*,*,#445,.F.);
#165=ORIENTED_EDGE('',*,*,#494,.F.);
#166=ORIENTED_EDGE('',*,*,#495,.T.);
#167=ORIENTED_EDGE('',*,*,#496,.T.);
#168=ORIENTED_EDGE('',*,*,#444,.T.);
#169=ORIENTED_EDGE('',*,*,#497,.F.);
#170=ORIENTED_EDGE('',*,*,#498,.F.);
#171=ORIENTED_EDGE('',*,*,#494,.T.);
#172=ORIENTED_EDGE('',*,*,#449,.T.);
#173=ORIENTED_EDGE('',*,*,#499,.F.);
#174=ORIENTED_EDGE('',*,*,#500,.F.);
#175=ORIENTED_EDGE('',*,*,#497,.T.);
#176=ORIENTED_EDGE('',*,*,#448,.F.);
#177=ORIENTED_EDGE('',*,*,#501,.F.);
#178=ORIENTED_EDGE('',*,*,#502,.T.);
#179=ORIENTED_EDGE('',*,*,#499,.T.);
#180=ORIENTED_EDGE('',*,*,#447,.F.);
#181=ORIENTED_EDGE('',*,*,#503,.F.);
#182=ORIENTED_EDGE('',*,*,#504,.T.);
#183=ORIENTED_EDGE('',*,*,#501,.T.);
#184=ORIENTED_EDGE('',*,*,#446,.T.);
#185=ORIENTED_EDGE('',*,*,#496,.F.);
#186=ORIENTED_EDGE('',*,*,#505,.F.);
#187=ORIENTED_EDGE('',*,*,#503,.T.);
#188=ORIENTED_EDGE('',*,*,#495,.F.);
#189=ORIENTED_EDGE('',*,*,#498,.T.);
#190=ORIENTED_EDGE('',*,*,#500,.T.);
#191=ORIENTED_EDGE('',*,*,#502,.F.);
#192=ORIENTED_EDGE('',*,*,#504,.F.);
#193=ORIENTED_EDGE('',*,*,#505,.T.);
#194=ORIENTED_EDGE('',*,*,#451,.F.);
#195=ORIENTED_EDGE('',*,*,#506,.F.);
#196=ORIENTED_EDGE('',*,*,#507,.T.);
#197=ORIENTED_EDGE('',*,*,#508,.T.);
#198=ORIENTED_EDGE('',*,*,#450,.T.);
#199=ORIENTED_EDGE('',*,*,#509,.F.);
#200=ORIENTED_EDGE('',*,*,#510,.F.);
#201=ORIENTED_EDGE('',*,*,#506,.T.);
#202=ORIENTED_EDGE('',*,*,#453,.T.);
#203=ORIENTED_EDGE('',*,*,#511,.F.);
#204=ORIENTED_EDGE('',*,*,#512,.F.);
#205=ORIENTED_EDGE('',*,*,#509,.T.);
#206=ORIENTED_EDGE('',*,*,#452,.F.);
#207=ORIENTED_EDGE('',*,*,#508,.F.);
#208=ORIENTED_EDGE('',*,*,#513,.T.);
#209=ORIENTED_EDGE('',*,*,#511,.T.);
#210=ORIENTED_EDGE('',*,*,#507,.F.);
#211=ORIENTED_EDGE('',*,*,#510,.T.);
#212=ORIENTED_EDGE('',*,*,#512,.T.);
#213=ORIENTED_EDGE('',*,*,#513,.F.);
#214=ORIENTED_EDGE('',*,*,#414,.F.);
#215=ORIENTED_EDGE('',*,*,#514,.F.);
#216=ORIENTED_EDGE('',*,*,#515,.T.);
#217=ORIENTED_EDGE('',*,*,#516,.T.);
#218=ORIENTED_EDGE('',*,*,#417,.T.);
#219=ORIENTED_EDGE('',*,*,#517,.F.);
#220=ORIENTED_EDGE('',*,*,#518,.F.);
#221=ORIENTED_EDGE('',*,*,#514,.T.);
#222=ORIENTED_EDGE('',*,*,#416,.T.);
#223=ORIENTED_EDGE('',*,*,#519,.F.);
#224=ORIENTED_EDGE('',*,*,#520,.F.);
#225=ORIENTED_EDGE('',*,*,#517,.T.);
#226=ORIENTED_EDGE('',*,*,#521,.F.);
#227=ORIENTED_EDGE('',*,*,#522,.F.);
#228=ORIENTED_EDGE('',*,*,#523,.T.);
#229=ORIENTED_EDGE('',*,*,#524,.T.);
#230=ORIENTED_EDGE('',*,*,#525,.T.);
#231=ORIENTED_EDGE('',*,*,#526,.F.);
#232=ORIENTED_EDGE('',*,*,#527,.F.);
#233=ORIENTED_EDGE('',*,*,#522,.T.);
#234=ORIENTED_EDGE('',*,*,#528,.T.);
#235=ORIENTED_EDGE('',*,*,#529,.F.);
#236=ORIENTED_EDGE('',*,*,#530,.F.);
#237=ORIENTED_EDGE('',*,*,#526,.T.);
#238=ORIENTED_EDGE('',*,*,#531,.F.);
#239=ORIENTED_EDGE('',*,*,#524,.F.);
#240=ORIENTED_EDGE('',*,*,#532,.T.);
#241=ORIENTED_EDGE('',*,*,#529,.T.);
#242=ORIENTED_EDGE('',*,*,#415,.F.);
#243=ORIENTED_EDGE('',*,*,#516,.F.);
#244=ORIENTED_EDGE('',*,*,#533,.T.);
#245=ORIENTED_EDGE('',*,*,#519,.T.);
#246=ORIENTED_EDGE('',*,*,#523,.F.);
#247=ORIENTED_EDGE('',*,*,#527,.T.);
#248=ORIENTED_EDGE('',*,*,#530,.T.);
#249=ORIENTED_EDGE('',*,*,#532,.F.);
#250=ORIENTED_EDGE('',*,*,#515,.F.);
#251=ORIENTED_EDGE('',*,*,#518,.T.);
#252=ORIENTED_EDGE('',*,*,#520,.T.);
#253=ORIENTED_EDGE('',*,*,#533,.F.);
#254=ORIENTED_EDGE('',*,*,#534,.T.);
#255=ORIENTED_EDGE('',*,*,#535,.F.);
#256=ORIENTED_EDGE('',*,*,#536,.F.);
#257=ORIENTED_EDGE('',*,*,#537,.T.);
#258=ORIENTED_EDGE('',*,*,#538,.F.);
#259=ORIENTED_EDGE('',*,*,#539,.F.);
#260=ORIENTED_EDGE('',*,*,#540,.T.);
#261=ORIENTED_EDGE('',*,*,#541,.T.);
#262=ORIENTED_EDGE('',*,*,#542,.T.);
#263=ORIENTED_EDGE('',*,*,#543,.T.);
#264=ORIENTED_EDGE('',*,*,#544,.T.);
#265=ORIENTED_EDGE('',*,*,#541,.F.);
#266=ORIENTED_EDGE('',*,*,#545,.F.);
#267=ORIENTED_EDGE('',*,*,#546,.T.);
#268=ORIENTED_EDGE('',*,*,#547,.F.);
#269=ORIENTED_EDGE('',*,*,#548,.T.);
#270=ORIENTED_EDGE('',*,*,#538,.T.);
#271=ORIENTED_EDGE('',*,*,#544,.F.);
#272=ORIENTED_EDGE('',*,*,#548,.F.);
#273=ORIENTED_EDGE('',*,*,#549,.F.);
#274=ORIENTED_EDGE('',*,*,#550,.T.);
#275=ORIENTED_EDGE('',*,*,#539,.T.);
#276=ORIENTED_EDGE('',*,*,#551,.T.);
#277=ORIENTED_EDGE('',*,*,#537,.F.);
#278=ORIENTED_EDGE('',*,*,#552,.F.);
#279=ORIENTED_EDGE('',*,*,#553,.T.);
#280=ORIENTED_EDGE('',*,*,#554,.T.);
#281=ORIENTED_EDGE('',*,*,#555,.T.);
#282=ORIENTED_EDGE('',*,*,#534,.F.);
#283=ORIENTED_EDGE('',*,*,#551,.F.);
#284=ORIENTED_EDGE('',*,*,#555,.F.);
#285=ORIENTED_EDGE('',*,*,#556,.F.);
#286=ORIENTED_EDGE('',*,*,#557,.T.);
#287=ORIENTED_EDGE('',*,*,#535,.T.);
#288=ORIENTED_EDGE('',*,*,#558,.T.);
#289=ORIENTED_EDGE('',*,*,#559,.T.);
#290=ORIENTED_EDGE('',*,*,#560,.F.);
#291=ORIENTED_EDGE('',*,*,#561,.F.);
#292=ORIENTED_EDGE('',*,*,#558,.F.);
#293=ORIENTED_EDGE('',*,*,#562,.F.);
#294=ORIENTED_EDGE('',*,*,#563,.T.);
#295=ORIENTED_EDGE('',*,*,#564,.T.);
#296=ORIENTED_EDGE('',*,*,#565,.F.);
#297=ORIENTED_EDGE('',*,*,#566,.T.);
#298=ORIENTED_EDGE('',*,*,#552,.T.);
#299=ORIENTED_EDGE('',*,*,#536,.T.);
#300=ORIENTED_EDGE('',*,*,#557,.F.);
#301=ORIENTED_EDGE('',*,*,#567,.T.);
#302=ORIENTED_EDGE('',*,*,#568,.T.);
#303=ORIENTED_EDGE('',*,*,#569,.F.);
#304=ORIENTED_EDGE('',*,*,#570,.T.);
#305=ORIENTED_EDGE('',*,*,#571,.T.);
#306=ORIENTED_EDGE('',*,*,#572,.T.);
#307=ORIENTED_EDGE('',*,*,#573,.F.);
#308=ORIENTED_EDGE('',*,*,#563,.F.);
#309=ORIENTED_EDGE('',*,*,#572,.F.);
#310=ORIENTED_EDGE('',*,*,#574,.F.);
#311=ORIENTED_EDGE('',*,*,#575,.T.);
#312=ORIENTED_EDGE('',*,*,#576,.T.);
#313=ORIENTED_EDGE('',*,*,#577,.F.);
#314=ORIENTED_EDGE('',*,*,#575,.F.);
#315=ORIENTED_EDGE('',*,*,#578,.T.);
#316=ORIENTED_EDGE('',*,*,#579,.T.);
#317=ORIENTED_EDGE('',*,*,#580,.F.);
#318=ORIENTED_EDGE('',*,*,#545,.T.);
#319=ORIENTED_EDGE('',*,*,#540,.F.);
#320=ORIENTED_EDGE('',*,*,#550,.F.);
#321=ORIENTED_EDGE('',*,*,#542,.F.);
#322=ORIENTED_EDGE('',*,*,#581,.T.);
#323=ORIENTED_EDGE('',*,*,#543,.F.);
#324=ORIENTED_EDGE('',*,*,#582,.T.);
#325=ORIENTED_EDGE('',*,*,#573,.T.);
#326=ORIENTED_EDGE('',*,*,#576,.F.);
#327=ORIENTED_EDGE('',*,*,#577,.T.);
#328=ORIENTED_EDGE('',*,*,#549,.T.);
#329=ORIENTED_EDGE('',*,*,#547,.T.);
#330=ORIENTED_EDGE('',*,*,#546,.F.);
#331=ORIENTED_EDGE('',*,*,#580,.T.);
#332=ORIENTED_EDGE('',*,*,#583,.T.);
#333=ORIENTED_EDGE('',*,*,#584,.T.);
#334=ORIENTED_EDGE('',*,*,#585,.T.);
#335=ORIENTED_EDGE('',*,*,#559,.F.);
#336=ORIENTED_EDGE('',*,*,#564,.F.);
#337=ORIENTED_EDGE('',*,*,#586,.F.);
#338=ORIENTED_EDGE('',*,*,#587,.T.);
#339=ORIENTED_EDGE('',*,*,#560,.T.);
#340=ORIENTED_EDGE('',*,*,#585,.F.);
#341=ORIENTED_EDGE('',*,*,#588,.F.);
#342=ORIENTED_EDGE('',*,*,#570,.F.);
#343=ORIENTED_EDGE('',*,*,#562,.T.);
#344=ORIENTED_EDGE('',*,*,#561,.T.);
#345=ORIENTED_EDGE('',*,*,#587,.F.);
#346=ORIENTED_EDGE('',*,*,#589,.F.);
#347=ORIENTED_EDGE('',*,*,#590,.F.);
#348=ORIENTED_EDGE('',*,*,#567,.F.);
#349=ORIENTED_EDGE('',*,*,#556,.T.);
#350=ORIENTED_EDGE('',*,*,#554,.F.);
#351=ORIENTED_EDGE('',*,*,#553,.F.);
#352=ORIENTED_EDGE('',*,*,#566,.F.);
#353=ORIENTED_EDGE('',*,*,#591,.T.);
#354=ORIENTED_EDGE('',*,*,#592,.F.);
#355=ORIENTED_EDGE('',*,*,#568,.F.);
#356=ORIENTED_EDGE('',*,*,#590,.T.);
#357=ORIENTED_EDGE('',*,*,#593,.F.);
#358=ORIENTED_EDGE('',*,*,#594,.F.);
#359=ORIENTED_EDGE('',*,*,#569,.T.);
#360=ORIENTED_EDGE('',*,*,#592,.T.);
#361=ORIENTED_EDGE('',*,*,#595,.F.);
#362=ORIENTED_EDGE('',*,*,#571,.F.);
#363=ORIENTED_EDGE('',*,*,#588,.T.);
#364=ORIENTED_EDGE('',*,*,#565,.T.);
#365=ORIENTED_EDGE('',*,*,#594,.T.);
#366=ORIENTED_EDGE('',*,*,#596,.T.);
#367=ORIENTED_EDGE('',*,*,#597,.T.);
#368=ORIENTED_EDGE('',*,*,#598,.F.);
#369=ORIENTED_EDGE('',*,*,#578,.F.);
#370=ORIENTED_EDGE('',*,*,#574,.T.);
#371=ORIENTED_EDGE('',*,*,#595,.T.);
#372=ORIENTED_EDGE('',*,*,#599,.T.);
#373=ORIENTED_EDGE('',*,*,#583,.F.);
#374=ORIENTED_EDGE('',*,*,#579,.F.);
#375=ORIENTED_EDGE('',*,*,#598,.T.);
#376=ORIENTED_EDGE('',*,*,#600,.T.);
#377=ORIENTED_EDGE('',*,*,#601,.T.);
#378=ORIENTED_EDGE('',*,*,#602,.F.);
#379=ORIENTED_EDGE('',*,*,#603,.F.);
#380=ORIENTED_EDGE('',*,*,#521,.T.);
#381=ORIENTED_EDGE('',*,*,#531,.T.);
#382=ORIENTED_EDGE('',*,*,#528,.F.);
#383=ORIENTED_EDGE('',*,*,#525,.F.);
#384=ORIENTED_EDGE('',*,*,#599,.F.);
#385=ORIENTED_EDGE('',*,*,#597,.F.);
#386=ORIENTED_EDGE('',*,*,#596,.F.);
#387=ORIENTED_EDGE('',*,*,#593,.T.);
#388=ORIENTED_EDGE('',*,*,#591,.F.);
#389=ORIENTED_EDGE('',*,*,#589,.T.);
#390=ORIENTED_EDGE('',*,*,#586,.T.);
#391=ORIENTED_EDGE('',*,*,#584,.F.);
#392=ORIENTED_EDGE('',*,*,#582,.F.);
#393=ORIENTED_EDGE('',*,*,#581,.F.);
#394=ORIENTED_EDGE('',*,*,#600,.F.);
#395=ORIENTED_EDGE('',*,*,#604,.F.);
#396=ORIENTED_EDGE('',*,*,#605,.T.);
#397=ORIENTED_EDGE('',*,*,#606,.T.);
#398=ORIENTED_EDGE('',*,*,#603,.T.);
#399=ORIENTED_EDGE('',*,*,#607,.F.);
#400=ORIENTED_EDGE('',*,*,#608,.F.);
#401=ORIENTED_EDGE('',*,*,#604,.T.);
#402=ORIENTED_EDGE('',*,*,#602,.T.);
#403=ORIENTED_EDGE('',*,*,#609,.F.);
#404=ORIENTED_EDGE('',*,*,#610,.F.);
#405=ORIENTED_EDGE('',*,*,#607,.T.);
#406=ORIENTED_EDGE('',*,*,#601,.F.);
#407=ORIENTED_EDGE('',*,*,#606,.F.);
#408=ORIENTED_EDGE('',*,*,#611,.T.);
#409=ORIENTED_EDGE('',*,*,#609,.T.);
#410=ORIENTED_EDGE('',*,*,#605,.F.);
#411=ORIENTED_EDGE('',*,*,#608,.T.);
#412=ORIENTED_EDGE('',*,*,#610,.T.);
#413=ORIENTED_EDGE('',*,*,#611,.F.);
#414=EDGE_CURVE('',#612,#613,#745,.T.);
#415=EDGE_CURVE('',#613,#614,#746,.T.);
#416=EDGE_CURVE('',#615,#614,#747,.T.);
#417=EDGE_CURVE('',#612,#615,#748,.T.);
#418=EDGE_CURVE('',#616,#617,#749,.T.);
#419=EDGE_CURVE('',#617,#618,#750,.T.);
#420=EDGE_CURVE('',#619,#618,#751,.T.);
#421=EDGE_CURVE('',#616,#619,#752,.T.);
#422=EDGE_CURVE('',#620,#621,#753,.T.);
#423=EDGE_CURVE('',#622,#620,#754,.T.);
#424=EDGE_CURVE('',#623,#622,#755,.T.);
#425=EDGE_CURVE('',#624,#623,#756,.T.);
#426=EDGE_CURVE('',#625,#624,#757,.T.);
#427=EDGE_CURVE('',#625,#621,#758,.T.);
#428=EDGE_CURVE('',#626,#627,#759,.T.);
#429=EDGE_CURVE('',#626,#628,#760,.T.);
#430=EDGE_CURVE('',#628,#629,#761,.T.);
#431=EDGE_CURVE('',#627,#629,#762,.T.);
#432=EDGE_CURVE('',#630,#631,#763,.T.);
#433=EDGE_CURVE('',#630,#632,#764,.T.);
#434=EDGE_CURVE('',#633,#632,#765,.T.);
#435=EDGE_CURVE('',#633,#634,#766,.T.);
#436=EDGE_CURVE('',#635,#634,#767,.T.);
#437=EDGE_CURVE('',#635,#631,#768,.T.);
#438=EDGE_CURVE('',#636,#637,#769,.T.);
#439=EDGE_CURVE('',#636,#638,#770,.T.);
#440=EDGE_CURVE('',#638,#639,#771,.T.);
#441=EDGE_CURVE('',#640,#639,#772,.T.);
#442=EDGE_CURVE('',#641,#640,#773,.T.);
#443=EDGE_CURVE('',#641,#637,#774,.T.);
#444=EDGE_CURVE('',#642,#643,#775,.T.);
#445=EDGE_CURVE('',#642,#644,#776,.T.);
#446=EDGE_CURVE('',#645,#644,#777,.T.);
#447=EDGE_CURVE('',#645,#646,#778,.T.);
#448=EDGE_CURVE('',#646,#647,#779,.T.);
#449=EDGE_CURVE('',#643,#647,#780,.T.);
#450=EDGE_CURVE('',#648,#649,#781,.T.);
#451=EDGE_CURVE('',#648,#650,#782,.T.);
#452=EDGE_CURVE('',#650,#651,#783,.T.);
#453=EDGE_CURVE('',#649,#651,#784,.T.);
#454=EDGE_CURVE('',#626,#616,#785,.T.);
#455=EDGE_CURVE('',#627,#617,#786,.T.);
#456=EDGE_CURVE('',#628,#619,#787,.T.);
#457=EDGE_CURVE('',#629,#618,#788,.T.);
#458=EDGE_CURVE('',#652,#621,#789,.T.);
#459=EDGE_CURVE('',#653,#652,#790,.T.);
#460=EDGE_CURVE('',#653,#620,#791,.T.);
#461=EDGE_CURVE('',#654,#625,#792,.T.);
#462=EDGE_CURVE('',#654,#652,#793,.T.);
#463=EDGE_CURVE('',#655,#624,#794,.T.);
#464=EDGE_CURVE('',#654,#655,#795,.T.);
#465=EDGE_CURVE('',#656,#623,#796,.T.);
#466=EDGE_CURVE('',#655,#656,#797,.T.);
#467=EDGE_CURVE('',#657,#622,#798,.T.);
#468=EDGE_CURVE('',#656,#657,#799,.T.);
#469=EDGE_CURVE('',#657,#653,#800,.T.);
#470=EDGE_CURVE('',#658,#630,#801,.T.);
#471=EDGE_CURVE('',#658,#659,#802,.T.);
#472=EDGE_CURVE('',#659,#632,#803,.T.);
#473=EDGE_CURVE('',#660,#631,#804,.T.);
#474=EDGE_CURVE('',#658,#660,#805,.T.);
#475=EDGE_CURVE('',#661,#635,#806,.T.);
#476=EDGE_CURVE('',#661,#660,#807,.T.);
#477=EDGE_CURVE('',#662,#634,#808,.T.);
#478=EDGE_CURVE('',#661,#662,#809,.T.);
#479=EDGE_CURVE('',#663,#633,#810,.T.);
#480=EDGE_CURVE('',#663,#662,#811,.T.);
#481=EDGE_CURVE('',#663,#659,#812,.T.);
#482=EDGE_CURVE('',#664,#636,#813,.T.);
#483=EDGE_CURVE('',#664,#665,#814,.T.);
#484=EDGE_CURVE('',#665,#638,#815,.T.);
#485=EDGE_CURVE('',#666,#637,#816,.T.);
#486=EDGE_CURVE('',#664,#666,#817,.T.);
#487=EDGE_CURVE('',#667,#641,#818,.T.);
#488=EDGE_CURVE('',#667,#666,#819,.T.);
#489=EDGE_CURVE('',#668,#640,#820,.T.);
#490=EDGE_CURVE('',#667,#668,#821,.T.);
#491=EDGE_CURVE('',#669,#639,#822,.T.);
#492=EDGE_CURVE('',#668,#669,#823,.T.);
#493=EDGE_CURVE('',#665,#669,#824,.T.);
#494=EDGE_CURVE('',#670,#642,#825,.T.);
#495=EDGE_CURVE('',#670,#671,#826,.T.);
#496=EDGE_CURVE('',#671,#644,#827,.T.);
#497=EDGE_CURVE('',#672,#643,#828,.T.);
#498=EDGE_CURVE('',#670,#672,#829,.T.);
#499=EDGE_CURVE('',#673,#647,#830,.T.);
#500=EDGE_CURVE('',#672,#673,#831,.T.);
#501=EDGE_CURVE('',#674,#646,#832,.T.);
#502=EDGE_CURVE('',#674,#673,#833,.T.);
#503=EDGE_CURVE('',#675,#645,#834,.T.);
#504=EDGE_CURVE('',#675,#674,#835,.T.);
#505=EDGE_CURVE('',#675,#671,#836,.T.);
#506=EDGE_CURVE('',#676,#648,#837,.T.);
#507=EDGE_CURVE('',#676,#677,#838,.T.);
#508=EDGE_CURVE('',#677,#650,#839,.T.);
#509=EDGE_CURVE('',#678,#649,#840,.T.);
#510=EDGE_CURVE('',#676,#678,#841,.T.);
#511=EDGE_CURVE('',#679,#651,#842,.T.);
#512=EDGE_CURVE('',#678,#679,#843,.T.);
#513=EDGE_CURVE('',#677,#679,#844,.T.);
#514=EDGE_CURVE('',#680,#612,#845,.T.);
#515=EDGE_CURVE('',#680,#681,#846,.T.);
#516=EDGE_CURVE('',#681,#613,#847,.T.);
#517=EDGE_CURVE('',#682,#615,#848,.T.);
#518=EDGE_CURVE('',#680,#682,#849,.T.);
#519=EDGE_CURVE('',#683,#614,#850,.T.);
#520=EDGE_CURVE('',#682,#683,#851,.T.);
#521=EDGE_CURVE('',#684,#685,#852,.T.);
#522=EDGE_CURVE('',#686,#684,#853,.T.);
#523=EDGE_CURVE('',#686,#687,#854,.T.);
#524=EDGE_CURVE('',#687,#685,#855,.T.);
#525=EDGE_CURVE('',#684,#688,#856,.T.);
#526=EDGE_CURVE('',#689,#688,#857,.T.);
#527=EDGE_CURVE('',#686,#689,#858,.T.);
#528=EDGE_CURVE('',#688,#690,#859,.T.);
#529=EDGE_CURVE('',#691,#690,#860,.T.);
#530=EDGE_CURVE('',#689,#691,#861,.T.);
#531=EDGE_CURVE('',#685,#690,#862,.T.);
#532=EDGE_CURVE('',#687,#691,#863,.T.);
#533=EDGE_CURVE('',#681,#683,#864,.T.);
#534=EDGE_CURVE('',#692,#693,#865,.T.);
#535=EDGE_CURVE('',#694,#693,#866,.T.);
#536=EDGE_CURVE('',#695,#694,#867,.T.);
#537=EDGE_CURVE('',#695,#692,#868,.T.);
#538=EDGE_CURVE('',#696,#697,#869,.T.);
#539=EDGE_CURVE('',#698,#696,#870,.T.);
#540=EDGE_CURVE('',#698,#699,#871,.T.);
#541=EDGE_CURVE('',#699,#697,#872,.T.);
#542=EDGE_CURVE('',#700,#700,#14,.T.);
#543=EDGE_CURVE('',#701,#701,#15,.T.);
#544=EDGE_CURVE('',#702,#697,#873,.T.);
#545=EDGE_CURVE('',#703,#699,#874,.T.);
#546=EDGE_CURVE('',#703,#702,#875,.T.);
#547=EDGE_CURVE('',#704,#702,#876,.T.);
#548=EDGE_CURVE('',#704,#696,#877,.T.);
#549=EDGE_CURVE('',#705,#704,#878,.T.);
#550=EDGE_CURVE('',#705,#698,#879,.T.);
#551=EDGE_CURVE('',#706,#692,#880,.T.);
#552=EDGE_CURVE('',#707,#695,#881,.T.);
#553=EDGE_CURVE('',#707,#706,#882,.T.);
#554=EDGE_CURVE('',#706,#708,#883,.T.);
#555=EDGE_CURVE('',#708,#693,#884,.T.);
#556=EDGE_CURVE('',#709,#708,#885,.T.);
#557=EDGE_CURVE('',#709,#694,#886,.T.);
#558=EDGE_CURVE('',#710,#711,#887,.T.);
#559=EDGE_CURVE('',#711,#712,#888,.T.);
#560=EDGE_CURVE('',#713,#712,#889,.T.);
#561=EDGE_CURVE('',#710,#713,#890,.T.);
#562=EDGE_CURVE('',#714,#710,#891,.T.);
#563=EDGE_CURVE('',#714,#715,#892,.T.);
#564=EDGE_CURVE('',#715,#711,#893,.T.);
#565=EDGE_CURVE('',#716,#717,#894,.T.);
#566=EDGE_CURVE('',#716,#707,#895,.T.);
#567=EDGE_CURVE('',#709,#718,#896,.T.);
#568=EDGE_CURVE('',#718,#719,#897,.T.);
#569=EDGE_CURVE('',#717,#719,#898,.T.);
#570=EDGE_CURVE('',#714,#720,#899,.T.);
#571=EDGE_CURVE('',#720,#721,#900,.T.);
#572=EDGE_CURVE('',#721,#722,#901,.T.);
#573=EDGE_CURVE('',#715,#722,#902,.T.);
#574=EDGE_CURVE('',#723,#721,#903,.T.);
#575=EDGE_CURVE('',#723,#724,#904,.T.);
#576=EDGE_CURVE('',#724,#722,#905,.T.);
#577=EDGE_CURVE('',#724,#705,#906,.T.);
#578=EDGE_CURVE('',#723,#725,#907,.T.);
#579=EDGE_CURVE('',#725,#726,#908,.T.);
#580=EDGE_CURVE('',#703,#726,#909,.T.);
#581=EDGE_CURVE('',#727,#727,#16,.T.);
#582=EDGE_CURVE('',#728,#728,#17,.T.);
#583=EDGE_CURVE('',#726,#729,#910,.T.);
#584=EDGE_CURVE('',#729,#730,#911,.T.);
#585=EDGE_CURVE('',#730,#712,#912,.T.);
#586=EDGE_CURVE('',#731,#730,#913,.T.);
#587=EDGE_CURVE('',#731,#713,#914,.T.);
#588=EDGE_CURVE('',#720,#716,#915,.T.);
#589=EDGE_CURVE('',#732,#731,#916,.T.);
#590=EDGE_CURVE('',#718,#732,#917,.T.);
#591=EDGE_CURVE('',#732,#733,#918,.T.);
#592=EDGE_CURVE('',#719,#733,#919,.T.);
#593=EDGE_CURVE('',#734,#733,#920,.T.);
#594=EDGE_CURVE('',#717,#734,#921,.T.);
#595=EDGE_CURVE('',#721,#735,#922,.T.);
#596=EDGE_CURVE('',#734,#735,#923,.T.);
#597=EDGE_CURVE('',#735,#736,#924,.T.);
#598=EDGE_CURVE('',#725,#736,#925,.T.);
#599=EDGE_CURVE('',#736,#729,#926,.T.);
#600=EDGE_CURVE('',#737,#738,#927,.T.);
#601=EDGE_CURVE('',#738,#739,#928,.T.);
#602=EDGE_CURVE('',#740,#739,#929,.T.);
#603=EDGE_CURVE('',#737,#740,#930,.T.);
#604=EDGE_CURVE('',#741,#737,#931,.T.);
#605=EDGE_CURVE('',#741,#742,#932,.T.);
#606=EDGE_CURVE('',#742,#738,#933,.T.);
#607=EDGE_CURVE('',#743,#740,#934,.T.);
#608=EDGE_CURVE('',#741,#743,#935,.T.);
#609=EDGE_CURVE('',#744,#739,#936,.T.);
#610=EDGE_CURVE('',#743,#744,#937,.T.);
#611=EDGE_CURVE('',#742,#744,#938,.T.);
#612=VERTEX_POINT('',#1941);
#613=VERTEX_POINT('',#1942);
#614=VERTEX_POINT('',#1944);
#615=VERTEX_POINT('',#1946);
#616=VERTEX_POINT('',#1949);
#617=VERTEX_POINT('',#1950);
#618=VERTEX_POINT('',#1952);
#619=VERTEX_POINT('',#1954);
#620=VERTEX_POINT('',#1958);
#621=VERTEX_POINT('',#1959);
#622=VERTEX_POINT('',#1961);
#623=VERTEX_POINT('',#1963);
#624=VERTEX_POINT('',#1965);
#625=VERTEX_POINT('',#1967);
#626=VERTEX_POINT('',#1970);
#627=VERTEX_POINT('',#1971);
#628=VERTEX_POINT('',#1973);
#629=VERTEX_POINT('',#1975);
#630=VERTEX_POINT('',#1978);
#631=VERTEX_POINT('',#1979);
#632=VERTEX_POINT('',#1981);
#633=VERTEX_POINT('',#1983);
#634=VERTEX_POINT('',#1985);
#635=VERTEX_POINT('',#1987);
#636=VERTEX_POINT('',#1990);
#637=VERTEX_POINT('',#1991);
#638=VERTEX_POINT('',#1993);
#639=VERTEX_POINT('',#1995);
#640=VERTEX_POINT('',#1997);
#641=VERTEX_POINT('',#1999);
#642=VERTEX_POINT('',#2002);
#643=VERTEX_POINT('',#2003);
#644=VERTEX_POINT('',#2005);
#645=VERTEX_POINT('',#2007);
#646=VERTEX_POINT('',#2009);
#647=VERTEX_POINT('',#2011);
#648=VERTEX_POINT('',#2014);
#649=VERTEX_POINT('',#2015);
#650=VERTEX_POINT('',#2017);
#651=VERTEX_POINT('',#2019);
#652=VERTEX_POINT('',#2031);
#653=VERTEX_POINT('',#2033);
#654=VERTEX_POINT('',#2037);
#655=VERTEX_POINT('',#2041);
#656=VERTEX_POINT('',#2045);
#657=VERTEX_POINT('',#2049);
#658=VERTEX_POINT('',#2056);
#659=VERTEX_POINT('',#2058);
#660=VERTEX_POINT('',#2062);
#661=VERTEX_POINT('',#2066);
#662=VERTEX_POINT('',#2070);
#663=VERTEX_POINT('',#2074);
#664=VERTEX_POINT('',#2081);
#665=VERTEX_POINT('',#2083);
#666=VERTEX_POINT('',#2087);
#667=VERTEX_POINT('',#2091);
#668=VERTEX_POINT('',#2095);
#669=VERTEX_POINT('',#2099);
#670=VERTEX_POINT('',#2106);
#671=VERTEX_POINT('',#2108);
#672=VERTEX_POINT('',#2112);
#673=VERTEX_POINT('',#2116);
#674=VERTEX_POINT('',#2120);
#675=VERTEX_POINT('',#2124);
#676=VERTEX_POINT('',#2131);
#677=VERTEX_POINT('',#2133);
#678=VERTEX_POINT('',#2137);
#679=VERTEX_POINT('',#2141);
#680=VERTEX_POINT('',#2148);
#681=VERTEX_POINT('',#2150);
#682=VERTEX_POINT('',#2154);
#683=VERTEX_POINT('',#2158);
#684=VERTEX_POINT('',#2162);
#685=VERTEX_POINT('',#2163);
#686=VERTEX_POINT('',#2165);
#687=VERTEX_POINT('',#2167);
#688=VERTEX_POINT('',#2171);
#689=VERTEX_POINT('',#2173);
#690=VERTEX_POINT('',#2177);
#691=VERTEX_POINT('',#2179);
#692=VERTEX_POINT('',#2189);
#693=VERTEX_POINT('',#2190);
#694=VERTEX_POINT('',#2192);
#695=VERTEX_POINT('',#2194);
#696=VERTEX_POINT('',#2198);
#697=VERTEX_POINT('',#2199);
#698=VERTEX_POINT('',#2201);
#699=VERTEX_POINT('',#2203);
#700=VERTEX_POINT('',#2207);
#701=VERTEX_POINT('',#2210);
#702=VERTEX_POINT('',#2213);
#703=VERTEX_POINT('',#2215);
#704=VERTEX_POINT('',#2219);
#705=VERTEX_POINT('',#2223);
#706=VERTEX_POINT('',#2227);
#707=VERTEX_POINT('',#2229);
#708=VERTEX_POINT('',#2233);
#709=VERTEX_POINT('',#2237);
#710=VERTEX_POINT('',#2241);
#711=VERTEX_POINT('',#2242);
#712=VERTEX_POINT('',#2244);
#713=VERTEX_POINT('',#2246);
#714=VERTEX_POINT('',#2250);
#715=VERTEX_POINT('',#2252);
#716=VERTEX_POINT('',#2256);
#717=VERTEX_POINT('',#2257);
#718=VERTEX_POINT('',#2260);
#719=VERTEX_POINT('',#2262);
#720=VERTEX_POINT('',#2266);
#721=VERTEX_POINT('',#2268);
#722=VERTEX_POINT('',#2270);
#723=VERTEX_POINT('',#2274);
#724=VERTEX_POINT('',#2276);
#725=VERTEX_POINT('',#2281);
#726=VERTEX_POINT('',#2283);
#727=VERTEX_POINT('',#2287);
#728=VERTEX_POINT('',#2290);
#729=VERTEX_POINT('',#2293);
#730=VERTEX_POINT('',#2295);
#731=VERTEX_POINT('',#2299);
#732=VERTEX_POINT('',#2304);
#733=VERTEX_POINT('',#2308);
#734=VERTEX_POINT('',#2312);
#735=VERTEX_POINT('',#2316);
#736=VERTEX_POINT('',#2320);
#737=VERTEX_POINT('',#2326);
#738=VERTEX_POINT('',#2327);
#739=VERTEX_POINT('',#2329);
#740=VERTEX_POINT('',#2331);
#741=VERTEX_POINT('',#2335);
#742=VERTEX_POINT('',#2337);
#743=VERTEX_POINT('',#2341);
#744=VERTEX_POINT('',#2345);
#745=LINE('',#1940,#939);
#746=LINE('',#1943,#940);
#747=LINE('',#1945,#941);
#748=LINE('',#1947,#942);
#749=LINE('',#1948,#943);
#750=LINE('',#1951,#944);
#751=LINE('',#1953,#945);
#752=LINE('',#1955,#946);
#753=LINE('',#1957,#947);
#754=LINE('',#1960,#948);
#755=LINE('',#1962,#949);
#756=LINE('',#1964,#950);
#757=LINE('',#1966,#951);
#758=LINE('',#1968,#952);
#759=LINE('',#1969,#953);
#760=LINE('',#1972,#954);
#761=LINE('',#1974,#955);
#762=LINE('',#1976,#956);
#763=LINE('',#1977,#957);
#764=LINE('',#1980,#958);
#765=LINE('',#1982,#959);
#766=LINE('',#1984,#960);
#767=LINE('',#1986,#961);
#768=LINE('',#1988,#962);
#769=LINE('',#1989,#963);
#770=LINE('',#1992,#964);
#771=LINE('',#1994,#965);
#772=LINE('',#1996,#966);
#773=LINE('',#1998,#967);
#774=LINE('',#2000,#968);
#775=LINE('',#2001,#969);
#776=LINE('',#2004,#970);
#777=LINE('',#2006,#971);
#778=LINE('',#2008,#972);
#779=LINE('',#2010,#973);
#780=LINE('',#2012,#974);
#781=LINE('',#2013,#975);
#782=LINE('',#2016,#976);
#783=LINE('',#2018,#977);
#784=LINE('',#2020,#978);
#785=LINE('',#2022,#979);
#786=LINE('',#2023,#980);
#787=LINE('',#2025,#981);
#788=LINE('',#2027,#982);
#789=LINE('',#2030,#983);
#790=LINE('',#2032,#984);
#791=LINE('',#2034,#985);
#792=LINE('',#2036,#986);
#793=LINE('',#2038,#987);
#794=LINE('',#2040,#988);
#795=LINE('',#2042,#989);
#796=LINE('',#2044,#990);
#797=LINE('',#2046,#991);
#798=LINE('',#2048,#992);
#799=LINE('',#2050,#993);
#800=LINE('',#2052,#994);
#801=LINE('',#2055,#995);
#802=LINE('',#2057,#996);
#803=LINE('',#2059,#997);
#804=LINE('',#2061,#998);
#805=LINE('',#2063,#999);
#806=LINE('',#2065,#1000);
#807=LINE('',#2067,#1001);
#808=LINE('',#2069,#1002);
#809=LINE('',#2071,#1003);
#810=LINE('',#2073,#1004);
#811=LINE('',#2075,#1005);
#812=LINE('',#2077,#1006);
#813=LINE('',#2080,#1007);
#814=LINE('',#2082,#1008);
#815=LINE('',#2084,#1009);
#816=LINE('',#2086,#1010);
#817=LINE('',#2088,#1011);
#818=LINE('',#2090,#1012);
#819=LINE('',#2092,#1013);
#820=LINE('',#2094,#1014);
#821=LINE('',#2096,#1015);
#822=LINE('',#2098,#1016);
#823=LINE('',#2100,#1017);
#824=LINE('',#2102,#1018);
#825=LINE('',#2105,#1019);
#826=LINE('',#2107,#1020);
#827=LINE('',#2109,#1021);
#828=LINE('',#2111,#1022);
#829=LINE('',#2113,#1023);
#830=LINE('',#2115,#1024);
#831=LINE('',#2117,#1025);
#832=LINE('',#2119,#1026);
#833=LINE('',#2121,#1027);
#834=LINE('',#2123,#1028);
#835=LINE('',#2125,#1029);
#836=LINE('',#2127,#1030);
#837=LINE('',#2130,#1031);
#838=LINE('',#2132,#1032);
#839=LINE('',#2134,#1033);
#840=LINE('',#2136,#1034);
#841=LINE('',#2138,#1035);
#842=LINE('',#2140,#1036);
#843=LINE('',#2142,#1037);
#844=LINE('',#2144,#1038);
#845=LINE('',#2147,#1039);
#846=LINE('',#2149,#1040);
#847=LINE('',#2151,#1041);
#848=LINE('',#2153,#1042);
#849=LINE('',#2155,#1043);
#850=LINE('',#2157,#1044);
#851=LINE('',#2159,#1045);
#852=LINE('',#2161,#1046);
#853=LINE('',#2164,#1047);
#854=LINE('',#2166,#1048);
#855=LINE('',#2168,#1049);
#856=LINE('',#2170,#1050);
#857=LINE('',#2172,#1051);
#858=LINE('',#2174,#1052);
#859=LINE('',#2176,#1053);
#860=LINE('',#2178,#1054);
#861=LINE('',#2180,#1055);
#862=LINE('',#2182,#1056);
#863=LINE('',#2183,#1057);
#864=LINE('',#2185,#1058);
#865=LINE('',#2188,#1059);
#866=LINE('',#2191,#1060);
#867=LINE('',#2193,#1061);
#868=LINE('',#2195,#1062);
#869=LINE('',#2197,#1063);
#870=LINE('',#2200,#1064);
#871=LINE('',#2202,#1065);
#872=LINE('',#2204,#1066);
#873=LINE('',#2212,#1067);
#874=LINE('',#2214,#1068);
#875=LINE('',#2216,#1069);
#876=LINE('',#2218,#1070);
#877=LINE('',#2220,#1071);
#878=LINE('',#2222,#1072);
#879=LINE('',#2224,#1073);
#880=LINE('',#2226,#1074);
#881=LINE('',#2228,#1075);
#882=LINE('',#2230,#1076);
#883=LINE('',#2232,#1077);
#884=LINE('',#2234,#1078);
#885=LINE('',#2236,#1079);
#886=LINE('',#2238,#1080);
#887=LINE('',#2240,#1081);
#888=LINE('',#2243,#1082);
#889=LINE('',#2245,#1083);
#890=LINE('',#2247,#1084);
#891=LINE('',#2249,#1085);
#892=LINE('',#2251,#1086);
#893=LINE('',#2253,#1087);
#894=LINE('',#2255,#1088);
#895=LINE('',#2258,#1089);
#896=LINE('',#2259,#1090);
#897=LINE('',#2261,#1091);
#898=LINE('',#2263,#1092);
#899=LINE('',#2265,#1093);
#900=LINE('',#2267,#1094);
#901=LINE('',#2269,#1095);
#902=LINE('',#2271,#1096);
#903=LINE('',#2273,#1097);
#904=LINE('',#2275,#1098);
#905=LINE('',#2277,#1099);
#906=LINE('',#2279,#1100);
#907=LINE('',#2280,#1101);
#908=LINE('',#2282,#1102);
#909=LINE('',#2284,#1103);
#910=LINE('',#2292,#1104);
#911=LINE('',#2294,#1105);
#912=LINE('',#2296,#1106);
#913=LINE('',#2298,#1107);
#914=LINE('',#2300,#1108);
#915=LINE('',#2302,#1109);
#916=LINE('',#2303,#1110);
#917=LINE('',#2305,#1111);
#918=LINE('',#2307,#1112);
#919=LINE('',#2309,#1113);
#920=LINE('',#2311,#1114);
#921=LINE('',#2313,#1115);
#922=LINE('',#2315,#1116);
#923=LINE('',#2317,#1117);
#924=LINE('',#2319,#1118);
#925=LINE('',#2321,#1119);
#926=LINE('',#2323,#1120);
#927=LINE('',#2325,#1121);
#928=LINE('',#2328,#1122);
#929=LINE('',#2330,#1123);
#930=LINE('',#2332,#1124);
#931=LINE('',#2334,#1125);
#932=LINE('',#2336,#1126);
#933=LINE('',#2338,#1127);
#934=LINE('',#2340,#1128);
#935=LINE('',#2342,#1129);
#936=LINE('',#2344,#1130);
#937=LINE('',#2346,#1131);
#938=LINE('',#2348,#1132);
#939=VECTOR('',#1578,1.);
#940=VECTOR('',#1579,1.);
#941=VECTOR('',#1580,1.);
#942=VECTOR('',#1581,1.);
#943=VECTOR('',#1582,1.);
#944=VECTOR('',#1583,1.);
#945=VECTOR('',#1584,1.);
#946=VECTOR('',#1585,1.);
#947=VECTOR('',#1588,1.);
#948=VECTOR('',#1589,1.);
#949=VECTOR('',#1590,1.);
#950=VECTOR('',#1591,1.);
#951=VECTOR('',#1592,1.);
#952=VECTOR('',#1593,1.);
#953=VECTOR('',#1594,1.);
#954=VECTOR('',#1595,1.);
#955=VECTOR('',#1596,1.);
#956=VECTOR('',#1597,1.);
#957=VECTOR('',#1598,1.);
#958=VECTOR('',#1599,1.);
#959=VECTOR('',#1600,1.);
#960=VECTOR('',#1601,1.);
#961=VECTOR('',#1602,1.);
#962=VECTOR('',#1603,1.);
#963=VECTOR('',#1604,1.);
#964=VECTOR('',#1605,1.);
#965=VECTOR('',#1606,1.);
#966=VECTOR('',#1607,1.);
#967=VECTOR('',#1608,1.);
#968=VECTOR('',#1609,1.);
#969=VECTOR('',#1610,1.);
#970=VECTOR('',#1611,1.);
#971=VECTOR('',#1612,1.);
#972=VECTOR('',#1613,1.);
#973=VECTOR('',#1614,1.);
#974=VECTOR('',#1615,1.);
#975=VECTOR('',#1616,1.);
#976=VECTOR('',#1617,1.);
#977=VECTOR('',#1618,1.);
#978=VECTOR('',#1619,1.);
#979=VECTOR('',#1622,1.);
#980=VECTOR('',#1623,1.);
#981=VECTOR('',#1626,1.);
#982=VECTOR('',#1629,1.);
#983=VECTOR('',#1634,1.);
#984=VECTOR('',#1635,1.);
#985=VECTOR('',#1636,1.);
#986=VECTOR('',#1639,1.);
#987=VECTOR('',#1640,1.);
#988=VECTOR('',#1643,1.);
#989=VECTOR('',#1644,1.);
#990=VECTOR('',#1647,1.);
#991=VECTOR('',#1648,1.);
#992=VECTOR('',#1651,1.);
#993=VECTOR('',#1652,1.);
#994=VECTOR('',#1655,1.);
#995=VECTOR('',#1660,1.);
#996=VECTOR('',#1661,1.);
#997=VECTOR('',#1662,1.);
#998=VECTOR('',#1665,1.);
#999=VECTOR('',#1666,1.);
#1000=VECTOR('',#1669,1.);
#1001=VECTOR('',#1670,1.);
#1002=VECTOR('',#1673,1.);
#1003=VECTOR('',#1674,1.);
#1004=VECTOR('',#1677,1.);
#1005=VECTOR('',#1678,1.);
#1006=VECTOR('',#1681,1.);
#1007=VECTOR('',#1686,1.);
#1008=VECTOR('',#1687,1.);
#1009=VECTOR('',#1688,1.);
#1010=VECTOR('',#1691,1.);
#1011=VECTOR('',#1692,1.);
#1012=VECTOR('',#1695,1.);
#1013=VECTOR('',#1696,1.);
#1014=VECTOR('',#1699,1.);
#1015=VECTOR('',#1700,1.);
#1016=VECTOR('',#1703,1.);
#1017=VECTOR('',#1704,1.);
#1018=VECTOR('',#1707,1.);
#1019=VECTOR('',#1712,1.);
#1020=VECTOR('',#1713,1.);
#1021=VECTOR('',#1714,1.);
#1022=VECTOR('',#1717,1.);
#1023=VECTOR('',#1718,1.);
#1024=VECTOR('',#1721,1.);
#1025=VECTOR('',#1722,1.);
#1026=VECTOR('',#1725,1.);
#1027=VECTOR('',#1726,1.);
#1028=VECTOR('',#1729,1.);
#1029=VECTOR('',#1730,1.);
#1030=VECTOR('',#1733,1.);
#1031=VECTOR('',#1738,1.);
#1032=VECTOR('',#1739,1.);
#1033=VECTOR('',#1740,1.);
#1034=VECTOR('',#1743,1.);
#1035=VECTOR('',#1744,1.);
#1036=VECTOR('',#1747,1.);
#1037=VECTOR('',#1748,1.);
#1038=VECTOR('',#1751,1.);
#1039=VECTOR('',#1756,1.);
#1040=VECTOR('',#1757,1.);
#1041=VECTOR('',#1758,1.);
#1042=VECTOR('',#1761,1.);
#1043=VECTOR('',#1762,1.);
#1044=VECTOR('',#1765,1.);
#1045=VECTOR('',#1766,1.);
#1046=VECTOR('',#1769,1.);
#1047=VECTOR('',#1770,1.);
#1048=VECTOR('',#1771,1.);
#1049=VECTOR('',#1772,1.);
#1050=VECTOR('',#1775,1.);
#1051=VECTOR('',#1776,1.);
#1052=VECTOR('',#1777,1.);
#1053=VECTOR('',#1780,1.);
#1054=VECTOR('',#1781,1.);
#1055=VECTOR('',#1782,1.);
#1056=VECTOR('',#1785,1.);
#1057=VECTOR('',#1786,1.);
#1058=VECTOR('',#1789,1.);
#1059=VECTOR('',#1794,1.);
#1060=VECTOR('',#1795,1.);
#1061=VECTOR('',#1796,1.);
#1062=VECTOR('',#1797,1.);
#1063=VECTOR('',#1800,1.);
#1064=VECTOR('',#1801,1.);
#1065=VECTOR('',#1802,1.);
#1066=VECTOR('',#1803,1.);
#1067=VECTOR('',#1814,1.);
#1068=VECTOR('',#1815,1.);
#1069=VECTOR('',#1816,1.);
#1070=VECTOR('',#1819,1.);
#1071=VECTOR('',#1820,1.);
#1072=VECTOR('',#1823,1.);
#1073=VECTOR('',#1824,1.);
#1074=VECTOR('',#1827,1.);
#1075=VECTOR('',#1828,1.);
#1076=VECTOR('',#1829,1.);
#1077=VECTOR('',#1832,1.);
#1078=VECTOR('',#1833,1.);
#1079=VECTOR('',#1836,1.);
#1080=VECTOR('',#1837,1.);
#1081=VECTOR('',#1840,1.);
#1082=VECTOR('',#1841,1.);
#1083=VECTOR('',#1842,1.);
#1084=VECTOR('',#1843,1.);
#1085=VECTOR('',#1846,1.);
#1086=VECTOR('',#1847,1.);
#1087=VECTOR('',#1848,1.);
#1088=VECTOR('',#1851,1.);
#1089=VECTOR('',#1852,1.);
#1090=VECTOR('',#1853,1.);
#1091=VECTOR('',#1854,1.);
#1092=VECTOR('',#1855,1.);
#1093=VECTOR('',#1858,1.);
#1094=VECTOR('',#1859,1.);
#1095=VECTOR('',#1860,1.);
#1096=VECTOR('',#1861,1.);
#1097=VECTOR('',#1864,1.);
#1098=VECTOR('',#1865,1.);
#1099=VECTOR('',#1866,1.);
#1100=VECTOR('',#1869,1.);
#1101=VECTOR('',#1870,1.);
#1102=VECTOR('',#1871,1.);
#1103=VECTOR('',#1872,1.);
#1104=VECTOR('',#1883,1.);
#1105=VECTOR('',#1884,1.);
#1106=VECTOR('',#1885,1.);
#1107=VECTOR('',#1888,1.);
#1108=VECTOR('',#1889,1.);
#1109=VECTOR('',#1892,1.);
#1110=VECTOR('',#1893,1.);
#1111=VECTOR('',#1894,1.);
#1112=VECTOR('',#1897,1.);
#1113=VECTOR('',#1898,1.);
#1114=VECTOR('',#1901,1.);
#1115=VECTOR('',#1902,1.);
#1116=VECTOR('',#1905,1.);
#1117=VECTOR('',#1906,1.);
#1118=VECTOR('',#1909,1.);
#1119=VECTOR('',#1910,1.);
#1120=VECTOR('',#1913,1.);
#1121=VECTOR('',#1916,1.);
#1122=VECTOR('',#1917,1.);
#1123=VECTOR('',#1918,1.);
#1124=VECTOR('',#1919,1.);
#1125=VECTOR('',#1922,1.);
#1126=VECTOR('',#1923,1.);
#1127=VECTOR('',#1924,1.);
#1128=VECTOR('',#1927,1.);
#1129=VECTOR('',#1928,1.);
#1130=VECTOR('',#1931,1.);
#1131=VECTOR('',#1932,1.);
#1132=VECTOR('',#1935,1.);
#1133=EDGE_LOOP('',(#18,#19,#20,#21));
#1134=EDGE_LOOP('',(#22,#23,#24,#25));
#1135=EDGE_LOOP('',(#26,#27,#28,#29,#30,#31));
#1136=EDGE_LOOP('',(#32,#33,#34,#35));
#1137=EDGE_LOOP('',(#36,#37,#38,#39,#40,#41));
#1138=EDGE_LOOP('',(#42,#43,#44,#45,#46,#47));
#1139=EDGE_LOOP('',(#48,#49,#50,#51,#52,#53));
#1140=EDGE_LOOP('',(#54,#55,#56,#57));
#1141=EDGE_LOOP('',(#58,#59,#60,#61));
#1142=EDGE_LOOP('',(#62,#63,#64,#65));
#1143=EDGE_LOOP('',(#66,#67,#68,#69));
#1144=EDGE_LOOP('',(#70,#71,#72,#73));
#1145=EDGE_LOOP('',(#74,#75,#76,#77));
#1146=EDGE_LOOP('',(#78,#79,#80,#81));
#1147=EDGE_LOOP('',(#82,#83,#84,#85));
#1148=EDGE_LOOP('',(#86,#87,#88,#89));
#1149=EDGE_LOOP('',(#90,#91,#92,#93));
#1150=EDGE_LOOP('',(#94,#95,#96,#97));
#1151=EDGE_LOOP('',(#98,#99,#100,#101,#102,#103));
#1152=EDGE_LOOP('',(#104,#105,#106,#107));
#1153=EDGE_LOOP('',(#108,#109,#110,#111));
#1154=EDGE_LOOP('',(#112,#113,#114,#115));
#1155=EDGE_LOOP('',(#116,#117,#118,#119));
#1156=EDGE_LOOP('',(#120,#121,#122,#123));
#1157=EDGE_LOOP('',(#124,#125,#126,#127));
#1158=EDGE_LOOP('',(#128,#129,#130,#131,#132,#133));
#1159=EDGE_LOOP('',(#134,#135,#136,#137));
#1160=EDGE_LOOP('',(#138,#139,#140,#141));
#1161=EDGE_LOOP('',(#142,#143,#144,#145));
#1162=EDGE_LOOP('',(#146,#147,#148,#149));
#1163=EDGE_LOOP('',(#150,#151,#152,#153));
#1164=EDGE_LOOP('',(#154,#155,#156,#157));
#1165=EDGE_LOOP('',(#158,#159,#160,#161,#162,#163));
#1166=EDGE_LOOP('',(#164,#165,#166,#167));
#1167=EDGE_LOOP('',(#168,#169,#170,#171));
#1168=EDGE_LOOP('',(#172,#173,#174,#175));
#1169=EDGE_LOOP('',(#176,#177,#178,#179));
#1170=EDGE_LOOP('',(#180,#181,#182,#183));
#1171=EDGE_LOOP('',(#184,#185,#186,#187));
#1172=EDGE_LOOP('',(#188,#189,#190,#191,#192,#193));
#1173=EDGE_LOOP('',(#194,#195,#196,#197));
#1174=EDGE_LOOP('',(#198,#199,#200,#201));
#1175=EDGE_LOOP('',(#202,#203,#204,#205));
#1176=EDGE_LOOP('',(#206,#207,#208,#209));
#1177=EDGE_LOOP('',(#210,#211,#212,#213));
#1178=EDGE_LOOP('',(#214,#215,#216,#217));
#1179=EDGE_LOOP('',(#218,#219,#220,#221));
#1180=EDGE_LOOP('',(#222,#223,#224,#225));
#1181=EDGE_LOOP('',(#226,#227,#228,#229));
#1182=EDGE_LOOP('',(#230,#231,#232,#233));
#1183=EDGE_LOOP('',(#234,#235,#236,#237));
#1184=EDGE_LOOP('',(#238,#239,#240,#241));
#1185=EDGE_LOOP('',(#242,#243,#244,#245));
#1186=EDGE_LOOP('',(#246,#247,#248,#249));
#1187=EDGE_LOOP('',(#250,#251,#252,#253));
#1188=EDGE_LOOP('',(#254,#255,#256,#257));
#1189=EDGE_LOOP('',(#258,#259,#260,#261));
#1190=EDGE_LOOP('',(#262));
#1191=EDGE_LOOP('',(#263));
#1192=EDGE_LOOP('',(#264,#265,#266,#267));
#1193=EDGE_LOOP('',(#268,#269,#270,#271));
#1194=EDGE_LOOP('',(#272,#273,#274,#275));
#1195=EDGE_LOOP('',(#276,#277,#278,#279));
#1196=EDGE_LOOP('',(#280,#281,#282,#283));
#1197=EDGE_LOOP('',(#284,#285,#286,#287));
#1198=EDGE_LOOP('',(#288,#289,#290,#291));
#1199=EDGE_LOOP('',(#292,#293,#294,#295));
#1200=EDGE_LOOP('',(#296,#297,#298,#299,#300,#301,#302,#303));
#1201=EDGE_LOOP('',(#304,#305,#306,#307,#308));
#1202=EDGE_LOOP('',(#309,#310,#311,#312));
#1203=EDGE_LOOP('',(#313,#314,#315,#316,#317,#318,#319,#320));
#1204=EDGE_LOOP('',(#321));
#1205=EDGE_LOOP('',(#322));
#1206=EDGE_LOOP('',(#323));
#1207=EDGE_LOOP('',(#324));
#1208=EDGE_LOOP('',(#325,#326,#327,#328,#329,#330,#331,#332,#333,#334,#335,
#336));
#1209=EDGE_LOOP('',(#337,#338,#339,#340));
#1210=EDGE_LOOP('',(#341,#342,#343,#344,#345,#346,#347,#348,#349,#350,#351,
#352));
#1211=EDGE_LOOP('',(#353,#354,#355,#356));
#1212=EDGE_LOOP('',(#357,#358,#359,#360));
#1213=EDGE_LOOP('',(#361,#362,#363,#364,#365,#366));
#1214=EDGE_LOOP('',(#367,#368,#369,#370,#371));
#1215=EDGE_LOOP('',(#372,#373,#374,#375));
#1216=EDGE_LOOP('',(#376,#377,#378,#379));
#1217=EDGE_LOOP('',(#380,#381,#382,#383));
#1218=EDGE_LOOP('',(#384,#385,#386,#387,#388,#389,#390,#391));
#1219=EDGE_LOOP('',(#392));
#1220=EDGE_LOOP('',(#393));
#1221=EDGE_LOOP('',(#394,#395,#396,#397));
#1222=EDGE_LOOP('',(#398,#399,#400,#401));
#1223=EDGE_LOOP('',(#402,#403,#404,#405));
#1224=EDGE_LOOP('',(#406,#407,#408,#409));
#1225=EDGE_LOOP('',(#410,#411,#412,#413));
#1226=FACE_BOUND('',#1133,.T.);
#1227=FACE_BOUND('',#1134,.T.);
#1228=FACE_BOUND('',#1135,.T.);
#1229=FACE_BOUND('',#1136,.T.);
#1230=FACE_BOUND('',#1137,.T.);
#1231=FACE_BOUND('',#1138,.T.);
#1232=FACE_BOUND('',#1139,.T.);
#1233=FACE_BOUND('',#1140,.T.);
#1234=FACE_BOUND('',#1141,.T.);
#1235=FACE_BOUND('',#1142,.T.);
#1236=FACE_BOUND('',#1143,.T.);
#1237=FACE_BOUND('',#1144,.T.);
#1238=FACE_BOUND('',#1145,.T.);
#1239=FACE_BOUND('',#1146,.T.);
#1240=FACE_BOUND('',#1147,.T.);
#1241=FACE_BOUND('',#1148,.T.);
#1242=FACE_BOUND('',#1149,.T.);
#1243=FACE_BOUND('',#1150,.T.);
#1244=FACE_BOUND('',#1151,.T.);
#1245=FACE_BOUND('',#1152,.T.);
#1246=FACE_BOUND('',#1153,.T.);
#1247=FACE_BOUND('',#1154,.T.);
#1248=FACE_BOUND('',#1155,.T.);
#1249=FACE_BOUND('',#1156,.T.);
#1250=FACE_BOUND('',#1157,.T.);
#1251=FACE_BOUND('',#1158,.T.);
#1252=FACE_BOUND('',#1159,.T.);
#1253=FACE_BOUND('',#1160,.T.);
#1254=FACE_BOUND('',#1161,.T.);
#1255=FACE_BOUND('',#1162,.T.);
#1256=FACE_BOUND('',#1163,.T.);
#1257=FACE_BOUND('',#1164,.T.);
#1258=FACE_BOUND('',#1165,.T.);
#1259=FACE_BOUND('',#1166,.T.);
#1260=FACE_BOUND('',#1167,.T.);
#1261=FACE_BOUND('',#1168,.T.);
#1262=FACE_BOUND('',#1169,.T.);
#1263=FACE_BOUND('',#1170,.T.);
#1264=FACE_BOUND('',#1171,.T.);
#1265=FACE_BOUND('',#1172,.T.);
#1266=FACE_BOUND('',#1173,.T.);
#1267=FACE_BOUND('',#1174,.T.);
#1268=FACE_BOUND('',#1175,.T.);
#1269=FACE_BOUND('',#1176,.T.);
#1270=FACE_BOUND('',#1177,.T.);
#1271=FACE_BOUND('',#1178,.T.);
#1272=FACE_BOUND('',#1179,.T.);
#1273=FACE_BOUND('',#1180,.T.);
#1274=FACE_BOUND('',#1181,.T.);
#1275=FACE_BOUND('',#1182,.T.);
#1276=FACE_BOUND('',#1183,.T.);
#1277=FACE_BOUND('',#1184,.T.);
#1278=FACE_BOUND('',#1185,.T.);
#1279=FACE_BOUND('',#1186,.T.);
#1280=FACE_BOUND('',#1187,.T.);
#1281=FACE_BOUND('',#1188,.T.);
#1282=FACE_BOUND('',#1189,.T.);
#1283=FACE_BOUND('',#1190,.T.);
#1284=FACE_BOUND('',#1191,.T.);
#1285=FACE_BOUND('',#1192,.T.);
#1286=FACE_BOUND('',#1193,.T.);
#1287=FACE_BOUND('',#1194,.T.);
#1288=FACE_BOUND('',#1195,.T.);
#1289=FACE_BOUND('',#1196,.T.);
#1290=FACE_BOUND('',#1197,.T.);
#1291=FACE_BOUND('',#1198,.T.);
#1292=FACE_BOUND('',#1199,.T.);
#1293=FACE_BOUND('',#1200,.T.);
#1294=FACE_BOUND('',#1201,.T.);
#1295=FACE_BOUND('',#1202,.T.);
#1296=FACE_BOUND('',#1203,.T.);
#1297=FACE_BOUND('',#1204,.T.);
#1298=FACE_BOUND('',#1205,.T.);
#1299=FACE_BOUND('',#1206,.T.);
#1300=FACE_BOUND('',#1207,.T.);
#1301=FACE_BOUND('',#1208,.T.);
#1302=FACE_BOUND('',#1209,.T.);
#1303=FACE_BOUND('',#1210,.T.);
#1304=FACE_BOUND('',#1211,.T.);
#1305=FACE_BOUND('',#1212,.T.);
#1306=FACE_BOUND('',#1213,.T.);
#1307=FACE_BOUND('',#1214,.T.);
#1308=FACE_BOUND('',#1215,.T.);
#1309=FACE_BOUND('',#1216,.T.);
#1310=FACE_BOUND('',#1217,.T.);
#1311=FACE_BOUND('',#1218,.T.);
#1312=FACE_BOUND('',#1219,.T.);
#1313=FACE_BOUND('',#1220,.T.);
#1314=FACE_BOUND('',#1221,.T.);
#1315=FACE_BOUND('',#1222,.T.);
#1316=FACE_BOUND('',#1223,.T.);
#1317=FACE_BOUND('',#1224,.T.);
#1318=FACE_BOUND('',#1225,.T.);
#1319=PLANE('',#1490);
#1320=PLANE('',#1491);
#1321=PLANE('',#1492);
#1322=PLANE('',#1493);
#1323=PLANE('',#1494);
#1324=PLANE('',#1495);
#1325=PLANE('',#1496);
#1326=PLANE('',#1497);
#1327=PLANE('',#1498);
#1328=PLANE('',#1499);
#1329=PLANE('',#1500);
#1330=PLANE('',#1501);
#1331=PLANE('',#1502);
#1332=PLANE('',#1503);
#1333=PLANE('',#1504);
#1334=PLANE('',#1505);
#1335=PLANE('',#1506);
#1336=PLANE('',#1507);
#1337=PLANE('',#1508);
#1338=PLANE('',#1509);
#1339=PLANE('',#1510);
#1340=PLANE('',#1511);
#1341=PLANE('',#1512);
#1342=PLANE('',#1513);
#1343=PLANE('',#1514);
#1344=PLANE('',#1515);
#1345=PLANE('',#1516);
#1346=PLANE('',#1517);
#1347=PLANE('',#1518);
#1348=PLANE('',#1519);
#1349=PLANE('',#1520);
#1350=PLANE('',#1521);
#1351=PLANE('',#1522);
#1352=PLANE('',#1523);
#1353=PLANE('',#1524);
#1354=PLANE('',#1525);
#1355=PLANE('',#1526);
#1356=PLANE('',#1527);
#1357=PLANE('',#1528);
#1358=PLANE('',#1529);
#1359=PLANE('',#1530);
#1360=PLANE('',#1531);
#1361=PLANE('',#1532);
#1362=PLANE('',#1533);
#1363=PLANE('',#1534);
#1364=PLANE('',#1535);
#1365=PLANE('',#1536);
#1366=PLANE('',#1537);
#1367=PLANE('',#1538);
#1368=PLANE('',#1539);
#1369=PLANE('',#1540);
#1370=PLANE('',#1542);
#1371=PLANE('',#1544);
#1372=PLANE('',#1545);
#1373=PLANE('',#1546);
#1374=PLANE('',#1547);
#1375=PLANE('',#1548);
#1376=PLANE('',#1549);
#1377=PLANE('',#1550);
#1378=PLANE('',#1551);
#1379=PLANE('',#1552);
#1380=PLANE('',#1553);
#1381=PLANE('',#1554);
#1382=PLANE('',#1555);
#1383=PLANE('',#1560);
#1384=PLANE('',#1561);
#1385=PLANE('',#1562);
#1386=PLANE('',#1563);
#1387=PLANE('',#1564);
#1388=PLANE('',#1565);
#1389=PLANE('',#1566);
#1390=PLANE('',#1567);
#1391=PLANE('',#1568);
#1392=PLANE('',#1569);
#1393=PLANE('',#1570);
#1394=PLANE('',#1571);
#1395=PLANE('',#1572);
#1396=PLANE('',#1573);
#1397=ADVANCED_FACE('',(#1226,#1227),#1319,.T.);
#1398=ADVANCED_FACE('',(#1228,#1229,#1230,#1231,#1232,#1233),#1320,.T.);
#1399=ADVANCED_FACE('',(#1234),#1321,.T.);
#1400=ADVANCED_FACE('',(#1235),#1322,.F.);
#1401=ADVANCED_FACE('',(#1236),#1323,.F.);
#1402=ADVANCED_FACE('',(#1237),#1324,.T.);
#1403=ADVANCED_FACE('',(#1238),#1325,.F.);
#1404=ADVANCED_FACE('',(#1239),#1326,.T.);
#1405=ADVANCED_FACE('',(#1240),#1327,.F.);
#1406=ADVANCED_FACE('',(#1241),#1328,.F.);
#1407=ADVANCED_FACE('',(#1242),#1329,.F.);
#1408=ADVANCED_FACE('',(#1243),#1330,.F.);
#1409=ADVANCED_FACE('',(#1244),#1331,.T.);
#1410=ADVANCED_FACE('',(#1245),#1332,.T.);
#1411=ADVANCED_FACE('',(#1246),#1333,.F.);
#1412=ADVANCED_FACE('',(#1247),#1334,.T.);
#1413=ADVANCED_FACE('',(#1248),#1335,.F.);
#1414=ADVANCED_FACE('',(#1249),#1336,.T.);
#1415=ADVANCED_FACE('',(#1250),#1337,.F.);
#1416=ADVANCED_FACE('',(#1251),#1338,.T.);
#1417=ADVANCED_FACE('',(#1252),#1339,.T.);
#1418=ADVANCED_FACE('',(#1253),#1340,.F.);
#1419=ADVANCED_FACE('',(#1254),#1341,.T.);
#1420=ADVANCED_FACE('',(#1255),#1342,.F.);
#1421=ADVANCED_FACE('',(#1256),#1343,.F.);
#1422=ADVANCED_FACE('',(#1257),#1344,.T.);
#1423=ADVANCED_FACE('',(#1258),#1345,.T.);
#1424=ADVANCED_FACE('',(#1259),#1346,.T.);
#1425=ADVANCED_FACE('',(#1260),#1347,.F.);
#1426=ADVANCED_FACE('',(#1261),#1348,.F.);
#1427=ADVANCED_FACE('',(#1262),#1349,.T.);
#1428=ADVANCED_FACE('',(#1263),#1350,.T.);
#1429=ADVANCED_FACE('',(#1264),#1351,.F.);
#1430=ADVANCED_FACE('',(#1265),#1352,.T.);
#1431=ADVANCED_FACE('',(#1266),#1353,.T.);
#1432=ADVANCED_FACE('',(#1267),#1354,.F.);
#1433=ADVANCED_FACE('',(#1268),#1355,.F.);
#1434=ADVANCED_FACE('',(#1269),#1356,.T.);
#1435=ADVANCED_FACE('',(#1270),#1357,.T.);
#1436=ADVANCED_FACE('',(#1271),#1358,.T.);
#1437=ADVANCED_FACE('',(#1272),#1359,.F.);
#1438=ADVANCED_FACE('',(#1273),#1360,.F.);
#1439=ADVANCED_FACE('',(#1274),#1361,.T.);
#1440=ADVANCED_FACE('',(#1275),#1362,.F.);
#1441=ADVANCED_FACE('',(#1276),#1363,.F.);
#1442=ADVANCED_FACE('',(#1277),#1364,.T.);
#1443=ADVANCED_FACE('',(#1278),#1365,.T.);
#1444=ADVANCED_FACE('',(#1279,#1280),#1366,.T.);
#1445=ADVANCED_FACE('',(#1281),#1367,.F.);
#1446=ADVANCED_FACE('',(#1282),#1368,.T.);
#1447=ADVANCED_FACE('',(#1283),#1369,.T.);
#1448=ADVANCED_FACE('',(#1284),#1370,.T.);
#1449=ADVANCED_FACE('',(#1285),#1371,.F.);
#1450=ADVANCED_FACE('',(#1286),#1372,.F.);
#1451=ADVANCED_FACE('',(#1287),#1373,.T.);
#1452=ADVANCED_FACE('',(#1288),#1374,.F.);
#1453=ADVANCED_FACE('',(#1289),#1375,.T.);
#1454=ADVANCED_FACE('',(#1290),#1376,.T.);
#1455=ADVANCED_FACE('',(#1291),#1377,.F.);
#1456=ADVANCED_FACE('',(#1292),#1378,.T.);
#1457=ADVANCED_FACE('',(#1293),#1379,.T.);
#1458=ADVANCED_FACE('',(#1294),#1380,.T.);
#1459=ADVANCED_FACE('',(#1295),#1381,.T.);
#1460=ADVANCED_FACE('',(#1296),#1382,.T.);
#1461=ADVANCED_FACE('',(#1297,#1298),#12,.T.);
#1462=ADVANCED_FACE('',(#1299,#1300),#13,.T.);
#1463=ADVANCED_FACE('',(#1301),#1383,.T.);
#1464=ADVANCED_FACE('',(#1302),#1384,.F.);
#1465=ADVANCED_FACE('',(#1303),#1385,.F.);
#1466=ADVANCED_FACE('',(#1304),#1386,.F.);
#1467=ADVANCED_FACE('',(#1305),#1387,.T.);
#1468=ADVANCED_FACE('',(#1306),#1388,.F.);
#1469=ADVANCED_FACE('',(#1307),#1389,.F.);
#1470=ADVANCED_FACE('',(#1308),#1390,.F.);
#1471=ADVANCED_FACE('',(#1309,#1310,#1311,#1312,#1313),#1391,.T.);
#1472=ADVANCED_FACE('',(#1314),#1392,.T.);
#1473=ADVANCED_FACE('',(#1315),#1393,.F.);
#1474=ADVANCED_FACE('',(#1316),#1394,.F.);
#1475=ADVANCED_FACE('',(#1317),#1395,.T.);
#1476=ADVANCED_FACE('',(#1318),#1396,.T.);
#1477=CLOSED_SHELL('',(#1397,#1398,#1399,#1400,#1401,#1402,#1403,#1404,
#1405,#1406,#1407,#1408,#1409,#1410,#1411,#1412,#1413,#1414,#1415,#1416,
#1417,#1418,#1419,#1420,#1421,#1422,#1423,#1424,#1425,#1426,#1427,#1428,
#1429,#1430,#1431,#1432,#1433,#1434,#1435,#1436,#1437,#1438,#1439,#1440,
#1441,#1442,#1443,#1444,#1445,#1446,#1447,#1448,#1449,#1450,#1451,#1452,
#1453,#1454,#1455,#1456,#1457,#1458,#1459,#1460,#1461,#1462,#1463,#1464,
#1465,#1466,#1467,#1468,#1469,#1470,#1471,#1472,#1473,#1474,#1475,#1476));
#1478=STYLED_ITEM('',(#1479),#1486);
#1479=PRESENTATION_STYLE_ASSIGNMENT((#1480));
#1480=SURFACE_STYLE_USAGE(.BOTH.,#1481);
#1481=SURFACE_SIDE_STYLE('',(#1482));
#1482=SURFACE_STYLE_FILL_AREA(#1483);
#1483=FILL_AREA_STYLE('',(#1484));
#1484=FILL_AREA_STYLE_COLOUR('',#1485);
#1485=COLOUR_RGB('',0.768627450980392,0.886274509803922,0.952941176470588);
#1486=MANIFOLD_SOLID_BREP('BMat4',#1477);
#1487=SHAPE_DEFINITION_REPRESENTATION(#2356,#1488);
#1488=SHAPE_REPRESENTATION('BMat4',(#1489),#2351);
#1489=AXIS2_PLACEMENT_3D('',#1938,#1574,#1575);
#1490=AXIS2_PLACEMENT_3D('',#1939,#1576,#1577);
#1491=AXIS2_PLACEMENT_3D('',#1956,#1586,#1587);
#1492=AXIS2_PLACEMENT_3D('',#2021,#1620,#1621);
#1493=AXIS2_PLACEMENT_3D('',#2024,#1624,#1625);
#1494=AXIS2_PLACEMENT_3D('',#2026,#1627,#1628);
#1495=AXIS2_PLACEMENT_3D('',#2028,#1630,#1631);
#1496=AXIS2_PLACEMENT_3D('',#2029,#1632,#1633);
#1497=AXIS2_PLACEMENT_3D('',#2035,#1637,#1638);
#1498=AXIS2_PLACEMENT_3D('',#2039,#1641,#1642);
#1499=AXIS2_PLACEMENT_3D('',#2043,#1645,#1646);
#1500=AXIS2_PLACEMENT_3D('',#2047,#1649,#1650);
#1501=AXIS2_PLACEMENT_3D('',#2051,#1653,#1654);
#1502=AXIS2_PLACEMENT_3D('',#2053,#1656,#1657);
#1503=AXIS2_PLACEMENT_3D('',#2054,#1658,#1659);
#1504=AXIS2_PLACEMENT_3D('',#2060,#1663,#1664);
#1505=AXIS2_PLACEMENT_3D('',#2064,#1667,#1668);
#1506=AXIS2_PLACEMENT_3D('',#2068,#1671,#1672);
#1507=AXIS2_PLACEMENT_3D('',#2072,#1675,#1676);
#1508=AXIS2_PLACEMENT_3D('',#2076,#1679,#1680);
#1509=AXIS2_PLACEMENT_3D('',#2078,#1682,#1683);
#1510=AXIS2_PLACEMENT_3D('',#2079,#1684,#1685);
#1511=AXIS2_PLACEMENT_3D('',#2085,#1689,#1690);
#1512=AXIS2_PLACEMENT_3D('',#2089,#1693,#1694);
#1513=AXIS2_PLACEMENT_3D('',#2093,#1697,#1698);
#1514=AXIS2_PLACEMENT_3D('',#2097,#1701,#1702);
#1515=AXIS2_PLACEMENT_3D('',#2101,#1705,#1706);
#1516=AXIS2_PLACEMENT_3D('',#2103,#1708,#1709);
#1517=AXIS2_PLACEMENT_3D('',#2104,#1710,#1711);
#1518=AXIS2_PLACEMENT_3D('',#2110,#1715,#1716);
#1519=AXIS2_PLACEMENT_3D('',#2114,#1719,#1720);
#1520=AXIS2_PLACEMENT_3D('',#2118,#1723,#1724);
#1521=AXIS2_PLACEMENT_3D('',#2122,#1727,#1728);
#1522=AXIS2_PLACEMENT_3D('',#2126,#1731,#1732);
#1523=AXIS2_PLACEMENT_3D('',#2128,#1734,#1735);
#1524=AXIS2_PLACEMENT_3D('',#2129,#1736,#1737);
#1525=AXIS2_PLACEMENT_3D('',#2135,#1741,#1742);
#1526=AXIS2_PLACEMENT_3D('',#2139,#1745,#1746);
#1527=AXIS2_PLACEMENT_3D('',#2143,#1749,#1750);
#1528=AXIS2_PLACEMENT_3D('',#2145,#1752,#1753);
#1529=AXIS2_PLACEMENT_3D('',#2146,#1754,#1755);
#1530=AXIS2_PLACEMENT_3D('',#2152,#1759,#1760);
#1531=AXIS2_PLACEMENT_3D('',#2156,#1763,#1764);
#1532=AXIS2_PLACEMENT_3D('',#2160,#1767,#1768);
#1533=AXIS2_PLACEMENT_3D('',#2169,#1773,#1774);
#1534=AXIS2_PLACEMENT_3D('',#2175,#1778,#1779);
#1535=AXIS2_PLACEMENT_3D('',#2181,#1783,#1784);
#1536=AXIS2_PLACEMENT_3D('',#2184,#1787,#1788);
#1537=AXIS2_PLACEMENT_3D('',#2186,#1790,#1791);
#1538=AXIS2_PLACEMENT_3D('',#2187,#1792,#1793);
#1539=AXIS2_PLACEMENT_3D('',#2196,#1798,#1799);
#1540=AXIS2_PLACEMENT_3D('',#2205,#1804,#1805);
#1541=AXIS2_PLACEMENT_3D('',#2206,#1806,#1807);
#1542=AXIS2_PLACEMENT_3D('',#2208,#1808,#1809);
#1543=AXIS2_PLACEMENT_3D('',#2209,#1810,#1811);
#1544=AXIS2_PLACEMENT_3D('',#2211,#1812,#1813);
#1545=AXIS2_PLACEMENT_3D('',#2217,#1817,#1818);
#1546=AXIS2_PLACEMENT_3D('',#2221,#1821,#1822);
#1547=AXIS2_PLACEMENT_3D('',#2225,#1825,#1826);
#1548=AXIS2_PLACEMENT_3D('',#2231,#1830,#1831);
#1549=AXIS2_PLACEMENT_3D('',#2235,#1834,#1835);
#1550=AXIS2_PLACEMENT_3D('',#2239,#1838,#1839);
#1551=AXIS2_PLACEMENT_3D('',#2248,#1844,#1845);
#1552=AXIS2_PLACEMENT_3D('',#2254,#1849,#1850);
#1553=AXIS2_PLACEMENT_3D('',#2264,#1856,#1857);
#1554=AXIS2_PLACEMENT_3D('',#2272,#1862,#1863);
#1555=AXIS2_PLACEMENT_3D('',#2278,#1867,#1868);
#1556=AXIS2_PLACEMENT_3D('',#2285,#1873,#1874);
#1557=AXIS2_PLACEMENT_3D('',#2286,#1875,#1876);
#1558=AXIS2_PLACEMENT_3D('',#2288,#1877,#1878);
#1559=AXIS2_PLACEMENT_3D('',#2289,#1879,#1880);
#1560=AXIS2_PLACEMENT_3D('',#2291,#1881,#1882);
#1561=AXIS2_PLACEMENT_3D('',#2297,#1886,#1887);
#1562=AXIS2_PLACEMENT_3D('',#2301,#1890,#1891);
#1563=AXIS2_PLACEMENT_3D('',#2306,#1895,#1896);
#1564=AXIS2_PLACEMENT_3D('',#2310,#1899,#1900);
#1565=AXIS2_PLACEMENT_3D('',#2314,#1903,#1904);
#1566=AXIS2_PLACEMENT_3D('',#2318,#1907,#1908);
#1567=AXIS2_PLACEMENT_3D('',#2322,#1911,#1912);
#1568=AXIS2_PLACEMENT_3D('',#2324,#1914,#1915);
#1569=AXIS2_PLACEMENT_3D('',#2333,#1920,#1921);
#1570=AXIS2_PLACEMENT_3D('',#2339,#1925,#1926);
#1571=AXIS2_PLACEMENT_3D('',#2343,#1929,#1930);
#1572=AXIS2_PLACEMENT_3D('',#2347,#1933,#1934);
#1573=AXIS2_PLACEMENT_3D('',#2349,#1936,#1937);
#1574=DIRECTION('',(0.,0.,1.));
#1575=DIRECTION('',(1.,0.,0.));
#1576=DIRECTION('',(0.,0.,1.));
#1577=DIRECTION('',(1.,0.,0.));
#1578=DIRECTION('',(-1.,0.,0.));
#1579=DIRECTION('',(3.26536183713282E-16,-1.,0.));
#1580=DIRECTION('',(-1.,0.,0.));
#1581=DIRECTION('',(3.26536183713282E-16,-1.,0.));
#1582=DIRECTION('',(1.,0.,0.));
#1583=DIRECTION('',(0.,-1.,0.));
#1584=DIRECTION('',(1.,0.,0.));
#1585=DIRECTION('',(0.,-1.,0.));
#1586=DIRECTION('',(0.,0.,1.));
#1587=DIRECTION('',(1.,0.,0.));
#1588=DIRECTION('',(0.,1.,0.));
#1589=DIRECTION('',(1.,0.,0.));
#1590=DIRECTION('',(0.,1.,0.));
#1591=DIRECTION('',(1.,0.,0.));
#1592=DIRECTION('',(0.,-1.,0.));
#1593=DIRECTION('',(1.,0.,0.));
#1594=DIRECTION('',(1.,0.,0.));
#1595=DIRECTION('',(0.,-1.,0.));
#1596=DIRECTION('',(1.,0.,0.));
#1597=DIRECTION('',(0.,-1.,0.));
#1598=DIRECTION('',(-1.,0.,0.));
#1599=DIRECTION('',(0.,-1.,0.));
#1600=DIRECTION('',(1.,0.,0.));
#1601=DIRECTION('',(0.,1.,0.));
#1602=DIRECTION('',(-1.,0.,0.));
#1603=DIRECTION('',(0.,1.,0.));
#1604=DIRECTION('',(0.,1.,0.));
#1605=DIRECTION('',(1.,0.,0.));
#1606=DIRECTION('',(0.,-1.,0.));
#1607=DIRECTION('',(1.,0.,0.));
#1608=DIRECTION('',(0.,-1.,0.));
#1609=DIRECTION('',(1.,0.,0.));
#1610=DIRECTION('',(0.,-1.,0.));
#1611=DIRECTION('',(-1.,0.,0.));
#1612=DIRECTION('',(0.,-1.,0.));
#1613=DIRECTION('',(1.,0.,0.));
#1614=DIRECTION('',(0.,-1.,0.));
#1615=DIRECTION('',(1.,0.,0.));
#1616=DIRECTION('',(0.,-1.,0.));
#1617=DIRECTION('',(1.,0.,0.));
#1618=DIRECTION('',(0.,-1.,0.));
#1619=DIRECTION('',(1.,0.,0.));
#1620=DIRECTION('',(0.,1.,0.));
#1621=DIRECTION('',(0.,0.,1.));
#1622=DIRECTION('',(0.,0.,-1.));
#1623=DIRECTION('',(0.,0.,-1.));
#1624=DIRECTION('',(1.,0.,0.));
#1625=DIRECTION('',(0.,0.,-1.));
#1626=DIRECTION('',(0.,0.,-1.));
#1627=DIRECTION('',(0.,1.,0.));
#1628=DIRECTION('',(0.,0.,1.));
#1629=DIRECTION('',(0.,0.,-1.));
#1630=DIRECTION('',(1.,0.,0.));
#1631=DIRECTION('',(0.,0.,-1.));
#1632=DIRECTION('',(-1.,0.,0.));
#1633=DIRECTION('',(0.,0.,1.));
#1634=DIRECTION('',(0.,0.,-1.));
#1635=DIRECTION('',(0.,1.,0.));
#1636=DIRECTION('',(0.,0.,-1.));
#1637=DIRECTION('',(0.,1.,0.));
#1638=DIRECTION('',(0.,0.,1.));
#1639=DIRECTION('',(0.,0.,-1.));
#1640=DIRECTION('',(1.,0.,0.));
#1641=DIRECTION('',(1.,0.,0.));
#1642=DIRECTION('',(0.,0.,-1.));
#1643=DIRECTION('',(0.,0.,-1.));
#1644=DIRECTION('',(0.,-1.,0.));
#1645=DIRECTION('',(0.,1.,0.));
#1646=DIRECTION('',(0.,0.,1.));
#1647=DIRECTION('',(0.,0.,-1.));
#1648=DIRECTION('',(1.,0.,0.));
#1649=DIRECTION('',(-1.,0.,0.));
#1650=DIRECTION('',(0.,0.,1.));
#1651=DIRECTION('',(0.,0.,-1.));
#1652=DIRECTION('',(0.,1.,0.));
#1653=DIRECTION('',(0.,1.,0.));
#1654=DIRECTION('',(0.,0.,1.));
#1655=DIRECTION('',(1.,0.,0.));
#1656=DIRECTION('',(0.,0.,1.));
#1657=DIRECTION('',(1.,0.,0.));
#1658=DIRECTION('',(1.,0.,0.));
#1659=DIRECTION('',(0.,0.,-1.));
#1660=DIRECTION('',(0.,0.,-1.));
#1661=DIRECTION('',(0.,-1.,0.));
#1662=DIRECTION('',(0.,0.,-1.));
#1663=DIRECTION('',(0.,-1.,0.));
#1664=DIRECTION('',(0.,0.,-1.));
#1665=DIRECTION('',(0.,0.,-1.));
#1666=DIRECTION('',(-1.,0.,0.));
#1667=DIRECTION('',(-1.,0.,0.));
#1668=DIRECTION('',(0.,0.,1.));
#1669=DIRECTION('',(0.,0.,-1.));
#1670=DIRECTION('',(0.,1.,0.));
#1671=DIRECTION('',(0.,-1.,0.));
#1672=DIRECTION('',(0.,0.,-1.));
#1673=DIRECTION('',(0.,0.,-1.));
#1674=DIRECTION('',(-1.,0.,0.));
#1675=DIRECTION('',(-1.,0.,0.));
#1676=DIRECTION('',(0.,0.,1.));
#1677=DIRECTION('',(0.,0.,-1.));
#1678=DIRECTION('',(0.,1.,0.));
#1679=DIRECTION('',(0.,1.,0.));
#1680=DIRECTION('',(0.,0.,1.));
#1681=DIRECTION('',(1.,0.,0.));
#1682=DIRECTION('',(0.,0.,1.));
#1683=DIRECTION('',(1.,0.,0.));
#1684=DIRECTION('',(0.,1.,0.));
#1685=DIRECTION('',(0.,0.,1.));
#1686=DIRECTION('',(0.,0.,-1.));
#1687=DIRECTION('',(1.,0.,0.));
#1688=DIRECTION('',(0.,0.,-1.));
#1689=DIRECTION('',(-1.,0.,0.));
#1690=DIRECTION('',(0.,0.,1.));
#1691=DIRECTION('',(0.,0.,-1.));
#1692=DIRECTION('',(0.,1.,0.));
#1693=DIRECTION('',(0.,1.,0.));
#1694=DIRECTION('',(0.,0.,1.));
#1695=DIRECTION('',(0.,0.,-1.));
#1696=DIRECTION('',(1.,0.,0.));
#1697=DIRECTION('',(1.,0.,0.));
#1698=DIRECTION('',(0.,0.,-1.));
#1699=DIRECTION('',(0.,0.,-1.));
#1700=DIRECTION('',(0.,-1.,0.));
#1701=DIRECTION('',(0.,1.,0.));
#1702=DIRECTION('',(0.,0.,1.));
#1703=DIRECTION('',(0.,0.,-1.));
#1704=DIRECTION('',(1.,0.,0.));
#1705=DIRECTION('',(1.,0.,0.));
#1706=DIRECTION('',(0.,0.,-1.));
#1707=DIRECTION('',(0.,-1.,0.));
#1708=DIRECTION('',(0.,0.,1.));
#1709=DIRECTION('',(1.,0.,0.));
#1710=DIRECTION('',(0.,-1.,0.));
#1711=DIRECTION('',(0.,0.,-1.));
#1712=DIRECTION('',(0.,0.,-1.));
#1713=DIRECTION('',(-1.,0.,0.));
#1714=DIRECTION('',(0.,0.,-1.));
#1715=DIRECTION('',(1.,0.,0.));
#1716=DIRECTION('',(0.,0.,-1.));
#1717=DIRECTION('',(0.,0.,-1.));
#1718=DIRECTION('',(0.,-1.,0.));
#1719=DIRECTION('',(0.,1.,0.));
#1720=DIRECTION('',(0.,0.,1.));
#1721=DIRECTION('',(0.,0.,-1.));
#1722=DIRECTION('',(1.,0.,0.));
#1723=DIRECTION('',(1.,0.,0.));
#1724=DIRECTION('',(0.,0.,-1.));
#1725=DIRECTION('',(0.,0.,-1.));
#1726=DIRECTION('',(0.,-1.,0.));
#1727=DIRECTION('',(0.,1.,0.));
#1728=DIRECTION('',(0.,0.,1.));
#1729=DIRECTION('',(0.,0.,-1.));
#1730=DIRECTION('',(1.,0.,0.));
#1731=DIRECTION('',(1.,0.,0.));
#1732=DIRECTION('',(0.,0.,-1.));
#1733=DIRECTION('',(0.,-1.,0.));
#1734=DIRECTION('',(0.,0.,1.));
#1735=DIRECTION('',(1.,0.,0.));
#1736=DIRECTION('',(0.,-1.,0.));
#1737=DIRECTION('',(0.,0.,-1.));
#1738=DIRECTION('',(0.,0.,1.));
#1739=DIRECTION('',(1.,0.,0.));
#1740=DIRECTION('',(0.,0.,1.));
#1741=DIRECTION('',(-1.,0.,0.));
#1742=DIRECTION('',(0.,0.,1.));
#1743=DIRECTION('',(0.,0.,1.));
#1744=DIRECTION('',(0.,-1.,0.));
#1745=DIRECTION('',(0.,-1.,0.));
#1746=DIRECTION('',(0.,0.,-1.));
#1747=DIRECTION('',(0.,0.,1.));
#1748=DIRECTION('',(1.,0.,0.));
#1749=DIRECTION('',(-1.,0.,0.));
#1750=DIRECTION('',(0.,0.,1.));
#1751=DIRECTION('',(0.,-1.,0.));
#1752=DIRECTION('',(0.,0.,1.));
#1753=DIRECTION('',(1.,0.,0.));
#1754=DIRECTION('',(0.,-1.,0.));
#1755=DIRECTION('',(0.,0.,-1.));
#1756=DIRECTION('',(0.,0.,-1.));
#1757=DIRECTION('',(-1.,0.,0.));
#1758=DIRECTION('',(0.,0.,-1.));
#1759=DIRECTION('',(1.,3.26536183713282E-16,0.));
#1760=DIRECTION('',(-3.26536183713282E-16,1.,0.));
#1761=DIRECTION('',(0.,0.,-1.));
#1762=DIRECTION('',(3.26536183713282E-16,-1.,0.));
#1763=DIRECTION('',(0.,-1.,0.));
#1764=DIRECTION('',(0.,0.,-1.));
#1765=DIRECTION('',(0.,0.,-1.));
#1766=DIRECTION('',(-1.,0.,0.));
#1767=DIRECTION('',(1.,0.,0.));
#1768=DIRECTION('',(0.,0.,-1.));
#1769=DIRECTION('',(0.,-1.,0.));
#1770=DIRECTION('',(0.,0.,-1.));
#1771=DIRECTION('',(0.,-1.,0.));
#1772=DIRECTION('',(0.,0.,-1.));
#1773=DIRECTION('',(0.,-1.,0.));
#1774=DIRECTION('',(0.,0.,-1.));
#1775=DIRECTION('',(-1.,0.,0.));
#1776=DIRECTION('',(0.,0.,-1.));
#1777=DIRECTION('',(-1.,0.,0.));
#1778=DIRECTION('',(1.,5.66440318686305E-16,0.));
#1779=DIRECTION('',(-5.66440318686305E-16,1.,0.));
#1780=DIRECTION('',(5.66440318686305E-16,-1.,0.));
#1781=DIRECTION('',(0.,0.,-1.));
#1782=DIRECTION('',(5.66440318686305E-16,-1.,0.));
#1783=DIRECTION('',(0.,-1.,0.));
#1784=DIRECTION('',(0.,0.,-1.));
#1785=DIRECTION('',(-1.,0.,0.));
#1786=DIRECTION('',(-1.,0.,0.));
#1787=DIRECTION('',(1.,3.26536183713282E-16,0.));
#1788=DIRECTION('',(-3.26536183713282E-16,1.,0.));
#1789=DIRECTION('',(3.26536183713282E-16,-1.,0.));
#1790=DIRECTION('',(0.,0.,1.));
#1791=DIRECTION('',(1.,0.,0.));
#1792=DIRECTION('',(1.,0.,0.));
#1793=DIRECTION('',(0.,0.,-1.));
#1794=DIRECTION('',(0.,-1.,0.));
#1795=DIRECTION('',(0.,0.,-1.));
#1796=DIRECTION('',(0.,-1.,0.));
#1797=DIRECTION('',(0.,0.,-1.));
#1798=DIRECTION('',(1.,0.,0.));
#1799=DIRECTION('',(0.,0.,-1.));
#1800=DIRECTION('',(0.,-1.,0.));
#1801=DIRECTION('',(0.,0.,-1.));
#1802=DIRECTION('',(0.,-1.,0.));
#1803=DIRECTION('',(0.,0.,-1.));
#1804=DIRECTION('',(0.,0.,1.));
#1805=DIRECTION('',(1.,0.,0.));
#1806=DIRECTION('',(0.,0.,1.));
#1807=DIRECTION('',(1.,0.,0.));
#1808=DIRECTION('',(0.,0.,1.));
#1809=DIRECTION('',(1.,0.,0.));
#1810=DIRECTION('',(0.,0.,1.));
#1811=DIRECTION('',(1.,0.,0.));
#1812=DIRECTION('',(0.,1.,0.));
#1813=DIRECTION('',(0.,0.,1.));
#1814=DIRECTION('',(1.,0.,0.));
#1815=DIRECTION('',(1.,0.,0.));
#1816=DIRECTION('',(0.,0.,-1.));
#1817=DIRECTION('',(0.,0.,1.));
#1818=DIRECTION('',(1.,0.,0.));
#1819=DIRECTION('',(0.,-1.,0.));
#1820=DIRECTION('',(1.,0.,0.));
#1821=DIRECTION('',(0.,1.,0.));
#1822=DIRECTION('',(0.,0.,1.));
#1823=DIRECTION('',(0.,0.,-1.));
#1824=DIRECTION('',(1.,0.,0.));
#1825=DIRECTION('',(0.,1.,0.));
#1826=DIRECTION('',(0.,0.,1.));
#1827=DIRECTION('',(1.,0.,0.));
#1828=DIRECTION('',(1.,0.,0.));
#1829=DIRECTION('',(0.,0.,-1.));
#1830=DIRECTION('',(0.,0.,1.));
#1831=DIRECTION('',(1.,0.,0.));
#1832=DIRECTION('',(5.55111512312578E-17,-1.,0.));
#1833=DIRECTION('',(1.,0.,0.));
#1834=DIRECTION('',(0.,1.,0.));
#1835=DIRECTION('',(0.,0.,1.));
#1836=DIRECTION('',(0.,0.,-1.));
#1837=DIRECTION('',(1.,0.,0.));
#1838=DIRECTION('',(0.,0.,1.));
#1839=DIRECTION('',(1.,0.,0.));
#1840=DIRECTION('',(1.,0.,0.));
#1841=DIRECTION('',(0.,-1.,0.));
#1842=DIRECTION('',(1.,0.,0.));
#1843=DIRECTION('',(5.55111512312578E-17,-1.,0.));
#1844=DIRECTION('',(0.,1.,0.));
#1845=DIRECTION('',(0.,0.,1.));
#1846=DIRECTION('',(0.,0.,-1.));
#1847=DIRECTION('',(1.,0.,0.));
#1848=DIRECTION('',(0.,0.,-1.));
#1849=DIRECTION('',(0.,0.,1.));
#1850=DIRECTION('',(1.,0.,0.));
#1851=DIRECTION('',(1.,0.,0.));
#1852=DIRECTION('',(5.55111512312578E-17,-1.,0.));
#1853=DIRECTION('',(5.55111512312578E-17,-1.,0.));
#1854=DIRECTION('',(1.,0.,0.));
#1855=DIRECTION('',(0.,-1.,0.));
#1856=DIRECTION('',(0.,0.,1.));
#1857=DIRECTION('',(1.,0.,0.));
#1858=DIRECTION('',(5.55111512312578E-17,-1.,0.));
#1859=DIRECTION('',(1.,0.,0.));
#1860=DIRECTION('',(1.,0.,0.));
#1861=DIRECTION('',(0.,-1.,0.));
#1862=DIRECTION('',(0.,1.,0.));
#1863=DIRECTION('',(0.,0.,1.));
#1864=DIRECTION('',(0.,0.,-1.));
#1865=DIRECTION('',(1.,0.,0.));
#1866=DIRECTION('',(0.,0.,-1.));
#1867=DIRECTION('',(0.,0.,1.));
#1868=DIRECTION('',(1.,0.,0.));
#1869=DIRECTION('',(0.,-1.,0.));
#1870=DIRECTION('',(0.,-1.,0.));
#1871=DIRECTION('',(1.,0.,0.));
#1872=DIRECTION('',(0.,-1.,0.));
#1873=DIRECTION('',(0.,0.,-1.));
#1874=DIRECTION('',(-1.,0.,0.));
#1875=DIRECTION('',(0.,0.,1.));
#1876=DIRECTION('',(1.,0.,0.));
#1877=DIRECTION('',(0.,0.,-1.));
#1878=DIRECTION('',(-1.,0.,0.));
#1879=DIRECTION('',(0.,0.,1.));
#1880=DIRECTION('',(1.,0.,0.));
#1881=DIRECTION('',(1.,0.,0.));
#1882=DIRECTION('',(0.,0.,-1.));
#1883=DIRECTION('',(0.,0.,-1.));
#1884=DIRECTION('',(0.,-1.,0.));
#1885=DIRECTION('',(0.,0.,-1.));
#1886=DIRECTION('',(0.,1.,0.));
#1887=DIRECTION('',(0.,0.,1.));
#1888=DIRECTION('',(1.,0.,0.));
#1889=DIRECTION('',(0.,0.,-1.));
#1890=DIRECTION('',(1.,5.55111512312578E-17,0.));
#1891=DIRECTION('',(-5.55111512312578E-17,1.,0.));
#1892=DIRECTION('',(0.,0.,-1.));
#1893=DIRECTION('',(5.55111512312578E-17,-1.,0.));
#1894=DIRECTION('',(0.,0.,-1.));
#1895=DIRECTION('',(0.,1.,0.));
#1896=DIRECTION('',(0.,0.,1.));
#1897=DIRECTION('',(1.,0.,0.));
#1898=DIRECTION('',(0.,0.,-1.));
#1899=DIRECTION('',(1.,0.,0.));
#1900=DIRECTION('',(0.,0.,-1.));
#1901=DIRECTION('',(0.,-1.,0.));
#1902=DIRECTION('',(0.,0.,-1.));
#1903=DIRECTION('',(0.,1.,0.));
#1904=DIRECTION('',(0.,0.,1.));
#1905=DIRECTION('',(0.,0.,-1.));
#1906=DIRECTION('',(1.,0.,0.));
#1907=DIRECTION('',(1.,0.,0.));
#1908=DIRECTION('',(0.,0.,-1.));
#1909=DIRECTION('',(0.,-1.,0.));
#1910=DIRECTION('',(0.,0.,-1.));
#1911=DIRECTION('',(0.,1.,0.));
#1912=DIRECTION('',(0.,0.,1.));
#1913=DIRECTION('',(1.,0.,0.));
#1914=DIRECTION('',(0.,0.,1.));
#1915=DIRECTION('',(1.,0.,0.));
#1916=DIRECTION('',(0.,-1.,0.));
#1917=DIRECTION('',(-1.,0.,0.));
#1918=DIRECTION('',(0.,-1.,0.));
#1919=DIRECTION('',(-1.,0.,0.));
#1920=DIRECTION('',(1.,0.,0.));
#1921=DIRECTION('',(0.,0.,-1.));
#1922=DIRECTION('',(0.,0.,-1.));
#1923=DIRECTION('',(0.,-1.,0.));
#1924=DIRECTION('',(0.,0.,-1.));
#1925=DIRECTION('',(0.,-1.,0.));
#1926=DIRECTION('',(0.,0.,-1.));
#1927=DIRECTION('',(0.,0.,-1.));
#1928=DIRECTION('',(-1.,0.,0.));
#1929=DIRECTION('',(1.,0.,0.));
#1930=DIRECTION('',(0.,0.,-1.));
#1931=DIRECTION('',(0.,0.,-1.));
#1932=DIRECTION('',(0.,-1.,0.));
#1933=DIRECTION('',(0.,-1.,0.));
#1934=DIRECTION('',(0.,0.,-1.));
#1935=DIRECTION('',(-1.,0.,0.));
#1936=DIRECTION('',(0.,0.,1.));
#1937=DIRECTION('',(1.,0.,0.));
#1938=CARTESIAN_POINT('',(0.,0.,0.));
#1939=CARTESIAN_POINT('',(-0.0616736940725536,-0.0688652148425581,0.0025));
#1940=CARTESIAN_POINT('',(0.211467468945923,-0.262827494193817,0.0025));
#1941=CARTESIAN_POINT('',(0.240467468945923,-0.262827494193817,0.0025));
#1942=CARTESIAN_POINT('',(0.182467468945923,-0.262827494193817,0.0025));
#1943=CARTESIAN_POINT('',(0.182467468945923,-0.305327494193817,0.0025));
#1944=CARTESIAN_POINT('',(0.182467468945923,-0.347827494193817,0.0025));
#1945=CARTESIAN_POINT('',(0.211467468945923,-0.347827494193817,0.0025));
#1946=CARTESIAN_POINT('',(0.240467468945923,-0.347827494193817,0.0025));
#1947=CARTESIAN_POINT('',(0.240467468945923,-0.305327494193817,0.0025));
#1948=CARTESIAN_POINT('',(0.215467468945923,-0.281827494193817,0.0025));
#1949=CARTESIAN_POINT('',(0.200467468945923,-0.281827494193817,0.0025));
#1950=CARTESIAN_POINT('',(0.230467468945923,-0.281827494193817,0.0025));
#1951=CARTESIAN_POINT('',(0.230467468945923,-0.296827494193817,0.0025));
#1952=CARTESIAN_POINT('',(0.230467468945923,-0.311827494193817,0.0025));
#1953=CARTESIAN_POINT('',(0.215467468945923,-0.311827494193817,0.0025));
#1954=CARTESIAN_POINT('',(0.200467468945923,-0.311827494193817,0.0025));
#1955=CARTESIAN_POINT('',(0.200467468945923,-0.296827494193817,0.0025));
#1956=CARTESIAN_POINT('',(0.210467468945923,-0.248077494193817,0.0225));
#1957=CARTESIAN_POINT('',(0.211467468945923,-0.287727494193817,0.0225));
#1958=CARTESIAN_POINT('',(0.211467468945923,-0.288727494193817,0.0225));
#1959=CARTESIAN_POINT('',(0.211467468945923,-0.286727494193817,0.0225));
#1960=CARTESIAN_POINT('',(0.210467468945923,-0.288727494193817,0.0225));
#1961=CARTESIAN_POINT('',(0.209467468945923,-0.288727494193817,0.0225));
#1962=CARTESIAN_POINT('',(0.209467468945923,-0.289727494193817,0.0225));
#1963=CARTESIAN_POINT('',(0.209467468945923,-0.290727494193817,0.0225));
#1964=CARTESIAN_POINT('',(0.208467468945923,-0.290727494193817,0.0225));
#1965=CARTESIAN_POINT('',(0.207467468945923,-0.290727494193817,0.0225));
#1966=CARTESIAN_POINT('',(0.207467468945923,-0.288727494193817,0.0225));
#1967=CARTESIAN_POINT('',(0.207467468945923,-0.286727494193817,0.0225));
#1968=CARTESIAN_POINT('',(0.208467468945923,-0.286727494193817,0.0225));
#1969=CARTESIAN_POINT('',(0.215467468945923,-0.281827494193817,0.0225));
#1970=CARTESIAN_POINT('',(0.200467468945923,-0.281827494193817,0.0225));
#1971=CARTESIAN_POINT('',(0.230467468945923,-0.281827494193817,0.0225));
#1972=CARTESIAN_POINT('',(0.200467468945923,-0.296827494193817,0.0225));
#1973=CARTESIAN_POINT('',(0.200467468945923,-0.311827494193817,0.0225));
#1974=CARTESIAN_POINT('',(0.215467468945923,-0.311827494193817,0.0225));
#1975=CARTESIAN_POINT('',(0.230467468945923,-0.311827494193817,0.0225));
#1976=CARTESIAN_POINT('',(0.230467468945923,-0.296827494193817,0.0225));
#1977=CARTESIAN_POINT('',(0.221567468945923,-0.300827494193817,0.0225));
#1978=CARTESIAN_POINT('',(0.222567468945923,-0.300827494193817,0.0225));
#1979=CARTESIAN_POINT('',(0.220567468945923,-0.300827494193817,0.0225));
#1980=CARTESIAN_POINT('',(0.222567468945923,-0.301827494193817,0.0225));
#1981=CARTESIAN_POINT('',(0.222567468945923,-0.304827494193817,0.0225));
#1982=CARTESIAN_POINT('',(0.220567468945923,-0.304827494193817,0.0225));
#1983=CARTESIAN_POINT('',(0.218567468945923,-0.304827494193817,0.0225));
#1984=CARTESIAN_POINT('',(0.218567468945923,-0.303827494193817,0.0225));
#1985=CARTESIAN_POINT('',(0.218567468945923,-0.302827494193817,0.0225));
#1986=CARTESIAN_POINT('',(0.219567468945923,-0.302827494193817,0.0225));
#1987=CARTESIAN_POINT('',(0.220567468945923,-0.302827494193817,0.0225));
#1988=CARTESIAN_POINT('',(0.220567468945923,-0.301827494193817,0.0225));
#1989=CARTESIAN_POINT('',(0.209467468945923,-0.301827494193817,0.0225));
#1990=CARTESIAN_POINT('',(0.209467468945923,-0.302827494193817,0.0225));
#1991=CARTESIAN_POINT('',(0.209467468945923,-0.300827494193817,0.0225));
#1992=CARTESIAN_POINT('',(0.210467468945923,-0.302827494193817,0.0225));
#1993=CARTESIAN_POINT('',(0.211467468945923,-0.302827494193817,0.0225));
#1994=CARTESIAN_POINT('',(0.211467468945923,-0.303827494193817,0.0225));
#1995=CARTESIAN_POINT('',(0.211467468945923,-0.304827494193817,0.0225));
#1996=CARTESIAN_POINT('',(0.210467468945923,-0.304827494193817,0.0225));
#1997=CARTESIAN_POINT('',(0.207467468945923,-0.304827494193817,0.0225));
#1998=CARTESIAN_POINT('',(0.207467468945923,-0.302827494193817,0.0225));
#1999=CARTESIAN_POINT('',(0.207467468945923,-0.300827494193817,0.0225));
#2000=CARTESIAN_POINT('',(0.208467468945923,-0.300827494193817,0.0225));
#2001=CARTESIAN_POINT('',(0.220567468945923,-0.289727494193817,0.0225));
#2002=CARTESIAN_POINT('',(0.220567468945923,-0.288727494193817,0.0225));
#2003=CARTESIAN_POINT('',(0.220567468945923,-0.290727494193817,0.0225));
#2004=CARTESIAN_POINT('',(0.219567468945923,-0.288727494193817,0.0225));
#2005=CARTESIAN_POINT('',(0.218567468945923,-0.288727494193817,0.0225));
#2006=CARTESIAN_POINT('',(0.218567468945923,-0.287727494193817,0.0225));
#2007=CARTESIAN_POINT('',(0.218567468945923,-0.286727494193817,0.0225));
#2008=CARTESIAN_POINT('',(0.220567468945923,-0.286727494193817,0.0225));
#2009=CARTESIAN_POINT('',(0.222567468945923,-0.286727494193817,0.0225));
#2010=CARTESIAN_POINT('',(0.222567468945923,-0.287727494193817,0.0225));
#2011=CARTESIAN_POINT('',(0.222567468945923,-0.290727494193817,0.0225));
#2012=CARTESIAN_POINT('',(0.221567468945923,-0.290727494193817,0.0225));
#2013=CARTESIAN_POINT('',(0.211017468945923,-0.295777494193817,0.0225));
#2014=CARTESIAN_POINT('',(0.211017468945923,-0.290277494193817,0.0225));
#2015=CARTESIAN_POINT('',(0.211017468945923,-0.301277494193817,0.0225));
#2016=CARTESIAN_POINT('',(0.215017468945923,-0.290277494193817,0.0225));
#2017=CARTESIAN_POINT('',(0.219017468945923,-0.290277494193817,0.0225));
#2018=CARTESIAN_POINT('',(0.219017468945923,-0.295777494193817,0.0225));
#2019=CARTESIAN_POINT('',(0.219017468945923,-0.301277494193817,0.0225));
#2020=CARTESIAN_POINT('',(0.215017468945923,-0.301277494193817,0.0225));
#2021=CARTESIAN_POINT('',(0.215467468945923,-0.281827494193817,0.0225));
#2022=CARTESIAN_POINT('',(0.200467468945923,-0.281827494193817,0.0225));
#2023=CARTESIAN_POINT('',(0.230467468945923,-0.281827494193817,0.0225));
#2024=CARTESIAN_POINT('',(0.200467468945923,-0.296827494193817,0.0225));
#2025=CARTESIAN_POINT('',(0.200467468945923,-0.311827494193817,0.0225));
#2026=CARTESIAN_POINT('',(0.215467468945923,-0.311827494193817,0.0225));
#2027=CARTESIAN_POINT('',(0.230467468945923,-0.311827494193817,0.0225));
#2028=CARTESIAN_POINT('',(0.230467468945923,-0.296827494193817,0.0225));
#2029=CARTESIAN_POINT('',(0.211467468945923,-0.287727494193817,0.0235));
#2030=CARTESIAN_POINT('',(0.211467468945923,-0.286727494193817,0.0235));
#2031=CARTESIAN_POINT('',(0.211467468945923,-0.286727494193817,0.0235));
#2032=CARTESIAN_POINT('',(0.211467468945923,-0.287727494193817,0.0235));
#2033=CARTESIAN_POINT('',(0.211467468945923,-0.288727494193817,0.0235));
#2034=CARTESIAN_POINT('',(0.211467468945923,-0.288727494193817,0.0235));
#2035=CARTESIAN_POINT('',(0.208467468945923,-0.286727494193817,0.0235));
#2036=CARTESIAN_POINT('',(0.207467468945923,-0.286727494193817,0.0235));
#2037=CARTESIAN_POINT('',(0.207467468945923,-0.286727494193817,0.0235));
#2038=CARTESIAN_POINT('',(0.208467468945923,-0.286727494193817,0.0235));
#2039=CARTESIAN_POINT('',(0.207467468945923,-0.288727494193817,0.0235));
#2040=CARTESIAN_POINT('',(0.207467468945923,-0.290727494193817,0.0235));
#2041=CARTESIAN_POINT('',(0.207467468945923,-0.290727494193817,0.0235));
#2042=CARTESIAN_POINT('',(0.207467468945923,-0.288727494193817,0.0235));
#2043=CARTESIAN_POINT('',(0.208467468945923,-0.290727494193817,0.0235));
#2044=CARTESIAN_POINT('',(0.209467468945923,-0.290727494193817,0.0235));
#2045=CARTESIAN_POINT('',(0.209467468945923,-0.290727494193817,0.0235));
#2046=CARTESIAN_POINT('',(0.208467468945923,-0.290727494193817,0.0235));
#2047=CARTESIAN_POINT('',(0.209467468945923,-0.289727494193817,0.0235));
#2048=CARTESIAN_POINT('',(0.209467468945923,-0.288727494193817,0.0235));
#2049=CARTESIAN_POINT('',(0.209467468945923,-0.288727494193817,0.0235));
#2050=CARTESIAN_POINT('',(0.209467468945923,-0.289727494193817,0.0235));
#2051=CARTESIAN_POINT('',(0.210467468945923,-0.288727494193817,0.0235));
#2052=CARTESIAN_POINT('',(0.210467468945923,-0.288727494193817,0.0235));
#2053=CARTESIAN_POINT('',(0.215467468945923,-0.296827494193817,0.0235));
#2054=CARTESIAN_POINT('',(0.222567468945923,-0.301827494193817,0.0235));
#2055=CARTESIAN_POINT('',(0.222567468945923,-0.300827494193817,0.0235));
#2056=CARTESIAN_POINT('',(0.222567468945923,-0.300827494193817,0.0235));
#2057=CARTESIAN_POINT('',(0.222567468945923,-0.301827494193817,0.0235));
#2058=CARTESIAN_POINT('',(0.222567468945923,-0.304827494193817,0.0235));
#2059=CARTESIAN_POINT('',(0.222567468945923,-0.304827494193817,0.0235));
#2060=CARTESIAN_POINT('',(0.221567468945923,-0.300827494193817,0.0235));
#2061=CARTESIAN_POINT('',(0.220567468945923,-0.300827494193817,0.0235));
#2062=CARTESIAN_POINT('',(0.220567468945923,-0.300827494193817,0.0235));
#2063=CARTESIAN_POINT('',(0.221567468945923,-0.300827494193817,0.0235));
#2064=CARTESIAN_POINT('',(0.220567468945923,-0.301827494193817,0.0235));
#2065=CARTESIAN_POINT('',(0.220567468945923,-0.302827494193817,0.0235));
#2066=CARTESIAN_POINT('',(0.220567468945923,-0.302827494193817,0.0235));
#2067=CARTESIAN_POINT('',(0.220567468945923,-0.301827494193817,0.0235));
#2068=CARTESIAN_POINT('',(0.219567468945923,-0.302827494193817,0.0235));
#2069=CARTESIAN_POINT('',(0.218567468945923,-0.302827494193817,0.0235));
#2070=CARTESIAN_POINT('',(0.218567468945923,-0.302827494193817,0.0235));
#2071=CARTESIAN_POINT('',(0.219567468945923,-0.302827494193817,0.0235));
#2072=CARTESIAN_POINT('',(0.218567468945923,-0.303827494193817,0.0235));
#2073=CARTESIAN_POINT('',(0.218567468945923,-0.304827494193817,0.0235));
#2074=CARTESIAN_POINT('',(0.218567468945923,-0.304827494193817,0.0235));
#2075=CARTESIAN_POINT('',(0.218567468945923,-0.303827494193817,0.0235));
#2076=CARTESIAN_POINT('',(0.220567468945923,-0.304827494193817,0.0235));
#2077=CARTESIAN_POINT('',(0.220567468945923,-0.304827494193817,0.0235));
#2078=CARTESIAN_POINT('',(0.215467468945923,-0.296827494193817,0.0235));
#2079=CARTESIAN_POINT('',(0.210467468945923,-0.302827494193817,0.0235));
#2080=CARTESIAN_POINT('',(0.209467468945923,-0.302827494193817,0.0235));
#2081=CARTESIAN_POINT('',(0.209467468945923,-0.302827494193817,0.0235));
#2082=CARTESIAN_POINT('',(0.210467468945923,-0.302827494193817,0.0235));
#2083=CARTESIAN_POINT('',(0.211467468945923,-0.302827494193817,0.0235));
#2084=CARTESIAN_POINT('',(0.211467468945923,-0.302827494193817,0.0235));
#2085=CARTESIAN_POINT('',(0.209467468945923,-0.301827494193817,0.0235));
#2086=CARTESIAN_POINT('',(0.209467468945923,-0.300827494193817,0.0235));
#2087=CARTESIAN_POINT('',(0.209467468945923,-0.300827494193817,0.0235));
#2088=CARTESIAN_POINT('',(0.209467468945923,-0.301827494193817,0.0235));
#2089=CARTESIAN_POINT('',(0.208467468945923,-0.300827494193817,0.0235));
#2090=CARTESIAN_POINT('',(0.207467468945923,-0.300827494193817,0.0235));
#2091=CARTESIAN_POINT('',(0.207467468945923,-0.300827494193817,0.0235));
#2092=CARTESIAN_POINT('',(0.208467468945923,-0.300827494193817,0.0235));
#2093=CARTESIAN_POINT('',(0.207467468945923,-0.302827494193817,0.0235));
#2094=CARTESIAN_POINT('',(0.207467468945923,-0.304827494193817,0.0235));
#2095=CARTESIAN_POINT('',(0.207467468945923,-0.304827494193817,0.0235));
#2096=CARTESIAN_POINT('',(0.207467468945923,-0.302827494193817,0.0235));
#2097=CARTESIAN_POINT('',(0.210467468945923,-0.304827494193817,0.0235));
#2098=CARTESIAN_POINT('',(0.211467468945923,-0.304827494193817,0.0235));
#2099=CARTESIAN_POINT('',(0.211467468945923,-0.304827494193817,0.0235));
#2100=CARTESIAN_POINT('',(0.210467468945923,-0.304827494193817,0.0235));
#2101=CARTESIAN_POINT('',(0.211467468945923,-0.303827494193817,0.0235));
#2102=CARTESIAN_POINT('',(0.211467468945923,-0.303827494193817,0.0235));
#2103=CARTESIAN_POINT('',(0.215467468945923,-0.296827494193817,0.0235));
#2104=CARTESIAN_POINT('',(0.219567468945923,-0.288727494193817,0.0235));
#2105=CARTESIAN_POINT('',(0.220567468945923,-0.288727494193817,0.0235));
#2106=CARTESIAN_POINT('',(0.220567468945923,-0.288727494193817,0.0235));
#2107=CARTESIAN_POINT('',(0.219567468945923,-0.288727494193817,0.0235));
#2108=CARTESIAN_POINT('',(0.218567468945923,-0.288727494193817,0.0235));
#2109=CARTESIAN_POINT('',(0.218567468945923,-0.288727494193817,0.0235));
#2110=CARTESIAN_POINT('',(0.220567468945923,-0.289727494193817,0.0235));
#2111=CARTESIAN_POINT('',(0.220567468945923,-0.290727494193817,0.0235));
#2112=CARTESIAN_POINT('',(0.220567468945923,-0.290727494193817,0.0235));
#2113=CARTESIAN_POINT('',(0.220567468945923,-0.289727494193817,0.0235));
#2114=CARTESIAN_POINT('',(0.221567468945923,-0.290727494193817,0.0235));
#2115=CARTESIAN_POINT('',(0.222567468945923,-0.290727494193817,0.0235));
#2116=CARTESIAN_POINT('',(0.222567468945923,-0.290727494193817,0.0235));
#2117=CARTESIAN_POINT('',(0.221567468945923,-0.290727494193817,0.0235));
#2118=CARTESIAN_POINT('',(0.222567468945923,-0.287727494193817,0.0235));
#2119=CARTESIAN_POINT('',(0.222567468945923,-0.286727494193817,0.0235));
#2120=CARTESIAN_POINT('',(0.222567468945923,-0.286727494193817,0.0235));
#2121=CARTESIAN_POINT('',(0.222567468945923,-0.287727494193817,0.0235));
#2122=CARTESIAN_POINT('',(0.220567468945923,-0.286727494193817,0.0235));
#2123=CARTESIAN_POINT('',(0.218567468945923,-0.286727494193817,0.0235));
#2124=CARTESIAN_POINT('',(0.218567468945923,-0.286727494193817,0.0235));
#2125=CARTESIAN_POINT('',(0.220567468945923,-0.286727494193817,0.0235));
#2126=CARTESIAN_POINT('',(0.218567468945923,-0.287727494193817,0.0235));
#2127=CARTESIAN_POINT('',(0.218567468945923,-0.287727494193817,0.0235));
#2128=CARTESIAN_POINT('',(0.215467468945923,-0.296827494193817,0.0235));
#2129=CARTESIAN_POINT('',(0.215017468945923,-0.290277494193817,0.0205));
#2130=CARTESIAN_POINT('',(0.211017468945923,-0.290277494193817,0.0205));
#2131=CARTESIAN_POINT('',(0.211017468945923,-0.290277494193817,0.0205));
#2132=CARTESIAN_POINT('',(0.215017468945923,-0.290277494193817,0.0205));
#2133=CARTESIAN_POINT('',(0.219017468945923,-0.290277494193817,0.0205));
#2134=CARTESIAN_POINT('',(0.219017468945923,-0.290277494193817,0.0205));
#2135=CARTESIAN_POINT('',(0.211017468945923,-0.295777494193817,0.0205));
#2136=CARTESIAN_POINT('',(0.211017468945923,-0.301277494193817,0.0205));
#2137=CARTESIAN_POINT('',(0.211017468945923,-0.301277494193817,0.0205));
#2138=CARTESIAN_POINT('',(0.211017468945923,-0.295777494193817,0.0205));
#2139=CARTESIAN_POINT('',(0.215017468945923,-0.301277494193817,0.0205));
#2140=CARTESIAN_POINT('',(0.219017468945923,-0.301277494193817,0.0205));
#2141=CARTESIAN_POINT('',(0.219017468945923,-0.301277494193817,0.0205));
#2142=CARTESIAN_POINT('',(0.215017468945923,-0.301277494193817,0.0205));
#2143=CARTESIAN_POINT('',(0.219017468945923,-0.295777494193817,0.0205));
#2144=CARTESIAN_POINT('',(0.219017468945923,-0.295777494193817,0.0205));
#2145=CARTESIAN_POINT('',(0.215467468945923,-0.296827494193817,0.0205));
#2146=CARTESIAN_POINT('',(0.211467468945923,-0.262827494193817,0.0225));
#2147=CARTESIAN_POINT('',(0.240467468945923,-0.262827494193817,0.0225));
#2148=CARTESIAN_POINT('',(0.240467468945923,-0.262827494193817,0.0225));
#2149=CARTESIAN_POINT('',(0.211467468945923,-0.262827494193817,0.0225));
#2150=CARTESIAN_POINT('',(0.182467468945923,-0.262827494193817,0.0225));
#2151=CARTESIAN_POINT('',(0.182467468945923,-0.262827494193817,0.0225));
#2152=CARTESIAN_POINT('',(0.240467468945923,-0.305327494193817,0.0225));
#2153=CARTESIAN_POINT('',(0.240467468945923,-0.347827494193817,0.0225));
#2154=CARTESIAN_POINT('',(0.240467468945923,-0.347827494193817,0.0225));
#2155=CARTESIAN_POINT('',(0.240467468945923,-0.305327494193817,0.0225));
#2156=CARTESIAN_POINT('',(0.211467468945923,-0.347827494193817,0.0225));
#2157=CARTESIAN_POINT('',(0.182467468945923,-0.347827494193817,0.0225));
#2158=CARTESIAN_POINT('',(0.182467468945923,-0.347827494193817,0.0225));
#2159=CARTESIAN_POINT('',(0.211467468945923,-0.347827494193817,0.0225));
#2160=CARTESIAN_POINT('',(0.250467468945923,-0.334827494193817,0.0225));
#2161=CARTESIAN_POINT('',(0.250467468945923,-0.334827494193817,0.0025));
#2162=CARTESIAN_POINT('',(0.250467468945923,-0.252827494193817,0.0025));
#2163=CARTESIAN_POINT('',(0.250467468945923,-0.357827494193817,0.0025));
#2164=CARTESIAN_POINT('',(0.250467468945923,-0.252827494193817,0.0225));
#2165=CARTESIAN_POINT('',(0.250467468945923,-0.252827494193817,0.0225));
#2166=CARTESIAN_POINT('',(0.250467468945923,-0.334827494193817,0.0225));
#2167=CARTESIAN_POINT('',(0.250467468945923,-0.357827494193817,0.0225));
#2168=CARTESIAN_POINT('',(0.250467468945923,-0.357827494193817,0.0225));
#2169=CARTESIAN_POINT('',(0.211467468945923,-0.252827494193817,0.0225));
#2170=CARTESIAN_POINT('',(0.211467468945923,-0.252827494193817,0.0025));
#2171=CARTESIAN_POINT('',(0.172467468945923,-0.252827494193817,0.0025));
#2172=CARTESIAN_POINT('',(0.172467468945923,-0.252827494193817,0.0225));
#2173=CARTESIAN_POINT('',(0.172467468945923,-0.252827494193817,0.0225));
#2174=CARTESIAN_POINT('',(0.211467468945923,-0.252827494193817,0.0225));
#2175=CARTESIAN_POINT('',(0.172467468945923,-0.277327494193817,0.0225));
#2176=CARTESIAN_POINT('',(0.172467468945923,-0.277327494193817,0.0025));
#2177=CARTESIAN_POINT('',(0.172467468945923,-0.357827494193817,0.0025));
#2178=CARTESIAN_POINT('',(0.172467468945923,-0.357827494193817,0.0225));
#2179=CARTESIAN_POINT('',(0.172467468945923,-0.357827494193817,0.0225));
#2180=CARTESIAN_POINT('',(0.172467468945923,-0.277327494193817,0.0225));
#2181=CARTESIAN_POINT('',(0.211467468945923,-0.357827494193817,0.0225));
#2182=CARTESIAN_POINT('',(0.211467468945923,-0.357827494193817,0.0025));
#2183=CARTESIAN_POINT('',(0.211467468945923,-0.357827494193817,0.0225));
#2184=CARTESIAN_POINT('',(0.182467468945923,-0.305327494193817,0.0225));
#2185=CARTESIAN_POINT('',(0.182467468945923,-0.305327494193817,0.0225));
#2186=CARTESIAN_POINT('',(0.228276906226783,-0.295327494193817,0.0225));
#2187=CARTESIAN_POINT('',(0.091967468945923,-0.152327494193817,0.0175));
#2188=CARTESIAN_POINT('',(0.091967468945923,-0.152327494193817,0.0025));
#2189=CARTESIAN_POINT('',(0.0919674689459231,-0.134827494193817,0.0025));
#2190=CARTESIAN_POINT('',(0.091967468945923,-0.169827494193817,0.0025));
#2191=CARTESIAN_POINT('',(0.091967468945923,-0.169827494193817,0.0175));
#2192=CARTESIAN_POINT('',(0.091967468945923,-0.169827494193817,0.0175));
#2193=CARTESIAN_POINT('',(0.091967468945923,-0.152327494193817,0.0175));
#2194=CARTESIAN_POINT('',(0.091967468945923,-0.134827494193817,0.0175));
#2195=CARTESIAN_POINT('',(0.091967468945923,-0.134827494193817,0.0175));
#2196=CARTESIAN_POINT('',(0.334467468945923,-0.152327494193817,0.0225));
#2197=CARTESIAN_POINT('',(0.334467468945923,-0.152327494193817,0.0025));
#2198=CARTESIAN_POINT('',(0.334467468945923,-0.134827494193817,0.0025));
#2199=CARTESIAN_POINT('',(0.334467468945923,-0.169827494193817,0.0025));
#2200=CARTESIAN_POINT('',(0.334467468945923,-0.134827494193817,0.0225));
#2201=CARTESIAN_POINT('',(0.334467468945923,-0.134827494193817,0.0225));
#2202=CARTESIAN_POINT('',(0.334467468945923,-0.152327494193817,0.0225));
#2203=CARTESIAN_POINT('',(0.334467468945923,-0.169827494193817,0.0225));
#2204=CARTESIAN_POINT('',(0.334467468945923,-0.169827494193817,0.0225));
#2205=CARTESIAN_POINT('',(0.228276906226783,-0.295327494193817,0.0175));
#2206=CARTESIAN_POINT('',(0.100467468945923,-0.361827494193817,0.0175));
#2207=CARTESIAN_POINT('',(0.105467468945923,-0.361827494193817,0.0175));
#2208=CARTESIAN_POINT('',(0.228276906226783,-0.295327494193817,0.0175));
#2209=CARTESIAN_POINT('',(0.320467468945923,-0.361827494193817,0.0175));
#2210=CARTESIAN_POINT('',(0.325467468945923,-0.361827494193817,0.0175));
#2211=CARTESIAN_POINT('',(0.332467468945923,-0.169827494193817,0.0225));
#2212=CARTESIAN_POINT('',(0.332467468945923,-0.169827494193817,0.0025));
#2213=CARTESIAN_POINT('',(0.330467468945923,-0.169827494193817,0.0025));
#2214=CARTESIAN_POINT('',(0.332467468945923,-0.169827494193817,0.0225));
#2215=CARTESIAN_POINT('',(0.330467468945923,-0.169827494193817,0.0225));
#2216=CARTESIAN_POINT('',(0.330467468945923,-0.169827494193817,0.0225));
#2217=CARTESIAN_POINT('',(0.228276906226783,-0.295327494193817,0.0025));
#2218=CARTESIAN_POINT('',(0.330467468945923,-0.246827494193817,0.0025));
#2219=CARTESIAN_POINT('',(0.330467468945923,-0.134827494193817,0.0025));
#2220=CARTESIAN_POINT('',(0.332467468945923,-0.134827494193817,0.0025));
#2221=CARTESIAN_POINT('',(0.332467468945923,-0.134827494193817,0.0225));
#2222=CARTESIAN_POINT('',(0.330467468945923,-0.134827494193817,0.0225));
#2223=CARTESIAN_POINT('',(0.330467468945923,-0.134827494193817,0.0225));
#2224=CARTESIAN_POINT('',(0.332467468945923,-0.134827494193817,0.0225));
#2225=CARTESIAN_POINT('',(0.0912174689459231,-0.134827494193817,0.0175));
#2226=CARTESIAN_POINT('',(0.0912174689459231,-0.134827494193817,0.0025));
#2227=CARTESIAN_POINT('',(0.0904674689459231,-0.134827494193817,0.0025));
#2228=CARTESIAN_POINT('',(0.0912174689459231,-0.134827494193817,0.0175));
#2229=CARTESIAN_POINT('',(0.0904674689459231,-0.134827494193817,0.0175));
#2230=CARTESIAN_POINT('',(0.0904674689459231,-0.134827494193817,0.0175));
#2231=CARTESIAN_POINT('',(-0.0616736940725536,-0.0688652148425581,0.0025));
#2232=CARTESIAN_POINT('',(0.0904674689459231,-0.246827494193817,0.0025));
#2233=CARTESIAN_POINT('',(0.0904674689459231,-0.169827494193817,0.0025));
#2234=CARTESIAN_POINT('',(0.0912174689459231,-0.169827494193817,0.0025));
#2235=CARTESIAN_POINT('',(0.0912174689459231,-0.169827494193817,0.0175));
#2236=CARTESIAN_POINT('',(0.0904674689459231,-0.169827494193817,0.0175));
#2237=CARTESIAN_POINT('',(0.0904674689459231,-0.169827494193817,0.0175));
#2238=CARTESIAN_POINT('',(0.0912174689459231,-0.169827494193817,0.0175));
#2239=CARTESIAN_POINT('',(-0.0616736940725536,-0.0688652148425581,0.));
#2240=CARTESIAN_POINT('',(0.210467468945923,-0.121827494193817,0.));
#2241=CARTESIAN_POINT('',(0.0904674689459231,-0.121827494193817,0.));
#2242=CARTESIAN_POINT('',(0.330467468945923,-0.121827494193817,0.));
#2243=CARTESIAN_POINT('',(0.330467468945923,-0.246827494193817,0.));
#2244=CARTESIAN_POINT('',(0.330467468945923,-0.371827494193817,0.));
#2245=CARTESIAN_POINT('',(0.210467468945923,-0.371827494193817,0.));
#2246=CARTESIAN_POINT('',(0.0904674689459231,-0.371827494193817,0.));
#2247=CARTESIAN_POINT('',(0.0904674689459231,-0.246827494193817,0.));
#2248=CARTESIAN_POINT('',(0.210467468945923,-0.121827494193817,0.02));
#2249=CARTESIAN_POINT('',(0.0904674689459231,-0.121827494193817,0.02));
#2250=CARTESIAN_POINT('',(0.0904674689459231,-0.121827494193817,0.02));
#2251=CARTESIAN_POINT('',(0.210467468945923,-0.121827494193817,0.02));
#2252=CARTESIAN_POINT('',(0.330467468945923,-0.121827494193817,0.02));
#2253=CARTESIAN_POINT('',(0.330467468945923,-0.121827494193817,0.02));
#2254=CARTESIAN_POINT('',(0.228276906226783,-0.295327494193817,0.0175));
#2255=CARTESIAN_POINT('',(0.0939674689459231,-0.124327494193817,0.0175));
#2256=CARTESIAN_POINT('',(0.0904674689459231,-0.124327494193817,0.0175));
#2257=CARTESIAN_POINT('',(0.097467468945923,-0.124327494193817,0.0175));
#2258=CARTESIAN_POINT('',(0.0904674689459231,-0.246827494193817,0.0175));
#2259=CARTESIAN_POINT('',(0.0904674689459231,-0.246827494193817,0.0175));
#2260=CARTESIAN_POINT('',(0.0904674689459231,-0.180327494193817,0.0175));
#2261=CARTESIAN_POINT('',(0.0939674689459231,-0.180327494193817,0.0175));
#2262=CARTESIAN_POINT('',(0.097467468945923,-0.180327494193817,0.0175));
#2263=CARTESIAN_POINT('',(0.097467468945923,-0.152327494193817,0.0175));
#2264=CARTESIAN_POINT('',(-0.0616736940725536,-0.0688652148425581,0.02));
#2265=CARTESIAN_POINT('',(0.0904674689459231,-0.246827494193817,0.02));
#2266=CARTESIAN_POINT('',(0.0904674689459231,-0.124327494193817,0.02));
#2267=CARTESIAN_POINT('',(0.210467468945923,-0.124327494193817,0.02));
#2268=CARTESIAN_POINT('',(0.319967468945923,-0.124327494193817,0.02));
#2269=CARTESIAN_POINT('',(0.210467468945923,-0.124327494193817,0.02));
#2270=CARTESIAN_POINT('',(0.330467468945923,-0.124327494193817,0.02));
#2271=CARTESIAN_POINT('',(0.330467468945923,-0.246827494193817,0.02));
#2272=CARTESIAN_POINT('',(0.325217468945923,-0.124327494193817,0.0225));
#2273=CARTESIAN_POINT('',(0.319967468945923,-0.124327494193817,0.0225));
#2274=CARTESIAN_POINT('',(0.319967468945923,-0.124327494193817,0.0225));
#2275=CARTESIAN_POINT('',(0.325217468945923,-0.124327494193817,0.0225));
#2276=CARTESIAN_POINT('',(0.330467468945923,-0.124327494193817,0.0225));
#2277=CARTESIAN_POINT('',(0.330467468945923,-0.124327494193817,0.0225));
#2278=CARTESIAN_POINT('',(0.228276906226783,-0.295327494193817,0.0225));
#2279=CARTESIAN_POINT('',(0.330467468945923,-0.129577494193817,0.0225));
#2280=CARTESIAN_POINT('',(0.319967468945923,-0.152327494193817,0.0225));
#2281=CARTESIAN_POINT('',(0.319967468945923,-0.180327494193817,0.0225));
#2282=CARTESIAN_POINT('',(0.325217468945923,-0.180327494193817,0.0225));
#2283=CARTESIAN_POINT('',(0.330467468945923,-0.180327494193817,0.0225));
#2284=CARTESIAN_POINT('',(0.330467468945923,-0.175077494193817,0.0225));
#2285=CARTESIAN_POINT('',(0.100467468945923,-0.361827494193817,0.0175));
#2286=CARTESIAN_POINT('',(0.100467468945923,-0.361827494193817,0.0025));
#2287=CARTESIAN_POINT('',(0.105467468945923,-0.361827494193817,0.0025));
#2288=CARTESIAN_POINT('',(0.320467468945923,-0.361827494193817,0.0175));
#2289=CARTESIAN_POINT('',(0.320467468945923,-0.361827494193817,0.0025));
#2290=CARTESIAN_POINT('',(0.325467468945923,-0.361827494193817,0.0025));
#2291=CARTESIAN_POINT('',(0.330467468945923,-0.246827494193817,0.02));
#2292=CARTESIAN_POINT('',(0.330467468945923,-0.180327494193817,0.0225));
#2293=CARTESIAN_POINT('',(0.330467468945923,-0.180327494193817,0.0025));
#2294=CARTESIAN_POINT('',(0.330467468945923,-0.246827494193817,0.0025));
#2295=CARTESIAN_POINT('',(0.330467468945923,-0.371827494193817,0.0025));
#2296=CARTESIAN_POINT('',(0.330467468945923,-0.371827494193817,0.02));
#2297=CARTESIAN_POINT('',(0.210467468945923,-0.371827494193817,0.02));
#2298=CARTESIAN_POINT('',(0.210467468945923,-0.371827494193817,0.0025));
#2299=CARTESIAN_POINT('',(0.0904674689459231,-0.371827494193817,0.0025));
#2300=CARTESIAN_POINT('',(0.0904674689459231,-0.371827494193817,0.02));
#2301=CARTESIAN_POINT('',(0.0904674689459231,-0.246827494193817,0.02));
#2302=CARTESIAN_POINT('',(0.0904674689459231,-0.124327494193817,0.02));
#2303=CARTESIAN_POINT('',(0.0904674689459231,-0.246827494193817,0.0025));
#2304=CARTESIAN_POINT('',(0.0904674689459231,-0.180327494193817,0.0025));
#2305=CARTESIAN_POINT('',(0.0904674689459231,-0.180327494193817,0.0175));
#2306=CARTESIAN_POINT('',(0.0939674689459231,-0.180327494193817,0.0175));
#2307=CARTESIAN_POINT('',(0.0939674689459231,-0.180327494193817,0.0025));
#2308=CARTESIAN_POINT('',(0.097467468945923,-0.180327494193817,0.0025));
#2309=CARTESIAN_POINT('',(0.097467468945923,-0.180327494193817,0.0175));
#2310=CARTESIAN_POINT('',(0.097467468945923,-0.152327494193817,0.0175));
#2311=CARTESIAN_POINT('',(0.097467468945923,-0.152327494193817,0.0025));
#2312=CARTESIAN_POINT('',(0.097467468945923,-0.124327494193817,0.0025));
#2313=CARTESIAN_POINT('',(0.097467468945923,-0.124327494193817,0.0175));
#2314=CARTESIAN_POINT('',(0.210467468945923,-0.124327494193817,0.02));
#2315=CARTESIAN_POINT('',(0.319967468945923,-0.124327494193817,0.0225));
#2316=CARTESIAN_POINT('',(0.319967468945923,-0.124327494193817,0.0025));
#2317=CARTESIAN_POINT('',(0.210467468945923,-0.124327494193817,0.0025));
#2318=CARTESIAN_POINT('',(0.319967468945923,-0.152327494193817,0.0225));
#2319=CARTESIAN_POINT('',(0.319967468945923,-0.152327494193817,0.0025));
#2320=CARTESIAN_POINT('',(0.319967468945923,-0.180327494193817,0.0025));
#2321=CARTESIAN_POINT('',(0.319967468945923,-0.180327494193817,0.0225));
#2322=CARTESIAN_POINT('',(0.325217468945923,-0.180327494193817,0.0225));
#2323=CARTESIAN_POINT('',(0.325217468945923,-0.180327494193817,0.0025));
#2324=CARTESIAN_POINT('',(-0.0616736940725536,-0.0688652148425581,0.0025));
#2325=CARTESIAN_POINT('',(0.298027730700405,-0.132327494193817,0.0025));
#2326=CARTESIAN_POINT('',(0.298027730700405,-0.127327494193817,0.0025));
#2327=CARTESIAN_POINT('',(0.298027730700405,-0.137327494193817,0.0025));
#2328=CARTESIAN_POINT('',(0.213027730700405,-0.137327494193817,0.0025));
#2329=CARTESIAN_POINT('',(0.128027730700405,-0.137327494193817,0.0025));
#2330=CARTESIAN_POINT('',(0.128027730700405,-0.132327494193817,0.0025));
#2331=CARTESIAN_POINT('',(0.128027730700405,-0.127327494193817,0.0025));
#2332=CARTESIAN_POINT('',(0.213027730700405,-0.127327494193817,0.0025));
#2333=CARTESIAN_POINT('',(0.298027730700405,-0.132327494193817,0.0225));
#2334=CARTESIAN_POINT('',(0.298027730700405,-0.127327494193817,0.0225));
#2335=CARTESIAN_POINT('',(0.298027730700405,-0.127327494193817,0.0225));
#2336=CARTESIAN_POINT('',(0.298027730700405,-0.132327494193817,0.0225));
#2337=CARTESIAN_POINT('',(0.298027730700405,-0.137327494193817,0.0225));
#2338=CARTESIAN_POINT('',(0.298027730700405,-0.137327494193817,0.0225));
#2339=CARTESIAN_POINT('',(0.213027730700405,-0.127327494193817,0.0225));
#2340=CARTESIAN_POINT('',(0.128027730700405,-0.127327494193817,0.0225));
#2341=CARTESIAN_POINT('',(0.128027730700405,-0.127327494193817,0.0225));
#2342=CARTESIAN_POINT('',(0.213027730700405,-0.127327494193817,0.0225));
#2343=CARTESIAN_POINT('',(0.128027730700405,-0.132327494193817,0.0225));
#2344=CARTESIAN_POINT('',(0.128027730700405,-0.137327494193817,0.0225));
#2345=CARTESIAN_POINT('',(0.128027730700405,-0.137327494193817,0.0225));
#2346=CARTESIAN_POINT('',(0.128027730700405,-0.132327494193817,0.0225));
#2347=CARTESIAN_POINT('',(0.213027730700405,-0.137327494193817,0.0225));
#2348=CARTESIAN_POINT('',(0.213027730700405,-0.137327494193817,0.0225));
#2349=CARTESIAN_POINT('',(0.228276906226783,-0.295327494193817,0.0225));
#2350=MECHANICAL_DESIGN_GEOMETRIC_PRESENTATION_REPRESENTATION('',(#1478),
#2351);
#2351=(
GEOMETRIC_REPRESENTATION_CONTEXT(3)
GLOBAL_UNCERTAINTY_ASSIGNED_CONTEXT((#2352))
GLOBAL_UNIT_ASSIGNED_CONTEXT((#2355,#2354,#2353))
REPRESENTATION_CONTEXT('BMat4','TOP_LEVEL_ASSEMBLY_PART')
);
#2352=UNCERTAINTY_MEASURE_WITH_UNIT(LENGTH_MEASURE(1.E-8),#2355,
'DISTANCE_ACCURACY_VALUE','Maximum Tolerance applied to model');
#2353=(
NAMED_UNIT(*)
SI_UNIT($,.STERADIAN.)
SOLID_ANGLE_UNIT()
);
#2354=(
NAMED_UNIT(*)
PLANE_ANGLE_UNIT()
SI_UNIT($,.RADIAN.)
);
#2355=(
LENGTH_UNIT()
NAMED_UNIT(*)
SI_UNIT($,.METRE.)
);
#2356=PRODUCT_DEFINITION_SHAPE('','',#2357);
#2357=PRODUCT_DEFINITION('','',#2359,#2358);
#2358=PRODUCT_DEFINITION_CONTEXT('',#2365,'design');
#2359=PRODUCT_DEFINITION_FORMATION_WITH_SPECIFIED_SOURCE('','',#2361,
 .NOT_KNOWN.);
#2360=PRODUCT_RELATED_PRODUCT_CATEGORY('','',(#2361));
#2361=PRODUCT('BMat4','BMat4','BMat4',(#2363));
#2362=PRODUCT_CATEGORY('','');
#2363=PRODUCT_CONTEXT('',#2365,'mechanical');
#2364=APPLICATION_PROTOCOL_DEFINITION('international standard',
'ap242_managed_model_based_3d_engineering',2020,#2365);
#2365=APPLICATION_CONTEXT('managed model based 3d engineering');
ENDSEC;
END-ISO-10303-21;
