ISO-10303-21;
HEADER;
/* Generated by software containing ST-Developer
 * from STEP Tools, Inc. (www.steptools.com) 
 */
/* OPTION: using custom renumber hook */

FILE_DESCRIPTION(
/* description */ ('STEP AP242 Edition 2',
'CAx-IF Rec.Pracs.---Representation and Presentation of Product Manufa
cturing Information (PMI)---4.0---2014-10-13',
'CAx-IF Rec.Pracs.---3D Tessellated Geometry---0.4---2014-09-14','2;1',
'CAx-IF Rec.Pracs.---User Defined Attributes---1.5---2016-08-15'),
/* implementation_level */ '2;1');

FILE_NAME(
/* name */ 'Part Studio 1 - OnOff Button',
/* time_stamp */ '2026-05-20T23:41:51Z',
/* author */ (''),
/* organization */ (''),
/* preprocessor_version */ 'ST-DEVELOPER v20',
/* originating_system */ 'ONSHAPE BY PTC INC, 1.215',
/* authorisation */ '  ');

FILE_SCHEMA (('AP242_MANAGED_MODEL_BASED_3D_ENGINEERING_MIM_LF { 1 0 10303 442 3 1 4 }'));
ENDSEC;

DATA;
#10=SHAPE_REPRESENTATION_RELATIONSHIP('','',#347,#11);
#11=ADVANCED_BREP_SHAPE_REPRESENTATION('',(#345),#565);
#12=CYLINDRICAL_SURFACE('',#363,0.002);
#13=CYLINDRICAL_SURFACE('',#365,0.000800027078139472);
#14=CYLINDRICAL_SURFACE('',#367,0.0015);
#15=CYLINDRICAL_SURFACE('',#369,0.000453240817011807);
#16=CIRCLE('',#350,0.0015);
#17=CIRCLE('',#351,0.000453240817011807);
#18=CIRCLE('',#352,0.002);
#19=CIRCLE('',#353,0.000800027078139472);
#20=CIRCLE('',#364,0.002);
#21=CIRCLE('',#366,0.000800027078139472);
#22=CIRCLE('',#368,0.0015);
#23=CIRCLE('',#370,0.000453240817011807);
#24=ORIENTED_EDGE('',*,*,#112,.T.);
#25=ORIENTED_EDGE('',*,*,#113,.T.);
#26=ORIENTED_EDGE('',*,*,#114,.T.);
#27=ORIENTED_EDGE('',*,*,#115,.T.);
#28=ORIENTED_EDGE('',*,*,#116,.F.);
#29=ORIENTED_EDGE('',*,*,#117,.F.);
#30=ORIENTED_EDGE('',*,*,#118,.T.);
#31=ORIENTED_EDGE('',*,*,#119,.T.);
#32=ORIENTED_EDGE('',*,*,#120,.T.);
#33=ORIENTED_EDGE('',*,*,#121,.T.);
#34=ORIENTED_EDGE('',*,*,#122,.F.);
#35=ORIENTED_EDGE('',*,*,#123,.T.);
#36=ORIENTED_EDGE('',*,*,#124,.T.);
#37=ORIENTED_EDGE('',*,*,#125,.T.);
#38=ORIENTED_EDGE('',*,*,#126,.F.);
#39=ORIENTED_EDGE('',*,*,#127,.T.);
#40=ORIENTED_EDGE('',*,*,#126,.T.);
#41=ORIENTED_EDGE('',*,*,#128,.T.);
#42=ORIENTED_EDGE('',*,*,#129,.F.);
#43=ORIENTED_EDGE('',*,*,#130,.F.);
#44=ORIENTED_EDGE('',*,*,#129,.T.);
#45=ORIENTED_EDGE('',*,*,#131,.T.);
#46=ORIENTED_EDGE('',*,*,#132,.F.);
#47=ORIENTED_EDGE('',*,*,#133,.F.);
#48=ORIENTED_EDGE('',*,*,#132,.T.);
#49=ORIENTED_EDGE('',*,*,#134,.T.);
#50=ORIENTED_EDGE('',*,*,#124,.F.);
#51=ORIENTED_EDGE('',*,*,#135,.T.);
#52=ORIENTED_EDGE('',*,*,#127,.F.);
#53=ORIENTED_EDGE('',*,*,#130,.T.);
#54=ORIENTED_EDGE('',*,*,#133,.T.);
#55=ORIENTED_EDGE('',*,*,#135,.F.);
#56=ORIENTED_EDGE('',*,*,#136,.F.);
#57=ORIENTED_EDGE('',*,*,#128,.F.);
#58=ORIENTED_EDGE('',*,*,#137,.F.);
#59=ORIENTED_EDGE('',*,*,#115,.F.);
#60=ORIENTED_EDGE('',*,*,#137,.T.);
#61=ORIENTED_EDGE('',*,*,#125,.F.);
#62=ORIENTED_EDGE('',*,*,#138,.F.);
#63=ORIENTED_EDGE('',*,*,#112,.F.);
#64=ORIENTED_EDGE('',*,*,#136,.T.);
#65=ORIENTED_EDGE('',*,*,#114,.F.);
#66=ORIENTED_EDGE('',*,*,#139,.F.);
#67=ORIENTED_EDGE('',*,*,#131,.F.);
#68=ORIENTED_EDGE('',*,*,#138,.T.);
#69=ORIENTED_EDGE('',*,*,#134,.F.);
#70=ORIENTED_EDGE('',*,*,#139,.T.);
#71=ORIENTED_EDGE('',*,*,#113,.F.);
#72=ORIENTED_EDGE('',*,*,#122,.T.);
#73=ORIENTED_EDGE('',*,*,#140,.F.);
#74=ORIENTED_EDGE('',*,*,#141,.F.);
#75=ORIENTED_EDGE('',*,*,#142,.T.);
#76=ORIENTED_EDGE('',*,*,#123,.F.);
#77=ORIENTED_EDGE('',*,*,#142,.F.);
#78=ORIENTED_EDGE('',*,*,#143,.T.);
#79=ORIENTED_EDGE('',*,*,#144,.T.);
#80=ORIENTED_EDGE('',*,*,#120,.F.);
#81=ORIENTED_EDGE('',*,*,#144,.F.);
#82=ORIENTED_EDGE('',*,*,#145,.T.);
#83=ORIENTED_EDGE('',*,*,#146,.T.);
#84=ORIENTED_EDGE('',*,*,#121,.F.);
#85=ORIENTED_EDGE('',*,*,#146,.F.);
#86=ORIENTED_EDGE('',*,*,#147,.T.);
#87=ORIENTED_EDGE('',*,*,#140,.T.);
#88=ORIENTED_EDGE('',*,*,#141,.T.);
#89=ORIENTED_EDGE('',*,*,#147,.F.);
#90=ORIENTED_EDGE('',*,*,#145,.F.);
#91=ORIENTED_EDGE('',*,*,#143,.F.);
#92=ORIENTED_EDGE('',*,*,#117,.T.);
#93=ORIENTED_EDGE('',*,*,#148,.F.);
#94=ORIENTED_EDGE('',*,*,#149,.F.);
#95=ORIENTED_EDGE('',*,*,#150,.T.);
#96=ORIENTED_EDGE('',*,*,#118,.F.);
#97=ORIENTED_EDGE('',*,*,#150,.F.);
#98=ORIENTED_EDGE('',*,*,#151,.T.);
#99=ORIENTED_EDGE('',*,*,#152,.T.);
#100=ORIENTED_EDGE('',*,*,#119,.F.);
#101=ORIENTED_EDGE('',*,*,#152,.F.);
#102=ORIENTED_EDGE('',*,*,#153,.T.);
#103=ORIENTED_EDGE('',*,*,#154,.T.);
#104=ORIENTED_EDGE('',*,*,#116,.T.);
#105=ORIENTED_EDGE('',*,*,#154,.F.);
#106=ORIENTED_EDGE('',*,*,#155,.F.);
#107=ORIENTED_EDGE('',*,*,#148,.T.);
#108=ORIENTED_EDGE('',*,*,#149,.T.);
#109=ORIENTED_EDGE('',*,*,#155,.T.);
#110=ORIENTED_EDGE('',*,*,#153,.F.);
#111=ORIENTED_EDGE('',*,*,#151,.F.);
#112=EDGE_CURVE('',#156,#157,#184,.T.);
#113=EDGE_CURVE('',#157,#158,#185,.T.);
#114=EDGE_CURVE('',#158,#159,#186,.T.);
#115=EDGE_CURVE('',#159,#156,#187,.T.);
#116=EDGE_CURVE('',#160,#161,#188,.T.);
#117=EDGE_CURVE('',#162,#160,#189,.T.);
#118=EDGE_CURVE('',#162,#163,#190,.T.);
#119=EDGE_CURVE('',#163,#161,#191,.T.);
#120=EDGE_CURVE('',#164,#165,#16,.T.);
#121=EDGE_CURVE('',#165,#166,#17,.T.);
#122=EDGE_CURVE('',#167,#166,#18,.T.);
#123=EDGE_CURVE('',#167,#164,#19,.T.);
#124=EDGE_CURVE('',#168,#169,#192,.T.);
#125=EDGE_CURVE('',#169,#170,#193,.T.);
#126=EDGE_CURVE('',#171,#170,#194,.T.);
#127=EDGE_CURVE('',#171,#168,#195,.T.);
#128=EDGE_CURVE('',#170,#172,#196,.T.);
#129=EDGE_CURVE('',#173,#172,#197,.T.);
#130=EDGE_CURVE('',#171,#173,#198,.T.);
#131=EDGE_CURVE('',#172,#174,#199,.T.);
#132=EDGE_CURVE('',#175,#174,#200,.T.);
#133=EDGE_CURVE('',#173,#175,#201,.T.);
#134=EDGE_CURVE('',#174,#169,#202,.T.);
#135=EDGE_CURVE('',#168,#175,#203,.T.);
#136=EDGE_CURVE('',#172,#159,#204,.T.);
#137=EDGE_CURVE('',#156,#170,#205,.T.);
#138=EDGE_CURVE('',#157,#169,#206,.F.);
#139=EDGE_CURVE('',#174,#158,#207,.T.);
#140=EDGE_CURVE('',#176,#166,#208,.T.);
#141=EDGE_CURVE('',#177,#176,#20,.T.);
#142=EDGE_CURVE('',#177,#167,#209,.T.);
#143=EDGE_CURVE('',#177,#178,#21,.T.);
#144=EDGE_CURVE('',#178,#164,#210,.T.);
#145=EDGE_CURVE('',#178,#179,#22,.T.);
#146=EDGE_CURVE('',#179,#165,#211,.T.);
#147=EDGE_CURVE('',#179,#176,#23,.T.);
#148=EDGE_CURVE('',#180,#160,#212,.T.);
#149=EDGE_CURVE('',#181,#180,#213,.T.);
#150=EDGE_CURVE('',#181,#162,#214,.T.);
#151=EDGE_CURVE('',#181,#182,#215,.T.);
#152=EDGE_CURVE('',#182,#163,#216,.T.);
#153=EDGE_CURVE('',#182,#183,#217,.T.);
#154=EDGE_CURVE('',#183,#161,#218,.T.);
#155=EDGE_CURVE('',#180,#183,#219,.T.);
#156=VERTEX_POINT('',#474);
#157=VERTEX_POINT('',#475);
#158=VERTEX_POINT('',#477);
#159=VERTEX_POINT('',#479);
#160=VERTEX_POINT('',#482);
#161=VERTEX_POINT('',#483);
#162=VERTEX_POINT('',#485);
#163=VERTEX_POINT('',#487);
#164=VERTEX_POINT('',#490);
#165=VERTEX_POINT('',#491);
#166=VERTEX_POINT('',#493);
#167=VERTEX_POINT('',#495);
#168=VERTEX_POINT('',#499);
#169=VERTEX_POINT('',#500);
#170=VERTEX_POINT('',#502);
#171=VERTEX_POINT('',#504);
#172=VERTEX_POINT('',#508);
#173=VERTEX_POINT('',#510);
#174=VERTEX_POINT('',#514);
#175=VERTEX_POINT('',#516);
#176=VERTEX_POINT('',#532);
#177=VERTEX_POINT('',#534);
#178=VERTEX_POINT('',#538);
#179=VERTEX_POINT('',#542);
#180=VERTEX_POINT('',#549);
#181=VERTEX_POINT('',#551);
#182=VERTEX_POINT('',#555);
#183=VERTEX_POINT('',#559);
#184=LINE('',#473,#220);
#185=LINE('',#476,#221);
#186=LINE('',#478,#222);
#187=LINE('',#480,#223);
#188=LINE('',#481,#224);
#189=LINE('',#484,#225);
#190=LINE('',#486,#226);
#191=LINE('',#488,#227);
#192=LINE('',#498,#228);
#193=LINE('',#501,#229);
#194=LINE('',#503,#230);
#195=LINE('',#505,#231);
#196=LINE('',#507,#232);
#197=LINE('',#509,#233);
#198=LINE('',#511,#234);
#199=LINE('',#513,#235);
#200=LINE('',#515,#236);
#201=LINE('',#517,#237);
#202=LINE('',#519,#238);
#203=LINE('',#520,#239);
#204=LINE('',#523,#240);
#205=LINE('',#524,#241);
#206=LINE('',#526,#242);
#207=LINE('',#528,#243);
#208=LINE('',#531,#244);
#209=LINE('',#535,#245);
#210=LINE('',#539,#246);
#211=LINE('',#543,#247);
#212=LINE('',#548,#248);
#213=LINE('',#550,#249);
#214=LINE('',#552,#250);
#215=LINE('',#554,#251);
#216=LINE('',#556,#252);
#217=LINE('',#558,#253);
#218=LINE('',#560,#254);
#219=LINE('',#562,#255);
#220=VECTOR('',#381,1.);
#221=VECTOR('',#382,1.);
#222=VECTOR('',#383,1.);
#223=VECTOR('',#384,1.);
#224=VECTOR('',#385,1.);
#225=VECTOR('',#386,1.);
#226=VECTOR('',#387,1.);
#227=VECTOR('',#388,1.);
#228=VECTOR('',#399,1.);
#229=VECTOR('',#400,1.);
#230=VECTOR('',#401,1.);
#231=VECTOR('',#402,1.);
#232=VECTOR('',#405,1.);
#233=VECTOR('',#406,1.);
#234=VECTOR('',#407,1.);
#235=VECTOR('',#410,1.);
#236=VECTOR('',#411,1.);
#237=VECTOR('',#412,1.);
#238=VECTOR('',#415,1.);
#239=VECTOR('',#416,1.);
#240=VECTOR('',#421,1.);
#241=VECTOR('',#422,1.);
#242=VECTOR('',#425,1.);
#243=VECTOR('',#428,1.);
#244=VECTOR('',#433,1.);
#245=VECTOR('',#436,1.);
#246=VECTOR('',#441,1.);
#247=VECTOR('',#446,1.);
#248=VECTOR('',#455,1.);
#249=VECTOR('',#456,1.);
#250=VECTOR('',#457,1.);
#251=VECTOR('',#460,1.);
#252=VECTOR('',#461,1.);
#253=VECTOR('',#464,1.);
#254=VECTOR('',#465,1.);
#255=VECTOR('',#468,1.);
#256=EDGE_LOOP('',(#24,#25,#26,#27));
#257=EDGE_LOOP('',(#28,#29,#30,#31));
#258=EDGE_LOOP('',(#32,#33,#34,#35));
#259=EDGE_LOOP('',(#36,#37,#38,#39));
#260=EDGE_LOOP('',(#40,#41,#42,#43));
#261=EDGE_LOOP('',(#44,#45,#46,#47));
#262=EDGE_LOOP('',(#48,#49,#50,#51));
#263=EDGE_LOOP('',(#52,#53,#54,#55));
#264=EDGE_LOOP('',(#56,#57,#58,#59));
#265=EDGE_LOOP('',(#60,#61,#62,#63));
#266=EDGE_LOOP('',(#64,#65,#66,#67));
#267=EDGE_LOOP('',(#68,#69,#70,#71));
#268=EDGE_LOOP('',(#72,#73,#74,#75));
#269=EDGE_LOOP('',(#76,#77,#78,#79));
#270=EDGE_LOOP('',(#80,#81,#82,#83));
#271=EDGE_LOOP('',(#84,#85,#86,#87));
#272=EDGE_LOOP('',(#88,#89,#90,#91));
#273=EDGE_LOOP('',(#92,#93,#94,#95));
#274=EDGE_LOOP('',(#96,#97,#98,#99));
#275=EDGE_LOOP('',(#100,#101,#102,#103));
#276=EDGE_LOOP('',(#104,#105,#106,#107));
#277=EDGE_LOOP('',(#108,#109,#110,#111));
#278=FACE_BOUND('',#256,.T.);
#279=FACE_BOUND('',#257,.T.);
#280=FACE_BOUND('',#258,.T.);
#281=FACE_BOUND('',#259,.T.);
#282=FACE_BOUND('',#260,.T.);
#283=FACE_BOUND('',#261,.T.);
#284=FACE_BOUND('',#262,.T.);
#285=FACE_BOUND('',#263,.T.);
#286=FACE_BOUND('',#264,.T.);
#287=FACE_BOUND('',#265,.T.);
#288=FACE_BOUND('',#266,.T.);
#289=FACE_BOUND('',#267,.T.);
#290=FACE_BOUND('',#268,.T.);
#291=FACE_BOUND('',#269,.T.);
#292=FACE_BOUND('',#270,.T.);
#293=FACE_BOUND('',#271,.T.);
#294=FACE_BOUND('',#272,.T.);
#295=FACE_BOUND('',#273,.T.);
#296=FACE_BOUND('',#274,.T.);
#297=FACE_BOUND('',#275,.T.);
#298=FACE_BOUND('',#276,.T.);
#299=FACE_BOUND('',#277,.T.);
#300=PLANE('',#349);
#301=PLANE('',#354);
#302=PLANE('',#355);
#303=PLANE('',#356);
#304=PLANE('',#357);
#305=PLANE('',#358);
#306=PLANE('',#359);
#307=PLANE('',#360);
#308=PLANE('',#361);
#309=PLANE('',#362);
#310=PLANE('',#371);
#311=PLANE('',#372);
#312=PLANE('',#373);
#313=PLANE('',#374);
#314=PLANE('',#375);
#315=PLANE('',#376);
#316=ADVANCED_FACE('',(#278,#279,#280),#300,.F.);
#317=ADVANCED_FACE('',(#281),#301,.T.);
#318=ADVANCED_FACE('',(#282),#302,.F.);
#319=ADVANCED_FACE('',(#283),#303,.F.);
#320=ADVANCED_FACE('',(#284),#304,.T.);
#321=ADVANCED_FACE('',(#285),#305,.T.);
#322=ADVANCED_FACE('',(#286),#306,.F.);
#323=ADVANCED_FACE('',(#287),#307,.T.);
#324=ADVANCED_FACE('',(#288),#308,.F.);
#325=ADVANCED_FACE('',(#289),#309,.T.);
#326=ADVANCED_FACE('',(#290),#12,.F.);
#327=ADVANCED_FACE('',(#291),#13,.F.);
#328=ADVANCED_FACE('',(#292),#14,.T.);
#329=ADVANCED_FACE('',(#293),#15,.F.);
#330=ADVANCED_FACE('',(#294),#310,.F.);
#331=ADVANCED_FACE('',(#295),#311,.F.);
#332=ADVANCED_FACE('',(#296),#312,.T.);
#333=ADVANCED_FACE('',(#297),#313,.T.);
#334=ADVANCED_FACE('',(#298),#314,.F.);
#335=ADVANCED_FACE('',(#299),#315,.F.);
#336=CLOSED_SHELL('',(#316,#317,#318,#319,#320,#321,#322,#323,#324,#325,
#326,#327,#328,#329,#330,#331,#332,#333,#334,#335));
#337=STYLED_ITEM('',(#338),#345);
#338=PRESENTATION_STYLE_ASSIGNMENT((#339));
#339=SURFACE_STYLE_USAGE(.BOTH.,#340);
#340=SURFACE_SIDE_STYLE('',(#341));
#341=SURFACE_STYLE_FILL_AREA(#342);
#342=FILL_AREA_STYLE('',(#343));
#343=FILL_AREA_STYLE_COLOUR('',#344);
#344=COLOUR_RGB('',0.498039215686275,0.498039215686275,0.498039215686275);
#345=MANIFOLD_SOLID_BREP('OnOff Button',#336);
#346=SHAPE_DEFINITION_REPRESENTATION(#570,#347);
#347=SHAPE_REPRESENTATION('OnOff Button',(#348),#565);
#348=AXIS2_PLACEMENT_3D('',#471,#377,#378);
#349=AXIS2_PLACEMENT_3D('',#472,#379,#380);
#350=AXIS2_PLACEMENT_3D('',#489,#389,#390);
#351=AXIS2_PLACEMENT_3D('',#492,#391,#392);
#352=AXIS2_PLACEMENT_3D('',#494,#393,#394);
#353=AXIS2_PLACEMENT_3D('',#496,#395,#396);
#354=AXIS2_PLACEMENT_3D('',#497,#397,#398);
#355=AXIS2_PLACEMENT_3D('',#506,#403,#404);
#356=AXIS2_PLACEMENT_3D('',#512,#408,#409);
#357=AXIS2_PLACEMENT_3D('',#518,#413,#414);
#358=AXIS2_PLACEMENT_3D('',#521,#417,#418);
#359=AXIS2_PLACEMENT_3D('',#522,#419,#420);
#360=AXIS2_PLACEMENT_3D('',#525,#423,#424);
#361=AXIS2_PLACEMENT_3D('',#527,#426,#427);
#362=AXIS2_PLACEMENT_3D('',#529,#429,#430);
#363=AXIS2_PLACEMENT_3D('',#530,#431,#432);
#364=AXIS2_PLACEMENT_3D('',#533,#434,#435);
#365=AXIS2_PLACEMENT_3D('',#536,#437,#438);
#366=AXIS2_PLACEMENT_3D('',#537,#439,#440);
#367=AXIS2_PLACEMENT_3D('',#540,#442,#443);
#368=AXIS2_PLACEMENT_3D('',#541,#444,#445);
#369=AXIS2_PLACEMENT_3D('',#544,#447,#448);
#370=AXIS2_PLACEMENT_3D('',#545,#449,#450);
#371=AXIS2_PLACEMENT_3D('',#546,#451,#452);
#372=AXIS2_PLACEMENT_3D('',#547,#453,#454);
#373=AXIS2_PLACEMENT_3D('',#553,#458,#459);
#374=AXIS2_PLACEMENT_3D('',#557,#462,#463);
#375=AXIS2_PLACEMENT_3D('',#561,#466,#467);
#376=AXIS2_PLACEMENT_3D('',#563,#469,#470);
#377=DIRECTION('',(0.,0.,1.));
#378=DIRECTION('',(1.,0.,0.));
#379=DIRECTION('',(0.,0.,1.));
#380=DIRECTION('',(1.,0.,0.));
#381=DIRECTION('',(1.,0.,0.));
#382=DIRECTION('',(0.,-1.,0.));
#383=DIRECTION('',(-1.,0.,0.));
#384=DIRECTION('',(0.,1.,0.));
#385=DIRECTION('',(-1.,0.,0.));
#386=DIRECTION('',(0.,-1.,0.));
#387=DIRECTION('',(-1.,0.,0.));
#388=DIRECTION('',(0.,-1.,0.));
#389=DIRECTION('',(0.,0.,-1.));
#390=DIRECTION('',(1.,0.,0.));
#391=DIRECTION('',(0.,0.,1.));
#392=DIRECTION('',(1.,0.,0.));
#393=DIRECTION('',(0.,0.,-1.));
#394=DIRECTION('',(1.,0.,0.));
#395=DIRECTION('',(0.,0.,1.));
#396=DIRECTION('',(1.,0.,0.));
#397=DIRECTION('',(0.,1.,0.));
#398=DIRECTION('',(0.,0.,1.));
#399=DIRECTION('',(0.,0.,-1.));
#400=DIRECTION('',(-1.,0.,0.));
#401=DIRECTION('',(0.,0.,-1.));
#402=DIRECTION('',(1.,0.,0.));
#403=DIRECTION('',(1.,0.,0.));
#404=DIRECTION('',(0.,0.,-1.));
#405=DIRECTION('',(0.,-1.,0.));
#406=DIRECTION('',(0.,0.,-1.));
#407=DIRECTION('',(0.,-1.,0.));
#408=DIRECTION('',(0.,1.,0.));
#409=DIRECTION('',(0.,0.,1.));
#410=DIRECTION('',(1.,0.,0.));
#411=DIRECTION('',(0.,0.,-1.));
#412=DIRECTION('',(1.,0.,0.));
#413=DIRECTION('',(1.,0.,0.));
#414=DIRECTION('',(0.,0.,-1.));
#415=DIRECTION('',(0.,1.,0.));
#416=DIRECTION('',(0.,-1.,0.));
#417=DIRECTION('',(0.,0.,1.));
#418=DIRECTION('',(1.,0.,0.));
#419=DIRECTION('',(0.894427190999916,0.,0.447213595499959));
#420=DIRECTION('',(0.,-1.,0.));
#421=DIRECTION('',(0.408248290463864,0.408248290463864,-0.816496580927726));
#422=DIRECTION('',(-0.408248290463864,0.408248290463864,0.816496580927726));
#423=DIRECTION('',(0.,0.894427190999916,-0.447213595499959));
#424=DIRECTION('',(-1.,0.,0.));
#425=DIRECTION('',(-0.408248290463864,-0.408248290463864,-0.816496580927726));
#426=DIRECTION('',(0.,0.894427190999916,0.447213595499959));
#427=DIRECTION('',(1.,0.,0.));
#428=DIRECTION('',(-0.408248290463864,0.408248290463864,-0.816496580927726));
#429=DIRECTION('',(0.894427190999916,0.,-0.447213595499959));
#430=DIRECTION('',(0.,1.,0.));
#431=DIRECTION('',(0.,0.,-1.));
#432=DIRECTION('',(-1.,0.,0.));
#433=DIRECTION('',(0.,0.,-1.));
#434=DIRECTION('',(0.,0.,-1.));
#435=DIRECTION('',(1.,0.,0.));
#436=DIRECTION('',(0.,0.,-1.));
#437=DIRECTION('',(0.,0.,-1.));
#438=DIRECTION('',(-1.,0.,0.));
#439=DIRECTION('',(0.,0.,1.));
#440=DIRECTION('',(1.,0.,0.));
#441=DIRECTION('',(0.,0.,-1.));
#442=DIRECTION('',(0.,0.,-1.));
#443=DIRECTION('',(-1.,0.,0.));
#444=DIRECTION('',(0.,0.,-1.));
#445=DIRECTION('',(1.,0.,0.));
#446=DIRECTION('',(0.,0.,-1.));
#447=DIRECTION('',(0.,0.,-1.));
#448=DIRECTION('',(-1.,0.,0.));
#449=DIRECTION('',(0.,0.,1.));
#450=DIRECTION('',(1.,0.,0.));
#451=DIRECTION('',(0.,0.,1.));
#452=DIRECTION('',(1.,0.,0.));
#453=DIRECTION('',(1.,0.,0.));
#454=DIRECTION('',(0.,0.,-1.));
#455=DIRECTION('',(0.,0.,-1.));
#456=DIRECTION('',(0.,-1.,0.));
#457=DIRECTION('',(0.,0.,-1.));
#458=DIRECTION('',(0.,-1.,0.));
#459=DIRECTION('',(0.,0.,-1.));
#460=DIRECTION('',(-1.,0.,0.));
#461=DIRECTION('',(0.,0.,-1.));
#462=DIRECTION('',(1.,0.,0.));
#463=DIRECTION('',(0.,0.,-1.));
#464=DIRECTION('',(0.,-1.,0.));
#465=DIRECTION('',(0.,0.,-1.));
#466=DIRECTION('',(0.,-1.,0.));
#467=DIRECTION('',(0.,0.,-1.));
#468=DIRECTION('',(-1.,0.,0.));
#469=DIRECTION('',(0.,0.,1.));
#470=DIRECTION('',(1.,0.,0.));
#471=CARTESIAN_POINT('',(0.,0.,0.));
#472=CARTESIAN_POINT('',(-0.0616736940725536,-0.0688652148425581,0.));
#473=CARTESIAN_POINT('',(-0.651280058456472,-0.35095121634943,0.));
#474=CARTESIAN_POINT('',(-0.659080058456472,-0.35095121634943,0.));
#475=CARTESIAN_POINT('',(-0.652280058456472,-0.35095121634943,0.));
#476=CARTESIAN_POINT('',(-0.652280058456472,-0.35875121634943,0.));
#477=CARTESIAN_POINT('',(-0.652280058456472,-0.35775121634943,0.));
#478=CARTESIAN_POINT('',(-0.0616736940725536,-0.35775121634943,0.));
#479=CARTESIAN_POINT('',(-0.659080058456472,-0.35775121634943,0.));
#480=CARTESIAN_POINT('',(-0.659080058456472,-0.0688652148425581,0.));
#481=CARTESIAN_POINT('',(-0.65586627416518,-0.353689229151133,0.));
#482=CARTESIAN_POINT('',(-0.65536627416518,-0.353689229151133,0.));
#483=CARTESIAN_POINT('',(-0.65636627416518,-0.353689229151133,0.));
#484=CARTESIAN_POINT('',(-0.65536627416518,-0.352689229151133,0.));
#485=CARTESIAN_POINT('',(-0.65536627416518,-0.351689229151133,0.));
#486=CARTESIAN_POINT('',(-0.65586627416518,-0.351689229151133,0.));
#487=CARTESIAN_POINT('',(-0.65636627416518,-0.351689229151133,0.));
#488=CARTESIAN_POINT('',(-0.65636627416518,-0.352689229151133,0.));
#489=CARTESIAN_POINT('',(-0.655762849706352,-0.355556476283668,0.));
#490=CARTESIAN_POINT('',(-0.655077342284631,-0.354222272360486,0.));
#491=CARTESIAN_POINT('',(-0.656586201838982,-0.354302645646902,0.));
#492=CARTESIAN_POINT('',(-0.657017939145468,-0.354440595407302,0.));
#493=CARTESIAN_POINT('',(-0.65708734664199,-0.353992700511559,0.));
#494=CARTESIAN_POINT('',(-0.655761903729558,-0.355490432492216,0.));
#495=CARTESIAN_POINT('',(-0.65446431062931,-0.353968508661603,0.));
#496=CARTESIAN_POINT('',(-0.65449240061429,-0.35476804244982,0.));
#497=CARTESIAN_POINT('',(-0.655680058456472,-0.34995121634943,0.01));
#498=CARTESIAN_POINT('',(-0.651280058456472,-0.34995121634943,0.01));
#499=CARTESIAN_POINT('',(-0.651280058456472,-0.34995121634943,0.01));
#500=CARTESIAN_POINT('',(-0.651280058456472,-0.34995121634943,0.002));
#501=CARTESIAN_POINT('',(-0.660080058456472,-0.34995121634943,0.002));
#502=CARTESIAN_POINT('',(-0.660080058456472,-0.34995121634943,0.002));
#503=CARTESIAN_POINT('',(-0.660080058456472,-0.34995121634943,0.01));
#504=CARTESIAN_POINT('',(-0.660080058456472,-0.34995121634943,0.01));
#505=CARTESIAN_POINT('',(-0.655680058456472,-0.34995121634943,0.01));
#506=CARTESIAN_POINT('',(-0.660080058456472,-0.354351216349431,0.01));
#507=CARTESIAN_POINT('',(-0.660080058456472,-0.354351216349431,0.002));
#508=CARTESIAN_POINT('',(-0.660080058456472,-0.35875121634943,0.002));
#509=CARTESIAN_POINT('',(-0.660080058456472,-0.35875121634943,0.01));
#510=CARTESIAN_POINT('',(-0.660080058456472,-0.35875121634943,0.01));
#511=CARTESIAN_POINT('',(-0.660080058456472,-0.354351216349431,0.01));
#512=CARTESIAN_POINT('',(-0.655680058456472,-0.35875121634943,0.01));
#513=CARTESIAN_POINT('',(-0.655680058456472,-0.35875121634943,0.002));
#514=CARTESIAN_POINT('',(-0.651280058456472,-0.35875121634943,0.002));
#515=CARTESIAN_POINT('',(-0.651280058456472,-0.35875121634943,0.01));
#516=CARTESIAN_POINT('',(-0.651280058456472,-0.35875121634943,0.01));
#517=CARTESIAN_POINT('',(-0.655680058456472,-0.35875121634943,0.01));
#518=CARTESIAN_POINT('',(-0.651280058456472,-0.354351216349431,0.01));
#519=CARTESIAN_POINT('',(-0.651280058456472,-0.34995121634943,0.002));
#520=CARTESIAN_POINT('',(-0.651280058456472,-0.354351216349431,0.01));
#521=CARTESIAN_POINT('',(-0.0616736940725536,-0.0688652148425581,0.01));
#522=CARTESIAN_POINT('',(-0.660080058456472,-0.354351216349431,0.002));
#523=CARTESIAN_POINT('',(-0.659346725123139,-0.358017883016097,0.00053333333333331));
#524=CARTESIAN_POINT('',(-0.659346725123139,-0.350684549682764,0.000533333333333346));
#525=CARTESIAN_POINT('',(-0.0616736940725536,-0.35095121634943,0.));
#526=CARTESIAN_POINT('',(-0.553845664392486,-0.252516822285444,0.196868788127973));
#527=CARTESIAN_POINT('',(-0.655680058456472,-0.35875121634943,0.002));
#528=CARTESIAN_POINT('',(-0.652013391789806,-0.358017883016097,0.000533333333333346));
#529=CARTESIAN_POINT('',(-0.652280058456472,-0.0688652148425581,0.));
#530=CARTESIAN_POINT('',(-0.655761903729558,-0.355490432492216,0.001));
#531=CARTESIAN_POINT('',(-0.65708734664199,-0.353992700511559,0.001));
#532=CARTESIAN_POINT('',(-0.65708734664199,-0.353992700511559,0.001));
#533=CARTESIAN_POINT('',(-0.655761903729558,-0.355490432492216,0.001));
#534=CARTESIAN_POINT('',(-0.65446431062931,-0.353968508661603,0.001));
#535=CARTESIAN_POINT('',(-0.65446431062931,-0.353968508661603,0.001));
#536=CARTESIAN_POINT('',(-0.65449240061429,-0.35476804244982,0.001));
#537=CARTESIAN_POINT('',(-0.65449240061429,-0.35476804244982,0.001));
#538=CARTESIAN_POINT('',(-0.655077342284631,-0.354222272360486,0.001));
#539=CARTESIAN_POINT('',(-0.655077342284631,-0.354222272360486,0.001));
#540=CARTESIAN_POINT('',(-0.655762849706352,-0.355556476283668,0.001));
#541=CARTESIAN_POINT('',(-0.655762849706352,-0.355556476283668,0.001));
#542=CARTESIAN_POINT('',(-0.656586201838982,-0.354302645646902,0.001));
#543=CARTESIAN_POINT('',(-0.656586201838982,-0.354302645646902,0.001));
#544=CARTESIAN_POINT('',(-0.657017939145468,-0.354440595407302,0.001));
#545=CARTESIAN_POINT('',(-0.657017939145468,-0.354440595407302,0.001));
#546=CARTESIAN_POINT('',(-0.0616736940725536,-0.0688652148425581,0.001));
#547=CARTESIAN_POINT('',(-0.65536627416518,-0.352689229151133,0.001));
#548=CARTESIAN_POINT('',(-0.65536627416518,-0.353689229151133,0.001));
#549=CARTESIAN_POINT('',(-0.65536627416518,-0.353689229151133,0.001));
#550=CARTESIAN_POINT('',(-0.65536627416518,-0.352689229151133,0.001));
#551=CARTESIAN_POINT('',(-0.65536627416518,-0.351689229151133,0.001));
#552=CARTESIAN_POINT('',(-0.65536627416518,-0.351689229151133,0.001));
#553=CARTESIAN_POINT('',(-0.65586627416518,-0.351689229151133,0.001));
#554=CARTESIAN_POINT('',(-0.65586627416518,-0.351689229151133,0.001));
#555=CARTESIAN_POINT('',(-0.65636627416518,-0.351689229151133,0.001));
#556=CARTESIAN_POINT('',(-0.65636627416518,-0.351689229151133,0.001));
#557=CARTESIAN_POINT('',(-0.65636627416518,-0.352689229151133,0.001));
#558=CARTESIAN_POINT('',(-0.65636627416518,-0.352689229151133,0.001));
#559=CARTESIAN_POINT('',(-0.65636627416518,-0.353689229151133,0.001));
#560=CARTESIAN_POINT('',(-0.65636627416518,-0.353689229151133,0.001));
#561=CARTESIAN_POINT('',(-0.65586627416518,-0.353689229151133,0.001));
#562=CARTESIAN_POINT('',(-0.65586627416518,-0.353689229151133,0.001));
#563=CARTESIAN_POINT('',(-0.0616736940725536,-0.0688652148425581,0.001));
#564=MECHANICAL_DESIGN_GEOMETRIC_PRESENTATION_REPRESENTATION('',(#337),
#565);
#565=(
GEOMETRIC_REPRESENTATION_CONTEXT(3)
GLOBAL_UNCERTAINTY_ASSIGNED_CONTEXT((#566))
GLOBAL_UNIT_ASSIGNED_CONTEXT((#569,#568,#567))
REPRESENTATION_CONTEXT('OnOff Button','TOP_LEVEL_ASSEMBLY_PART')
);
#566=UNCERTAINTY_MEASURE_WITH_UNIT(LENGTH_MEASURE(2.E-7),#569,
'DISTANCE_ACCURACY_VALUE','Maximum Tolerance applied to model');
#567=(
NAMED_UNIT(*)
SI_UNIT($,.STERADIAN.)
SOLID_ANGLE_UNIT()
);
#568=(
NAMED_UNIT(*)
PLANE_ANGLE_UNIT()
SI_UNIT($,.RADIAN.)
);
#569=(
LENGTH_UNIT()
NAMED_UNIT(*)
SI_UNIT($,.METRE.)
);
#570=PRODUCT_DEFINITION_SHAPE('','',#571);
#571=PRODUCT_DEFINITION('','',#573,#572);
#572=PRODUCT_DEFINITION_CONTEXT('',#579,'design');
#573=PRODUCT_DEFINITION_FORMATION_WITH_SPECIFIED_SOURCE('','',#575,
 .NOT_KNOWN.);
#574=PRODUCT_RELATED_PRODUCT_CATEGORY('','',(#575));
#575=PRODUCT('OnOff Button','OnOff Button','OnOff Button',(#577));
#576=PRODUCT_CATEGORY('','');
#577=PRODUCT_CONTEXT('',#579,'mechanical');
#578=APPLICATION_PROTOCOL_DEFINITION('international standard',
'ap242_managed_model_based_3d_engineering',2020,#579);
#579=APPLICATION_CONTEXT('managed model based 3d engineering');
ENDSEC;
END-ISO-10303-21;
