ISO-10303-21;
HEADER;
/* Generated by software containing ST-Developer
 * from STEP Tools, Inc. (www.steptools.com) 
 */
/* OPTION: using custom renumber hook */

FILE_DESCRIPTION(
/* description */ ('STEP AP242 Edition 2',
'CAx-IF Rec.Pracs.---Representation and Presentation of Product Manufa
cturing Information (PMI)---4.0---2014-10-13',
'CAx-IF Rec.Pracs.---3D Tessellated Geometry---0.4---2014-09-14','2;1',
'CAx-IF Rec.Pracs.---User Defined Attributes---1.5---2016-08-15'),
/* implementation_level */ '2;1');

FILE_NAME(
/* name */ 'Part Studio 1 - BMat2O',
/* time_stamp */ '2026-05-20T23:41:51Z',
/* author */ (''),
/* organization */ (''),
/* preprocessor_version */ 'ST-DEVELOPER v20',
/* originating_system */ 'ONSHAPE BY PTC INC, 1.215',
/* authorisation */ '  ');

FILE_SCHEMA (('AP242_MANAGED_MODEL_BASED_3D_ENGINEERING_MIM_LF { 1 0 10303 442 3 1 4 }'));
ENDSEC;

DATA;
#10=SHAPE_REPRESENTATION_RELATIONSHIP('','',#659,#11);
#11=ADVANCED_BREP_SHAPE_REPRESENTATION('',(#657),#1039);
#12=CYLINDRICAL_SURFACE('',#671,0.005);
#13=CIRCLE('',#662,0.005);
#14=CIRCLE('',#672,0.005);
#15=ORIENTED_EDGE('',*,*,#187,.T.);
#16=ORIENTED_EDGE('',*,*,#188,.F.);
#17=ORIENTED_EDGE('',*,*,#189,.F.);
#18=ORIENTED_EDGE('',*,*,#190,.T.);
#19=ORIENTED_EDGE('',*,*,#191,.T.);
#20=ORIENTED_EDGE('',*,*,#192,.F.);
#21=ORIENTED_EDGE('',*,*,#193,.F.);
#22=ORIENTED_EDGE('',*,*,#194,.F.);
#23=ORIENTED_EDGE('',*,*,#195,.T.);
#24=ORIENTED_EDGE('',*,*,#196,.T.);
#25=ORIENTED_EDGE('',*,*,#197,.F.);
#26=ORIENTED_EDGE('',*,*,#198,.T.);
#27=ORIENTED_EDGE('',*,*,#199,.T.);
#28=ORIENTED_EDGE('',*,*,#200,.T.);
#29=ORIENTED_EDGE('',*,*,#201,.T.);
#30=ORIENTED_EDGE('',*,*,#202,.T.);
#31=ORIENTED_EDGE('',*,*,#203,.F.);
#32=ORIENTED_EDGE('',*,*,#204,.F.);
#33=ORIENTED_EDGE('',*,*,#205,.F.);
#34=ORIENTED_EDGE('',*,*,#206,.F.);
#35=ORIENTED_EDGE('',*,*,#207,.T.);
#36=ORIENTED_EDGE('',*,*,#208,.F.);
#37=ORIENTED_EDGE('',*,*,#209,.F.);
#38=ORIENTED_EDGE('',*,*,#210,.T.);
#39=ORIENTED_EDGE('',*,*,#211,.T.);
#40=ORIENTED_EDGE('',*,*,#212,.F.);
#41=ORIENTED_EDGE('',*,*,#213,.F.);
#42=ORIENTED_EDGE('',*,*,#214,.T.);
#43=ORIENTED_EDGE('',*,*,#215,.T.);
#44=ORIENTED_EDGE('',*,*,#216,.T.);
#45=ORIENTED_EDGE('',*,*,#217,.F.);
#46=ORIENTED_EDGE('',*,*,#218,.F.);
#47=ORIENTED_EDGE('',*,*,#206,.T.);
#48=ORIENTED_EDGE('',*,*,#219,.T.);
#49=ORIENTED_EDGE('',*,*,#213,.T.);
#50=ORIENTED_EDGE('',*,*,#220,.T.);
#51=ORIENTED_EDGE('',*,*,#221,.F.);
#52=ORIENTED_EDGE('',*,*,#222,.F.);
#53=ORIENTED_EDGE('',*,*,#216,.F.);
#54=ORIENTED_EDGE('',*,*,#223,.T.);
#55=ORIENTED_EDGE('',*,*,#207,.F.);
#56=ORIENTED_EDGE('',*,*,#222,.T.);
#57=ORIENTED_EDGE('',*,*,#224,.T.);
#58=ORIENTED_EDGE('',*,*,#225,.F.);
#59=ORIENTED_EDGE('',*,*,#226,.F.);
#60=ORIENTED_EDGE('',*,*,#227,.F.);
#61=ORIENTED_EDGE('',*,*,#217,.T.);
#62=ORIENTED_EDGE('',*,*,#225,.T.);
#63=ORIENTED_EDGE('',*,*,#228,.F.);
#64=ORIENTED_EDGE('',*,*,#220,.F.);
#65=ORIENTED_EDGE('',*,*,#218,.T.);
#66=ORIENTED_EDGE('',*,*,#227,.T.);
#67=ORIENTED_EDGE('',*,*,#221,.T.);
#68=ORIENTED_EDGE('',*,*,#228,.T.);
#69=ORIENTED_EDGE('',*,*,#226,.T.);
#70=ORIENTED_EDGE('',*,*,#224,.F.);
#71=ORIENTED_EDGE('',*,*,#208,.T.);
#72=ORIENTED_EDGE('',*,*,#223,.F.);
#73=ORIENTED_EDGE('',*,*,#215,.F.);
#74=ORIENTED_EDGE('',*,*,#229,.T.);
#75=ORIENTED_EDGE('',*,*,#205,.T.);
#76=ORIENTED_EDGE('',*,*,#229,.F.);
#77=ORIENTED_EDGE('',*,*,#214,.F.);
#78=ORIENTED_EDGE('',*,*,#219,.F.);
#79=ORIENTED_EDGE('',*,*,#230,.F.);
#80=ORIENTED_EDGE('',*,*,#204,.T.);
#81=ORIENTED_EDGE('',*,*,#230,.T.);
#82=ORIENTED_EDGE('',*,*,#210,.F.);
#83=ORIENTED_EDGE('',*,*,#231,.F.);
#84=ORIENTED_EDGE('',*,*,#232,.T.);
#85=ORIENTED_EDGE('',*,*,#233,.T.);
#86=ORIENTED_EDGE('',*,*,#209,.T.);
#87=ORIENTED_EDGE('',*,*,#234,.F.);
#88=ORIENTED_EDGE('',*,*,#235,.F.);
#89=ORIENTED_EDGE('',*,*,#231,.T.);
#90=ORIENTED_EDGE('',*,*,#212,.T.);
#91=ORIENTED_EDGE('',*,*,#236,.F.);
#92=ORIENTED_EDGE('',*,*,#237,.F.);
#93=ORIENTED_EDGE('',*,*,#234,.T.);
#94=ORIENTED_EDGE('',*,*,#211,.F.);
#95=ORIENTED_EDGE('',*,*,#233,.F.);
#96=ORIENTED_EDGE('',*,*,#238,.T.);
#97=ORIENTED_EDGE('',*,*,#236,.T.);
#98=ORIENTED_EDGE('',*,*,#232,.F.);
#99=ORIENTED_EDGE('',*,*,#235,.T.);
#100=ORIENTED_EDGE('',*,*,#237,.T.);
#101=ORIENTED_EDGE('',*,*,#238,.F.);
#102=ORIENTED_EDGE('',*,*,#193,.T.);
#103=ORIENTED_EDGE('',*,*,#239,.F.);
#104=ORIENTED_EDGE('',*,*,#240,.F.);
#105=ORIENTED_EDGE('',*,*,#241,.T.);
#106=ORIENTED_EDGE('',*,*,#203,.T.);
#107=ORIENTED_EDGE('',*,*,#242,.F.);
#108=ORIENTED_EDGE('',*,*,#243,.F.);
#109=ORIENTED_EDGE('',*,*,#239,.T.);
#110=ORIENTED_EDGE('',*,*,#202,.F.);
#111=ORIENTED_EDGE('',*,*,#244,.F.);
#112=ORIENTED_EDGE('',*,*,#245,.T.);
#113=ORIENTED_EDGE('',*,*,#242,.T.);
#114=ORIENTED_EDGE('',*,*,#201,.F.);
#115=ORIENTED_EDGE('',*,*,#246,.F.);
#116=ORIENTED_EDGE('',*,*,#247,.T.);
#117=ORIENTED_EDGE('',*,*,#244,.T.);
#118=ORIENTED_EDGE('',*,*,#200,.F.);
#119=ORIENTED_EDGE('',*,*,#248,.F.);
#120=ORIENTED_EDGE('',*,*,#249,.T.);
#121=ORIENTED_EDGE('',*,*,#246,.T.);
#122=ORIENTED_EDGE('',*,*,#199,.F.);
#123=ORIENTED_EDGE('',*,*,#250,.F.);
#124=ORIENTED_EDGE('',*,*,#251,.T.);
#125=ORIENTED_EDGE('',*,*,#248,.T.);
#126=ORIENTED_EDGE('',*,*,#198,.F.);
#127=ORIENTED_EDGE('',*,*,#252,.F.);
#128=ORIENTED_EDGE('',*,*,#253,.T.);
#129=ORIENTED_EDGE('',*,*,#250,.T.);
#130=ORIENTED_EDGE('',*,*,#197,.T.);
#131=ORIENTED_EDGE('',*,*,#254,.F.);
#132=ORIENTED_EDGE('',*,*,#255,.F.);
#133=ORIENTED_EDGE('',*,*,#252,.T.);
#134=ORIENTED_EDGE('',*,*,#196,.F.);
#135=ORIENTED_EDGE('',*,*,#256,.F.);
#136=ORIENTED_EDGE('',*,*,#257,.T.);
#137=ORIENTED_EDGE('',*,*,#254,.T.);
#138=ORIENTED_EDGE('',*,*,#195,.F.);
#139=ORIENTED_EDGE('',*,*,#258,.F.);
#140=ORIENTED_EDGE('',*,*,#259,.T.);
#141=ORIENTED_EDGE('',*,*,#256,.T.);
#142=ORIENTED_EDGE('',*,*,#194,.T.);
#143=ORIENTED_EDGE('',*,*,#241,.F.);
#144=ORIENTED_EDGE('',*,*,#260,.F.);
#145=ORIENTED_EDGE('',*,*,#258,.T.);
#146=ORIENTED_EDGE('',*,*,#240,.T.);
#147=ORIENTED_EDGE('',*,*,#243,.T.);
#148=ORIENTED_EDGE('',*,*,#245,.F.);
#149=ORIENTED_EDGE('',*,*,#247,.F.);
#150=ORIENTED_EDGE('',*,*,#249,.F.);
#151=ORIENTED_EDGE('',*,*,#251,.F.);
#152=ORIENTED_EDGE('',*,*,#253,.F.);
#153=ORIENTED_EDGE('',*,*,#255,.T.);
#154=ORIENTED_EDGE('',*,*,#257,.F.);
#155=ORIENTED_EDGE('',*,*,#259,.F.);
#156=ORIENTED_EDGE('',*,*,#260,.T.);
#157=ORIENTED_EDGE('',*,*,#187,.F.);
#158=ORIENTED_EDGE('',*,*,#261,.F.);
#159=ORIENTED_EDGE('',*,*,#262,.T.);
#160=ORIENTED_EDGE('',*,*,#263,.T.);
#161=ORIENTED_EDGE('',*,*,#192,.T.);
#162=ORIENTED_EDGE('',*,*,#264,.F.);
#163=ORIENTED_EDGE('',*,*,#265,.F.);
#164=ORIENTED_EDGE('',*,*,#261,.T.);
#165=ORIENTED_EDGE('',*,*,#191,.F.);
#166=ORIENTED_EDGE('',*,*,#266,.F.);
#167=ORIENTED_EDGE('',*,*,#267,.T.);
#168=ORIENTED_EDGE('',*,*,#264,.T.);
#169=ORIENTED_EDGE('',*,*,#190,.F.);
#170=ORIENTED_EDGE('',*,*,#268,.F.);
#171=ORIENTED_EDGE('',*,*,#269,.T.);
#172=ORIENTED_EDGE('',*,*,#266,.T.);
#173=ORIENTED_EDGE('',*,*,#189,.T.);
#174=ORIENTED_EDGE('',*,*,#270,.F.);
#175=ORIENTED_EDGE('',*,*,#271,.F.);
#176=ORIENTED_EDGE('',*,*,#268,.T.);
#177=ORIENTED_EDGE('',*,*,#188,.T.);
#178=ORIENTED_EDGE('',*,*,#263,.F.);
#179=ORIENTED_EDGE('',*,*,#272,.F.);
#180=ORIENTED_EDGE('',*,*,#270,.T.);
#181=ORIENTED_EDGE('',*,*,#262,.F.);
#182=ORIENTED_EDGE('',*,*,#265,.T.);
#183=ORIENTED_EDGE('',*,*,#267,.F.);
#184=ORIENTED_EDGE('',*,*,#269,.F.);
#185=ORIENTED_EDGE('',*,*,#271,.T.);
#186=ORIENTED_EDGE('',*,*,#272,.T.);
#187=EDGE_CURVE('',#273,#274,#331,.T.);
#188=EDGE_CURVE('',#275,#274,#332,.T.);
#189=EDGE_CURVE('',#276,#275,#333,.T.);
#190=EDGE_CURVE('',#276,#277,#334,.T.);
#191=EDGE_CURVE('',#277,#278,#335,.T.);
#192=EDGE_CURVE('',#273,#278,#336,.T.);
#193=EDGE_CURVE('',#279,#280,#337,.T.);
#194=EDGE_CURVE('',#281,#279,#338,.T.);
#195=EDGE_CURVE('',#281,#282,#339,.T.);
#196=EDGE_CURVE('',#282,#283,#340,.T.);
#197=EDGE_CURVE('',#284,#283,#341,.T.);
#198=EDGE_CURVE('',#284,#285,#342,.T.);
#199=EDGE_CURVE('',#285,#286,#343,.T.);
#200=EDGE_CURVE('',#286,#287,#344,.T.);
#201=EDGE_CURVE('',#287,#288,#345,.T.);
#202=EDGE_CURVE('',#288,#289,#346,.T.);
#203=EDGE_CURVE('',#280,#289,#347,.T.);
#204=EDGE_CURVE('',#290,#290,#13,.T.);
#205=EDGE_CURVE('',#291,#292,#348,.T.);
#206=EDGE_CURVE('',#293,#291,#349,.T.);
#207=EDGE_CURVE('',#293,#294,#350,.T.);
#208=EDGE_CURVE('',#292,#294,#351,.T.);
#209=EDGE_CURVE('',#295,#296,#352,.T.);
#210=EDGE_CURVE('',#295,#297,#353,.T.);
#211=EDGE_CURVE('',#297,#298,#354,.T.);
#212=EDGE_CURVE('',#296,#298,#355,.T.);
#213=EDGE_CURVE('',#299,#300,#356,.T.);
#214=EDGE_CURVE('',#299,#301,#357,.T.);
#215=EDGE_CURVE('',#301,#302,#358,.T.);
#216=EDGE_CURVE('',#302,#303,#359,.T.);
#217=EDGE_CURVE('',#304,#303,#360,.T.);
#218=EDGE_CURVE('',#300,#304,#361,.T.);
#219=EDGE_CURVE('',#291,#299,#362,.T.);
#220=EDGE_CURVE('',#300,#305,#363,.T.);
#221=EDGE_CURVE('',#306,#305,#364,.T.);
#222=EDGE_CURVE('',#293,#306,#365,.T.);
#223=EDGE_CURVE('',#302,#294,#366,.T.);
#224=EDGE_CURVE('',#306,#307,#367,.T.);
#225=EDGE_CURVE('',#303,#307,#368,.T.);
#226=EDGE_CURVE('',#308,#307,#369,.T.);
#227=EDGE_CURVE('',#304,#308,#370,.T.);
#228=EDGE_CURVE('',#305,#308,#371,.T.);
#229=EDGE_CURVE('',#301,#292,#372,.T.);
#230=EDGE_CURVE('',#309,#309,#14,.T.);
#231=EDGE_CURVE('',#310,#295,#373,.T.);
#232=EDGE_CURVE('',#310,#311,#374,.T.);
#233=EDGE_CURVE('',#311,#297,#375,.T.);
#234=EDGE_CURVE('',#312,#296,#376,.T.);
#235=EDGE_CURVE('',#310,#312,#377,.T.);
#236=EDGE_CURVE('',#313,#298,#378,.T.);
#237=EDGE_CURVE('',#312,#313,#379,.T.);
#238=EDGE_CURVE('',#311,#313,#380,.T.);
#239=EDGE_CURVE('',#314,#280,#381,.T.);
#240=EDGE_CURVE('',#315,#314,#382,.T.);
#241=EDGE_CURVE('',#315,#279,#383,.T.);
#242=EDGE_CURVE('',#316,#289,#384,.T.);
#243=EDGE_CURVE('',#314,#316,#385,.T.);
#244=EDGE_CURVE('',#317,#288,#386,.T.);
#245=EDGE_CURVE('',#317,#316,#387,.T.);
#246=EDGE_CURVE('',#318,#287,#388,.T.);
#247=EDGE_CURVE('',#318,#317,#389,.T.);
#248=EDGE_CURVE('',#319,#286,#390,.T.);
#249=EDGE_CURVE('',#319,#318,#391,.T.);
#250=EDGE_CURVE('',#320,#285,#392,.T.);
#251=EDGE_CURVE('',#320,#319,#393,.T.);
#252=EDGE_CURVE('',#321,#284,#394,.T.);
#253=EDGE_CURVE('',#321,#320,#395,.T.);
#254=EDGE_CURVE('',#322,#283,#396,.T.);
#255=EDGE_CURVE('',#321,#322,#397,.T.);
#256=EDGE_CURVE('',#323,#282,#398,.T.);
#257=EDGE_CURVE('',#323,#322,#399,.T.);
#258=EDGE_CURVE('',#324,#281,#400,.T.);
#259=EDGE_CURVE('',#324,#323,#401,.T.);
#260=EDGE_CURVE('',#324,#315,#402,.T.);
#261=EDGE_CURVE('',#325,#273,#403,.T.);
#262=EDGE_CURVE('',#325,#326,#404,.T.);
#263=EDGE_CURVE('',#326,#274,#405,.T.);
#264=EDGE_CURVE('',#327,#278,#406,.T.);
#265=EDGE_CURVE('',#325,#327,#407,.T.);
#266=EDGE_CURVE('',#328,#277,#408,.T.);
#267=EDGE_CURVE('',#328,#327,#409,.T.);
#268=EDGE_CURVE('',#329,#276,#410,.T.);
#269=EDGE_CURVE('',#329,#328,#411,.T.);
#270=EDGE_CURVE('',#330,#275,#412,.T.);
#271=EDGE_CURVE('',#329,#330,#413,.T.);
#272=EDGE_CURVE('',#330,#326,#414,.T.);
#273=VERTEX_POINT('',#861);
#274=VERTEX_POINT('',#862);
#275=VERTEX_POINT('',#864);
#276=VERTEX_POINT('',#866);
#277=VERTEX_POINT('',#868);
#278=VERTEX_POINT('',#870);
#279=VERTEX_POINT('',#873);
#280=VERTEX_POINT('',#874);
#281=VERTEX_POINT('',#876);
#282=VERTEX_POINT('',#878);
#283=VERTEX_POINT('',#880);
#284=VERTEX_POINT('',#882);
#285=VERTEX_POINT('',#884);
#286=VERTEX_POINT('',#886);
#287=VERTEX_POINT('',#888);
#288=VERTEX_POINT('',#890);
#289=VERTEX_POINT('',#892);
#290=VERTEX_POINT('',#895);
#291=VERTEX_POINT('',#897);
#292=VERTEX_POINT('',#898);
#293=VERTEX_POINT('',#900);
#294=VERTEX_POINT('',#902);
#295=VERTEX_POINT('',#905);
#296=VERTEX_POINT('',#906);
#297=VERTEX_POINT('',#908);
#298=VERTEX_POINT('',#910);
#299=VERTEX_POINT('',#914);
#300=VERTEX_POINT('',#915);
#301=VERTEX_POINT('',#917);
#302=VERTEX_POINT('',#919);
#303=VERTEX_POINT('',#921);
#304=VERTEX_POINT('',#923);
#305=VERTEX_POINT('',#928);
#306=VERTEX_POINT('',#930);
#307=VERTEX_POINT('',#935);
#308=VERTEX_POINT('',#939);
#309=VERTEX_POINT('',#949);
#310=VERTEX_POINT('',#953);
#311=VERTEX_POINT('',#955);
#312=VERTEX_POINT('',#959);
#313=VERTEX_POINT('',#963);
#314=VERTEX_POINT('',#970);
#315=VERTEX_POINT('',#972);
#316=VERTEX_POINT('',#976);
#317=VERTEX_POINT('',#980);
#318=VERTEX_POINT('',#984);
#319=VERTEX_POINT('',#988);
#320=VERTEX_POINT('',#992);
#321=VERTEX_POINT('',#996);
#322=VERTEX_POINT('',#1000);
#323=VERTEX_POINT('',#1004);
#324=VERTEX_POINT('',#1008);
#325=VERTEX_POINT('',#1015);
#326=VERTEX_POINT('',#1017);
#327=VERTEX_POINT('',#1021);
#328=VERTEX_POINT('',#1025);
#329=VERTEX_POINT('',#1029);
#330=VERTEX_POINT('',#1033);
#331=LINE('',#860,#415);
#332=LINE('',#863,#416);
#333=LINE('',#865,#417);
#334=LINE('',#867,#418);
#335=LINE('',#869,#419);
#336=LINE('',#871,#420);
#337=LINE('',#872,#421);
#338=LINE('',#875,#422);
#339=LINE('',#877,#423);
#340=LINE('',#879,#424);
#341=LINE('',#881,#425);
#342=LINE('',#883,#426);
#343=LINE('',#885,#427);
#344=LINE('',#887,#428);
#345=LINE('',#889,#429);
#346=LINE('',#891,#430);
#347=LINE('',#893,#431);
#348=LINE('',#896,#432);
#349=LINE('',#899,#433);
#350=LINE('',#901,#434);
#351=LINE('',#903,#435);
#352=LINE('',#904,#436);
#353=LINE('',#907,#437);
#354=LINE('',#909,#438);
#355=LINE('',#911,#439);
#356=LINE('',#913,#440);
#357=LINE('',#916,#441);
#358=LINE('',#918,#442);
#359=LINE('',#920,#443);
#360=LINE('',#922,#444);
#361=LINE('',#924,#445);
#362=LINE('',#926,#446);
#363=LINE('',#927,#447);
#364=LINE('',#929,#448);
#365=LINE('',#931,#449);
#366=LINE('',#933,#450);
#367=LINE('',#934,#451);
#368=LINE('',#936,#452);
#369=LINE('',#938,#453);
#370=LINE('',#940,#454);
#371=LINE('',#942,#455);
#372=LINE('',#945,#456);
#373=LINE('',#952,#457);
#374=LINE('',#954,#458);
#375=LINE('',#956,#459);
#376=LINE('',#958,#460);
#377=LINE('',#960,#461);
#378=LINE('',#962,#462);
#379=LINE('',#964,#463);
#380=LINE('',#966,#464);
#381=LINE('',#969,#465);
#382=LINE('',#971,#466);
#383=LINE('',#973,#467);
#384=LINE('',#975,#468);
#385=LINE('',#977,#469);
#386=LINE('',#979,#470);
#387=LINE('',#981,#471);
#388=LINE('',#983,#472);
#389=LINE('',#985,#473);
#390=LINE('',#987,#474);
#391=LINE('',#989,#475);
#392=LINE('',#991,#476);
#393=LINE('',#993,#477);
#394=LINE('',#995,#478);
#395=LINE('',#997,#479);
#396=LINE('',#999,#480);
#397=LINE('',#1001,#481);
#398=LINE('',#1003,#482);
#399=LINE('',#1005,#483);
#400=LINE('',#1007,#484);
#401=LINE('',#1009,#485);
#402=LINE('',#1011,#486);
#403=LINE('',#1014,#487);
#404=LINE('',#1016,#488);
#405=LINE('',#1018,#489);
#406=LINE('',#1020,#490);
#407=LINE('',#1022,#491);
#408=LINE('',#1024,#492);
#409=LINE('',#1026,#493);
#410=LINE('',#1028,#494);
#411=LINE('',#1030,#495);
#412=LINE('',#1032,#496);
#413=LINE('',#1034,#497);
#414=LINE('',#1036,#498);
#415=VECTOR('',#702,1.);
#416=VECTOR('',#703,1.);
#417=VECTOR('',#704,1.);
#418=VECTOR('',#705,1.);
#419=VECTOR('',#706,1.);
#420=VECTOR('',#707,1.);
#421=VECTOR('',#708,1.);
#422=VECTOR('',#709,1.);
#423=VECTOR('',#710,1.);
#424=VECTOR('',#711,1.);
#425=VECTOR('',#712,1.);
#426=VECTOR('',#713,1.);
#427=VECTOR('',#714,1.);
#428=VECTOR('',#715,1.);
#429=VECTOR('',#716,1.);
#430=VECTOR('',#717,1.);
#431=VECTOR('',#718,1.);
#432=VECTOR('',#721,1.);
#433=VECTOR('',#722,1.);
#434=VECTOR('',#723,1.);
#435=VECTOR('',#724,1.);
#436=VECTOR('',#725,1.);
#437=VECTOR('',#726,1.);
#438=VECTOR('',#727,1.);
#439=VECTOR('',#728,1.);
#440=VECTOR('',#731,1.);
#441=VECTOR('',#732,1.);
#442=VECTOR('',#733,1.);
#443=VECTOR('',#734,1.);
#444=VECTOR('',#735,1.);
#445=VECTOR('',#736,1.);
#446=VECTOR('',#739,1.);
#447=VECTOR('',#740,1.);
#448=VECTOR('',#741,1.);
#449=VECTOR('',#742,1.);
#450=VECTOR('',#745,1.);
#451=VECTOR('',#746,1.);
#452=VECTOR('',#747,1.);
#453=VECTOR('',#750,1.);
#454=VECTOR('',#751,1.);
#455=VECTOR('',#754,1.);
#456=VECTOR('',#759,1.);
#457=VECTOR('',#770,1.);
#458=VECTOR('',#771,1.);
#459=VECTOR('',#772,1.);
#460=VECTOR('',#775,1.);
#461=VECTOR('',#776,1.);
#462=VECTOR('',#779,1.);
#463=VECTOR('',#780,1.);
#464=VECTOR('',#783,1.);
#465=VECTOR('',#788,1.);
#466=VECTOR('',#789,1.);
#467=VECTOR('',#790,1.);
#468=VECTOR('',#793,1.);
#469=VECTOR('',#794,1.);
#470=VECTOR('',#797,1.);
#471=VECTOR('',#798,1.);
#472=VECTOR('',#801,1.);
#473=VECTOR('',#802,1.);
#474=VECTOR('',#805,1.);
#475=VECTOR('',#806,1.);
#476=VECTOR('',#809,1.);
#477=VECTOR('',#810,1.);
#478=VECTOR('',#813,1.);
#479=VECTOR('',#814,1.);
#480=VECTOR('',#817,1.);
#481=VECTOR('',#818,1.);
#482=VECTOR('',#821,1.);
#483=VECTOR('',#822,1.);
#484=VECTOR('',#825,1.);
#485=VECTOR('',#826,1.);
#486=VECTOR('',#829,1.);
#487=VECTOR('',#834,1.);
#488=VECTOR('',#835,1.);
#489=VECTOR('',#836,1.);
#490=VECTOR('',#839,1.);
#491=VECTOR('',#840,1.);
#492=VECTOR('',#843,1.);
#493=VECTOR('',#844,1.);
#494=VECTOR('',#847,1.);
#495=VECTOR('',#848,1.);
#496=VECTOR('',#851,1.);
#497=VECTOR('',#852,1.);
#498=VECTOR('',#855,1.);
#499=EDGE_LOOP('',(#15,#16,#17,#18,#19,#20));
#500=EDGE_LOOP('',(#21,#22,#23,#24,#25,#26,#27,#28,#29,#30,#31));
#501=EDGE_LOOP('',(#32));
#502=EDGE_LOOP('',(#33,#34,#35,#36));
#503=EDGE_LOOP('',(#37,#38,#39,#40));
#504=EDGE_LOOP('',(#41,#42,#43,#44,#45,#46));
#505=EDGE_LOOP('',(#47,#48,#49,#50,#51,#52));
#506=EDGE_LOOP('',(#53,#54,#55,#56,#57,#58));
#507=EDGE_LOOP('',(#59,#60,#61,#62));
#508=EDGE_LOOP('',(#63,#64,#65,#66));
#509=EDGE_LOOP('',(#67,#68,#69,#70));
#510=EDGE_LOOP('',(#71,#72,#73,#74));
#511=EDGE_LOOP('',(#75,#76,#77,#78));
#512=EDGE_LOOP('',(#79));
#513=EDGE_LOOP('',(#80));
#514=EDGE_LOOP('',(#81));
#515=EDGE_LOOP('',(#82,#83,#84,#85));
#516=EDGE_LOOP('',(#86,#87,#88,#89));
#517=EDGE_LOOP('',(#90,#91,#92,#93));
#518=EDGE_LOOP('',(#94,#95,#96,#97));
#519=EDGE_LOOP('',(#98,#99,#100,#101));
#520=EDGE_LOOP('',(#102,#103,#104,#105));
#521=EDGE_LOOP('',(#106,#107,#108,#109));
#522=EDGE_LOOP('',(#110,#111,#112,#113));
#523=EDGE_LOOP('',(#114,#115,#116,#117));
#524=EDGE_LOOP('',(#118,#119,#120,#121));
#525=EDGE_LOOP('',(#122,#123,#124,#125));
#526=EDGE_LOOP('',(#126,#127,#128,#129));
#527=EDGE_LOOP('',(#130,#131,#132,#133));
#528=EDGE_LOOP('',(#134,#135,#136,#137));
#529=EDGE_LOOP('',(#138,#139,#140,#141));
#530=EDGE_LOOP('',(#142,#143,#144,#145));
#531=EDGE_LOOP('',(#146,#147,#148,#149,#150,#151,#152,#153,#154,#155,#156));
#532=EDGE_LOOP('',(#157,#158,#159,#160));
#533=EDGE_LOOP('',(#161,#162,#163,#164));
#534=EDGE_LOOP('',(#165,#166,#167,#168));
#535=EDGE_LOOP('',(#169,#170,#171,#172));
#536=EDGE_LOOP('',(#173,#174,#175,#176));
#537=EDGE_LOOP('',(#177,#178,#179,#180));
#538=EDGE_LOOP('',(#181,#182,#183,#184,#185,#186));
#539=FACE_BOUND('',#499,.T.);
#540=FACE_BOUND('',#500,.T.);
#541=FACE_BOUND('',#501,.T.);
#542=FACE_BOUND('',#502,.T.);
#543=FACE_BOUND('',#503,.T.);
#544=FACE_BOUND('',#504,.T.);
#545=FACE_BOUND('',#505,.T.);
#546=FACE_BOUND('',#506,.T.);
#547=FACE_BOUND('',#507,.T.);
#548=FACE_BOUND('',#508,.T.);
#549=FACE_BOUND('',#509,.T.);
#550=FACE_BOUND('',#510,.T.);
#551=FACE_BOUND('',#511,.T.);
#552=FACE_BOUND('',#512,.T.);
#553=FACE_BOUND('',#513,.T.);
#554=FACE_BOUND('',#514,.T.);
#555=FACE_BOUND('',#515,.T.);
#556=FACE_BOUND('',#516,.T.);
#557=FACE_BOUND('',#517,.T.);
#558=FACE_BOUND('',#518,.T.);
#559=FACE_BOUND('',#519,.T.);
#560=FACE_BOUND('',#520,.T.);
#561=FACE_BOUND('',#521,.T.);
#562=FACE_BOUND('',#522,.T.);
#563=FACE_BOUND('',#523,.T.);
#564=FACE_BOUND('',#524,.T.);
#565=FACE_BOUND('',#525,.T.);
#566=FACE_BOUND('',#526,.T.);
#567=FACE_BOUND('',#527,.T.);
#568=FACE_BOUND('',#528,.T.);
#569=FACE_BOUND('',#529,.T.);
#570=FACE_BOUND('',#530,.T.);
#571=FACE_BOUND('',#531,.T.);
#572=FACE_BOUND('',#532,.T.);
#573=FACE_BOUND('',#533,.T.);
#574=FACE_BOUND('',#534,.T.);
#575=FACE_BOUND('',#535,.T.);
#576=FACE_BOUND('',#536,.T.);
#577=FACE_BOUND('',#537,.T.);
#578=FACE_BOUND('',#538,.T.);
#579=PLANE('',#661);
#580=PLANE('',#663);
#581=PLANE('',#664);
#582=PLANE('',#665);
#583=PLANE('',#666);
#584=PLANE('',#667);
#585=PLANE('',#668);
#586=PLANE('',#669);
#587=PLANE('',#670);
#588=PLANE('',#673);
#589=PLANE('',#674);
#590=PLANE('',#675);
#591=PLANE('',#676);
#592=PLANE('',#677);
#593=PLANE('',#678);
#594=PLANE('',#679);
#595=PLANE('',#680);
#596=PLANE('',#681);
#597=PLANE('',#682);
#598=PLANE('',#683);
#599=PLANE('',#684);
#600=PLANE('',#685);
#601=PLANE('',#686);
#602=PLANE('',#687);
#603=PLANE('',#688);
#604=PLANE('',#689);
#605=PLANE('',#690);
#606=PLANE('',#691);
#607=PLANE('',#692);
#608=PLANE('',#693);
#609=PLANE('',#694);
#610=PLANE('',#695);
#611=PLANE('',#696);
#612=PLANE('',#697);
#613=ADVANCED_FACE('',(#539,#540,#541,#542,#543),#579,.T.);
#614=ADVANCED_FACE('',(#544),#580,.T.);
#615=ADVANCED_FACE('',(#545),#581,.T.);
#616=ADVANCED_FACE('',(#546),#582,.F.);
#617=ADVANCED_FACE('',(#547),#583,.T.);
#618=ADVANCED_FACE('',(#548),#584,.T.);
#619=ADVANCED_FACE('',(#549),#585,.F.);
#620=ADVANCED_FACE('',(#550),#586,.F.);
#621=ADVANCED_FACE('',(#551),#587,.F.);
#622=ADVANCED_FACE('',(#552,#553),#12,.T.);
#623=ADVANCED_FACE('',(#554),#588,.T.);
#624=ADVANCED_FACE('',(#555),#589,.T.);
#625=ADVANCED_FACE('',(#556),#590,.F.);
#626=ADVANCED_FACE('',(#557),#591,.F.);
#627=ADVANCED_FACE('',(#558),#592,.T.);
#628=ADVANCED_FACE('',(#559),#593,.T.);
#629=ADVANCED_FACE('',(#560),#594,.F.);
#630=ADVANCED_FACE('',(#561),#595,.F.);
#631=ADVANCED_FACE('',(#562),#596,.T.);
#632=ADVANCED_FACE('',(#563),#597,.T.);
#633=ADVANCED_FACE('',(#564),#598,.T.);
#634=ADVANCED_FACE('',(#565),#599,.T.);
#635=ADVANCED_FACE('',(#566),#600,.T.);
#636=ADVANCED_FACE('',(#567),#601,.F.);
#637=ADVANCED_FACE('',(#568),#602,.T.);
#638=ADVANCED_FACE('',(#569),#603,.T.);
#639=ADVANCED_FACE('',(#570),#604,.F.);
#640=ADVANCED_FACE('',(#571),#605,.T.);
#641=ADVANCED_FACE('',(#572),#606,.T.);
#642=ADVANCED_FACE('',(#573),#607,.F.);
#643=ADVANCED_FACE('',(#574),#608,.T.);
#644=ADVANCED_FACE('',(#575),#609,.T.);
#645=ADVANCED_FACE('',(#576),#610,.F.);
#646=ADVANCED_FACE('',(#577),#611,.F.);
#647=ADVANCED_FACE('',(#578),#612,.T.);
#648=CLOSED_SHELL('',(#613,#614,#615,#616,#617,#618,#619,#620,#621,#622,
#623,#624,#625,#626,#627,#628,#629,#630,#631,#632,#633,#634,#635,#636,#637,
#638,#639,#640,#641,#642,#643,#644,#645,#646,#647));
#649=STYLED_ITEM('',(#650),#657);
#650=PRESENTATION_STYLE_ASSIGNMENT((#651));
#651=SURFACE_STYLE_USAGE(.BOTH.,#652);
#652=SURFACE_SIDE_STYLE('',(#653));
#653=SURFACE_STYLE_FILL_AREA(#654);
#654=FILL_AREA_STYLE('',(#655));
#655=FILL_AREA_STYLE_COLOUR('',#656);
#656=COLOUR_RGB('',0.231372549019608,0.380392156862745,0.705882352941177);
#657=MANIFOLD_SOLID_BREP('BMat2O',#648);
#658=SHAPE_DEFINITION_REPRESENTATION(#1044,#659);
#659=SHAPE_REPRESENTATION('BMat2O',(#660),#1039);
#660=AXIS2_PLACEMENT_3D('',#858,#698,#699);
#661=AXIS2_PLACEMENT_3D('',#859,#700,#701);
#662=AXIS2_PLACEMENT_3D('',#894,#719,#720);
#663=AXIS2_PLACEMENT_3D('',#912,#729,#730);
#664=AXIS2_PLACEMENT_3D('',#925,#737,#738);
#665=AXIS2_PLACEMENT_3D('',#932,#743,#744);
#666=AXIS2_PLACEMENT_3D('',#937,#748,#749);
#667=AXIS2_PLACEMENT_3D('',#941,#752,#753);
#668=AXIS2_PLACEMENT_3D('',#943,#755,#756);
#669=AXIS2_PLACEMENT_3D('',#944,#757,#758);
#670=AXIS2_PLACEMENT_3D('',#946,#760,#761);
#671=AXIS2_PLACEMENT_3D('',#947,#762,#763);
#672=AXIS2_PLACEMENT_3D('',#948,#764,#765);
#673=AXIS2_PLACEMENT_3D('',#950,#766,#767);
#674=AXIS2_PLACEMENT_3D('',#951,#768,#769);
#675=AXIS2_PLACEMENT_3D('',#957,#773,#774);
#676=AXIS2_PLACEMENT_3D('',#961,#777,#778);
#677=AXIS2_PLACEMENT_3D('',#965,#781,#782);
#678=AXIS2_PLACEMENT_3D('',#967,#784,#785);
#679=AXIS2_PLACEMENT_3D('',#968,#786,#787);
#680=AXIS2_PLACEMENT_3D('',#974,#791,#792);
#681=AXIS2_PLACEMENT_3D('',#978,#795,#796);
#682=AXIS2_PLACEMENT_3D('',#982,#799,#800);
#683=AXIS2_PLACEMENT_3D('',#986,#803,#804);
#684=AXIS2_PLACEMENT_3D('',#990,#807,#808);
#685=AXIS2_PLACEMENT_3D('',#994,#811,#812);
#686=AXIS2_PLACEMENT_3D('',#998,#815,#816);
#687=AXIS2_PLACEMENT_3D('',#1002,#819,#820);
#688=AXIS2_PLACEMENT_3D('',#1006,#823,#824);
#689=AXIS2_PLACEMENT_3D('',#1010,#827,#828);
#690=AXIS2_PLACEMENT_3D('',#1012,#830,#831);
#691=AXIS2_PLACEMENT_3D('',#1013,#832,#833);
#692=AXIS2_PLACEMENT_3D('',#1019,#837,#838);
#693=AXIS2_PLACEMENT_3D('',#1023,#841,#842);
#694=AXIS2_PLACEMENT_3D('',#1027,#845,#846);
#695=AXIS2_PLACEMENT_3D('',#1031,#849,#850);
#696=AXIS2_PLACEMENT_3D('',#1035,#853,#854);
#697=AXIS2_PLACEMENT_3D('',#1037,#856,#857);
#698=DIRECTION('',(0.,0.,1.));
#699=DIRECTION('',(1.,0.,0.));
#700=DIRECTION('',(0.,0.,1.));
#701=DIRECTION('',(1.,0.,0.));
#702=DIRECTION('',(0.,-1.,0.));
#703=DIRECTION('',(1.,0.,0.));
#704=DIRECTION('',(0.,-1.,0.));
#705=DIRECTION('',(1.,0.,0.));
#706=DIRECTION('',(0.,1.,0.));
#707=DIRECTION('',(-1.,0.,0.));
#708=DIRECTION('',(1.,0.,0.));
#709=DIRECTION('',(0.,-1.,0.));
#710=DIRECTION('',(1.,0.,0.));
#711=DIRECTION('',(0.,-1.,0.));
#712=DIRECTION('',(1.,0.,0.));
#713=DIRECTION('',(0.,-1.,0.));
#714=DIRECTION('',(1.,0.,0.));
#715=DIRECTION('',(-0.54794859825529,-0.836512004498479,0.));
#716=DIRECTION('',(-0.54794859825529,0.836512004498479,0.));
#717=DIRECTION('',(1.,0.,0.));
#718=DIRECTION('',(0.,-1.,0.));
#719=DIRECTION('',(0.,0.,1.));
#720=DIRECTION('',(1.,0.,0.));
#721=DIRECTION('',(0.,-1.,0.));
#722=DIRECTION('',(1.,0.,0.));
#723=DIRECTION('',(0.,-1.,0.));
#724=DIRECTION('',(-1.,0.,0.));
#725=DIRECTION('',(1.,0.,0.));
#726=DIRECTION('',(0.,1.,0.));
#727=DIRECTION('',(1.,0.,0.));
#728=DIRECTION('',(0.,1.,0.));
#729=DIRECTION('',(0.,0.,1.));
#730=DIRECTION('',(1.,0.,0.));
#731=DIRECTION('',(1.,0.,0.));
#732=DIRECTION('',(0.,-1.,0.));
#733=DIRECTION('',(-1.,0.,0.));
#734=DIRECTION('',(0.,-1.,0.));
#735=DIRECTION('',(-1.,0.,0.));
#736=DIRECTION('',(0.,-1.,0.));
#737=DIRECTION('',(0.,1.,0.));
#738=DIRECTION('',(0.,0.,1.));
#739=DIRECTION('',(0.,0.,1.));
#740=DIRECTION('',(0.,0.,-1.));
#741=DIRECTION('',(1.,0.,0.));
#742=DIRECTION('',(0.,0.,-1.));
#743=DIRECTION('',(1.,0.,0.));
#744=DIRECTION('',(0.,0.,-1.));
#745=DIRECTION('',(0.,0.,-1.));
#746=DIRECTION('',(0.,-1.,0.));
#747=DIRECTION('',(0.,0.,-1.));
#748=DIRECTION('',(0.,-1.,0.));
#749=DIRECTION('',(0.,0.,-1.));
#750=DIRECTION('',(-1.,0.,0.));
#751=DIRECTION('',(0.,0.,-1.));
#752=DIRECTION('',(1.,0.,0.));
#753=DIRECTION('',(0.,0.,-1.));
#754=DIRECTION('',(0.,-1.,0.));
#755=DIRECTION('',(0.,0.,1.));
#756=DIRECTION('',(1.,0.,0.));
#757=DIRECTION('',(0.,-1.,0.));
#758=DIRECTION('',(0.,0.,-1.));
#759=DIRECTION('',(0.,0.,-1.));
#760=DIRECTION('',(1.,0.,0.));
#761=DIRECTION('',(0.,0.,-1.));
#762=DIRECTION('',(0.,0.,-1.));
#763=DIRECTION('',(-1.,0.,0.));
#764=DIRECTION('',(0.,0.,1.));
#765=DIRECTION('',(1.,0.,0.));
#766=DIRECTION('',(0.,0.,1.));
#767=DIRECTION('',(1.,0.,0.));
#768=DIRECTION('',(1.,0.,0.));
#769=DIRECTION('',(0.,0.,-1.));
#770=DIRECTION('',(0.,0.,1.));
#771=DIRECTION('',(0.,1.,0.));
#772=DIRECTION('',(0.,0.,1.));
#773=DIRECTION('',(0.,-1.,0.));
#774=DIRECTION('',(0.,0.,-1.));
#775=DIRECTION('',(0.,0.,1.));
#776=DIRECTION('',(1.,0.,0.));
#777=DIRECTION('',(1.,0.,0.));
#778=DIRECTION('',(0.,0.,-1.));
#779=DIRECTION('',(0.,0.,1.));
#780=DIRECTION('',(0.,1.,0.));
#781=DIRECTION('',(0.,-1.,0.));
#782=DIRECTION('',(0.,0.,-1.));
#783=DIRECTION('',(1.,0.,0.));
#784=DIRECTION('',(0.,0.,1.));
#785=DIRECTION('',(1.,0.,0.));
#786=DIRECTION('',(0.,-1.,0.));
#787=DIRECTION('',(0.,0.,-1.));
#788=DIRECTION('',(0.,0.,1.));
#789=DIRECTION('',(1.,0.,0.));
#790=DIRECTION('',(0.,0.,1.));
#791=DIRECTION('',(-1.,0.,0.));
#792=DIRECTION('',(0.,0.,1.));
#793=DIRECTION('',(0.,0.,1.));
#794=DIRECTION('',(0.,-1.,0.));
#795=DIRECTION('',(0.,-1.,0.));
#796=DIRECTION('',(0.,0.,-1.));
#797=DIRECTION('',(0.,0.,1.));
#798=DIRECTION('',(1.,0.,0.));
#799=DIRECTION('',(0.836512004498479,0.54794859825529,0.));
#800=DIRECTION('',(-0.54794859825529,0.836512004498479,0.));
#801=DIRECTION('',(0.,0.,1.));
#802=DIRECTION('',(-0.54794859825529,0.836512004498479,0.));
#803=DIRECTION('',(-0.836512004498479,0.54794859825529,0.));
#804=DIRECTION('',(-0.54794859825529,-0.836512004498479,0.));
#805=DIRECTION('',(0.,0.,1.));
#806=DIRECTION('',(-0.54794859825529,-0.836512004498479,0.));
#807=DIRECTION('',(0.,-1.,0.));
#808=DIRECTION('',(0.,0.,-1.));
#809=DIRECTION('',(0.,0.,1.));
#810=DIRECTION('',(1.,0.,0.));
#811=DIRECTION('',(-1.,0.,0.));
#812=DIRECTION('',(0.,0.,1.));
#813=DIRECTION('',(0.,0.,1.));
#814=DIRECTION('',(0.,-1.,0.));
#815=DIRECTION('',(0.,-1.,0.));
#816=DIRECTION('',(0.,0.,-1.));
#817=DIRECTION('',(0.,0.,1.));
#818=DIRECTION('',(1.,0.,0.));
#819=DIRECTION('',(-1.,0.,0.));
#820=DIRECTION('',(0.,0.,1.));
#821=DIRECTION('',(0.,0.,1.));
#822=DIRECTION('',(0.,-1.,0.));
#823=DIRECTION('',(0.,-1.,0.));
#824=DIRECTION('',(0.,0.,-1.));
#825=DIRECTION('',(0.,0.,1.));
#826=DIRECTION('',(1.,0.,0.));
#827=DIRECTION('',(-1.,0.,0.));
#828=DIRECTION('',(0.,0.,1.));
#829=DIRECTION('',(0.,-1.,0.));
#830=DIRECTION('',(0.,0.,1.));
#831=DIRECTION('',(1.,0.,0.));
#832=DIRECTION('',(1.,0.,0.));
#833=DIRECTION('',(0.,0.,-1.));
#834=DIRECTION('',(0.,0.,-1.));
#835=DIRECTION('',(0.,-1.,0.));
#836=DIRECTION('',(0.,0.,-1.));
#837=DIRECTION('',(0.,-1.,0.));
#838=DIRECTION('',(0.,0.,-1.));
#839=DIRECTION('',(0.,0.,-1.));
#840=DIRECTION('',(-1.,0.,0.));
#841=DIRECTION('',(-1.,0.,0.));
#842=DIRECTION('',(0.,0.,1.));
#843=DIRECTION('',(0.,0.,-1.));
#844=DIRECTION('',(0.,1.,0.));
#845=DIRECTION('',(0.,1.,0.));
#846=DIRECTION('',(0.,0.,1.));
#847=DIRECTION('',(0.,0.,-1.));
#848=DIRECTION('',(1.,0.,0.));
#849=DIRECTION('',(1.,0.,0.));
#850=DIRECTION('',(0.,0.,-1.));
#851=DIRECTION('',(0.,0.,-1.));
#852=DIRECTION('',(0.,-1.,0.));
#853=DIRECTION('',(0.,1.,0.));
#854=DIRECTION('',(0.,0.,1.));
#855=DIRECTION('',(1.,0.,0.));
#856=DIRECTION('',(0.,0.,1.));
#857=DIRECTION('',(1.,0.,0.));
#858=CARTESIAN_POINT('',(0.,0.,0.));
#859=CARTESIAN_POINT('',(-0.0616736940725536,-0.0688652148425581,0.0025));
#860=CARTESIAN_POINT('',(0.563586343507642,-0.461327494193817,0.0025));
#861=CARTESIAN_POINT('',(0.563586343507642,-0.376327494193817,0.0025));
#862=CARTESIAN_POINT('',(0.563586343507642,-0.466327494193817,0.0025));
#863=CARTESIAN_POINT('',(0.453586343507642,-0.466327494193817,0.0025));
#864=CARTESIAN_POINT('',(0.343586343507642,-0.466327494193817,0.0025));
#865=CARTESIAN_POINT('',(0.343586343507642,-0.461327494193817,0.0025));
#866=CARTESIAN_POINT('',(0.343586343507642,-0.456327494193817,0.0025));
#867=CARTESIAN_POINT('',(0.448586343507642,-0.456327494193817,0.0025));
#868=CARTESIAN_POINT('',(0.553586343507642,-0.456327494193817,0.0025));
#869=CARTESIAN_POINT('',(0.553586343507642,-0.416327494193817,0.0025));
#870=CARTESIAN_POINT('',(0.553586343507642,-0.376327494193817,0.0025));
#871=CARTESIAN_POINT('',(0.558586343507642,-0.376327494193817,0.0025));
#872=CARTESIAN_POINT('',(0.440783900737763,-0.419898569583893,0.0025));
#873=CARTESIAN_POINT('',(0.422033900737763,-0.419898569583893,0.0025));
#874=CARTESIAN_POINT('',(0.459533900737763,-0.419898569583893,0.0025));
#875=CARTESIAN_POINT('',(0.422033900737763,-0.417398569583893,0.0025));
#876=CARTESIAN_POINT('',(0.422033900737763,-0.414898569583893,0.0025));
#877=CARTESIAN_POINT('',(0.462033900737762,-0.414898569583893,0.0025));
#878=CARTESIAN_POINT('',(0.502033900737762,-0.414898569583893,0.0025));
#879=CARTESIAN_POINT('',(0.502033900737762,-0.417398569583893,0.0025));
#880=CARTESIAN_POINT('',(0.502033900737762,-0.419898569583893,0.0025));
#881=CARTESIAN_POINT('',(0.483283900737763,-0.419898569583893,0.0025));
#882=CARTESIAN_POINT('',(0.464533900737763,-0.419898569583893,0.0025));
#883=CARTESIAN_POINT('',(0.464533900737763,-0.425898569583893,0.0025));
#884=CARTESIAN_POINT('',(0.464533900737763,-0.431898569583893,0.0025));
#885=CARTESIAN_POINT('',(0.468033900737763,-0.431898569583893,0.0025));
#886=CARTESIAN_POINT('',(0.471533900737763,-0.431898569583893,0.0025));
#887=CARTESIAN_POINT('',(0.466783900737762,-0.439150038123131,0.0025));
#888=CARTESIAN_POINT('',(0.462033900737763,-0.446401506662369,0.0025));
#889=CARTESIAN_POINT('',(0.457283900737763,-0.439150038123131,0.0025));
#890=CARTESIAN_POINT('',(0.452533900737763,-0.431898569583893,0.0025));
#891=CARTESIAN_POINT('',(0.456033900737763,-0.431898569583893,0.0025));
#892=CARTESIAN_POINT('',(0.459533900737763,-0.431898569583893,0.0025));
#893=CARTESIAN_POINT('',(0.459533900737763,-0.425898569583893,0.0025));
#894=CARTESIAN_POINT('',(0.340467468945923,-0.381827494193817,0.0025));
#895=CARTESIAN_POINT('',(0.345467468945923,-0.381827494193817,0.0025));
#896=CARTESIAN_POINT('',(0.567967468945923,-0.421827494193817,0.0025));
#897=CARTESIAN_POINT('',(0.567967468945923,-0.371827494193817,0.0025));
#898=CARTESIAN_POINT('',(0.567967468945923,-0.469327494193817,0.0025));
#899=CARTESIAN_POINT('',(0.450467468945923,-0.371827494193817,0.0025));
#900=CARTESIAN_POINT('',(0.330467468945923,-0.371827494193817,0.0025));
#901=CARTESIAN_POINT('',(0.330467468945923,-0.421827494193817,0.0025));
#902=CARTESIAN_POINT('',(0.330467468945923,-0.469327494193817,0.0025));
#903=CARTESIAN_POINT('',(0.450467468945923,-0.469327494193817,0.0025));
#904=CARTESIAN_POINT('',(0.462033900737762,-0.413246671850591,0.0025));
#905=CARTESIAN_POINT('',(0.447033900737763,-0.413246671850591,0.0025));
#906=CARTESIAN_POINT('',(0.477033900737762,-0.413246671850591,0.0025));
#907=CARTESIAN_POINT('',(0.447033900737763,-0.410746671850591,0.0025));
#908=CARTESIAN_POINT('',(0.447033900737763,-0.408246671850591,0.0025));
#909=CARTESIAN_POINT('',(0.462033900737762,-0.408246671850591,0.0025));
#910=CARTESIAN_POINT('',(0.477033900737762,-0.408246671850591,0.0025));
#911=CARTESIAN_POINT('',(0.477033900737762,-0.410746671850591,0.0025));
#912=CARTESIAN_POINT('',(-0.0616736940725536,-0.0688652148425581,0.02));
#913=CARTESIAN_POINT('',(0.450467468945923,-0.371827494193817,0.02));
#914=CARTESIAN_POINT('',(0.567967468945923,-0.371827494193817,0.02));
#915=CARTESIAN_POINT('',(0.570467468945923,-0.371827494193817,0.02));
#916=CARTESIAN_POINT('',(0.567967468945923,-0.421827494193817,0.02));
#917=CARTESIAN_POINT('',(0.567967468945923,-0.469327494193817,0.02));
#918=CARTESIAN_POINT('',(0.450467468945923,-0.469327494193817,0.02));
#919=CARTESIAN_POINT('',(0.330467468945923,-0.469327494193817,0.02));
#920=CARTESIAN_POINT('',(0.330467468945923,-0.421827494193817,0.02));
#921=CARTESIAN_POINT('',(0.330467468945923,-0.471827494193817,0.02));
#922=CARTESIAN_POINT('',(0.450467468945923,-0.471827494193817,0.02));
#923=CARTESIAN_POINT('',(0.570467468945923,-0.471827494193817,0.02));
#924=CARTESIAN_POINT('',(0.570467468945923,-0.421827494193817,0.02));
#925=CARTESIAN_POINT('',(0.450467468945923,-0.371827494193817,0.02));
#926=CARTESIAN_POINT('',(0.567967468945923,-0.371827494193817,0.02));
#927=CARTESIAN_POINT('',(0.570467468945923,-0.371827494193817,0.02));
#928=CARTESIAN_POINT('',(0.570467468945923,-0.371827494193817,0.));
#929=CARTESIAN_POINT('',(0.450467468945923,-0.371827494193817,0.));
#930=CARTESIAN_POINT('',(0.330467468945923,-0.371827494193817,0.));
#931=CARTESIAN_POINT('',(0.330467468945923,-0.371827494193817,0.02));
#932=CARTESIAN_POINT('',(0.330467468945923,-0.421827494193817,0.02));
#933=CARTESIAN_POINT('',(0.330467468945923,-0.469327494193817,0.02));
#934=CARTESIAN_POINT('',(0.330467468945923,-0.421827494193817,0.));
#935=CARTESIAN_POINT('',(0.330467468945923,-0.471827494193817,0.));
#936=CARTESIAN_POINT('',(0.330467468945923,-0.471827494193817,0.02));
#937=CARTESIAN_POINT('',(0.450467468945923,-0.471827494193817,0.02));
#938=CARTESIAN_POINT('',(0.450467468945923,-0.471827494193817,0.));
#939=CARTESIAN_POINT('',(0.570467468945923,-0.471827494193817,0.));
#940=CARTESIAN_POINT('',(0.570467468945923,-0.471827494193817,0.02));
#941=CARTESIAN_POINT('',(0.570467468945923,-0.421827494193817,0.02));
#942=CARTESIAN_POINT('',(0.570467468945923,-0.421827494193817,0.));
#943=CARTESIAN_POINT('',(-0.0616736940725536,-0.0688652148425581,0.));
#944=CARTESIAN_POINT('',(0.450467468945923,-0.469327494193817,0.02));
#945=CARTESIAN_POINT('',(0.567967468945923,-0.469327494193817,0.02));
#946=CARTESIAN_POINT('',(0.567967468945923,-0.421827494193817,0.02));
#947=CARTESIAN_POINT('',(0.340467468945923,-0.381827494193817,0.0175));
#948=CARTESIAN_POINT('',(0.340467468945923,-0.381827494193817,0.0175));
#949=CARTESIAN_POINT('',(0.345467468945923,-0.381827494193817,0.0175));
#950=CARTESIAN_POINT('',(0.228276906226783,-0.295327494193817,0.0175));
#951=CARTESIAN_POINT('',(0.447033900737763,-0.410746671850591,0.0005));
#952=CARTESIAN_POINT('',(0.447033900737763,-0.413246671850591,0.0005));
#953=CARTESIAN_POINT('',(0.447033900737763,-0.413246671850591,0.0005));
#954=CARTESIAN_POINT('',(0.447033900737763,-0.410746671850591,0.0005));
#955=CARTESIAN_POINT('',(0.447033900737763,-0.408246671850591,0.0005));
#956=CARTESIAN_POINT('',(0.447033900737763,-0.408246671850591,0.0005));
#957=CARTESIAN_POINT('',(0.462033900737762,-0.413246671850591,0.0005));
#958=CARTESIAN_POINT('',(0.477033900737762,-0.413246671850591,0.0005));
#959=CARTESIAN_POINT('',(0.477033900737762,-0.413246671850591,0.0005));
#960=CARTESIAN_POINT('',(0.462033900737762,-0.413246671850591,0.0005));
#961=CARTESIAN_POINT('',(0.477033900737762,-0.410746671850591,0.0005));
#962=CARTESIAN_POINT('',(0.477033900737762,-0.408246671850591,0.0005));
#963=CARTESIAN_POINT('',(0.477033900737762,-0.408246671850591,0.0005));
#964=CARTESIAN_POINT('',(0.477033900737762,-0.410746671850591,0.0005));
#965=CARTESIAN_POINT('',(0.462033900737762,-0.408246671850591,0.0005));
#966=CARTESIAN_POINT('',(0.462033900737762,-0.408246671850591,0.0005));
#967=CARTESIAN_POINT('',(0.228276906226783,-0.295327494193817,0.0005));
#968=CARTESIAN_POINT('',(0.440783900737763,-0.419898569583893,0.0005));
#969=CARTESIAN_POINT('',(0.459533900737763,-0.419898569583893,0.0005));
#970=CARTESIAN_POINT('',(0.459533900737763,-0.419898569583893,0.0005));
#971=CARTESIAN_POINT('',(0.440783900737763,-0.419898569583893,0.0005));
#972=CARTESIAN_POINT('',(0.422033900737763,-0.419898569583893,0.0005));
#973=CARTESIAN_POINT('',(0.422033900737763,-0.419898569583893,0.0005));
#974=CARTESIAN_POINT('',(0.459533900737763,-0.425898569583893,0.0005));
#975=CARTESIAN_POINT('',(0.459533900737763,-0.431898569583893,0.0005));
#976=CARTESIAN_POINT('',(0.459533900737763,-0.431898569583893,0.0005));
#977=CARTESIAN_POINT('',(0.459533900737763,-0.425898569583893,0.0005));
#978=CARTESIAN_POINT('',(0.456033900737763,-0.431898569583893,0.0005));
#979=CARTESIAN_POINT('',(0.452533900737763,-0.431898569583893,0.0005));
#980=CARTESIAN_POINT('',(0.452533900737763,-0.431898569583893,0.0005));
#981=CARTESIAN_POINT('',(0.456033900737763,-0.431898569583893,0.0005));
#982=CARTESIAN_POINT('',(0.457283900737763,-0.439150038123131,0.0005));
#983=CARTESIAN_POINT('',(0.462033900737763,-0.446401506662369,0.0005));
#984=CARTESIAN_POINT('',(0.462033900737763,-0.446401506662369,0.0005));
#985=CARTESIAN_POINT('',(0.457283900737763,-0.439150038123131,0.0005));
#986=CARTESIAN_POINT('',(0.466783900737762,-0.439150038123131,0.0005));
#987=CARTESIAN_POINT('',(0.471533900737763,-0.431898569583893,0.0005));
#988=CARTESIAN_POINT('',(0.471533900737763,-0.431898569583893,0.0005));
#989=CARTESIAN_POINT('',(0.466783900737762,-0.439150038123131,0.0005));
#990=CARTESIAN_POINT('',(0.468033900737763,-0.431898569583893,0.0005));
#991=CARTESIAN_POINT('',(0.464533900737763,-0.431898569583893,0.0005));
#992=CARTESIAN_POINT('',(0.464533900737763,-0.431898569583893,0.0005));
#993=CARTESIAN_POINT('',(0.468033900737763,-0.431898569583893,0.0005));
#994=CARTESIAN_POINT('',(0.464533900737763,-0.425898569583893,0.0005));
#995=CARTESIAN_POINT('',(0.464533900737763,-0.419898569583893,0.0005));
#996=CARTESIAN_POINT('',(0.464533900737763,-0.419898569583893,0.0005));
#997=CARTESIAN_POINT('',(0.464533900737763,-0.425898569583893,0.0005));
#998=CARTESIAN_POINT('',(0.483283900737763,-0.419898569583893,0.0005));
#999=CARTESIAN_POINT('',(0.502033900737762,-0.419898569583893,0.0005));
#1000=CARTESIAN_POINT('',(0.502033900737762,-0.419898569583893,0.0005));
#1001=CARTESIAN_POINT('',(0.483283900737763,-0.419898569583893,0.0005));
#1002=CARTESIAN_POINT('',(0.502033900737762,-0.417398569583893,0.0005));
#1003=CARTESIAN_POINT('',(0.502033900737762,-0.414898569583893,0.0005));
#1004=CARTESIAN_POINT('',(0.502033900737762,-0.414898569583893,0.0005));
#1005=CARTESIAN_POINT('',(0.502033900737762,-0.417398569583893,0.0005));
#1006=CARTESIAN_POINT('',(0.462033900737762,-0.414898569583893,0.0005));
#1007=CARTESIAN_POINT('',(0.422033900737763,-0.414898569583893,0.0005));
#1008=CARTESIAN_POINT('',(0.422033900737763,-0.414898569583893,0.0005));
#1009=CARTESIAN_POINT('',(0.462033900737762,-0.414898569583893,0.0005));
#1010=CARTESIAN_POINT('',(0.422033900737763,-0.417398569583893,0.0005));
#1011=CARTESIAN_POINT('',(0.422033900737763,-0.417398569583893,0.0005));
#1012=CARTESIAN_POINT('',(0.228276906226783,-0.295327494193817,0.0005));
#1013=CARTESIAN_POINT('',(0.563586343507642,-0.461327494193817,0.0225));
#1014=CARTESIAN_POINT('',(0.563586343507642,-0.376327494193817,0.0225));
#1015=CARTESIAN_POINT('',(0.563586343507642,-0.376327494193817,0.0225));
#1016=CARTESIAN_POINT('',(0.563586343507642,-0.461327494193817,0.0225));
#1017=CARTESIAN_POINT('',(0.563586343507642,-0.466327494193817,0.0225));
#1018=CARTESIAN_POINT('',(0.563586343507642,-0.466327494193817,0.0225));
#1019=CARTESIAN_POINT('',(0.558586343507642,-0.376327494193817,0.0225));
#1020=CARTESIAN_POINT('',(0.553586343507642,-0.376327494193817,0.0225));
#1021=CARTESIAN_POINT('',(0.553586343507642,-0.376327494193817,0.0225));
#1022=CARTESIAN_POINT('',(0.558586343507642,-0.376327494193817,0.0225));
#1023=CARTESIAN_POINT('',(0.553586343507642,-0.416327494193817,0.0225));
#1024=CARTESIAN_POINT('',(0.553586343507642,-0.456327494193817,0.0225));
#1025=CARTESIAN_POINT('',(0.553586343507642,-0.456327494193817,0.0225));
#1026=CARTESIAN_POINT('',(0.553586343507642,-0.416327494193817,0.0225));
#1027=CARTESIAN_POINT('',(0.448586343507642,-0.456327494193817,0.0225));
#1028=CARTESIAN_POINT('',(0.343586343507642,-0.456327494193817,0.0225));
#1029=CARTESIAN_POINT('',(0.343586343507642,-0.456327494193817,0.0225));
#1030=CARTESIAN_POINT('',(0.448586343507642,-0.456327494193817,0.0225));
#1031=CARTESIAN_POINT('',(0.343586343507642,-0.461327494193817,0.0225));
#1032=CARTESIAN_POINT('',(0.343586343507642,-0.466327494193817,0.0225));
#1033=CARTESIAN_POINT('',(0.343586343507642,-0.466327494193817,0.0225));
#1034=CARTESIAN_POINT('',(0.343586343507642,-0.461327494193817,0.0225));
#1035=CARTESIAN_POINT('',(0.453586343507642,-0.466327494193817,0.0225));
#1036=CARTESIAN_POINT('',(0.453586343507642,-0.466327494193817,0.0225));
#1037=CARTESIAN_POINT('',(0.228276906226783,-0.295327494193817,0.0225));
#1038=MECHANICAL_DESIGN_GEOMETRIC_PRESENTATION_REPRESENTATION('',(#649),
#1039);
#1039=(
GEOMETRIC_REPRESENTATION_CONTEXT(3)
GLOBAL_UNCERTAINTY_ASSIGNED_CONTEXT((#1040))
GLOBAL_UNIT_ASSIGNED_CONTEXT((#1043,#1042,#1041))
REPRESENTATION_CONTEXT('BMat2O','TOP_LEVEL_ASSEMBLY_PART')
);
#1040=UNCERTAINTY_MEASURE_WITH_UNIT(LENGTH_MEASURE(1.E-8),#1043,
'DISTANCE_ACCURACY_VALUE','Maximum Tolerance applied to model');
#1041=(
NAMED_UNIT(*)
SI_UNIT($,.STERADIAN.)
SOLID_ANGLE_UNIT()
);
#1042=(
NAMED_UNIT(*)
PLANE_ANGLE_UNIT()
SI_UNIT($,.RADIAN.)
);
#1043=(
LENGTH_UNIT()
NAMED_UNIT(*)
SI_UNIT($,.METRE.)
);
#1044=PRODUCT_DEFINITION_SHAPE('','',#1045);
#1045=PRODUCT_DEFINITION('','',#1047,#1046);
#1046=PRODUCT_DEFINITION_CONTEXT('',#1053,'design');
#1047=PRODUCT_DEFINITION_FORMATION_WITH_SPECIFIED_SOURCE('','',#1049,
 .NOT_KNOWN.);
#1048=PRODUCT_RELATED_PRODUCT_CATEGORY('','',(#1049));
#1049=PRODUCT('BMat2O','BMat2O','BMat2O',(#1051));
#1050=PRODUCT_CATEGORY('','');
#1051=PRODUCT_CONTEXT('',#1053,'mechanical');
#1052=APPLICATION_PROTOCOL_DEFINITION('international standard',
'ap242_managed_model_based_3d_engineering',2020,#1053);
#1053=APPLICATION_CONTEXT('managed model based 3d engineering');
ENDSEC;
END-ISO-10303-21;
