ISO-10303-21;
HEADER;
/* Generated by software containing ST-Developer
 * from STEP Tools, Inc. (www.steptools.com) 
 */
/* OPTION: using custom renumber hook */

FILE_DESCRIPTION(
/* description */ ('STEP AP242 Edition 2',
'CAx-IF Rec.Pracs.---Representation and Presentation of Product Manufa
cturing Information (PMI)---4.0---2014-10-13',
'CAx-IF Rec.Pracs.---3D Tessellated Geometry---0.4---2014-09-14','2;1',
'CAx-IF Rec.Pracs.---User Defined Attributes---1.5---2016-08-15'),
/* implementation_level */ '2;1');

FILE_NAME(
/* name */ 'Part Studio 1 - TMat6',
/* time_stamp */ '2026-05-20T23:41:51Z',
/* author */ (''),
/* organization */ (''),
/* preprocessor_version */ 'ST-DEVELOPER v20',
/* originating_system */ 'ONSHAPE BY PTC INC, 1.215',
/* authorisation */ '  ');

FILE_SCHEMA (('AP242_MANAGED_MODEL_BASED_3D_ENGINEERING_MIM_LF { 1 0 10303 442 3 1 4 }'));
ENDSEC;

DATA;
#10=SHAPE_REPRESENTATION_RELATIONSHIP('','',#1126,#11);
#11=ADVANCED_BREP_SHAPE_REPRESENTATION('',(#1124),#1769);
#12=PLANE('',#1133);
#13=PLANE('',#1134);
#14=PLANE('',#1135);
#15=PLANE('',#1136);
#16=PLANE('',#1137);
#17=PLANE('',#1138);
#18=PLANE('',#1139);
#19=PLANE('',#1140);
#20=PLANE('',#1141);
#21=PLANE('',#1142);
#22=PLANE('',#1143);
#23=PLANE('',#1144);
#24=PLANE('',#1145);
#25=PLANE('',#1149);
#26=PLANE('',#1150);
#27=PLANE('',#1151);
#28=PLANE('',#1152);
#29=PLANE('',#1153);
#30=PLANE('',#1154);
#31=PLANE('',#1155);
#32=PLANE('',#1156);
#33=PLANE('',#1157);
#34=PLANE('',#1158);
#35=PLANE('',#1159);
#36=PLANE('',#1160);
#37=PLANE('',#1161);
#38=PLANE('',#1162);
#39=PLANE('',#1163);
#40=PLANE('',#1164);
#41=PLANE('',#1165);
#42=PLANE('',#1166);
#43=PLANE('',#1167);
#44=PLANE('',#1168);
#45=PLANE('',#1169);
#46=PLANE('',#1170);
#47=PLANE('',#1171);
#48=PLANE('',#1172);
#49=PLANE('',#1173);
#50=PLANE('',#1174);
#51=PLANE('',#1175);
#52=PLANE('',#1176);
#53=PLANE('',#1177);
#54=PLANE('',#1178);
#55=PLANE('',#1179);
#56=PLANE('',#1180);
#57=PLANE('',#1181);
#58=PLANE('',#1182);
#59=PLANE('',#1183);
#60=PLANE('',#1184);
#61=PLANE('',#1185);
#62=PLANE('',#1186);
#63=PLANE('',#1187);
#64=PLANE('',#1188);
#65=CIRCLE('',#1130,0.002);
#66=CIRCLE('',#1132,0.002);
#67=CIRCLE('',#1147,0.00515);
#68=CIRCLE('',#1148,0.00515);
#69=LINE('',#1464,#215);
#70=LINE('',#1468,#216);
#71=LINE('',#1470,#217);
#72=LINE('',#1472,#218);
#73=LINE('',#1476,#219);
#74=LINE('',#1479,#220);
#75=LINE('',#1481,#221);
#76=LINE('',#1483,#222);
#77=LINE('',#1485,#223);
#78=LINE('',#1487,#224);
#79=LINE('',#1488,#225);
#80=LINE('',#1491,#226);
#81=LINE('',#1493,#227);
#82=LINE('',#1495,#228);
#83=LINE('',#1496,#229);
#84=LINE('',#1499,#230);
#85=LINE('',#1501,#231);
#86=LINE('',#1503,#232);
#87=LINE('',#1504,#233);
#88=LINE('',#1507,#234);
#89=LINE('',#1509,#235);
#90=LINE('',#1511,#236);
#91=LINE('',#1512,#237);
#92=LINE('',#1515,#238);
#93=LINE('',#1517,#239);
#94=LINE('',#1519,#240);
#95=LINE('',#1520,#241);
#96=LINE('',#1522,#242);
#97=LINE('',#1524,#243);
#98=LINE('',#1526,#244);
#99=LINE('',#1528,#245);
#100=LINE('',#1530,#246);
#101=LINE('',#1532,#247);
#102=LINE('',#1534,#248);
#103=LINE('',#1536,#249);
#104=LINE('',#1538,#250);
#105=LINE('',#1540,#251);
#106=LINE('',#1542,#252);
#107=LINE('',#1544,#253);
#108=LINE('',#1546,#254);
#109=LINE('',#1548,#255);
#110=LINE('',#1550,#256);
#111=LINE('',#1552,#257);
#112=LINE('',#1554,#258);
#113=LINE('',#1556,#259);
#114=LINE('',#1558,#260);
#115=LINE('',#1561,#261);
#116=LINE('',#1563,#262);
#117=LINE('',#1565,#263);
#118=LINE('',#1567,#264);
#119=LINE('',#1569,#265);
#120=LINE('',#1571,#266);
#121=LINE('',#1573,#267);
#122=LINE('',#1574,#268);
#123=LINE('',#1576,#269);
#124=LINE('',#1577,#270);
#125=LINE('',#1579,#271);
#126=LINE('',#1580,#272);
#127=LINE('',#1583,#273);
#128=LINE('',#1585,#274);
#129=LINE('',#1587,#275);
#130=LINE('',#1589,#276);
#131=LINE('',#1591,#277);
#132=LINE('',#1592,#278);
#133=LINE('',#1595,#279);
#134=LINE('',#1597,#280);
#135=LINE('',#1599,#281);
#136=LINE('',#1600,#282);
#137=LINE('',#1603,#283);
#138=LINE('',#1605,#284);
#139=LINE('',#1607,#285);
#140=LINE('',#1608,#286);
#141=LINE('',#1611,#287);
#142=LINE('',#1613,#288);
#143=LINE('',#1615,#289);
#144=LINE('',#1616,#290);
#145=LINE('',#1619,#291);
#146=LINE('',#1621,#292);
#147=LINE('',#1623,#293);
#148=LINE('',#1624,#294);
#149=LINE('',#1627,#295);
#150=LINE('',#1629,#296);
#151=LINE('',#1631,#297);
#152=LINE('',#1632,#298);
#153=LINE('',#1635,#299);
#154=LINE('',#1637,#300);
#155=LINE('',#1639,#301);
#156=LINE('',#1641,#302);
#157=LINE('',#1644,#303);
#158=LINE('',#1646,#304);
#159=LINE('',#1648,#305);
#160=LINE('',#1650,#306);
#161=LINE('',#1652,#307);
#162=LINE('',#1654,#308);
#163=LINE('',#1655,#309);
#164=LINE('',#1656,#310);
#165=LINE('',#1658,#311);
#166=LINE('',#1659,#312);
#167=LINE('',#1660,#313);
#168=LINE('',#1662,#314);
#169=LINE('',#1665,#315);
#170=LINE('',#1668,#316);
#171=LINE('',#1670,#317);
#172=LINE('',#1672,#318);
#173=LINE('',#1681,#319);
#174=LINE('',#1683,#320);
#175=LINE('',#1685,#321);
#176=LINE('',#1687,#322);
#177=LINE('',#1689,#323);
#178=LINE('',#1691,#324);
#179=LINE('',#1693,#325);
#180=LINE('',#1695,#326);
#181=LINE('',#1698,#327);
#182=LINE('',#1700,#328);
#183=LINE('',#1702,#329);
#184=LINE('',#1704,#330);
#185=LINE('',#1706,#331);
#186=LINE('',#1708,#332);
#187=LINE('',#1710,#333);
#188=LINE('',#1712,#334);
#189=LINE('',#1715,#335);
#190=LINE('',#1716,#336);
#191=LINE('',#1718,#337);
#192=LINE('',#1720,#338);
#193=LINE('',#1723,#339);
#194=LINE('',#1724,#340);
#195=LINE('',#1726,#341);
#196=LINE('',#1728,#342);
#197=LINE('',#1731,#343);
#198=LINE('',#1732,#344);
#199=LINE('',#1734,#345);
#200=LINE('',#1736,#346);
#201=LINE('',#1739,#347);
#202=LINE('',#1740,#348);
#203=LINE('',#1742,#349);
#204=LINE('',#1744,#350);
#205=LINE('',#1747,#351);
#206=LINE('',#1749,#352);
#207=LINE('',#1752,#353);
#208=LINE('',#1754,#354);
#209=LINE('',#1757,#355);
#210=LINE('',#1758,#356);
#211=LINE('',#1760,#357);
#212=LINE('',#1762,#358);
#213=LINE('',#1764,#359);
#214=LINE('',#1766,#360);
#215=VECTOR('',#1195,1.);
#216=VECTOR('',#1198,1.);
#217=VECTOR('',#1201,1.);
#218=VECTOR('',#1202,1.);
#219=VECTOR('',#1207,1.);
#220=VECTOR('',#1208,1.);
#221=VECTOR('',#1209,1.);
#222=VECTOR('',#1210,1.);
#223=VECTOR('',#1211,1.);
#224=VECTOR('',#1212,1.);
#225=VECTOR('',#1213,1.);
#226=VECTOR('',#1214,1.);
#227=VECTOR('',#1215,1.);
#228=VECTOR('',#1216,1.);
#229=VECTOR('',#1217,1.);
#230=VECTOR('',#1218,1.);
#231=VECTOR('',#1219,1.);
#232=VECTOR('',#1220,1.);
#233=VECTOR('',#1221,1.);
#234=VECTOR('',#1222,1.);
#235=VECTOR('',#1223,1.);
#236=VECTOR('',#1224,1.);
#237=VECTOR('',#1225,1.);
#238=VECTOR('',#1226,1.);
#239=VECTOR('',#1227,1.);
#240=VECTOR('',#1228,1.);
#241=VECTOR('',#1229,1.);
#242=VECTOR('',#1230,1.);
#243=VECTOR('',#1231,1.);
#244=VECTOR('',#1232,1.);
#245=VECTOR('',#1233,1.);
#246=VECTOR('',#1234,1.);
#247=VECTOR('',#1235,1.);
#248=VECTOR('',#1236,1.);
#249=VECTOR('',#1237,1.);
#250=VECTOR('',#1238,1.);
#251=VECTOR('',#1241,1.);
#252=VECTOR('',#1242,1.);
#253=VECTOR('',#1243,1.);
#254=VECTOR('',#1244,1.);
#255=VECTOR('',#1245,1.);
#256=VECTOR('',#1248,1.);
#257=VECTOR('',#1249,1.);
#258=VECTOR('',#1250,1.);
#259=VECTOR('',#1251,1.);
#260=VECTOR('',#1254,1.);
#261=VECTOR('',#1255,1.);
#262=VECTOR('',#1256,1.);
#263=VECTOR('',#1257,1.);
#264=VECTOR('',#1258,1.);
#265=VECTOR('',#1259,1.);
#266=VECTOR('',#1260,1.);
#267=VECTOR('',#1261,1.);
#268=VECTOR('',#1262,1.);
#269=VECTOR('',#1263,1.);
#270=VECTOR('',#1264,1.);
#271=VECTOR('',#1265,1.);
#272=VECTOR('',#1266,1.);
#273=VECTOR('',#1267,1.);
#274=VECTOR('',#1268,1.);
#275=VECTOR('',#1269,1.);
#276=VECTOR('',#1270,1.);
#277=VECTOR('',#1271,1.);
#278=VECTOR('',#1272,1.);
#279=VECTOR('',#1273,1.);
#280=VECTOR('',#1274,1.);
#281=VECTOR('',#1275,1.);
#282=VECTOR('',#1276,1.);
#283=VECTOR('',#1277,1.);
#284=VECTOR('',#1278,1.);
#285=VECTOR('',#1279,1.);
#286=VECTOR('',#1280,1.);
#287=VECTOR('',#1281,1.);
#288=VECTOR('',#1282,1.);
#289=VECTOR('',#1283,1.);
#290=VECTOR('',#1284,1.);
#291=VECTOR('',#1285,1.);
#292=VECTOR('',#1286,1.);
#293=VECTOR('',#1287,1.);
#294=VECTOR('',#1288,1.);
#295=VECTOR('',#1289,1.);
#296=VECTOR('',#1290,1.);
#297=VECTOR('',#1291,1.);
#298=VECTOR('',#1292,1.);
#299=VECTOR('',#1293,1.);
#300=VECTOR('',#1294,1.);
#301=VECTOR('',#1295,1.);
#302=VECTOR('',#1298,1.);
#303=VECTOR('',#1299,1.);
#304=VECTOR('',#1300,1.);
#305=VECTOR('',#1301,1.);
#306=VECTOR('',#1302,1.);
#307=VECTOR('',#1303,1.);
#308=VECTOR('',#1306,1.);
#309=VECTOR('',#1307,1.);
#310=VECTOR('',#1308,1.);
#311=VECTOR('',#1311,1.);
#312=VECTOR('',#1312,1.);
#313=VECTOR('',#1313,1.);
#314=VECTOR('',#1316,1.);
#315=VECTOR('',#1321,1.);
#316=VECTOR('',#1326,1.);
#317=VECTOR('',#1327,1.);
#318=VECTOR('',#1330,1.);
#319=VECTOR('',#1343,1.);
#320=VECTOR('',#1344,1.);
#321=VECTOR('',#1345,1.);
#322=VECTOR('',#1348,1.);
#323=VECTOR('',#1349,1.);
#324=VECTOR('',#1352,1.);
#325=VECTOR('',#1353,1.);
#326=VECTOR('',#1356,1.);
#327=VECTOR('',#1361,1.);
#328=VECTOR('',#1362,1.);
#329=VECTOR('',#1363,1.);
#330=VECTOR('',#1366,1.);
#331=VECTOR('',#1367,1.);
#332=VECTOR('',#1370,1.);
#333=VECTOR('',#1371,1.);
#334=VECTOR('',#1374,1.);
#335=VECTOR('',#1379,1.);
#336=VECTOR('',#1380,1.);
#337=VECTOR('',#1383,1.);
#338=VECTOR('',#1386,1.);
#339=VECTOR('',#1391,1.);
#340=VECTOR('',#1392,1.);
#341=VECTOR('',#1395,1.);
#342=VECTOR('',#1398,1.);
#343=VECTOR('',#1403,1.);
#344=VECTOR('',#1404,1.);
#345=VECTOR('',#1407,1.);
#346=VECTOR('',#1410,1.);
#347=VECTOR('',#1415,1.);
#348=VECTOR('',#1416,1.);
#349=VECTOR('',#1419,1.);
#350=VECTOR('',#1422,1.);
#351=VECTOR('',#1427,1.);
#352=VECTOR('',#1430,1.);
#353=VECTOR('',#1435,1.);
#354=VECTOR('',#1438,1.);
#355=VECTOR('',#1443,1.);
#356=VECTOR('',#1444,1.);
#357=VECTOR('',#1447,1.);
#358=VECTOR('',#1450,1.);
#359=VECTOR('',#1453,1.);
#360=VECTOR('',#1456,1.);
#361=ORIENTED_EDGE('',*,*,#663,.F.);
#362=ORIENTED_EDGE('',*,*,#664,.F.);
#363=ORIENTED_EDGE('',*,*,#665,.F.);
#364=ORIENTED_EDGE('',*,*,#666,.F.);
#365=ORIENTED_EDGE('',*,*,#667,.F.);
#366=ORIENTED_EDGE('',*,*,#663,.T.);
#367=ORIENTED_EDGE('',*,*,#668,.F.);
#368=ORIENTED_EDGE('',*,*,#669,.F.);
#369=ORIENTED_EDGE('',*,*,#670,.T.);
#370=ORIENTED_EDGE('',*,*,#671,.F.);
#371=ORIENTED_EDGE('',*,*,#672,.T.);
#372=ORIENTED_EDGE('',*,*,#673,.T.);
#373=ORIENTED_EDGE('',*,*,#674,.F.);
#374=ORIENTED_EDGE('',*,*,#675,.T.);
#375=ORIENTED_EDGE('',*,*,#676,.F.);
#376=ORIENTED_EDGE('',*,*,#677,.T.);
#377=ORIENTED_EDGE('',*,*,#678,.T.);
#378=ORIENTED_EDGE('',*,*,#679,.F.);
#379=ORIENTED_EDGE('',*,*,#680,.F.);
#380=ORIENTED_EDGE('',*,*,#681,.T.);
#381=ORIENTED_EDGE('',*,*,#682,.T.);
#382=ORIENTED_EDGE('',*,*,#683,.F.);
#383=ORIENTED_EDGE('',*,*,#684,.F.);
#384=ORIENTED_EDGE('',*,*,#685,.T.);
#385=ORIENTED_EDGE('',*,*,#686,.T.);
#386=ORIENTED_EDGE('',*,*,#687,.F.);
#387=ORIENTED_EDGE('',*,*,#688,.F.);
#388=ORIENTED_EDGE('',*,*,#689,.T.);
#389=ORIENTED_EDGE('',*,*,#690,.T.);
#390=ORIENTED_EDGE('',*,*,#691,.F.);
#391=ORIENTED_EDGE('',*,*,#692,.F.);
#392=ORIENTED_EDGE('',*,*,#664,.T.);
#393=ORIENTED_EDGE('',*,*,#667,.T.);
#394=ORIENTED_EDGE('',*,*,#693,.F.);
#395=ORIENTED_EDGE('',*,*,#694,.F.);
#396=ORIENTED_EDGE('',*,*,#695,.F.);
#397=ORIENTED_EDGE('',*,*,#696,.T.);
#398=ORIENTED_EDGE('',*,*,#697,.F.);
#399=ORIENTED_EDGE('',*,*,#698,.F.);
#400=ORIENTED_EDGE('',*,*,#699,.T.);
#401=ORIENTED_EDGE('',*,*,#700,.F.);
#402=ORIENTED_EDGE('',*,*,#701,.F.);
#403=ORIENTED_EDGE('',*,*,#702,.F.);
#404=ORIENTED_EDGE('',*,*,#698,.T.);
#405=ORIENTED_EDGE('',*,*,#703,.F.);
#406=ORIENTED_EDGE('',*,*,#704,.F.);
#407=ORIENTED_EDGE('',*,*,#705,.T.);
#408=ORIENTED_EDGE('',*,*,#706,.F.);
#409=ORIENTED_EDGE('',*,*,#707,.F.);
#410=ORIENTED_EDGE('',*,*,#708,.F.);
#411=ORIENTED_EDGE('',*,*,#709,.F.);
#412=ORIENTED_EDGE('',*,*,#710,.F.);
#413=ORIENTED_EDGE('',*,*,#703,.T.);
#414=ORIENTED_EDGE('',*,*,#697,.T.);
#415=ORIENTED_EDGE('',*,*,#711,.F.);
#416=ORIENTED_EDGE('',*,*,#712,.T.);
#417=ORIENTED_EDGE('',*,*,#713,.F.);
#418=ORIENTED_EDGE('',*,*,#714,.F.);
#419=ORIENTED_EDGE('',*,*,#715,.T.);
#420=ORIENTED_EDGE('',*,*,#716,.F.);
#421=ORIENTED_EDGE('',*,*,#717,.F.);
#422=ORIENTED_EDGE('',*,*,#718,.T.);
#423=ORIENTED_EDGE('',*,*,#706,.T.);
#424=ORIENTED_EDGE('',*,*,#719,.T.);
#425=ORIENTED_EDGE('',*,*,#720,.T.);
#426=ORIENTED_EDGE('',*,*,#708,.T.);
#427=ORIENTED_EDGE('',*,*,#721,.T.);
#428=ORIENTED_EDGE('',*,*,#722,.F.);
#429=ORIENTED_EDGE('',*,*,#723,.F.);
#430=ORIENTED_EDGE('',*,*,#724,.T.);
#431=ORIENTED_EDGE('',*,*,#725,.T.);
#432=ORIENTED_EDGE('',*,*,#726,.F.);
#433=ORIENTED_EDGE('',*,*,#727,.T.);
#434=ORIENTED_EDGE('',*,*,#728,.T.);
#435=ORIENTED_EDGE('',*,*,#729,.T.);
#436=ORIENTED_EDGE('',*,*,#730,.T.);
#437=ORIENTED_EDGE('',*,*,#731,.F.);
#438=ORIENTED_EDGE('',*,*,#732,.F.);
#439=ORIENTED_EDGE('',*,*,#733,.T.);
#440=ORIENTED_EDGE('',*,*,#734,.T.);
#441=ORIENTED_EDGE('',*,*,#735,.F.);
#442=ORIENTED_EDGE('',*,*,#736,.F.);
#443=ORIENTED_EDGE('',*,*,#737,.F.);
#444=ORIENTED_EDGE('',*,*,#738,.T.);
#445=ORIENTED_EDGE('',*,*,#739,.T.);
#446=ORIENTED_EDGE('',*,*,#740,.F.);
#447=ORIENTED_EDGE('',*,*,#741,.F.);
#448=ORIENTED_EDGE('',*,*,#742,.T.);
#449=ORIENTED_EDGE('',*,*,#743,.T.);
#450=ORIENTED_EDGE('',*,*,#744,.F.);
#451=ORIENTED_EDGE('',*,*,#745,.F.);
#452=ORIENTED_EDGE('',*,*,#746,.T.);
#453=ORIENTED_EDGE('',*,*,#747,.T.);
#454=ORIENTED_EDGE('',*,*,#748,.F.);
#455=ORIENTED_EDGE('',*,*,#749,.F.);
#456=ORIENTED_EDGE('',*,*,#750,.T.);
#457=ORIENTED_EDGE('',*,*,#751,.T.);
#458=ORIENTED_EDGE('',*,*,#752,.F.);
#459=ORIENTED_EDGE('',*,*,#753,.T.);
#460=ORIENTED_EDGE('',*,*,#754,.T.);
#461=ORIENTED_EDGE('',*,*,#755,.T.);
#462=ORIENTED_EDGE('',*,*,#756,.T.);
#463=ORIENTED_EDGE('',*,*,#757,.F.);
#464=ORIENTED_EDGE('',*,*,#758,.F.);
#465=ORIENTED_EDGE('',*,*,#759,.T.);
#466=ORIENTED_EDGE('',*,*,#665,.T.);
#467=ORIENTED_EDGE('',*,*,#692,.T.);
#468=ORIENTED_EDGE('',*,*,#760,.T.);
#469=ORIENTED_EDGE('',*,*,#715,.F.);
#470=ORIENTED_EDGE('',*,*,#761,.F.);
#471=ORIENTED_EDGE('',*,*,#753,.F.);
#472=ORIENTED_EDGE('',*,*,#693,.T.);
#473=ORIENTED_EDGE('',*,*,#669,.T.);
#474=ORIENTED_EDGE('',*,*,#762,.F.);
#475=ORIENTED_EDGE('',*,*,#756,.F.);
#476=ORIENTED_EDGE('',*,*,#763,.F.);
#477=ORIENTED_EDGE('',*,*,#712,.F.);
#478=ORIENTED_EDGE('',*,*,#764,.T.);
#479=ORIENTED_EDGE('',*,*,#762,.T.);
#480=ORIENTED_EDGE('',*,*,#668,.T.);
#481=ORIENTED_EDGE('',*,*,#765,.F.);
#482=ORIENTED_EDGE('',*,*,#757,.T.);
#483=ORIENTED_EDGE('',*,*,#765,.T.);
#484=ORIENTED_EDGE('',*,*,#666,.T.);
#485=ORIENTED_EDGE('',*,*,#759,.F.);
#486=ORIENTED_EDGE('',*,*,#758,.T.);
#487=ORIENTED_EDGE('',*,*,#713,.T.);
#488=ORIENTED_EDGE('',*,*,#763,.T.);
#489=ORIENTED_EDGE('',*,*,#755,.F.);
#490=ORIENTED_EDGE('',*,*,#766,.T.);
#491=ORIENTED_EDGE('',*,*,#714,.T.);
#492=ORIENTED_EDGE('',*,*,#766,.F.);
#493=ORIENTED_EDGE('',*,*,#754,.F.);
#494=ORIENTED_EDGE('',*,*,#761,.T.);
#495=ORIENTED_EDGE('',*,*,#719,.F.);
#496=ORIENTED_EDGE('',*,*,#705,.F.);
#497=ORIENTED_EDGE('',*,*,#767,.T.);
#498=ORIENTED_EDGE('',*,*,#768,.T.);
#499=ORIENTED_EDGE('',*,*,#720,.F.);
#500=ORIENTED_EDGE('',*,*,#768,.F.);
#501=ORIENTED_EDGE('',*,*,#769,.T.);
#502=ORIENTED_EDGE('',*,*,#709,.T.);
#503=ORIENTED_EDGE('',*,*,#770,.T.);
#504=ORIENTED_EDGE('',*,*,#771,.T.);
#505=ORIENTED_EDGE('',*,*,#767,.F.);
#506=ORIENTED_EDGE('',*,*,#704,.T.);
#507=ORIENTED_EDGE('',*,*,#710,.T.);
#508=ORIENTED_EDGE('',*,*,#769,.F.);
#509=ORIENTED_EDGE('',*,*,#770,.F.);
#510=ORIENTED_EDGE('',*,*,#771,.F.);
#511=ORIENTED_EDGE('',*,*,#733,.F.);
#512=ORIENTED_EDGE('',*,*,#772,.F.);
#513=ORIENTED_EDGE('',*,*,#773,.T.);
#514=ORIENTED_EDGE('',*,*,#774,.T.);
#515=ORIENTED_EDGE('',*,*,#736,.T.);
#516=ORIENTED_EDGE('',*,*,#775,.F.);
#517=ORIENTED_EDGE('',*,*,#776,.F.);
#518=ORIENTED_EDGE('',*,*,#772,.T.);
#519=ORIENTED_EDGE('',*,*,#735,.T.);
#520=ORIENTED_EDGE('',*,*,#777,.F.);
#521=ORIENTED_EDGE('',*,*,#778,.F.);
#522=ORIENTED_EDGE('',*,*,#775,.T.);
#523=ORIENTED_EDGE('',*,*,#734,.F.);
#524=ORIENTED_EDGE('',*,*,#774,.F.);
#525=ORIENTED_EDGE('',*,*,#779,.T.);
#526=ORIENTED_EDGE('',*,*,#777,.T.);
#527=ORIENTED_EDGE('',*,*,#773,.F.);
#528=ORIENTED_EDGE('',*,*,#776,.T.);
#529=ORIENTED_EDGE('',*,*,#778,.T.);
#530=ORIENTED_EDGE('',*,*,#779,.F.);
#531=ORIENTED_EDGE('',*,*,#729,.F.);
#532=ORIENTED_EDGE('',*,*,#780,.F.);
#533=ORIENTED_EDGE('',*,*,#781,.T.);
#534=ORIENTED_EDGE('',*,*,#782,.T.);
#535=ORIENTED_EDGE('',*,*,#732,.T.);
#536=ORIENTED_EDGE('',*,*,#783,.F.);
#537=ORIENTED_EDGE('',*,*,#784,.F.);
#538=ORIENTED_EDGE('',*,*,#780,.T.);
#539=ORIENTED_EDGE('',*,*,#731,.T.);
#540=ORIENTED_EDGE('',*,*,#785,.F.);
#541=ORIENTED_EDGE('',*,*,#786,.F.);
#542=ORIENTED_EDGE('',*,*,#783,.T.);
#543=ORIENTED_EDGE('',*,*,#730,.F.);
#544=ORIENTED_EDGE('',*,*,#782,.F.);
#545=ORIENTED_EDGE('',*,*,#787,.T.);
#546=ORIENTED_EDGE('',*,*,#785,.T.);
#547=ORIENTED_EDGE('',*,*,#781,.F.);
#548=ORIENTED_EDGE('',*,*,#784,.T.);
#549=ORIENTED_EDGE('',*,*,#786,.T.);
#550=ORIENTED_EDGE('',*,*,#787,.F.);
#551=ORIENTED_EDGE('',*,*,#680,.T.);
#552=ORIENTED_EDGE('',*,*,#788,.T.);
#553=ORIENTED_EDGE('',*,*,#738,.F.);
#554=ORIENTED_EDGE('',*,*,#789,.F.);
#555=ORIENTED_EDGE('',*,*,#789,.T.);
#556=ORIENTED_EDGE('',*,*,#737,.T.);
#557=ORIENTED_EDGE('',*,*,#790,.F.);
#558=ORIENTED_EDGE('',*,*,#681,.F.);
#559=ORIENTED_EDGE('',*,*,#790,.T.);
#560=ORIENTED_EDGE('',*,*,#740,.T.);
#561=ORIENTED_EDGE('',*,*,#791,.F.);
#562=ORIENTED_EDGE('',*,*,#682,.F.);
#563=ORIENTED_EDGE('',*,*,#683,.T.);
#564=ORIENTED_EDGE('',*,*,#791,.T.);
#565=ORIENTED_EDGE('',*,*,#739,.F.);
#566=ORIENTED_EDGE('',*,*,#788,.F.);
#567=ORIENTED_EDGE('',*,*,#684,.T.);
#568=ORIENTED_EDGE('',*,*,#792,.T.);
#569=ORIENTED_EDGE('',*,*,#742,.F.);
#570=ORIENTED_EDGE('',*,*,#793,.F.);
#571=ORIENTED_EDGE('',*,*,#793,.T.);
#572=ORIENTED_EDGE('',*,*,#741,.T.);
#573=ORIENTED_EDGE('',*,*,#794,.F.);
#574=ORIENTED_EDGE('',*,*,#685,.F.);
#575=ORIENTED_EDGE('',*,*,#794,.T.);
#576=ORIENTED_EDGE('',*,*,#744,.T.);
#577=ORIENTED_EDGE('',*,*,#795,.F.);
#578=ORIENTED_EDGE('',*,*,#686,.F.);
#579=ORIENTED_EDGE('',*,*,#687,.T.);
#580=ORIENTED_EDGE('',*,*,#795,.T.);
#581=ORIENTED_EDGE('',*,*,#743,.F.);
#582=ORIENTED_EDGE('',*,*,#792,.F.);
#583=ORIENTED_EDGE('',*,*,#676,.T.);
#584=ORIENTED_EDGE('',*,*,#796,.T.);
#585=ORIENTED_EDGE('',*,*,#746,.F.);
#586=ORIENTED_EDGE('',*,*,#797,.F.);
#587=ORIENTED_EDGE('',*,*,#797,.T.);
#588=ORIENTED_EDGE('',*,*,#745,.T.);
#589=ORIENTED_EDGE('',*,*,#798,.F.);
#590=ORIENTED_EDGE('',*,*,#677,.F.);
#591=ORIENTED_EDGE('',*,*,#798,.T.);
#592=ORIENTED_EDGE('',*,*,#748,.T.);
#593=ORIENTED_EDGE('',*,*,#799,.F.);
#594=ORIENTED_EDGE('',*,*,#678,.F.);
#595=ORIENTED_EDGE('',*,*,#679,.T.);
#596=ORIENTED_EDGE('',*,*,#799,.T.);
#597=ORIENTED_EDGE('',*,*,#747,.F.);
#598=ORIENTED_EDGE('',*,*,#796,.F.);
#599=ORIENTED_EDGE('',*,*,#688,.T.);
#600=ORIENTED_EDGE('',*,*,#800,.T.);
#601=ORIENTED_EDGE('',*,*,#750,.F.);
#602=ORIENTED_EDGE('',*,*,#801,.F.);
#603=ORIENTED_EDGE('',*,*,#801,.T.);
#604=ORIENTED_EDGE('',*,*,#749,.T.);
#605=ORIENTED_EDGE('',*,*,#802,.F.);
#606=ORIENTED_EDGE('',*,*,#689,.F.);
#607=ORIENTED_EDGE('',*,*,#802,.T.);
#608=ORIENTED_EDGE('',*,*,#752,.T.);
#609=ORIENTED_EDGE('',*,*,#803,.F.);
#610=ORIENTED_EDGE('',*,*,#690,.F.);
#611=ORIENTED_EDGE('',*,*,#691,.T.);
#612=ORIENTED_EDGE('',*,*,#803,.T.);
#613=ORIENTED_EDGE('',*,*,#751,.F.);
#614=ORIENTED_EDGE('',*,*,#800,.F.);
#615=ORIENTED_EDGE('',*,*,#711,.T.);
#616=ORIENTED_EDGE('',*,*,#804,.T.);
#617=ORIENTED_EDGE('',*,*,#694,.T.);
#618=ORIENTED_EDGE('',*,*,#764,.F.);
#619=ORIENTED_EDGE('',*,*,#722,.T.);
#620=ORIENTED_EDGE('',*,*,#805,.T.);
#621=ORIENTED_EDGE('',*,*,#695,.T.);
#622=ORIENTED_EDGE('',*,*,#804,.F.);
#623=ORIENTED_EDGE('',*,*,#707,.T.);
#624=ORIENTED_EDGE('',*,*,#696,.F.);
#625=ORIENTED_EDGE('',*,*,#805,.F.);
#626=ORIENTED_EDGE('',*,*,#721,.F.);
#627=ORIENTED_EDGE('',*,*,#716,.T.);
#628=ORIENTED_EDGE('',*,*,#760,.F.);
#629=ORIENTED_EDGE('',*,*,#701,.T.);
#630=ORIENTED_EDGE('',*,*,#806,.F.);
#631=ORIENTED_EDGE('',*,*,#807,.T.);
#632=ORIENTED_EDGE('',*,*,#699,.F.);
#633=ORIENTED_EDGE('',*,*,#702,.T.);
#634=ORIENTED_EDGE('',*,*,#718,.F.);
#635=ORIENTED_EDGE('',*,*,#717,.T.);
#636=ORIENTED_EDGE('',*,*,#806,.T.);
#637=ORIENTED_EDGE('',*,*,#700,.T.);
#638=ORIENTED_EDGE('',*,*,#807,.F.);
#639=ORIENTED_EDGE('',*,*,#723,.T.);
#640=ORIENTED_EDGE('',*,*,#808,.T.);
#641=ORIENTED_EDGE('',*,*,#671,.T.);
#642=ORIENTED_EDGE('',*,*,#809,.F.);
#643=ORIENTED_EDGE('',*,*,#810,.T.);
#644=ORIENTED_EDGE('',*,*,#672,.F.);
#645=ORIENTED_EDGE('',*,*,#808,.F.);
#646=ORIENTED_EDGE('',*,*,#728,.F.);
#647=ORIENTED_EDGE('',*,*,#811,.T.);
#648=ORIENTED_EDGE('',*,*,#673,.F.);
#649=ORIENTED_EDGE('',*,*,#810,.F.);
#650=ORIENTED_EDGE('',*,*,#727,.F.);
#651=ORIENTED_EDGE('',*,*,#726,.T.);
#652=ORIENTED_EDGE('',*,*,#812,.T.);
#653=ORIENTED_EDGE('',*,*,#674,.T.);
#654=ORIENTED_EDGE('',*,*,#811,.F.);
#655=ORIENTED_EDGE('',*,*,#813,.T.);
#656=ORIENTED_EDGE('',*,*,#675,.F.);
#657=ORIENTED_EDGE('',*,*,#812,.F.);
#658=ORIENTED_EDGE('',*,*,#725,.F.);
#659=ORIENTED_EDGE('',*,*,#809,.T.);
#660=ORIENTED_EDGE('',*,*,#670,.F.);
#661=ORIENTED_EDGE('',*,*,#813,.F.);
#662=ORIENTED_EDGE('',*,*,#724,.F.);
#663=EDGE_CURVE('',#814,#815,#915,.F.);
#664=EDGE_CURVE('',#816,#814,#69,.T.);
#665=EDGE_CURVE('',#817,#816,#65,.F.);
#666=EDGE_CURVE('',#815,#817,#70,.F.);
#667=EDGE_CURVE('',#814,#818,#71,.T.);
#668=EDGE_CURVE('',#819,#815,#72,.F.);
#669=EDGE_CURVE('',#818,#819,#66,.F.);
#670=EDGE_CURVE('',#820,#821,#73,.T.);
#671=EDGE_CURVE('',#822,#821,#74,.T.);
#672=EDGE_CURVE('',#822,#823,#75,.T.);
#673=EDGE_CURVE('',#823,#824,#76,.T.);
#674=EDGE_CURVE('',#825,#824,#77,.T.);
#675=EDGE_CURVE('',#825,#820,#78,.T.);
#676=EDGE_CURVE('',#826,#827,#79,.T.);
#677=EDGE_CURVE('',#826,#828,#80,.T.);
#678=EDGE_CURVE('',#828,#829,#81,.T.);
#679=EDGE_CURVE('',#827,#829,#82,.T.);
#680=EDGE_CURVE('',#830,#831,#83,.T.);
#681=EDGE_CURVE('',#830,#832,#84,.T.);
#682=EDGE_CURVE('',#832,#833,#85,.T.);
#683=EDGE_CURVE('',#831,#833,#86,.T.);
#684=EDGE_CURVE('',#834,#835,#87,.T.);
#685=EDGE_CURVE('',#834,#836,#88,.T.);
#686=EDGE_CURVE('',#836,#837,#89,.T.);
#687=EDGE_CURVE('',#835,#837,#90,.T.);
#688=EDGE_CURVE('',#838,#839,#91,.T.);
#689=EDGE_CURVE('',#838,#840,#92,.T.);
#690=EDGE_CURVE('',#840,#841,#93,.T.);
#691=EDGE_CURVE('',#839,#841,#94,.T.);
#692=EDGE_CURVE('',#816,#842,#95,.T.);
#693=EDGE_CURVE('',#843,#818,#96,.T.);
#694=EDGE_CURVE('',#844,#843,#97,.T.);
#695=EDGE_CURVE('',#845,#844,#98,.T.);
#696=EDGE_CURVE('',#845,#846,#99,.T.);
#697=EDGE_CURVE('',#847,#846,#100,.T.);
#698=EDGE_CURVE('',#848,#847,#101,.T.);
#699=EDGE_CURVE('',#848,#849,#102,.T.);
#700=EDGE_CURVE('',#850,#849,#103,.T.);
#701=EDGE_CURVE('',#842,#850,#104,.T.);
#702=EDGE_CURVE('',#848,#851,#105,.T.);
#703=EDGE_CURVE('',#852,#847,#106,.T.);
#704=EDGE_CURVE('',#853,#852,#107,.T.);
#705=EDGE_CURVE('',#853,#854,#108,.T.);
#706=EDGE_CURVE('',#851,#854,#109,.T.);
#707=EDGE_CURVE('',#855,#846,#110,.T.);
#708=EDGE_CURVE('',#856,#855,#111,.T.);
#709=EDGE_CURVE('',#857,#856,#112,.T.);
#710=EDGE_CURVE('',#852,#857,#113,.T.);
#711=EDGE_CURVE('',#858,#859,#114,.T.);
#712=EDGE_CURVE('',#858,#860,#115,.T.);
#713=EDGE_CURVE('',#861,#860,#116,.T.);
#714=EDGE_CURVE('',#862,#861,#117,.T.);
#715=EDGE_CURVE('',#862,#863,#118,.T.);
#716=EDGE_CURVE('',#864,#863,#119,.T.);
#717=EDGE_CURVE('',#865,#864,#120,.T.);
#718=EDGE_CURVE('',#865,#851,#121,.T.);
#719=EDGE_CURVE('',#854,#866,#122,.T.);
#720=EDGE_CURVE('',#866,#856,#123,.T.);
#721=EDGE_CURVE('',#855,#867,#124,.T.);
#722=EDGE_CURVE('',#859,#867,#125,.T.);
#723=EDGE_CURVE('',#868,#869,#126,.T.);
#724=EDGE_CURVE('',#868,#870,#127,.T.);
#725=EDGE_CURVE('',#870,#871,#128,.T.);
#726=EDGE_CURVE('',#872,#871,#129,.T.);
#727=EDGE_CURVE('',#872,#873,#130,.T.);
#728=EDGE_CURVE('',#873,#869,#131,.T.);
#729=EDGE_CURVE('',#874,#875,#132,.T.);
#730=EDGE_CURVE('',#875,#876,#133,.T.);
#731=EDGE_CURVE('',#877,#876,#134,.T.);
#732=EDGE_CURVE('',#874,#877,#135,.T.);
#733=EDGE_CURVE('',#878,#879,#136,.T.);
#734=EDGE_CURVE('',#879,#880,#137,.T.);
#735=EDGE_CURVE('',#881,#880,#138,.T.);
#736=EDGE_CURVE('',#878,#881,#139,.T.);
#737=EDGE_CURVE('',#882,#883,#140,.T.);
#738=EDGE_CURVE('',#882,#884,#141,.T.);
#739=EDGE_CURVE('',#884,#885,#142,.T.);
#740=EDGE_CURVE('',#883,#885,#143,.T.);
#741=EDGE_CURVE('',#886,#887,#144,.T.);
#742=EDGE_CURVE('',#886,#888,#145,.T.);
#743=EDGE_CURVE('',#888,#889,#146,.T.);
#744=EDGE_CURVE('',#887,#889,#147,.T.);
#745=EDGE_CURVE('',#890,#891,#148,.T.);
#746=EDGE_CURVE('',#890,#892,#149,.T.);
#747=EDGE_CURVE('',#892,#893,#150,.T.);
#748=EDGE_CURVE('',#891,#893,#151,.T.);
#749=EDGE_CURVE('',#894,#895,#152,.T.);
#750=EDGE_CURVE('',#894,#896,#153,.T.);
#751=EDGE_CURVE('',#896,#897,#154,.T.);
#752=EDGE_CURVE('',#895,#897,#155,.T.);
#753=EDGE_CURVE('',#898,#899,#156,.T.);
#754=EDGE_CURVE('',#899,#900,#157,.T.);
#755=EDGE_CURVE('',#900,#901,#158,.T.);
#756=EDGE_CURVE('',#901,#902,#159,.T.);
#757=EDGE_CURVE('',#903,#902,#160,.T.);
#758=EDGE_CURVE('',#898,#903,#161,.T.);
#759=EDGE_CURVE('',#898,#817,#162,.T.);
#760=EDGE_CURVE('',#842,#863,#163,.T.);
#761=EDGE_CURVE('',#899,#862,#164,.T.);
#762=EDGE_CURVE('',#902,#819,#165,.T.);
#763=EDGE_CURVE('',#860,#901,#166,.T.);
#764=EDGE_CURVE('',#858,#843,#167,.T.);
#765=EDGE_CURVE('',#903,#815,#168,.T.);
#766=EDGE_CURVE('',#900,#861,#169,.T.);
#767=EDGE_CURVE('',#853,#904,#170,.T.);
#768=EDGE_CURVE('',#904,#866,#171,.T.);
#769=EDGE_CURVE('',#904,#857,#172,.T.);
#770=EDGE_CURVE('',#905,#905,#67,.T.);
#771=EDGE_CURVE('',#906,#906,#68,.F.);
#772=EDGE_CURVE('',#907,#878,#173,.T.);
#773=EDGE_CURVE('',#907,#908,#174,.T.);
#774=EDGE_CURVE('',#908,#879,#175,.T.);
#775=EDGE_CURVE('',#909,#881,#176,.T.);
#776=EDGE_CURVE('',#907,#909,#177,.T.);
#777=EDGE_CURVE('',#910,#880,#178,.T.);
#778=EDGE_CURVE('',#909,#910,#179,.T.);
#779=EDGE_CURVE('',#908,#910,#180,.T.);
#780=EDGE_CURVE('',#911,#874,#181,.T.);
#781=EDGE_CURVE('',#911,#912,#182,.T.);
#782=EDGE_CURVE('',#912,#875,#183,.T.);
#783=EDGE_CURVE('',#913,#877,#184,.T.);
#784=EDGE_CURVE('',#911,#913,#185,.T.);
#785=EDGE_CURVE('',#914,#876,#186,.T.);
#786=EDGE_CURVE('',#913,#914,#187,.T.);
#787=EDGE_CURVE('',#912,#914,#188,.T.);
#788=EDGE_CURVE('',#831,#884,#189,.T.);
#789=EDGE_CURVE('',#830,#882,#190,.T.);
#790=EDGE_CURVE('',#832,#883,#191,.T.);
#791=EDGE_CURVE('',#833,#885,#192,.T.);
#792=EDGE_CURVE('',#835,#888,#193,.T.);
#793=EDGE_CURVE('',#834,#886,#194,.T.);
#794=EDGE_CURVE('',#836,#887,#195,.T.);
#795=EDGE_CURVE('',#837,#889,#196,.T.);
#796=EDGE_CURVE('',#827,#892,#197,.T.);
#797=EDGE_CURVE('',#826,#890,#198,.T.);
#798=EDGE_CURVE('',#828,#891,#199,.T.);
#799=EDGE_CURVE('',#829,#893,#200,.T.);
#800=EDGE_CURVE('',#839,#896,#201,.T.);
#801=EDGE_CURVE('',#838,#894,#202,.T.);
#802=EDGE_CURVE('',#840,#895,#203,.T.);
#803=EDGE_CURVE('',#841,#897,#204,.T.);
#804=EDGE_CURVE('',#859,#844,#205,.T.);
#805=EDGE_CURVE('',#867,#845,#206,.T.);
#806=EDGE_CURVE('',#864,#850,#207,.T.);
#807=EDGE_CURVE('',#865,#849,#208,.T.);
#808=EDGE_CURVE('',#869,#822,#209,.T.);
#809=EDGE_CURVE('',#868,#821,#210,.T.);
#810=EDGE_CURVE('',#873,#823,#211,.T.);
#811=EDGE_CURVE('',#872,#824,#212,.T.);
#812=EDGE_CURVE('',#871,#825,#213,.T.);
#813=EDGE_CURVE('',#870,#820,#214,.T.);
#814=VERTEX_POINT('',#1462);
#815=VERTEX_POINT('',#1463);
#816=VERTEX_POINT('',#1465);
#817=VERTEX_POINT('',#1467);
#818=VERTEX_POINT('',#1471);
#819=VERTEX_POINT('',#1473);
#820=VERTEX_POINT('',#1477);
#821=VERTEX_POINT('',#1478);
#822=VERTEX_POINT('',#1480);
#823=VERTEX_POINT('',#1482);
#824=VERTEX_POINT('',#1484);
#825=VERTEX_POINT('',#1486);
#826=VERTEX_POINT('',#1489);
#827=VERTEX_POINT('',#1490);
#828=VERTEX_POINT('',#1492);
#829=VERTEX_POINT('',#1494);
#830=VERTEX_POINT('',#1497);
#831=VERTEX_POINT('',#1498);
#832=VERTEX_POINT('',#1500);
#833=VERTEX_POINT('',#1502);
#834=VERTEX_POINT('',#1505);
#835=VERTEX_POINT('',#1506);
#836=VERTEX_POINT('',#1508);
#837=VERTEX_POINT('',#1510);
#838=VERTEX_POINT('',#1513);
#839=VERTEX_POINT('',#1514);
#840=VERTEX_POINT('',#1516);
#841=VERTEX_POINT('',#1518);
#842=VERTEX_POINT('',#1521);
#843=VERTEX_POINT('',#1523);
#844=VERTEX_POINT('',#1525);
#845=VERTEX_POINT('',#1527);
#846=VERTEX_POINT('',#1529);
#847=VERTEX_POINT('',#1531);
#848=VERTEX_POINT('',#1533);
#849=VERTEX_POINT('',#1535);
#850=VERTEX_POINT('',#1537);
#851=VERTEX_POINT('',#1541);
#852=VERTEX_POINT('',#1543);
#853=VERTEX_POINT('',#1545);
#854=VERTEX_POINT('',#1547);
#855=VERTEX_POINT('',#1551);
#856=VERTEX_POINT('',#1553);
#857=VERTEX_POINT('',#1555);
#858=VERTEX_POINT('',#1559);
#859=VERTEX_POINT('',#1560);
#860=VERTEX_POINT('',#1562);
#861=VERTEX_POINT('',#1564);
#862=VERTEX_POINT('',#1566);
#863=VERTEX_POINT('',#1568);
#864=VERTEX_POINT('',#1570);
#865=VERTEX_POINT('',#1572);
#866=VERTEX_POINT('',#1575);
#867=VERTEX_POINT('',#1578);
#868=VERTEX_POINT('',#1581);
#869=VERTEX_POINT('',#1582);
#870=VERTEX_POINT('',#1584);
#871=VERTEX_POINT('',#1586);
#872=VERTEX_POINT('',#1588);
#873=VERTEX_POINT('',#1590);
#874=VERTEX_POINT('',#1593);
#875=VERTEX_POINT('',#1594);
#876=VERTEX_POINT('',#1596);
#877=VERTEX_POINT('',#1598);
#878=VERTEX_POINT('',#1601);
#879=VERTEX_POINT('',#1602);
#880=VERTEX_POINT('',#1604);
#881=VERTEX_POINT('',#1606);
#882=VERTEX_POINT('',#1609);
#883=VERTEX_POINT('',#1610);
#884=VERTEX_POINT('',#1612);
#885=VERTEX_POINT('',#1614);
#886=VERTEX_POINT('',#1617);
#887=VERTEX_POINT('',#1618);
#888=VERTEX_POINT('',#1620);
#889=VERTEX_POINT('',#1622);
#890=VERTEX_POINT('',#1625);
#891=VERTEX_POINT('',#1626);
#892=VERTEX_POINT('',#1628);
#893=VERTEX_POINT('',#1630);
#894=VERTEX_POINT('',#1633);
#895=VERTEX_POINT('',#1634);
#896=VERTEX_POINT('',#1636);
#897=VERTEX_POINT('',#1638);
#898=VERTEX_POINT('',#1642);
#899=VERTEX_POINT('',#1643);
#900=VERTEX_POINT('',#1645);
#901=VERTEX_POINT('',#1647);
#902=VERTEX_POINT('',#1649);
#903=VERTEX_POINT('',#1651);
#904=VERTEX_POINT('',#1669);
#905=VERTEX_POINT('',#1675);
#906=VERTEX_POINT('',#1677);
#907=VERTEX_POINT('',#1682);
#908=VERTEX_POINT('',#1684);
#909=VERTEX_POINT('',#1688);
#910=VERTEX_POINT('',#1692);
#911=VERTEX_POINT('',#1699);
#912=VERTEX_POINT('',#1701);
#913=VERTEX_POINT('',#1705);
#914=VERTEX_POINT('',#1709);
#915=ELLIPSE('',#1129,0.00282842712474619,0.002);
#916=EDGE_LOOP('',(#361,#362,#363,#364));
#917=EDGE_LOOP('',(#365,#366,#367,#368));
#918=EDGE_LOOP('',(#369,#370,#371,#372,#373,#374));
#919=EDGE_LOOP('',(#375,#376,#377,#378));
#920=EDGE_LOOP('',(#379,#380,#381,#382));
#921=EDGE_LOOP('',(#383,#384,#385,#386));
#922=EDGE_LOOP('',(#387,#388,#389,#390));
#923=EDGE_LOOP('',(#391,#392,#393,#394,#395,#396,#397,#398,#399,#400,#401,
#402));
#924=EDGE_LOOP('',(#403,#404,#405,#406,#407,#408));
#925=EDGE_LOOP('',(#409,#410,#411,#412,#413,#414));
#926=EDGE_LOOP('',(#415,#416,#417,#418,#419,#420,#421,#422,#423,#424,#425,
#426,#427,#428));
#927=EDGE_LOOP('',(#429,#430,#431,#432,#433,#434));
#928=EDGE_LOOP('',(#435,#436,#437,#438));
#929=EDGE_LOOP('',(#439,#440,#441,#442));
#930=EDGE_LOOP('',(#443,#444,#445,#446));
#931=EDGE_LOOP('',(#447,#448,#449,#450));
#932=EDGE_LOOP('',(#451,#452,#453,#454));
#933=EDGE_LOOP('',(#455,#456,#457,#458));
#934=EDGE_LOOP('',(#459,#460,#461,#462,#463,#464));
#935=EDGE_LOOP('',(#465,#466,#467,#468,#469,#470,#471));
#936=EDGE_LOOP('',(#472,#473,#474,#475,#476,#477,#478));
#937=EDGE_LOOP('',(#479,#480,#481,#482));
#938=EDGE_LOOP('',(#483,#484,#485,#486));
#939=EDGE_LOOP('',(#487,#488,#489,#490));
#940=EDGE_LOOP('',(#491,#492,#493,#494));
#941=EDGE_LOOP('',(#495,#496,#497,#498));
#942=EDGE_LOOP('',(#499,#500,#501,#502));
#943=EDGE_LOOP('',(#503));
#944=EDGE_LOOP('',(#504));
#945=EDGE_LOOP('',(#505,#506,#507,#508));
#946=EDGE_LOOP('',(#509));
#947=EDGE_LOOP('',(#510));
#948=EDGE_LOOP('',(#511,#512,#513,#514));
#949=EDGE_LOOP('',(#515,#516,#517,#518));
#950=EDGE_LOOP('',(#519,#520,#521,#522));
#951=EDGE_LOOP('',(#523,#524,#525,#526));
#952=EDGE_LOOP('',(#527,#528,#529,#530));
#953=EDGE_LOOP('',(#531,#532,#533,#534));
#954=EDGE_LOOP('',(#535,#536,#537,#538));
#955=EDGE_LOOP('',(#539,#540,#541,#542));
#956=EDGE_LOOP('',(#543,#544,#545,#546));
#957=EDGE_LOOP('',(#547,#548,#549,#550));
#958=EDGE_LOOP('',(#551,#552,#553,#554));
#959=EDGE_LOOP('',(#555,#556,#557,#558));
#960=EDGE_LOOP('',(#559,#560,#561,#562));
#961=EDGE_LOOP('',(#563,#564,#565,#566));
#962=EDGE_LOOP('',(#567,#568,#569,#570));
#963=EDGE_LOOP('',(#571,#572,#573,#574));
#964=EDGE_LOOP('',(#575,#576,#577,#578));
#965=EDGE_LOOP('',(#579,#580,#581,#582));
#966=EDGE_LOOP('',(#583,#584,#585,#586));
#967=EDGE_LOOP('',(#587,#588,#589,#590));
#968=EDGE_LOOP('',(#591,#592,#593,#594));
#969=EDGE_LOOP('',(#595,#596,#597,#598));
#970=EDGE_LOOP('',(#599,#600,#601,#602));
#971=EDGE_LOOP('',(#603,#604,#605,#606));
#972=EDGE_LOOP('',(#607,#608,#609,#610));
#973=EDGE_LOOP('',(#611,#612,#613,#614));
#974=EDGE_LOOP('',(#615,#616,#617,#618));
#975=EDGE_LOOP('',(#619,#620,#621,#622));
#976=EDGE_LOOP('',(#623,#624,#625,#626));
#977=EDGE_LOOP('',(#627,#628,#629,#630));
#978=EDGE_LOOP('',(#631,#632,#633,#634));
#979=EDGE_LOOP('',(#635,#636,#637,#638));
#980=EDGE_LOOP('',(#639,#640,#641,#642));
#981=EDGE_LOOP('',(#643,#644,#645,#646));
#982=EDGE_LOOP('',(#647,#648,#649,#650));
#983=EDGE_LOOP('',(#651,#652,#653,#654));
#984=EDGE_LOOP('',(#655,#656,#657,#658));
#985=EDGE_LOOP('',(#659,#660,#661,#662));
#986=FACE_BOUND('',#916,.T.);
#987=FACE_BOUND('',#917,.T.);
#988=FACE_BOUND('',#918,.T.);
#989=FACE_BOUND('',#919,.T.);
#990=FACE_BOUND('',#920,.T.);
#991=FACE_BOUND('',#921,.T.);
#992=FACE_BOUND('',#922,.T.);
#993=FACE_BOUND('',#923,.T.);
#994=FACE_BOUND('',#924,.T.);
#995=FACE_BOUND('',#925,.T.);
#996=FACE_BOUND('',#926,.T.);
#997=FACE_BOUND('',#927,.T.);
#998=FACE_BOUND('',#928,.T.);
#999=FACE_BOUND('',#929,.T.);
#1000=FACE_BOUND('',#930,.T.);
#1001=FACE_BOUND('',#931,.T.);
#1002=FACE_BOUND('',#932,.T.);
#1003=FACE_BOUND('',#933,.T.);
#1004=FACE_BOUND('',#934,.T.);
#1005=FACE_BOUND('',#935,.T.);
#1006=FACE_BOUND('',#936,.T.);
#1007=FACE_BOUND('',#937,.T.);
#1008=FACE_BOUND('',#938,.T.);
#1009=FACE_BOUND('',#939,.T.);
#1010=FACE_BOUND('',#940,.T.);
#1011=FACE_BOUND('',#941,.T.);
#1012=FACE_BOUND('',#942,.T.);
#1013=FACE_BOUND('',#943,.T.);
#1014=FACE_BOUND('',#944,.T.);
#1015=FACE_BOUND('',#945,.T.);
#1016=FACE_BOUND('',#946,.T.);
#1017=FACE_BOUND('',#947,.T.);
#1018=FACE_BOUND('',#948,.T.);
#1019=FACE_BOUND('',#949,.T.);
#1020=FACE_BOUND('',#950,.T.);
#1021=FACE_BOUND('',#951,.T.);
#1022=FACE_BOUND('',#952,.T.);
#1023=FACE_BOUND('',#953,.T.);
#1024=FACE_BOUND('',#954,.T.);
#1025=FACE_BOUND('',#955,.T.);
#1026=FACE_BOUND('',#956,.T.);
#1027=FACE_BOUND('',#957,.T.);
#1028=FACE_BOUND('',#958,.T.);
#1029=FACE_BOUND('',#959,.T.);
#1030=FACE_BOUND('',#960,.T.);
#1031=FACE_BOUND('',#961,.T.);
#1032=FACE_BOUND('',#962,.T.);
#1033=FACE_BOUND('',#963,.T.);
#1034=FACE_BOUND('',#964,.T.);
#1035=FACE_BOUND('',#965,.T.);
#1036=FACE_BOUND('',#966,.T.);
#1037=FACE_BOUND('',#967,.T.);
#1038=FACE_BOUND('',#968,.T.);
#1039=FACE_BOUND('',#969,.T.);
#1040=FACE_BOUND('',#970,.T.);
#1041=FACE_BOUND('',#971,.T.);
#1042=FACE_BOUND('',#972,.T.);
#1043=FACE_BOUND('',#973,.T.);
#1044=FACE_BOUND('',#974,.T.);
#1045=FACE_BOUND('',#975,.T.);
#1046=FACE_BOUND('',#976,.T.);
#1047=FACE_BOUND('',#977,.T.);
#1048=FACE_BOUND('',#978,.T.);
#1049=FACE_BOUND('',#979,.T.);
#1050=FACE_BOUND('',#980,.T.);
#1051=FACE_BOUND('',#981,.T.);
#1052=FACE_BOUND('',#982,.T.);
#1053=FACE_BOUND('',#983,.T.);
#1054=FACE_BOUND('',#984,.T.);
#1055=FACE_BOUND('',#985,.T.);
#1056=CYLINDRICAL_SURFACE('',#1128,0.002);
#1057=CYLINDRICAL_SURFACE('',#1131,0.002);
#1058=CYLINDRICAL_SURFACE('',#1146,0.00515);
#1059=ADVANCED_FACE('',(#986),#1056,.T.);
#1060=ADVANCED_FACE('',(#987),#1057,.T.);
#1061=ADVANCED_FACE('',(#988,#989,#990,#991,#992,#993),#12,.F.);
#1062=ADVANCED_FACE('',(#994),#13,.F.);
#1063=ADVANCED_FACE('',(#995),#14,.F.);
#1064=ADVANCED_FACE('',(#996,#997,#998,#999,#1000,#1001,#1002,#1003),#15,
 .T.);
#1065=ADVANCED_FACE('',(#1004),#16,.T.);
#1066=ADVANCED_FACE('',(#1005),#17,.F.);
#1067=ADVANCED_FACE('',(#1006),#18,.F.);
#1068=ADVANCED_FACE('',(#1007),#19,.T.);
#1069=ADVANCED_FACE('',(#1008),#20,.T.);
#1070=ADVANCED_FACE('',(#1009),#21,.F.);
#1071=ADVANCED_FACE('',(#1010),#22,.F.);
#1072=ADVANCED_FACE('',(#1011),#23,.T.);
#1073=ADVANCED_FACE('',(#1012),#24,.T.);
#1074=ADVANCED_FACE('',(#1013,#1014),#1058,.F.);
#1075=ADVANCED_FACE('',(#1015,#1016),#25,.T.);
#1076=ADVANCED_FACE('',(#1017),#26,.T.);
#1077=ADVANCED_FACE('',(#1018),#27,.T.);
#1078=ADVANCED_FACE('',(#1019),#28,.F.);
#1079=ADVANCED_FACE('',(#1020),#29,.F.);
#1080=ADVANCED_FACE('',(#1021),#30,.T.);
#1081=ADVANCED_FACE('',(#1022),#31,.T.);
#1082=ADVANCED_FACE('',(#1023),#32,.T.);
#1083=ADVANCED_FACE('',(#1024),#33,.F.);
#1084=ADVANCED_FACE('',(#1025),#34,.F.);
#1085=ADVANCED_FACE('',(#1026),#35,.T.);
#1086=ADVANCED_FACE('',(#1027),#36,.T.);
#1087=ADVANCED_FACE('',(#1028),#37,.T.);
#1088=ADVANCED_FACE('',(#1029),#38,.F.);
#1089=ADVANCED_FACE('',(#1030),#39,.F.);
#1090=ADVANCED_FACE('',(#1031),#40,.T.);
#1091=ADVANCED_FACE('',(#1032),#41,.T.);
#1092=ADVANCED_FACE('',(#1033),#42,.F.);
#1093=ADVANCED_FACE('',(#1034),#43,.F.);
#1094=ADVANCED_FACE('',(#1035),#44,.T.);
#1095=ADVANCED_FACE('',(#1036),#45,.T.);
#1096=ADVANCED_FACE('',(#1037),#46,.F.);
#1097=ADVANCED_FACE('',(#1038),#47,.F.);
#1098=ADVANCED_FACE('',(#1039),#48,.T.);
#1099=ADVANCED_FACE('',(#1040),#49,.T.);
#1100=ADVANCED_FACE('',(#1041),#50,.F.);
#1101=ADVANCED_FACE('',(#1042),#51,.F.);
#1102=ADVANCED_FACE('',(#1043),#52,.T.);
#1103=ADVANCED_FACE('',(#1044),#53,.F.);
#1104=ADVANCED_FACE('',(#1045),#54,.F.);
#1105=ADVANCED_FACE('',(#1046),#55,.T.);
#1106=ADVANCED_FACE('',(#1047),#56,.F.);
#1107=ADVANCED_FACE('',(#1048),#57,.T.);
#1108=ADVANCED_FACE('',(#1049),#58,.F.);
#1109=ADVANCED_FACE('',(#1050),#59,.F.);
#1110=ADVANCED_FACE('',(#1051),#60,.T.);
#1111=ADVANCED_FACE('',(#1052),#61,.T.);
#1112=ADVANCED_FACE('',(#1053),#62,.F.);
#1113=ADVANCED_FACE('',(#1054),#63,.T.);
#1114=ADVANCED_FACE('',(#1055),#64,.T.);
#1115=CLOSED_SHELL('',(#1059,#1060,#1061,#1062,#1063,#1064,#1065,#1066,
#1067,#1068,#1069,#1070,#1071,#1072,#1073,#1074,#1075,#1076,#1077,#1078,
#1079,#1080,#1081,#1082,#1083,#1084,#1085,#1086,#1087,#1088,#1089,#1090,
#1091,#1092,#1093,#1094,#1095,#1096,#1097,#1098,#1099,#1100,#1101,#1102,
#1103,#1104,#1105,#1106,#1107,#1108,#1109,#1110,#1111,#1112,#1113,#1114));
#1116=STYLED_ITEM('',(#1117),#1124);
#1117=PRESENTATION_STYLE_ASSIGNMENT((#1118));
#1118=SURFACE_STYLE_USAGE(.BOTH.,#1119);
#1119=SURFACE_SIDE_STYLE('',(#1120));
#1120=SURFACE_STYLE_FILL_AREA(#1121);
#1121=FILL_AREA_STYLE('',(#1122));
#1122=FILL_AREA_STYLE_COLOUR('',#1123);
#1123=COLOUR_RGB('',0.972549019607843,0.529411764705882,0.00392156862745098);
#1124=MANIFOLD_SOLID_BREP('TMat6',#1115);
#1125=SHAPE_DEFINITION_REPRESENTATION(#1774,#1126);
#1126=SHAPE_REPRESENTATION('TMat6',(#1127),#1769);
#1127=AXIS2_PLACEMENT_3D('',#1459,#1189,#1190);
#1128=AXIS2_PLACEMENT_3D('',#1460,#1191,#1192);
#1129=AXIS2_PLACEMENT_3D('',#1461,#1193,#1194);
#1130=AXIS2_PLACEMENT_3D('',#1466,#1196,#1197);
#1131=AXIS2_PLACEMENT_3D('',#1469,#1199,#1200);
#1132=AXIS2_PLACEMENT_3D('',#1474,#1203,#1204);
#1133=AXIS2_PLACEMENT_3D('',#1475,#1205,#1206);
#1134=AXIS2_PLACEMENT_3D('',#1539,#1239,#1240);
#1135=AXIS2_PLACEMENT_3D('',#1549,#1246,#1247);
#1136=AXIS2_PLACEMENT_3D('',#1557,#1252,#1253);
#1137=AXIS2_PLACEMENT_3D('',#1640,#1296,#1297);
#1138=AXIS2_PLACEMENT_3D('',#1653,#1304,#1305);
#1139=AXIS2_PLACEMENT_3D('',#1657,#1309,#1310);
#1140=AXIS2_PLACEMENT_3D('',#1661,#1314,#1315);
#1141=AXIS2_PLACEMENT_3D('',#1663,#1317,#1318);
#1142=AXIS2_PLACEMENT_3D('',#1664,#1319,#1320);
#1143=AXIS2_PLACEMENT_3D('',#1666,#1322,#1323);
#1144=AXIS2_PLACEMENT_3D('',#1667,#1324,#1325);
#1145=AXIS2_PLACEMENT_3D('',#1671,#1328,#1329);
#1146=AXIS2_PLACEMENT_3D('',#1673,#1331,#1332);
#1147=AXIS2_PLACEMENT_3D('',#1674,#1333,#1334);
#1148=AXIS2_PLACEMENT_3D('',#1676,#1335,#1336);
#1149=AXIS2_PLACEMENT_3D('',#1678,#1337,#1338);
#1150=AXIS2_PLACEMENT_3D('',#1679,#1339,#1340);
#1151=AXIS2_PLACEMENT_3D('',#1680,#1341,#1342);
#1152=AXIS2_PLACEMENT_3D('',#1686,#1346,#1347);
#1153=AXIS2_PLACEMENT_3D('',#1690,#1350,#1351);
#1154=AXIS2_PLACEMENT_3D('',#1694,#1354,#1355);
#1155=AXIS2_PLACEMENT_3D('',#1696,#1357,#1358);
#1156=AXIS2_PLACEMENT_3D('',#1697,#1359,#1360);
#1157=AXIS2_PLACEMENT_3D('',#1703,#1364,#1365);
#1158=AXIS2_PLACEMENT_3D('',#1707,#1368,#1369);
#1159=AXIS2_PLACEMENT_3D('',#1711,#1372,#1373);
#1160=AXIS2_PLACEMENT_3D('',#1713,#1375,#1376);
#1161=AXIS2_PLACEMENT_3D('',#1714,#1377,#1378);
#1162=AXIS2_PLACEMENT_3D('',#1717,#1381,#1382);
#1163=AXIS2_PLACEMENT_3D('',#1719,#1384,#1385);
#1164=AXIS2_PLACEMENT_3D('',#1721,#1387,#1388);
#1165=AXIS2_PLACEMENT_3D('',#1722,#1389,#1390);
#1166=AXIS2_PLACEMENT_3D('',#1725,#1393,#1394);
#1167=AXIS2_PLACEMENT_3D('',#1727,#1396,#1397);
#1168=AXIS2_PLACEMENT_3D('',#1729,#1399,#1400);
#1169=AXIS2_PLACEMENT_3D('',#1730,#1401,#1402);
#1170=AXIS2_PLACEMENT_3D('',#1733,#1405,#1406);
#1171=AXIS2_PLACEMENT_3D('',#1735,#1408,#1409);
#1172=AXIS2_PLACEMENT_3D('',#1737,#1411,#1412);
#1173=AXIS2_PLACEMENT_3D('',#1738,#1413,#1414);
#1174=AXIS2_PLACEMENT_3D('',#1741,#1417,#1418);
#1175=AXIS2_PLACEMENT_3D('',#1743,#1420,#1421);
#1176=AXIS2_PLACEMENT_3D('',#1745,#1423,#1424);
#1177=AXIS2_PLACEMENT_3D('',#1746,#1425,#1426);
#1178=AXIS2_PLACEMENT_3D('',#1748,#1428,#1429);
#1179=AXIS2_PLACEMENT_3D('',#1750,#1431,#1432);
#1180=AXIS2_PLACEMENT_3D('',#1751,#1433,#1434);
#1181=AXIS2_PLACEMENT_3D('',#1753,#1436,#1437);
#1182=AXIS2_PLACEMENT_3D('',#1755,#1439,#1440);
#1183=AXIS2_PLACEMENT_3D('',#1756,#1441,#1442);
#1184=AXIS2_PLACEMENT_3D('',#1759,#1445,#1446);
#1185=AXIS2_PLACEMENT_3D('',#1761,#1448,#1449);
#1186=AXIS2_PLACEMENT_3D('',#1763,#1451,#1452);
#1187=AXIS2_PLACEMENT_3D('',#1765,#1454,#1455);
#1188=AXIS2_PLACEMENT_3D('',#1767,#1457,#1458);
#1189=DIRECTION('',(0.,0.,1.));
#1190=DIRECTION('',(1.,0.,0.));
#1191=DIRECTION('',(-1.,0.,0.));
#1192=DIRECTION('',(0.,0.,1.));
#1193=DIRECTION('',(-0.707106781186548,0.707106781186548,0.));
#1194=DIRECTION('',(0.707106781186548,0.707106781186548,0.));
#1195=DIRECTION('',(1.,0.,0.));
#1196=DIRECTION('',(1.,0.,0.));
#1197=DIRECTION('',(0.,0.,-1.));
#1198=DIRECTION('',(1.,0.,0.));
#1199=DIRECTION('',(0.,1.,0.));
#1200=DIRECTION('',(0.,0.,1.));
#1201=DIRECTION('',(0.,-1.,0.));
#1202=DIRECTION('',(0.,-1.,0.));
#1203=DIRECTION('',(0.,1.,0.));
#1204=DIRECTION('',(0.,0.,1.));
#1205=DIRECTION('',(0.,0.,1.));
#1206=DIRECTION('',(1.,0.,0.));
#1207=DIRECTION('',(1.,0.,0.));
#1208=DIRECTION('',(0.,-1.,0.));
#1209=DIRECTION('',(-1.,0.,0.));
#1210=DIRECTION('',(0.,-1.,0.));
#1211=DIRECTION('',(-1.,0.,0.));
#1212=DIRECTION('',(0.,-1.,0.));
#1213=DIRECTION('',(1.,0.,0.));
#1214=DIRECTION('',(0.,-1.,0.));
#1215=DIRECTION('',(1.,0.,0.));
#1216=DIRECTION('',(0.,-1.,0.));
#1217=DIRECTION('',(1.,0.,0.));
#1218=DIRECTION('',(0.,-1.,0.));
#1219=DIRECTION('',(1.,0.,0.));
#1220=DIRECTION('',(0.,-1.,0.));
#1221=DIRECTION('',(0.,-1.,0.));
#1222=DIRECTION('',(-1.,0.,0.));
#1223=DIRECTION('',(0.,-1.,0.));
#1224=DIRECTION('',(-1.,0.,0.));
#1225=DIRECTION('',(0.,1.,0.));
#1226=DIRECTION('',(1.,0.,0.));
#1227=DIRECTION('',(0.,1.,0.));
#1228=DIRECTION('',(1.,0.,0.));
#1229=DIRECTION('',(0.,-1.,0.));
#1230=DIRECTION('',(1.,0.,0.));
#1231=DIRECTION('',(3.22739251344522E-16,-1.,0.));
#1232=DIRECTION('',(1.,0.,0.));
#1233=DIRECTION('',(3.32402103181185E-16,-1.,0.));
#1234=DIRECTION('',(1.,0.,0.));
#1235=DIRECTION('',(0.,-1.,0.));
#1236=DIRECTION('',(1.,0.,0.));
#1237=DIRECTION('',(0.,-1.,0.));
#1238=DIRECTION('',(1.,0.,0.));
#1239=DIRECTION('',(1.,0.,0.));
#1240=DIRECTION('',(0.,0.,-1.));
#1241=DIRECTION('',(0.,0.,1.));
#1242=DIRECTION('',(0.,0.,-1.));
#1243=DIRECTION('',(4.44089209850063E-15,-1.,0.));
#1244=DIRECTION('',(0.,0.,-1.));
#1245=DIRECTION('',(0.,-1.,0.));
#1246=DIRECTION('',(0.,1.,0.));
#1247=DIRECTION('',(0.,0.,1.));
#1248=DIRECTION('',(0.,0.,-1.));
#1249=DIRECTION('',(1.,0.,0.));
#1250=DIRECTION('',(0.,0.,-1.));
#1251=DIRECTION('',(1.,0.,0.));
#1252=DIRECTION('',(0.,0.,1.));
#1253=DIRECTION('',(1.,0.,0.));
#1254=DIRECTION('',(-3.22739251344522E-16,1.,0.));
#1255=DIRECTION('',(1.,0.,0.));
#1256=DIRECTION('',(0.,-1.,0.));
#1257=DIRECTION('',(1.,0.,0.));
#1258=DIRECTION('',(0.,-1.,0.));
#1259=DIRECTION('',(-1.,0.,0.));
#1260=DIRECTION('',(0.,1.,0.));
#1261=DIRECTION('',(-1.,0.,0.));
#1262=DIRECTION('',(1.,0.,0.));
#1263=DIRECTION('',(0.,-1.,0.));
#1264=DIRECTION('',(-3.32402103181185E-16,1.,0.));
#1265=DIRECTION('',(-1.,0.,0.));
#1266=DIRECTION('',(0.,1.,0.));
#1267=DIRECTION('',(-1.,0.,0.));
#1268=DIRECTION('',(0.,1.,0.));
#1269=DIRECTION('',(1.,0.,0.));
#1270=DIRECTION('',(0.,1.,0.));
#1271=DIRECTION('',(1.,0.,0.));
#1272=DIRECTION('',(1.,0.,0.));
#1273=DIRECTION('',(0.,-1.,0.));
#1274=DIRECTION('',(1.,0.,0.));
#1275=DIRECTION('',(0.,-1.,0.));
#1276=DIRECTION('',(1.,0.,0.));
#1277=DIRECTION('',(0.,-1.,0.));
#1278=DIRECTION('',(1.,0.,0.));
#1279=DIRECTION('',(0.,-1.,0.));
#1280=DIRECTION('',(0.,-1.,0.));
#1281=DIRECTION('',(1.,0.,0.));
#1282=DIRECTION('',(0.,-1.,0.));
#1283=DIRECTION('',(1.,0.,0.));
#1284=DIRECTION('',(-1.,0.,0.));
#1285=DIRECTION('',(0.,-1.,0.));
#1286=DIRECTION('',(-1.,0.,0.));
#1287=DIRECTION('',(0.,-1.,0.));
#1288=DIRECTION('',(0.,-1.,0.));
#1289=DIRECTION('',(1.,0.,0.));
#1290=DIRECTION('',(0.,-1.,0.));
#1291=DIRECTION('',(1.,0.,0.));
#1292=DIRECTION('',(1.,0.,0.));
#1293=DIRECTION('',(0.,1.,0.));
#1294=DIRECTION('',(1.,0.,0.));
#1295=DIRECTION('',(0.,1.,0.));
#1296=DIRECTION('',(0.,0.,1.));
#1297=DIRECTION('',(1.,0.,0.));
#1298=DIRECTION('',(0.,-1.,0.));
#1299=DIRECTION('',(1.,0.,0.));
#1300=DIRECTION('',(0.,-1.,0.));
#1301=DIRECTION('',(1.,0.,0.));
#1302=DIRECTION('',(0.,-1.,0.));
#1303=DIRECTION('',(1.,0.,0.));
#1304=DIRECTION('',(1.,0.,0.));
#1305=DIRECTION('',(0.,0.,-1.));
#1306=DIRECTION('',(0.,0.,-1.));
#1307=DIRECTION('',(0.,0.,1.));
#1308=DIRECTION('',(0.,0.,-1.));
#1309=DIRECTION('',(0.,1.,0.));
#1310=DIRECTION('',(0.,0.,1.));
#1311=DIRECTION('',(0.,0.,-1.));
#1312=DIRECTION('',(0.,0.,1.));
#1313=DIRECTION('',(0.,0.,-1.));
#1314=DIRECTION('',(1.,0.,0.));
#1315=DIRECTION('',(0.,0.,-1.));
#1316=DIRECTION('',(0.,0.,-1.));
#1317=DIRECTION('',(0.,1.,0.));
#1318=DIRECTION('',(0.,0.,1.));
#1319=DIRECTION('',(1.,0.,0.));
#1320=DIRECTION('',(0.,0.,-1.));
#1321=DIRECTION('',(0.,0.,-1.));
#1322=DIRECTION('',(0.,1.,0.));
#1323=DIRECTION('',(0.,0.,1.));
#1324=DIRECTION('',(0.,1.,0.));
#1325=DIRECTION('',(0.,0.,1.));
#1326=DIRECTION('',(1.,0.,0.));
#1327=DIRECTION('',(0.,0.,-1.));
#1328=DIRECTION('',(1.,0.,0.));
#1329=DIRECTION('',(0.,0.,-1.));
#1330=DIRECTION('',(0.,-1.,0.));
#1331=DIRECTION('',(0.,0.,-1.));
#1332=DIRECTION('',(-1.,0.,0.));
#1333=DIRECTION('',(0.,0.,1.));
#1334=DIRECTION('',(1.,0.,0.));
#1335=DIRECTION('',(0.,0.,1.));
#1336=DIRECTION('',(1.,0.,0.));
#1337=DIRECTION('',(0.,0.,1.));
#1338=DIRECTION('',(1.,0.,0.));
#1339=DIRECTION('',(0.,0.,1.));
#1340=DIRECTION('',(1.,0.,0.));
#1341=DIRECTION('',(0.,1.,0.));
#1342=DIRECTION('',(0.,0.,1.));
#1343=DIRECTION('',(0.,0.,-1.));
#1344=DIRECTION('',(1.,0.,0.));
#1345=DIRECTION('',(0.,0.,-1.));
#1346=DIRECTION('',(1.,0.,0.));
#1347=DIRECTION('',(0.,0.,-1.));
#1348=DIRECTION('',(0.,0.,-1.));
#1349=DIRECTION('',(0.,-1.,0.));
#1350=DIRECTION('',(0.,1.,0.));
#1351=DIRECTION('',(0.,0.,1.));
#1352=DIRECTION('',(0.,0.,-1.));
#1353=DIRECTION('',(1.,0.,0.));
#1354=DIRECTION('',(1.,0.,0.));
#1355=DIRECTION('',(0.,0.,-1.));
#1356=DIRECTION('',(0.,-1.,0.));
#1357=DIRECTION('',(0.,0.,1.));
#1358=DIRECTION('',(1.,0.,0.));
#1359=DIRECTION('',(0.,1.,0.));
#1360=DIRECTION('',(0.,0.,1.));
#1361=DIRECTION('',(0.,0.,-1.));
#1362=DIRECTION('',(1.,0.,0.));
#1363=DIRECTION('',(0.,0.,-1.));
#1364=DIRECTION('',(1.,0.,0.));
#1365=DIRECTION('',(0.,0.,-1.));
#1366=DIRECTION('',(0.,0.,-1.));
#1367=DIRECTION('',(0.,-1.,0.));
#1368=DIRECTION('',(0.,1.,0.));
#1369=DIRECTION('',(0.,0.,1.));
#1370=DIRECTION('',(0.,0.,-1.));
#1371=DIRECTION('',(1.,0.,0.));
#1372=DIRECTION('',(1.,0.,0.));
#1373=DIRECTION('',(0.,0.,-1.));
#1374=DIRECTION('',(0.,-1.,0.));
#1375=DIRECTION('',(0.,0.,1.));
#1376=DIRECTION('',(1.,0.,0.));
#1377=DIRECTION('',(0.,-1.,0.));
#1378=DIRECTION('',(0.,0.,-1.));
#1379=DIRECTION('',(0.,0.,1.));
#1380=DIRECTION('',(0.,0.,1.));
#1381=DIRECTION('',(-1.,0.,0.));
#1382=DIRECTION('',(0.,0.,1.));
#1383=DIRECTION('',(0.,0.,1.));
#1384=DIRECTION('',(0.,-1.,0.));
#1385=DIRECTION('',(0.,0.,-1.));
#1386=DIRECTION('',(0.,0.,1.));
#1387=DIRECTION('',(-1.,0.,0.));
#1388=DIRECTION('',(0.,0.,1.));
#1389=DIRECTION('',(-1.,0.,0.));
#1390=DIRECTION('',(0.,0.,1.));
#1391=DIRECTION('',(0.,0.,1.));
#1392=DIRECTION('',(0.,0.,1.));
#1393=DIRECTION('',(0.,1.,0.));
#1394=DIRECTION('',(0.,0.,1.));
#1395=DIRECTION('',(0.,0.,1.));
#1396=DIRECTION('',(-1.,0.,0.));
#1397=DIRECTION('',(0.,0.,1.));
#1398=DIRECTION('',(0.,0.,1.));
#1399=DIRECTION('',(0.,1.,0.));
#1400=DIRECTION('',(0.,0.,1.));
#1401=DIRECTION('',(0.,-1.,0.));
#1402=DIRECTION('',(0.,0.,-1.));
#1403=DIRECTION('',(0.,0.,1.));
#1404=DIRECTION('',(0.,0.,1.));
#1405=DIRECTION('',(-1.,0.,0.));
#1406=DIRECTION('',(0.,0.,1.));
#1407=DIRECTION('',(0.,0.,1.));
#1408=DIRECTION('',(0.,-1.,0.));
#1409=DIRECTION('',(0.,0.,-1.));
#1410=DIRECTION('',(0.,0.,1.));
#1411=DIRECTION('',(-1.,0.,0.));
#1412=DIRECTION('',(0.,0.,1.));
#1413=DIRECTION('',(1.,0.,0.));
#1414=DIRECTION('',(0.,0.,-1.));
#1415=DIRECTION('',(0.,0.,1.));
#1416=DIRECTION('',(0.,0.,1.));
#1417=DIRECTION('',(0.,-1.,0.));
#1418=DIRECTION('',(0.,0.,-1.));
#1419=DIRECTION('',(0.,0.,1.));
#1420=DIRECTION('',(1.,0.,0.));
#1421=DIRECTION('',(0.,0.,-1.));
#1422=DIRECTION('',(0.,0.,1.));
#1423=DIRECTION('',(0.,-1.,0.));
#1424=DIRECTION('',(0.,0.,-1.));
#1425=DIRECTION('',(1.,3.22739251344522E-16,0.));
#1426=DIRECTION('',(-3.22739251344522E-16,1.,0.));
#1427=DIRECTION('',(0.,0.,-1.));
#1428=DIRECTION('',(0.,1.,0.));
#1429=DIRECTION('',(0.,0.,1.));
#1430=DIRECTION('',(0.,0.,-1.));
#1431=DIRECTION('',(1.,3.32402103181185E-16,0.));
#1432=DIRECTION('',(-3.32402103181185E-16,1.,0.));
#1433=DIRECTION('',(0.,1.,0.));
#1434=DIRECTION('',(0.,0.,1.));
#1435=DIRECTION('',(0.,0.,-1.));
#1436=DIRECTION('',(0.,1.,0.));
#1437=DIRECTION('',(0.,0.,1.));
#1438=DIRECTION('',(0.,0.,-1.));
#1439=DIRECTION('',(1.,0.,0.));
#1440=DIRECTION('',(0.,0.,-1.));
#1441=DIRECTION('',(1.,0.,0.));
#1442=DIRECTION('',(0.,0.,-1.));
#1443=DIRECTION('',(0.,0.,-1.));
#1444=DIRECTION('',(0.,0.,-1.));
#1445=DIRECTION('',(0.,-1.,0.));
#1446=DIRECTION('',(0.,0.,-1.));
#1447=DIRECTION('',(0.,0.,-1.));
#1448=DIRECTION('',(1.,0.,0.));
#1449=DIRECTION('',(0.,0.,-1.));
#1450=DIRECTION('',(0.,0.,-1.));
#1451=DIRECTION('',(0.,-1.,0.));
#1452=DIRECTION('',(0.,0.,-1.));
#1453=DIRECTION('',(0.,0.,-1.));
#1454=DIRECTION('',(1.,0.,0.));
#1455=DIRECTION('',(0.,0.,-1.));
#1456=DIRECTION('',(0.,0.,-1.));
#1457=DIRECTION('',(0.,1.,0.));
#1458=DIRECTION('',(0.,0.,1.));
#1459=CARTESIAN_POINT('',(0.,0.,0.));
#1460=CARTESIAN_POINT('',(-0.646396789386985,0.592124473775878,0.002));
#1461=CARTESIAN_POINT('',(-0.308396789386985,0.592124473775878,0.002));
#1462=CARTESIAN_POINT('',(-0.308396789386985,0.592124473775878,0.));
#1463=CARTESIAN_POINT('',(-0.306396789386985,0.594124473775879,0.002));
#1464=CARTESIAN_POINT('',(-0.646396789386985,0.592124473775878,0.));
#1465=CARTESIAN_POINT('',(-0.506396789386985,0.592124473775878,0.));
#1466=CARTESIAN_POINT('',(-0.506396789386985,0.592124473775878,0.002));
#1467=CARTESIAN_POINT('',(-0.506396789386985,0.594124473775878,0.002));
#1468=CARTESIAN_POINT('',(-0.646396789386985,0.594124473775878,0.002));
#1469=CARTESIAN_POINT('',(-0.308396789386985,0.419124473775878,0.002));
#1470=CARTESIAN_POINT('',(-0.308396789386985,0.419124473775878,0.));
#1471=CARTESIAN_POINT('',(-0.308396789386985,0.344124473775879,0.));
#1472=CARTESIAN_POINT('',(-0.306396789386985,0.419124473775878,0.002));
#1473=CARTESIAN_POINT('',(-0.306396789386985,0.344124473775878,0.002));
#1474=CARTESIAN_POINT('',(-0.308396789386985,0.344124473775879,0.002));
#1475=CARTESIAN_POINT('',(-0.646396789386985,0.419124473775878,0.));
#1476=CARTESIAN_POINT('',(-0.316896789386985,0.512124473775878,0.));
#1477=CARTESIAN_POINT('',(-0.319396789386985,0.512124473775878,0.));
#1478=CARTESIAN_POINT('',(-0.314396789386985,0.512124473775878,0.));
#1479=CARTESIAN_POINT('',(-0.314396789386985,0.549124473775878,0.));
#1480=CARTESIAN_POINT('',(-0.314396789386985,0.586124473775878,0.));
#1481=CARTESIAN_POINT('',(-0.335396789386984,0.586124473775878,0.));
#1482=CARTESIAN_POINT('',(-0.351396789386984,0.586124473775878,0.));
#1483=CARTESIAN_POINT('',(-0.351396789386984,0.583624473775878,0.));
#1484=CARTESIAN_POINT('',(-0.351396789386984,0.581124473775878,0.));
#1485=CARTESIAN_POINT('',(-0.335396789386984,0.581124473775878,0.));
#1486=CARTESIAN_POINT('',(-0.319396789386985,0.581124473775878,0.));
#1487=CARTESIAN_POINT('',(-0.319396789386985,0.546624473775878,0.));
#1488=CARTESIAN_POINT('',(-0.646396789386985,0.547124473775878,0.));
#1489=CARTESIAN_POINT('',(-0.431396789386985,0.547124473775878,0.));
#1490=CARTESIAN_POINT('',(-0.422396789386984,0.547124473775878,0.));
#1491=CARTESIAN_POINT('',(-0.431396789386985,0.419124473775878,0.));
#1492=CARTESIAN_POINT('',(-0.431396789386985,0.538124473775878,0.));
#1493=CARTESIAN_POINT('',(-0.646396789386985,0.538124473775878,0.));
#1494=CARTESIAN_POINT('',(-0.422396789386984,0.538124473775878,0.));
#1495=CARTESIAN_POINT('',(-0.422396789386984,0.419124473775878,0.));
#1496=CARTESIAN_POINT('',(-0.646396789386985,0.586124473775878,0.));
#1497=CARTESIAN_POINT('',(-0.403396789386984,0.586124473775878,0.));
#1498=CARTESIAN_POINT('',(-0.353396789386984,0.586124473775878,0.));
#1499=CARTESIAN_POINT('',(-0.403396789386984,0.419124473775878,0.));
#1500=CARTESIAN_POINT('',(-0.403396789386984,0.561124473775878,0.));
#1501=CARTESIAN_POINT('',(-0.646396789386985,0.561124473775878,0.));
#1502=CARTESIAN_POINT('',(-0.353396789386984,0.561124473775878,0.));
#1503=CARTESIAN_POINT('',(-0.353396789386984,0.419124473775878,0.));
#1504=CARTESIAN_POINT('',(-0.403396789386984,0.419124473775878,0.));
#1505=CARTESIAN_POINT('',(-0.403396789386984,0.523624473775878,0.));
#1506=CARTESIAN_POINT('',(-0.403396789386984,0.514624473775878,0.));
#1507=CARTESIAN_POINT('',(-0.646396789386985,0.523624473775878,0.));
#1508=CARTESIAN_POINT('',(-0.412396789386984,0.523624473775878,0.));
#1509=CARTESIAN_POINT('',(-0.412396789386984,0.419124473775878,0.));
#1510=CARTESIAN_POINT('',(-0.412396789386984,0.514624473775878,0.));
#1511=CARTESIAN_POINT('',(-0.646396789386985,0.514624473775878,0.));
#1512=CARTESIAN_POINT('',(-0.431396789386985,0.419124473775878,0.));
#1513=CARTESIAN_POINT('',(-0.431396789386985,0.556124473775878,0.));
#1514=CARTESIAN_POINT('',(-0.431396789386985,0.565124473775878,0.));
#1515=CARTESIAN_POINT('',(-0.646396789386985,0.556124473775878,0.));
#1516=CARTESIAN_POINT('',(-0.422396789386984,0.556124473775878,0.));
#1517=CARTESIAN_POINT('',(-0.422396789386984,0.419124473775878,0.));
#1518=CARTESIAN_POINT('',(-0.422396789386984,0.565124473775878,0.));
#1519=CARTESIAN_POINT('',(-0.646396789386985,0.565124473775878,0.));
#1520=CARTESIAN_POINT('',(-0.506396789386985,0.469124473775879,0.));
#1521=CARTESIAN_POINT('',(-0.506396789386985,0.586124473775878,0.));
#1522=CARTESIAN_POINT('',(-0.406396789386984,0.344124473775879,0.));
#1523=CARTESIAN_POINT('',(-0.314396789386985,0.344124473775879,0.));
#1524=CARTESIAN_POINT('',(-0.314396789386985,0.338124473775879,0.));
#1525=CARTESIAN_POINT('',(-0.314396789386985,0.424124473775879,0.));
#1526=CARTESIAN_POINT('',(-0.316896789386985,0.424124473775879,0.));
#1527=CARTESIAN_POINT('',(-0.319396789386985,0.424124473775879,0.));
#1528=CARTESIAN_POINT('',(-0.319396789386985,0.340624473775878,0.));
#1529=CARTESIAN_POINT('',(-0.319396789386985,0.344124473775879,0.));
#1530=CARTESIAN_POINT('',(-0.406396789386984,0.344124473775879,0.));
#1531=CARTESIAN_POINT('',(-0.506396789386985,0.344124473775878,0.));
#1532=CARTESIAN_POINT('',(-0.506396789386985,0.469124473775879,0.));
#1533=CARTESIAN_POINT('',(-0.506396789386985,0.581124473775878,0.));
#1534=CARTESIAN_POINT('',(-0.495896789386984,0.581124473775878,0.));
#1535=CARTESIAN_POINT('',(-0.405396789386984,0.581124473775878,0.));
#1536=CARTESIAN_POINT('',(-0.405396789386984,0.583624473775878,0.));
#1537=CARTESIAN_POINT('',(-0.405396789386984,0.586124473775878,0.));
#1538=CARTESIAN_POINT('',(-0.495896789386984,0.586124473775878,0.));
#1539=CARTESIAN_POINT('',(-0.506396789386985,0.469124473775879,0.008));
#1540=CARTESIAN_POINT('',(-0.506396789386985,0.581124473775878,0.008));
#1541=CARTESIAN_POINT('',(-0.506396789386985,0.581124473775878,0.002));
#1542=CARTESIAN_POINT('',(-0.506396789386985,0.344124473775878,0.008));
#1543=CARTESIAN_POINT('',(-0.506396789386985,0.344124473775879,0.017));
#1544=CARTESIAN_POINT('',(-0.506396789386985,0.356624473775879,0.017));
#1545=CARTESIAN_POINT('',(-0.506396789386985,0.369124473775879,0.017));
#1546=CARTESIAN_POINT('',(-0.506396789386985,0.369124473775879,0.017));
#1547=CARTESIAN_POINT('',(-0.506396789386985,0.369124473775879,0.002));
#1548=CARTESIAN_POINT('',(-0.506396789386985,0.469124473775879,0.002));
#1549=CARTESIAN_POINT('',(-0.406396789386984,0.344124473775879,0.008));
#1550=CARTESIAN_POINT('',(-0.319396789386985,0.344124473775879,0.008));
#1551=CARTESIAN_POINT('',(-0.319396789386985,0.344124473775879,0.002));
#1552=CARTESIAN_POINT('',(-0.406396789386984,0.344124473775879,0.002));
#1553=CARTESIAN_POINT('',(-0.481396789386985,0.344124473775879,0.002));
#1554=CARTESIAN_POINT('',(-0.481396789386985,0.344124473775879,0.017));
#1555=CARTESIAN_POINT('',(-0.481396789386985,0.344124473775879,0.017));
#1556=CARTESIAN_POINT('',(-0.493896789386985,0.344124473775879,0.017));
#1557=CARTESIAN_POINT('',(-0.646396789386985,0.419124473775878,0.002));
#1558=CARTESIAN_POINT('',(-0.314396789386985,0.419124473775879,0.002));
#1559=CARTESIAN_POINT('',(-0.314396789386985,0.344124473775879,0.002));
#1560=CARTESIAN_POINT('',(-0.314396789386985,0.424124473775879,0.002));
#1561=CARTESIAN_POINT('',(-0.406396789386984,0.344124473775879,0.002));
#1562=CARTESIAN_POINT('',(-0.308396789386985,0.344124473775879,0.002));
#1563=CARTESIAN_POINT('',(-0.308396789386985,0.469124473775879,0.002));
#1564=CARTESIAN_POINT('',(-0.308396789386985,0.592124473775878,0.002));
#1565=CARTESIAN_POINT('',(-0.406396789386984,0.592124473775878,0.002));
#1566=CARTESIAN_POINT('',(-0.506396789386985,0.592124473775878,0.002));
#1567=CARTESIAN_POINT('',(-0.506396789386985,0.469124473775879,0.002));
#1568=CARTESIAN_POINT('',(-0.506396789386985,0.586124473775878,0.002));
#1569=CARTESIAN_POINT('',(-0.646396789386985,0.586124473775878,0.002));
#1570=CARTESIAN_POINT('',(-0.405396789386984,0.586124473775878,0.002));
#1571=CARTESIAN_POINT('',(-0.405396789386984,0.419124473775878,0.002));
#1572=CARTESIAN_POINT('',(-0.405396789386984,0.581124473775878,0.002));
#1573=CARTESIAN_POINT('',(-0.646396789386985,0.581124473775878,0.002));
#1574=CARTESIAN_POINT('',(-0.493896789386985,0.369124473775879,0.002));
#1575=CARTESIAN_POINT('',(-0.481396789386985,0.369124473775879,0.002));
#1576=CARTESIAN_POINT('',(-0.481396789386985,0.356624473775879,0.002));
#1577=CARTESIAN_POINT('',(-0.319396789386985,0.419124473775879,0.002));
#1578=CARTESIAN_POINT('',(-0.319396789386985,0.424124473775879,0.002));
#1579=CARTESIAN_POINT('',(-0.646396789386985,0.424124473775879,0.002));
#1580=CARTESIAN_POINT('',(-0.314396789386985,0.419124473775878,0.002));
#1581=CARTESIAN_POINT('',(-0.314396789386985,0.512124473775878,0.002));
#1582=CARTESIAN_POINT('',(-0.314396789386985,0.586124473775878,0.002));
#1583=CARTESIAN_POINT('',(-0.646396789386985,0.512124473775878,0.002));
#1584=CARTESIAN_POINT('',(-0.319396789386985,0.512124473775878,0.002));
#1585=CARTESIAN_POINT('',(-0.319396789386985,0.419124473775878,0.002));
#1586=CARTESIAN_POINT('',(-0.319396789386985,0.581124473775878,0.002));
#1587=CARTESIAN_POINT('',(-0.646396789386985,0.581124473775878,0.002));
#1588=CARTESIAN_POINT('',(-0.351396789386984,0.581124473775878,0.002));
#1589=CARTESIAN_POINT('',(-0.351396789386984,0.419124473775878,0.002));
#1590=CARTESIAN_POINT('',(-0.351396789386984,0.586124473775878,0.002));
#1591=CARTESIAN_POINT('',(-0.646396789386985,0.586124473775878,0.002));
#1592=CARTESIAN_POINT('',(-0.426837947257597,0.509474473775878,0.002));
#1593=CARTESIAN_POINT('',(-0.466396789386985,0.509474473775878,0.002));
#1594=CARTESIAN_POINT('',(-0.38727910512821,0.509474473775878,0.002));
#1595=CARTESIAN_POINT('',(-0.38727910512821,0.508474473775878,0.002));
#1596=CARTESIAN_POINT('',(-0.38727910512821,0.507474473775878,0.002));
#1597=CARTESIAN_POINT('',(-0.426837947257597,0.507474473775878,0.002));
#1598=CARTESIAN_POINT('',(-0.466396789386985,0.507474473775878,0.002));
#1599=CARTESIAN_POINT('',(-0.466396789386985,0.508474473775878,0.002));
#1600=CARTESIAN_POINT('',(-0.361837947257597,0.509474473775878,0.002));
#1601=CARTESIAN_POINT('',(-0.367279105128209,0.509474473775878,0.002));
#1602=CARTESIAN_POINT('',(-0.356396789386984,0.509474473775878,0.002));
#1603=CARTESIAN_POINT('',(-0.356396789386984,0.508474473775878,0.002));
#1604=CARTESIAN_POINT('',(-0.356396789386984,0.507474473775878,0.002));
#1605=CARTESIAN_POINT('',(-0.361837947257597,0.507474473775878,0.002));
#1606=CARTESIAN_POINT('',(-0.367279105128209,0.507474473775878,0.002));
#1607=CARTESIAN_POINT('',(-0.367279105128209,0.508474473775878,0.002));
#1608=CARTESIAN_POINT('',(-0.403396789386984,0.573624473775878,0.002));
#1609=CARTESIAN_POINT('',(-0.403396789386984,0.586124473775878,0.002));
#1610=CARTESIAN_POINT('',(-0.403396789386984,0.561124473775878,0.002));
#1611=CARTESIAN_POINT('',(-0.378396789386985,0.586124473775878,0.002));
#1612=CARTESIAN_POINT('',(-0.353396789386984,0.586124473775878,0.002));
#1613=CARTESIAN_POINT('',(-0.353396789386984,0.573624473775878,0.002));
#1614=CARTESIAN_POINT('',(-0.353396789386984,0.561124473775878,0.002));
#1615=CARTESIAN_POINT('',(-0.378396789386985,0.561124473775878,0.002));
#1616=CARTESIAN_POINT('',(-0.407896789386984,0.523624473775878,0.002));
#1617=CARTESIAN_POINT('',(-0.403396789386984,0.523624473775878,0.002));
#1618=CARTESIAN_POINT('',(-0.412396789386984,0.523624473775878,0.002));
#1619=CARTESIAN_POINT('',(-0.403396789386984,0.519124473775878,0.002));
#1620=CARTESIAN_POINT('',(-0.403396789386984,0.514624473775878,0.002));
#1621=CARTESIAN_POINT('',(-0.407896789386984,0.514624473775878,0.002));
#1622=CARTESIAN_POINT('',(-0.412396789386984,0.514624473775878,0.002));
#1623=CARTESIAN_POINT('',(-0.412396789386984,0.519124473775878,0.002));
#1624=CARTESIAN_POINT('',(-0.431396789386985,0.542624473775878,0.002));
#1625=CARTESIAN_POINT('',(-0.431396789386985,0.547124473775878,0.002));
#1626=CARTESIAN_POINT('',(-0.431396789386985,0.538124473775878,0.002));
#1627=CARTESIAN_POINT('',(-0.426896789386984,0.547124473775878,0.002));
#1628=CARTESIAN_POINT('',(-0.422396789386984,0.547124473775878,0.002));
#1629=CARTESIAN_POINT('',(-0.422396789386984,0.542624473775878,0.002));
#1630=CARTESIAN_POINT('',(-0.422396789386984,0.538124473775878,0.002));
#1631=CARTESIAN_POINT('',(-0.426896789386984,0.538124473775878,0.002));
#1632=CARTESIAN_POINT('',(-0.426896789386984,0.556124473775878,0.002));
#1633=CARTESIAN_POINT('',(-0.431396789386985,0.556124473775878,0.002));
#1634=CARTESIAN_POINT('',(-0.422396789386984,0.556124473775878,0.002));
#1635=CARTESIAN_POINT('',(-0.431396789386985,0.560624473775878,0.002));
#1636=CARTESIAN_POINT('',(-0.431396789386985,0.565124473775878,0.002));
#1637=CARTESIAN_POINT('',(-0.426896789386984,0.565124473775878,0.002));
#1638=CARTESIAN_POINT('',(-0.422396789386984,0.565124473775878,0.002));
#1639=CARTESIAN_POINT('',(-0.422396789386984,0.560624473775878,0.002));
#1640=CARTESIAN_POINT('',(-0.646396789386985,0.419124473775878,0.008));
#1641=CARTESIAN_POINT('',(-0.506396789386985,0.469124473775879,0.008));
#1642=CARTESIAN_POINT('',(-0.506396789386985,0.594124473775878,0.008));
#1643=CARTESIAN_POINT('',(-0.506396789386985,0.592124473775878,0.008));
#1644=CARTESIAN_POINT('',(-0.406396789386984,0.592124473775878,0.008));
#1645=CARTESIAN_POINT('',(-0.308396789386985,0.592124473775878,0.008));
#1646=CARTESIAN_POINT('',(-0.308396789386985,0.469124473775879,0.008));
#1647=CARTESIAN_POINT('',(-0.308396789386985,0.344124473775879,0.008));
#1648=CARTESIAN_POINT('',(-0.406396789386984,0.344124473775879,0.008));
#1649=CARTESIAN_POINT('',(-0.306396789386985,0.344124473775878,0.008));
#1650=CARTESIAN_POINT('',(-0.306396789386985,0.469124473775879,0.008));
#1651=CARTESIAN_POINT('',(-0.306396789386985,0.594124473775879,0.008));
#1652=CARTESIAN_POINT('',(-0.406396789386984,0.594124473775878,0.008));
#1653=CARTESIAN_POINT('',(-0.506396789386985,0.469124473775879,0.008));
#1654=CARTESIAN_POINT('',(-0.506396789386985,0.594124473775878,0.008));
#1655=CARTESIAN_POINT('',(-0.506396789386985,0.586124473775878,0.008));
#1656=CARTESIAN_POINT('',(-0.506396789386985,0.592124473775878,0.008));
#1657=CARTESIAN_POINT('',(-0.406396789386984,0.344124473775879,0.008));
#1658=CARTESIAN_POINT('',(-0.306396789386985,0.344124473775878,0.008));
#1659=CARTESIAN_POINT('',(-0.308396789386985,0.344124473775879,0.008));
#1660=CARTESIAN_POINT('',(-0.314396789386985,0.344124473775879,0.008));
#1661=CARTESIAN_POINT('',(-0.306396789386985,0.469124473775879,0.008));
#1662=CARTESIAN_POINT('',(-0.306396789386985,0.594124473775879,0.008));
#1663=CARTESIAN_POINT('',(-0.406396789386984,0.594124473775878,0.008));
#1664=CARTESIAN_POINT('',(-0.308396789386985,0.469124473775879,0.008));
#1665=CARTESIAN_POINT('',(-0.308396789386985,0.592124473775878,0.008));
#1666=CARTESIAN_POINT('',(-0.406396789386984,0.592124473775878,0.008));
#1667=CARTESIAN_POINT('',(-0.493896789386985,0.369124473775879,0.017));
#1668=CARTESIAN_POINT('',(-0.493896789386985,0.369124473775879,0.017));
#1669=CARTESIAN_POINT('',(-0.481396789386985,0.369124473775879,0.017));
#1670=CARTESIAN_POINT('',(-0.481396789386985,0.369124473775879,0.017));
#1671=CARTESIAN_POINT('',(-0.481396789386985,0.356624473775879,0.017));
#1672=CARTESIAN_POINT('',(-0.481396789386985,0.356624473775879,0.017));
#1673=CARTESIAN_POINT('',(-0.496396789386985,0.354124473775879,0.017));
#1674=CARTESIAN_POINT('',(-0.496396789386985,0.354124473775879,0.017));
#1675=CARTESIAN_POINT('',(-0.491246789386985,0.354124473775879,0.017));
#1676=CARTESIAN_POINT('',(-0.496396789386985,0.354124473775879,0.002));
#1677=CARTESIAN_POINT('',(-0.491246789386985,0.354124473775879,0.002));
#1678=CARTESIAN_POINT('',(-0.668896789386985,0.455624473775879,0.017));
#1679=CARTESIAN_POINT('',(-0.646396789386985,0.419124473775878,0.002));
#1680=CARTESIAN_POINT('',(-0.361837947257597,0.509474473775878,0.022));
#1681=CARTESIAN_POINT('',(-0.367279105128209,0.509474473775878,0.022));
#1682=CARTESIAN_POINT('',(-0.367279105128209,0.509474473775878,0.022));
#1683=CARTESIAN_POINT('',(-0.361837947257597,0.509474473775878,0.022));
#1684=CARTESIAN_POINT('',(-0.356396789386984,0.509474473775878,0.022));
#1685=CARTESIAN_POINT('',(-0.356396789386984,0.509474473775878,0.022));
#1686=CARTESIAN_POINT('',(-0.367279105128209,0.508474473775878,0.022));
#1687=CARTESIAN_POINT('',(-0.367279105128209,0.507474473775878,0.022));
#1688=CARTESIAN_POINT('',(-0.367279105128209,0.507474473775878,0.022));
#1689=CARTESIAN_POINT('',(-0.367279105128209,0.508474473775878,0.022));
#1690=CARTESIAN_POINT('',(-0.361837947257597,0.507474473775878,0.022));
#1691=CARTESIAN_POINT('',(-0.356396789386984,0.507474473775878,0.022));
#1692=CARTESIAN_POINT('',(-0.356396789386984,0.507474473775878,0.022));
#1693=CARTESIAN_POINT('',(-0.361837947257597,0.507474473775878,0.022));
#1694=CARTESIAN_POINT('',(-0.356396789386984,0.508474473775878,0.022));
#1695=CARTESIAN_POINT('',(-0.356396789386984,0.508474473775878,0.022));
#1696=CARTESIAN_POINT('',(-0.668896789386985,0.455624473775879,0.022));
#1697=CARTESIAN_POINT('',(-0.426837947257597,0.509474473775878,0.022));
#1698=CARTESIAN_POINT('',(-0.466396789386985,0.509474473775878,0.022));
#1699=CARTESIAN_POINT('',(-0.466396789386985,0.509474473775878,0.022));
#1700=CARTESIAN_POINT('',(-0.426837947257597,0.509474473775878,0.022));
#1701=CARTESIAN_POINT('',(-0.38727910512821,0.509474473775878,0.022));
#1702=CARTESIAN_POINT('',(-0.38727910512821,0.509474473775878,0.022));
#1703=CARTESIAN_POINT('',(-0.466396789386985,0.508474473775878,0.022));
#1704=CARTESIAN_POINT('',(-0.466396789386985,0.507474473775878,0.022));
#1705=CARTESIAN_POINT('',(-0.466396789386985,0.507474473775878,0.022));
#1706=CARTESIAN_POINT('',(-0.466396789386985,0.508474473775878,0.022));
#1707=CARTESIAN_POINT('',(-0.426837947257597,0.507474473775878,0.022));
#1708=CARTESIAN_POINT('',(-0.38727910512821,0.507474473775878,0.022));
#1709=CARTESIAN_POINT('',(-0.38727910512821,0.507474473775878,0.022));
#1710=CARTESIAN_POINT('',(-0.426837947257597,0.507474473775878,0.022));
#1711=CARTESIAN_POINT('',(-0.38727910512821,0.508474473775878,0.022));
#1712=CARTESIAN_POINT('',(-0.38727910512821,0.508474473775878,0.022));
#1713=CARTESIAN_POINT('',(-0.668896789386985,0.455624473775879,0.022));
#1714=CARTESIAN_POINT('',(-0.378396789386985,0.586124473775878,-0.023));
#1715=CARTESIAN_POINT('',(-0.353396789386984,0.586124473775878,-0.023));
#1716=CARTESIAN_POINT('',(-0.403396789386984,0.586124473775878,-0.023));
#1717=CARTESIAN_POINT('',(-0.403396789386984,0.573624473775878,-0.023));
#1718=CARTESIAN_POINT('',(-0.403396789386984,0.561124473775878,-0.023));
#1719=CARTESIAN_POINT('',(-0.378396789386985,0.561124473775878,-0.023));
#1720=CARTESIAN_POINT('',(-0.353396789386984,0.561124473775878,-0.023));
#1721=CARTESIAN_POINT('',(-0.353396789386984,0.573624473775878,-0.023));
#1722=CARTESIAN_POINT('',(-0.403396789386984,0.519124473775878,-0.023));
#1723=CARTESIAN_POINT('',(-0.403396789386984,0.514624473775878,-0.023));
#1724=CARTESIAN_POINT('',(-0.403396789386984,0.523624473775878,-0.023));
#1725=CARTESIAN_POINT('',(-0.407896789386984,0.523624473775878,-0.023));
#1726=CARTESIAN_POINT('',(-0.412396789386984,0.523624473775878,-0.023));
#1727=CARTESIAN_POINT('',(-0.412396789386984,0.519124473775878,-0.023));
#1728=CARTESIAN_POINT('',(-0.412396789386984,0.514624473775878,-0.023));
#1729=CARTESIAN_POINT('',(-0.407896789386984,0.514624473775878,-0.023));
#1730=CARTESIAN_POINT('',(-0.426896789386984,0.547124473775878,-0.023));
#1731=CARTESIAN_POINT('',(-0.422396789386984,0.547124473775878,-0.023));
#1732=CARTESIAN_POINT('',(-0.431396789386985,0.547124473775878,-0.023));
#1733=CARTESIAN_POINT('',(-0.431396789386985,0.542624473775878,-0.023));
#1734=CARTESIAN_POINT('',(-0.431396789386985,0.538124473775878,-0.023));
#1735=CARTESIAN_POINT('',(-0.426896789386984,0.538124473775878,-0.023));
#1736=CARTESIAN_POINT('',(-0.422396789386984,0.538124473775878,-0.023));
#1737=CARTESIAN_POINT('',(-0.422396789386984,0.542624473775878,-0.023));
#1738=CARTESIAN_POINT('',(-0.431396789386985,0.560624473775878,-0.023));
#1739=CARTESIAN_POINT('',(-0.431396789386985,0.565124473775878,-0.023));
#1740=CARTESIAN_POINT('',(-0.431396789386985,0.556124473775878,-0.023));
#1741=CARTESIAN_POINT('',(-0.426896789386984,0.556124473775878,-0.023));
#1742=CARTESIAN_POINT('',(-0.422396789386984,0.556124473775878,-0.023));
#1743=CARTESIAN_POINT('',(-0.422396789386984,0.560624473775878,-0.023));
#1744=CARTESIAN_POINT('',(-0.422396789386984,0.565124473775878,-0.023));
#1745=CARTESIAN_POINT('',(-0.426896789386984,0.565124473775878,-0.023));
#1746=CARTESIAN_POINT('',(-0.314396789386985,0.338124473775879,0.025));
#1747=CARTESIAN_POINT('',(-0.314396789386985,0.424124473775879,0.025));
#1748=CARTESIAN_POINT('',(-0.316896789386985,0.424124473775879,0.025));
#1749=CARTESIAN_POINT('',(-0.319396789386985,0.424124473775879,0.025));
#1750=CARTESIAN_POINT('',(-0.319396789386985,0.340624473775878,0.025));
#1751=CARTESIAN_POINT('',(-0.495896789386984,0.586124473775878,0.025));
#1752=CARTESIAN_POINT('',(-0.405396789386984,0.586124473775878,0.025));
#1753=CARTESIAN_POINT('',(-0.495896789386984,0.581124473775878,0.025));
#1754=CARTESIAN_POINT('',(-0.405396789386984,0.581124473775878,0.025));
#1755=CARTESIAN_POINT('',(-0.405396789386984,0.583624473775878,0.025));
#1756=CARTESIAN_POINT('',(-0.314396789386985,0.549124473775878,0.025));
#1757=CARTESIAN_POINT('',(-0.314396789386985,0.586124473775878,0.025));
#1758=CARTESIAN_POINT('',(-0.314396789386985,0.512124473775878,0.025));
#1759=CARTESIAN_POINT('',(-0.335396789386984,0.586124473775878,0.025));
#1760=CARTESIAN_POINT('',(-0.351396789386984,0.586124473775878,0.025));
#1761=CARTESIAN_POINT('',(-0.351396789386984,0.583624473775878,0.025));
#1762=CARTESIAN_POINT('',(-0.351396789386984,0.581124473775878,0.025));
#1763=CARTESIAN_POINT('',(-0.335396789386984,0.581124473775878,0.025));
#1764=CARTESIAN_POINT('',(-0.319396789386985,0.581124473775878,0.025));
#1765=CARTESIAN_POINT('',(-0.319396789386985,0.546624473775878,0.025));
#1766=CARTESIAN_POINT('',(-0.319396789386985,0.512124473775878,0.025));
#1767=CARTESIAN_POINT('',(-0.316896789386985,0.512124473775878,0.025));
#1768=MECHANICAL_DESIGN_GEOMETRIC_PRESENTATION_REPRESENTATION('',(#1116),
#1769);
#1769=(
GEOMETRIC_REPRESENTATION_CONTEXT(3)
GLOBAL_UNCERTAINTY_ASSIGNED_CONTEXT((#1770))
GLOBAL_UNIT_ASSIGNED_CONTEXT((#1773,#1772,#1771))
REPRESENTATION_CONTEXT('TMat6','TOP_LEVEL_ASSEMBLY_PART')
);
#1770=UNCERTAINTY_MEASURE_WITH_UNIT(LENGTH_MEASURE(1.E-8),#1773,
'DISTANCE_ACCURACY_VALUE','Maximum Tolerance applied to model');
#1771=(
NAMED_UNIT(*)
SI_UNIT($,.STERADIAN.)
SOLID_ANGLE_UNIT()
);
#1772=(
NAMED_UNIT(*)
PLANE_ANGLE_UNIT()
SI_UNIT($,.RADIAN.)
);
#1773=(
LENGTH_UNIT()
NAMED_UNIT(*)
SI_UNIT($,.METRE.)
);
#1774=PRODUCT_DEFINITION_SHAPE('','',#1775);
#1775=PRODUCT_DEFINITION('','',#1777,#1776);
#1776=PRODUCT_DEFINITION_CONTEXT('',#1783,'design');
#1777=PRODUCT_DEFINITION_FORMATION_WITH_SPECIFIED_SOURCE('','',#1779,
 .NOT_KNOWN.);
#1778=PRODUCT_RELATED_PRODUCT_CATEGORY('','',(#1779));
#1779=PRODUCT('TMat6','TMat6','TMat6',(#1781));
#1780=PRODUCT_CATEGORY('','');
#1781=PRODUCT_CONTEXT('',#1783,'mechanical');
#1782=APPLICATION_PROTOCOL_DEFINITION('international standard',
'ap242_managed_model_based_3d_engineering',2020,#1783);
#1783=APPLICATION_CONTEXT('managed model based 3d engineering');
ENDSEC;
END-ISO-10303-21;
