ISO-10303-21;
HEADER;
/* Generated by software containing ST-Developer
 * from STEP Tools, Inc. (www.steptools.com) 
 */
/* OPTION: using custom renumber hook */

FILE_DESCRIPTION(
/* description */ ('STEP AP242 Edition 2',
'CAx-IF Rec.Pracs.---Representation and Presentation of Product Manufa
cturing Information (PMI)---4.0---2014-10-13',
'CAx-IF Rec.Pracs.---3D Tessellated Geometry---0.4---2014-09-14','2;1',
'CAx-IF Rec.Pracs.---User Defined Attributes---1.5---2016-08-15'),
/* implementation_level */ '2;1');

FILE_NAME(
/* name */ 'Part Studio 1 - BMat1',
/* time_stamp */ '2026-05-20T23:41:51Z',
/* author */ (''),
/* organization */ (''),
/* preprocessor_version */ 'ST-DEVELOPER v20',
/* originating_system */ 'ONSHAPE BY PTC INC, 1.215',
/* authorisation */ '  ');

FILE_SCHEMA (('AP242_MANAGED_MODEL_BASED_3D_ENGINEERING_MIM_LF { 1 0 10303 442 3 1 4 }'));
ENDSEC;

DATA;
#10=SHAPE_REPRESENTATION_RELATIONSHIP('','',#1425,#11);
#11=ADVANCED_BREP_SHAPE_REPRESENTATION('',(#1423),#2241);
#12=CYLINDRICAL_SURFACE('',#1451,0.005);
#13=CIRCLE('',#1434,0.005);
#14=CIRCLE('',#1452,0.005);
#15=ORIENTED_EDGE('',*,*,#403,.T.);
#16=ORIENTED_EDGE('',*,*,#404,.F.);
#17=ORIENTED_EDGE('',*,*,#405,.F.);
#18=ORIENTED_EDGE('',*,*,#406,.T.);
#19=ORIENTED_EDGE('',*,*,#407,.F.);
#20=ORIENTED_EDGE('',*,*,#408,.T.);
#21=ORIENTED_EDGE('',*,*,#409,.T.);
#22=ORIENTED_EDGE('',*,*,#410,.F.);
#23=ORIENTED_EDGE('',*,*,#411,.F.);
#24=ORIENTED_EDGE('',*,*,#412,.F.);
#25=ORIENTED_EDGE('',*,*,#413,.T.);
#26=ORIENTED_EDGE('',*,*,#414,.T.);
#27=ORIENTED_EDGE('',*,*,#415,.F.);
#28=ORIENTED_EDGE('',*,*,#416,.T.);
#29=ORIENTED_EDGE('',*,*,#417,.T.);
#30=ORIENTED_EDGE('',*,*,#418,.F.);
#31=ORIENTED_EDGE('',*,*,#419,.T.);
#32=ORIENTED_EDGE('',*,*,#420,.T.);
#33=ORIENTED_EDGE('',*,*,#421,.F.);
#34=ORIENTED_EDGE('',*,*,#422,.T.);
#35=ORIENTED_EDGE('',*,*,#423,.F.);
#36=ORIENTED_EDGE('',*,*,#424,.T.);
#37=ORIENTED_EDGE('',*,*,#425,.T.);
#38=ORIENTED_EDGE('',*,*,#426,.T.);
#39=ORIENTED_EDGE('',*,*,#427,.T.);
#40=ORIENTED_EDGE('',*,*,#428,.F.);
#41=ORIENTED_EDGE('',*,*,#429,.F.);
#42=ORIENTED_EDGE('',*,*,#421,.T.);
#43=ORIENTED_EDGE('',*,*,#430,.F.);
#44=ORIENTED_EDGE('',*,*,#431,.T.);
#45=ORIENTED_EDGE('',*,*,#419,.F.);
#46=ORIENTED_EDGE('',*,*,#432,.T.);
#47=ORIENTED_EDGE('',*,*,#433,.T.);
#48=ORIENTED_EDGE('',*,*,#434,.F.);
#49=ORIENTED_EDGE('',*,*,#435,.F.);
#50=ORIENTED_EDGE('',*,*,#436,.F.);
#51=ORIENTED_EDGE('',*,*,#437,.F.);
#52=ORIENTED_EDGE('',*,*,#438,.F.);
#53=ORIENTED_EDGE('',*,*,#439,.F.);
#54=ORIENTED_EDGE('',*,*,#440,.T.);
#55=ORIENTED_EDGE('',*,*,#441,.T.);
#56=ORIENTED_EDGE('',*,*,#442,.F.);
#57=ORIENTED_EDGE('',*,*,#443,.T.);
#58=ORIENTED_EDGE('',*,*,#444,.F.);
#59=ORIENTED_EDGE('',*,*,#445,.F.);
#60=ORIENTED_EDGE('',*,*,#446,.T.);
#61=ORIENTED_EDGE('',*,*,#447,.T.);
#62=ORIENTED_EDGE('',*,*,#448,.T.);
#63=ORIENTED_EDGE('',*,*,#449,.F.);
#64=ORIENTED_EDGE('',*,*,#450,.F.);
#65=ORIENTED_EDGE('',*,*,#451,.T.);
#66=ORIENTED_EDGE('',*,*,#434,.T.);
#67=ORIENTED_EDGE('',*,*,#452,.F.);
#68=ORIENTED_EDGE('',*,*,#427,.F.);
#69=ORIENTED_EDGE('',*,*,#453,.F.);
#70=ORIENTED_EDGE('',*,*,#454,.F.);
#71=ORIENTED_EDGE('',*,*,#411,.T.);
#72=ORIENTED_EDGE('',*,*,#455,.T.);
#73=ORIENTED_EDGE('',*,*,#456,.F.);
#74=ORIENTED_EDGE('',*,*,#457,.F.);
#75=ORIENTED_EDGE('',*,*,#458,.F.);
#76=ORIENTED_EDGE('',*,*,#459,.F.);
#77=ORIENTED_EDGE('',*,*,#460,.T.);
#78=ORIENTED_EDGE('',*,*,#461,.F.);
#79=ORIENTED_EDGE('',*,*,#462,.F.);
#80=ORIENTED_EDGE('',*,*,#463,.F.);
#81=ORIENTED_EDGE('',*,*,#464,.T.);
#82=ORIENTED_EDGE('',*,*,#465,.F.);
#83=ORIENTED_EDGE('',*,*,#466,.F.);
#84=ORIENTED_EDGE('',*,*,#467,.F.);
#85=ORIENTED_EDGE('',*,*,#468,.F.);
#86=ORIENTED_EDGE('',*,*,#469,.T.);
#87=ORIENTED_EDGE('',*,*,#470,.T.);
#88=ORIENTED_EDGE('',*,*,#471,.F.);
#89=ORIENTED_EDGE('',*,*,#472,.T.);
#90=ORIENTED_EDGE('',*,*,#473,.T.);
#91=ORIENTED_EDGE('',*,*,#474,.F.);
#92=ORIENTED_EDGE('',*,*,#475,.F.);
#93=ORIENTED_EDGE('',*,*,#476,.F.);
#94=ORIENTED_EDGE('',*,*,#477,.T.);
#95=ORIENTED_EDGE('',*,*,#478,.F.);
#96=ORIENTED_EDGE('',*,*,#412,.T.);
#97=ORIENTED_EDGE('',*,*,#454,.T.);
#98=ORIENTED_EDGE('',*,*,#479,.F.);
#99=ORIENTED_EDGE('',*,*,#480,.T.);
#100=ORIENTED_EDGE('',*,*,#481,.T.);
#101=ORIENTED_EDGE('',*,*,#482,.F.);
#102=ORIENTED_EDGE('',*,*,#483,.T.);
#103=ORIENTED_EDGE('',*,*,#484,.T.);
#104=ORIENTED_EDGE('',*,*,#485,.T.);
#105=ORIENTED_EDGE('',*,*,#463,.T.);
#106=ORIENTED_EDGE('',*,*,#486,.F.);
#107=ORIENTED_EDGE('',*,*,#487,.T.);
#108=ORIENTED_EDGE('',*,*,#488,.F.);
#109=ORIENTED_EDGE('',*,*,#489,.F.);
#110=ORIENTED_EDGE('',*,*,#490,.F.);
#111=ORIENTED_EDGE('',*,*,#491,.T.);
#112=ORIENTED_EDGE('',*,*,#492,.T.);
#113=ORIENTED_EDGE('',*,*,#459,.T.);
#114=ORIENTED_EDGE('',*,*,#493,.F.);
#115=ORIENTED_EDGE('',*,*,#494,.T.);
#116=ORIENTED_EDGE('',*,*,#495,.F.);
#117=ORIENTED_EDGE('',*,*,#473,.F.);
#118=ORIENTED_EDGE('',*,*,#496,.F.);
#119=ORIENTED_EDGE('',*,*,#497,.F.);
#120=ORIENTED_EDGE('',*,*,#498,.F.);
#121=ORIENTED_EDGE('',*,*,#490,.T.);
#122=ORIENTED_EDGE('',*,*,#499,.T.);
#123=ORIENTED_EDGE('',*,*,#500,.T.);
#124=ORIENTED_EDGE('',*,*,#481,.F.);
#125=ORIENTED_EDGE('',*,*,#501,.T.);
#126=ORIENTED_EDGE('',*,*,#502,.F.);
#127=ORIENTED_EDGE('',*,*,#503,.F.);
#128=ORIENTED_EDGE('',*,*,#405,.T.);
#129=ORIENTED_EDGE('',*,*,#504,.T.);
#130=ORIENTED_EDGE('',*,*,#413,.F.);
#131=ORIENTED_EDGE('',*,*,#478,.T.);
#132=ORIENTED_EDGE('',*,*,#505,.F.);
#133=ORIENTED_EDGE('',*,*,#455,.F.);
#134=ORIENTED_EDGE('',*,*,#414,.F.);
#135=ORIENTED_EDGE('',*,*,#504,.F.);
#136=ORIENTED_EDGE('',*,*,#404,.T.);
#137=ORIENTED_EDGE('',*,*,#506,.T.);
#138=ORIENTED_EDGE('',*,*,#507,.F.);
#139=ORIENTED_EDGE('',*,*,#508,.T.);
#140=ORIENTED_EDGE('',*,*,#509,.T.);
#141=ORIENTED_EDGE('',*,*,#456,.T.);
#142=ORIENTED_EDGE('',*,*,#505,.T.);
#143=ORIENTED_EDGE('',*,*,#510,.F.);
#144=ORIENTED_EDGE('',*,*,#511,.F.);
#145=ORIENTED_EDGE('',*,*,#474,.T.);
#146=ORIENTED_EDGE('',*,*,#495,.T.);
#147=ORIENTED_EDGE('',*,*,#512,.T.);
#148=ORIENTED_EDGE('',*,*,#513,.T.);
#149=ORIENTED_EDGE('',*,*,#514,.T.);
#150=ORIENTED_EDGE('',*,*,#515,.F.);
#151=ORIENTED_EDGE('',*,*,#471,.T.);
#152=ORIENTED_EDGE('',*,*,#511,.T.);
#153=ORIENTED_EDGE('',*,*,#516,.F.);
#154=ORIENTED_EDGE('',*,*,#406,.F.);
#155=ORIENTED_EDGE('',*,*,#503,.T.);
#156=ORIENTED_EDGE('',*,*,#517,.T.);
#157=ORIENTED_EDGE('',*,*,#518,.F.);
#158=ORIENTED_EDGE('',*,*,#516,.T.);
#159=ORIENTED_EDGE('',*,*,#510,.T.);
#160=ORIENTED_EDGE('',*,*,#506,.F.);
#161=ORIENTED_EDGE('',*,*,#403,.F.);
#162=ORIENTED_EDGE('',*,*,#458,.T.);
#163=ORIENTED_EDGE('',*,*,#519,.F.);
#164=ORIENTED_EDGE('',*,*,#520,.F.);
#165=ORIENTED_EDGE('',*,*,#493,.T.);
#166=ORIENTED_EDGE('',*,*,#457,.T.);
#167=ORIENTED_EDGE('',*,*,#509,.F.);
#168=ORIENTED_EDGE('',*,*,#521,.F.);
#169=ORIENTED_EDGE('',*,*,#519,.T.);
#170=ORIENTED_EDGE('',*,*,#512,.F.);
#171=ORIENTED_EDGE('',*,*,#494,.F.);
#172=ORIENTED_EDGE('',*,*,#520,.T.);
#173=ORIENTED_EDGE('',*,*,#521,.T.);
#174=ORIENTED_EDGE('',*,*,#508,.F.);
#175=ORIENTED_EDGE('',*,*,#522,.T.);
#176=ORIENTED_EDGE('',*,*,#523,.F.);
#177=ORIENTED_EDGE('',*,*,#524,.F.);
#178=ORIENTED_EDGE('',*,*,#525,.F.);
#179=ORIENTED_EDGE('',*,*,#513,.F.);
#180=ORIENTED_EDGE('',*,*,#524,.T.);
#181=ORIENTED_EDGE('',*,*,#526,.T.);
#182=ORIENTED_EDGE('',*,*,#527,.T.);
#183=ORIENTED_EDGE('',*,*,#528,.F.);
#184=ORIENTED_EDGE('',*,*,#522,.F.);
#185=ORIENTED_EDGE('',*,*,#507,.T.);
#186=ORIENTED_EDGE('',*,*,#529,.F.);
#187=ORIENTED_EDGE('',*,*,#526,.F.);
#188=ORIENTED_EDGE('',*,*,#523,.T.);
#189=ORIENTED_EDGE('',*,*,#528,.T.);
#190=ORIENTED_EDGE('',*,*,#525,.T.);
#191=ORIENTED_EDGE('',*,*,#529,.T.);
#192=ORIENTED_EDGE('',*,*,#527,.F.);
#193=ORIENTED_EDGE('',*,*,#514,.F.);
#194=ORIENTED_EDGE('',*,*,#530,.F.);
#195=ORIENTED_EDGE('',*,*,#466,.T.);
#196=ORIENTED_EDGE('',*,*,#530,.T.);
#197=ORIENTED_EDGE('',*,*,#531,.F.);
#198=ORIENTED_EDGE('',*,*,#532,.T.);
#199=ORIENTED_EDGE('',*,*,#486,.T.);
#200=ORIENTED_EDGE('',*,*,#462,.T.);
#201=ORIENTED_EDGE('',*,*,#497,.T.);
#202=ORIENTED_EDGE('',*,*,#533,.T.);
#203=ORIENTED_EDGE('',*,*,#534,.T.);
#204=ORIENTED_EDGE('',*,*,#535,.F.);
#205=ORIENTED_EDGE('',*,*,#531,.T.);
#206=ORIENTED_EDGE('',*,*,#461,.T.);
#207=ORIENTED_EDGE('',*,*,#536,.F.);
#208=ORIENTED_EDGE('',*,*,#537,.F.);
#209=ORIENTED_EDGE('',*,*,#460,.F.);
#210=ORIENTED_EDGE('',*,*,#492,.F.);
#211=ORIENTED_EDGE('',*,*,#538,.T.);
#212=ORIENTED_EDGE('',*,*,#536,.T.);
#213=ORIENTED_EDGE('',*,*,#498,.T.);
#214=ORIENTED_EDGE('',*,*,#537,.T.);
#215=ORIENTED_EDGE('',*,*,#538,.F.);
#216=ORIENTED_EDGE('',*,*,#491,.F.);
#217=ORIENTED_EDGE('',*,*,#453,.T.);
#218=ORIENTED_EDGE('',*,*,#539,.F.);
#219=ORIENTED_EDGE('',*,*,#540,.F.);
#220=ORIENTED_EDGE('',*,*,#479,.T.);
#221=ORIENTED_EDGE('',*,*,#541,.F.);
#222=ORIENTED_EDGE('',*,*,#542,.T.);
#223=ORIENTED_EDGE('',*,*,#499,.F.);
#224=ORIENTED_EDGE('',*,*,#543,.F.);
#225=ORIENTED_EDGE('',*,*,#539,.T.);
#226=ORIENTED_EDGE('',*,*,#465,.T.);
#227=ORIENTED_EDGE('',*,*,#544,.F.);
#228=ORIENTED_EDGE('',*,*,#545,.F.);
#229=ORIENTED_EDGE('',*,*,#546,.F.);
#230=ORIENTED_EDGE('',*,*,#544,.T.);
#231=ORIENTED_EDGE('',*,*,#464,.F.);
#232=ORIENTED_EDGE('',*,*,#485,.F.);
#233=ORIENTED_EDGE('',*,*,#540,.T.);
#234=ORIENTED_EDGE('',*,*,#543,.T.);
#235=ORIENTED_EDGE('',*,*,#501,.F.);
#236=ORIENTED_EDGE('',*,*,#480,.F.);
#237=ORIENTED_EDGE('',*,*,#546,.T.);
#238=ORIENTED_EDGE('',*,*,#484,.F.);
#239=ORIENTED_EDGE('',*,*,#547,.T.);
#240=ORIENTED_EDGE('',*,*,#545,.T.);
#241=ORIENTED_EDGE('',*,*,#542,.F.);
#242=ORIENTED_EDGE('',*,*,#548,.F.);
#243=ORIENTED_EDGE('',*,*,#482,.T.);
#244=ORIENTED_EDGE('',*,*,#500,.F.);
#245=ORIENTED_EDGE('',*,*,#541,.T.);
#246=ORIENTED_EDGE('',*,*,#547,.F.);
#247=ORIENTED_EDGE('',*,*,#483,.F.);
#248=ORIENTED_EDGE('',*,*,#548,.T.);
#249=ORIENTED_EDGE('',*,*,#496,.T.);
#250=ORIENTED_EDGE('',*,*,#489,.T.);
#251=ORIENTED_EDGE('',*,*,#549,.T.);
#252=ORIENTED_EDGE('',*,*,#533,.F.);
#253=ORIENTED_EDGE('',*,*,#535,.T.);
#254=ORIENTED_EDGE('',*,*,#550,.F.);
#255=ORIENTED_EDGE('',*,*,#487,.F.);
#256=ORIENTED_EDGE('',*,*,#532,.F.);
#257=ORIENTED_EDGE('',*,*,#534,.F.);
#258=ORIENTED_EDGE('',*,*,#549,.F.);
#259=ORIENTED_EDGE('',*,*,#488,.T.);
#260=ORIENTED_EDGE('',*,*,#550,.T.);
#261=ORIENTED_EDGE('',*,*,#518,.T.);
#262=ORIENTED_EDGE('',*,*,#551,.T.);
#263=ORIENTED_EDGE('',*,*,#476,.T.);
#264=ORIENTED_EDGE('',*,*,#552,.F.);
#265=ORIENTED_EDGE('',*,*,#515,.T.);
#266=ORIENTED_EDGE('',*,*,#552,.T.);
#267=ORIENTED_EDGE('',*,*,#475,.T.);
#268=ORIENTED_EDGE('',*,*,#472,.F.);
#269=ORIENTED_EDGE('',*,*,#502,.T.);
#270=ORIENTED_EDGE('',*,*,#477,.F.);
#271=ORIENTED_EDGE('',*,*,#551,.F.);
#272=ORIENTED_EDGE('',*,*,#517,.F.);
#273=ORIENTED_EDGE('',*,*,#553,.F.);
#274=ORIENTED_EDGE('',*,*,#435,.T.);
#275=ORIENTED_EDGE('',*,*,#451,.F.);
#276=ORIENTED_EDGE('',*,*,#426,.F.);
#277=ORIENTED_EDGE('',*,*,#452,.T.);
#278=ORIENTED_EDGE('',*,*,#433,.F.);
#279=ORIENTED_EDGE('',*,*,#554,.F.);
#280=ORIENTED_EDGE('',*,*,#428,.T.);
#281=ORIENTED_EDGE('',*,*,#422,.F.);
#282=ORIENTED_EDGE('',*,*,#429,.T.);
#283=ORIENTED_EDGE('',*,*,#554,.T.);
#284=ORIENTED_EDGE('',*,*,#432,.F.);
#285=ORIENTED_EDGE('',*,*,#555,.F.);
#286=ORIENTED_EDGE('',*,*,#556,.T.);
#287=ORIENTED_EDGE('',*,*,#557,.T.);
#288=ORIENTED_EDGE('',*,*,#468,.T.);
#289=ORIENTED_EDGE('',*,*,#438,.T.);
#290=ORIENTED_EDGE('',*,*,#558,.T.);
#291=ORIENTED_EDGE('',*,*,#559,.T.);
#292=ORIENTED_EDGE('',*,*,#560,.F.);
#293=ORIENTED_EDGE('',*,*,#555,.T.);
#294=ORIENTED_EDGE('',*,*,#467,.T.);
#295=ORIENTED_EDGE('',*,*,#561,.F.);
#296=ORIENTED_EDGE('',*,*,#562,.F.);
#297=ORIENTED_EDGE('',*,*,#470,.F.);
#298=ORIENTED_EDGE('',*,*,#563,.F.);
#299=ORIENTED_EDGE('',*,*,#564,.T.);
#300=ORIENTED_EDGE('',*,*,#561,.T.);
#301=ORIENTED_EDGE('',*,*,#565,.F.);
#302=ORIENTED_EDGE('',*,*,#440,.F.);
#303=ORIENTED_EDGE('',*,*,#566,.T.);
#304=ORIENTED_EDGE('',*,*,#563,.T.);
#305=ORIENTED_EDGE('',*,*,#469,.F.);
#306=ORIENTED_EDGE('',*,*,#557,.F.);
#307=ORIENTED_EDGE('',*,*,#567,.T.);
#308=ORIENTED_EDGE('',*,*,#568,.F.);
#309=ORIENTED_EDGE('',*,*,#439,.T.);
#310=ORIENTED_EDGE('',*,*,#562,.T.);
#311=ORIENTED_EDGE('',*,*,#564,.F.);
#312=ORIENTED_EDGE('',*,*,#566,.F.);
#313=ORIENTED_EDGE('',*,*,#559,.F.);
#314=ORIENTED_EDGE('',*,*,#569,.F.);
#315=ORIENTED_EDGE('',*,*,#568,.T.);
#316=ORIENTED_EDGE('',*,*,#570,.T.);
#317=ORIENTED_EDGE('',*,*,#560,.T.);
#318=ORIENTED_EDGE('',*,*,#570,.F.);
#319=ORIENTED_EDGE('',*,*,#567,.F.);
#320=ORIENTED_EDGE('',*,*,#556,.F.);
#321=ORIENTED_EDGE('',*,*,#437,.T.);
#322=ORIENTED_EDGE('',*,*,#565,.T.);
#323=ORIENTED_EDGE('',*,*,#569,.T.);
#324=ORIENTED_EDGE('',*,*,#558,.F.);
#325=ORIENTED_EDGE('',*,*,#431,.F.);
#326=ORIENTED_EDGE('',*,*,#571,.F.);
#327=ORIENTED_EDGE('',*,*,#423,.T.);
#328=ORIENTED_EDGE('',*,*,#420,.F.);
#329=ORIENTED_EDGE('',*,*,#430,.T.);
#330=ORIENTED_EDGE('',*,*,#572,.F.);
#331=ORIENTED_EDGE('',*,*,#424,.F.);
#332=ORIENTED_EDGE('',*,*,#571,.T.);
#333=ORIENTED_EDGE('',*,*,#553,.T.);
#334=ORIENTED_EDGE('',*,*,#425,.F.);
#335=ORIENTED_EDGE('',*,*,#572,.T.);
#336=ORIENTED_EDGE('',*,*,#436,.T.);
#337=ORIENTED_EDGE('',*,*,#407,.T.);
#338=ORIENTED_EDGE('',*,*,#573,.T.);
#339=ORIENTED_EDGE('',*,*,#416,.F.);
#340=ORIENTED_EDGE('',*,*,#574,.F.);
#341=ORIENTED_EDGE('',*,*,#574,.T.);
#342=ORIENTED_EDGE('',*,*,#415,.T.);
#343=ORIENTED_EDGE('',*,*,#575,.F.);
#344=ORIENTED_EDGE('',*,*,#408,.F.);
#345=ORIENTED_EDGE('',*,*,#575,.T.);
#346=ORIENTED_EDGE('',*,*,#418,.T.);
#347=ORIENTED_EDGE('',*,*,#576,.F.);
#348=ORIENTED_EDGE('',*,*,#409,.F.);
#349=ORIENTED_EDGE('',*,*,#410,.T.);
#350=ORIENTED_EDGE('',*,*,#576,.T.);
#351=ORIENTED_EDGE('',*,*,#417,.F.);
#352=ORIENTED_EDGE('',*,*,#573,.F.);
#353=ORIENTED_EDGE('',*,*,#447,.F.);
#354=ORIENTED_EDGE('',*,*,#577,.F.);
#355=ORIENTED_EDGE('',*,*,#578,.T.);
#356=ORIENTED_EDGE('',*,*,#579,.T.);
#357=ORIENTED_EDGE('',*,*,#450,.T.);
#358=ORIENTED_EDGE('',*,*,#580,.F.);
#359=ORIENTED_EDGE('',*,*,#581,.F.);
#360=ORIENTED_EDGE('',*,*,#577,.T.);
#361=ORIENTED_EDGE('',*,*,#449,.T.);
#362=ORIENTED_EDGE('',*,*,#582,.F.);
#363=ORIENTED_EDGE('',*,*,#583,.F.);
#364=ORIENTED_EDGE('',*,*,#580,.T.);
#365=ORIENTED_EDGE('',*,*,#448,.F.);
#366=ORIENTED_EDGE('',*,*,#579,.F.);
#367=ORIENTED_EDGE('',*,*,#584,.T.);
#368=ORIENTED_EDGE('',*,*,#582,.T.);
#369=ORIENTED_EDGE('',*,*,#578,.F.);
#370=ORIENTED_EDGE('',*,*,#581,.T.);
#371=ORIENTED_EDGE('',*,*,#583,.T.);
#372=ORIENTED_EDGE('',*,*,#584,.F.);
#373=ORIENTED_EDGE('',*,*,#441,.F.);
#374=ORIENTED_EDGE('',*,*,#585,.F.);
#375=ORIENTED_EDGE('',*,*,#586,.T.);
#376=ORIENTED_EDGE('',*,*,#587,.T.);
#377=ORIENTED_EDGE('',*,*,#446,.F.);
#378=ORIENTED_EDGE('',*,*,#588,.F.);
#379=ORIENTED_EDGE('',*,*,#589,.T.);
#380=ORIENTED_EDGE('',*,*,#585,.T.);
#381=ORIENTED_EDGE('',*,*,#445,.T.);
#382=ORIENTED_EDGE('',*,*,#590,.F.);
#383=ORIENTED_EDGE('',*,*,#591,.F.);
#384=ORIENTED_EDGE('',*,*,#588,.T.);
#385=ORIENTED_EDGE('',*,*,#444,.T.);
#386=ORIENTED_EDGE('',*,*,#592,.F.);
#387=ORIENTED_EDGE('',*,*,#593,.F.);
#388=ORIENTED_EDGE('',*,*,#590,.T.);
#389=ORIENTED_EDGE('',*,*,#443,.F.);
#390=ORIENTED_EDGE('',*,*,#594,.F.);
#391=ORIENTED_EDGE('',*,*,#595,.T.);
#392=ORIENTED_EDGE('',*,*,#592,.T.);
#393=ORIENTED_EDGE('',*,*,#442,.T.);
#394=ORIENTED_EDGE('',*,*,#587,.F.);
#395=ORIENTED_EDGE('',*,*,#596,.F.);
#396=ORIENTED_EDGE('',*,*,#594,.T.);
#397=ORIENTED_EDGE('',*,*,#586,.F.);
#398=ORIENTED_EDGE('',*,*,#589,.F.);
#399=ORIENTED_EDGE('',*,*,#591,.T.);
#400=ORIENTED_EDGE('',*,*,#593,.T.);
#401=ORIENTED_EDGE('',*,*,#595,.F.);
#402=ORIENTED_EDGE('',*,*,#596,.T.);
#403=EDGE_CURVE('',#597,#598,#727,.T.);
#404=EDGE_CURVE('',#599,#598,#728,.T.);
#405=EDGE_CURVE('',#600,#599,#729,.T.);
#406=EDGE_CURVE('',#600,#597,#730,.T.);
#407=EDGE_CURVE('',#601,#602,#731,.T.);
#408=EDGE_CURVE('',#601,#603,#732,.T.);
#409=EDGE_CURVE('',#603,#604,#733,.T.);
#410=EDGE_CURVE('',#602,#604,#734,.T.);
#411=EDGE_CURVE('',#605,#606,#735,.T.);
#412=EDGE_CURVE('',#607,#605,#736,.T.);
#413=EDGE_CURVE('',#607,#608,#737,.T.);
#414=EDGE_CURVE('',#608,#606,#738,.T.);
#415=EDGE_CURVE('',#609,#610,#739,.T.);
#416=EDGE_CURVE('',#609,#611,#740,.T.);
#417=EDGE_CURVE('',#611,#612,#741,.T.);
#418=EDGE_CURVE('',#610,#612,#742,.T.);
#419=EDGE_CURVE('',#613,#614,#743,.T.);
#420=EDGE_CURVE('',#614,#615,#744,.T.);
#421=EDGE_CURVE('',#616,#615,#745,.T.);
#422=EDGE_CURVE('',#616,#613,#746,.T.);
#423=EDGE_CURVE('',#617,#615,#747,.T.);
#424=EDGE_CURVE('',#617,#618,#748,.T.);
#425=EDGE_CURVE('',#618,#619,#749,.T.);
#426=EDGE_CURVE('',#619,#620,#750,.T.);
#427=EDGE_CURVE('',#620,#621,#751,.T.);
#428=EDGE_CURVE('',#622,#621,#752,.T.);
#429=EDGE_CURVE('',#616,#622,#753,.T.);
#430=EDGE_CURVE('',#623,#624,#754,.T.);
#431=EDGE_CURVE('',#623,#614,#755,.T.);
#432=EDGE_CURVE('',#613,#625,#756,.T.);
#433=EDGE_CURVE('',#625,#626,#757,.T.);
#434=EDGE_CURVE('',#627,#626,#758,.T.);
#435=EDGE_CURVE('',#628,#627,#759,.T.);
#436=EDGE_CURVE('',#624,#628,#760,.T.);
#437=EDGE_CURVE('',#629,#630,#761,.T.);
#438=EDGE_CURVE('',#631,#629,#762,.T.);
#439=EDGE_CURVE('',#632,#631,#763,.T.);
#440=EDGE_CURVE('',#632,#630,#764,.T.);
#441=EDGE_CURVE('',#633,#634,#765,.T.);
#442=EDGE_CURVE('',#635,#634,#766,.T.);
#443=EDGE_CURVE('',#635,#636,#767,.T.);
#444=EDGE_CURVE('',#637,#636,#768,.T.);
#445=EDGE_CURVE('',#638,#637,#769,.T.);
#446=EDGE_CURVE('',#638,#633,#770,.T.);
#447=EDGE_CURVE('',#639,#640,#771,.T.);
#448=EDGE_CURVE('',#640,#641,#772,.T.);
#449=EDGE_CURVE('',#642,#641,#773,.T.);
#450=EDGE_CURVE('',#639,#642,#774,.T.);
#451=EDGE_CURVE('',#620,#627,#775,.T.);
#452=EDGE_CURVE('',#621,#626,#776,.T.);
#453=EDGE_CURVE('',#643,#644,#777,.T.);
#454=EDGE_CURVE('',#605,#643,#778,.T.);
#455=EDGE_CURVE('',#606,#645,#779,.T.);
#456=EDGE_CURVE('',#646,#645,#780,.T.);
#457=EDGE_CURVE('',#647,#646,#781,.T.);
#458=EDGE_CURVE('',#648,#647,#782,.T.);
#459=EDGE_CURVE('',#649,#648,#783,.T.);
#460=EDGE_CURVE('',#649,#650,#784,.T.);
#461=EDGE_CURVE('',#651,#650,#785,.T.);
#462=EDGE_CURVE('',#652,#651,#786,.T.);
#463=EDGE_CURVE('',#653,#652,#787,.T.);
#464=EDGE_CURVE('',#653,#654,#788,.T.);
#465=EDGE_CURVE('',#644,#654,#789,.T.);
#466=EDGE_CURVE('',#655,#655,#13,.T.);
#467=EDGE_CURVE('',#656,#657,#790,.T.);
#468=EDGE_CURVE('',#658,#656,#791,.T.);
#469=EDGE_CURVE('',#658,#659,#792,.T.);
#470=EDGE_CURVE('',#659,#657,#793,.T.);
#471=EDGE_CURVE('',#660,#661,#794,.T.);
#472=EDGE_CURVE('',#660,#662,#795,.T.);
#473=EDGE_CURVE('',#662,#663,#796,.T.);
#474=EDGE_CURVE('',#661,#663,#797,.T.);
#475=EDGE_CURVE('',#664,#662,#798,.T.);
#476=EDGE_CURVE('',#665,#664,#799,.T.);
#477=EDGE_CURVE('',#665,#666,#800,.T.);
#478=EDGE_CURVE('',#607,#666,#801,.T.);
#479=EDGE_CURVE('',#667,#643,#802,.T.);
#480=EDGE_CURVE('',#667,#668,#803,.T.);
#481=EDGE_CURVE('',#668,#669,#804,.T.);
#482=EDGE_CURVE('',#670,#669,#805,.T.);
#483=EDGE_CURVE('',#670,#671,#806,.T.);
#484=EDGE_CURVE('',#671,#672,#807,.T.);
#485=EDGE_CURVE('',#672,#653,#808,.T.);
#486=EDGE_CURVE('',#673,#652,#809,.T.);
#487=EDGE_CURVE('',#673,#674,#810,.T.);
#488=EDGE_CURVE('',#675,#674,#811,.T.);
#489=EDGE_CURVE('',#676,#675,#812,.T.);
#490=EDGE_CURVE('',#677,#676,#813,.T.);
#491=EDGE_CURVE('',#677,#678,#814,.T.);
#492=EDGE_CURVE('',#678,#649,#815,.T.);
#493=EDGE_CURVE('',#679,#648,#816,.T.);
#494=EDGE_CURVE('',#679,#680,#817,.T.);
#495=EDGE_CURVE('',#663,#680,#818,.T.);
#496=EDGE_CURVE('',#681,#676,#819,.T.);
#497=EDGE_CURVE('',#682,#681,#820,.T.);
#498=EDGE_CURVE('',#677,#682,#821,.T.);
#499=EDGE_CURVE('',#683,#684,#822,.T.);
#500=EDGE_CURVE('',#684,#669,#823,.T.);
#501=EDGE_CURVE('',#668,#683,#824,.T.);
#502=EDGE_CURVE('',#685,#666,#825,.T.);
#503=EDGE_CURVE('',#600,#685,#826,.T.);
#504=EDGE_CURVE('',#599,#608,#827,.T.);
#505=EDGE_CURVE('',#645,#686,#828,.T.);
#506=EDGE_CURVE('',#598,#686,#829,.T.);
#507=EDGE_CURVE('',#687,#688,#830,.T.);
#508=EDGE_CURVE('',#687,#689,#831,.T.);
#509=EDGE_CURVE('',#689,#646,#832,.T.);
#510=EDGE_CURVE('',#690,#686,#833,.T.);
#511=EDGE_CURVE('',#661,#690,#834,.T.);
#512=EDGE_CURVE('',#680,#691,#835,.T.);
#513=EDGE_CURVE('',#691,#692,#836,.T.);
#514=EDGE_CURVE('',#692,#688,#837,.T.);
#515=EDGE_CURVE('',#660,#693,#838,.T.);
#516=EDGE_CURVE('',#597,#690,#839,.T.);
#517=EDGE_CURVE('',#685,#694,#840,.T.);
#518=EDGE_CURVE('',#693,#694,#841,.T.);
#519=EDGE_CURVE('',#695,#647,#842,.T.);
#520=EDGE_CURVE('',#679,#695,#843,.T.);
#521=EDGE_CURVE('',#695,#689,#844,.T.);
#522=EDGE_CURVE('',#687,#696,#845,.T.);
#523=EDGE_CURVE('',#697,#696,#846,.T.);
#524=EDGE_CURVE('',#691,#697,#847,.T.);
#525=EDGE_CURVE('',#692,#698,#848,.T.);
#526=EDGE_CURVE('',#697,#698,#849,.T.);
#527=EDGE_CURVE('',#688,#699,#850,.T.);
#528=EDGE_CURVE('',#696,#699,#851,.T.);
#529=EDGE_CURVE('',#698,#699,#852,.T.);
#530=EDGE_CURVE('',#700,#700,#14,.T.);
#531=EDGE_CURVE('',#701,#651,#853,.T.);
#532=EDGE_CURVE('',#701,#673,#854,.T.);
#533=EDGE_CURVE('',#681,#702,#855,.T.);
#534=EDGE_CURVE('',#702,#703,#856,.T.);
#535=EDGE_CURVE('',#701,#703,#857,.T.);
#536=EDGE_CURVE('',#704,#650,#858,.T.);
#537=EDGE_CURVE('',#682,#704,#859,.T.);
#538=EDGE_CURVE('',#678,#704,#860,.T.);
#539=EDGE_CURVE('',#705,#644,#861,.T.);
#540=EDGE_CURVE('',#667,#705,#862,.T.);
#541=EDGE_CURVE('',#706,#707,#863,.T.);
#542=EDGE_CURVE('',#706,#684,#864,.T.);
#543=EDGE_CURVE('',#705,#683,#865,.T.);
#544=EDGE_CURVE('',#708,#654,#866,.T.);
#545=EDGE_CURVE('',#707,#708,#867,.T.);
#546=EDGE_CURVE('',#708,#672,#868,.T.);
#547=EDGE_CURVE('',#671,#707,#869,.T.);
#548=EDGE_CURVE('',#670,#706,#870,.T.);
#549=EDGE_CURVE('',#675,#702,#871,.T.);
#550=EDGE_CURVE('',#674,#703,#872,.T.);
#551=EDGE_CURVE('',#694,#665,#873,.T.);
#552=EDGE_CURVE('',#693,#664,#874,.T.);
#553=EDGE_CURVE('',#628,#619,#875,.T.);
#554=EDGE_CURVE('',#622,#625,#876,.T.);
#555=EDGE_CURVE('',#709,#656,#877,.T.);
#556=EDGE_CURVE('',#709,#710,#878,.T.);
#557=EDGE_CURVE('',#710,#658,#879,.T.);
#558=EDGE_CURVE('',#629,#711,#880,.T.);
#559=EDGE_CURVE('',#711,#712,#881,.T.);
#560=EDGE_CURVE('',#709,#712,#882,.T.);
#561=EDGE_CURVE('',#713,#657,#883,.T.);
#562=EDGE_CURVE('',#631,#713,#884,.T.);
#563=EDGE_CURVE('',#714,#659,#885,.T.);
#564=EDGE_CURVE('',#714,#713,#886,.T.);
#565=EDGE_CURVE('',#630,#715,#887,.T.);
#566=EDGE_CURVE('',#632,#714,#888,.T.);
#567=EDGE_CURVE('',#710,#716,#889,.T.);
#568=EDGE_CURVE('',#715,#716,#890,.T.);
#569=EDGE_CURVE('',#715,#711,#891,.T.);
#570=EDGE_CURVE('',#716,#712,#892,.T.);
#571=EDGE_CURVE('',#617,#623,#893,.T.);
#572=EDGE_CURVE('',#618,#624,#894,.T.);
#573=EDGE_CURVE('',#602,#611,#895,.T.);
#574=EDGE_CURVE('',#601,#609,#896,.T.);
#575=EDGE_CURVE('',#603,#610,#897,.T.);
#576=EDGE_CURVE('',#604,#612,#898,.T.);
#577=EDGE_CURVE('',#717,#639,#899,.T.);
#578=EDGE_CURVE('',#717,#718,#900,.T.);
#579=EDGE_CURVE('',#718,#640,#901,.T.);
#580=EDGE_CURVE('',#719,#642,#902,.T.);
#581=EDGE_CURVE('',#717,#719,#903,.T.);
#582=EDGE_CURVE('',#720,#641,#904,.T.);
#583=EDGE_CURVE('',#719,#720,#905,.T.);
#584=EDGE_CURVE('',#718,#720,#906,.T.);
#585=EDGE_CURVE('',#721,#633,#907,.T.);
#586=EDGE_CURVE('',#721,#722,#908,.T.);
#587=EDGE_CURVE('',#722,#634,#909,.T.);
#588=EDGE_CURVE('',#723,#638,#910,.T.);
#589=EDGE_CURVE('',#723,#721,#911,.T.);
#590=EDGE_CURVE('',#724,#637,#912,.T.);
#591=EDGE_CURVE('',#723,#724,#913,.T.);
#592=EDGE_CURVE('',#725,#636,#914,.T.);
#593=EDGE_CURVE('',#724,#725,#915,.T.);
#594=EDGE_CURVE('',#726,#635,#916,.T.);
#595=EDGE_CURVE('',#726,#725,#917,.T.);
#596=EDGE_CURVE('',#726,#722,#918,.T.);
#597=VERTEX_POINT('',#1846);
#598=VERTEX_POINT('',#1847);
#599=VERTEX_POINT('',#1849);
#600=VERTEX_POINT('',#1851);
#601=VERTEX_POINT('',#1854);
#602=VERTEX_POINT('',#1855);
#603=VERTEX_POINT('',#1857);
#604=VERTEX_POINT('',#1859);
#605=VERTEX_POINT('',#1863);
#606=VERTEX_POINT('',#1864);
#607=VERTEX_POINT('',#1866);
#608=VERTEX_POINT('',#1868);
#609=VERTEX_POINT('',#1871);
#610=VERTEX_POINT('',#1872);
#611=VERTEX_POINT('',#1874);
#612=VERTEX_POINT('',#1876);
#613=VERTEX_POINT('',#1880);
#614=VERTEX_POINT('',#1881);
#615=VERTEX_POINT('',#1883);
#616=VERTEX_POINT('',#1885);
#617=VERTEX_POINT('',#1889);
#618=VERTEX_POINT('',#1891);
#619=VERTEX_POINT('',#1893);
#620=VERTEX_POINT('',#1895);
#621=VERTEX_POINT('',#1897);
#622=VERTEX_POINT('',#1899);
#623=VERTEX_POINT('',#1903);
#624=VERTEX_POINT('',#1904);
#625=VERTEX_POINT('',#1907);
#626=VERTEX_POINT('',#1909);
#627=VERTEX_POINT('',#1911);
#628=VERTEX_POINT('',#1913);
#629=VERTEX_POINT('',#1917);
#630=VERTEX_POINT('',#1918);
#631=VERTEX_POINT('',#1920);
#632=VERTEX_POINT('',#1922);
#633=VERTEX_POINT('',#1926);
#634=VERTEX_POINT('',#1927);
#635=VERTEX_POINT('',#1929);
#636=VERTEX_POINT('',#1931);
#637=VERTEX_POINT('',#1933);
#638=VERTEX_POINT('',#1935);
#639=VERTEX_POINT('',#1938);
#640=VERTEX_POINT('',#1939);
#641=VERTEX_POINT('',#1941);
#642=VERTEX_POINT('',#1943);
#643=VERTEX_POINT('',#1948);
#644=VERTEX_POINT('',#1949);
#645=VERTEX_POINT('',#1952);
#646=VERTEX_POINT('',#1954);
#647=VERTEX_POINT('',#1956);
#648=VERTEX_POINT('',#1958);
#649=VERTEX_POINT('',#1960);
#650=VERTEX_POINT('',#1962);
#651=VERTEX_POINT('',#1964);
#652=VERTEX_POINT('',#1966);
#653=VERTEX_POINT('',#1968);
#654=VERTEX_POINT('',#1970);
#655=VERTEX_POINT('',#1973);
#656=VERTEX_POINT('',#1975);
#657=VERTEX_POINT('',#1976);
#658=VERTEX_POINT('',#1978);
#659=VERTEX_POINT('',#1980);
#660=VERTEX_POINT('',#1984);
#661=VERTEX_POINT('',#1985);
#662=VERTEX_POINT('',#1987);
#663=VERTEX_POINT('',#1989);
#664=VERTEX_POINT('',#1993);
#665=VERTEX_POINT('',#1995);
#666=VERTEX_POINT('',#1997);
#667=VERTEX_POINT('',#2000);
#668=VERTEX_POINT('',#2002);
#669=VERTEX_POINT('',#2004);
#670=VERTEX_POINT('',#2006);
#671=VERTEX_POINT('',#2008);
#672=VERTEX_POINT('',#2010);
#673=VERTEX_POINT('',#2013);
#674=VERTEX_POINT('',#2015);
#675=VERTEX_POINT('',#2017);
#676=VERTEX_POINT('',#2019);
#677=VERTEX_POINT('',#2021);
#678=VERTEX_POINT('',#2023);
#679=VERTEX_POINT('',#2026);
#680=VERTEX_POINT('',#2028);
#681=VERTEX_POINT('',#2032);
#682=VERTEX_POINT('',#2034);
#683=VERTEX_POINT('',#2038);
#684=VERTEX_POINT('',#2039);
#685=VERTEX_POINT('',#2044);
#686=VERTEX_POINT('',#2049);
#687=VERTEX_POINT('',#2053);
#688=VERTEX_POINT('',#2054);
#689=VERTEX_POINT('',#2056);
#690=VERTEX_POINT('',#2059);
#691=VERTEX_POINT('',#2062);
#692=VERTEX_POINT('',#2064);
#693=VERTEX_POINT('',#2068);
#694=VERTEX_POINT('',#2071);
#695=VERTEX_POINT('',#2076);
#696=VERTEX_POINT('',#2082);
#697=VERTEX_POINT('',#2084);
#698=VERTEX_POINT('',#2088);
#699=VERTEX_POINT('',#2092);
#700=VERTEX_POINT('',#2099);
#701=VERTEX_POINT('',#2103);
#702=VERTEX_POINT('',#2107);
#703=VERTEX_POINT('',#2109);
#704=VERTEX_POINT('',#2112);
#705=VERTEX_POINT('',#2119);
#706=VERTEX_POINT('',#2123);
#707=VERTEX_POINT('',#2124);
#708=VERTEX_POINT('',#2128);
#709=VERTEX_POINT('',#2155);
#710=VERTEX_POINT('',#2157);
#711=VERTEX_POINT('',#2161);
#712=VERTEX_POINT('',#2163);
#713=VERTEX_POINT('',#2166);
#714=VERTEX_POINT('',#2170);
#715=VERTEX_POINT('',#2174);
#716=VERTEX_POINT('',#2177);
#717=VERTEX_POINT('',#2200);
#718=VERTEX_POINT('',#2202);
#719=VERTEX_POINT('',#2206);
#720=VERTEX_POINT('',#2210);
#721=VERTEX_POINT('',#2217);
#722=VERTEX_POINT('',#2219);
#723=VERTEX_POINT('',#2223);
#724=VERTEX_POINT('',#2227);
#725=VERTEX_POINT('',#2231);
#726=VERTEX_POINT('',#2235);
#727=LINE('',#1845,#919);
#728=LINE('',#1848,#920);
#729=LINE('',#1850,#921);
#730=LINE('',#1852,#922);
#731=LINE('',#1853,#923);
#732=LINE('',#1856,#924);
#733=LINE('',#1858,#925);
#734=LINE('',#1860,#926);
#735=LINE('',#1862,#927);
#736=LINE('',#1865,#928);
#737=LINE('',#1867,#929);
#738=LINE('',#1869,#930);
#739=LINE('',#1870,#931);
#740=LINE('',#1873,#932);
#741=LINE('',#1875,#933);
#742=LINE('',#1877,#934);
#743=LINE('',#1879,#935);
#744=LINE('',#1882,#936);
#745=LINE('',#1884,#937);
#746=LINE('',#1886,#938);
#747=LINE('',#1888,#939);
#748=LINE('',#1890,#940);
#749=LINE('',#1892,#941);
#750=LINE('',#1894,#942);
#751=LINE('',#1896,#943);
#752=LINE('',#1898,#944);
#753=LINE('',#1900,#945);
#754=LINE('',#1902,#946);
#755=LINE('',#1905,#947);
#756=LINE('',#1906,#948);
#757=LINE('',#1908,#949);
#758=LINE('',#1910,#950);
#759=LINE('',#1912,#951);
#760=LINE('',#1914,#952);
#761=LINE('',#1916,#953);
#762=LINE('',#1919,#954);
#763=LINE('',#1921,#955);
#764=LINE('',#1923,#956);
#765=LINE('',#1925,#957);
#766=LINE('',#1928,#958);
#767=LINE('',#1930,#959);
#768=LINE('',#1932,#960);
#769=LINE('',#1934,#961);
#770=LINE('',#1936,#962);
#771=LINE('',#1937,#963);
#772=LINE('',#1940,#964);
#773=LINE('',#1942,#965);
#774=LINE('',#1944,#966);
#775=LINE('',#1945,#967);
#776=LINE('',#1946,#968);
#777=LINE('',#1947,#969);
#778=LINE('',#1950,#970);
#779=LINE('',#1951,#971);
#780=LINE('',#1953,#972);
#781=LINE('',#1955,#973);
#782=LINE('',#1957,#974);
#783=LINE('',#1959,#975);
#784=LINE('',#1961,#976);
#785=LINE('',#1963,#977);
#786=LINE('',#1965,#978);
#787=LINE('',#1967,#979);
#788=LINE('',#1969,#980);
#789=LINE('',#1971,#981);
#790=LINE('',#1974,#982);
#791=LINE('',#1977,#983);
#792=LINE('',#1979,#984);
#793=LINE('',#1981,#985);
#794=LINE('',#1983,#986);
#795=LINE('',#1986,#987);
#796=LINE('',#1988,#988);
#797=LINE('',#1990,#989);
#798=LINE('',#1992,#990);
#799=LINE('',#1994,#991);
#800=LINE('',#1996,#992);
#801=LINE('',#1998,#993);
#802=LINE('',#1999,#994);
#803=LINE('',#2001,#995);
#804=LINE('',#2003,#996);
#805=LINE('',#2005,#997);
#806=LINE('',#2007,#998);
#807=LINE('',#2009,#999);
#808=LINE('',#2011,#1000);
#809=LINE('',#2012,#1001);
#810=LINE('',#2014,#1002);
#811=LINE('',#2016,#1003);
#812=LINE('',#2018,#1004);
#813=LINE('',#2020,#1005);
#814=LINE('',#2022,#1006);
#815=LINE('',#2024,#1007);
#816=LINE('',#2025,#1008);
#817=LINE('',#2027,#1009);
#818=LINE('',#2029,#1010);
#819=LINE('',#2031,#1011);
#820=LINE('',#2033,#1012);
#821=LINE('',#2035,#1013);
#822=LINE('',#2037,#1014);
#823=LINE('',#2040,#1015);
#824=LINE('',#2041,#1016);
#825=LINE('',#2043,#1017);
#826=LINE('',#2045,#1018);
#827=LINE('',#2046,#1019);
#828=LINE('',#2048,#1020);
#829=LINE('',#2050,#1021);
#830=LINE('',#2052,#1022);
#831=LINE('',#2055,#1023);
#832=LINE('',#2057,#1024);
#833=LINE('',#2058,#1025);
#834=LINE('',#2060,#1026);
#835=LINE('',#2061,#1027);
#836=LINE('',#2063,#1028);
#837=LINE('',#2065,#1029);
#838=LINE('',#2067,#1030);
#839=LINE('',#2069,#1031);
#840=LINE('',#2070,#1032);
#841=LINE('',#2072,#1033);
#842=LINE('',#2075,#1034);
#843=LINE('',#2077,#1035);
#844=LINE('',#2079,#1036);
#845=LINE('',#2081,#1037);
#846=LINE('',#2083,#1038);
#847=LINE('',#2085,#1039);
#848=LINE('',#2087,#1040);
#849=LINE('',#2089,#1041);
#850=LINE('',#2091,#1042);
#851=LINE('',#2093,#1043);
#852=LINE('',#2095,#1044);
#853=LINE('',#2102,#1045);
#854=LINE('',#2104,#1046);
#855=LINE('',#2106,#1047);
#856=LINE('',#2108,#1048);
#857=LINE('',#2110,#1049);
#858=LINE('',#2111,#1050);
#859=LINE('',#2113,#1051);
#860=LINE('',#2115,#1052);
#861=LINE('',#2118,#1053);
#862=LINE('',#2120,#1054);
#863=LINE('',#2122,#1055);
#864=LINE('',#2125,#1056);
#865=LINE('',#2126,#1057);
#866=LINE('',#2127,#1058);
#867=LINE('',#2129,#1059);
#868=LINE('',#2131,#1060);
#869=LINE('',#2134,#1061);
#870=LINE('',#2136,#1062);
#871=LINE('',#2139,#1063);
#872=LINE('',#2141,#1064);
#873=LINE('',#2144,#1065);
#874=LINE('',#2145,#1066);
#875=LINE('',#2149,#1067);
#876=LINE('',#2151,#1068);
#877=LINE('',#2154,#1069);
#878=LINE('',#2156,#1070);
#879=LINE('',#2158,#1071);
#880=LINE('',#2160,#1072);
#881=LINE('',#2162,#1073);
#882=LINE('',#2164,#1074);
#883=LINE('',#2165,#1075);
#884=LINE('',#2167,#1076);
#885=LINE('',#2169,#1077);
#886=LINE('',#2171,#1078);
#887=LINE('',#2173,#1079);
#888=LINE('',#2175,#1080);
#889=LINE('',#2176,#1081);
#890=LINE('',#2178,#1082);
#891=LINE('',#2181,#1083);
#892=LINE('',#2182,#1084);
#893=LINE('',#2186,#1085);
#894=LINE('',#2188,#1086);
#895=LINE('',#2191,#1087);
#896=LINE('',#2192,#1088);
#897=LINE('',#2194,#1089);
#898=LINE('',#2196,#1090);
#899=LINE('',#2199,#1091);
#900=LINE('',#2201,#1092);
#901=LINE('',#2203,#1093);
#902=LINE('',#2205,#1094);
#903=LINE('',#2207,#1095);
#904=LINE('',#2209,#1096);
#905=LINE('',#2211,#1097);
#906=LINE('',#2213,#1098);
#907=LINE('',#2216,#1099);
#908=LINE('',#2218,#1100);
#909=LINE('',#2220,#1101);
#910=LINE('',#2222,#1102);
#911=LINE('',#2224,#1103);
#912=LINE('',#2226,#1104);
#913=LINE('',#2228,#1105);
#914=LINE('',#2230,#1106);
#915=LINE('',#2232,#1107);
#916=LINE('',#2234,#1108);
#917=LINE('',#2236,#1109);
#918=LINE('',#2238,#1110);
#919=VECTOR('',#1505,1.);
#920=VECTOR('',#1506,1.);
#921=VECTOR('',#1507,1.);
#922=VECTOR('',#1508,1.);
#923=VECTOR('',#1509,1.);
#924=VECTOR('',#1510,1.);
#925=VECTOR('',#1511,1.);
#926=VECTOR('',#1512,1.);
#927=VECTOR('',#1515,1.);
#928=VECTOR('',#1516,1.);
#929=VECTOR('',#1517,1.);
#930=VECTOR('',#1518,1.);
#931=VECTOR('',#1519,1.);
#932=VECTOR('',#1520,1.);
#933=VECTOR('',#1521,1.);
#934=VECTOR('',#1522,1.);
#935=VECTOR('',#1525,1.);
#936=VECTOR('',#1526,1.);
#937=VECTOR('',#1527,1.);
#938=VECTOR('',#1528,1.);
#939=VECTOR('',#1531,1.);
#940=VECTOR('',#1532,1.);
#941=VECTOR('',#1533,1.);
#942=VECTOR('',#1534,1.);
#943=VECTOR('',#1535,1.);
#944=VECTOR('',#1536,1.);
#945=VECTOR('',#1537,1.);
#946=VECTOR('',#1540,1.);
#947=VECTOR('',#1541,1.);
#948=VECTOR('',#1542,1.);
#949=VECTOR('',#1543,1.);
#950=VECTOR('',#1544,1.);
#951=VECTOR('',#1545,1.);
#952=VECTOR('',#1546,1.);
#953=VECTOR('',#1549,1.);
#954=VECTOR('',#1550,1.);
#955=VECTOR('',#1551,1.);
#956=VECTOR('',#1552,1.);
#957=VECTOR('',#1555,1.);
#958=VECTOR('',#1556,1.);
#959=VECTOR('',#1557,1.);
#960=VECTOR('',#1558,1.);
#961=VECTOR('',#1559,1.);
#962=VECTOR('',#1560,1.);
#963=VECTOR('',#1561,1.);
#964=VECTOR('',#1562,1.);
#965=VECTOR('',#1563,1.);
#966=VECTOR('',#1564,1.);
#967=VECTOR('',#1565,1.);
#968=VECTOR('',#1566,1.);
#969=VECTOR('',#1567,1.);
#970=VECTOR('',#1568,1.);
#971=VECTOR('',#1569,1.);
#972=VECTOR('',#1570,1.);
#973=VECTOR('',#1571,1.);
#974=VECTOR('',#1572,1.);
#975=VECTOR('',#1573,1.);
#976=VECTOR('',#1574,1.);
#977=VECTOR('',#1575,1.);
#978=VECTOR('',#1576,1.);
#979=VECTOR('',#1577,1.);
#980=VECTOR('',#1578,1.);
#981=VECTOR('',#1579,1.);
#982=VECTOR('',#1582,1.);
#983=VECTOR('',#1583,1.);
#984=VECTOR('',#1584,1.);
#985=VECTOR('',#1585,1.);
#986=VECTOR('',#1588,1.);
#987=VECTOR('',#1589,1.);
#988=VECTOR('',#1590,1.);
#989=VECTOR('',#1591,1.);
#990=VECTOR('',#1594,1.);
#991=VECTOR('',#1595,1.);
#992=VECTOR('',#1596,1.);
#993=VECTOR('',#1597,1.);
#994=VECTOR('',#1598,1.);
#995=VECTOR('',#1599,1.);
#996=VECTOR('',#1600,1.);
#997=VECTOR('',#1601,1.);
#998=VECTOR('',#1602,1.);
#999=VECTOR('',#1603,1.);
#1000=VECTOR('',#1604,1.);
#1001=VECTOR('',#1605,1.);
#1002=VECTOR('',#1606,1.);
#1003=VECTOR('',#1607,1.);
#1004=VECTOR('',#1608,1.);
#1005=VECTOR('',#1609,1.);
#1006=VECTOR('',#1610,1.);
#1007=VECTOR('',#1611,1.);
#1008=VECTOR('',#1612,1.);
#1009=VECTOR('',#1613,1.);
#1010=VECTOR('',#1614,1.);
#1011=VECTOR('',#1617,1.);
#1012=VECTOR('',#1618,1.);
#1013=VECTOR('',#1619,1.);
#1014=VECTOR('',#1622,1.);
#1015=VECTOR('',#1623,1.);
#1016=VECTOR('',#1624,1.);
#1017=VECTOR('',#1627,1.);
#1018=VECTOR('',#1628,1.);
#1019=VECTOR('',#1629,1.);
#1020=VECTOR('',#1632,1.);
#1021=VECTOR('',#1633,1.);
#1022=VECTOR('',#1636,1.);
#1023=VECTOR('',#1637,1.);
#1024=VECTOR('',#1638,1.);
#1025=VECTOR('',#1639,1.);
#1026=VECTOR('',#1640,1.);
#1027=VECTOR('',#1641,1.);
#1028=VECTOR('',#1642,1.);
#1029=VECTOR('',#1643,1.);
#1030=VECTOR('',#1646,1.);
#1031=VECTOR('',#1647,1.);
#1032=VECTOR('',#1648,1.);
#1033=VECTOR('',#1649,1.);
#1034=VECTOR('',#1654,1.);
#1035=VECTOR('',#1655,1.);
#1036=VECTOR('',#1658,1.);
#1037=VECTOR('',#1661,1.);
#1038=VECTOR('',#1662,1.);
#1039=VECTOR('',#1663,1.);
#1040=VECTOR('',#1666,1.);
#1041=VECTOR('',#1667,1.);
#1042=VECTOR('',#1670,1.);
#1043=VECTOR('',#1671,1.);
#1044=VECTOR('',#1674,1.);
#1045=VECTOR('',#1685,1.);
#1046=VECTOR('',#1686,1.);
#1047=VECTOR('',#1689,1.);
#1048=VECTOR('',#1690,1.);
#1049=VECTOR('',#1691,1.);
#1050=VECTOR('',#1692,1.);
#1051=VECTOR('',#1693,1.);
#1052=VECTOR('',#1696,1.);
#1053=VECTOR('',#1701,1.);
#1054=VECTOR('',#1702,1.);
#1055=VECTOR('',#1705,1.);
#1056=VECTOR('',#1706,1.);
#1057=VECTOR('',#1707,1.);
#1058=VECTOR('',#1708,1.);
#1059=VECTOR('',#1709,1.);
#1060=VECTOR('',#1712,1.);
#1061=VECTOR('',#1717,1.);
#1062=VECTOR('',#1720,1.);
#1063=VECTOR('',#1725,1.);
#1064=VECTOR('',#1728,1.);
#1065=VECTOR('',#1733,1.);
#1066=VECTOR('',#1734,1.);
#1067=VECTOR('',#1741,1.);
#1068=VECTOR('',#1744,1.);
#1069=VECTOR('',#1749,1.);
#1070=VECTOR('',#1750,1.);
#1071=VECTOR('',#1751,1.);
#1072=VECTOR('',#1754,1.);
#1073=VECTOR('',#1755,1.);
#1074=VECTOR('',#1756,1.);
#1075=VECTOR('',#1757,1.);
#1076=VECTOR('',#1758,1.);
#1077=VECTOR('',#1761,1.);
#1078=VECTOR('',#1762,1.);
#1079=VECTOR('',#1765,1.);
#1080=VECTOR('',#1766,1.);
#1081=VECTOR('',#1767,1.);
#1082=VECTOR('',#1768,1.);
#1083=VECTOR('',#1773,1.);
#1084=VECTOR('',#1774,1.);
#1085=VECTOR('',#1781,1.);
#1086=VECTOR('',#1784,1.);
#1087=VECTOR('',#1789,1.);
#1088=VECTOR('',#1790,1.);
#1089=VECTOR('',#1793,1.);
#1090=VECTOR('',#1796,1.);
#1091=VECTOR('',#1801,1.);
#1092=VECTOR('',#1802,1.);
#1093=VECTOR('',#1803,1.);
#1094=VECTOR('',#1806,1.);
#1095=VECTOR('',#1807,1.);
#1096=VECTOR('',#1810,1.);
#1097=VECTOR('',#1811,1.);
#1098=VECTOR('',#1814,1.);
#1099=VECTOR('',#1819,1.);
#1100=VECTOR('',#1820,1.);
#1101=VECTOR('',#1821,1.);
#1102=VECTOR('',#1824,1.);
#1103=VECTOR('',#1825,1.);
#1104=VECTOR('',#1828,1.);
#1105=VECTOR('',#1829,1.);
#1106=VECTOR('',#1832,1.);
#1107=VECTOR('',#1833,1.);
#1108=VECTOR('',#1836,1.);
#1109=VECTOR('',#1837,1.);
#1110=VECTOR('',#1840,1.);
#1111=EDGE_LOOP('',(#15,#16,#17,#18));
#1112=EDGE_LOOP('',(#19,#20,#21,#22));
#1113=EDGE_LOOP('',(#23,#24,#25,#26));
#1114=EDGE_LOOP('',(#27,#28,#29,#30));
#1115=EDGE_LOOP('',(#31,#32,#33,#34));
#1116=EDGE_LOOP('',(#35,#36,#37,#38,#39,#40,#41,#42));
#1117=EDGE_LOOP('',(#43,#44,#45,#46,#47,#48,#49,#50));
#1118=EDGE_LOOP('',(#51,#52,#53,#54));
#1119=EDGE_LOOP('',(#55,#56,#57,#58,#59,#60));
#1120=EDGE_LOOP('',(#61,#62,#63,#64));
#1121=EDGE_LOOP('',(#65,#66,#67,#68));
#1122=EDGE_LOOP('',(#69,#70,#71,#72,#73,#74,#75,#76,#77,#78,#79,#80,#81,
#82));
#1123=EDGE_LOOP('',(#83));
#1124=EDGE_LOOP('',(#84,#85,#86,#87));
#1125=EDGE_LOOP('',(#88,#89,#90,#91));
#1126=EDGE_LOOP('',(#92,#93,#94,#95,#96,#97,#98,#99,#100,#101,#102,#103,
#104,#105,#106,#107,#108,#109,#110,#111,#112,#113,#114,#115,#116,#117));
#1127=EDGE_LOOP('',(#118,#119,#120,#121));
#1128=EDGE_LOOP('',(#122,#123,#124,#125));
#1129=EDGE_LOOP('',(#126,#127,#128,#129,#130,#131));
#1130=EDGE_LOOP('',(#132,#133,#134,#135,#136,#137));
#1131=EDGE_LOOP('',(#138,#139,#140,#141,#142,#143,#144,#145,#146,#147,#148,
#149));
#1132=EDGE_LOOP('',(#150,#151,#152,#153,#154,#155,#156,#157));
#1133=EDGE_LOOP('',(#158,#159,#160,#161));
#1134=EDGE_LOOP('',(#162,#163,#164,#165));
#1135=EDGE_LOOP('',(#166,#167,#168,#169));
#1136=EDGE_LOOP('',(#170,#171,#172,#173,#174,#175,#176,#177));
#1137=EDGE_LOOP('',(#178,#179,#180,#181));
#1138=EDGE_LOOP('',(#182,#183,#184,#185));
#1139=EDGE_LOOP('',(#186,#187,#188,#189));
#1140=EDGE_LOOP('',(#190,#191,#192,#193));
#1141=EDGE_LOOP('',(#194));
#1142=EDGE_LOOP('',(#195));
#1143=EDGE_LOOP('',(#196));
#1144=EDGE_LOOP('',(#197,#198,#199,#200));
#1145=EDGE_LOOP('',(#201,#202,#203,#204,#205,#206,#207,#208));
#1146=EDGE_LOOP('',(#209,#210,#211,#212));
#1147=EDGE_LOOP('',(#213,#214,#215,#216));
#1148=EDGE_LOOP('',(#217,#218,#219,#220));
#1149=EDGE_LOOP('',(#221,#222,#223,#224,#225,#226,#227,#228));
#1150=EDGE_LOOP('',(#229,#230,#231,#232));
#1151=EDGE_LOOP('',(#233,#234,#235,#236));
#1152=EDGE_LOOP('',(#237,#238,#239,#240));
#1153=EDGE_LOOP('',(#241,#242,#243,#244));
#1154=EDGE_LOOP('',(#245,#246,#247,#248));
#1155=EDGE_LOOP('',(#249,#250,#251,#252));
#1156=EDGE_LOOP('',(#253,#254,#255,#256));
#1157=EDGE_LOOP('',(#257,#258,#259,#260));
#1158=EDGE_LOOP('',(#261,#262,#263,#264));
#1159=EDGE_LOOP('',(#265,#266,#267,#268));
#1160=EDGE_LOOP('',(#269,#270,#271,#272));
#1161=EDGE_LOOP('',(#273,#274,#275,#276));
#1162=EDGE_LOOP('',(#277,#278,#279,#280));
#1163=EDGE_LOOP('',(#281,#282,#283,#284));
#1164=EDGE_LOOP('',(#285,#286,#287,#288));
#1165=EDGE_LOOP('',(#289,#290,#291,#292,#293,#294,#295,#296));
#1166=EDGE_LOOP('',(#297,#298,#299,#300));
#1167=EDGE_LOOP('',(#301,#302,#303,#304,#305,#306,#307,#308));
#1168=EDGE_LOOP('',(#309,#310,#311,#312));
#1169=EDGE_LOOP('',(#313,#314,#315,#316));
#1170=EDGE_LOOP('',(#317,#318,#319,#320));
#1171=EDGE_LOOP('',(#321,#322,#323,#324));
#1172=EDGE_LOOP('',(#325,#326,#327,#328));
#1173=EDGE_LOOP('',(#329,#330,#331,#332));
#1174=EDGE_LOOP('',(#333,#334,#335,#336));
#1175=EDGE_LOOP('',(#337,#338,#339,#340));
#1176=EDGE_LOOP('',(#341,#342,#343,#344));
#1177=EDGE_LOOP('',(#345,#346,#347,#348));
#1178=EDGE_LOOP('',(#349,#350,#351,#352));
#1179=EDGE_LOOP('',(#353,#354,#355,#356));
#1180=EDGE_LOOP('',(#357,#358,#359,#360));
#1181=EDGE_LOOP('',(#361,#362,#363,#364));
#1182=EDGE_LOOP('',(#365,#366,#367,#368));
#1183=EDGE_LOOP('',(#369,#370,#371,#372));
#1184=EDGE_LOOP('',(#373,#374,#375,#376));
#1185=EDGE_LOOP('',(#377,#378,#379,#380));
#1186=EDGE_LOOP('',(#381,#382,#383,#384));
#1187=EDGE_LOOP('',(#385,#386,#387,#388));
#1188=EDGE_LOOP('',(#389,#390,#391,#392));
#1189=EDGE_LOOP('',(#393,#394,#395,#396));
#1190=EDGE_LOOP('',(#397,#398,#399,#400,#401,#402));
#1191=FACE_BOUND('',#1111,.T.);
#1192=FACE_BOUND('',#1112,.T.);
#1193=FACE_BOUND('',#1113,.T.);
#1194=FACE_BOUND('',#1114,.T.);
#1195=FACE_BOUND('',#1115,.T.);
#1196=FACE_BOUND('',#1116,.T.);
#1197=FACE_BOUND('',#1117,.T.);
#1198=FACE_BOUND('',#1118,.T.);
#1199=FACE_BOUND('',#1119,.T.);
#1200=FACE_BOUND('',#1120,.T.);
#1201=FACE_BOUND('',#1121,.T.);
#1202=FACE_BOUND('',#1122,.T.);
#1203=FACE_BOUND('',#1123,.T.);
#1204=FACE_BOUND('',#1124,.T.);
#1205=FACE_BOUND('',#1125,.T.);
#1206=FACE_BOUND('',#1126,.T.);
#1207=FACE_BOUND('',#1127,.T.);
#1208=FACE_BOUND('',#1128,.T.);
#1209=FACE_BOUND('',#1129,.T.);
#1210=FACE_BOUND('',#1130,.T.);
#1211=FACE_BOUND('',#1131,.T.);
#1212=FACE_BOUND('',#1132,.T.);
#1213=FACE_BOUND('',#1133,.T.);
#1214=FACE_BOUND('',#1134,.T.);
#1215=FACE_BOUND('',#1135,.T.);
#1216=FACE_BOUND('',#1136,.T.);
#1217=FACE_BOUND('',#1137,.T.);
#1218=FACE_BOUND('',#1138,.T.);
#1219=FACE_BOUND('',#1139,.T.);
#1220=FACE_BOUND('',#1140,.T.);
#1221=FACE_BOUND('',#1141,.T.);
#1222=FACE_BOUND('',#1142,.T.);
#1223=FACE_BOUND('',#1143,.T.);
#1224=FACE_BOUND('',#1144,.T.);
#1225=FACE_BOUND('',#1145,.T.);
#1226=FACE_BOUND('',#1146,.T.);
#1227=FACE_BOUND('',#1147,.T.);
#1228=FACE_BOUND('',#1148,.T.);
#1229=FACE_BOUND('',#1149,.T.);
#1230=FACE_BOUND('',#1150,.T.);
#1231=FACE_BOUND('',#1151,.T.);
#1232=FACE_BOUND('',#1152,.T.);
#1233=FACE_BOUND('',#1153,.T.);
#1234=FACE_BOUND('',#1154,.T.);
#1235=FACE_BOUND('',#1155,.T.);
#1236=FACE_BOUND('',#1156,.T.);
#1237=FACE_BOUND('',#1157,.T.);
#1238=FACE_BOUND('',#1158,.T.);
#1239=FACE_BOUND('',#1159,.T.);
#1240=FACE_BOUND('',#1160,.T.);
#1241=FACE_BOUND('',#1161,.T.);
#1242=FACE_BOUND('',#1162,.T.);
#1243=FACE_BOUND('',#1163,.T.);
#1244=FACE_BOUND('',#1164,.T.);
#1245=FACE_BOUND('',#1165,.T.);
#1246=FACE_BOUND('',#1166,.T.);
#1247=FACE_BOUND('',#1167,.T.);
#1248=FACE_BOUND('',#1168,.T.);
#1249=FACE_BOUND('',#1169,.T.);
#1250=FACE_BOUND('',#1170,.T.);
#1251=FACE_BOUND('',#1171,.T.);
#1252=FACE_BOUND('',#1172,.T.);
#1253=FACE_BOUND('',#1173,.T.);
#1254=FACE_BOUND('',#1174,.T.);
#1255=FACE_BOUND('',#1175,.T.);
#1256=FACE_BOUND('',#1176,.T.);
#1257=FACE_BOUND('',#1177,.T.);
#1258=FACE_BOUND('',#1178,.T.);
#1259=FACE_BOUND('',#1179,.T.);
#1260=FACE_BOUND('',#1180,.T.);
#1261=FACE_BOUND('',#1181,.T.);
#1262=FACE_BOUND('',#1182,.T.);
#1263=FACE_BOUND('',#1183,.T.);
#1264=FACE_BOUND('',#1184,.T.);
#1265=FACE_BOUND('',#1185,.T.);
#1266=FACE_BOUND('',#1186,.T.);
#1267=FACE_BOUND('',#1187,.T.);
#1268=FACE_BOUND('',#1188,.T.);
#1269=FACE_BOUND('',#1189,.T.);
#1270=FACE_BOUND('',#1190,.T.);
#1271=PLANE('',#1427);
#1272=PLANE('',#1428);
#1273=PLANE('',#1429);
#1274=PLANE('',#1430);
#1275=PLANE('',#1431);
#1276=PLANE('',#1432);
#1277=PLANE('',#1433);
#1278=PLANE('',#1435);
#1279=PLANE('',#1436);
#1280=PLANE('',#1437);
#1281=PLANE('',#1438);
#1282=PLANE('',#1439);
#1283=PLANE('',#1440);
#1284=PLANE('',#1441);
#1285=PLANE('',#1442);
#1286=PLANE('',#1443);
#1287=PLANE('',#1444);
#1288=PLANE('',#1445);
#1289=PLANE('',#1446);
#1290=PLANE('',#1447);
#1291=PLANE('',#1448);
#1292=PLANE('',#1449);
#1293=PLANE('',#1450);
#1294=PLANE('',#1453);
#1295=PLANE('',#1454);
#1296=PLANE('',#1455);
#1297=PLANE('',#1456);
#1298=PLANE('',#1457);
#1299=PLANE('',#1458);
#1300=PLANE('',#1459);
#1301=PLANE('',#1460);
#1302=PLANE('',#1461);
#1303=PLANE('',#1462);
#1304=PLANE('',#1463);
#1305=PLANE('',#1464);
#1306=PLANE('',#1465);
#1307=PLANE('',#1466);
#1308=PLANE('',#1467);
#1309=PLANE('',#1468);
#1310=PLANE('',#1469);
#1311=PLANE('',#1470);
#1312=PLANE('',#1471);
#1313=PLANE('',#1472);
#1314=PLANE('',#1473);
#1315=PLANE('',#1474);
#1316=PLANE('',#1475);
#1317=PLANE('',#1476);
#1318=PLANE('',#1477);
#1319=PLANE('',#1478);
#1320=PLANE('',#1479);
#1321=PLANE('',#1480);
#1322=PLANE('',#1481);
#1323=PLANE('',#1482);
#1324=PLANE('',#1483);
#1325=PLANE('',#1484);
#1326=PLANE('',#1485);
#1327=PLANE('',#1486);
#1328=PLANE('',#1487);
#1329=PLANE('',#1488);
#1330=PLANE('',#1489);
#1331=PLANE('',#1490);
#1332=PLANE('',#1491);
#1333=PLANE('',#1492);
#1334=PLANE('',#1493);
#1335=PLANE('',#1494);
#1336=PLANE('',#1495);
#1337=PLANE('',#1496);
#1338=PLANE('',#1497);
#1339=PLANE('',#1498);
#1340=PLANE('',#1499);
#1341=PLANE('',#1500);
#1342=ADVANCED_FACE('',(#1191,#1192),#1271,.F.);
#1343=ADVANCED_FACE('',(#1193,#1194),#1272,.T.);
#1344=ADVANCED_FACE('',(#1195),#1273,.T.);
#1345=ADVANCED_FACE('',(#1196),#1274,.F.);
#1346=ADVANCED_FACE('',(#1197),#1275,.T.);
#1347=ADVANCED_FACE('',(#1198),#1276,.F.);
#1348=ADVANCED_FACE('',(#1199,#1200,#1201,#1202,#1203,#1204),#1277,.T.);
#1349=ADVANCED_FACE('',(#1205),#1278,.T.);
#1350=ADVANCED_FACE('',(#1206),#1279,.F.);
#1351=ADVANCED_FACE('',(#1207),#1280,.F.);
#1352=ADVANCED_FACE('',(#1208),#1281,.T.);
#1353=ADVANCED_FACE('',(#1209),#1282,.T.);
#1354=ADVANCED_FACE('',(#1210),#1283,.F.);
#1355=ADVANCED_FACE('',(#1211),#1284,.T.);
#1356=ADVANCED_FACE('',(#1212),#1285,.T.);
#1357=ADVANCED_FACE('',(#1213),#1286,.F.);
#1358=ADVANCED_FACE('',(#1214),#1287,.F.);
#1359=ADVANCED_FACE('',(#1215),#1288,.F.);
#1360=ADVANCED_FACE('',(#1216),#1289,.T.);
#1361=ADVANCED_FACE('',(#1217),#1290,.T.);
#1362=ADVANCED_FACE('',(#1218),#1291,.F.);
#1363=ADVANCED_FACE('',(#1219),#1292,.T.);
#1364=ADVANCED_FACE('',(#1220),#1293,.F.);
#1365=ADVANCED_FACE('',(#1221,#1222),#12,.T.);
#1366=ADVANCED_FACE('',(#1223),#1294,.T.);
#1367=ADVANCED_FACE('',(#1224),#1295,.F.);
#1368=ADVANCED_FACE('',(#1225),#1296,.F.);
#1369=ADVANCED_FACE('',(#1226),#1297,.T.);
#1370=ADVANCED_FACE('',(#1227),#1298,.T.);
#1371=ADVANCED_FACE('',(#1228),#1299,.F.);
#1372=ADVANCED_FACE('',(#1229),#1300,.F.);
#1373=ADVANCED_FACE('',(#1230),#1301,.T.);
#1374=ADVANCED_FACE('',(#1231),#1302,.T.);
#1375=ADVANCED_FACE('',(#1232),#1303,.F.);
#1376=ADVANCED_FACE('',(#1233),#1304,.T.);
#1377=ADVANCED_FACE('',(#1234),#1305,.F.);
#1378=ADVANCED_FACE('',(#1235),#1306,.T.);
#1379=ADVANCED_FACE('',(#1236),#1307,.F.);
#1380=ADVANCED_FACE('',(#1237),#1308,.T.);
#1381=ADVANCED_FACE('',(#1238),#1309,.F.);
#1382=ADVANCED_FACE('',(#1239),#1310,.F.);
#1383=ADVANCED_FACE('',(#1240),#1311,.T.);
#1384=ADVANCED_FACE('',(#1241),#1312,.T.);
#1385=ADVANCED_FACE('',(#1242),#1313,.F.);
#1386=ADVANCED_FACE('',(#1243),#1314,.T.);
#1387=ADVANCED_FACE('',(#1244),#1315,.F.);
#1388=ADVANCED_FACE('',(#1245),#1316,.F.);
#1389=ADVANCED_FACE('',(#1246),#1317,.T.);
#1390=ADVANCED_FACE('',(#1247),#1318,.T.);
#1391=ADVANCED_FACE('',(#1248),#1319,.T.);
#1392=ADVANCED_FACE('',(#1249),#1320,.T.);
#1393=ADVANCED_FACE('',(#1250),#1321,.F.);
#1394=ADVANCED_FACE('',(#1251),#1322,.T.);
#1395=ADVANCED_FACE('',(#1252),#1323,.T.);
#1396=ADVANCED_FACE('',(#1253),#1324,.F.);
#1397=ADVANCED_FACE('',(#1254),#1325,.F.);
#1398=ADVANCED_FACE('',(#1255),#1326,.T.);
#1399=ADVANCED_FACE('',(#1256),#1327,.F.);
#1400=ADVANCED_FACE('',(#1257),#1328,.F.);
#1401=ADVANCED_FACE('',(#1258),#1329,.T.);
#1402=ADVANCED_FACE('',(#1259),#1330,.T.);
#1403=ADVANCED_FACE('',(#1260),#1331,.F.);
#1404=ADVANCED_FACE('',(#1261),#1332,.F.);
#1405=ADVANCED_FACE('',(#1262),#1333,.T.);
#1406=ADVANCED_FACE('',(#1263),#1334,.T.);
#1407=ADVANCED_FACE('',(#1264),#1335,.T.);
#1408=ADVANCED_FACE('',(#1265),#1336,.T.);
#1409=ADVANCED_FACE('',(#1266),#1337,.F.);
#1410=ADVANCED_FACE('',(#1267),#1338,.F.);
#1411=ADVANCED_FACE('',(#1268),#1339,.T.);
#1412=ADVANCED_FACE('',(#1269),#1340,.F.);
#1413=ADVANCED_FACE('',(#1270),#1341,.T.);
#1414=CLOSED_SHELL('',(#1342,#1343,#1344,#1345,#1346,#1347,#1348,#1349,
#1350,#1351,#1352,#1353,#1354,#1355,#1356,#1357,#1358,#1359,#1360,#1361,
#1362,#1363,#1364,#1365,#1366,#1367,#1368,#1369,#1370,#1371,#1372,#1373,
#1374,#1375,#1376,#1377,#1378,#1379,#1380,#1381,#1382,#1383,#1384,#1385,
#1386,#1387,#1388,#1389,#1390,#1391,#1392,#1393,#1394,#1395,#1396,#1397,
#1398,#1399,#1400,#1401,#1402,#1403,#1404,#1405,#1406,#1407,#1408,#1409,
#1410,#1411,#1412,#1413));
#1415=STYLED_ITEM('',(#1416),#1423);
#1416=PRESENTATION_STYLE_ASSIGNMENT((#1417));
#1417=SURFACE_STYLE_USAGE(.BOTH.,#1418);
#1418=SURFACE_SIDE_STYLE('',(#1419));
#1419=SURFACE_STYLE_FILL_AREA(#1420);
#1420=FILL_AREA_STYLE('',(#1421));
#1421=FILL_AREA_STYLE_COLOUR('',#1422);
#1422=COLOUR_RGB('',0.647058823529412,0.647058823529412,0.647058823529412);
#1423=MANIFOLD_SOLID_BREP('BMat1',#1414);
#1424=SHAPE_DEFINITION_REPRESENTATION(#2246,#1425);
#1425=SHAPE_REPRESENTATION('BMat1',(#1426),#2241);
#1426=AXIS2_PLACEMENT_3D('',#1843,#1501,#1502);
#1427=AXIS2_PLACEMENT_3D('',#1844,#1503,#1504);
#1428=AXIS2_PLACEMENT_3D('',#1861,#1513,#1514);
#1429=AXIS2_PLACEMENT_3D('',#1878,#1523,#1524);
#1430=AXIS2_PLACEMENT_3D('',#1887,#1529,#1530);
#1431=AXIS2_PLACEMENT_3D('',#1901,#1538,#1539);
#1432=AXIS2_PLACEMENT_3D('',#1915,#1547,#1548);
#1433=AXIS2_PLACEMENT_3D('',#1924,#1553,#1554);
#1434=AXIS2_PLACEMENT_3D('',#1972,#1580,#1581);
#1435=AXIS2_PLACEMENT_3D('',#1982,#1586,#1587);
#1436=AXIS2_PLACEMENT_3D('',#1991,#1592,#1593);
#1437=AXIS2_PLACEMENT_3D('',#2030,#1615,#1616);
#1438=AXIS2_PLACEMENT_3D('',#2036,#1620,#1621);
#1439=AXIS2_PLACEMENT_3D('',#2042,#1625,#1626);
#1440=AXIS2_PLACEMENT_3D('',#2047,#1630,#1631);
#1441=AXIS2_PLACEMENT_3D('',#2051,#1634,#1635);
#1442=AXIS2_PLACEMENT_3D('',#2066,#1644,#1645);
#1443=AXIS2_PLACEMENT_3D('',#2073,#1650,#1651);
#1444=AXIS2_PLACEMENT_3D('',#2074,#1652,#1653);
#1445=AXIS2_PLACEMENT_3D('',#2078,#1656,#1657);
#1446=AXIS2_PLACEMENT_3D('',#2080,#1659,#1660);
#1447=AXIS2_PLACEMENT_3D('',#2086,#1664,#1665);
#1448=AXIS2_PLACEMENT_3D('',#2090,#1668,#1669);
#1449=AXIS2_PLACEMENT_3D('',#2094,#1672,#1673);
#1450=AXIS2_PLACEMENT_3D('',#2096,#1675,#1676);
#1451=AXIS2_PLACEMENT_3D('',#2097,#1677,#1678);
#1452=AXIS2_PLACEMENT_3D('',#2098,#1679,#1680);
#1453=AXIS2_PLACEMENT_3D('',#2100,#1681,#1682);
#1454=AXIS2_PLACEMENT_3D('',#2101,#1683,#1684);
#1455=AXIS2_PLACEMENT_3D('',#2105,#1687,#1688);
#1456=AXIS2_PLACEMENT_3D('',#2114,#1694,#1695);
#1457=AXIS2_PLACEMENT_3D('',#2116,#1697,#1698);
#1458=AXIS2_PLACEMENT_3D('',#2117,#1699,#1700);
#1459=AXIS2_PLACEMENT_3D('',#2121,#1703,#1704);
#1460=AXIS2_PLACEMENT_3D('',#2130,#1710,#1711);
#1461=AXIS2_PLACEMENT_3D('',#2132,#1713,#1714);
#1462=AXIS2_PLACEMENT_3D('',#2133,#1715,#1716);
#1463=AXIS2_PLACEMENT_3D('',#2135,#1718,#1719);
#1464=AXIS2_PLACEMENT_3D('',#2137,#1721,#1722);
#1465=AXIS2_PLACEMENT_3D('',#2138,#1723,#1724);
#1466=AXIS2_PLACEMENT_3D('',#2140,#1726,#1727);
#1467=AXIS2_PLACEMENT_3D('',#2142,#1729,#1730);
#1468=AXIS2_PLACEMENT_3D('',#2143,#1731,#1732);
#1469=AXIS2_PLACEMENT_3D('',#2146,#1735,#1736);
#1470=AXIS2_PLACEMENT_3D('',#2147,#1737,#1738);
#1471=AXIS2_PLACEMENT_3D('',#2148,#1739,#1740);
#1472=AXIS2_PLACEMENT_3D('',#2150,#1742,#1743);
#1473=AXIS2_PLACEMENT_3D('',#2152,#1745,#1746);
#1474=AXIS2_PLACEMENT_3D('',#2153,#1747,#1748);
#1475=AXIS2_PLACEMENT_3D('',#2159,#1752,#1753);
#1476=AXIS2_PLACEMENT_3D('',#2168,#1759,#1760);
#1477=AXIS2_PLACEMENT_3D('',#2172,#1763,#1764);
#1478=AXIS2_PLACEMENT_3D('',#2179,#1769,#1770);
#1479=AXIS2_PLACEMENT_3D('',#2180,#1771,#1772);
#1480=AXIS2_PLACEMENT_3D('',#2183,#1775,#1776);
#1481=AXIS2_PLACEMENT_3D('',#2184,#1777,#1778);
#1482=AXIS2_PLACEMENT_3D('',#2185,#1779,#1780);
#1483=AXIS2_PLACEMENT_3D('',#2187,#1782,#1783);
#1484=AXIS2_PLACEMENT_3D('',#2189,#1785,#1786);
#1485=AXIS2_PLACEMENT_3D('',#2190,#1787,#1788);
#1486=AXIS2_PLACEMENT_3D('',#2193,#1791,#1792);
#1487=AXIS2_PLACEMENT_3D('',#2195,#1794,#1795);
#1488=AXIS2_PLACEMENT_3D('',#2197,#1797,#1798);
#1489=AXIS2_PLACEMENT_3D('',#2198,#1799,#1800);
#1490=AXIS2_PLACEMENT_3D('',#2204,#1804,#1805);
#1491=AXIS2_PLACEMENT_3D('',#2208,#1808,#1809);
#1492=AXIS2_PLACEMENT_3D('',#2212,#1812,#1813);
#1493=AXIS2_PLACEMENT_3D('',#2214,#1815,#1816);
#1494=AXIS2_PLACEMENT_3D('',#2215,#1817,#1818);
#1495=AXIS2_PLACEMENT_3D('',#2221,#1822,#1823);
#1496=AXIS2_PLACEMENT_3D('',#2225,#1826,#1827);
#1497=AXIS2_PLACEMENT_3D('',#2229,#1830,#1831);
#1498=AXIS2_PLACEMENT_3D('',#2233,#1834,#1835);
#1499=AXIS2_PLACEMENT_3D('',#2237,#1838,#1839);
#1500=AXIS2_PLACEMENT_3D('',#2239,#1841,#1842);
#1501=DIRECTION('',(0.,0.,1.));
#1502=DIRECTION('',(1.,0.,0.));
#1503=DIRECTION('',(1.,5.55111512312579E-17,0.));
#1504=DIRECTION('',(-5.55111512312579E-17,1.,0.));
#1505=DIRECTION('',(5.55111512312579E-17,-1.,0.));
#1506=DIRECTION('',(0.,0.,-1.));
#1507=DIRECTION('',(5.55111512312579E-17,-1.,0.));
#1508=DIRECTION('',(0.,0.,-1.));
#1509=DIRECTION('',(0.,0.,1.));
#1510=DIRECTION('',(-5.55111512312579E-17,1.,2.31296463463574E-16));
#1511=DIRECTION('',(0.,0.,1.));
#1512=DIRECTION('',(-5.55111512312579E-17,1.,0.));
#1513=DIRECTION('',(1.,5.55111512312579E-17,0.));
#1514=DIRECTION('',(-5.55111512312579E-17,1.,0.));
#1515=DIRECTION('',(5.55111512312579E-17,-1.,0.));
#1516=DIRECTION('',(0.,0.,-1.));
#1517=DIRECTION('',(5.55111512312579E-17,-1.,0.));
#1518=DIRECTION('',(0.,0.,-1.));
#1519=DIRECTION('',(-5.55111512312579E-17,1.,2.31296463463574E-16));
#1520=DIRECTION('',(0.,0.,1.));
#1521=DIRECTION('',(-5.55111512312579E-17,1.,0.));
#1522=DIRECTION('',(0.,0.,1.));
#1523=DIRECTION('',(0.,1.,0.));
#1524=DIRECTION('',(0.,0.,1.));
#1525=DIRECTION('',(0.,0.,-1.));
#1526=DIRECTION('',(-1.,0.,0.));
#1527=DIRECTION('',(0.,0.,-1.));
#1528=DIRECTION('',(1.,0.,0.));
#1529=DIRECTION('',(1.,0.,0.));
#1530=DIRECTION('',(0.,0.,-1.));
#1531=DIRECTION('',(0.,1.,9.63735264431559E-17));
#1532=DIRECTION('',(0.,0.,-1.));
#1533=DIRECTION('',(0.,1.,9.63735264431559E-17));
#1534=DIRECTION('',(0.,0.,-1.));
#1535=DIRECTION('',(0.,-1.,0.));
#1536=DIRECTION('',(0.,0.,-1.));
#1537=DIRECTION('',(0.,-1.,0.));
#1538=DIRECTION('',(1.,0.,0.));
#1539=DIRECTION('',(0.,0.,-1.));
#1540=DIRECTION('',(0.,0.,-1.));
#1541=DIRECTION('',(0.,1.,9.63735264431559E-17));
#1542=DIRECTION('',(0.,-1.,0.));
#1543=DIRECTION('',(0.,0.,-1.));
#1544=DIRECTION('',(0.,-1.,0.));
#1545=DIRECTION('',(0.,0.,-1.));
#1546=DIRECTION('',(0.,1.,9.63735264431559E-17));
#1547=DIRECTION('',(0.,1.,0.));
#1548=DIRECTION('',(0.,0.,1.));
#1549=DIRECTION('',(-1.,0.,0.));
#1550=DIRECTION('',(0.,0.,-1.));
#1551=DIRECTION('',(1.,0.,0.));
#1552=DIRECTION('',(0.,0.,-1.));
#1553=DIRECTION('',(0.,0.,1.));
#1554=DIRECTION('',(1.,0.,0.));
#1555=DIRECTION('',(0.,-1.,0.));
#1556=DIRECTION('',(1.,0.,0.));
#1557=DIRECTION('',(0.,-1.,0.));
#1558=DIRECTION('',(1.,0.,0.));
#1559=DIRECTION('',(0.,-1.,0.));
#1560=DIRECTION('',(1.,0.,0.));
#1561=DIRECTION('',(0.,-1.,0.));
#1562=DIRECTION('',(-1.,0.,0.));
#1563=DIRECTION('',(0.,-1.,0.));
#1564=DIRECTION('',(-1.,0.,0.));
#1565=DIRECTION('',(1.,0.,0.));
#1566=DIRECTION('',(1.,0.,0.));
#1567=DIRECTION('',(0.,-1.,0.));
#1568=DIRECTION('',(1.,0.,0.));
#1569=DIRECTION('',(1.,0.,0.));
#1570=DIRECTION('',(5.55111512312578E-17,-1.,0.));
#1571=DIRECTION('',(1.,0.,0.));
#1572=DIRECTION('',(0.,-1.,0.));
#1573=DIRECTION('',(1.,0.,0.));
#1574=DIRECTION('',(8.06848128361306E-17,-1.,0.));
#1575=DIRECTION('',(1.,0.,0.));
#1576=DIRECTION('',(2.82396844926457E-16,-1.,0.));
#1577=DIRECTION('',(1.,0.,0.));
#1578=DIRECTION('',(0.,-1.,0.));
#1579=DIRECTION('',(1.,0.,0.));
#1580=DIRECTION('',(0.,0.,1.));
#1581=DIRECTION('',(1.,0.,0.));
#1582=DIRECTION('',(0.,1.,0.));
#1583=DIRECTION('',(1.,0.,0.));
#1584=DIRECTION('',(0.,1.,0.));
#1585=DIRECTION('',(1.,0.,0.));
#1586=DIRECTION('',(0.,0.,1.));
#1587=DIRECTION('',(1.,0.,0.));
#1588=DIRECTION('',(1.,0.,0.));
#1589=DIRECTION('',(0.,-1.,0.));
#1590=DIRECTION('',(1.,0.,0.));
#1591=DIRECTION('',(5.55111512312578E-17,-1.,0.));
#1592=DIRECTION('',(0.,1.,0.));
#1593=DIRECTION('',(0.,0.,1.));
#1594=DIRECTION('',(0.,0.,1.));
#1595=DIRECTION('',(1.,0.,0.));
#1596=DIRECTION('',(-1.44560289664734E-16,0.,1.));
#1597=DIRECTION('',(1.,0.,0.));
#1598=DIRECTION('',(0.,0.,-1.));
#1599=DIRECTION('',(1.,0.,0.));
#1600=DIRECTION('',(0.,0.,-1.));
#1601=DIRECTION('',(1.,0.,1.89794691025909E-16));
#1602=DIRECTION('',(0.,0.,-1.));
#1603=DIRECTION('',(1.,0.,1.70815221923318E-16));
#1604=DIRECTION('',(0.,0.,-1.));
#1605=DIRECTION('',(0.,0.,-1.));
#1606=DIRECTION('',(1.,0.,1.70815221923318E-16));
#1607=DIRECTION('',(0.,0.,-1.));
#1608=DIRECTION('',(1.,0.,1.89794691025909E-16));
#1609=DIRECTION('',(0.,0.,-1.));
#1610=DIRECTION('',(1.,0.,0.));
#1611=DIRECTION('',(0.,0.,-1.));
#1612=DIRECTION('',(0.,0.,-1.));
#1613=DIRECTION('',(1.,0.,0.));
#1614=DIRECTION('',(0.,0.,-1.));
#1615=DIRECTION('',(1.,2.82396844926457E-16,0.));
#1616=DIRECTION('',(-2.82396844926457E-16,1.,0.));
#1617=DIRECTION('',(-2.82396844926457E-16,1.,-5.35974219295084E-32));
#1618=DIRECTION('',(0.,0.,-1.));
#1619=DIRECTION('',(2.82396844926457E-16,-1.,0.));
#1620=DIRECTION('',(1.,0.,0.));
#1621=DIRECTION('',(0.,0.,-1.));
#1622=DIRECTION('',(0.,0.,-1.));
#1623=DIRECTION('',(0.,1.,0.));
#1624=DIRECTION('',(0.,-1.,0.));
#1625=DIRECTION('',(0.,0.,1.));
#1626=DIRECTION('',(1.,0.,0.));
#1627=DIRECTION('',(0.,-1.,0.));
#1628=DIRECTION('',(1.,0.,0.));
#1629=DIRECTION('',(1.,0.,0.));
#1630=DIRECTION('',(0.,1.,0.));
#1631=DIRECTION('',(0.,0.,1.));
#1632=DIRECTION('',(0.,0.,-1.));
#1633=DIRECTION('',(1.,0.,0.));
#1634=DIRECTION('',(1.,5.55111512312578E-17,0.));
#1635=DIRECTION('',(-5.55111512312578E-17,1.,0.));
#1636=DIRECTION('',(0.,0.,-1.));
#1637=DIRECTION('',(5.55111512312578E-17,-1.,0.));
#1638=DIRECTION('',(0.,0.,-1.));
#1639=DIRECTION('',(5.55111512312578E-17,-1.,0.));
#1640=DIRECTION('',(0.,0.,-1.));
#1641=DIRECTION('',(5.55111512312578E-17,-1.,0.));
#1642=DIRECTION('',(0.,0.,-1.));
#1643=DIRECTION('',(5.55111512312578E-17,-1.,0.));
#1644=DIRECTION('',(0.,1.,0.));
#1645=DIRECTION('',(0.,0.,1.));
#1646=DIRECTION('',(0.,0.,-1.));
#1647=DIRECTION('',(1.,0.,0.));
#1648=DIRECTION('',(1.44560289664734E-16,0.,-1.));
#1649=DIRECTION('',(-1.,0.,0.));
#1650=DIRECTION('',(0.,0.,1.));
#1651=DIRECTION('',(1.,0.,0.));
#1652=DIRECTION('',(1.,0.,0.));
#1653=DIRECTION('',(0.,0.,-1.));
#1654=DIRECTION('',(0.,0.,-1.));
#1655=DIRECTION('',(0.,-1.,0.));
#1656=DIRECTION('',(0.,1.,0.));
#1657=DIRECTION('',(0.,0.,1.));
#1658=DIRECTION('',(1.,0.,0.));
#1659=DIRECTION('',(0.,0.,1.));
#1660=DIRECTION('',(1.,0.,0.));
#1661=DIRECTION('',(1.,0.,0.));
#1662=DIRECTION('',(0.,-1.,0.));
#1663=DIRECTION('',(1.,0.,0.));
#1664=DIRECTION('',(0.,1.,0.));
#1665=DIRECTION('',(0.,0.,1.));
#1666=DIRECTION('',(1.,0.,0.));
#1667=DIRECTION('',(0.,0.,-1.));
#1668=DIRECTION('',(0.,1.,0.));
#1669=DIRECTION('',(0.,0.,1.));
#1670=DIRECTION('',(1.,0.,0.));
#1671=DIRECTION('',(0.,0.,-1.));
#1672=DIRECTION('',(1.,0.,0.));
#1673=DIRECTION('',(0.,0.,-1.));
#1674=DIRECTION('',(0.,-1.,0.));
#1675=DIRECTION('',(0.,0.,1.));
#1676=DIRECTION('',(1.,0.,0.));
#1677=DIRECTION('',(0.,0.,-1.));
#1678=DIRECTION('',(-1.,0.,0.));
#1679=DIRECTION('',(0.,0.,1.));
#1680=DIRECTION('',(1.,0.,0.));
#1681=DIRECTION('',(0.,0.,1.));
#1682=DIRECTION('',(1.,0.,0.));
#1683=DIRECTION('',(1.,2.82396844926457E-16,0.));
#1684=DIRECTION('',(-2.82396844926457E-16,1.,0.));
#1685=DIRECTION('',(0.,0.,-1.));
#1686=DIRECTION('',(-2.82396844926457E-16,1.,-4.82376797365576E-32));
#1687=DIRECTION('',(0.,1.,0.));
#1688=DIRECTION('',(0.,0.,1.));
#1689=DIRECTION('',(1.,0.,1.89794691025909E-16));
#1690=DIRECTION('',(0.,0.,-1.));
#1691=DIRECTION('',(1.,0.,1.70815221923318E-16));
#1692=DIRECTION('',(0.,0.,-1.));
#1693=DIRECTION('',(1.,0.,0.));
#1694=DIRECTION('',(1.,8.06848128361306E-17,0.));
#1695=DIRECTION('',(-8.06848128361306E-17,1.,0.));
#1696=DIRECTION('',(8.06848128361306E-17,-1.,0.));
#1697=DIRECTION('',(0.,0.,1.));
#1698=DIRECTION('',(1.,0.,0.));
#1699=DIRECTION('',(1.,0.,0.));
#1700=DIRECTION('',(0.,0.,-1.));
#1701=DIRECTION('',(0.,0.,-1.));
#1702=DIRECTION('',(0.,-1.,0.));
#1703=DIRECTION('',(0.,1.,0.));
#1704=DIRECTION('',(0.,0.,1.));
#1705=DIRECTION('',(0.,0.,-1.));
#1706=DIRECTION('',(1.,0.,1.89794691025909E-16));
#1707=DIRECTION('',(1.,0.,0.));
#1708=DIRECTION('',(0.,0.,-1.));
#1709=DIRECTION('',(1.,0.,1.70815221923318E-16));
#1710=DIRECTION('',(1.,0.,0.));
#1711=DIRECTION('',(0.,0.,-1.));
#1712=DIRECTION('',(0.,1.,0.));
#1713=DIRECTION('',(0.,0.,1.));
#1714=DIRECTION('',(1.,0.,0.));
#1715=DIRECTION('',(1.70815221923318E-16,0.,-1.));
#1716=DIRECTION('',(-1.,0.,-1.70815221923318E-16));
#1717=DIRECTION('',(0.,-1.,0.));
#1718=DIRECTION('',(1.89794691025909E-16,0.,-1.));
#1719=DIRECTION('',(-1.,0.,-1.89794691025909E-16));
#1720=DIRECTION('',(0.,-1.,0.));
#1721=DIRECTION('',(-1.,0.,0.));
#1722=DIRECTION('',(0.,0.,1.));
#1723=DIRECTION('',(1.89794691025909E-16,0.,-1.));
#1724=DIRECTION('',(-1.,0.,-1.89794691025909E-16));
#1725=DIRECTION('',(0.,-1.,0.));
#1726=DIRECTION('',(1.70815221923318E-16,0.,-1.));
#1727=DIRECTION('',(-1.,0.,-1.70815221923318E-16));
#1728=DIRECTION('',(0.,-1.,0.));
#1729=DIRECTION('',(-1.,0.,0.));
#1730=DIRECTION('',(0.,0.,1.));
#1731=DIRECTION('',(0.,0.,-1.));
#1732=DIRECTION('',(-1.,0.,0.));
#1733=DIRECTION('',(0.,-1.,0.));
#1734=DIRECTION('',(0.,-1.,0.));
#1735=DIRECTION('',(1.,0.,0.));
#1736=DIRECTION('',(0.,0.,-1.));
#1737=DIRECTION('',(1.,0.,1.44560289664734E-16));
#1738=DIRECTION('',(1.44560289664734E-16,0.,-1.));
#1739=DIRECTION('',(0.,1.,0.));
#1740=DIRECTION('',(0.,0.,1.));
#1741=DIRECTION('',(-1.,0.,0.));
#1742=DIRECTION('',(0.,1.,0.));
#1743=DIRECTION('',(0.,0.,1.));
#1744=DIRECTION('',(1.,0.,0.));
#1745=DIRECTION('',(0.,0.,1.));
#1746=DIRECTION('',(1.,0.,0.));
#1747=DIRECTION('',(0.,1.,0.));
#1748=DIRECTION('',(0.,0.,1.));
#1749=DIRECTION('',(0.,0.,-1.));
#1750=DIRECTION('',(-1.,0.,0.));
#1751=DIRECTION('',(0.,0.,-1.));
#1752=DIRECTION('',(-1.,0.,0.));
#1753=DIRECTION('',(0.,0.,1.));
#1754=DIRECTION('',(0.,1.,9.63735264431559E-17));
#1755=DIRECTION('',(0.,0.,-1.));
#1756=DIRECTION('',(0.,1.,9.63735264431559E-17));
#1757=DIRECTION('',(0.,0.,-1.));
#1758=DIRECTION('',(0.,1.,0.));
#1759=DIRECTION('',(0.,1.,0.));
#1760=DIRECTION('',(0.,0.,1.));
#1761=DIRECTION('',(0.,0.,-1.));
#1762=DIRECTION('',(1.,0.,0.));
#1763=DIRECTION('',(-1.,0.,0.));
#1764=DIRECTION('',(0.,0.,1.));
#1765=DIRECTION('',(0.,1.,9.63735264431559E-17));
#1766=DIRECTION('',(0.,1.,0.));
#1767=DIRECTION('',(0.,1.,9.63735264431559E-17));
#1768=DIRECTION('',(0.,0.,-1.));
#1769=DIRECTION('',(0.,0.,1.));
#1770=DIRECTION('',(1.,0.,0.));
#1771=DIRECTION('',(0.,-1.,0.));
#1772=DIRECTION('',(0.,0.,-1.));
#1773=DIRECTION('',(1.,0.,0.));
#1774=DIRECTION('',(1.,0.,0.));
#1775=DIRECTION('',(0.,9.63735264431559E-17,-1.));
#1776=DIRECTION('',(0.,1.,9.63735264431559E-17));
#1777=DIRECTION('',(0.,9.63735264431559E-17,-1.));
#1778=DIRECTION('',(0.,1.,9.63735264431559E-17));
#1779=DIRECTION('',(0.,9.63735264431559E-17,-1.));
#1780=DIRECTION('',(0.,1.,9.63735264431559E-17));
#1781=DIRECTION('',(1.,0.,0.));
#1782=DIRECTION('',(0.,-1.,0.));
#1783=DIRECTION('',(0.,0.,-1.));
#1784=DIRECTION('',(1.,0.,0.));
#1785=DIRECTION('',(0.,9.63735264431559E-17,-1.));
#1786=DIRECTION('',(0.,1.,9.63735264431559E-17));
#1787=DIRECTION('',(-5.55111512312579E-17,1.,0.));
#1788=DIRECTION('',(-1.,-5.55111512312579E-17,0.));
#1789=DIRECTION('',(1.,5.55111512312579E-17,0.));
#1790=DIRECTION('',(1.,5.55111512312579E-17,0.));
#1791=DIRECTION('',(-1.28395329625816E-32,2.31296463463574E-16,-1.));
#1792=DIRECTION('',(0.,1.,2.31296463463574E-16));
#1793=DIRECTION('',(1.,5.55111512312579E-17,0.));
#1794=DIRECTION('',(-5.55111512312579E-17,1.,0.));
#1795=DIRECTION('',(-1.,-5.55111512312579E-17,0.));
#1796=DIRECTION('',(1.,5.55111512312579E-17,0.));
#1797=DIRECTION('',(0.,0.,-1.));
#1798=DIRECTION('',(-1.,0.,0.));
#1799=DIRECTION('',(1.,0.,0.));
#1800=DIRECTION('',(0.,0.,-1.));
#1801=DIRECTION('',(0.,0.,-1.));
#1802=DIRECTION('',(0.,-1.,0.));
#1803=DIRECTION('',(0.,0.,-1.));
#1804=DIRECTION('',(0.,-1.,0.));
#1805=DIRECTION('',(0.,0.,-1.));
#1806=DIRECTION('',(0.,0.,-1.));
#1807=DIRECTION('',(-1.,0.,0.));
#1808=DIRECTION('',(1.,0.,0.));
#1809=DIRECTION('',(0.,0.,-1.));
#1810=DIRECTION('',(0.,0.,-1.));
#1811=DIRECTION('',(0.,-1.,0.));
#1812=DIRECTION('',(0.,-1.,0.));
#1813=DIRECTION('',(0.,0.,-1.));
#1814=DIRECTION('',(-1.,0.,0.));
#1815=DIRECTION('',(0.,0.,1.));
#1816=DIRECTION('',(1.,0.,0.));
#1817=DIRECTION('',(1.,0.,0.));
#1818=DIRECTION('',(0.,0.,-1.));
#1819=DIRECTION('',(0.,0.,-1.));
#1820=DIRECTION('',(0.,-1.,0.));
#1821=DIRECTION('',(0.,0.,-1.));
#1822=DIRECTION('',(0.,1.,0.));
#1823=DIRECTION('',(0.,0.,1.));
#1824=DIRECTION('',(0.,0.,-1.));
#1825=DIRECTION('',(1.,0.,0.));
#1826=DIRECTION('',(1.,0.,0.));
#1827=DIRECTION('',(0.,0.,-1.));
#1828=DIRECTION('',(0.,0.,-1.));
#1829=DIRECTION('',(0.,-1.,0.));
#1830=DIRECTION('',(0.,1.,0.));
#1831=DIRECTION('',(0.,0.,1.));
#1832=DIRECTION('',(0.,0.,-1.));
#1833=DIRECTION('',(1.,0.,0.));
#1834=DIRECTION('',(1.,0.,0.));
#1835=DIRECTION('',(0.,0.,-1.));
#1836=DIRECTION('',(0.,0.,-1.));
#1837=DIRECTION('',(0.,-1.,0.));
#1838=DIRECTION('',(0.,1.,0.));
#1839=DIRECTION('',(0.,0.,1.));
#1840=DIRECTION('',(1.,0.,0.));
#1841=DIRECTION('',(0.,0.,1.));
#1842=DIRECTION('',(1.,0.,0.));
#1843=CARTESIAN_POINT('',(0.,0.,0.));
#1844=CARTESIAN_POINT('',(-0.109532531054077,-0.246827494193817,0.02));
#1845=CARTESIAN_POINT('',(-0.109532531054077,-0.246827494193817,0.));
#1846=CARTESIAN_POINT('',(-0.109532531054077,-0.121827494193817,0.));
#1847=CARTESIAN_POINT('',(-0.109532531054077,-0.371827494193817,0.));
#1848=CARTESIAN_POINT('',(-0.109532531054077,-0.371827494193817,0.02));
#1849=CARTESIAN_POINT('',(-0.109532531054077,-0.371827494193817,0.02));
#1850=CARTESIAN_POINT('',(-0.109532531054077,-0.246827494193817,0.02));
#1851=CARTESIAN_POINT('',(-0.109532531054077,-0.121827494193817,0.02));
#1852=CARTESIAN_POINT('',(-0.109532531054077,-0.121827494193817,0.02));
#1853=CARTESIAN_POINT('',(-0.109532531054077,-0.328823831572122,0.02));
#1854=CARTESIAN_POINT('',(-0.109532531054077,-0.328823831572122,0.0115));
#1855=CARTESIAN_POINT('',(-0.109532531054077,-0.328823831572122,0.0165));
#1856=CARTESIAN_POINT('',(-0.109532531054077,-0.246827494193817,0.0115));
#1857=CARTESIAN_POINT('',(-0.109532531054077,-0.313823831572122,0.0115));
#1858=CARTESIAN_POINT('',(-0.109532531054077,-0.313823831572122,0.02));
#1859=CARTESIAN_POINT('',(-0.109532531054077,-0.313823831572122,0.0165));
#1860=CARTESIAN_POINT('',(-0.109532531054077,-0.246827494193817,0.0165));
#1861=CARTESIAN_POINT('',(-0.107032531054077,-0.246827494193817,0.02));
#1862=CARTESIAN_POINT('',(-0.107032531054077,-0.246827494193817,0.0025));
#1863=CARTESIAN_POINT('',(-0.107032531054077,-0.124327494193817,0.0025));
#1864=CARTESIAN_POINT('',(-0.107032531054077,-0.371827494193817,0.0025));
#1865=CARTESIAN_POINT('',(-0.107032531054077,-0.124327494193817,0.02));
#1866=CARTESIAN_POINT('',(-0.107032531054077,-0.124327494193817,0.02));
#1867=CARTESIAN_POINT('',(-0.107032531054077,-0.246827494193817,0.02));
#1868=CARTESIAN_POINT('',(-0.107032531054077,-0.371827494193817,0.02));
#1869=CARTESIAN_POINT('',(-0.107032531054077,-0.371827494193817,0.02));
#1870=CARTESIAN_POINT('',(-0.107032531054077,-0.321323831572122,0.0115));
#1871=CARTESIAN_POINT('',(-0.107032531054077,-0.328823831572122,0.0115));
#1872=CARTESIAN_POINT('',(-0.107032531054077,-0.313823831572122,0.0115));
#1873=CARTESIAN_POINT('',(-0.107032531054077,-0.328823831572122,0.014));
#1874=CARTESIAN_POINT('',(-0.107032531054077,-0.328823831572122,0.0165));
#1875=CARTESIAN_POINT('',(-0.107032531054077,-0.321323831572122,0.0165));
#1876=CARTESIAN_POINT('',(-0.107032531054077,-0.313823831572122,0.0165));
#1877=CARTESIAN_POINT('',(-0.107032531054077,-0.313823831572122,0.014));
#1878=CARTESIAN_POINT('',(-0.0640325310540769,-0.337323831572122,0.0225));
#1879=CARTESIAN_POINT('',(-0.026032531054077,-0.337323831572122,0.0225));
#1880=CARTESIAN_POINT('',(-0.026032531054077,-0.337323831572122,0.0225));
#1881=CARTESIAN_POINT('',(-0.026032531054077,-0.337323831572122,0.0215));
#1882=CARTESIAN_POINT('',(-0.0640325310540769,-0.337323831572122,0.0215));
#1883=CARTESIAN_POINT('',(-0.102032531054077,-0.337323831572122,0.0215));
#1884=CARTESIAN_POINT('',(-0.102032531054077,-0.337323831572122,0.0225));
#1885=CARTESIAN_POINT('',(-0.102032531054077,-0.337323831572122,0.0225));
#1886=CARTESIAN_POINT('',(-0.0640325310540769,-0.337323831572122,0.0225));
#1887=CARTESIAN_POINT('',(-0.102032531054077,-0.338823831572122,0.0225));
#1888=CARTESIAN_POINT('',(-0.102032531054077,-0.321323831572122,0.0215));
#1889=CARTESIAN_POINT('',(-0.102032531054077,-0.339323831572122,0.0215));
#1890=CARTESIAN_POINT('',(-0.102032531054077,-0.339323831572122,0.0205));
#1891=CARTESIAN_POINT('',(-0.102032531054077,-0.339323831572122,0.0195));
#1892=CARTESIAN_POINT('',(-0.102032531054077,-0.321323831572122,0.0195));
#1893=CARTESIAN_POINT('',(-0.102032531054077,-0.337323831572122,0.0195));
#1894=CARTESIAN_POINT('',(-0.102032531054077,-0.337323831572122,0.0225));
#1895=CARTESIAN_POINT('',(-0.102032531054077,-0.337323831572122,0.0025));
#1896=CARTESIAN_POINT('',(-0.102032531054077,-0.338823831572122,0.0025));
#1897=CARTESIAN_POINT('',(-0.102032531054077,-0.340323831572122,0.0025));
#1898=CARTESIAN_POINT('',(-0.102032531054077,-0.340323831572122,0.0225));
#1899=CARTESIAN_POINT('',(-0.102032531054077,-0.340323831572122,0.0225));
#1900=CARTESIAN_POINT('',(-0.102032531054077,-0.338823831572122,0.0225));
#1901=CARTESIAN_POINT('',(-0.026032531054077,-0.338823831572122,0.0225));
#1902=CARTESIAN_POINT('',(-0.026032531054077,-0.339323831572122,0.0205));
#1903=CARTESIAN_POINT('',(-0.026032531054077,-0.339323831572122,0.0215));
#1904=CARTESIAN_POINT('',(-0.026032531054077,-0.339323831572122,0.0195));
#1905=CARTESIAN_POINT('',(-0.026032531054077,-0.321323831572122,0.0215));
#1906=CARTESIAN_POINT('',(-0.026032531054077,-0.338823831572122,0.0225));
#1907=CARTESIAN_POINT('',(-0.026032531054077,-0.340323831572122,0.0225));
#1908=CARTESIAN_POINT('',(-0.026032531054077,-0.340323831572122,0.0225));
#1909=CARTESIAN_POINT('',(-0.026032531054077,-0.340323831572122,0.0025));
#1910=CARTESIAN_POINT('',(-0.026032531054077,-0.338823831572122,0.0025));
#1911=CARTESIAN_POINT('',(-0.026032531054077,-0.337323831572122,0.0025));
#1912=CARTESIAN_POINT('',(-0.026032531054077,-0.337323831572122,0.0225));
#1913=CARTESIAN_POINT('',(-0.026032531054077,-0.337323831572122,0.0195));
#1914=CARTESIAN_POINT('',(-0.026032531054077,-0.321323831572122,0.0195));
#1915=CARTESIAN_POINT('',(-0.0640325310540769,-0.305323831572122,0.0225));
#1916=CARTESIAN_POINT('',(-0.0640325310540769,-0.305323831572122,0.0215));
#1917=CARTESIAN_POINT('',(-0.026032531054077,-0.305323831572122,0.0215));
#1918=CARTESIAN_POINT('',(-0.102032531054077,-0.305323831572122,0.0215));
#1919=CARTESIAN_POINT('',(-0.026032531054077,-0.305323831572122,0.0225));
#1920=CARTESIAN_POINT('',(-0.026032531054077,-0.305323831572122,0.0225));
#1921=CARTESIAN_POINT('',(-0.0640325310540769,-0.305323831572122,0.0225));
#1922=CARTESIAN_POINT('',(-0.102032531054077,-0.305323831572122,0.0225));
#1923=CARTESIAN_POINT('',(-0.102032531054077,-0.305323831572122,0.0225));
#1924=CARTESIAN_POINT('',(-0.0616736940725536,-0.0688652148425581,0.0025));
#1925=CARTESIAN_POINT('',(-0.072032531054077,-0.132327494193817,0.0025));
#1926=CARTESIAN_POINT('',(-0.072032531054077,-0.127327494193817,0.0025));
#1927=CARTESIAN_POINT('',(-0.072032531054077,-0.137327494193817,0.0025));
#1928=CARTESIAN_POINT('',(-0.083032531054077,-0.137327494193817,0.0025));
#1929=CARTESIAN_POINT('',(-0.094032531054077,-0.137327494193817,0.0025));
#1930=CARTESIAN_POINT('',(-0.0940325310540769,-0.177827494193817,0.0025));
#1931=CARTESIAN_POINT('',(-0.0940325310540769,-0.218327494193817,0.0025));
#1932=CARTESIAN_POINT('',(-0.0990325310540769,-0.218327494193817,0.0025));
#1933=CARTESIAN_POINT('',(-0.104032531054077,-0.218327494193817,0.0025));
#1934=CARTESIAN_POINT('',(-0.104032531054077,-0.172827494193817,0.0025));
#1935=CARTESIAN_POINT('',(-0.104032531054077,-0.127327494193817,0.0025));
#1936=CARTESIAN_POINT('',(-0.0990325310540769,-0.127327494193817,0.0025));
#1937=CARTESIAN_POINT('',(-0.094032531054077,-0.274786717533528,0.0025));
#1938=CARTESIAN_POINT('',(-0.094032531054077,-0.254786717533528,0.0025));
#1939=CARTESIAN_POINT('',(-0.094032531054077,-0.294786717533528,0.0025));
#1940=CARTESIAN_POINT('',(-0.0990325310540769,-0.294786717533528,0.0025));
#1941=CARTESIAN_POINT('',(-0.104032531054077,-0.294786717533528,0.0025));
#1942=CARTESIAN_POINT('',(-0.104032531054077,-0.274786717533528,0.0025));
#1943=CARTESIAN_POINT('',(-0.104032531054077,-0.254786717533528,0.0025));
#1944=CARTESIAN_POINT('',(-0.0990325310540769,-0.254786717533528,0.0025));
#1945=CARTESIAN_POINT('',(-0.0640325310540769,-0.337323831572122,0.0025));
#1946=CARTESIAN_POINT('',(-0.0640325310540769,-0.340323831572122,0.0025));
#1947=CARTESIAN_POINT('',(-0.0650325310540769,-0.167327494193817,0.0025));
#1948=CARTESIAN_POINT('',(-0.0650325310540769,-0.124327494193817,0.0025));
#1949=CARTESIAN_POINT('',(-0.0650325310540769,-0.210327494193818,0.0025));
#1950=CARTESIAN_POINT('',(-0.00953253105407697,-0.124327494193817,0.0025));
#1951=CARTESIAN_POINT('',(-0.00953253105407693,-0.371827494193817,0.0025));
#1952=CARTESIAN_POINT('',(0.0904674689459231,-0.371827494193817,0.0025));
#1953=CARTESIAN_POINT('',(0.0904674689459231,-0.246827494193817,0.0025));
#1954=CARTESIAN_POINT('',(0.0904674689459231,-0.180327494193817,0.0025));
#1955=CARTESIAN_POINT('',(0.0839674689459231,-0.180327494193817,0.0025));
#1956=CARTESIAN_POINT('',(0.0774674689459231,-0.180327494193817,0.0025));
#1957=CARTESIAN_POINT('',(0.0774674689459231,-0.152327494193817,0.0025));
#1958=CARTESIAN_POINT('',(0.0774674689459231,-0.124327494193817,0.0025));
#1959=CARTESIAN_POINT('',(-0.00953253105407697,-0.124327494193817,0.0025));
#1960=CARTESIAN_POINT('',(0.0283674689459231,-0.124327494193817,0.0025));
#1961=CARTESIAN_POINT('',(0.0283674689459231,-0.167327494193817,0.0025));
#1962=CARTESIAN_POINT('',(0.0283674689459231,-0.210327494193818,0.0025));
#1963=CARTESIAN_POINT('',(0.0273674689459231,-0.210327494193818,0.0025));
#1964=CARTESIAN_POINT('',(0.026367468945923,-0.210327494193818,0.0025));
#1965=CARTESIAN_POINT('',(0.026367468945923,-0.167327494193817,0.0025));
#1966=CARTESIAN_POINT('',(0.026367468945923,-0.124327494193817,0.0025));
#1967=CARTESIAN_POINT('',(-0.00953253105407697,-0.124327494193817,0.0025));
#1968=CARTESIAN_POINT('',(-0.0630325310540769,-0.124327494193817,0.0025));
#1969=CARTESIAN_POINT('',(-0.0630325310540769,-0.167327494193817,0.0025));
#1970=CARTESIAN_POINT('',(-0.0630325310540769,-0.210327494193818,0.0025));
#1971=CARTESIAN_POINT('',(-0.0640325310540769,-0.210327494193818,0.0025));
#1972=CARTESIAN_POINT('',(0.0804674689459231,-0.361827494193817,0.0025));
#1973=CARTESIAN_POINT('',(0.0854674689459231,-0.361827494193817,0.0025));
#1974=CARTESIAN_POINT('',(-0.026032531054077,-0.303823831572122,0.0025));
#1975=CARTESIAN_POINT('',(-0.026032531054077,-0.305323831572122,0.0025));
#1976=CARTESIAN_POINT('',(-0.026032531054077,-0.302323831572122,0.0025));
#1977=CARTESIAN_POINT('',(-0.0640325310540769,-0.305323831572122,0.0025));
#1978=CARTESIAN_POINT('',(-0.102032531054077,-0.305323831572122,0.0025));
#1979=CARTESIAN_POINT('',(-0.102032531054077,-0.303823831572122,0.0025));
#1980=CARTESIAN_POINT('',(-0.102032531054077,-0.302323831572122,0.0025));
#1981=CARTESIAN_POINT('',(-0.0640325310540769,-0.302323831572122,0.0025));
#1982=CARTESIAN_POINT('',(-0.0616736940725536,-0.0688652148425581,0.02));
#1983=CARTESIAN_POINT('',(-0.00953253105407697,-0.121827494193817,0.02));
#1984=CARTESIAN_POINT('',(0.017967468945923,-0.121827494193817,0.02));
#1985=CARTESIAN_POINT('',(0.0904674689459231,-0.121827494193817,0.02));
#1986=CARTESIAN_POINT('',(0.017967468945923,-0.0993274941938172,0.02));
#1987=CARTESIAN_POINT('',(0.017967468945923,-0.124327494193817,0.02));
#1988=CARTESIAN_POINT('',(-0.00953253105407697,-0.124327494193817,0.02));
#1989=CARTESIAN_POINT('',(0.0904674689459231,-0.124327494193817,0.02));
#1990=CARTESIAN_POINT('',(0.0904674689459231,-0.246827494193817,0.02));
#1991=CARTESIAN_POINT('',(-0.00953253105407697,-0.124327494193817,0.02));
#1992=CARTESIAN_POINT('',(0.017967468945923,-0.124327494193817,0.017));
#1993=CARTESIAN_POINT('',(0.017967468945923,-0.124327494193817,0.014));
#1994=CARTESIAN_POINT('',(0.0134756017094423,-0.124327494193817,0.014));
#1995=CARTESIAN_POINT('',(-0.00203253105407695,-0.124327494193817,0.014));
#1996=CARTESIAN_POINT('',(-0.00203253105407695,-0.124327494193817,0.017));
#1997=CARTESIAN_POINT('',(-0.00203253105407695,-0.124327494193817,0.02));
#1998=CARTESIAN_POINT('',(-0.00953253105407697,-0.124327494193817,0.02));
#1999=CARTESIAN_POINT('',(-0.0650325310540769,-0.124327494193817,0.0195));
#2000=CARTESIAN_POINT('',(-0.0650325310540769,-0.124327494193817,0.0195));
#2001=CARTESIAN_POINT('',(-0.00953253105407697,-0.124327494193817,0.0195));
#2002=CARTESIAN_POINT('',(-0.0630325310540769,-0.124327494193817,0.0195));
#2003=CARTESIAN_POINT('',(-0.0630325310540769,-0.124327494193817,0.0195));
#2004=CARTESIAN_POINT('',(-0.0630325310540769,-0.124327494193817,0.0165));
#2005=CARTESIAN_POINT('',(-0.018332531054077,-0.124327494193817,0.0165));
#2006=CARTESIAN_POINT('',(-0.0640325310540769,-0.124327494193817,0.0165));
#2007=CARTESIAN_POINT('',(-0.0640325310540769,-0.124327494193817,0.0155));
#2008=CARTESIAN_POINT('',(-0.0640325310540769,-0.124327494193817,0.0145));
#2009=CARTESIAN_POINT('',(-0.018332531054077,-0.124327494193817,0.0145));
#2010=CARTESIAN_POINT('',(-0.0630325310540769,-0.124327494193817,0.0145));
#2011=CARTESIAN_POINT('',(-0.0630325310540769,-0.124327494193817,0.0195));
#2012=CARTESIAN_POINT('',(0.026367468945923,-0.124327494193817,0.0195));
#2013=CARTESIAN_POINT('',(0.026367468945923,-0.124327494193817,0.0145));
#2014=CARTESIAN_POINT('',(-0.018332531054077,-0.124327494193817,0.0145));
#2015=CARTESIAN_POINT('',(0.0273674689459231,-0.124327494193817,0.0145));
#2016=CARTESIAN_POINT('',(0.0273674689459231,-0.124327494193817,0.0155));
#2017=CARTESIAN_POINT('',(0.0273674689459231,-0.124327494193817,0.0165));
#2018=CARTESIAN_POINT('',(-0.018332531054077,-0.124327494193817,0.0165));
#2019=CARTESIAN_POINT('',(0.026367468945923,-0.124327494193817,0.0165));
#2020=CARTESIAN_POINT('',(0.026367468945923,-0.124327494193817,0.0195));
#2021=CARTESIAN_POINT('',(0.026367468945923,-0.124327494193817,0.0195));
#2022=CARTESIAN_POINT('',(-0.00953253105407697,-0.124327494193817,0.0195));
#2023=CARTESIAN_POINT('',(0.0283674689459231,-0.124327494193817,0.0195));
#2024=CARTESIAN_POINT('',(0.0283674689459231,-0.124327494193817,0.0195));
#2025=CARTESIAN_POINT('',(0.0774674689459231,-0.124327494193817,0.0175));
#2026=CARTESIAN_POINT('',(0.0774674689459231,-0.124327494193817,0.0175));
#2027=CARTESIAN_POINT('',(-0.00953253105407697,-0.124327494193817,0.0175));
#2028=CARTESIAN_POINT('',(0.0904674689459231,-0.124327494193817,0.0175));
#2029=CARTESIAN_POINT('',(0.0904674689459231,-0.124327494193817,0.02));
#2030=CARTESIAN_POINT('',(0.026367468945923,-0.167327494193817,0.0195));
#2031=CARTESIAN_POINT('',(0.026367468945923,-0.167327494193817,0.0165));
#2032=CARTESIAN_POINT('',(0.026367468945923,-0.210327494193818,0.0165));
#2033=CARTESIAN_POINT('',(0.026367468945923,-0.210327494193818,0.0195));
#2034=CARTESIAN_POINT('',(0.026367468945923,-0.210327494193818,0.0195));
#2035=CARTESIAN_POINT('',(0.026367468945923,-0.167327494193817,0.0195));
#2036=CARTESIAN_POINT('',(-0.0630325310540769,-0.167327494193817,0.0195));
#2037=CARTESIAN_POINT('',(-0.0630325310540769,-0.210327494193818,0.0195));
#2038=CARTESIAN_POINT('',(-0.0630325310540769,-0.210327494193818,0.0195));
#2039=CARTESIAN_POINT('',(-0.0630325310540769,-0.210327494193818,0.0165));
#2040=CARTESIAN_POINT('',(-0.0630325310540769,-0.167327494193817,0.0165));
#2041=CARTESIAN_POINT('',(-0.0630325310540769,-0.167327494193817,0.0195));
#2042=CARTESIAN_POINT('',(-0.0616736940725536,-0.0688652148425581,0.02));
#2043=CARTESIAN_POINT('',(-0.00203253105407695,-0.0993274941938172,0.02));
#2044=CARTESIAN_POINT('',(-0.00203253105407695,-0.121827494193817,0.02));
#2045=CARTESIAN_POINT('',(-0.00953253105407697,-0.121827494193817,0.02));
#2046=CARTESIAN_POINT('',(-0.00953253105407693,-0.371827494193817,0.02));
#2047=CARTESIAN_POINT('',(-0.00953253105407693,-0.371827494193817,0.02));
#2048=CARTESIAN_POINT('',(0.0904674689459231,-0.371827494193817,0.02));
#2049=CARTESIAN_POINT('',(0.0904674689459231,-0.371827494193817,0.));
#2050=CARTESIAN_POINT('',(-0.00953253105407693,-0.371827494193817,0.));
#2051=CARTESIAN_POINT('',(0.0904674689459231,-0.246827494193817,0.02));
#2052=CARTESIAN_POINT('',(0.0904674689459231,-0.169827494193817,0.0175));
#2053=CARTESIAN_POINT('',(0.0904674689459231,-0.169827494193817,0.0175));
#2054=CARTESIAN_POINT('',(0.0904674689459231,-0.169827494193817,0.0025));
#2055=CARTESIAN_POINT('',(0.0904674689459231,-0.246827494193817,0.0175));
#2056=CARTESIAN_POINT('',(0.0904674689459231,-0.180327494193817,0.0175));
#2057=CARTESIAN_POINT('',(0.0904674689459231,-0.180327494193817,0.0175));
#2058=CARTESIAN_POINT('',(0.0904674689459231,-0.246827494193817,0.));
#2059=CARTESIAN_POINT('',(0.0904674689459231,-0.121827494193817,0.));
#2060=CARTESIAN_POINT('',(0.0904674689459231,-0.121827494193817,0.02));
#2061=CARTESIAN_POINT('',(0.0904674689459231,-0.246827494193817,0.0175));
#2062=CARTESIAN_POINT('',(0.0904674689459231,-0.134827494193817,0.0175));
#2063=CARTESIAN_POINT('',(0.0904674689459231,-0.134827494193817,0.0175));
#2064=CARTESIAN_POINT('',(0.0904674689459231,-0.134827494193817,0.0025));
#2065=CARTESIAN_POINT('',(0.0904674689459231,-0.246827494193817,0.0025));
#2066=CARTESIAN_POINT('',(-0.00953253105407697,-0.121827494193817,0.02));
#2067=CARTESIAN_POINT('',(0.017967468945923,-0.121827494193817,0.02));
#2068=CARTESIAN_POINT('',(0.017967468945923,-0.121827494193817,0.014));
#2069=CARTESIAN_POINT('',(-0.00953253105407697,-0.121827494193817,0.));
#2070=CARTESIAN_POINT('',(-0.00203253105407695,-0.121827494193817,0.02));
#2071=CARTESIAN_POINT('',(-0.00203253105407695,-0.121827494193817,0.014));
#2072=CARTESIAN_POINT('',(-0.00953253105407697,-0.121827494193817,0.014));
#2073=CARTESIAN_POINT('',(-0.0616736940725536,-0.0688652148425581,0.));
#2074=CARTESIAN_POINT('',(0.0774674689459231,-0.152327494193817,0.0175));
#2075=CARTESIAN_POINT('',(0.0774674689459231,-0.180327494193817,0.0175));
#2076=CARTESIAN_POINT('',(0.0774674689459231,-0.180327494193817,0.0175));
#2077=CARTESIAN_POINT('',(0.0774674689459231,-0.152327494193817,0.0175));
#2078=CARTESIAN_POINT('',(0.0839674689459231,-0.180327494193817,0.0175));
#2079=CARTESIAN_POINT('',(0.0839674689459231,-0.180327494193817,0.0175));
#2080=CARTESIAN_POINT('',(0.228276906226783,-0.295327494193817,0.0175));
#2081=CARTESIAN_POINT('',(0.0912174689459231,-0.169827494193817,0.0175));
#2082=CARTESIAN_POINT('',(0.091967468945923,-0.169827494193817,0.0175));
#2083=CARTESIAN_POINT('',(0.091967468945923,-0.152327494193817,0.0175));
#2084=CARTESIAN_POINT('',(0.091967468945923,-0.134827494193817,0.0175));
#2085=CARTESIAN_POINT('',(0.0912174689459231,-0.134827494193817,0.0175));
#2086=CARTESIAN_POINT('',(0.0912174689459231,-0.134827494193817,0.0175));
#2087=CARTESIAN_POINT('',(0.0912174689459231,-0.134827494193817,0.0025));
#2088=CARTESIAN_POINT('',(0.091967468945923,-0.134827494193817,0.0025));
#2089=CARTESIAN_POINT('',(0.091967468945923,-0.134827494193817,0.0175));
#2090=CARTESIAN_POINT('',(0.0912174689459231,-0.169827494193817,0.0175));
#2091=CARTESIAN_POINT('',(0.0912174689459231,-0.169827494193817,0.0025));
#2092=CARTESIAN_POINT('',(0.091967468945923,-0.169827494193817,0.0025));
#2093=CARTESIAN_POINT('',(0.091967468945923,-0.169827494193817,0.0175));
#2094=CARTESIAN_POINT('',(0.091967468945923,-0.152327494193817,0.0175));
#2095=CARTESIAN_POINT('',(0.091967468945923,-0.152327494193817,0.0025));
#2096=CARTESIAN_POINT('',(0.228276906226783,-0.295327494193817,0.0025));
#2097=CARTESIAN_POINT('',(0.0804674689459231,-0.361827494193817,0.0175));
#2098=CARTESIAN_POINT('',(0.0804674689459231,-0.361827494193817,0.0175));
#2099=CARTESIAN_POINT('',(0.0854674689459231,-0.361827494193817,0.0175));
#2100=CARTESIAN_POINT('',(0.228276906226783,-0.295327494193817,0.0175));
#2101=CARTESIAN_POINT('',(0.026367468945923,-0.167327494193817,0.0195));
#2102=CARTESIAN_POINT('',(0.026367468945923,-0.210327494193818,0.0195));
#2103=CARTESIAN_POINT('',(0.026367468945923,-0.210327494193818,0.0145));
#2104=CARTESIAN_POINT('',(0.026367468945923,-0.167327494193817,0.0145));
#2105=CARTESIAN_POINT('',(0.0273674689459231,-0.210327494193818,0.0195));
#2106=CARTESIAN_POINT('',(-0.018332531054077,-0.210327494193818,0.0165));
#2107=CARTESIAN_POINT('',(0.0273674689459231,-0.210327494193818,0.0165));
#2108=CARTESIAN_POINT('',(0.0273674689459231,-0.210327494193818,0.0155));
#2109=CARTESIAN_POINT('',(0.0273674689459231,-0.210327494193818,0.0145));
#2110=CARTESIAN_POINT('',(-0.018332531054077,-0.210327494193818,0.0145));
#2111=CARTESIAN_POINT('',(0.0283674689459231,-0.210327494193818,0.0195));
#2112=CARTESIAN_POINT('',(0.0283674689459231,-0.210327494193818,0.0195));
#2113=CARTESIAN_POINT('',(0.0273674689459231,-0.210327494193818,0.0195));
#2114=CARTESIAN_POINT('',(0.0283674689459231,-0.167327494193817,0.0195));
#2115=CARTESIAN_POINT('',(0.0283674689459231,-0.167327494193817,0.0195));
#2116=CARTESIAN_POINT('',(0.228276906226783,-0.295327494193817,0.0195));
#2117=CARTESIAN_POINT('',(-0.0650325310540769,-0.167327494193817,0.0195));
#2118=CARTESIAN_POINT('',(-0.0650325310540769,-0.210327494193818,0.0195));
#2119=CARTESIAN_POINT('',(-0.0650325310540769,-0.210327494193818,0.0195));
#2120=CARTESIAN_POINT('',(-0.0650325310540769,-0.167327494193817,0.0195));
#2121=CARTESIAN_POINT('',(-0.0640325310540769,-0.210327494193818,0.0195));
#2122=CARTESIAN_POINT('',(-0.0640325310540769,-0.210327494193818,0.0155));
#2123=CARTESIAN_POINT('',(-0.0640325310540769,-0.210327494193818,0.0165));
#2124=CARTESIAN_POINT('',(-0.0640325310540769,-0.210327494193818,0.0145));
#2125=CARTESIAN_POINT('',(-0.018332531054077,-0.210327494193818,0.0165));
#2126=CARTESIAN_POINT('',(-0.0640325310540769,-0.210327494193818,0.0195));
#2127=CARTESIAN_POINT('',(-0.0630325310540769,-0.210327494193818,0.0195));
#2128=CARTESIAN_POINT('',(-0.0630325310540769,-0.210327494193818,0.0145));
#2129=CARTESIAN_POINT('',(-0.018332531054077,-0.210327494193818,0.0145));
#2130=CARTESIAN_POINT('',(-0.0630325310540769,-0.167327494193817,0.0195));
#2131=CARTESIAN_POINT('',(-0.0630325310540769,-0.167327494193817,0.0145));
#2132=CARTESIAN_POINT('',(0.228276906226783,-0.295327494193817,0.0195));
#2133=CARTESIAN_POINT('',(-0.018332531054077,-0.124327494193817,0.0145));
#2134=CARTESIAN_POINT('',(-0.0640325310540769,-0.124327494193817,0.0145));
#2135=CARTESIAN_POINT('',(-0.018332531054077,-0.124327494193817,0.0165));
#2136=CARTESIAN_POINT('',(-0.0640325310540769,-0.124327494193817,0.0165));
#2137=CARTESIAN_POINT('',(-0.0640325310540769,-0.124327494193817,0.0155));
#2138=CARTESIAN_POINT('',(-0.018332531054077,-0.124327494193817,0.0165));
#2139=CARTESIAN_POINT('',(0.0273674689459231,-0.124327494193817,0.0165));
#2140=CARTESIAN_POINT('',(-0.018332531054077,-0.124327494193817,0.0145));
#2141=CARTESIAN_POINT('',(0.0273674689459231,-0.124327494193817,0.0145));
#2142=CARTESIAN_POINT('',(0.0273674689459231,-0.124327494193817,0.0155));
#2143=CARTESIAN_POINT('',(0.0134756017094423,-0.0993274941938172,0.014));
#2144=CARTESIAN_POINT('',(-0.00203253105407695,-0.0993274941938172,0.014));
#2145=CARTESIAN_POINT('',(0.017967468945923,-0.0993274941938172,0.014));
#2146=CARTESIAN_POINT('',(0.017967468945923,-0.0993274941938172,0.017));
#2147=CARTESIAN_POINT('',(-0.00203253105407695,-0.0993274941938172,0.017));
#2148=CARTESIAN_POINT('',(-0.0640325310540769,-0.337323831572122,0.0225));
#2149=CARTESIAN_POINT('',(-0.0640325310540769,-0.337323831572122,0.0195));
#2150=CARTESIAN_POINT('',(-0.0640325310540769,-0.340323831572122,0.0225));
#2151=CARTESIAN_POINT('',(-0.0640325310540769,-0.340323831572122,0.0225));
#2152=CARTESIAN_POINT('',(-0.00828253105407693,-0.248077494193817,0.0225));
#2153=CARTESIAN_POINT('',(-0.0640325310540769,-0.305323831572122,0.0225));
#2154=CARTESIAN_POINT('',(-0.026032531054077,-0.305323831572122,0.0225));
#2155=CARTESIAN_POINT('',(-0.026032531054077,-0.305323831572122,0.0195));
#2156=CARTESIAN_POINT('',(-0.0640325310540769,-0.305323831572122,0.0195));
#2157=CARTESIAN_POINT('',(-0.102032531054077,-0.305323831572122,0.0195));
#2158=CARTESIAN_POINT('',(-0.102032531054077,-0.305323831572122,0.0225));
#2159=CARTESIAN_POINT('',(-0.026032531054077,-0.303823831572122,0.0225));
#2160=CARTESIAN_POINT('',(-0.026032531054077,-0.321323831572122,0.0215));
#2161=CARTESIAN_POINT('',(-0.026032531054077,-0.303323831572122,0.0215));
#2162=CARTESIAN_POINT('',(-0.026032531054077,-0.303323831572122,0.0205));
#2163=CARTESIAN_POINT('',(-0.026032531054077,-0.303323831572122,0.0195));
#2164=CARTESIAN_POINT('',(-0.026032531054077,-0.321323831572122,0.0195));
#2165=CARTESIAN_POINT('',(-0.026032531054077,-0.302323831572122,0.0225));
#2166=CARTESIAN_POINT('',(-0.026032531054077,-0.302323831572122,0.0225));
#2167=CARTESIAN_POINT('',(-0.026032531054077,-0.303823831572122,0.0225));
#2168=CARTESIAN_POINT('',(-0.0640325310540769,-0.302323831572122,0.0225));
#2169=CARTESIAN_POINT('',(-0.102032531054077,-0.302323831572122,0.0225));
#2170=CARTESIAN_POINT('',(-0.102032531054077,-0.302323831572122,0.0225));
#2171=CARTESIAN_POINT('',(-0.0640325310540769,-0.302323831572122,0.0225));
#2172=CARTESIAN_POINT('',(-0.102032531054077,-0.303823831572122,0.0225));
#2173=CARTESIAN_POINT('',(-0.102032531054077,-0.321323831572122,0.0215));
#2174=CARTESIAN_POINT('',(-0.102032531054077,-0.303323831572122,0.0215));
#2175=CARTESIAN_POINT('',(-0.102032531054077,-0.303823831572122,0.0225));
#2176=CARTESIAN_POINT('',(-0.102032531054077,-0.321323831572122,0.0195));
#2177=CARTESIAN_POINT('',(-0.102032531054077,-0.303323831572122,0.0195));
#2178=CARTESIAN_POINT('',(-0.102032531054077,-0.303323831572122,0.0205));
#2179=CARTESIAN_POINT('',(-0.00828253105407693,-0.248077494193817,0.0225));
#2180=CARTESIAN_POINT('',(-0.102032531054077,-0.303323831572122,0.0205));
#2181=CARTESIAN_POINT('',(-0.102032531054077,-0.303323831572122,0.0215));
#2182=CARTESIAN_POINT('',(-0.102032531054077,-0.303323831572122,0.0195));
#2183=CARTESIAN_POINT('',(-0.102032531054077,-0.321323831572122,0.0195));
#2184=CARTESIAN_POINT('',(-0.102032531054077,-0.321323831572122,0.0215));
#2185=CARTESIAN_POINT('',(-0.102032531054077,-0.321323831572122,0.0215));
#2186=CARTESIAN_POINT('',(-0.102032531054077,-0.339323831572122,0.0215));
#2187=CARTESIAN_POINT('',(-0.102032531054077,-0.339323831572122,0.0205));
#2188=CARTESIAN_POINT('',(-0.102032531054077,-0.339323831572122,0.0195));
#2189=CARTESIAN_POINT('',(-0.102032531054077,-0.321323831572122,0.0195));
#2190=CARTESIAN_POINT('',(-0.132032531054077,-0.328823831572122,0.014));
#2191=CARTESIAN_POINT('',(-0.132032531054077,-0.328823831572122,0.0165));
#2192=CARTESIAN_POINT('',(-0.132032531054077,-0.328823831572122,0.0115));
#2193=CARTESIAN_POINT('',(-0.132032531054077,-0.321323831572122,0.0115));
#2194=CARTESIAN_POINT('',(-0.132032531054077,-0.313823831572122,0.0115));
#2195=CARTESIAN_POINT('',(-0.132032531054077,-0.313823831572122,0.014));
#2196=CARTESIAN_POINT('',(-0.132032531054077,-0.313823831572122,0.0165));
#2197=CARTESIAN_POINT('',(-0.132032531054077,-0.321323831572122,0.0165));
#2198=CARTESIAN_POINT('',(-0.094032531054077,-0.274786717533528,0.0225));
#2199=CARTESIAN_POINT('',(-0.094032531054077,-0.254786717533528,0.0225));
#2200=CARTESIAN_POINT('',(-0.094032531054077,-0.254786717533528,0.0225));
#2201=CARTESIAN_POINT('',(-0.094032531054077,-0.274786717533528,0.0225));
#2202=CARTESIAN_POINT('',(-0.094032531054077,-0.294786717533528,0.0225));
#2203=CARTESIAN_POINT('',(-0.094032531054077,-0.294786717533528,0.0225));
#2204=CARTESIAN_POINT('',(-0.0990325310540769,-0.254786717533528,0.0225));
#2205=CARTESIAN_POINT('',(-0.104032531054077,-0.254786717533528,0.0225));
#2206=CARTESIAN_POINT('',(-0.104032531054077,-0.254786717533528,0.0225));
#2207=CARTESIAN_POINT('',(-0.0990325310540769,-0.254786717533528,0.0225));
#2208=CARTESIAN_POINT('',(-0.104032531054077,-0.274786717533528,0.0225));
#2209=CARTESIAN_POINT('',(-0.104032531054077,-0.294786717533528,0.0225));
#2210=CARTESIAN_POINT('',(-0.104032531054077,-0.294786717533528,0.0225));
#2211=CARTESIAN_POINT('',(-0.104032531054077,-0.274786717533528,0.0225));
#2212=CARTESIAN_POINT('',(-0.0990325310540769,-0.294786717533528,0.0225));
#2213=CARTESIAN_POINT('',(-0.0990325310540769,-0.294786717533528,0.0225));
#2214=CARTESIAN_POINT('',(0.228276906226783,-0.295327494193817,0.0225));
#2215=CARTESIAN_POINT('',(-0.072032531054077,-0.132327494193817,0.0225));
#2216=CARTESIAN_POINT('',(-0.072032531054077,-0.127327494193817,0.0225));
#2217=CARTESIAN_POINT('',(-0.072032531054077,-0.127327494193817,0.0225));
#2218=CARTESIAN_POINT('',(-0.072032531054077,-0.132327494193817,0.0225));
#2219=CARTESIAN_POINT('',(-0.072032531054077,-0.137327494193817,0.0225));
#2220=CARTESIAN_POINT('',(-0.072032531054077,-0.137327494193817,0.0225));
#2221=CARTESIAN_POINT('',(-0.0990325310540769,-0.127327494193817,0.0225));
#2222=CARTESIAN_POINT('',(-0.104032531054077,-0.127327494193817,0.0225));
#2223=CARTESIAN_POINT('',(-0.104032531054077,-0.127327494193817,0.0225));
#2224=CARTESIAN_POINT('',(-0.0990325310540769,-0.127327494193817,0.0225));
#2225=CARTESIAN_POINT('',(-0.104032531054077,-0.172827494193817,0.0225));
#2226=CARTESIAN_POINT('',(-0.104032531054077,-0.218327494193817,0.0225));
#2227=CARTESIAN_POINT('',(-0.104032531054077,-0.218327494193817,0.0225));
#2228=CARTESIAN_POINT('',(-0.104032531054077,-0.172827494193817,0.0225));
#2229=CARTESIAN_POINT('',(-0.0990325310540769,-0.218327494193817,0.0225));
#2230=CARTESIAN_POINT('',(-0.0940325310540769,-0.218327494193817,0.0225));
#2231=CARTESIAN_POINT('',(-0.0940325310540769,-0.218327494193817,0.0225));
#2232=CARTESIAN_POINT('',(-0.0990325310540769,-0.218327494193817,0.0225));
#2233=CARTESIAN_POINT('',(-0.0940325310540769,-0.177827494193817,0.0225));
#2234=CARTESIAN_POINT('',(-0.094032531054077,-0.137327494193817,0.0225));
#2235=CARTESIAN_POINT('',(-0.094032531054077,-0.137327494193817,0.0225));
#2236=CARTESIAN_POINT('',(-0.0940325310540769,-0.177827494193817,0.0225));
#2237=CARTESIAN_POINT('',(-0.083032531054077,-0.137327494193817,0.0225));
#2238=CARTESIAN_POINT('',(-0.083032531054077,-0.137327494193817,0.0225));
#2239=CARTESIAN_POINT('',(0.228276906226783,-0.295327494193817,0.0225));
#2240=MECHANICAL_DESIGN_GEOMETRIC_PRESENTATION_REPRESENTATION('',(#1415),
#2241);
#2241=(
GEOMETRIC_REPRESENTATION_CONTEXT(3)
GLOBAL_UNCERTAINTY_ASSIGNED_CONTEXT((#2242))
GLOBAL_UNIT_ASSIGNED_CONTEXT((#2245,#2244,#2243))
REPRESENTATION_CONTEXT('BMat1','TOP_LEVEL_ASSEMBLY_PART')
);
#2242=UNCERTAINTY_MEASURE_WITH_UNIT(LENGTH_MEASURE(1.E-8),#2245,
'DISTANCE_ACCURACY_VALUE','Maximum Tolerance applied to model');
#2243=(
NAMED_UNIT(*)
SI_UNIT($,.STERADIAN.)
SOLID_ANGLE_UNIT()
);
#2244=(
NAMED_UNIT(*)
PLANE_ANGLE_UNIT()
SI_UNIT($,.RADIAN.)
);
#2245=(
LENGTH_UNIT()
NAMED_UNIT(*)
SI_UNIT($,.METRE.)
);
#2246=PRODUCT_DEFINITION_SHAPE('','',#2247);
#2247=PRODUCT_DEFINITION('','',#2249,#2248);
#2248=PRODUCT_DEFINITION_CONTEXT('',#2255,'design');
#2249=PRODUCT_DEFINITION_FORMATION_WITH_SPECIFIED_SOURCE('','',#2251,
 .NOT_KNOWN.);
#2250=PRODUCT_RELATED_PRODUCT_CATEGORY('','',(#2251));
#2251=PRODUCT('BMat1','BMat1','BMat1',(#2253));
#2252=PRODUCT_CATEGORY('','');
#2253=PRODUCT_CONTEXT('',#2255,'mechanical');
#2254=APPLICATION_PROTOCOL_DEFINITION('international standard',
'ap242_managed_model_based_3d_engineering',2020,#2255);
#2255=APPLICATION_CONTEXT('managed model based 3d engineering');
ENDSEC;
END-ISO-10303-21;
