ISO-10303-21;
HEADER;
/* Generated by software containing ST-Developer
 * from STEP Tools, Inc. (www.steptools.com) 
 */
/* OPTION: using custom renumber hook */

FILE_DESCRIPTION(
/* description */ ('STEP AP242 Edition 2',
'CAx-IF Rec.Pracs.---Representation and Presentation of Product Manufa
cturing Information (PMI)---4.0---2014-10-13',
'CAx-IF Rec.Pracs.---3D Tessellated Geometry---0.4---2014-09-14','2;1',
'CAx-IF Rec.Pracs.---User Defined Attributes---1.5---2016-08-15'),
/* implementation_level */ '2;1');

FILE_NAME(
/* name */ 'Part Studio 1 - TMat1',
/* time_stamp */ '2026-05-20T23:41:51Z',
/* author */ (''),
/* organization */ (''),
/* preprocessor_version */ 'ST-DEVELOPER v20',
/* originating_system */ 'ONSHAPE BY PTC INC, 1.215',
/* authorisation */ '  ');

FILE_SCHEMA (('AP242_MANAGED_MODEL_BASED_3D_ENGINEERING_MIM_LF { 1 0 10303 442 3 1 4 }'));
ENDSEC;

DATA;
#10=SHAPE_REPRESENTATION_RELATIONSHIP('','',#938,#11);
#11=ADVANCED_BREP_SHAPE_REPRESENTATION('',(#936),#1477);
#12=PLANE('',#945);
#13=PLANE('',#946);
#14=PLANE('',#947);
#15=PLANE('',#948);
#16=PLANE('',#949);
#17=PLANE('',#950);
#18=PLANE('',#951);
#19=PLANE('',#952);
#20=PLANE('',#953);
#21=PLANE('',#954);
#22=PLANE('',#955);
#23=PLANE('',#956);
#24=PLANE('',#957);
#25=PLANE('',#961);
#26=PLANE('',#962);
#27=PLANE('',#963);
#28=PLANE('',#964);
#29=PLANE('',#965);
#30=PLANE('',#966);
#31=PLANE('',#967);
#32=PLANE('',#968);
#33=PLANE('',#969);
#34=PLANE('',#970);
#35=PLANE('',#971);
#36=PLANE('',#972);
#37=PLANE('',#973);
#38=PLANE('',#974);
#39=PLANE('',#975);
#40=PLANE('',#976);
#41=PLANE('',#977);
#42=PLANE('',#978);
#43=PLANE('',#979);
#44=PLANE('',#980);
#45=PLANE('',#981);
#46=PLANE('',#982);
#47=PLANE('',#983);
#48=PLANE('',#984);
#49=PLANE('',#985);
#50=PLANE('',#986);
#51=PLANE('',#987);
#52=PLANE('',#988);
#53=PLANE('',#989);
#54=PLANE('',#990);
#55=CIRCLE('',#942,0.002);
#56=CIRCLE('',#944,0.002);
#57=CIRCLE('',#959,0.00515);
#58=CIRCLE('',#960,0.00515);
#59=LINE('',#1222,#181);
#60=LINE('',#1226,#182);
#61=LINE('',#1228,#183);
#62=LINE('',#1230,#184);
#63=LINE('',#1234,#185);
#64=LINE('',#1237,#186);
#65=LINE('',#1239,#187);
#66=LINE('',#1241,#188);
#67=LINE('',#1243,#189);
#68=LINE('',#1245,#190);
#69=LINE('',#1247,#191);
#70=LINE('',#1250,#192);
#71=LINE('',#1251,#193);
#72=LINE('',#1253,#194);
#73=LINE('',#1255,#195);
#74=LINE('',#1257,#196);
#75=LINE('',#1260,#197);
#76=LINE('',#1262,#198);
#77=LINE('',#1264,#199);
#78=LINE('',#1266,#200);
#79=LINE('',#1268,#201);
#80=LINE('',#1269,#202);
#81=LINE('',#1272,#203);
#82=LINE('',#1274,#204);
#83=LINE('',#1276,#205);
#84=LINE('',#1278,#206);
#85=LINE('',#1280,#207);
#86=LINE('',#1282,#208);
#87=LINE('',#1284,#209);
#88=LINE('',#1285,#210);
#89=LINE('',#1288,#211);
#90=LINE('',#1290,#212);
#91=LINE('',#1292,#213);
#92=LINE('',#1294,#214);
#93=LINE('',#1296,#215);
#94=LINE('',#1298,#216);
#95=LINE('',#1300,#217);
#96=LINE('',#1301,#218);
#97=LINE('',#1303,#219);
#98=LINE('',#1305,#220);
#99=LINE('',#1307,#221);
#100=LINE('',#1309,#222);
#101=LINE('',#1310,#223);
#102=LINE('',#1312,#224);
#103=LINE('',#1314,#225);
#104=LINE('',#1316,#226);
#105=LINE('',#1319,#227);
#106=LINE('',#1321,#228);
#107=LINE('',#1323,#229);
#108=LINE('',#1325,#230);
#109=LINE('',#1327,#231);
#110=LINE('',#1329,#232);
#111=LINE('',#1330,#233);
#112=LINE('',#1332,#234);
#113=LINE('',#1334,#235);
#114=LINE('',#1336,#236);
#115=LINE('',#1338,#237);
#116=LINE('',#1340,#238);
#117=LINE('',#1342,#239);
#118=LINE('',#1344,#240);
#119=LINE('',#1346,#241);
#120=LINE('',#1348,#242);
#121=LINE('',#1350,#243);
#122=LINE('',#1352,#244);
#123=LINE('',#1354,#245);
#124=LINE('',#1356,#246);
#125=LINE('',#1358,#247);
#126=LINE('',#1359,#248);
#127=LINE('',#1361,#249);
#128=LINE('',#1362,#250);
#129=LINE('',#1364,#251);
#130=LINE('',#1365,#252);
#131=LINE('',#1368,#253);
#132=LINE('',#1370,#254);
#133=LINE('',#1372,#255);
#134=LINE('',#1374,#256);
#135=LINE('',#1376,#257);
#136=LINE('',#1377,#258);
#137=LINE('',#1380,#259);
#138=LINE('',#1382,#260);
#139=LINE('',#1384,#261);
#140=LINE('',#1386,#262);
#141=LINE('',#1388,#263);
#142=LINE('',#1390,#264);
#143=LINE('',#1392,#265);
#144=LINE('',#1393,#266);
#145=LINE('',#1396,#267);
#146=LINE('',#1398,#268);
#147=LINE('',#1400,#269);
#148=LINE('',#1402,#270);
#149=LINE('',#1404,#271);
#150=LINE('',#1406,#272);
#151=LINE('',#1408,#273);
#152=LINE('',#1410,#274);
#153=LINE('',#1412,#275);
#154=LINE('',#1414,#276);
#155=LINE('',#1423,#277);
#156=LINE('',#1424,#278);
#157=LINE('',#1426,#279);
#158=LINE('',#1428,#280);
#159=LINE('',#1430,#281);
#160=LINE('',#1432,#282);
#161=LINE('',#1434,#283);
#162=LINE('',#1436,#284);
#163=LINE('',#1439,#285);
#164=LINE('',#1440,#286);
#165=LINE('',#1442,#287);
#166=LINE('',#1444,#288);
#167=LINE('',#1446,#289);
#168=LINE('',#1448,#290);
#169=LINE('',#1450,#291);
#170=LINE('',#1452,#292);
#171=LINE('',#1455,#293);
#172=LINE('',#1457,#294);
#173=LINE('',#1460,#295);
#174=LINE('',#1461,#296);
#175=LINE('',#1463,#297);
#176=LINE('',#1465,#298);
#177=LINE('',#1467,#299);
#178=LINE('',#1469,#300);
#179=LINE('',#1472,#301);
#180=LINE('',#1474,#302);
#181=VECTOR('',#997,1.);
#182=VECTOR('',#1000,1.);
#183=VECTOR('',#1003,1.);
#184=VECTOR('',#1004,1.);
#185=VECTOR('',#1009,1.);
#186=VECTOR('',#1010,1.);
#187=VECTOR('',#1011,1.);
#188=VECTOR('',#1012,1.);
#189=VECTOR('',#1013,1.);
#190=VECTOR('',#1014,1.);
#191=VECTOR('',#1017,1.);
#192=VECTOR('',#1018,1.);
#193=VECTOR('',#1019,1.);
#194=VECTOR('',#1020,1.);
#195=VECTOR('',#1021,1.);
#196=VECTOR('',#1024,1.);
#197=VECTOR('',#1025,1.);
#198=VECTOR('',#1026,1.);
#199=VECTOR('',#1027,1.);
#200=VECTOR('',#1028,1.);
#201=VECTOR('',#1029,1.);
#202=VECTOR('',#1030,1.);
#203=VECTOR('',#1031,1.);
#204=VECTOR('',#1032,1.);
#205=VECTOR('',#1033,1.);
#206=VECTOR('',#1034,1.);
#207=VECTOR('',#1035,1.);
#208=VECTOR('',#1036,1.);
#209=VECTOR('',#1037,1.);
#210=VECTOR('',#1038,1.);
#211=VECTOR('',#1039,1.);
#212=VECTOR('',#1040,1.);
#213=VECTOR('',#1041,1.);
#214=VECTOR('',#1042,1.);
#215=VECTOR('',#1043,1.);
#216=VECTOR('',#1044,1.);
#217=VECTOR('',#1045,1.);
#218=VECTOR('',#1046,1.);
#219=VECTOR('',#1047,1.);
#220=VECTOR('',#1048,1.);
#221=VECTOR('',#1049,1.);
#222=VECTOR('',#1050,1.);
#223=VECTOR('',#1051,1.);
#224=VECTOR('',#1052,1.);
#225=VECTOR('',#1053,1.);
#226=VECTOR('',#1056,1.);
#227=VECTOR('',#1057,1.);
#228=VECTOR('',#1058,1.);
#229=VECTOR('',#1059,1.);
#230=VECTOR('',#1060,1.);
#231=VECTOR('',#1061,1.);
#232=VECTOR('',#1064,1.);
#233=VECTOR('',#1065,1.);
#234=VECTOR('',#1066,1.);
#235=VECTOR('',#1067,1.);
#236=VECTOR('',#1070,1.);
#237=VECTOR('',#1073,1.);
#238=VECTOR('',#1076,1.);
#239=VECTOR('',#1077,1.);
#240=VECTOR('',#1078,1.);
#241=VECTOR('',#1081,1.);
#242=VECTOR('',#1082,1.);
#243=VECTOR('',#1085,1.);
#244=VECTOR('',#1088,1.);
#245=VECTOR('',#1089,1.);
#246=VECTOR('',#1090,1.);
#247=VECTOR('',#1091,1.);
#248=VECTOR('',#1092,1.);
#249=VECTOR('',#1093,1.);
#250=VECTOR('',#1094,1.);
#251=VECTOR('',#1095,1.);
#252=VECTOR('',#1096,1.);
#253=VECTOR('',#1097,1.);
#254=VECTOR('',#1098,1.);
#255=VECTOR('',#1099,1.);
#256=VECTOR('',#1100,1.);
#257=VECTOR('',#1101,1.);
#258=VECTOR('',#1102,1.);
#259=VECTOR('',#1103,1.);
#260=VECTOR('',#1104,1.);
#261=VECTOR('',#1105,1.);
#262=VECTOR('',#1106,1.);
#263=VECTOR('',#1107,1.);
#264=VECTOR('',#1108,1.);
#265=VECTOR('',#1109,1.);
#266=VECTOR('',#1110,1.);
#267=VECTOR('',#1111,1.);
#268=VECTOR('',#1112,1.);
#269=VECTOR('',#1113,1.);
#270=VECTOR('',#1114,1.);
#271=VECTOR('',#1115,1.);
#272=VECTOR('',#1116,1.);
#273=VECTOR('',#1117,1.);
#274=VECTOR('',#1120,1.);
#275=VECTOR('',#1121,1.);
#276=VECTOR('',#1124,1.);
#277=VECTOR('',#1137,1.);
#278=VECTOR('',#1138,1.);
#279=VECTOR('',#1141,1.);
#280=VECTOR('',#1144,1.);
#281=VECTOR('',#1147,1.);
#282=VECTOR('',#1150,1.);
#283=VECTOR('',#1153,1.);
#284=VECTOR('',#1156,1.);
#285=VECTOR('',#1161,1.);
#286=VECTOR('',#1162,1.);
#287=VECTOR('',#1165,1.);
#288=VECTOR('',#1168,1.);
#289=VECTOR('',#1171,1.);
#290=VECTOR('',#1174,1.);
#291=VECTOR('',#1177,1.);
#292=VECTOR('',#1180,1.);
#293=VECTOR('',#1185,1.);
#294=VECTOR('',#1188,1.);
#295=VECTOR('',#1193,1.);
#296=VECTOR('',#1194,1.);
#297=VECTOR('',#1197,1.);
#298=VECTOR('',#1200,1.);
#299=VECTOR('',#1203,1.);
#300=VECTOR('',#1206,1.);
#301=VECTOR('',#1211,1.);
#302=VECTOR('',#1214,1.);
#303=ORIENTED_EDGE('',*,*,#557,.F.);
#304=ORIENTED_EDGE('',*,*,#558,.F.);
#305=ORIENTED_EDGE('',*,*,#559,.F.);
#306=ORIENTED_EDGE('',*,*,#560,.F.);
#307=ORIENTED_EDGE('',*,*,#561,.F.);
#308=ORIENTED_EDGE('',*,*,#557,.T.);
#309=ORIENTED_EDGE('',*,*,#562,.F.);
#310=ORIENTED_EDGE('',*,*,#563,.F.);
#311=ORIENTED_EDGE('',*,*,#564,.F.);
#312=ORIENTED_EDGE('',*,*,#565,.T.);
#313=ORIENTED_EDGE('',*,*,#566,.T.);
#314=ORIENTED_EDGE('',*,*,#567,.F.);
#315=ORIENTED_EDGE('',*,*,#568,.T.);
#316=ORIENTED_EDGE('',*,*,#569,.T.);
#317=ORIENTED_EDGE('',*,*,#570,.F.);
#318=ORIENTED_EDGE('',*,*,#571,.T.);
#319=ORIENTED_EDGE('',*,*,#569,.F.);
#320=ORIENTED_EDGE('',*,*,#572,.F.);
#321=ORIENTED_EDGE('',*,*,#573,.T.);
#322=ORIENTED_EDGE('',*,*,#574,.F.);
#323=ORIENTED_EDGE('',*,*,#575,.F.);
#324=ORIENTED_EDGE('',*,*,#576,.F.);
#325=ORIENTED_EDGE('',*,*,#577,.F.);
#326=ORIENTED_EDGE('',*,*,#578,.T.);
#327=ORIENTED_EDGE('',*,*,#579,.T.);
#328=ORIENTED_EDGE('',*,*,#580,.T.);
#329=ORIENTED_EDGE('',*,*,#581,.F.);
#330=ORIENTED_EDGE('',*,*,#582,.F.);
#331=ORIENTED_EDGE('',*,*,#583,.T.);
#332=ORIENTED_EDGE('',*,*,#584,.T.);
#333=ORIENTED_EDGE('',*,*,#585,.T.);
#334=ORIENTED_EDGE('',*,*,#586,.F.);
#335=ORIENTED_EDGE('',*,*,#587,.T.);
#336=ORIENTED_EDGE('',*,*,#588,.T.);
#337=ORIENTED_EDGE('',*,*,#589,.T.);
#338=ORIENTED_EDGE('',*,*,#590,.F.);
#339=ORIENTED_EDGE('',*,*,#591,.F.);
#340=ORIENTED_EDGE('',*,*,#592,.T.);
#341=ORIENTED_EDGE('',*,*,#593,.T.);
#342=ORIENTED_EDGE('',*,*,#594,.F.);
#343=ORIENTED_EDGE('',*,*,#595,.F.);
#344=ORIENTED_EDGE('',*,*,#596,.F.);
#345=ORIENTED_EDGE('',*,*,#597,.F.);
#346=ORIENTED_EDGE('',*,*,#558,.T.);
#347=ORIENTED_EDGE('',*,*,#561,.T.);
#348=ORIENTED_EDGE('',*,*,#598,.T.);
#349=ORIENTED_EDGE('',*,*,#599,.F.);
#350=ORIENTED_EDGE('',*,*,#600,.T.);
#351=ORIENTED_EDGE('',*,*,#601,.T.);
#352=ORIENTED_EDGE('',*,*,#564,.T.);
#353=ORIENTED_EDGE('',*,*,#571,.F.);
#354=ORIENTED_EDGE('',*,*,#602,.T.);
#355=ORIENTED_EDGE('',*,*,#603,.F.);
#356=ORIENTED_EDGE('',*,*,#604,.F.);
#357=ORIENTED_EDGE('',*,*,#605,.T.);
#358=ORIENTED_EDGE('',*,*,#606,.F.);
#359=ORIENTED_EDGE('',*,*,#607,.F.);
#360=ORIENTED_EDGE('',*,*,#608,.T.);
#361=ORIENTED_EDGE('',*,*,#609,.T.);
#362=ORIENTED_EDGE('',*,*,#610,.F.);
#363=ORIENTED_EDGE('',*,*,#598,.F.);
#364=ORIENTED_EDGE('',*,*,#563,.T.);
#365=ORIENTED_EDGE('',*,*,#611,.F.);
#366=ORIENTED_EDGE('',*,*,#606,.T.);
#367=ORIENTED_EDGE('',*,*,#612,.T.);
#368=ORIENTED_EDGE('',*,*,#613,.T.);
#369=ORIENTED_EDGE('',*,*,#614,.F.);
#370=ORIENTED_EDGE('',*,*,#611,.T.);
#371=ORIENTED_EDGE('',*,*,#562,.T.);
#372=ORIENTED_EDGE('',*,*,#615,.F.);
#373=ORIENTED_EDGE('',*,*,#607,.T.);
#374=ORIENTED_EDGE('',*,*,#615,.T.);
#375=ORIENTED_EDGE('',*,*,#560,.T.);
#376=ORIENTED_EDGE('',*,*,#616,.F.);
#377=ORIENTED_EDGE('',*,*,#608,.F.);
#378=ORIENTED_EDGE('',*,*,#616,.T.);
#379=ORIENTED_EDGE('',*,*,#559,.T.);
#380=ORIENTED_EDGE('',*,*,#597,.T.);
#381=ORIENTED_EDGE('',*,*,#617,.T.);
#382=ORIENTED_EDGE('',*,*,#618,.F.);
#383=ORIENTED_EDGE('',*,*,#619,.T.);
#384=ORIENTED_EDGE('',*,*,#609,.F.);
#385=ORIENTED_EDGE('',*,*,#620,.T.);
#386=ORIENTED_EDGE('',*,*,#612,.F.);
#387=ORIENTED_EDGE('',*,*,#605,.F.);
#388=ORIENTED_EDGE('',*,*,#621,.T.);
#389=ORIENTED_EDGE('',*,*,#622,.F.);
#390=ORIENTED_EDGE('',*,*,#621,.F.);
#391=ORIENTED_EDGE('',*,*,#610,.T.);
#392=ORIENTED_EDGE('',*,*,#619,.F.);
#393=ORIENTED_EDGE('',*,*,#623,.F.);
#394=ORIENTED_EDGE('',*,*,#613,.F.);
#395=ORIENTED_EDGE('',*,*,#620,.F.);
#396=ORIENTED_EDGE('',*,*,#622,.T.);
#397=ORIENTED_EDGE('',*,*,#618,.T.);
#398=ORIENTED_EDGE('',*,*,#624,.F.);
#399=ORIENTED_EDGE('',*,*,#625,.F.);
#400=ORIENTED_EDGE('',*,*,#626,.T.);
#401=ORIENTED_EDGE('',*,*,#574,.T.);
#402=ORIENTED_EDGE('',*,*,#627,.F.);
#403=ORIENTED_EDGE('',*,*,#628,.T.);
#404=ORIENTED_EDGE('',*,*,#566,.F.);
#405=ORIENTED_EDGE('',*,*,#629,.T.);
#406=ORIENTED_EDGE('',*,*,#630,.T.);
#407=ORIENTED_EDGE('',*,*,#631,.F.);
#408=ORIENTED_EDGE('',*,*,#632,.F.);
#409=ORIENTED_EDGE('',*,*,#633,.T.);
#410=ORIENTED_EDGE('',*,*,#634,.T.);
#411=ORIENTED_EDGE('',*,*,#635,.T.);
#412=ORIENTED_EDGE('',*,*,#636,.F.);
#413=ORIENTED_EDGE('',*,*,#637,.F.);
#414=ORIENTED_EDGE('',*,*,#638,.F.);
#415=ORIENTED_EDGE('',*,*,#639,.T.);
#416=ORIENTED_EDGE('',*,*,#640,.T.);
#417=ORIENTED_EDGE('',*,*,#641,.F.);
#418=ORIENTED_EDGE('',*,*,#642,.T.);
#419=ORIENTED_EDGE('',*,*,#643,.T.);
#420=ORIENTED_EDGE('',*,*,#644,.T.);
#421=ORIENTED_EDGE('',*,*,#645,.F.);
#422=ORIENTED_EDGE('',*,*,#646,.T.);
#423=ORIENTED_EDGE('',*,*,#647,.F.);
#424=ORIENTED_EDGE('',*,*,#648,.F.);
#425=ORIENTED_EDGE('',*,*,#649,.F.);
#426=ORIENTED_EDGE('',*,*,#650,.T.);
#427=ORIENTED_EDGE('',*,*,#651,.T.);
#428=ORIENTED_EDGE('',*,*,#652,.F.);
#429=ORIENTED_EDGE('',*,*,#628,.F.);
#430=ORIENTED_EDGE('',*,*,#653,.F.);
#431=ORIENTED_EDGE('',*,*,#654,.T.);
#432=ORIENTED_EDGE('',*,*,#567,.T.);
#433=ORIENTED_EDGE('',*,*,#627,.T.);
#434=ORIENTED_EDGE('',*,*,#573,.F.);
#435=ORIENTED_EDGE('',*,*,#655,.F.);
#436=ORIENTED_EDGE('',*,*,#653,.T.);
#437=ORIENTED_EDGE('',*,*,#656,.T.);
#438=ORIENTED_EDGE('',*,*,#657,.T.);
#439=ORIENTED_EDGE('',*,*,#654,.F.);
#440=ORIENTED_EDGE('',*,*,#655,.T.);
#441=ORIENTED_EDGE('',*,*,#572,.T.);
#442=ORIENTED_EDGE('',*,*,#568,.F.);
#443=ORIENTED_EDGE('',*,*,#656,.F.);
#444=ORIENTED_EDGE('',*,*,#657,.F.);
#445=ORIENTED_EDGE('',*,*,#645,.T.);
#446=ORIENTED_EDGE('',*,*,#658,.T.);
#447=ORIENTED_EDGE('',*,*,#590,.T.);
#448=ORIENTED_EDGE('',*,*,#659,.F.);
#449=ORIENTED_EDGE('',*,*,#652,.T.);
#450=ORIENTED_EDGE('',*,*,#660,.T.);
#451=ORIENTED_EDGE('',*,*,#591,.T.);
#452=ORIENTED_EDGE('',*,*,#658,.F.);
#453=ORIENTED_EDGE('',*,*,#661,.T.);
#454=ORIENTED_EDGE('',*,*,#592,.F.);
#455=ORIENTED_EDGE('',*,*,#660,.F.);
#456=ORIENTED_EDGE('',*,*,#651,.F.);
#457=ORIENTED_EDGE('',*,*,#662,.T.);
#458=ORIENTED_EDGE('',*,*,#593,.F.);
#459=ORIENTED_EDGE('',*,*,#661,.F.);
#460=ORIENTED_EDGE('',*,*,#650,.F.);
#461=ORIENTED_EDGE('',*,*,#649,.T.);
#462=ORIENTED_EDGE('',*,*,#663,.T.);
#463=ORIENTED_EDGE('',*,*,#594,.T.);
#464=ORIENTED_EDGE('',*,*,#662,.F.);
#465=ORIENTED_EDGE('',*,*,#648,.T.);
#466=ORIENTED_EDGE('',*,*,#664,.T.);
#467=ORIENTED_EDGE('',*,*,#595,.T.);
#468=ORIENTED_EDGE('',*,*,#663,.F.);
#469=ORIENTED_EDGE('',*,*,#647,.T.);
#470=ORIENTED_EDGE('',*,*,#665,.T.);
#471=ORIENTED_EDGE('',*,*,#596,.T.);
#472=ORIENTED_EDGE('',*,*,#664,.F.);
#473=ORIENTED_EDGE('',*,*,#659,.T.);
#474=ORIENTED_EDGE('',*,*,#589,.F.);
#475=ORIENTED_EDGE('',*,*,#665,.F.);
#476=ORIENTED_EDGE('',*,*,#646,.F.);
#477=ORIENTED_EDGE('',*,*,#637,.T.);
#478=ORIENTED_EDGE('',*,*,#666,.T.);
#479=ORIENTED_EDGE('',*,*,#582,.T.);
#480=ORIENTED_EDGE('',*,*,#667,.F.);
#481=ORIENTED_EDGE('',*,*,#668,.T.);
#482=ORIENTED_EDGE('',*,*,#583,.F.);
#483=ORIENTED_EDGE('',*,*,#666,.F.);
#484=ORIENTED_EDGE('',*,*,#644,.F.);
#485=ORIENTED_EDGE('',*,*,#669,.T.);
#486=ORIENTED_EDGE('',*,*,#584,.F.);
#487=ORIENTED_EDGE('',*,*,#668,.F.);
#488=ORIENTED_EDGE('',*,*,#643,.F.);
#489=ORIENTED_EDGE('',*,*,#670,.T.);
#490=ORIENTED_EDGE('',*,*,#585,.F.);
#491=ORIENTED_EDGE('',*,*,#669,.F.);
#492=ORIENTED_EDGE('',*,*,#642,.F.);
#493=ORIENTED_EDGE('',*,*,#641,.T.);
#494=ORIENTED_EDGE('',*,*,#671,.T.);
#495=ORIENTED_EDGE('',*,*,#586,.T.);
#496=ORIENTED_EDGE('',*,*,#670,.F.);
#497=ORIENTED_EDGE('',*,*,#672,.T.);
#498=ORIENTED_EDGE('',*,*,#587,.F.);
#499=ORIENTED_EDGE('',*,*,#671,.F.);
#500=ORIENTED_EDGE('',*,*,#640,.F.);
#501=ORIENTED_EDGE('',*,*,#673,.T.);
#502=ORIENTED_EDGE('',*,*,#588,.F.);
#503=ORIENTED_EDGE('',*,*,#672,.F.);
#504=ORIENTED_EDGE('',*,*,#639,.F.);
#505=ORIENTED_EDGE('',*,*,#638,.T.);
#506=ORIENTED_EDGE('',*,*,#667,.T.);
#507=ORIENTED_EDGE('',*,*,#581,.T.);
#508=ORIENTED_EDGE('',*,*,#673,.F.);
#509=ORIENTED_EDGE('',*,*,#604,.T.);
#510=ORIENTED_EDGE('',*,*,#674,.F.);
#511=ORIENTED_EDGE('',*,*,#624,.T.);
#512=ORIENTED_EDGE('',*,*,#617,.F.);
#513=ORIENTED_EDGE('',*,*,#570,.T.);
#514=ORIENTED_EDGE('',*,*,#626,.F.);
#515=ORIENTED_EDGE('',*,*,#675,.T.);
#516=ORIENTED_EDGE('',*,*,#602,.F.);
#517=ORIENTED_EDGE('',*,*,#625,.T.);
#518=ORIENTED_EDGE('',*,*,#674,.T.);
#519=ORIENTED_EDGE('',*,*,#603,.T.);
#520=ORIENTED_EDGE('',*,*,#675,.F.);
#521=ORIENTED_EDGE('',*,*,#631,.T.);
#522=ORIENTED_EDGE('',*,*,#676,.T.);
#523=ORIENTED_EDGE('',*,*,#576,.T.);
#524=ORIENTED_EDGE('',*,*,#677,.F.);
#525=ORIENTED_EDGE('',*,*,#636,.T.);
#526=ORIENTED_EDGE('',*,*,#678,.T.);
#527=ORIENTED_EDGE('',*,*,#577,.T.);
#528=ORIENTED_EDGE('',*,*,#676,.F.);
#529=ORIENTED_EDGE('',*,*,#679,.T.);
#530=ORIENTED_EDGE('',*,*,#578,.F.);
#531=ORIENTED_EDGE('',*,*,#678,.F.);
#532=ORIENTED_EDGE('',*,*,#635,.F.);
#533=ORIENTED_EDGE('',*,*,#680,.T.);
#534=ORIENTED_EDGE('',*,*,#579,.F.);
#535=ORIENTED_EDGE('',*,*,#679,.F.);
#536=ORIENTED_EDGE('',*,*,#634,.F.);
#537=ORIENTED_EDGE('',*,*,#681,.T.);
#538=ORIENTED_EDGE('',*,*,#580,.F.);
#539=ORIENTED_EDGE('',*,*,#680,.F.);
#540=ORIENTED_EDGE('',*,*,#633,.F.);
#541=ORIENTED_EDGE('',*,*,#632,.T.);
#542=ORIENTED_EDGE('',*,*,#677,.T.);
#543=ORIENTED_EDGE('',*,*,#575,.T.);
#544=ORIENTED_EDGE('',*,*,#681,.F.);
#545=ORIENTED_EDGE('',*,*,#614,.T.);
#546=ORIENTED_EDGE('',*,*,#623,.T.);
#547=ORIENTED_EDGE('',*,*,#682,.T.);
#548=ORIENTED_EDGE('',*,*,#599,.T.);
#549=ORIENTED_EDGE('',*,*,#683,.T.);
#550=ORIENTED_EDGE('',*,*,#600,.F.);
#551=ORIENTED_EDGE('',*,*,#682,.F.);
#552=ORIENTED_EDGE('',*,*,#630,.F.);
#553=ORIENTED_EDGE('',*,*,#601,.F.);
#554=ORIENTED_EDGE('',*,*,#683,.F.);
#555=ORIENTED_EDGE('',*,*,#629,.F.);
#556=ORIENTED_EDGE('',*,*,#565,.F.);
#557=EDGE_CURVE('',#684,#685,#769,.F.);
#558=EDGE_CURVE('',#686,#684,#59,.T.);
#559=EDGE_CURVE('',#687,#686,#55,.F.);
#560=EDGE_CURVE('',#685,#687,#60,.F.);
#561=EDGE_CURVE('',#684,#688,#61,.T.);
#562=EDGE_CURVE('',#689,#685,#62,.F.);
#563=EDGE_CURVE('',#688,#689,#56,.T.);
#564=EDGE_CURVE('',#690,#691,#63,.T.);
#565=EDGE_CURVE('',#690,#692,#64,.T.);
#566=EDGE_CURVE('',#692,#693,#65,.T.);
#567=EDGE_CURVE('',#694,#693,#66,.T.);
#568=EDGE_CURVE('',#694,#695,#67,.T.);
#569=EDGE_CURVE('',#695,#691,#68,.T.);
#570=EDGE_CURVE('',#696,#697,#69,.T.);
#571=EDGE_CURVE('',#696,#691,#70,.T.);
#572=EDGE_CURVE('',#698,#695,#71,.T.);
#573=EDGE_CURVE('',#698,#699,#72,.T.);
#574=EDGE_CURVE('',#697,#699,#73,.T.);
#575=EDGE_CURVE('',#700,#701,#74,.T.);
#576=EDGE_CURVE('',#702,#700,#75,.T.);
#577=EDGE_CURVE('',#703,#702,#76,.T.);
#578=EDGE_CURVE('',#703,#704,#77,.T.);
#579=EDGE_CURVE('',#704,#705,#78,.T.);
#580=EDGE_CURVE('',#705,#701,#79,.T.);
#581=EDGE_CURVE('',#706,#707,#80,.T.);
#582=EDGE_CURVE('',#708,#706,#81,.T.);
#583=EDGE_CURVE('',#708,#709,#82,.T.);
#584=EDGE_CURVE('',#709,#710,#83,.T.);
#585=EDGE_CURVE('',#710,#711,#84,.T.);
#586=EDGE_CURVE('',#712,#711,#85,.T.);
#587=EDGE_CURVE('',#712,#713,#86,.T.);
#588=EDGE_CURVE('',#713,#707,#87,.T.);
#589=EDGE_CURVE('',#714,#715,#88,.T.);
#590=EDGE_CURVE('',#716,#715,#89,.T.);
#591=EDGE_CURVE('',#717,#716,#90,.T.);
#592=EDGE_CURVE('',#717,#718,#91,.T.);
#593=EDGE_CURVE('',#718,#719,#92,.T.);
#594=EDGE_CURVE('',#720,#719,#93,.T.);
#595=EDGE_CURVE('',#721,#720,#94,.T.);
#596=EDGE_CURVE('',#714,#721,#95,.T.);
#597=EDGE_CURVE('',#686,#722,#96,.T.);
#598=EDGE_CURVE('',#688,#723,#97,.T.);
#599=EDGE_CURVE('',#724,#723,#98,.T.);
#600=EDGE_CURVE('',#724,#725,#99,.T.);
#601=EDGE_CURVE('',#725,#690,#100,.T.);
#602=EDGE_CURVE('',#696,#726,#101,.T.);
#603=EDGE_CURVE('',#727,#726,#102,.T.);
#604=EDGE_CURVE('',#722,#727,#103,.T.);
#605=EDGE_CURVE('',#728,#729,#104,.T.);
#606=EDGE_CURVE('',#730,#729,#105,.T.);
#607=EDGE_CURVE('',#731,#730,#106,.T.);
#608=EDGE_CURVE('',#731,#732,#107,.T.);
#609=EDGE_CURVE('',#732,#733,#108,.T.);
#610=EDGE_CURVE('',#728,#733,#109,.T.);
#611=EDGE_CURVE('',#730,#689,#110,.T.);
#612=EDGE_CURVE('',#729,#734,#111,.T.);
#613=EDGE_CURVE('',#734,#735,#112,.T.);
#614=EDGE_CURVE('',#723,#735,#113,.T.);
#615=EDGE_CURVE('',#731,#685,#114,.T.);
#616=EDGE_CURVE('',#732,#687,#115,.T.);
#617=EDGE_CURVE('',#722,#736,#116,.T.);
#618=EDGE_CURVE('',#737,#736,#117,.T.);
#619=EDGE_CURVE('',#737,#733,#118,.T.);
#620=EDGE_CURVE('',#738,#734,#119,.T.);
#621=EDGE_CURVE('',#728,#738,#120,.T.);
#622=EDGE_CURVE('',#738,#737,#121,.T.);
#623=EDGE_CURVE('',#735,#739,#122,.T.);
#624=EDGE_CURVE('',#740,#736,#123,.T.);
#625=EDGE_CURVE('',#741,#740,#124,.T.);
#626=EDGE_CURVE('',#741,#697,#125,.T.);
#627=EDGE_CURVE('',#742,#699,#126,.T.);
#628=EDGE_CURVE('',#742,#693,#127,.T.);
#629=EDGE_CURVE('',#692,#743,#128,.T.);
#630=EDGE_CURVE('',#743,#739,#129,.T.);
#631=EDGE_CURVE('',#744,#745,#130,.T.);
#632=EDGE_CURVE('',#746,#744,#131,.T.);
#633=EDGE_CURVE('',#746,#747,#132,.T.);
#634=EDGE_CURVE('',#747,#748,#133,.T.);
#635=EDGE_CURVE('',#748,#749,#134,.T.);
#636=EDGE_CURVE('',#745,#749,#135,.T.);
#637=EDGE_CURVE('',#750,#751,#136,.T.);
#638=EDGE_CURVE('',#752,#750,#137,.T.);
#639=EDGE_CURVE('',#752,#753,#138,.T.);
#640=EDGE_CURVE('',#753,#754,#139,.T.);
#641=EDGE_CURVE('',#755,#754,#140,.T.);
#642=EDGE_CURVE('',#755,#756,#141,.T.);
#643=EDGE_CURVE('',#756,#757,#142,.T.);
#644=EDGE_CURVE('',#757,#751,#143,.T.);
#645=EDGE_CURVE('',#758,#759,#144,.T.);
#646=EDGE_CURVE('',#758,#760,#145,.T.);
#647=EDGE_CURVE('',#761,#760,#146,.T.);
#648=EDGE_CURVE('',#762,#761,#147,.T.);
#649=EDGE_CURVE('',#763,#762,#148,.T.);
#650=EDGE_CURVE('',#763,#764,#149,.T.);
#651=EDGE_CURVE('',#764,#765,#150,.T.);
#652=EDGE_CURVE('',#759,#765,#151,.T.);
#653=EDGE_CURVE('',#766,#742,#152,.T.);
#654=EDGE_CURVE('',#766,#694,#153,.T.);
#655=EDGE_CURVE('',#766,#698,#154,.T.);
#656=EDGE_CURVE('',#767,#767,#57,.T.);
#657=EDGE_CURVE('',#768,#768,#58,.F.);
#658=EDGE_CURVE('',#759,#716,#155,.T.);
#659=EDGE_CURVE('',#758,#715,#156,.T.);
#660=EDGE_CURVE('',#765,#717,#157,.T.);
#661=EDGE_CURVE('',#764,#718,#158,.T.);
#662=EDGE_CURVE('',#763,#719,#159,.T.);
#663=EDGE_CURVE('',#762,#720,#160,.T.);
#664=EDGE_CURVE('',#761,#721,#161,.T.);
#665=EDGE_CURVE('',#760,#714,#162,.T.);
#666=EDGE_CURVE('',#751,#708,#163,.T.);
#667=EDGE_CURVE('',#750,#706,#164,.T.);
#668=EDGE_CURVE('',#757,#709,#165,.T.);
#669=EDGE_CURVE('',#756,#710,#166,.T.);
#670=EDGE_CURVE('',#755,#711,#167,.T.);
#671=EDGE_CURVE('',#754,#712,#168,.T.);
#672=EDGE_CURVE('',#753,#713,#169,.T.);
#673=EDGE_CURVE('',#752,#707,#170,.T.);
#674=EDGE_CURVE('',#740,#727,#171,.T.);
#675=EDGE_CURVE('',#741,#726,#172,.T.);
#676=EDGE_CURVE('',#745,#702,#173,.T.);
#677=EDGE_CURVE('',#744,#700,#174,.T.);
#678=EDGE_CURVE('',#749,#703,#175,.T.);
#679=EDGE_CURVE('',#748,#704,#176,.T.);
#680=EDGE_CURVE('',#747,#705,#177,.T.);
#681=EDGE_CURVE('',#746,#701,#178,.T.);
#682=EDGE_CURVE('',#739,#724,#179,.T.);
#683=EDGE_CURVE('',#743,#725,#180,.T.);
#684=VERTEX_POINT('',#1220);
#685=VERTEX_POINT('',#1221);
#686=VERTEX_POINT('',#1223);
#687=VERTEX_POINT('',#1225);
#688=VERTEX_POINT('',#1229);
#689=VERTEX_POINT('',#1231);
#690=VERTEX_POINT('',#1235);
#691=VERTEX_POINT('',#1236);
#692=VERTEX_POINT('',#1238);
#693=VERTEX_POINT('',#1240);
#694=VERTEX_POINT('',#1242);
#695=VERTEX_POINT('',#1244);
#696=VERTEX_POINT('',#1248);
#697=VERTEX_POINT('',#1249);
#698=VERTEX_POINT('',#1252);
#699=VERTEX_POINT('',#1254);
#700=VERTEX_POINT('',#1258);
#701=VERTEX_POINT('',#1259);
#702=VERTEX_POINT('',#1261);
#703=VERTEX_POINT('',#1263);
#704=VERTEX_POINT('',#1265);
#705=VERTEX_POINT('',#1267);
#706=VERTEX_POINT('',#1270);
#707=VERTEX_POINT('',#1271);
#708=VERTEX_POINT('',#1273);
#709=VERTEX_POINT('',#1275);
#710=VERTEX_POINT('',#1277);
#711=VERTEX_POINT('',#1279);
#712=VERTEX_POINT('',#1281);
#713=VERTEX_POINT('',#1283);
#714=VERTEX_POINT('',#1286);
#715=VERTEX_POINT('',#1287);
#716=VERTEX_POINT('',#1289);
#717=VERTEX_POINT('',#1291);
#718=VERTEX_POINT('',#1293);
#719=VERTEX_POINT('',#1295);
#720=VERTEX_POINT('',#1297);
#721=VERTEX_POINT('',#1299);
#722=VERTEX_POINT('',#1302);
#723=VERTEX_POINT('',#1304);
#724=VERTEX_POINT('',#1306);
#725=VERTEX_POINT('',#1308);
#726=VERTEX_POINT('',#1311);
#727=VERTEX_POINT('',#1313);
#728=VERTEX_POINT('',#1317);
#729=VERTEX_POINT('',#1318);
#730=VERTEX_POINT('',#1320);
#731=VERTEX_POINT('',#1322);
#732=VERTEX_POINT('',#1324);
#733=VERTEX_POINT('',#1326);
#734=VERTEX_POINT('',#1331);
#735=VERTEX_POINT('',#1333);
#736=VERTEX_POINT('',#1341);
#737=VERTEX_POINT('',#1343);
#738=VERTEX_POINT('',#1347);
#739=VERTEX_POINT('',#1353);
#740=VERTEX_POINT('',#1355);
#741=VERTEX_POINT('',#1357);
#742=VERTEX_POINT('',#1360);
#743=VERTEX_POINT('',#1363);
#744=VERTEX_POINT('',#1366);
#745=VERTEX_POINT('',#1367);
#746=VERTEX_POINT('',#1369);
#747=VERTEX_POINT('',#1371);
#748=VERTEX_POINT('',#1373);
#749=VERTEX_POINT('',#1375);
#750=VERTEX_POINT('',#1378);
#751=VERTEX_POINT('',#1379);
#752=VERTEX_POINT('',#1381);
#753=VERTEX_POINT('',#1383);
#754=VERTEX_POINT('',#1385);
#755=VERTEX_POINT('',#1387);
#756=VERTEX_POINT('',#1389);
#757=VERTEX_POINT('',#1391);
#758=VERTEX_POINT('',#1394);
#759=VERTEX_POINT('',#1395);
#760=VERTEX_POINT('',#1397);
#761=VERTEX_POINT('',#1399);
#762=VERTEX_POINT('',#1401);
#763=VERTEX_POINT('',#1403);
#764=VERTEX_POINT('',#1405);
#765=VERTEX_POINT('',#1407);
#766=VERTEX_POINT('',#1411);
#767=VERTEX_POINT('',#1417);
#768=VERTEX_POINT('',#1419);
#769=ELLIPSE('',#941,0.00282842712474619,0.002);
#770=EDGE_LOOP('',(#303,#304,#305,#306));
#771=EDGE_LOOP('',(#307,#308,#309,#310));
#772=EDGE_LOOP('',(#311,#312,#313,#314,#315,#316));
#773=EDGE_LOOP('',(#317,#318,#319,#320,#321,#322));
#774=EDGE_LOOP('',(#323,#324,#325,#326,#327,#328));
#775=EDGE_LOOP('',(#329,#330,#331,#332,#333,#334,#335,#336));
#776=EDGE_LOOP('',(#337,#338,#339,#340,#341,#342,#343,#344));
#777=EDGE_LOOP('',(#345,#346,#347,#348,#349,#350,#351,#352,#353,#354,#355,
#356));
#778=EDGE_LOOP('',(#357,#358,#359,#360,#361,#362));
#779=EDGE_LOOP('',(#363,#364,#365,#366,#367,#368,#369));
#780=EDGE_LOOP('',(#370,#371,#372,#373));
#781=EDGE_LOOP('',(#374,#375,#376,#377));
#782=EDGE_LOOP('',(#378,#379,#380,#381,#382,#383,#384));
#783=EDGE_LOOP('',(#385,#386,#387,#388));
#784=EDGE_LOOP('',(#389,#390,#391,#392));
#785=EDGE_LOOP('',(#393,#394,#395,#396,#397,#398,#399,#400,#401,#402,#403,
#404,#405,#406));
#786=EDGE_LOOP('',(#407,#408,#409,#410,#411,#412));
#787=EDGE_LOOP('',(#413,#414,#415,#416,#417,#418,#419,#420));
#788=EDGE_LOOP('',(#421,#422,#423,#424,#425,#426,#427,#428));
#789=EDGE_LOOP('',(#429,#430,#431,#432));
#790=EDGE_LOOP('',(#433,#434,#435,#436));
#791=EDGE_LOOP('',(#437));
#792=EDGE_LOOP('',(#438));
#793=EDGE_LOOP('',(#439,#440,#441,#442));
#794=EDGE_LOOP('',(#443));
#795=EDGE_LOOP('',(#444));
#796=EDGE_LOOP('',(#445,#446,#447,#448));
#797=EDGE_LOOP('',(#449,#450,#451,#452));
#798=EDGE_LOOP('',(#453,#454,#455,#456));
#799=EDGE_LOOP('',(#457,#458,#459,#460));
#800=EDGE_LOOP('',(#461,#462,#463,#464));
#801=EDGE_LOOP('',(#465,#466,#467,#468));
#802=EDGE_LOOP('',(#469,#470,#471,#472));
#803=EDGE_LOOP('',(#473,#474,#475,#476));
#804=EDGE_LOOP('',(#477,#478,#479,#480));
#805=EDGE_LOOP('',(#481,#482,#483,#484));
#806=EDGE_LOOP('',(#485,#486,#487,#488));
#807=EDGE_LOOP('',(#489,#490,#491,#492));
#808=EDGE_LOOP('',(#493,#494,#495,#496));
#809=EDGE_LOOP('',(#497,#498,#499,#500));
#810=EDGE_LOOP('',(#501,#502,#503,#504));
#811=EDGE_LOOP('',(#505,#506,#507,#508));
#812=EDGE_LOOP('',(#509,#510,#511,#512));
#813=EDGE_LOOP('',(#513,#514,#515,#516));
#814=EDGE_LOOP('',(#517,#518,#519,#520));
#815=EDGE_LOOP('',(#521,#522,#523,#524));
#816=EDGE_LOOP('',(#525,#526,#527,#528));
#817=EDGE_LOOP('',(#529,#530,#531,#532));
#818=EDGE_LOOP('',(#533,#534,#535,#536));
#819=EDGE_LOOP('',(#537,#538,#539,#540));
#820=EDGE_LOOP('',(#541,#542,#543,#544));
#821=EDGE_LOOP('',(#545,#546,#547,#548));
#822=EDGE_LOOP('',(#549,#550,#551,#552));
#823=EDGE_LOOP('',(#553,#554,#555,#556));
#824=FACE_BOUND('',#770,.T.);
#825=FACE_BOUND('',#771,.T.);
#826=FACE_BOUND('',#772,.T.);
#827=FACE_BOUND('',#773,.T.);
#828=FACE_BOUND('',#774,.T.);
#829=FACE_BOUND('',#775,.T.);
#830=FACE_BOUND('',#776,.T.);
#831=FACE_BOUND('',#777,.T.);
#832=FACE_BOUND('',#778,.T.);
#833=FACE_BOUND('',#779,.T.);
#834=FACE_BOUND('',#780,.T.);
#835=FACE_BOUND('',#781,.T.);
#836=FACE_BOUND('',#782,.T.);
#837=FACE_BOUND('',#783,.T.);
#838=FACE_BOUND('',#784,.T.);
#839=FACE_BOUND('',#785,.T.);
#840=FACE_BOUND('',#786,.T.);
#841=FACE_BOUND('',#787,.T.);
#842=FACE_BOUND('',#788,.T.);
#843=FACE_BOUND('',#789,.T.);
#844=FACE_BOUND('',#790,.T.);
#845=FACE_BOUND('',#791,.T.);
#846=FACE_BOUND('',#792,.T.);
#847=FACE_BOUND('',#793,.T.);
#848=FACE_BOUND('',#794,.T.);
#849=FACE_BOUND('',#795,.T.);
#850=FACE_BOUND('',#796,.T.);
#851=FACE_BOUND('',#797,.T.);
#852=FACE_BOUND('',#798,.T.);
#853=FACE_BOUND('',#799,.T.);
#854=FACE_BOUND('',#800,.T.);
#855=FACE_BOUND('',#801,.T.);
#856=FACE_BOUND('',#802,.T.);
#857=FACE_BOUND('',#803,.T.);
#858=FACE_BOUND('',#804,.T.);
#859=FACE_BOUND('',#805,.T.);
#860=FACE_BOUND('',#806,.T.);
#861=FACE_BOUND('',#807,.T.);
#862=FACE_BOUND('',#808,.T.);
#863=FACE_BOUND('',#809,.T.);
#864=FACE_BOUND('',#810,.T.);
#865=FACE_BOUND('',#811,.T.);
#866=FACE_BOUND('',#812,.T.);
#867=FACE_BOUND('',#813,.T.);
#868=FACE_BOUND('',#814,.T.);
#869=FACE_BOUND('',#815,.T.);
#870=FACE_BOUND('',#816,.T.);
#871=FACE_BOUND('',#817,.T.);
#872=FACE_BOUND('',#818,.T.);
#873=FACE_BOUND('',#819,.T.);
#874=FACE_BOUND('',#820,.T.);
#875=FACE_BOUND('',#821,.T.);
#876=FACE_BOUND('',#822,.T.);
#877=FACE_BOUND('',#823,.T.);
#878=CYLINDRICAL_SURFACE('',#940,0.002);
#879=CYLINDRICAL_SURFACE('',#943,0.002);
#880=CYLINDRICAL_SURFACE('',#958,0.00515);
#881=ADVANCED_FACE('',(#824),#878,.T.);
#882=ADVANCED_FACE('',(#825),#879,.T.);
#883=ADVANCED_FACE('',(#826),#12,.T.);
#884=ADVANCED_FACE('',(#827),#13,.F.);
#885=ADVANCED_FACE('',(#828,#829,#830,#831),#14,.F.);
#886=ADVANCED_FACE('',(#832),#15,.T.);
#887=ADVANCED_FACE('',(#833),#16,.T.);
#888=ADVANCED_FACE('',(#834),#17,.T.);
#889=ADVANCED_FACE('',(#835),#18,.F.);
#890=ADVANCED_FACE('',(#836),#19,.F.);
#891=ADVANCED_FACE('',(#837),#20,.F.);
#892=ADVANCED_FACE('',(#838),#21,.T.);
#893=ADVANCED_FACE('',(#839,#840,#841,#842),#22,.T.);
#894=ADVANCED_FACE('',(#843),#23,.T.);
#895=ADVANCED_FACE('',(#844),#24,.F.);
#896=ADVANCED_FACE('',(#845,#846),#880,.F.);
#897=ADVANCED_FACE('',(#847,#848),#25,.T.);
#898=ADVANCED_FACE('',(#849),#26,.T.);
#899=ADVANCED_FACE('',(#850),#27,.F.);
#900=ADVANCED_FACE('',(#851),#28,.F.);
#901=ADVANCED_FACE('',(#852),#29,.T.);
#902=ADVANCED_FACE('',(#853),#30,.T.);
#903=ADVANCED_FACE('',(#854),#31,.F.);
#904=ADVANCED_FACE('',(#855),#32,.F.);
#905=ADVANCED_FACE('',(#856),#33,.F.);
#906=ADVANCED_FACE('',(#857),#34,.T.);
#907=ADVANCED_FACE('',(#858),#35,.F.);
#908=ADVANCED_FACE('',(#859),#36,.T.);
#909=ADVANCED_FACE('',(#860),#37,.T.);
#910=ADVANCED_FACE('',(#861),#38,.T.);
#911=ADVANCED_FACE('',(#862),#39,.F.);
#912=ADVANCED_FACE('',(#863),#40,.T.);
#913=ADVANCED_FACE('',(#864),#41,.T.);
#914=ADVANCED_FACE('',(#865),#42,.F.);
#915=ADVANCED_FACE('',(#866),#43,.F.);
#916=ADVANCED_FACE('',(#867),#44,.T.);
#917=ADVANCED_FACE('',(#868),#45,.F.);
#918=ADVANCED_FACE('',(#869),#46,.F.);
#919=ADVANCED_FACE('',(#870),#47,.F.);
#920=ADVANCED_FACE('',(#871),#48,.T.);
#921=ADVANCED_FACE('',(#872),#49,.T.);
#922=ADVANCED_FACE('',(#873),#50,.T.);
#923=ADVANCED_FACE('',(#874),#51,.F.);
#924=ADVANCED_FACE('',(#875),#52,.F.);
#925=ADVANCED_FACE('',(#876),#53,.T.);
#926=ADVANCED_FACE('',(#877),#54,.T.);
#927=CLOSED_SHELL('',(#881,#882,#883,#884,#885,#886,#887,#888,#889,#890,
#891,#892,#893,#894,#895,#896,#897,#898,#899,#900,#901,#902,#903,#904,#905,
#906,#907,#908,#909,#910,#911,#912,#913,#914,#915,#916,#917,#918,#919,#920,
#921,#922,#923,#924,#925,#926));
#928=STYLED_ITEM('',(#929),#936);
#929=PRESENTATION_STYLE_ASSIGNMENT((#930));
#930=SURFACE_STYLE_USAGE(.BOTH.,#931);
#931=SURFACE_SIDE_STYLE('',(#932));
#932=SURFACE_STYLE_FILL_AREA(#933);
#933=FILL_AREA_STYLE('',(#934));
#934=FILL_AREA_STYLE_COLOUR('',#935);
#935=COLOUR_RGB('',0.917647058823529,0.917647058823529,0.917647058823529);
#936=MANIFOLD_SOLID_BREP('TMat1',#927);
#937=SHAPE_DEFINITION_REPRESENTATION(#1482,#938);
#938=SHAPE_REPRESENTATION('TMat1',(#939),#1477);
#939=AXIS2_PLACEMENT_3D('',#1217,#991,#992);
#940=AXIS2_PLACEMENT_3D('',#1218,#993,#994);
#941=AXIS2_PLACEMENT_3D('',#1219,#995,#996);
#942=AXIS2_PLACEMENT_3D('',#1224,#998,#999);
#943=AXIS2_PLACEMENT_3D('',#1227,#1001,#1002);
#944=AXIS2_PLACEMENT_3D('',#1232,#1005,#1006);
#945=AXIS2_PLACEMENT_3D('',#1233,#1007,#1008);
#946=AXIS2_PLACEMENT_3D('',#1246,#1015,#1016);
#947=AXIS2_PLACEMENT_3D('',#1256,#1022,#1023);
#948=AXIS2_PLACEMENT_3D('',#1315,#1054,#1055);
#949=AXIS2_PLACEMENT_3D('',#1328,#1062,#1063);
#950=AXIS2_PLACEMENT_3D('',#1335,#1068,#1069);
#951=AXIS2_PLACEMENT_3D('',#1337,#1071,#1072);
#952=AXIS2_PLACEMENT_3D('',#1339,#1074,#1075);
#953=AXIS2_PLACEMENT_3D('',#1345,#1079,#1080);
#954=AXIS2_PLACEMENT_3D('',#1349,#1083,#1084);
#955=AXIS2_PLACEMENT_3D('',#1351,#1086,#1087);
#956=AXIS2_PLACEMENT_3D('',#1409,#1118,#1119);
#957=AXIS2_PLACEMENT_3D('',#1413,#1122,#1123);
#958=AXIS2_PLACEMENT_3D('',#1415,#1125,#1126);
#959=AXIS2_PLACEMENT_3D('',#1416,#1127,#1128);
#960=AXIS2_PLACEMENT_3D('',#1418,#1129,#1130);
#961=AXIS2_PLACEMENT_3D('',#1420,#1131,#1132);
#962=AXIS2_PLACEMENT_3D('',#1421,#1133,#1134);
#963=AXIS2_PLACEMENT_3D('',#1422,#1135,#1136);
#964=AXIS2_PLACEMENT_3D('',#1425,#1139,#1140);
#965=AXIS2_PLACEMENT_3D('',#1427,#1142,#1143);
#966=AXIS2_PLACEMENT_3D('',#1429,#1145,#1146);
#967=AXIS2_PLACEMENT_3D('',#1431,#1148,#1149);
#968=AXIS2_PLACEMENT_3D('',#1433,#1151,#1152);
#969=AXIS2_PLACEMENT_3D('',#1435,#1154,#1155);
#970=AXIS2_PLACEMENT_3D('',#1437,#1157,#1158);
#971=AXIS2_PLACEMENT_3D('',#1438,#1159,#1160);
#972=AXIS2_PLACEMENT_3D('',#1441,#1163,#1164);
#973=AXIS2_PLACEMENT_3D('',#1443,#1166,#1167);
#974=AXIS2_PLACEMENT_3D('',#1445,#1169,#1170);
#975=AXIS2_PLACEMENT_3D('',#1447,#1172,#1173);
#976=AXIS2_PLACEMENT_3D('',#1449,#1175,#1176);
#977=AXIS2_PLACEMENT_3D('',#1451,#1178,#1179);
#978=AXIS2_PLACEMENT_3D('',#1453,#1181,#1182);
#979=AXIS2_PLACEMENT_3D('',#1454,#1183,#1184);
#980=AXIS2_PLACEMENT_3D('',#1456,#1186,#1187);
#981=AXIS2_PLACEMENT_3D('',#1458,#1189,#1190);
#982=AXIS2_PLACEMENT_3D('',#1459,#1191,#1192);
#983=AXIS2_PLACEMENT_3D('',#1462,#1195,#1196);
#984=AXIS2_PLACEMENT_3D('',#1464,#1198,#1199);
#985=AXIS2_PLACEMENT_3D('',#1466,#1201,#1202);
#986=AXIS2_PLACEMENT_3D('',#1468,#1204,#1205);
#987=AXIS2_PLACEMENT_3D('',#1470,#1207,#1208);
#988=AXIS2_PLACEMENT_3D('',#1471,#1209,#1210);
#989=AXIS2_PLACEMENT_3D('',#1473,#1212,#1213);
#990=AXIS2_PLACEMENT_3D('',#1475,#1215,#1216);
#991=DIRECTION('',(0.,0.,1.));
#992=DIRECTION('',(1.,0.,0.));
#993=DIRECTION('',(0.,1.,0.));
#994=DIRECTION('',(0.,0.,1.));
#995=DIRECTION('',(-0.707106781186548,-0.707106781186548,0.));
#996=DIRECTION('',(-0.707106781186548,0.707106781186548,0.));
#997=DIRECTION('',(0.,1.,0.));
#998=DIRECTION('',(0.,1.,0.));
#999=DIRECTION('',(0.,0.,1.));
#1000=DIRECTION('',(0.,1.,0.));
#1001=DIRECTION('',(-1.,0.,0.));
#1002=DIRECTION('',(0.,0.,1.));
#1003=DIRECTION('',(1.,0.,0.));
#1004=DIRECTION('',(1.,0.,0.));
#1005=DIRECTION('',(1.,0.,0.));
#1006=DIRECTION('',(0.,0.,-1.));
#1007=DIRECTION('',(1.,0.,0.));
#1008=DIRECTION('',(0.,0.,-1.));
#1009=DIRECTION('',(0.,-1.,0.));
#1010=DIRECTION('',(0.,0.,1.));
#1011=DIRECTION('',(0.,-1.,0.));
#1012=DIRECTION('',(0.,0.,-1.));
#1013=DIRECTION('',(0.,-1.,0.));
#1014=DIRECTION('',(0.,0.,-1.));
#1015=DIRECTION('',(0.,1.,0.));
#1016=DIRECTION('',(0.,0.,1.));
#1017=DIRECTION('',(0.,0.,1.));
#1018=DIRECTION('',(1.,0.,0.));
#1019=DIRECTION('',(1.,0.,0.));
#1020=DIRECTION('',(0.,0.,-1.));
#1021=DIRECTION('',(1.,0.,0.));
#1022=DIRECTION('',(0.,0.,1.));
#1023=DIRECTION('',(1.,0.,0.));
#1024=DIRECTION('',(0.,-1.,0.));
#1025=DIRECTION('',(1.,0.,0.));
#1026=DIRECTION('',(0.,1.,0.));
#1027=DIRECTION('',(1.,0.,0.));
#1028=DIRECTION('',(0.,1.,0.));
#1029=DIRECTION('',(1.,0.,0.));
#1030=DIRECTION('',(-1.,0.,0.));
#1031=DIRECTION('',(0.,-1.,0.));
#1032=DIRECTION('',(-1.,0.,0.));
#1033=DIRECTION('',(0.,-1.,0.));
#1034=DIRECTION('',(-1.,0.,0.));
#1035=DIRECTION('',(0.,-1.,0.));
#1036=DIRECTION('',(-1.,0.,0.));
#1037=DIRECTION('',(0.,-1.,0.));
#1038=DIRECTION('',(0.,-1.,0.));
#1039=DIRECTION('',(-1.,0.,0.));
#1040=DIRECTION('',(0.,-1.,0.));
#1041=DIRECTION('',(-1.,0.,0.));
#1042=DIRECTION('',(0.,-1.,0.));
#1043=DIRECTION('',(-1.,0.,0.));
#1044=DIRECTION('',(0.,-1.,0.));
#1045=DIRECTION('',(-1.,0.,0.));
#1046=DIRECTION('',(1.,0.,0.));
#1047=DIRECTION('',(0.,-1.,0.));
#1048=DIRECTION('',(1.,0.,0.));
#1049=DIRECTION('',(0.,-1.,0.));
#1050=DIRECTION('',(1.,0.,0.));
#1051=DIRECTION('',(0.,1.,0.));
#1052=DIRECTION('',(1.,0.,0.));
#1053=DIRECTION('',(0.,1.,0.));
#1054=DIRECTION('',(0.,0.,1.));
#1055=DIRECTION('',(1.,0.,0.));
#1056=DIRECTION('',(1.,0.,0.));
#1057=DIRECTION('',(0.,-1.,0.));
#1058=DIRECTION('',(1.,0.,0.));
#1059=DIRECTION('',(0.,-1.,0.));
#1060=DIRECTION('',(1.,0.,0.));
#1061=DIRECTION('',(0.,-1.,0.));
#1062=DIRECTION('',(1.,0.,0.));
#1063=DIRECTION('',(0.,0.,-1.));
#1064=DIRECTION('',(0.,0.,-1.));
#1065=DIRECTION('',(0.,0.,-1.));
#1066=DIRECTION('',(0.,-1.,0.));
#1067=DIRECTION('',(0.,0.,1.));
#1068=DIRECTION('',(0.,1.,0.));
#1069=DIRECTION('',(0.,0.,1.));
#1070=DIRECTION('',(0.,0.,-1.));
#1071=DIRECTION('',(1.,0.,0.));
#1072=DIRECTION('',(0.,0.,-1.));
#1073=DIRECTION('',(0.,0.,-1.));
#1074=DIRECTION('',(0.,1.,0.));
#1075=DIRECTION('',(0.,0.,1.));
#1076=DIRECTION('',(0.,0.,1.));
#1077=DIRECTION('',(1.,0.,0.));
#1078=DIRECTION('',(0.,0.,1.));
#1079=DIRECTION('',(0.,1.,0.));
#1080=DIRECTION('',(0.,0.,1.));
#1081=DIRECTION('',(1.,0.,0.));
#1082=DIRECTION('',(0.,0.,-1.));
#1083=DIRECTION('',(1.,0.,0.));
#1084=DIRECTION('',(0.,0.,-1.));
#1085=DIRECTION('',(0.,-1.,0.));
#1086=DIRECTION('',(0.,0.,1.));
#1087=DIRECTION('',(1.,0.,0.));
#1088=DIRECTION('',(-1.,0.,0.));
#1089=DIRECTION('',(0.,-1.,0.));
#1090=DIRECTION('',(-1.,0.,0.));
#1091=DIRECTION('',(0.,-1.,0.));
#1092=DIRECTION('',(0.,-1.,0.));
#1093=DIRECTION('',(1.,0.,0.));
#1094=DIRECTION('',(-1.,0.,0.));
#1095=DIRECTION('',(0.,1.,0.));
#1096=DIRECTION('',(-1.,0.,0.));
#1097=DIRECTION('',(0.,1.,0.));
#1098=DIRECTION('',(-1.,0.,0.));
#1099=DIRECTION('',(0.,-1.,0.));
#1100=DIRECTION('',(-1.,0.,0.));
#1101=DIRECTION('',(0.,-1.,0.));
#1102=DIRECTION('',(0.,1.,0.));
#1103=DIRECTION('',(1.,0.,0.));
#1104=DIRECTION('',(0.,1.,0.));
#1105=DIRECTION('',(1.,0.,0.));
#1106=DIRECTION('',(0.,1.,0.));
#1107=DIRECTION('',(1.,0.,0.));
#1108=DIRECTION('',(0.,1.,0.));
#1109=DIRECTION('',(1.,0.,0.));
#1110=DIRECTION('',(1.,0.,0.));
#1111=DIRECTION('',(0.,1.,0.));
#1112=DIRECTION('',(1.,0.,0.));
#1113=DIRECTION('',(0.,1.,0.));
#1114=DIRECTION('',(1.,0.,0.));
#1115=DIRECTION('',(0.,1.,0.));
#1116=DIRECTION('',(1.,0.,0.));
#1117=DIRECTION('',(0.,1.,0.));
#1118=DIRECTION('',(0.,1.,0.));
#1119=DIRECTION('',(0.,0.,1.));
#1120=DIRECTION('',(0.,0.,-1.));
#1121=DIRECTION('',(1.,0.,0.));
#1122=DIRECTION('',(1.,0.,0.));
#1123=DIRECTION('',(0.,0.,-1.));
#1124=DIRECTION('',(0.,-1.,0.));
#1125=DIRECTION('',(0.,0.,-1.));
#1126=DIRECTION('',(-1.,0.,0.));
#1127=DIRECTION('',(0.,0.,1.));
#1128=DIRECTION('',(1.,0.,0.));
#1129=DIRECTION('',(0.,0.,1.));
#1130=DIRECTION('',(1.,0.,0.));
#1131=DIRECTION('',(0.,0.,1.));
#1132=DIRECTION('',(1.,0.,0.));
#1133=DIRECTION('',(0.,0.,1.));
#1134=DIRECTION('',(1.,0.,0.));
#1135=DIRECTION('',(0.,-1.,0.));
#1136=DIRECTION('',(0.,0.,-1.));
#1137=DIRECTION('',(0.,0.,-1.));
#1138=DIRECTION('',(0.,0.,-1.));
#1139=DIRECTION('',(1.,0.,0.));
#1140=DIRECTION('',(0.,0.,-1.));
#1141=DIRECTION('',(0.,0.,-1.));
#1142=DIRECTION('',(0.,-1.,0.));
#1143=DIRECTION('',(0.,0.,-1.));
#1144=DIRECTION('',(0.,0.,-1.));
#1145=DIRECTION('',(1.,0.,0.));
#1146=DIRECTION('',(0.,0.,-1.));
#1147=DIRECTION('',(0.,0.,-1.));
#1148=DIRECTION('',(0.,-1.,0.));
#1149=DIRECTION('',(0.,0.,-1.));
#1150=DIRECTION('',(0.,0.,-1.));
#1151=DIRECTION('',(1.,0.,0.));
#1152=DIRECTION('',(0.,0.,-1.));
#1153=DIRECTION('',(0.,0.,-1.));
#1154=DIRECTION('',(0.,-1.,0.));
#1155=DIRECTION('',(0.,0.,-1.));
#1156=DIRECTION('',(0.,0.,-1.));
#1157=DIRECTION('',(1.,0.,0.));
#1158=DIRECTION('',(0.,0.,-1.));
#1159=DIRECTION('',(1.,0.,0.));
#1160=DIRECTION('',(0.,0.,-1.));
#1161=DIRECTION('',(0.,0.,-1.));
#1162=DIRECTION('',(0.,0.,-1.));
#1163=DIRECTION('',(0.,-1.,0.));
#1164=DIRECTION('',(0.,0.,-1.));
#1165=DIRECTION('',(0.,0.,-1.));
#1166=DIRECTION('',(1.,0.,0.));
#1167=DIRECTION('',(0.,0.,-1.));
#1168=DIRECTION('',(0.,0.,-1.));
#1169=DIRECTION('',(0.,-1.,0.));
#1170=DIRECTION('',(0.,0.,-1.));
#1171=DIRECTION('',(0.,0.,-1.));
#1172=DIRECTION('',(1.,0.,0.));
#1173=DIRECTION('',(0.,0.,-1.));
#1174=DIRECTION('',(0.,0.,-1.));
#1175=DIRECTION('',(0.,-1.,0.));
#1176=DIRECTION('',(0.,0.,-1.));
#1177=DIRECTION('',(0.,0.,-1.));
#1178=DIRECTION('',(1.,0.,0.));
#1179=DIRECTION('',(0.,0.,-1.));
#1180=DIRECTION('',(0.,0.,-1.));
#1181=DIRECTION('',(0.,-1.,0.));
#1182=DIRECTION('',(0.,0.,-1.));
#1183=DIRECTION('',(-1.,0.,0.));
#1184=DIRECTION('',(0.,0.,1.));
#1185=DIRECTION('',(0.,0.,-1.));
#1186=DIRECTION('',(-1.,0.,0.));
#1187=DIRECTION('',(0.,0.,1.));
#1188=DIRECTION('',(0.,0.,-1.));
#1189=DIRECTION('',(0.,1.,0.));
#1190=DIRECTION('',(0.,0.,1.));
#1191=DIRECTION('',(0.,1.,0.));
#1192=DIRECTION('',(0.,0.,1.));
#1193=DIRECTION('',(0.,0.,-1.));
#1194=DIRECTION('',(0.,0.,-1.));
#1195=DIRECTION('',(-1.,0.,0.));
#1196=DIRECTION('',(0.,0.,1.));
#1197=DIRECTION('',(0.,0.,-1.));
#1198=DIRECTION('',(0.,1.,0.));
#1199=DIRECTION('',(0.,0.,1.));
#1200=DIRECTION('',(0.,0.,-1.));
#1201=DIRECTION('',(-1.,0.,0.));
#1202=DIRECTION('',(0.,0.,1.));
#1203=DIRECTION('',(0.,0.,-1.));
#1204=DIRECTION('',(0.,1.,0.));
#1205=DIRECTION('',(0.,0.,1.));
#1206=DIRECTION('',(0.,0.,-1.));
#1207=DIRECTION('',(1.,0.,0.));
#1208=DIRECTION('',(0.,0.,-1.));
#1209=DIRECTION('',(0.,1.,0.));
#1210=DIRECTION('',(0.,0.,1.));
#1211=DIRECTION('',(0.,0.,-1.));
#1212=DIRECTION('',(1.,0.,0.));
#1213=DIRECTION('',(0.,0.,-1.));
#1214=DIRECTION('',(0.,0.,-1.));
#1215=DIRECTION('',(0.,1.,0.));
#1216=DIRECTION('',(0.,0.,1.));
#1217=CARTESIAN_POINT('',(0.,0.,0.));
#1218=CARTESIAN_POINT('',(-0.984396789386984,0.419124473775878,0.002));
#1219=CARTESIAN_POINT('',(-0.984396789386984,0.592124473775878,0.002));
#1220=CARTESIAN_POINT('',(-0.984396789386984,0.592124473775878,0.));
#1221=CARTESIAN_POINT('',(-0.986396789386984,0.594124473775878,0.002));
#1222=CARTESIAN_POINT('',(-0.984396789386984,0.419124473775878,0.));
#1223=CARTESIAN_POINT('',(-0.984396789386984,0.344124473775878,0.));
#1224=CARTESIAN_POINT('',(-0.984396789386984,0.344124473775878,0.002));
#1225=CARTESIAN_POINT('',(-0.986396789386984,0.344124473775878,0.002));
#1226=CARTESIAN_POINT('',(-0.986396789386984,0.469124473775879,0.002));
#1227=CARTESIAN_POINT('',(-0.646396789386985,0.592124473775878,0.002));
#1228=CARTESIAN_POINT('',(-0.646396789386985,0.592124473775878,0.));
#1229=CARTESIAN_POINT('',(-0.746396789386985,0.592124473775878,0.));
#1230=CARTESIAN_POINT('',(-0.646396789386985,0.594124473775878,0.002));
#1231=CARTESIAN_POINT('',(-0.746396789386985,0.594124473775878,0.002));
#1232=CARTESIAN_POINT('',(-0.746396789386985,0.592124473775878,0.002));
#1233=CARTESIAN_POINT('',(-0.746396789386985,0.469124473775879,0.008));
#1234=CARTESIAN_POINT('',(-0.746396789386985,0.469124473775879,0.));
#1235=CARTESIAN_POINT('',(-0.746396789386985,0.581124473775878,0.));
#1236=CARTESIAN_POINT('',(-0.746396789386985,0.344124473775879,0.));
#1237=CARTESIAN_POINT('',(-0.746396789386985,0.581124473775878,0.008));
#1238=CARTESIAN_POINT('',(-0.746396789386985,0.581124473775878,0.002));
#1239=CARTESIAN_POINT('',(-0.746396789386985,0.469124473775879,0.002));
#1240=CARTESIAN_POINT('',(-0.746396789386985,0.369124473775879,0.002));
#1241=CARTESIAN_POINT('',(-0.746396789386985,0.369124473775879,0.017));
#1242=CARTESIAN_POINT('',(-0.746396789386985,0.369124473775879,0.017));
#1243=CARTESIAN_POINT('',(-0.746396789386985,0.469124473775879,0.017));
#1244=CARTESIAN_POINT('',(-0.746396789386985,0.344124473775879,0.017));
#1245=CARTESIAN_POINT('',(-0.746396789386985,0.344124473775879,0.008));
#1246=CARTESIAN_POINT('',(-0.866396789386984,0.344124473775878,0.008));
#1247=CARTESIAN_POINT('',(-0.973396789386984,0.344124473775878,0.008));
#1248=CARTESIAN_POINT('',(-0.973396789386984,0.344124473775878,0.));
#1249=CARTESIAN_POINT('',(-0.973396789386984,0.344124473775879,0.002));
#1250=CARTESIAN_POINT('',(-0.866396789386984,0.344124473775878,0.));
#1251=CARTESIAN_POINT('',(-0.866396789386984,0.344124473775878,0.017));
#1252=CARTESIAN_POINT('',(-0.771396789386985,0.344124473775878,0.017));
#1253=CARTESIAN_POINT('',(-0.771396789386985,0.344124473775878,0.017));
#1254=CARTESIAN_POINT('',(-0.771396789386985,0.344124473775878,0.002));
#1255=CARTESIAN_POINT('',(-0.866396789386984,0.344124473775878,0.002));
#1256=CARTESIAN_POINT('',(-0.646396789386985,0.419124473775878,0.));
#1257=CARTESIAN_POINT('',(-0.904396789386985,0.583624473775878,0.));
#1258=CARTESIAN_POINT('',(-0.904396789386985,0.586124473775878,0.));
#1259=CARTESIAN_POINT('',(-0.904396789386985,0.581124473775878,0.));
#1260=CARTESIAN_POINT('',(-0.975896789386985,0.586124473775878,0.));
#1261=CARTESIAN_POINT('',(-0.978396789386984,0.586124473775878,0.));
#1262=CARTESIAN_POINT('',(-0.978396789386984,0.549124473775878,0.));
#1263=CARTESIAN_POINT('',(-0.978396789386984,0.512124473775878,0.));
#1264=CARTESIAN_POINT('',(-0.975896789386985,0.512124473775878,0.));
#1265=CARTESIAN_POINT('',(-0.973396789386984,0.512124473775878,0.));
#1266=CARTESIAN_POINT('',(-0.973396789386984,0.546624473775878,0.));
#1267=CARTESIAN_POINT('',(-0.973396789386984,0.581124473775878,0.));
#1268=CARTESIAN_POINT('',(-0.938896789386985,0.581124473775878,0.));
#1269=CARTESIAN_POINT('',(-0.823396789386985,0.47142874831614,0.));
#1270=CARTESIAN_POINT('',(-0.786396789386985,0.47142874831614,0.));
#1271=CARTESIAN_POINT('',(-0.860396789386985,0.47142874831614,0.));
#1272=CARTESIAN_POINT('',(-0.786396789386985,0.49392874831614,0.));
#1273=CARTESIAN_POINT('',(-0.786396789386985,0.51642874831614,0.));
#1274=CARTESIAN_POINT('',(-0.788896789386985,0.51642874831614,0.));
#1275=CARTESIAN_POINT('',(-0.791396789386985,0.51642874831614,0.));
#1276=CARTESIAN_POINT('',(-0.791396789386985,0.49642874831614,0.));
#1277=CARTESIAN_POINT('',(-0.791396789386985,0.47642874831614,0.));
#1278=CARTESIAN_POINT('',(-0.823396789386985,0.47642874831614,0.));
#1279=CARTESIAN_POINT('',(-0.855396789386985,0.47642874831614,0.));
#1280=CARTESIAN_POINT('',(-0.855396789386985,0.49642874831614,0.));
#1281=CARTESIAN_POINT('',(-0.855396789386985,0.51642874831614,0.));
#1282=CARTESIAN_POINT('',(-0.857896789386984,0.51642874831614,0.));
#1283=CARTESIAN_POINT('',(-0.860396789386985,0.51642874831614,0.));
#1284=CARTESIAN_POINT('',(-0.860396789386985,0.49392874831614,0.));
#1285=CARTESIAN_POINT('',(-0.791396789386985,0.54642874831614,0.));
#1286=CARTESIAN_POINT('',(-0.791396789386985,0.56642874831614,0.));
#1287=CARTESIAN_POINT('',(-0.791396789386985,0.52642874831614,0.));
#1288=CARTESIAN_POINT('',(-0.788896789386985,0.52642874831614,0.));
#1289=CARTESIAN_POINT('',(-0.786396789386985,0.52642874831614,0.));
#1290=CARTESIAN_POINT('',(-0.786396789386985,0.54892874831614,0.));
#1291=CARTESIAN_POINT('',(-0.786396789386985,0.57142874831614,0.));
#1292=CARTESIAN_POINT('',(-0.823396789386985,0.57142874831614,0.));
#1293=CARTESIAN_POINT('',(-0.860396789386985,0.57142874831614,0.));
#1294=CARTESIAN_POINT('',(-0.860396789386985,0.54892874831614,0.));
#1295=CARTESIAN_POINT('',(-0.860396789386985,0.52642874831614,0.));
#1296=CARTESIAN_POINT('',(-0.857896789386984,0.52642874831614,0.));
#1297=CARTESIAN_POINT('',(-0.855396789386985,0.52642874831614,0.));
#1298=CARTESIAN_POINT('',(-0.855396789386985,0.54642874831614,0.));
#1299=CARTESIAN_POINT('',(-0.855396789386985,0.56642874831614,0.));
#1300=CARTESIAN_POINT('',(-0.823396789386985,0.56642874831614,0.));
#1301=CARTESIAN_POINT('',(-0.866396789386984,0.344124473775878,0.));
#1302=CARTESIAN_POINT('',(-0.978396789386984,0.344124473775878,0.));
#1303=CARTESIAN_POINT('',(-0.746396789386985,0.469124473775879,0.));
#1304=CARTESIAN_POINT('',(-0.746396789386985,0.586124473775878,0.));
#1305=CARTESIAN_POINT('',(-0.746396789386985,0.586124473775878,0.));
#1306=CARTESIAN_POINT('',(-0.826396789386985,0.586124473775878,0.));
#1307=CARTESIAN_POINT('',(-0.826396789386985,0.583624473775878,0.));
#1308=CARTESIAN_POINT('',(-0.826396789386985,0.581124473775878,0.));
#1309=CARTESIAN_POINT('',(-0.746396789386985,0.581124473775878,0.));
#1310=CARTESIAN_POINT('',(-0.973396789386984,0.369124473775878,0.));
#1311=CARTESIAN_POINT('',(-0.973396789386984,0.424124473775878,0.));
#1312=CARTESIAN_POINT('',(-0.975896789386985,0.424124473775878,0.));
#1313=CARTESIAN_POINT('',(-0.978396789386984,0.424124473775878,0.));
#1314=CARTESIAN_POINT('',(-0.978396789386984,0.369124473775878,0.));
#1315=CARTESIAN_POINT('',(-0.646396789386985,0.419124473775878,0.008));
#1316=CARTESIAN_POINT('',(-0.866396789386985,0.592124473775878,0.008));
#1317=CARTESIAN_POINT('',(-0.984396789386984,0.592124473775878,0.008));
#1318=CARTESIAN_POINT('',(-0.746396789386985,0.592124473775878,0.008));
#1319=CARTESIAN_POINT('',(-0.746396789386985,0.469124473775879,0.008));
#1320=CARTESIAN_POINT('',(-0.746396789386985,0.594124473775878,0.008));
#1321=CARTESIAN_POINT('',(-0.866396789386985,0.594124473775878,0.008));
#1322=CARTESIAN_POINT('',(-0.986396789386984,0.594124473775878,0.008));
#1323=CARTESIAN_POINT('',(-0.986396789386984,0.469124473775879,0.008));
#1324=CARTESIAN_POINT('',(-0.986396789386984,0.344124473775878,0.008));
#1325=CARTESIAN_POINT('',(-0.866396789386984,0.344124473775878,0.008));
#1326=CARTESIAN_POINT('',(-0.984396789386984,0.344124473775878,0.008));
#1327=CARTESIAN_POINT('',(-0.984396789386984,0.469124473775879,0.008));
#1328=CARTESIAN_POINT('',(-0.746396789386985,0.469124473775879,0.008));
#1329=CARTESIAN_POINT('',(-0.746396789386985,0.594124473775878,0.008));
#1330=CARTESIAN_POINT('',(-0.746396789386985,0.592124473775878,0.008));
#1331=CARTESIAN_POINT('',(-0.746396789386985,0.592124473775878,0.002));
#1332=CARTESIAN_POINT('',(-0.746396789386985,0.469124473775879,0.002));
#1333=CARTESIAN_POINT('',(-0.746396789386985,0.586124473775878,0.002));
#1334=CARTESIAN_POINT('',(-0.746396789386985,0.586124473775878,0.008));
#1335=CARTESIAN_POINT('',(-0.866396789386985,0.594124473775878,0.008));
#1336=CARTESIAN_POINT('',(-0.986396789386984,0.594124473775878,0.008));
#1337=CARTESIAN_POINT('',(-0.986396789386984,0.469124473775879,0.008));
#1338=CARTESIAN_POINT('',(-0.986396789386984,0.344124473775878,0.008));
#1339=CARTESIAN_POINT('',(-0.866396789386984,0.344124473775878,0.008));
#1340=CARTESIAN_POINT('',(-0.978396789386984,0.344124473775878,0.008));
#1341=CARTESIAN_POINT('',(-0.978396789386984,0.344124473775879,0.002));
#1342=CARTESIAN_POINT('',(-0.866396789386984,0.344124473775878,0.002));
#1343=CARTESIAN_POINT('',(-0.984396789386984,0.344124473775878,0.002));
#1344=CARTESIAN_POINT('',(-0.984396789386984,0.344124473775878,0.008));
#1345=CARTESIAN_POINT('',(-0.866396789386985,0.592124473775878,0.008));
#1346=CARTESIAN_POINT('',(-0.866396789386985,0.592124473775878,0.002));
#1347=CARTESIAN_POINT('',(-0.984396789386984,0.592124473775878,0.002));
#1348=CARTESIAN_POINT('',(-0.984396789386984,0.592124473775878,0.008));
#1349=CARTESIAN_POINT('',(-0.984396789386984,0.469124473775879,0.008));
#1350=CARTESIAN_POINT('',(-0.984396789386984,0.469124473775879,0.002));
#1351=CARTESIAN_POINT('',(-0.646396789386985,0.419124473775878,0.002));
#1352=CARTESIAN_POINT('',(-0.646396789386985,0.586124473775878,0.002));
#1353=CARTESIAN_POINT('',(-0.826396789386985,0.586124473775878,0.002));
#1354=CARTESIAN_POINT('',(-0.978396789386984,0.419124473775878,0.002));
#1355=CARTESIAN_POINT('',(-0.978396789386984,0.424124473775878,0.002));
#1356=CARTESIAN_POINT('',(-0.646396789386985,0.424124473775878,0.002));
#1357=CARTESIAN_POINT('',(-0.973396789386984,0.424124473775878,0.002));
#1358=CARTESIAN_POINT('',(-0.973396789386984,0.419124473775878,0.002));
#1359=CARTESIAN_POINT('',(-0.771396789386985,0.356624473775879,0.002));
#1360=CARTESIAN_POINT('',(-0.771396789386985,0.369124473775879,0.002));
#1361=CARTESIAN_POINT('',(-0.758896789386985,0.369124473775879,0.002));
#1362=CARTESIAN_POINT('',(-0.646396789386985,0.581124473775878,0.002));
#1363=CARTESIAN_POINT('',(-0.826396789386985,0.581124473775878,0.002));
#1364=CARTESIAN_POINT('',(-0.826396789386985,0.419124473775878,0.002));
#1365=CARTESIAN_POINT('',(-0.646396789386985,0.586124473775878,0.002));
#1366=CARTESIAN_POINT('',(-0.904396789386985,0.586124473775878,0.002));
#1367=CARTESIAN_POINT('',(-0.978396789386984,0.586124473775878,0.002));
#1368=CARTESIAN_POINT('',(-0.904396789386985,0.419124473775878,0.002));
#1369=CARTESIAN_POINT('',(-0.904396789386985,0.581124473775878,0.002));
#1370=CARTESIAN_POINT('',(-0.646396789386985,0.581124473775878,0.002));
#1371=CARTESIAN_POINT('',(-0.973396789386984,0.581124473775878,0.002));
#1372=CARTESIAN_POINT('',(-0.973396789386984,0.419124473775878,0.002));
#1373=CARTESIAN_POINT('',(-0.973396789386984,0.512124473775878,0.002));
#1374=CARTESIAN_POINT('',(-0.646396789386985,0.512124473775878,0.002));
#1375=CARTESIAN_POINT('',(-0.978396789386984,0.512124473775878,0.002));
#1376=CARTESIAN_POINT('',(-0.978396789386984,0.419124473775878,0.002));
#1377=CARTESIAN_POINT('',(-0.786396789386985,0.419124473775878,0.002));
#1378=CARTESIAN_POINT('',(-0.786396789386985,0.47142874831614,0.002));
#1379=CARTESIAN_POINT('',(-0.786396789386985,0.51642874831614,0.002));
#1380=CARTESIAN_POINT('',(-0.646396789386985,0.47142874831614,0.002));
#1381=CARTESIAN_POINT('',(-0.860396789386985,0.47142874831614,0.002));
#1382=CARTESIAN_POINT('',(-0.860396789386985,0.419124473775878,0.002));
#1383=CARTESIAN_POINT('',(-0.860396789386985,0.51642874831614,0.002));
#1384=CARTESIAN_POINT('',(-0.646396789386985,0.51642874831614,0.002));
#1385=CARTESIAN_POINT('',(-0.855396789386985,0.51642874831614,0.002));
#1386=CARTESIAN_POINT('',(-0.855396789386985,0.419124473775878,0.002));
#1387=CARTESIAN_POINT('',(-0.855396789386985,0.47642874831614,0.002));
#1388=CARTESIAN_POINT('',(-0.646396789386985,0.47642874831614,0.002));
#1389=CARTESIAN_POINT('',(-0.791396789386985,0.47642874831614,0.002));
#1390=CARTESIAN_POINT('',(-0.791396789386985,0.419124473775878,0.002));
#1391=CARTESIAN_POINT('',(-0.791396789386985,0.51642874831614,0.002));
#1392=CARTESIAN_POINT('',(-0.646396789386985,0.51642874831614,0.002));
#1393=CARTESIAN_POINT('',(-0.646396789386985,0.52642874831614,0.002));
#1394=CARTESIAN_POINT('',(-0.791396789386985,0.52642874831614,0.002));
#1395=CARTESIAN_POINT('',(-0.786396789386985,0.52642874831614,0.002));
#1396=CARTESIAN_POINT('',(-0.791396789386985,0.419124473775878,0.002));
#1397=CARTESIAN_POINT('',(-0.791396789386985,0.56642874831614,0.002));
#1398=CARTESIAN_POINT('',(-0.646396789386985,0.56642874831614,0.002));
#1399=CARTESIAN_POINT('',(-0.855396789386985,0.56642874831614,0.002));
#1400=CARTESIAN_POINT('',(-0.855396789386985,0.419124473775878,0.002));
#1401=CARTESIAN_POINT('',(-0.855396789386985,0.52642874831614,0.002));
#1402=CARTESIAN_POINT('',(-0.646396789386985,0.52642874831614,0.002));
#1403=CARTESIAN_POINT('',(-0.860396789386985,0.52642874831614,0.002));
#1404=CARTESIAN_POINT('',(-0.860396789386985,0.419124473775878,0.002));
#1405=CARTESIAN_POINT('',(-0.860396789386985,0.57142874831614,0.002));
#1406=CARTESIAN_POINT('',(-0.646396789386985,0.57142874831614,0.002));
#1407=CARTESIAN_POINT('',(-0.786396789386985,0.57142874831614,0.002));
#1408=CARTESIAN_POINT('',(-0.786396789386985,0.419124473775878,0.002));
#1409=CARTESIAN_POINT('',(-0.758896789386985,0.369124473775879,0.017));
#1410=CARTESIAN_POINT('',(-0.771396789386985,0.369124473775879,0.017));
#1411=CARTESIAN_POINT('',(-0.771396789386985,0.369124473775879,0.017));
#1412=CARTESIAN_POINT('',(-0.758896789386985,0.369124473775879,0.017));
#1413=CARTESIAN_POINT('',(-0.771396789386985,0.356624473775879,0.017));
#1414=CARTESIAN_POINT('',(-0.771396789386985,0.356624473775879,0.017));
#1415=CARTESIAN_POINT('',(-0.756396789386985,0.354124473775878,0.017));
#1416=CARTESIAN_POINT('',(-0.756396789386985,0.354124473775878,0.017));
#1417=CARTESIAN_POINT('',(-0.751246789386985,0.354124473775878,0.017));
#1418=CARTESIAN_POINT('',(-0.756396789386985,0.354124473775878,0.002));
#1419=CARTESIAN_POINT('',(-0.751246789386985,0.354124473775878,0.002));
#1420=CARTESIAN_POINT('',(-0.668896789386985,0.455624473775879,0.017));
#1421=CARTESIAN_POINT('',(-0.646396789386985,0.419124473775878,0.002));
#1422=CARTESIAN_POINT('',(-0.788896789386985,0.52642874831614,0.025));
#1423=CARTESIAN_POINT('',(-0.786396789386985,0.52642874831614,0.025));
#1424=CARTESIAN_POINT('',(-0.791396789386985,0.52642874831614,0.025));
#1425=CARTESIAN_POINT('',(-0.786396789386985,0.54892874831614,0.025));
#1426=CARTESIAN_POINT('',(-0.786396789386985,0.57142874831614,0.025));
#1427=CARTESIAN_POINT('',(-0.823396789386985,0.57142874831614,0.025));
#1428=CARTESIAN_POINT('',(-0.860396789386985,0.57142874831614,0.025));
#1429=CARTESIAN_POINT('',(-0.860396789386985,0.54892874831614,0.025));
#1430=CARTESIAN_POINT('',(-0.860396789386985,0.52642874831614,0.025));
#1431=CARTESIAN_POINT('',(-0.857896789386984,0.52642874831614,0.025));
#1432=CARTESIAN_POINT('',(-0.855396789386985,0.52642874831614,0.025));
#1433=CARTESIAN_POINT('',(-0.855396789386985,0.54642874831614,0.025));
#1434=CARTESIAN_POINT('',(-0.855396789386985,0.56642874831614,0.025));
#1435=CARTESIAN_POINT('',(-0.823396789386985,0.56642874831614,0.025));
#1436=CARTESIAN_POINT('',(-0.791396789386985,0.56642874831614,0.025));
#1437=CARTESIAN_POINT('',(-0.791396789386985,0.54642874831614,0.025));
#1438=CARTESIAN_POINT('',(-0.786396789386985,0.49392874831614,0.025));
#1439=CARTESIAN_POINT('',(-0.786396789386985,0.51642874831614,0.025));
#1440=CARTESIAN_POINT('',(-0.786396789386985,0.47142874831614,0.025));
#1441=CARTESIAN_POINT('',(-0.788896789386985,0.51642874831614,0.025));
#1442=CARTESIAN_POINT('',(-0.791396789386985,0.51642874831614,0.025));
#1443=CARTESIAN_POINT('',(-0.791396789386985,0.49642874831614,0.025));
#1444=CARTESIAN_POINT('',(-0.791396789386985,0.47642874831614,0.025));
#1445=CARTESIAN_POINT('',(-0.823396789386985,0.47642874831614,0.025));
#1446=CARTESIAN_POINT('',(-0.855396789386985,0.47642874831614,0.025));
#1447=CARTESIAN_POINT('',(-0.855396789386985,0.49642874831614,0.025));
#1448=CARTESIAN_POINT('',(-0.855396789386985,0.51642874831614,0.025));
#1449=CARTESIAN_POINT('',(-0.857896789386984,0.51642874831614,0.025));
#1450=CARTESIAN_POINT('',(-0.860396789386985,0.51642874831614,0.025));
#1451=CARTESIAN_POINT('',(-0.860396789386985,0.49392874831614,0.025));
#1452=CARTESIAN_POINT('',(-0.860396789386985,0.47142874831614,0.025));
#1453=CARTESIAN_POINT('',(-0.823396789386985,0.47142874831614,0.025));
#1454=CARTESIAN_POINT('',(-0.978396789386984,0.369124473775878,0.025));
#1455=CARTESIAN_POINT('',(-0.978396789386984,0.424124473775878,0.025));
#1456=CARTESIAN_POINT('',(-0.973396789386984,0.369124473775878,0.025));
#1457=CARTESIAN_POINT('',(-0.973396789386984,0.424124473775878,0.025));
#1458=CARTESIAN_POINT('',(-0.975896789386985,0.424124473775878,0.025));
#1459=CARTESIAN_POINT('',(-0.975896789386985,0.586124473775878,0.025));
#1460=CARTESIAN_POINT('',(-0.978396789386984,0.586124473775878,0.025));
#1461=CARTESIAN_POINT('',(-0.904396789386985,0.586124473775878,0.025));
#1462=CARTESIAN_POINT('',(-0.978396789386984,0.549124473775878,0.025));
#1463=CARTESIAN_POINT('',(-0.978396789386984,0.512124473775878,0.025));
#1464=CARTESIAN_POINT('',(-0.975896789386985,0.512124473775878,0.025));
#1465=CARTESIAN_POINT('',(-0.973396789386984,0.512124473775878,0.025));
#1466=CARTESIAN_POINT('',(-0.973396789386984,0.546624473775878,0.025));
#1467=CARTESIAN_POINT('',(-0.973396789386984,0.581124473775878,0.025));
#1468=CARTESIAN_POINT('',(-0.938896789386985,0.581124473775878,0.025));
#1469=CARTESIAN_POINT('',(-0.904396789386985,0.581124473775878,0.025));
#1470=CARTESIAN_POINT('',(-0.904396789386985,0.583624473775878,0.025));
#1471=CARTESIAN_POINT('',(-0.746396789386985,0.586124473775878,0.025));
#1472=CARTESIAN_POINT('',(-0.826396789386985,0.586124473775878,0.025));
#1473=CARTESIAN_POINT('',(-0.826396789386985,0.583624473775878,0.025));
#1474=CARTESIAN_POINT('',(-0.826396789386985,0.581124473775878,0.025));
#1475=CARTESIAN_POINT('',(-0.746396789386985,0.581124473775878,0.025));
#1476=MECHANICAL_DESIGN_GEOMETRIC_PRESENTATION_REPRESENTATION('',(#928),
#1477);
#1477=(
GEOMETRIC_REPRESENTATION_CONTEXT(3)
GLOBAL_UNCERTAINTY_ASSIGNED_CONTEXT((#1478))
GLOBAL_UNIT_ASSIGNED_CONTEXT((#1481,#1480,#1479))
REPRESENTATION_CONTEXT('TMat1','TOP_LEVEL_ASSEMBLY_PART')
);
#1478=UNCERTAINTY_MEASURE_WITH_UNIT(LENGTH_MEASURE(1.E-8),#1481,
'DISTANCE_ACCURACY_VALUE','Maximum Tolerance applied to model');
#1479=(
NAMED_UNIT(*)
SI_UNIT($,.STERADIAN.)
SOLID_ANGLE_UNIT()
);
#1480=(
NAMED_UNIT(*)
PLANE_ANGLE_UNIT()
SI_UNIT($,.RADIAN.)
);
#1481=(
LENGTH_UNIT()
NAMED_UNIT(*)
SI_UNIT($,.METRE.)
);
#1482=PRODUCT_DEFINITION_SHAPE('','',#1483);
#1483=PRODUCT_DEFINITION('','',#1485,#1484);
#1484=PRODUCT_DEFINITION_CONTEXT('',#1491,'design');
#1485=PRODUCT_DEFINITION_FORMATION_WITH_SPECIFIED_SOURCE('','',#1487,
 .NOT_KNOWN.);
#1486=PRODUCT_RELATED_PRODUCT_CATEGORY('','',(#1487));
#1487=PRODUCT('TMat1','TMat1','TMat1',(#1489));
#1488=PRODUCT_CATEGORY('','');
#1489=PRODUCT_CONTEXT('',#1491,'mechanical');
#1490=APPLICATION_PROTOCOL_DEFINITION('international standard',
'ap242_managed_model_based_3d_engineering',2020,#1491);
#1491=APPLICATION_CONTEXT('managed model based 3d engineering');
ENDSEC;
END-ISO-10303-21;
